<svg xmlns="http://www.w3.org/2000/svg" viewBox="0 0 512 512">
	<path class="lexicon-icon-outline" d="M493.29,210.83L301.17,18.71c-24.95-24.95-65.39-24.95-90.34,0L18.71,210.83c-24.95,24.95-24.95,65.39,0,90.34l192.12,192.12c24.95,24.95,65.39,24.95,90.34,0l192.12-192.12C518.24,276.22,518.24,235.78,493.29,210.83z M376.81,351.82l-64.37-6.48c-6.18,0.03-9.24-7.41-4.84-11.81l17.65-17.64L256,246.64l-69.25,69.24l17.65,17.64c4.4,4.4,1.34,11.84-4.84,11.81l-64.37,6.48c-3.81-0.02-6.94-3.14-6.95-6.96l6.48-64.37c-0.03-6.18,7.41-9.24,11.81-4.84l17.64,17.64c48.25-49.75,59.03-52.6,59.89-73.12v-91.95h63.88v91.92c-0.72,19.87,16.02,27.16,59.89,73.14l17.64-17.64c4.4-4.4,11.84-1.35,11.81,4.84l6.48,64.37C383.74,348.68,380.62,351.8,376.81,351.82z"></path>
</svg>