<svg xmlns="http://www.w3.org/2000/svg" viewBox="0 0 512 512">
	<path class="lexicon-icon-outline change-top" d="M32,256L32,256c17.6,0,32-14.4,32-32v-96h342.6l-17.1,17.1c-12.4,12.4-12.4,32.8,0,45.3l0,0c12.4,12.4,32.8,12.4,45.3,0l67.9-67.9l0,0c12.4-12.4,12.4-32.8,0-45.3l0,0L434.8,9.3c-12.4-12.4-32.8-12.4-45.3,0l0,0c-12.4,12.4-12.4,32.8,0,45.3l9.4,9.4H32h0C14.4,64,0,78.4,0,96v0v128C0,241.6,14.4,256,32,256z"></path>
	<path class="lexicon-icon-outline change-bottom" d="M480,256L480,256c-17.6,0-32,14.4-32,32v96H105.4l17.1-17.1c12.4-12.4,12.4-32.8,0-45.3l0,0c-12.4-12.4-32.8-12.4-45.3,0L9.3,389.5l0,0c-12.4,12.4-12.4,32.8,0,45.3l0,0l67.9,67.9c12.4,12.4,32.8,12.4,45.3,0l0,0c12.4-12.4,12.4-32.8,0-45.3l-9.4-9.4H480h0c17.6,0,32-14.4,32-32v0V288C512,270.4,497.6,256,480,256z"></path>
</svg>