<svg xmlns="http://www.w3.org/2000/svg" viewBox="0 0 512 512">
	<path class="lexicon-icon-outline color-picker-bucket" d="M430.1,217.1L225,10.8c-29.8-30-75.9,15.3-45.6,45.8l22.8,22.9L19.9,262.9c-25.2,25.3-25.2,66.4,0,91.7l136.7,137.5c25.2,25.3,66,25.3,91.2,0l182.3-183.3C455.2,283.4,455.2,242.4,430.1,217.1z M247.8,125.4l130.1,130.8H117.7L247.8,125.4z"></path>
	<path class="lexicon-icon-outline color-picker-drop" d="M511,446.6c0,85.6-128.9,86.1-128.9,0c0-35.8,64.5-97.2,64.5-97.2S511,410.8,511,446.6z"></path>
</svg>