<svg xmlns="http://www.w3.org/2000/svg" viewBox="0 0 512 512">
	<rect y="64" fill="#B0BEC9" width="512" height="384"></rect>
	<rect x="16" y="80" fill="#0035A0" width="480" height="352"></rect>
	<rect x="88" y="80" fill="#FFFFFF" width="48" height="192"></rect>
	<rect x="16" y="152" fill="#FFFFFF" width="192" height="48"></rect>
	<rect x="16" y="152" fill="#FFFFFF" width="192" height="48"></rect>
	<rect x="96" y="80" fill="#E03232" width="32" height="192"></rect>
	<rect x="16" y="160" fill="#E03232" width="192" height="32"></rect>
	<polygon fill="#E03232" points="27.3,80 16,80 16,91.3 196.7,272 208,272 208,260.7 "></polygon>
	<polygon fill="#E03232" points="208,91.3 208,80 196.7,80 16,260.7 16,272 27.3,272 "></polygon>
	<rect x="384" y="272" fill="#FFFFFF" width="16" height="16"></rect>
	<rect x="96" y="336" fill="#FFFFFF" width="32" height="32"></rect>
	<rect x="288" y="112" fill="#FFFFFF" width="32" height="32"></rect>
	<rect x="272" y="240" fill="#FFFFFF" width="32" height="32"></rect>
	<rect x="400" y="176" fill="#FFFFFF" width="32" height="32"></rect>
</svg>
