<svg xmlns="http://www.w3.org/2000/svg" viewBox="0 0 512 512">
	<path d="M0 64h512v384H0V64z" fill="#00AFCA"></path>
	<circle cx="282.8" cy="209.3" r="55.2" fill="#FEC50C"></circle>
	<path d="M282.8 150.6c3.9 0 6.2-2.5 6.2-6.3 0-3.3-4-17.2-4.4-18.8l-1.8-6.3-1.8 6.3c-.5 1.6-4.4 15.4-4.4 18.8-.1 3.8 2.4 6.3 6.2 6.3zM347.7 203c-3.8 0-6.3 2.4-6.3 6.2 0 3.8 2.5 6.2 6.3 6.2 3.3 0 17.2-4 18.8-4.4l6.3-1.8-6.3-1.8c-1.6-.4-15.5-4.4-18.8-4.4zM282.8 267.9c-3.9 0-6.2 2.5-6.2 6.3 0 3.3 4 17.2 4.4 18.8l1.8 6.3 1.8-6.3c.5-1.6 4.4-15.4 4.4-18.8 0-3.8-2.4-6.3-6.2-6.3zM217.8 215.5c3.8 0 6.3-2.4 6.3-6.2 0-3.8-2.5-6.2-6.3-6.2-3.3 0-17.2 4-18.8 4.4l-6.3 1.8 6.3 1.8c1.6.4 15.5 4.4 18.8 4.4zM301.5 151.4c.4 1.1 1.3 2.7 3.7 3.6 1 .4 1.9.6 2.7.6 2.4 0 4.3-1.4 5.4-4 1.3-3.1 2.9-17.4 3.1-19l.7-6.5-4.1 5.1c-1 1.3-10 12.6-11.3 15.6-.5 1.7-.6 3.2-.2 4.6zM345.1 228.3c-3.5-1.5-6.7-.1-8.2 3.4-1.4 3.6-.1 6.7 3.4 8.1 3.1 1.3 17.4 2.9 19 3.1l6.5.7-5.1-4.1c-1.2-.9-12.5-9.9-15.6-11.2zM260.3 263.4c-3.6-1.4-6.7-.1-8.2 3.4-1.3 3.1-2.9 17.4-3.1 19l-.7 6.5 4.1-5.1c1-1.3 10-12.6 11.3-15.7 1.4-3.4.1-6.6-3.4-8.1zM220.4 190.2c1 .4 1.9.6 2.8.6.6 0 1.2-.1 1.8-.3 1.1-.4 2.7-1.3 3.6-3.7 1.4-3.6.1-6.7-3.4-8.1-3.1-1.3-17.4-2.9-19-3.1l-6.5-.7 5.1 4.1c1.2.9 12.5 9.9 15.6 11.2zM322.2 163c-.1 1.2.2 3 2 4.8 1.4 1.3 2.9 2 4.4 2 1.5 0 3.1-.7 4.4-2 2.4-2.4 9.4-15 10.1-16.4l3.2-5.7-5.7 3.2c-1.4.8-14 7.8-16.4 10.1-1.2 1.2-1.9 2.6-2 4zM333.1 250.7c-2.7-2.7-6.2-2.7-8.9 0s-2.7 6.1 0 8.8c2.4 2.4 15 9.4 16.4 10.1l5.7 3.2-3.2-5.7c-.7-1.4-7.7-14-10-16.4zM243.3 255.5c.1-1.2-.2-3-2-4.8-2.7-2.7-6.1-2.7-8.8 0-2.4 2.4-9.4 15-10.1 16.4l-3.2 5.7 5.7-3.2c1.4-.8 14-7.8 16.4-10.1 1.2-1.1 1.9-2.6 2-4zM232.4 167.8c1.2 1.2 2.6 1.9 4.1 2h.4c1.2 0 2.8-.4 4.4-2 2.7-2.7 2.7-6.1 0-8.8-2.4-2.4-15-9.4-16.4-10.1l-5.7-3.2 3.2 5.7c.7 1.4 7.7 14 10 16.4zM336.9 181.6c-.5 1.1-1 2.8 0 5.2 1.1 2.6 3.1 3.9 5.4 3.9.9 0 1.8-.2 2.8-.6 3.1-1.3 14.4-10.3 15.7-11.3l5.1-4.1-6.5.7c-1.6.2-16 1.8-19 3.1-1.6.8-2.8 1.8-3.5 3.1zM313.4 266.8c-.7-1.6-1.7-2.8-3-3.4-1.1-.5-2.8-1-5.2 0-3.5 1.5-4.8 4.6-3.3 8.2 1.3 3.1 10.3 14.4 11.3 15.7l4.1 5.1-.7-6.5c-.3-1.6-1.9-16-3.2-19.1zM228.6 231.7c-1.5-3.5-4.7-4.8-8.2-3.4-3.1 1.3-14.4 10.3-15.7 11.3l-5.1 4.1 6.5-.7c1.6-.2 16-1.8 19-3.1 3.6-1.5 4.9-4.7 3.5-8.2zM252.2 151.7c1.1 2.6 3.1 4 5.4 4 .9 0 1.8-.2 2.7-.6 3.5-1.5 4.8-4.6 3.3-8.2-1.3-3.1-10.3-14.4-11.3-15.7l-4.1-5.1.7 6.5c.3 1.6 2 16 3.3 19.1zM294.2 151.7c.5.1 1 .1 1.5.1 3 0 5.2-1.9 5.8-5.1.7-3.3-.5-17.6-.7-19.3l-.6-6.5-3 5.8c-.8 1.5-7.4 14.3-8 17.5-.3 1.7-.1 3.3.6 4.5.7 1.2 1.9 2.5 4.4 3z" fill="#FEC50C"></path>
	<path d="M347.7 215.8c-1.7-.3-3.3-.1-4.5.6-1 .6-2.4 1.8-2.9 4.3-.7 3.8 1.2 6.6 4.9 7.3.7.1 1.9.2 3.3.2 5.4 0 14.6-.8 15.9-.9l6.5-.6-5.8-3c-1.3-.6-14.2-7.3-17.4-7.9zM271.3 266.8c-3.8-.7-6.6 1.2-7.3 4.9-.7 3.3.5 17.6.7 19.3l.6 6.5 3-5.8c.8-1.5 7.4-14.3 8-17.5.3-1.7.1-3.3-.6-4.5-.6-1.1-1.9-2.4-4.4-2.9zM217.9 202.7c.5.1 1.1.2 1.6.2 1.1 0 2.1-.2 3-.7 1-.6 2.4-1.8 2.9-4.3.7-3.8-1.2-6.6-4.9-7.3-3.3-.7-17.6.5-19.3.7l-6.5.6 5.8 3c1.3.6 14.1 7.2 17.4 7.8zM313.6 151.8c-1 1.4-1.4 3-1.2 4.4.1 1.2.8 2.9 2.9 4.3 1.2.8 2.5 1.2 3.7 1.2 1.9 0 3.7-1 5-3 1.9-2.8 6.3-16.5 6.7-18.1l2-6.2-5 4.2c-1.2 1.1-12.2 10.4-14.1 13.2zM340.2 240.1c-1.4-1-3-1.4-4.4-1.2-1.2.1-2.9.8-4.3 2.9-2.1 3.2-1.4 6.5 1.8 8.7 2.8 1.9 16.5 6.3 18.1 6.7l6.2 2-4.2-5c-1.1-1.2-10.4-12.2-13.2-14.1zM251.9 266.7c1-1.4 1.4-3 1.2-4.4-.1-1.2-.8-2.9-2.9-4.3-3.2-2.1-6.5-1.4-8.7 1.8-1.9 2.8-6.3 16.5-6.7 18.1l-2 6.2 5-4.2c1.2-1.1 12.2-10.4 14.1-13.2zM225.3 178.4c1.2.8 2.5 1.2 3.7 1.2 1.9 0 3.7-1 5-2.9 2.1-3.2 1.4-6.5-1.8-8.7-2.8-1.9-16.5-6.3-18.1-6.7l-6.2-2 4.2 5c1.1 1.2 10.4 12.2 13.2 14.1zM330.5 171.6c-.3 1.1-.4 2.9 1 5.1 1.3 1.9 3.1 2.9 5 2.9 1.2 0 2.5-.4 3.7-1.2 2.8-1.9 12.1-12.9 13.1-14.1l4.2-5-6.2 2c-1.6.5-15.3 4.9-18.1 6.7-1.4 1-2.3 2.2-2.7 3.6zM324 259.8c-1-1.4-2.2-2.4-3.6-2.8-1.1-.3-2.9-.4-5.1 1-3.2 2.2-3.8 5.5-1.7 8.7 1.9 2.8 12.9 12.1 14.1 13.1l5 4.2-2-6.2c-.4-1.5-4.8-15.3-6.7-18zM235 246.9c.3-1.1.4-2.9-1-5.1-2.2-3.2-5.5-3.8-8.7-1.7-2.8 1.9-12.1 12.9-13.1 14.1l-4.2 5 6.2-2c1.6-.5 15.3-4.9 18.1-6.7 1.4-1 2.4-2.2 2.7-3.6zM241.5 158.7c1 1.4 2.2 2.4 3.6 2.8.4.1.9.2 1.4.2 1 0 2.3-.3 3.7-1.2 3.2-2.2 3.8-5.5 1.7-8.7-1.9-2.8-12.9-12.1-14.1-13.1l-5-4.2 2 6.2c.5 1.5 4.8 15.3 6.7 18zM345.2 190.5c-1.7.3-3.1 1.1-4 2.3-.7.9-1.5 2.6-1 5.1.7 3.2 2.8 5 5.8 5 .5 0 1-.1 1.6-.2 3.3-.7 16.1-7.3 17.5-8l5.8-3-6.5-.6c-1.5-.1-15.9-1.3-19.2-.6zM299.3 267.8c-.9-.7-2.6-1.5-5.1-1-3.8.8-5.6 3.6-4.9 7.4.7 3.3 7.3 16.1 8 17.5l3 5.8.6-6.5c.1-1.6 1.3-16 .7-19.3-.4-1.7-1.2-3.1-2.3-3.9zM217 228.2c1.5 0 2.7-.1 3.3-.2 3.7-.7 5.7-3.6 4.9-7.3-.8-3.8-3.6-5.6-7.4-4.9-3.3.7-16.1 7.3-17.5 8l-5.8 3 6.5.6c1.3.1 10.5.8 16 .8zM269.8 151.9c.5 0 1-.1 1.5-.2 3.8-.8 5.6-3.6 4.9-7.4-.7-3.3-7.3-16.1-8-17.5l-3-5.8-.6 6.5c-.1 1.6-1.3 16-.7 19.3.7 3.2 2.9 5.1 5.9 5.1z" fill="#FEC50C"></path>
	<path d="M406.9 268.3c1.4-2.3 4-6.8 1.3-11.6l-.5-.9-.8-.6c-2.2-1.8-5-2.5-7.8-2-.1 0-.3.1-.4.1.2-1.4.3-2.9.3-4.4v-.1c0-3.9-1.1-6.9-3.3-8.7-1.8-1.5-4.1-2.2-6.6-1.9h-.2c-5.4 1-6.3 6.1-6.7 8 0 .1 0 .2-.1.3-1.5-.7-3.2-.8-4.9-.5-3.8.8-6.4 4.1-6.3 7.8-4.9 23.4-20.8 44.9-42.6 57.5-9.5 5.4-20.7 9.1-32.1 10.8l-.4.1c-1 .2-2.1.3-3.4.4-2.1.1-4.6.3-7.1 1.2l-.8.3-.7.5c-.9.7-1.8 1.5-2.6 2.2l.2-3.6c-.6 0-1.2-.1-1.7-.1-.9 0-1.9-.1-2.8-.2h-.2c-16.4-1-32.3-6.4-45.9-15.8-16.8-11.6-29-28.4-34.6-47.3l-.1-.3c-.4-1-.6-2.3-.9-3.7-.4-1.9-.8-3.9-1.6-5.9l-.5-1.3-1.1-.9c-2.3-1.9-5.5-2.4-8.2-1.3-.1 0-.1 0-.2.1v-.2l-.2-.6-.1-.3c0-.1-.1-.3-.1-.4-1.5-6.6-6-7.1-8-6.9-3.1 0-8 1.6-8.4 10.5v.4c0 1.4.1 2.9.3 4.3-2-.5-4-.3-6 .6-1.9.8-3.4 2.2-4.2 4.1-1.5 3.6.3 7.2 1.1 8.7.3.6.6 1.1.9 1.6-3.4 1.3-5.4 4.5-5 8.1l.2 1.2.7 1c2.9 4.6 6.3 8.7 9.9 12.4-.5.5-.9 1.1-1.1 1.8-1.5 3.5.7 6.8 1.9 8.6l.4.6.3.4c2.4 2.5 5 4.6 7.8 6.3-.9 1.8-.8 3.9.2 5.8l.3.6.4.5c1.6 1.8 3.5 3 5.4 3.8l-.5 3.1 2.9 2c.7.5 1.4.8 2.1 1.2l-1 1.7 4.3 2.7-4.1 2.1 12 4.4c3.9 1.4 8.1 3.1 13.5 5.5 10.6 4.7 20.3 7.3 29.7 7.8l1.4-11.2c-3.1-.6-6.2-1.5-9-2.5-5.3-1.8-10-3.4-14.4-5.3l2.9-2.4 3.2-1.4-1.3-.3 4.3-3.6-14.7-.5c-.6 0-1.2-.1-1.8-.2l-.3-1.5c-.6-2.9-2.6-4.3-4.5-5l.7-.6-.8-.3c-.2-1.3-.7-2.2-1.4-3l2.2-.9-4-1.8c-.1-.5-.3-1-.6-1.6l3.7-.6-11-8-.1-.1-.3-3.9 6.2 5.2v.1c3.3 4.4 6.8 8.9 11.4 12.7 4.4 3.7 9.5 5.5 14.4 6.9 2.3 1.5 4.5 3.6 6.8 5.9 1.6 1.6 3.3 3.3 5.2 4.8 6 5.5 14.1 5.9 19.5 6.2.6 0 1.3.1 2 .1 4 .2 7.8.3 10.9 1.4-1.7 1.4-3.5 2.5-5.5 3.2l-.4.1-.4.2c-1 .5-2.3.9-3.7 1.4-3.5 1.2-7.9 2.6-11 6.6l-.3.4-.2.4c-.2.4-.4.8-.5 1.3-1.1.8-2.2 1.8-3.1 3.2-1.1 1.7-1.4 3.3-1.5 4.4v.4c-.1 1.8.2 3.7 1.1 5.5l2.1 3.6 3.6-.3c.5 0 1.4-.2 2.2-.7 1.2.2 2.6 0 3.8-.8 1.7-.6 3.9-.8 6.2-1H262.5c-1.1 1.5-1.9 3.3-2.4 5.1l-1.4 5.5 5.4 1.4c3.4.9 6.4.2 9-1 .3.3.6.7 1 1l1.8 1.4 2.3-.2c1.5-.1 2.8-.5 4-1.1l.8.9 2.2.2c2.5.2 4.6-.5 6.2-1.5l.8.4c2.5 1.1 5.3 1 7.8-.1.6-.3 1.2-.6 1.8-1 .9.5 2 .7 3.1.7 2.2 0 4.2-.8 5.8-2.1l.2.1 1.5.2c3.6.6 6.2-.9 8.1-2.6 2.8 1 5.9.3 8.1-2 .6-.6 1.1-1.2 1.5-1.8 2.2.9 5.1 1.4 8.3-.5l.4-.3c1.3-1 2.2-2.2 2.8-3.4 3.6.7 7.5-.3 10.4-2.8 3.1-2.6 4.6-6.5 4-10.5l-.7-4.6-4.6-.2c3.6-1.2 7-2.8 10.1-4.8l.7-.5.2-.2.8-.4c2-1 5.6-2.8 5.5-6.9 1.7-.2 3.5-.5 5.2-1.1l3.5-1.2.3-3.7v-.2c1.7-.6 3.4-1.5 5.1-2.7l7.4-5.7-1.8-.8c.2-.1.4-.3.6-.4l.5-.3.4-.4c2.9-3.3 1.8-6.4 1.4-7.4 3.7-2.3 7.6-5.1 10.4-9.4 1.5-2.2 3.5-7.2.5-10.7 3.9-4.1 7.2-8.2 9.9-12.5l.7-1.1.1-1.3c0-3.1-2-6.3-5.3-7.6zm-78.1 78c-2.6-.2-5.3-.2-7.9-.1h-.3c-.3 0-.5 0-.8.1-1.7.1-4.6.3-6.7 2.7-.4.5-.8 1.1-1.1 1.9-1.3.5-3.1 1.6-3.9 3.9-.2.5-.3 1-.3 1.6-.2.1-.3.2-.5.3-2.3.8-4.6 1.2-7.1 1.4l-4.2-2.4c-1.7-1-3.4-1.2-4.5-1.3l-8.4-.1c-.4 0-.7-.1-1.1-.1-.7-.1-1.4-.1-2.1-.2l1.3-1.5 10.4-7.8-7.1.4c2.2-2 4.1-3.7 6.2-4.1l.5-.1c4.5-1.4 9.2-1.9 14.2-2.6 4.9-.6 9.9-1.2 15-2.6l1.9-.5 1.2-1.6c4.6-6.2 11.8-9.7 19.5-13.3 2.7-1.3 5.6-2.7 8.3-4.1 4.3-1.6 6-5.3 6.8-7.4.2-.2.3-.5.5-.7l6.1-2.9 3.2-.1-4.7 5.1 1.3.3-1.5 1.2-8.9 7.8 2.4.4c0 .1-.1.2-.1.3l-.4.2c-.5.2-1.1.4-1.6.7l-1.1.5.2.1c-1.2.8-2.2 1.9-2.8 3.5l-7.1-.6 2.5 7.9c-5.6 4.1-11.7 6.5-17.5 7.1l.2 6.7zM70.1 326.5c1.6-6.2 2.2-10.3 2.2-16.7 0-11-3.9-19.3-11-19.9 7.1-.6 11-8.9 11-19.9 0-6.5-.6-10.5-2.2-16.7 0 0-12.6-50.1-17.5-69.4-.6-2.4-.8-5.2-.8-9.2 0-6.2 3.2-11.3 6.5-11.5 3-.1 6.3 5.4 6.3 11.7 0 7.6-2.1 11.1-4.2 11.1-2.6 0-3.7-2.1-3.7-5.6 0-2.5.6-3.5 1.5-3.5 2.3 0 1.6 5.8 1.6 5.8 1.1-.5 2-2.6 1.5-5.4.8-.3 1.6-1.2 2.2-2.5-.6-1.1-1.3-2-2.2-2.3.5-3.3-.2-4.9-1.7-5.6.3 1.3.3 2.5.2 3.6-2.4-1.3-6.1.8-6.1 8.7 0 7.9 2.9 14.5 8.2 12.8-1.3 1.2-1.9 3.5-2.1 6.2 1-.7 2.1-.8 2.1-.8-.6 2.1-1.5 3.9-1.5 8.1 1-.9 1.9-2.5 3.2-1.4-2 7.5.5 17.8 6.7 20.3-2.3-5.1-3.4-10.6-3.4-16.1 0-17.8 2.6-20.8 2.6-33.2 0-5.1-1.4-10.6-4.1-14.4 1.8-.9 2.9-2.6 3.6-4.9-1.3-3.2-2.1-4.2-4.2-4.4 2.4-2.3 4.8-7.4 4.8-15.4 0-12.2-2.6-17.3-2.6-31 0-7.6 3.3-17.4 3.3-17.4-5.8 1.1-8.7 11.4-7 19.6-.9.3-1.8-.1-2.5-1.4-.4 2.3.2 4.9 1.1 7.2-.7.7-1.3.3-2.4-.2.1 2.3.8 4.8 2.6 7.2-5.2-2.6-8.4 4.4-8.4 11.6 0 5.5 2 9.4 4 9.4.6 0 1.6-.5 2.1-1.3.4 1.5.2 3.5-.2 5 1.4-.7 2.4-2.4 1.7-5.8 1.1-.2 2-.9 2.6-2.3-.6-1.5-1.5-2.3-2.6-2.3.8-3.2-.1-5-1.4-6.4 0 0 .8 6.4-1.3 6.4-1 0-1.8-.6-1.8-3.3 0-2.3 1.1-5.6 3.6-5.4 2.5.2 4.5 3.3 4.5 10.8 0 7-3 10.5-6.8 10.7-3.5.2-6.2-3.4-6.2-10.3 0-9.2 7-30.1 7-38.3 0-6.1-2.9-9.6-5.7-9.6-1.8 0-3.4 1.6-4.6 3.3-1.2-1.7-2.8-3.3-4.6-3.3-2.8 0-5.7 3.4-5.7 9.6 0 8.2 7 29.1 7 38.3 0 6.9-2.6 10.5-6.2 10.3-3.9-.2-6.8-3.7-6.8-10.7 0-7.6 2-10.6 4.5-10.8 2.5-.2 3.6 3 3.6 5.4 0 2.7-.9 3.3-1.8 3.3-2.1 0-1.3-6.4-1.3-6.4-1.3 1.4-2.2 3.2-1.4 6.4-1.1-.1-2 .8-2.6 2.3.6 1.4 1.5 2.1 2.6 2.3-.7 3.4.3 5 1.7 5.8-.4-1.5-.6-3.5-.2-5 .5.8 1.5 1.3 2.1 1.3 2 0 4-3.9 4-9.4 0-7.3-3.2-14.2-8.4-11.6 1.8-2.3 2.5-4.8 2.6-7.2-1.2.5-1.7.9-2.4.2.9-2.3 1.6-4.9 1.1-7.2-.7 1.3-1.6 1.7-2.5 1.4 1.6-8.2-1.2-18.5-7-19.6 0 0 3.3 9.7 3.3 17.4 0 13.8-2.6 18.8-2.6 31 0 7.9 2.4 13 4.8 15.4-2.1.3-2.9 1.2-4.2 4.4.7 2.3 1.8 4 3.6 4.9-2.7 3.8-4.1 9.3-4.1 14.4 0 12.4 2.6 15.4 2.6 33.2 0 5.5-1.1 11-3.4 16.1 6.2-2.4 8.7-12.8 6.7-20.3 1.3-1 2.2.6 3.2 1.4 0-4.1-.8-6-1.5-8.1 0 0 1.1.1 2.1.8-.1-2.7-.8-5-2.1-6.2 5.4 1.7 8.2-5 8.2-12.8 0-7.9-3.7-10-6.1-8.7-.1-1.1-.1-2.3.2-3.6-1.5.7-2.2 2.3-1.7 5.6-.9.3-1.6 1.2-2.2 2.3.6 1.3 1.4 2.1 2.2 2.5-.5 2.7.4 4.9 1.5 5.4 0 0-.6-5.8 1.6-5.8.9 0 1.5 1.1 1.5 3.5 0 3.5-1 5.6-3.7 5.6-2.1 0-4.2-3.4-4.2-11.1 0-6.3 3.3-11.8 6.3-11.7 3.3.2 6.5 5.2 6.5 11.5 0 4-.2 6.8-.8 9.2-4.9 19.4-17.5 69.4-17.5 69.4-1.6 6.2-2.2 10.3-2.2 16.7 0 11 3.9 19.3 11 19.9-7.1.6-11 8.9-11 19.9 0 6.5.6 10.5 2.2 16.7 0 0 12.6 50.1 17.5 69.4.6 2.4.8 5.2.8 9.2 0 6.2-3.2 11.3-6.5 11.5-3 .1-6.3-5.4-6.3-11.7 0-7.6 2.1-11.1 4.2-11.1 2.6 0 3.7 2.1 3.7 5.6 0 2.5-.6 3.5-1.5 3.5-2.3 0-1.6-5.8-1.6-5.8-1.1.5-2 2.6-1.5 5.4-.8.3-1.6 1.2-2.2 2.5.6 1.1 1.3 2 2.2 2.3-.5 3.3.2 4.9 1.7 5.6-.3-1.3-.3-2.5-.2-3.6 2.4 1.3 6.1-.8 6.1-8.7 0-7.9-2.9-14.5-8.2-12.8 1.3-1.2 1.9-3.5 2.1-6.2-1 .7-2.1.8-2.1.8.6-2.1 1.5-3.9 1.5-8.1-1 .9-1.9 2.5-3.2 1.4 2-7.5-.5-17.8-6.7-20.3 2.3 5.1 3.4 10.6 3.4 16.1 0 17.8-2.6 20.8-2.6 33.2 0 5.1 1.4 10.6 4.1 14.4-1.8.9-2.9 2.6-3.6 4.9 4.2 2.3 10.2 2.2 13.5-.2 3.7-.8 6.4-6.3 7.1-9.1.8 2.8 3.4 8.3 7.1 9.1 3.3 2.4 9.3 2.5 13.5.2-.7-2.3-1.8-4-3.6-4.9 2.7-3.8 4.1-9.3 4.1-14.4 0-12.4-2.6-15.4-2.6-33.2 0-5.5 1.1-11 3.4-16.1-6.2 2.4-8.7 12.8-6.7 20.3-1.3 1-2.2-.6-3.2-1.4 0 4.1.8 6 1.5 8.1 0 0-1.1-.1-2.1-.8.1 2.7.8 5 2.1 6.2-5.4-1.7-8.2 5-8.2 12.8 0 7.9 3.7 10 6.1 8.7.1 1.1.1 2.3-.2 3.6 1.5-.7 2.2-2.3 1.7-5.6.9-.3 1.6-1.2 2.2-2.3-.6-1.3-1.4-2.1-2.2-2.5.5-2.7-.4-4.9-1.5-5.4 0 0 .6 5.8-1.6 5.8-.9 0-1.5-1.1-1.5-3.5 0-3.5 1-5.6 3.7-5.6 2.1 0 4.2 3.4 4.2 11.1 0 6.3-3.3 11.8-6.3 11.7-3.3-.2-6.5-5.2-6.5-11.5 0-4 .2-6.8.8-9.2 4.5-19.4 17.1-69.4 17.1-69.4zm-21.6-20.3c-1.7-10.3-6.8-15.9-11.4-16.4 4.6-.5 9.7-6.1 11.4-16.4 1.7 10.3 6.8 15.9 11.4 16.4-4.6.4-9.7 6.1-11.4 16.4zM43.4 97.6c1.3-3.1 5.1 3 5.1 3s3.8-6.1 5.1-3c1.6 3.7-2.8 18.4-5.1 29.2-2.3-10.7-6.7-25.5-5.1-29.2zm-2.1 58c-.2-.2-.6-.2-.8-.4 3.5-1.5 6.4-4 7.9-9.2 1.6 5.2 4.5 7.7 7.9 9.2-.3.1-.6.2-.8.4-3.7.8-6.4 6.3-7.1 9.1-.7-2.8-3.3-8.3-7.1-9.1zM29.4 268.8c0-3.6.5-7 1.2-10.1 3.6-14.9 15.3-62.2 17.8-72.1 2.5 9.9 14.2 57.2 17.8 72.1.8 3.2 1.2 6.5 1.2 10.1 0 9.1-4.4 12.3-6.9 12.3-3 0-6-4.3-6-9.7 0-3.4 1-5.5 2.4-5.5 3.4 0 3.2 5.5 2.5 8.9 2.1-1.8 3.3-5 3-8.4 1.2-.3 2.3-1.4 3.3-3.6-.8-2-1.8-3.5-3.3-3.5.7-5.2-1.2-7.5-3-8.7.6 3.8.9 8.3-2.5 8.3-2.5 0-4.5.8-5.6 3.9-.1-4.1-.3-20.5-.3-20.5-.1-6.1 4.3-6 7.1-4.1-1.1-7.1-3.3-10.9-8.3-9.9 1.2-1 2.5-3.2 2.5-7.4 0-5.8-2.4-12.1-4.1-14-1.6 1.9-4.1 8.3-4.1 14 0 4.3 1.3 6.5 2.5 7.4-5.1-1-7.3 2.9-8.3 9.9 2.8-1.8 7.3-2 7.1 4.1 0 0-.2 16.3-.3 20.5-1.1-3.1-3.1-3.9-5.6-3.9-3.4 0-3.1-4.4-2.5-8.3-1.8 1.2-3.6 3.4-3 8.7-1.5.1-2.5 1.5-3.3 3.5 1 2.2 2.2 3.3 3.3 3.6-.3 3.4.9 6.6 3 8.4-.7-3.4-.9-8.9 2.5-8.9 1.4 0 2.4 2.1 2.4 5.5 0 5.4-3 9.7-6 9.7-2.1 0-6.5-3.2-6.5-12.3zM48.5 393c-2.5-9.9-14.2-57.2-17.8-72.1-.8-3.2-1.2-6.5-1.2-10.1 0-9.1 4.4-12.3 6.9-12.3 3 0 6 4.3 6 9.7 0 3.4-1 5.5-2.4 5.5-3.4 0-3.2-5.5-2.5-8.9-2.1 1.8-3.3 5-3 8.4-1.2.3-2.3 1.4-3.3 3.6.8 2 1.8 3.5 3.3 3.5-.7 5.2 1.2 7.5 3 8.7-.6-3.8-.9-8.3 2.5-8.3 2.5 0 4.5-.8 5.6-3.9.1 4.1.3 20.5.3 20.5.1 6.1-4.3 6-7.1 4.1 1.1 7.1 3.3 10.9 8.3 9.9-1.2 1-2.5 3.2-2.5 7.4 0 5.8 2.4 12.1 4.1 14 1.6-1.9 4.1-8.3 4.1-14 0-4.3-1.3-6.5-2.5-7.4 5.1 1 7.3-2.9 8.3-9.9-2.8 1.8-7.3 2-7.1-4.1 0 0 .2-16.3.3-20.5 1.1 3.1 3.1 3.9 5.6 3.9 3.4 0 3.1 4.4 2.5 8.3 1.8-1.2 3.6-3.4 3-8.7 1.5-.1 2.5-1.5 3.3-3.5-1-2.2-2.2-3.3-3.3-3.6.3-3.4-.9-6.6-3-8.4.7 3.4.9 8.9-2.5 8.9-1.4 0-2.4-2.1-2.4-5.5 0-5.4 3-9.7 6-9.7 2.5 0 6.9 3.2 6.9 12.3 0 3.6-.5 7-1.2 10.1-4 14.9-15.7 62.2-18.2 72.1z" fill="#FEC50C"></path>
	<path d="M496 80v352H16V80h480m16-16H0v384h512V64z" fill="#AFBDC6"></path>
</svg>