<svg xmlns="http://www.w3.org/2000/svg" viewBox="0 0 512 512">
	<path class="lexicon-icon-outline" d="M512,223.8c0-8.6-3.4-16.4-8.9-22.1c-0.7-0.9-1.5-1.7-2.3-2.5L423.7,122c-13.6-13.6-35.7-13.6-49.3,0c-6.8,6.8-10.2,15.7-10.2,24.7c0,8.9,3.4,17.9,10.2,24.7l20.4,20.4H115.3l20.4-20.4c13.6-13.6,13.6-35.7,0-49.3c-13.6-13.6-35.7-13.6-49.3,0L9.2,199.1C2.7,205.7-1,214.6-1,223.8c0,9.3,3.7,18.1,10.2,24.7l77.1,77.1c13.6,13.6,35.7,13.6,49.3,0c6.8-6.8,10.2-15.7,10.2-24.7c0-8.9-3.4-17.9-10.2-24.7l-20.4-20.4h279.5l-20.4,20.4c-13.6,13.6-13.6,35.7,0,49.3c13.6,13.6,35.7,13.6,49.3,0l77.1-77.1c0.8-0.8,1.6-1.7,2.3-2.5C508.6,240.2,512,232.4,512,223.8z"></path>
</svg>
