<svg xmlns="http://www.w3.org/2000/svg" viewBox="0 0 512 512">
	<path class="lexicon-icon-body" fill="none" d="M437,75C388.7,26.6,324.4,0,256,0C187.6,0,123.3,26.6,75,75C26.6,123.3,0,187.6,0,256c0,68.4,26.6,132.7,75,181c48.4,48.4,112.6,75,181,75c68.4,0,132.7-26.6,181-75c48.4-48.4,75-112.6,75-181C512,187.6,485.4,123.3,437,75z"></path>
	<path class="lexicon-icon-outline info-panel-closed-border" d="M437,75C388.7,26.6,324.4,0,256,0C187.6,0,123.3,26.6,75,75C26.6,123.3,0,187.6,0,256c0,68.4,26.6,132.7,75,181c48.4,48.4,112.6,75,181,75c68.4,0,132.7-26.6,181-75c48.4-48.4,75-112.6,75-181C512,187.6,485.4,123.3,437,75z M256,480C132.5,480,32,379.5,32,256S132.5,32,256,32s224,100.5,224,224S379.5,480,256,480z"></path>
	<path class="lexicon-icon-outline info-panel-closed-i-stem" d="M288,384V224c0-17.7-14.3-32-32-32c-17.7,0-32,14.3-32,32v160c0,17.7,14.3,32,32,32C273.7,416,288,401.7,288,384z"></path>
	<circle class="lexicon-icon-outline info-panel-closed-i-dot" cx="256" cy="128" r="32"></circle>
</svg>