<svg xmlns="http://www.w3.org/2000/svg" viewBox="0 0 512 512">
	<path class="lexicon-icon-body thumbs-down-thumb-bg" fill="none" d="M120.1,31.1C83.9,56.9,64,91.4,64,128v35.9c-7.7,2.1-15.6,5.3-23.3,10.1C22.2,185.5,0,209,0,256c0,38,0.8,56.1,8.7,70.8c4.5,8.3,13.4,19.1,30.5,23.1c8.1,1.9,16.2,1.9,24.8,1.9l108.2,0.1c-4,9.1-7.6,18.6-10.7,29.4c-14.7,40.9-13.3,77,4.1,102c12.9,18.5,33.3,28.7,57.5,28.7c0.5,0,0.9,0,1.4,0l0.2,0c24-0.5,47.3-15.7,69.2-45.1c12.6-16.8,21.2-33.5,22.6-36.4L373.9,320H416V0L200.2,0C178.3,0,146.2,12.5,120.1,31.1z"></path>
	<path class="lexicon-icon-outline thumbs-down-thumb-border" d="M120.1,31.1C83.9,56.9,64,91.4,64,128v35.9c-7.7,2.1-15.6,5.3-23.3,10.1C22.2,185.5,0,209,0,256c0,38,0.8,56.1,8.7,70.8c4.5,8.3,13.4,19.1,30.5,23.1c8.1,1.9,16.2,1.9,24.8,1.9l108.2,0.1c-4,9.1-7.6,18.6-10.7,29.4c-14.7,40.9-13.3,77,4.1,102c12.9,18.5,33.3,28.7,57.5,28.7c0.5,0,0.9,0,1.4,0l0.2,0c24-0.5,47.3-15.7,69.2-45.1c12.6-16.8,21.2-33.5,22.6-36.4L373.9,320H416V0L200.2,0C178.3,0,146.2,12.5,120.1,31.1z M352,64v192h-17l-75.4,145.3l-0.3,0.6c-0.1,0.1-5.8,11.7-14.6,24c-11.3,15.8-19.4,21.2-21.9,22.2c-3.8-0.1-4.4-0.9-4.7-1.3c-3.3-4.7-4.9-20.4,4-44.5l0.5-1.3l0.4-1.3c4.5-16.5,11.3-29.5,20.6-47.4c2.9-5.6,5.9-11.3,9.1-17.8l23.3-46.3l-211.3-0.1C64,277.8,64,263.4,64,256c0-19.2,5.1-32,29.9-32c0.6,0,1,0,1.4,0l32.6,0.7V128c0-19.4,15.5-34.8,28.6-44.3C175.2,70.2,195,64.2,200.2,64L352,64z"></path>
	<path class="lexicon-icon-outline thumbs-down-cuff" d="M480,0c-17.7,0-32,14.3-32,32v256c0,17.7,14.3,32,32,32s32-14.3,32-32V32C512,14.3,497.7,0,480,0z"></path>
</svg>