<svg xmlns="http://www.w3.org/2000/svg" viewBox="0 0 512 512">
	<path class="lexicon-icon-outline" d="M510.4,270.5c3.1-14.3,1.3-24-3.2-36.1L452.6,98.9c-7-17.4-30.2-35.6-52.5-36.1h-48c-0.7-15.7-12.2-31-33.3-31H30.3C9.4,31.8-0.4,48.5,0.2,64.8H0V349c0,22.8,16.1,34.9,32.1,35.3c0,0.1,0,0.3,0,0.4c0,114.3,158.6,127.7,187.5,31.7h104.3c29.6,93.2,187.2,86,187.2-31.7c0-20.2-5.1-36.9-13.1-50.8L510.4,270.5z M351.9,126.9h43l26,64.7h-68.9V126.9z M96.2,384.4c0-43.1,64.1-43.4,64.1,0C160.3,428,96.2,426.6,96.2,384.4z M440.7,291.6c-46.2-11.6-100.6,8.7-116.8,60.6H219.3c-21.1-68-107.3-81.7-155.1-41.3V95.9h224.4v94.8c0,35.6,28.9,64.5,64.5,64.5l95.2,0l-0.7,2.9 M382.7,384.4c0-43.1,64.1-43.4,64.1,0C446.9,428,382.7,426.6,382.7,384.4z"/>
</svg>