<svg xmlns="http://www.w3.org/2000/svg" viewBox="0 0 512 512">
	<path class="lexicon-icon-outline" d="M333.1,365.1c-8.9,0-17.9,3.4-24.7,10.2L288,395.8V116.2l20.4,20.4c13.6,13.6,35.7,13.6,49.3,0c13.6-13.6,13.6-35.7,0-49.3l-77.1-77.1C274.1,3.7,265.3,0,256,0c-9.3,0-18.1,3.7-24.7,10.2l-77.1,77.1c-13.6,13.6-13.6,35.7,0,49.3c6.8,6.8,15.7,10.2,24.7,10.2c8.9,0,17.9-3.4,24.7-10.2l20.4-20.4v279.5l-20.4-20.4c-13.6-13.6-35.7-13.6-49.3,0c-13.6,13.6-13.6,35.7,0,49.3l77.1,77.1c0.8,0.8,1.7,1.6,2.5,2.3c5.7,5.5,13.5,8.9,22.1,8.9c8.6,0,16.4-3.4,22.1-8.9c0.9-0.7,1.7-1.5,2.5-2.3l77.1-77.1c13.6-13.6,13.6-35.7,0-49.3C351,368.5,342,365.1,333.1,365.1z"></path>
</svg>
