<svg width="24" height="24" viewBox="0 0 24 24" fill="none" xmlns="http://www.w3.org/2000/svg">
<rect width="24" height="24" rx="4" fill="white"/>
<path fill-rule="evenodd" clip-rule="evenodd" d="M8.34728 6.33461C10.1876 3.75374 15.3044 4.11282 18.0648 6.60392C23.2714 11.2944 16.5163 22.8522 10.1876 18.2291C10.0304 18.1169 9.87333 18.0046 9.71623 17.87C7.71886 16.1419 6.10299 13.6957 7.80862 7.45673C7.92083 7.03032 8.1228 6.67124 8.34728 6.33461Z" fill="#1AA0E8"/>
<path fill-rule="evenodd" clip-rule="evenodd" d="M8.34682 6.33461C13.6656 4.1577 20.331 9.38676 15.1468 15.1993C13.935 16.5459 12.0498 17.7353 10.1871 18.2291C8.84055 18.5881 7.49401 18.5657 6.43924 17.9598C3.90324 16.5459 3.27485 11.5188 5.22734 8.82571C6.12503 7.61382 7.20226 6.8059 8.34682 6.33461Z" fill="#0B63CE"/>
<path d="M15.1473 15.1993C20.3314 9.38676 13.6661 4.1577 8.34723 6.33461C8.12281 6.67125 7.92083 7.03032 7.80862 7.45673C6.103 13.6957 7.71885 16.1419 9.71623 17.87C9.87331 18.0046 10.0304 18.1169 10.1875 18.2291C12.0502 17.7353 13.9354 16.5459 15.1473 15.1993Z" fill="#134194"/>
</svg>
