<svg width="24" height="24" viewBox="0 0 24 24" fill="none" xmlns="http://www.w3.org/2000/svg">
<rect width="24" height="24" rx="4" fill="white"/>
<path d="M5 8H14.2686C14.6152 8.59686 15.2598 9 16 9C16.7402 9 17.3848 8.59686 17.7314 8H19C19.5527 8 20 7.5531 20 7C20 6.4469 19.5527 6 19 6H17.7314C17.3848 5.40314 16.7402 5 16 5C15.2598 5 14.6152 5.40314 14.2686 6H5C4.44727 6 4 6.4469 4 7C4 7.5531 4.44727 8 5 8Z" fill="#272833"/>
<path d="M19 16H17.7314C17.3848 15.4031 16.7402 15 16 15C15.2598 15 14.6152 15.4031 14.2686 16H5C4.44727 16 4 16.4469 4 17C4 17.5531 4.44727 18 5 18H14.2686C14.6152 18.5969 15.2598 19 16 19C16.7402 19 17.3848 18.5969 17.7314 18H19C19.5527 18 20 17.5531 20 17C20 16.4469 19.5527 16 19 16Z" fill="#272833"/>
<path d="M9.73145 11H19C19.5527 11 20 11.4469 20 12C20 12.5531 19.5527 13 19 13H9.72852C9.38086 13.5969 8.7373 14 7.99707 14C7.25586 14 6.6123 13.5969 6.26562 13H5C4.44727 13 4 12.5531 4 12C4 11.4469 4.44727 11 5 11H6.26855C6.61523 10.4031 7.25977 10 8 10C8.74023 10 9.38477 10.4031 9.73145 11Z" fill="#272833"/>
</svg>
