<?xml version="1.0" encoding="utf-8"?>
<!-- Generator: Adobe Illustrator 22.0.1, SVG Export Plug-In . SVG Version: 6.00 Build 0)  -->
<svg version="1.1" id="portlet-page" xmlns="http://www.w3.org/2000/svg" xmlns:xlink="http://www.w3.org/1999/xlink" x="0px"
	 y="0px" viewBox="0 0 576 324" style="enable-background:new 0 0 576 324;" xml:space="preserve">
<style type="text/css">
	.st0{fill:transparent;}
	.st1{fill:#6B6C7E;}
</style>
<rect y="0" class="st0" width="576" height="324"/>
<path class="st1" d="M206.1,71v182.1H370V71H206.1z M326.6,165.2c0-0.6,0.4-1,1-1h32.1c0.6,0,1,0.4,1,1v34.4c0,0.6-0.4,1-1,1h-32.1
	c-0.6,0-1-0.4-1-1V165.2z M215.1,81.1c0-0.6,0.4-1,1-1H320c0.6,0,1,0.4,1,1v34.4c0,0.5-0.5,1-1,1H216.1c-0.6,0-1-0.4-1-1V81.1z
	 M215.1,123.2c0-0.6,0.4-1,1-1H320c0.6,0,1,0.4,1,1v76.5c0,0.6-0.5,1-1,1H216.1c-0.6,0-1-0.4-1-1V123.2z M360.8,242.9
	c0,0.6-0.4,1-1,1H216.1c-0.6,0-1-0.4-1-1v-35.6c0-0.6,0.4-1,1-1h143.7c0.6,0,1,0.4,1,1V242.9z M360.8,157.6c0,0.6-0.4,1-1,1h-32.1
	c-0.6,0-1-0.4-1-1v-34.4c0-0.6,0.4-1,1-1h32.1c0.6,0,1,0.4,1,1V157.6z M360.8,115.5c0,0.5-0.4,1-1,1h-32.1c-0.6,0-1-0.4-1-1V81.1
	c0-0.6,0.4-1,1-1h32.1c0.6,0,1,0.4,1,1V115.5z"/>
</svg>
