<?xml version="1.0" encoding="utf-8"?>
<svg version="1.1" xmlns="http://www.w3.org/2000/svg" xmlns:xlink="http://www.w3.org/1999/xlink" height="240.9721144296409" width="237.38201904296875">
  <defs>
    <path id="path-0" opacity="1" fill-rule="evenodd" d="M169.2022705078125,3.32958984375 C168.28384399414062,3.32958984375 167.53933715820312,2.584228515625 167.53933715820312,1.664794921875 C167.53933715820312,0.745361328125 168.28384399414062,0 169.2022705078125,0 C170.12066650390625,0 170.86517333984375,0.745361328125 170.86517333984375,1.664794921875 C170.86517333984375,2.584228515625 170.12066650390625,3.32958984375 169.2022705078125,3.32958984375 L169.2022705078125,3.32958984375ZM184.16854858398438,1.664794921875 C184.16854858398438,2.58447265625 184.9168701171875,3.32958984375 185.83148193359375,3.32958984375 C186.74606323242188,3.32958984375 187.494384765625,2.58447265625 187.494384765625,1.664794921875 C187.494384765625,0.744873046875 186.74606323242188,0 185.83148193359375,0 C184.9168701171875,0 184.16854858398438,0.744873046875 184.16854858398438,1.664794921875 L184.16854858398438,1.664794921875ZM202.460693359375,3.32958984375 C201.54608154296875,3.32958984375 200.79776000976562,2.58447265625 200.79776000976562,1.664794921875 C200.79776000976562,0.744873046875 201.54608154296875,0 202.460693359375,0 C203.37527465820312,0 204.12359619140625,0.744873046875 204.12359619140625,1.664794921875 C204.12359619140625,2.58447265625 203.37527465820312,3.32958984375 202.460693359375,3.32958984375 L202.460693359375,3.32958984375ZM217.42697143554688,1.664794921875 C217.42697143554688,2.58447265625 218.17529296875,3.32958984375 219.08990478515625,3.32958984375 C220.00448608398438,3.32958984375 220.7528076171875,2.58447265625 220.7528076171875,1.664794921875 C220.7528076171875,0.744873046875 220.00448608398438,0 219.08990478515625,0 C218.17529296875,0 217.42697143554688,0.744873046875 217.42697143554688,1.664794921875 L217.42697143554688,1.664794921875ZM234.05618286132812,1.664794921875 C234.05618286132812,2.58447265625 234.80450439453125,3.32958984375 235.7191162109375,3.32958984375 C236.63369750976562,3.32958984375 237.38201904296875,2.58447265625 237.38201904296875,1.664794921875 C237.38201904296875,0.744873046875 236.63369750976562,0 235.7191162109375,0 C234.80450439453125,0 234.05618286132812,0.744873046875 234.05618286132812,1.664794921875 L234.05618286132812,1.664794921875ZM159.2247314453125,11.6533203125 C159.2247314453125,12.57275390625 159.96923828125,13.318115234375 160.88766479492188,13.318115234375 C161.80606079101562,13.318115234375 162.55056762695312,12.57275390625 162.55056762695312,11.6533203125 C162.55056762695312,10.73388671875 161.80606079101562,9.988525390625 160.88766479492188,9.988525390625 C159.96923828125,9.988525390625 159.2247314453125,10.73388671875 159.2247314453125,11.6533203125 L159.2247314453125,11.6533203125ZM177.51687622070312,13.318115234375 C176.59844970703125,13.318115234375 175.85394287109375,12.57275390625 175.85394287109375,11.6533203125 C175.85394287109375,10.73388671875 176.59844970703125,9.988525390625 177.51687622070312,9.988525390625 C178.43527221679688,9.988525390625 179.17977905273438,10.73388671875 179.17977905273438,11.6533203125 C179.17977905273438,12.57275390625 178.43527221679688,13.318115234375 177.51687622070312,13.318115234375 L177.51687622070312,13.318115234375ZM192.483154296875,11.6533203125 C192.483154296875,12.572998046875 193.23147583007812,13.318115234375 194.14608764648438,13.318115234375 C195.0606689453125,13.318115234375 195.80899047851562,12.572998046875 195.80899047851562,11.6533203125 C195.80899047851562,10.7333984375 195.0606689453125,9.988525390625 194.14608764648438,9.988525390625 C193.23147583007812,9.988525390625 192.483154296875,10.7333984375 192.483154296875,11.6533203125 L192.483154296875,11.6533203125ZM210.77529907226562,13.318115234375 C209.86068725585938,13.318115234375 209.11236572265625,12.572998046875 209.11236572265625,11.6533203125 C209.11236572265625,10.7333984375 209.86068725585938,9.988525390625 210.77529907226562,9.988525390625 C211.68988037109375,9.988525390625 212.43820190429688,10.7333984375 212.43820190429688,11.6533203125 C212.43820190429688,12.572998046875 211.68988037109375,13.318115234375 210.77529907226562,13.318115234375 L210.77529907226562,13.318115234375ZM225.7415771484375,11.6533203125 C225.7415771484375,12.572998046875 226.48989868164062,13.318115234375 227.40451049804688,13.318115234375 C228.319091796875,13.318115234375 229.06741333007812,12.572998046875 229.06741333007812,11.6533203125 C229.06741333007812,10.7333984375 228.319091796875,9.988525390625 227.40451049804688,9.988525390625 C226.48989868164062,9.988525390625 225.7415771484375,10.7333984375 225.7415771484375,11.6533203125 L225.7415771484375,11.6533203125ZM169.2022705078125,23.306640625 C168.28384399414062,23.306640625 167.53933715820312,22.561279296875 167.53933715820312,21.641845703125 C167.53933715820312,20.722412109375 168.28384399414062,19.97705078125 169.2022705078125,19.97705078125 C170.12066650390625,19.97705078125 170.86517333984375,20.722412109375 170.86517333984375,21.641845703125 C170.86517333984375,22.561279296875 170.12066650390625,23.306640625 169.2022705078125,23.306640625 L169.2022705078125,23.306640625ZM184.16854858398438,21.641845703125 C184.16854858398438,22.5615234375 184.9168701171875,23.306640625 185.83148193359375,23.306640625 C186.74606323242188,23.306640625 187.494384765625,22.5615234375 187.494384765625,21.641845703125 C187.494384765625,20.721923828125 186.74606323242188,19.97705078125 185.83148193359375,19.97705078125 C184.9168701171875,19.97705078125 184.16854858398438,20.721923828125 184.16854858398438,21.641845703125 L184.16854858398438,21.641845703125ZM202.460693359375,23.306640625 C201.54608154296875,23.306640625 200.79776000976562,22.5615234375 200.79776000976562,21.641845703125 C200.79776000976562,20.721923828125 201.54608154296875,19.97705078125 202.460693359375,19.97705078125 C203.37527465820312,19.97705078125 204.12359619140625,20.721923828125 204.12359619140625,21.641845703125 C204.12359619140625,22.5615234375 203.37527465820312,23.306640625 202.460693359375,23.306640625 L202.460693359375,23.306640625ZM217.42697143554688,21.641845703125 C217.42697143554688,22.5615234375 218.17529296875,23.306640625 219.08990478515625,23.306640625 C220.00448608398438,23.306640625 220.7528076171875,22.5615234375 220.7528076171875,21.641845703125 C220.7528076171875,20.721923828125 220.00448608398438,19.97705078125 219.08990478515625,19.97705078125 C218.17529296875,19.97705078125 217.42697143554688,20.721923828125 217.42697143554688,21.641845703125 L217.42697143554688,21.641845703125ZM235.7191162109375,23.306640625 C234.80450439453125,23.306640625 234.05618286132812,22.5615234375 234.05618286132812,21.641845703125 C234.05618286132812,20.721923828125 234.80450439453125,19.97705078125 235.7191162109375,19.97705078125 C236.63369750976562,19.97705078125 237.38201904296875,20.721923828125 237.38201904296875,21.641845703125 C237.38201904296875,22.5615234375 236.63369750976562,23.306640625 235.7191162109375,23.306640625 L235.7191162109375,23.306640625ZM159.2247314453125,31.630126953125 C159.2247314453125,32.549560546875 159.96923828125,33.294921875 160.88766479492188,33.294921875 C161.80606079101562,33.294921875 162.55056762695312,32.549560546875 162.55056762695312,31.630126953125 C162.55056762695312,30.710693359375 161.80606079101562,29.96533203125 160.88766479492188,29.96533203125 C159.96923828125,29.96533203125 159.2247314453125,30.710693359375 159.2247314453125,31.630126953125 L159.2247314453125,31.630126953125ZM177.51687622070312,33.294921875 C176.59844970703125,33.294921875 175.85394287109375,32.549560546875 175.85394287109375,31.630126953125 C175.85394287109375,30.710693359375 176.59844970703125,29.96533203125 177.51687622070312,29.96533203125 C178.43527221679688,29.96533203125 179.17977905273438,30.710693359375 179.17977905273438,31.630126953125 C179.17977905273438,32.549560546875 178.43527221679688,33.294921875 177.51687622070312,33.294921875 L177.51687622070312,33.294921875ZM192.483154296875,31.630126953125 C192.483154296875,32.5498046875 193.23147583007812,33.294921875 194.14608764648438,33.294921875 C195.0606689453125,33.294921875 195.80899047851562,32.5498046875 195.80899047851562,31.630126953125 C195.80899047851562,30.710205078125 195.0606689453125,29.96533203125 194.14608764648438,29.96533203125 C193.23147583007812,29.96533203125 192.483154296875,30.710205078125 192.483154296875,31.630126953125 L192.483154296875,31.630126953125ZM210.77529907226562,33.294921875 C209.86068725585938,33.294921875 209.11236572265625,32.5498046875 209.11236572265625,31.630126953125 C209.11236572265625,30.710205078125 209.86068725585938,29.96533203125 210.77529907226562,29.96533203125 C211.68988037109375,29.96533203125 212.43820190429688,30.710205078125 212.43820190429688,31.630126953125 C212.43820190429688,32.5498046875 211.68988037109375,33.294921875 210.77529907226562,33.294921875 L210.77529907226562,33.294921875ZM225.7415771484375,31.630126953125 C225.7415771484375,32.5498046875 226.48989868164062,33.294921875 227.40451049804688,33.294921875 C228.319091796875,33.294921875 229.06741333007812,32.5498046875 229.06741333007812,31.630126953125 C229.06741333007812,30.710205078125 228.319091796875,29.96533203125 227.40451049804688,29.96533203125 C226.48989868164062,29.96533203125 225.7415771484375,30.710205078125 225.7415771484375,31.630126953125 L225.7415771484375,31.630126953125ZM169.2022705078125,43.283447265625 C168.28384399414062,43.283447265625 167.53933715820312,42.5380859375 167.53933715820312,41.61865234375 C167.53933715820312,40.69921875 168.28384399414062,39.953857421875 169.2022705078125,39.953857421875 C170.12066650390625,39.953857421875 170.86517333984375,40.69921875 170.86517333984375,41.61865234375 C170.86517333984375,42.5380859375 170.12066650390625,43.283447265625 169.2022705078125,43.283447265625 L169.2022705078125,43.283447265625ZM184.16854858398438,41.61865234375 C184.16854858398438,42.538330078125 184.9168701171875,43.283447265625 185.83148193359375,43.283447265625 C186.74606323242188,43.283447265625 187.494384765625,42.538330078125 187.494384765625,41.61865234375 C187.494384765625,40.69873046875 186.74606323242188,39.953857421875 185.83148193359375,39.953857421875 C184.9168701171875,39.953857421875 184.16854858398438,40.69873046875 184.16854858398438,41.61865234375 L184.16854858398438,41.61865234375ZM202.460693359375,43.283447265625 C201.54608154296875,43.283447265625 200.79776000976562,42.538330078125 200.79776000976562,41.61865234375 C200.79776000976562,40.69873046875 201.54608154296875,39.953857421875 202.460693359375,39.953857421875 C203.37527465820312,39.953857421875 204.12359619140625,40.69873046875 204.12359619140625,41.61865234375 C204.12359619140625,42.538330078125 203.37527465820312,43.283447265625 202.460693359375,43.283447265625 L202.460693359375,43.283447265625ZM217.42697143554688,41.61865234375 C217.42697143554688,42.538330078125 218.17529296875,43.283447265625 219.08990478515625,43.283447265625 C220.00448608398438,43.283447265625 220.7528076171875,42.538330078125 220.7528076171875,41.61865234375 C220.7528076171875,40.69873046875 220.00448608398438,39.953857421875 219.08990478515625,39.953857421875 C218.17529296875,39.953857421875 217.42697143554688,40.69873046875 217.42697143554688,41.61865234375 L217.42697143554688,41.61865234375ZM235.7191162109375,43.283447265625 C234.80450439453125,43.283447265625 234.05618286132812,42.538330078125 234.05618286132812,41.61865234375 C234.05618286132812,40.69873046875 234.80450439453125,39.953857421875 235.7191162109375,39.953857421875 C236.63369750976562,39.953857421875 237.38201904296875,40.69873046875 237.38201904296875,41.61865234375 C237.38201904296875,42.538330078125 236.63369750976562,43.283447265625 235.7191162109375,43.283447265625 L235.7191162109375,43.283447265625ZM192.483154296875,51.607177734375 C192.483154296875,52.52685546875 193.23147583007812,53.27197265625 194.14608764648438,53.27197265625 C195.0606689453125,53.27197265625 195.80899047851562,52.52685546875 195.80899047851562,51.607177734375 C195.80899047851562,50.687255859375 195.0606689453125,49.9423828125 194.14608764648438,49.9423828125 C193.23147583007812,49.9423828125 192.483154296875,50.687255859375 192.483154296875,51.607177734375 L192.483154296875,51.607177734375ZM210.77529907226562,53.27197265625 C209.86068725585938,53.27197265625 209.11236572265625,52.52685546875 209.11236572265625,51.607177734375 C209.11236572265625,50.687255859375 209.86068725585938,49.9423828125 210.77529907226562,49.9423828125 C211.68988037109375,49.9423828125 212.43820190429688,50.687255859375 212.43820190429688,51.607177734375 C212.43820190429688,52.52685546875 211.68988037109375,53.27197265625 210.77529907226562,53.27197265625 L210.77529907226562,53.27197265625ZM225.7415771484375,51.607177734375 C225.7415771484375,52.52685546875 226.48989868164062,53.27197265625 227.40451049804688,53.27197265625 C228.319091796875,53.27197265625 229.06741333007812,52.52685546875 229.06741333007812,51.607177734375 C229.06741333007812,50.687255859375 228.319091796875,49.9423828125 227.40451049804688,49.9423828125 C226.48989868164062,49.9423828125 225.7415771484375,50.687255859375 225.7415771484375,51.607177734375 L225.7415771484375,51.607177734375ZM159.2247314453125,51.607177734375 C159.21109008789062,52.21044921875 159.52484130859375,52.774169921875 160.044677734375,53.080078125 C160.56454467773438,53.3857421875 161.20901489257812,53.385986328125 161.72903442382812,53.080322265625 C162.2490234375,52.77490234375 162.56304931640625,52.21142578125 162.54974365234375,51.60791015625 C162.52975463867188,50.703125 161.79156494140625,49.980224609375 160.88763427734375,49.97998046875 C159.98370361328125,49.979736328125 159.24514770507812,50.702392578125 159.2247314453125,51.607177734375 L159.2247314453125,51.607177734375ZM176.67388916015625,53.080078125 C176.154052734375,52.774169921875 175.84030151367188,52.21044921875 175.85394287109375,51.607177734375 C175.87435913085938,50.702392578125 176.6129150390625,49.979736328125 177.516845703125,49.97998046875 C178.4207763671875,49.980224609375 179.15896606445312,50.703125 179.178955078125,51.60791015625 C179.1922607421875,52.21142578125 178.87823486328125,52.77490234375 178.35824584960938,53.080322265625 C177.83822631835938,53.385986328125 177.19375610351562,53.3857421875 176.67388916015625,53.080078125 L176.67388916015625,53.080078125ZM184.16854858398438,61.595703125 C184.16854858398438,62.515380859375 184.9168701171875,63.260498046875 185.83148193359375,63.260498046875 C186.74606323242188,63.260498046875 187.494384765625,62.515380859375 187.494384765625,61.595703125 C187.494384765625,60.67578125 186.74606323242188,59.930908203125 185.83148193359375,59.930908203125 C184.9168701171875,59.930908203125 184.16854858398438,60.67578125 184.16854858398438,61.595703125 L184.16854858398438,61.595703125ZM202.460693359375,63.260498046875 C201.54608154296875,63.260498046875 200.79776000976562,62.515380859375 200.79776000976562,61.595703125 C200.79776000976562,60.67578125 201.54608154296875,59.930908203125 202.460693359375,59.930908203125 C203.37527465820312,59.930908203125 204.12359619140625,60.67578125 204.12359619140625,61.595703125 C204.12359619140625,62.515380859375 203.37527465820312,63.260498046875 202.460693359375,63.260498046875 L202.460693359375,63.260498046875ZM217.42697143554688,61.595703125 C217.42697143554688,62.515380859375 218.17529296875,63.260498046875 219.08990478515625,63.260498046875 C220.00448608398438,63.260498046875 220.7528076171875,62.515380859375 220.7528076171875,61.595703125 C220.7528076171875,60.67578125 220.00448608398438,59.930908203125 219.08990478515625,59.930908203125 C218.17529296875,59.930908203125 217.42697143554688,60.67578125 217.42697143554688,61.595703125 L217.42697143554688,61.595703125ZM235.7191162109375,63.260498046875 C234.80450439453125,63.260498046875 234.05618286132812,62.515380859375 234.05618286132812,61.595703125 C234.05618286132812,60.67578125 234.80450439453125,59.930908203125 235.7191162109375,59.930908203125 C236.63369750976562,59.930908203125 237.38201904296875,60.67578125 237.38201904296875,61.595703125 C237.38201904296875,62.515380859375 236.63369750976562,63.260498046875 235.7191162109375,63.260498046875 L235.7191162109375,63.260498046875ZM168.35928344726562,63.068603515625 C167.83944702148438,62.7626953125 167.52569580078125,62.198974609375 167.53933715820312,61.595703125 C167.55975341796875,60.69091796875 168.29830932617188,59.96826171875 169.20223999023438,59.968505859375 C170.10617065429688,59.96875 170.8443603515625,60.691650390625 170.86434936523438,61.596435546875 C170.87765502929688,62.199951171875 170.56362915039062,62.763427734375 170.04364013671875,63.06884765625 C169.52362060546875,63.37451171875 168.879150390625,63.374267578125 168.35928344726562,63.068603515625 L168.35928344726562,63.068603515625Z"/>
    <path id="path-1" opacity="1" fill-rule="evenodd" d="M0,28.716885412449756 L212.02247191011224,28.716885412449756 L212.02247191011224,240.97211442964078 L0,240.97211442964078 L0,28.716885412449756Z"/>
    <path id="path-2" opacity="1" fill-rule="evenodd" d="M129.29213483146077,68.2546241509458 L32.842696629213606,68.2546241509458 L32.842696629213606,108.20854961300529 L129.29213483146077,108.20854961300529 L129.29213483146077,68.2546241509458Z"/>
    <path id="path-3" opacity="1" fill-rule="evenodd" d="M106.00000000000011,121.52652476702542 L32.842696629213606,121.52652476702542 L32.842696629213606,148.1624750750651 L106.00000000000011,148.1624750750651 L106.00000000000011,121.52652476702542Z"/>
    <path id="path-4" opacity="1" fill-rule="evenodd" d="M57.000000000000114,162 L32.842696629213606,162 L32.842696629213606,188.63595030803967 L57.000000000000114,188.63595030803967 L57.000000000000114,162Z"/>
  </defs>
  <g opacity="1">
    <g opacity="1">
      <use xlink:href="#path-0" fill="rgb(179,71,45)" fill-opacity="1"/>
    </g>
    <g opacity="1">
      <use xlink:href="#path-1" fill-opacity="0" stroke="rgb(255,214,204)" stroke-opacity="1" stroke-width="1"/>
    </g>
    <g opacity="1">
      <use xlink:href="#path-2" fill="rgb(179,71,45)" fill-opacity="1"/>
    </g>
    <g opacity="1">
      <use xlink:href="#path-3" fill="rgb(217,89,57)" fill-opacity="1"/>
    </g>
    <g opacity="1">
      <use xlink:href="#path-4" fill="rgb(253,114,80)" fill-opacity="1"/>
    </g>
  </g>
</svg>