<?xml version="1.0" encoding="utf-8"?>
<svg version="1.1" xmlns="http://www.w3.org/2000/svg" xmlns:xlink="http://www.w3.org/1999/xlink" height="64" width="71.086669921875">
  <defs>
    <path id="path-0" opacity="1" fill-rule="evenodd" d="M56.1478271484375,19.936767578125 C65.18939208984375,22.7347412109375 71.086669921875,27.2464599609375 71.086669921875,32.00732421875 C71.086669921875,36.7535400390625 65.2183837890625,41.2652587890625 56.23468017578125,44.063232421875 C58.3358154296875,53.350341796875 57.42291259765625,60.748046875 53.351318359375,63.12109375 C52.39501953125,63.677734375 51.293701171875,63.94140625 50.07659912109375,63.94140625 C46.0919189453125,63.94140625 40.8756103515625,61.099609375 35.601318359375,56.1483154296875 C30.32708740234375,61.12890625 25.1107177734375,64 21.1260986328125,64 C19.90887451171875,64 18.80767822265625,63.736328125 17.86590576171875,63.1796875 C13.77978515625,60.806640625 12.8524169921875,53.3944091796875 14.93890380859375,44.0777587890625 C5.8973388671875,41.2799072265625 0,36.76806640625 0,32.00732421875 C0,27.26123046875 5.86834716796875,22.7640380859375 14.8809814453125,19.9515380859375 C12.780029296875,10.6641845703125 13.69281005859375,3.2666015625 17.764404296875,0.8935546875 C18.7208251953125,0.3369140625 19.822021484375,0.0732421875 21.03912353515625,0.0732421875 L21.03912353515625,0.05859375 C25.0238037109375,0.05859375 30.2401123046875,2.900390625 35.514404296875,7.8516845703125 C40.7886962890625,2.87109375 46.0050048828125,0 49.98968505859375,0 L49.98968505859375,0.0146484375 C51.1866455078125,0.0167236328125 52.28277587890625,0.280517578125 53.22088623046875,0.8349609375 C57.3070068359375,3.2080078125 58.23431396484375,10.620361328125 56.1478271484375,19.936767578125 L56.1478271484375,19.936767578125ZM49.9752197265625,3.2666015625 C46.961669921875,3.2744140625 42.5343017578125,5.7054443359375 37.81829833984375,10.1368408203125 C39.861328125,12.2901611328125 41.889892578125,14.751220703125 43.84600830078125,17.461181640625 C47.106201171875,17.812744140625 50.20703125,18.3548583984375 53.0469970703125,19.057861328125 C53.36578369140625,17.578369140625 53.6265869140625,16.128173828125 53.7860107421875,14.751220703125 C54.4525146484375,9.1553955078125 53.59759521484375,4.8048095703125 51.62701416015625,3.662109375 C51.17779541015625,3.4130859375 50.6417236328125,3.28125 49.9752197265625,3.28125 L49.9752197265625,3.2666015625 L49.9752197265625,3.2666015625ZM33.21051025390625,10.1514892578125 C28.48687744140625,5.7423095703125 24.03851318359375,3.3251953125 21.03912353515625,3.3251953125 L21.03912353515625,3.33984375 C20.37261962890625,3.33984375 19.8074951171875,3.45703125 19.372802734375,3.720703125 C17.41668701171875,4.8780517578125 16.5762939453125,9.2286376953125 17.25732421875,14.8243408203125 C17.43121337890625,16.186767578125 17.677490234375,17.607666015625 18.01080322265625,19.0726318359375 C20.850830078125,18.3548583984375 23.95159912109375,17.812744140625 27.226318359375,17.461181640625 C29.15338134765625,14.751220703125 31.1820068359375,12.304931640625 33.21051025390625,10.1514892578125 L33.21051025390625,10.1514892578125ZM35.4998779296875,12.451416015625 C36.847412109375,13.857666015625 38.19500732421875,15.425048828125 39.52801513671875,17.138916015625 C38.2239990234375,17.080322265625 36.890869140625,17.036376953125 35.54339599609375,17.036376953125 C34.1812744140625,17.036376953125 32.83380126953125,17.065673828125 31.51519775390625,17.138916015625 C32.81927490234375,15.425048828125 34.16680908203125,13.857666015625 35.4998779296875,12.451416015625 L35.4998779296875,12.451416015625ZM45.5848388671875,37.8375244140625 C44.45465087890625,39.815185546875 43.29541015625,41.690185546875 42.09271240234375,43.433349609375 C39.933837890625,43.623779296875 37.745849609375,43.726318359375 35.54339599609375,43.726318359375 C33.35540771484375,43.726318359375 31.16754150390625,43.623779296875 29.02301025390625,43.447998046875 C27.8203125,41.7047119140625 26.646728515625,39.844482421875 25.51654052734375,37.8814697265625 C24.41522216796875,35.9625244140625 23.4154052734375,34.0142822265625 22.50262451171875,32.0513916015625 C23.4010009765625,30.08837890625 24.41522216796875,28.12548828125 25.50201416015625,26.20654296875 C26.6322021484375,24.22900390625 27.79132080078125,22.35400390625 28.9940185546875,20.6107177734375 C31.15301513671875,20.4202880859375 33.3409423828125,20.3177490234375 35.54339599609375,20.3177490234375 C37.7313232421875,20.3177490234375 39.9193115234375,20.4202880859375 42.0638427734375,20.5960693359375 C43.26641845703125,22.3392333984375 44.44012451171875,24.19970703125 45.5703125,26.16259765625 C46.6715087890625,28.08154296875 47.67132568359375,30.0299072265625 48.5841064453125,31.9927978515625 C47.67132568359375,33.9556884765625 46.6715087890625,35.9185791015625 45.5848388671875,37.8375244140625 L45.5848388671875,37.8375244140625ZM22.69097900390625,24.5511474609375 C23.35748291015625,23.364501953125 24.0675048828125,22.2073974609375 24.7774658203125,21.079345703125 C22.70538330078125,21.386962890625 20.70587158203125,21.7825927734375 18.80767822265625,22.2366943359375 C19.3582763671875,24.1409912109375 20.0247802734375,26.1038818359375 20.8072509765625,28.0667724609375 C21.4013671875,26.8948974609375 22.02435302734375,25.722900390625 22.69097900390625,24.5511474609375 L22.69097900390625,24.5511474609375ZM50.26495361328125,28.0228271484375 C51.01837158203125,26.0745849609375 51.68499755859375,24.126220703125 52.2210693359375,22.2366943359375 C50.3228759765625,21.767822265625 48.3377685546875,21.386962890625 46.2802734375,21.079345703125 C46.99029541015625,22.192626953125 47.70025634765625,23.335205078125 48.36676025390625,24.5072021484375 C49.04779052734375,25.6790771484375 49.6708984375,26.8509521484375 50.26495361328125,28.0228271484375 L50.26495361328125,28.0228271484375ZM55.394287109375,40.899169921875 C56.7998046875,40.445068359375 58.161865234375,39.9615478515625 59.40802001953125,39.4195556640625 C64.53741455078125,37.2222900390625 67.85546875,34.3072509765625 67.8699951171875,32.00732421875 C67.8699951171875,29.70751953125 64.5518798828125,26.8070068359375 59.4224853515625,24.5950927734375 C58.14739990234375,24.0531005859375 56.7852783203125,23.5550537109375 55.35089111328125,23.1009521484375 C54.53936767578125,25.9573974609375 53.46722412109375,28.93115234375 52.13409423828125,31.97802734375 C53.481689453125,35.0396728515625 54.56842041015625,38.0279541015625 55.394287109375,40.899169921875 L55.394287109375,40.899169921875ZM11.664306640625,39.4195556640625 C6.534912109375,37.2076416015625 3.21673583984375,34.3072509765625 3.21673583984375,32.00732421875 C3.21673583984375,29.70751953125 6.534912109375,26.7923583984375 11.664306640625,24.5950927734375 C12.910400390625,24.0531005859375 14.27239990234375,23.5697021484375 15.67791748046875,23.1156005859375 C16.50384521484375,25.9866943359375 17.59063720703125,28.97509765625 18.9381103515625,32.03662109375 C17.6051025390625,35.08349609375 16.5328369140625,38.0572509765625 15.721435546875,40.9136962890625 C14.28692626953125,40.4595947265625 12.9249267578125,39.9615478515625 11.664306640625,39.4195556640625 L11.664306640625,39.4195556640625ZM52.2645263671875,41.7633056640625 C51.71392822265625,39.8590087890625 51.04742431640625,37.8961181640625 50.2650146484375,35.9332275390625 C49.6708984375,37.1051025390625 49.04779052734375,38.2916259765625 48.38128662109375,39.4635009765625 C47.71478271484375,40.6500244140625 47.00482177734375,41.807373046875 46.2947998046875,42.9351806640625 C48.3668212890625,42.627685546875 50.36639404296875,42.232177734375 52.2645263671875,41.7633056640625 L52.2645263671875,41.7633056640625ZM18.8511962890625,41.778076171875 C20.749267578125,42.2467041015625 22.734375,42.6275634765625 24.7919921875,42.9351806640625 C24.08197021484375,41.8218994140625 23.386474609375,40.6793212890625 22.70538330078125,39.5074462890625 C22.0244140625,38.3355712890625 21.4013671875,37.1636962890625 20.80731201171875,35.9918212890625 C20.05377197265625,37.9400634765625 19.38726806640625,39.8883056640625 18.8511962890625,41.778076171875 L18.8511962890625,41.778076171875ZM53.82940673828125,49.190185546875 C54.510498046875,54.7860107421875 53.6700439453125,59.1365966796875 51.71392822265625,60.2938232421875 C51.27923583984375,60.5576171875 50.714111328125,60.6748046875 50.047607421875,60.6748046875 C47.0482177734375,60.6748046875 42.59991455078125,58.2576904296875 37.876220703125,53.8485107421875 C39.90484619140625,51.695068359375 41.933349609375,49.248779296875 43.86053466796875,46.538818359375 C47.13519287109375,46.1871337890625 50.23602294921875,45.6451416015625 53.0760498046875,44.9273681640625 C53.40924072265625,46.406982421875 53.67010498046875,47.827880859375 53.82940673828125,49.190185546875 L53.82940673828125,49.190185546875ZM17.30084228515625,49.2633056640625 C16.63421630859375,54.859130859375 17.4891357421875,59.2098388671875 19.459716796875,60.3524169921875 C19.8944091796875,60.6014404296875 20.44500732421875,60.7333984375 21.09710693359375,60.7479248046875 C24.11102294921875,60.7479248046875 28.5447998046875,58.3162841796875 33.26849365234375,53.8778076171875 C31.22540283203125,51.724365234375 29.1968994140625,49.2633056640625 27.24072265625,46.5533447265625 C23.98052978515625,46.201904296875 20.87969970703125,45.659912109375 18.03973388671875,44.9566650390625 C17.72100830078125,46.436279296875 17.460205078125,47.886474609375 17.30084228515625,49.2633056640625 L17.30084228515625,49.2633056640625ZM35.5723876953125,51.5633544921875 C34.22479248046875,50.156982421875 32.8773193359375,48.589599609375 31.544189453125,46.875732421875 C32.8482666015625,46.934326171875 34.1812744140625,46.978271484375 35.52886962890625,46.978271484375 C36.890869140625,46.978271484375 38.23846435546875,46.948974609375 39.5570068359375,46.875732421875 C38.25299072265625,48.589599609375 36.9053955078125,50.156982421875 35.5723876953125,51.5633544921875 L35.5723876953125,51.5633544921875Z"/>
    <path id="path-1" opacity="1" fill-rule="evenodd" d="M35.528100953674326,38.7019000000001 C39.185200953674325,38.7019000000001 42.14990095367433,35.7047000000001 42.14990095367433,32.0074000000001 C42.14990095367433,28.310200000000105 39.185200953674325,25.313000000000102 35.528100953674326,25.313000000000102 C31.87090095367433,25.313000000000102 28.90620095367433,28.3102000000001 28.90620095367433,32.0074000000001 C28.90620095367433,35.7047000000001 31.87090095367433,38.7019000000001 35.528100953674326,38.7019000000001Z"/>
  </defs>
  <g opacity="1">
    <g opacity="1">
      <use xlink:href="#path-0" fill="rgb(255,214,204)" fill-opacity="1"/>
    </g>
    <g opacity="1">
      <use xlink:href="#path-1" fill="rgb(255,214,204)" fill-opacity="1"/>
    </g>
  </g>
</svg>