<svg width="366" height="271" viewBox="0 0 366 271" fill="none" xmlns="http://www.w3.org/2000/svg">
<path d="M147.5 124H76.5C74.2909 124 72.5 122.209 72.5 120V46.5" stroke="#B3CDFF" stroke-width="2" stroke-dasharray="4 4"/>
<path d="M241.5 84.5L312.5 84.5C314.709 84.5 316.5 82.7091 316.5 80.5V7" stroke="#B3CDFF" stroke-width="2" stroke-dasharray="4 4"/>
<path d="M205 134L205 205C205 207.209 203.209 209 201 209L127.5 209" stroke="#B3CDFF" stroke-width="2" stroke-dasharray="4 4"/>
<rect x="128.5" y="28.5" width="129" height="162" rx="3.5" fill="white"/>
<rect x="128.5" y="28.5" width="129" height="162" rx="3.5" stroke="#B3CDFF" stroke-width="3"/>
<rect x="150.229" y="68.5" width="84.6689" height="17" rx="3.5" fill="white" stroke="#5791FF"/>
<rect x="154.099" y="76" width="44.5828" height="2" fill="#80ACFF"/>
<rect x="149.729" y="63" width="40.2119" height="3" fill="#0B5FFF"/>
<rect x="149.729" y="103" width="85.6689" height="72" rx="4" fill="white" stroke="#0B5FFF" stroke-opacity="0.4" stroke-width="6"/>
<rect x="150.229" y="103.5" width="84.6689" height="71" rx="3.5" fill="white" stroke="#0B5FFF"/>
<rect x="156.722" y="111" width="60.3179" height="3" fill="#80ACFF"/>
<rect x="156.722" y="120" width="27.9735" height="3" fill="#80ACFF"/>
<rect x="156.722" y="129" width="48.0795" height="3" fill="#80ACFF"/>
<rect x="149.729" y="95" width="44.5828" height="3" fill="#0B5FFF"/>
<rect x="225" y="125" width="24" height="24" rx="4" fill="#0B5FFF"/>
<path d="M239.113 133.25H232.556C232.195 133.25 231.901 132.914 231.901 132.5C231.901 132.086 232.195 131.75 232.556 131.75H239.113C239.474 131.75 239.768 132.086 239.768 132.5C239.768 132.914 239.474 133.25 239.113 133.25Z" fill="white"/>
<path d="M241.735 136.25H232.556C232.195 136.25 231.901 135.915 231.901 135.5C231.901 135.086 232.195 134.75 232.556 134.75H241.735C242.097 134.75 242.391 135.086 242.391 135.5C242.391 135.914 242.097 136.25 241.735 136.25Z" fill="white"/>
<path d="M232.556 139.25H239.113C239.474 139.25 239.768 138.914 239.768 138.5C239.768 138.086 239.474 137.75 239.113 137.75H232.556C232.195 137.75 231.901 138.085 231.901 138.5C231.901 138.914 232.195 139.25 232.556 139.25Z" fill="white"/>
<path d="M232.556 140.75H241.735C242.097 140.75 242.391 141.086 242.391 141.5C242.391 141.914 242.097 142.25 241.735 142.25H232.556C232.195 142.25 231.901 141.914 231.901 141.5C231.901 141.086 232.195 140.75 232.556 140.75Z" fill="white"/>
<rect x="175.702" y="44" width="9.61589" height="1" fill="#B3CDFF"/>
<circle cx="168" cy="44" r="5" fill="#B3CDFF"/>
<circle cx="194" cy="44" r="5" fill="#B3CDFF"/>
<rect x="201.556" y="44" width="9.61589" height="1" fill="#B3CDFF"/>
<circle cx="219" cy="44" r="5" fill="#B3CDFF"/>
<g filter="url(#filter0_d_908_117010)">
<rect x="239.25" y="7" width="115" height="32" rx="4" fill="white"/>
<rect x="239.25" y="7" width="115" height="32" rx="4" stroke="#0B5FFF" stroke-opacity="0.4" stroke-width="6"/>
</g>
<rect x="239.25" y="7" width="115" height="32" rx="4" fill="white"/>
<rect x="247.25" y="15" width="16" height="16" rx="4" fill="#F0F5FF"/>
<rect x="271.25" y="18" width="35" height="4" fill="#80ACFF"/>
<rect opacity="0.5" x="271.25" y="26" width="60" height="2" fill="#80ACFF"/>
<rect x="243.25" y="11" width="24" height="24" rx="4" fill="#0B5FFF"/>
<g filter="url(#filter1_d_908_117010)">
<rect x="11.5" y="27" width="83" height="79" rx="4" fill="white"/>
<rect x="11.5" y="27" width="83" height="79" rx="4" stroke="#0B5FFF" stroke-opacity="0.4" stroke-width="6"/>
</g>
<rect x="11.5" y="27" width="83" height="79" rx="4" fill="white"/>
<rect x="34.5" y="68" width="37" height="5" fill="#80ACFF"/>
<rect opacity="0.5" x="20.5" y="78" width="64" height="3" fill="#80ACFF"/>
<rect opacity="0.5" x="28.5" y="86" width="49" height="3" fill="#80ACFF"/>
<rect opacity="0.5" x="23.5" y="94" width="58" height="3" fill="#80ACFF"/>
<g filter="url(#filter2_d_908_117010)">
<rect x="58.5" y="177" width="83" height="79" rx="4" fill="white"/>
<rect x="58.5" y="177" width="83" height="79" rx="4" stroke="#0B5FFF" stroke-opacity="0.4" stroke-width="6"/>
</g>
<rect x="58.5" y="177" width="83" height="79" rx="4" fill="white"/>
<rect x="81.5" y="218" width="37" height="5" fill="#80ACFF"/>
<rect opacity="0.5" x="67.5" y="228" width="64" height="3" fill="#80ACFF"/>
<rect opacity="0.5" x="75.5" y="236" width="49" height="3" fill="#80ACFF"/>
<rect opacity="0.5" x="70.5" y="244" width="58" height="3" fill="#80ACFF"/>
<defs>
<filter id="filter0_d_908_117010" x="228.25" y="0" width="137" height="54" filterUnits="userSpaceOnUse" color-interpolation-filters="sRGB">
<feFlood flood-opacity="0" result="BackgroundImageFix"/>
<feColorMatrix in="SourceAlpha" type="matrix" values="0 0 0 0 0 0 0 0 0 0 0 0 0 0 0 0 0 0 127 0" result="hardAlpha"/>
<feOffset dy="4"/>
<feGaussianBlur stdDeviation="4"/>
<feColorMatrix type="matrix" values="0 0 0 0 0.152941 0 0 0 0 0.156863 0 0 0 0 0.2 0 0 0 0.12 0"/>
<feBlend mode="normal" in2="BackgroundImageFix" result="effect1_dropShadow_908_117010"/>
<feBlend mode="normal" in="SourceGraphic" in2="effect1_dropShadow_908_117010" result="shape"/>
</filter>
<filter id="filter1_d_908_117010" x="0.5" y="20" width="105" height="101" filterUnits="userSpaceOnUse" color-interpolation-filters="sRGB">
<feFlood flood-opacity="0" result="BackgroundImageFix"/>
<feColorMatrix in="SourceAlpha" type="matrix" values="0 0 0 0 0 0 0 0 0 0 0 0 0 0 0 0 0 0 127 0" result="hardAlpha"/>
<feOffset dy="4"/>
<feGaussianBlur stdDeviation="4"/>
<feColorMatrix type="matrix" values="0 0 0 0 0.152941 0 0 0 0 0.156863 0 0 0 0 0.2 0 0 0 0.12 0"/>
<feBlend mode="normal" in2="BackgroundImageFix" result="effect1_dropShadow_908_117010"/>
<feBlend mode="normal" in="SourceGraphic" in2="effect1_dropShadow_908_117010" result="shape"/>
</filter>
<filter id="filter2_d_908_117010" x="47.5" y="170" width="105" height="101" filterUnits="userSpaceOnUse" color-interpolation-filters="sRGB">
<feFlood flood-opacity="0" result="BackgroundImageFix"/>
<feColorMatrix in="SourceAlpha" type="matrix" values="0 0 0 0 0 0 0 0 0 0 0 0 0 0 0 0 0 0 127 0" result="hardAlpha"/>
<feOffset dy="4"/>
<feGaussianBlur stdDeviation="4"/>
<feColorMatrix type="matrix" values="0 0 0 0 0.152941 0 0 0 0 0.156863 0 0 0 0 0.2 0 0 0 0.12 0"/>
<feBlend mode="normal" in2="BackgroundImageFix" result="effect1_dropShadow_908_117010"/>
<feBlend mode="normal" in="SourceGraphic" in2="effect1_dropShadow_908_117010" result="shape"/>
</filter>
</defs>
</svg>
