<?xml version="1.0" encoding="utf-8"?>
<!-- Generator: Adobe Illustrator 19.0.0, SVG Export Plug-In . SVG Version: 6.00 Build 0)  -->
<svg version="1.1" id="calendar" xmlns="http://www.w3.org/2000/svg" xmlns:xlink="http://www.w3.org/1999/xlink" x="0px" y="0px"
	 viewBox="0 0 511.3752 512" enable-background="new 0 0 511.3752 512" xml:space="preserve">
<g>
	<path d="M511.3752,159.3746c0-35.0011-28.3741-63.375-63.375-63.375h-0.3126V64V32c0-17.6729-14.3271-32-32-32s-32,14.3271-32,32
		v63.9996h-96V32c0-17.6729-14.3271-32-32-32s-32,14.3271-32,32v63.9996h-96V32c0-17.6729-14.3271-32-32-32s-32,14.3271-32,32
		v63.9996H63.375C28.3741,95.9996,0,124.3735,0,159.3746V443.625C0,478.6261,28.3741,512,63.375,512h320.0001h31.9999l96.0002-96
		h-0.0001L511.3752,159.3746z M383.3751,448v-64h64L383.3751,448z M447.3752,288v32h-96h-32.0001v32v96H66.0057
		C65.0092,446.8388,64,444.8705,64,443.625l0.0005-283.6254L447.3752,160V288z"/>
	<rect x="95.6876" y="192" width="32" height="32"/>
	<rect x="159.6876" y="192" width="32" height="32"/>
	<rect x="223.6876" y="192" width="32" height="32"/>
	<rect x="287.6876" y="192" width="32" height="32"/>
	<rect x="351.6876" y="192" width="32" height="32"/>
	<rect x="95.6876" y="256" width="32" height="32"/>
	<rect x="159.6876" y="256" width="32" height="32"/>
	<rect x="223.6876" y="256" width="32" height="32"/>
	<rect x="287.6876" y="256" width="32" height="32"/>
	<rect x="351.6876" y="256" width="32" height="32"/>
	<rect x="95.6876" y="320" width="32" height="32"/>
	<rect x="95.6876" y="384" width="32" height="32"/>
	<rect x="159.6876" y="384" width="32" height="32"/>
	<rect x="159.6876" y="320" width="32" height="32"/>
	<rect x="223.6876" y="320" width="32" height="32"/>
</g>
</svg>
