<?xml version="1.0" encoding="utf-8"?>
<!-- Generator: Adobe Illustrator 19.0.0, SVG Export Plug-In . SVG Version: 6.00 Build 0)  -->
<svg version="1.1" id="categories" xmlns="http://www.w3.org/2000/svg" xmlns:xlink="http://www.w3.org/1999/xlink" x="0px" y="0px"
	 viewBox="0 0 512 512" enable-background="new 0 0 512 512" xml:space="preserve">
<g>
	<path d="M319.9686,255.9999c17.0912,0.006,33.162-6.6475,45.2545-18.7411c12.0923-12.0936,18.7454-28.166,18.7393-45.2589
		c0.0241-34.1495-29.7752-64-63.9938-64c-35.287,0.006-63.9877,28.7094-63.9937,64c0,17.0988,6.6589,33.1653,18.7453,45.2528
		C286.8187,249.3524,302.8835,256.012,319.9686,255.9999z M319.9686,162.9705c7.7517,0,15.0385,3.0249,20.5203,8.5072
		c5.4818,5.4822,8.5063,12.7698,8.5063,20.5223c0,7.7524-3.0186,15.046-8.5003,20.5283
		c-5.4818,5.4823-12.7746,8.5012-20.5263,8.5012c-15.5034,0-29.0266-13.5245-29.0266-29.0294
		C290.9481,176.006,303.9763,162.9766,319.9686,162.9705z"/>
	<path d="M0,426.2998c-0.0107,22.6826,8.9571,44.1504,25.2553,60.4521C41.5369,503.0332,62.9655,512,85.5941,512h0.0332
		l223.1383-0.0566h1.1923l1.1884-0.0889c19.4258-1.4551,56.3997-8.5244,86.1859-39.5107l87.3811-87.3545l0.6738-0.6943
		c32.9616-35.0088,35.5981-86.1777,6.2699-121.6699l-0.9667-1.1699l-5.2351-5.2356c32.8942-35.0064,35.509-86.1276,6.2023-121.595
		l-0.9667-1.1694l-96.6258-96.6353C364.9354,7.6875,333.2398,1.3018,316.9391,0.0884L315.7532,0H85.6185
		C62.9826,0.0112,41.5184,9.1069,25.1801,25.6123C8.9478,42.0103,0.0054,63.4697,0,86.0454 M85.5956,320
		c-5.6181,0-10.8363-2.249-15.0903-6.5039c-4.2628-4.2637-6.5145-9.5078-6.5115-15.1807V256V86.0532
		C63.9967,74.5166,74.3184,64.0054,85.6342,64h227.5744c7.7151,0.7598,21.7318,4.1997,35.6059,18.0747l94.2628,94.2715
		c7.7068,10.2988,6.1293,24.7842-4.0001,35.7739l-87.2244,87.1982l-0.5146,0.5264c-14.5474,15.2285-33.3151,19.1523-43.8864,20.0986
		L85.6044,320 M85.5941,448c-5.6166,0-10.8348-2.25-15.0884-6.5029c-4.2632-4.2637-6.5149-9.5078-6.512-15.1816v-45.1323
		c6.9827,1.8475,14.2245,2.8166,21.5989,2.8169h0.0356l223.1383-0.0566h1.1918l1.1889-0.0889
		c19.4258-1.4551,56.4026-8.5273,86.1893-39.5146l42.8732-42.8604l2.8679,2.8682c7.7063,10.2969,6.1293,24.7812-3.9987,35.7695
		l-87.2268,87.2012l-0.5146,0.5264c-14.5474,15.2285-33.3151,19.1523-43.8864,20.0986L85.6039,448"/>
</g>
</svg>
