<?xml version="1.0" encoding="utf-8"?>
<!-- Generator: Adobe Illustrator 19.0.0, SVG Export Plug-In . SVG Version: 6.00 Build 0)  -->
<svg version="1.1" id="date" xmlns="http://www.w3.org/2000/svg" xmlns:xlink="http://www.w3.org/1999/xlink" x="0px" y="0px"
	 width="512px" height="512px" viewBox="0 0 512 512" enable-background="new 0 0 512 512" xml:space="preserve">
<path id="XMLID_2_" d="M448,160V64c0-17.7-14.3-32-32-32s-32,14.3-32,32v96h-96V64c0-17.7-14.3-32-32-32s-32,14.3-32,32v96h-96V64
	c0-17.7-14.3-32-32-32S64,46.3,64,64v96H0v288c0,35.3,28.7,64,64,64h384c35.3,0,64-28.7,64-64V160H448z M448,448H64V224h384L448,448
	C448,448,448,448,448,448z"/>
</svg>
