<?xml version="1.0" encoding="iso-8859-1"?>
<!-- Generator: Adobe Illustrator 18.0.0, SVG Export Plug-In . SVG Version: 6.00 Build 0)  -->
<!DOCTYPE svg PUBLIC "-//W3C//DTD SVG 1.1//EN" "http://www.w3.org/Graphics/SVG/1.1/DTD/svg11.dtd">
<svg version="1.1" xmlns="http://www.w3.org/2000/svg" xmlns:xlink="http://www.w3.org/1999/xlink" x="0px" y="0px"
	 viewBox="0 0 32 24" style="enable-background:new 0 0 32 24;" xml:space="preserve">
<g id="ar-SA">
	<g>
		<g>
			<rect style="fill:#C0CFD8;" width="32" height="24"/>
			<rect x="1" y="1" style="fill:#75BD4A;" width="30" height="22"/>
		</g>
		<g>
			<path style="fill:#FFFFFF;" d="M12.539,2.768c-0.027-0.001-0.067,0.014-0.124,0.048c-0.127,0.085-0.38,0.348-0.387,0.651
				c-0.008,0.171-0.04,0.17,0.072,0.279c0.081,0.116,0.161,0.105,0.324,0.02c0.094-0.069,0.125-0.113,0.157-0.228
				c0.039-0.194-0.204,0.092-0.235-0.124c-0.054-0.2,0.101-0.283,0.248-0.477C12.596,2.844,12.598,2.769,12.539,2.768L12.539,2.768z
				 M14.911,2.781c-0.045,0.006-0.101,0.064-0.178,0.205c-0.055,0.147-0.294,0.369-0.122,0.827c0.141,0.29,0.199,0.762,0.135,1.288
				c-0.098,0.149-0.12,0.201-0.248,0.35c-0.18,0.194-0.375,0.144-0.524,0.072c-0.14-0.094-0.25-0.143-0.313-0.442
				c0.011-0.477,0.039-1.257-0.048-1.423c-0.129-0.257-0.34-0.165-0.431-0.087c-0.435,0.398-0.65,1.069-0.781,1.604
				c-0.121,0.389-0.249,0.277-0.339,0.12c-0.22-0.206-0.235-1.816-0.5-1.552c-0.425,1.214,0.244,2.545,0.707,2.415
				c0.334,0.138,0.546-0.498,0.683-1.195c0.094-0.196,0.165-0.218,0.213-0.118c-0.012,0.927,0.066,1.133,0.305,1.414
				c0.531,0.41,0.971,0.052,1.005,0.017c0.034-0.034,0.413-0.413,0.413-0.413c0.092-0.097,0.214-0.103,0.344-0.017
				c0.126,0.115,0.11,0.313,0.381,0.45c0.228,0.091,0.714,0.022,0.827-0.174c0.152-0.26,0.189-0.35,0.259-0.448
				c0.108-0.144,0.294-0.08,0.294-0.035c-0.017,0.08-0.126,0.16-0.052,0.305c0.129,0.097,0.159,0.035,0.235,0.013
				c0.27-0.129,0.472-0.714,0.472-0.714c0.012-0.218-0.112-0.202-0.191-0.157c-0.103,0.063-0.11,0.085-0.213,0.148
				c-0.132,0.02-0.387,0.107-0.514-0.089c-0.129-0.235-0.13-0.563-0.228-0.801c0-0.017-0.172-0.373-0.013-0.396
				c0.08,0.015,0.253,0.06,0.281-0.085c0.084-0.141-0.182-0.54-0.363-0.742c-0.157-0.173-0.375-0.194-0.585-0.017
				c-0.147,0.136-0.126,0.287-0.154,0.431c-0.038,0.165-0.03,0.369,0.137,0.588c0.147,0.29,0.415,0.663,0.326,1.188
				c0,0-0.155,0.25-0.429,0.218c-0.114-0.025-0.3-0.074-0.398-0.803c-0.075-0.552,0.019-1.325-0.215-1.686
				C15.032,2.903,14.986,2.77,14.911,2.781L14.911,2.781z M14.16,2.839c-0.071,0.006-0.149,0.089-0.213,0.248
				c-0.055,0.121-0.122,0.755-0.111,0.755c-0.044,0.189,0.197,0.269,0.307,0.026c0.164-0.445,0.165-0.634,0.176-0.823
				C14.293,2.902,14.231,2.833,14.16,2.839L14.16,2.839z M16.932,2.889c-0.073,0.007-0.131,0.049-0.152,0.157
				c-0.029,0.253-0.014,0.39,0.028,0.601c0.033,0.14,0.237,0.375,0.337,0.511c0.48,0.645,0.942,1.294,1.388,1.965
				c0.07,0.498,0.122,0.986,0.154,1.471c0.072,1.064,0.094,2.389,0.028,3.51c0.199,0.008,0.519-0.322,0.631-0.805
				c0.073-0.668-0.026-2.032-0.033-2.426C19.31,7.709,19.3,7.513,19.289,7.309c0.519,0.848,1.022,1.747,1.517,2.733
				c0.18-0.086,0.14-1.1,0.035-1.243c-0.396-0.851-0.942-1.692-1.116-2.015c-0.063-0.117-0.277-0.442-0.531-0.818
				c-0.047-0.536-0.098-0.99-0.131-1.127c-0.082-0.567,0.233,0.064,0.189-0.265c-0.102-0.566-0.414-0.951-0.783-1.469
				c-0.119-0.169-0.117-0.203-0.3,0.041c-0.11,0.249-0.108,0.456-0.076,0.651c-0.048-0.07-0.108-0.153-0.194-0.257
				c-0.319-0.273-0.338-0.288-0.603-0.511C17.212,2.969,17.053,2.878,16.932,2.889L16.932,2.889z M25.149,2.974
				c-0.035-0.006-0.074,0.012-0.118,0.076c-0.083,0.073-0.172,0.205-0.17,0.374c0.02,0.299,0.073,0.604,0.094,0.903
				c0.007,0.04,0.015,0.08,0.022,0.12c-0.032-0.041-0.06-0.073-0.076-0.089c-0.582-0.612,0.268-0.1-0.111-0.572
				c-0.32-0.351-0.414-0.463-0.688-0.675c-0.137-0.089-0.22-0.258-0.265,0.03c-0.018,0.254-0.037,0.548-0.02,0.762
				c-0.001,0.119,0.122,0.343,0.228,0.474c0.388,0.477,0.785,0.985,1.184,1.515c0.084,1.08,0.106,2.071,0.191,3.153
				c-0.012,0.463-0.154,1.078-0.289,1.136c0,0-0.206,0.118-0.344-0.013c-0.1-0.04-0.5-0.668-0.5-0.668
				c-0.205-0.188-0.342-0.134-0.487,0c-0.402,0.388-0.584,1.116-0.857,1.617c-0.07,0.112-0.269,0.207-0.49-0.009
				c-0.56-0.766-0.233-1.856-0.302-1.575c-0.499,0.563-0.278,1.495-0.165,1.695c0.165,0.329,0.298,0.54,0.618,0.703
				c0.292,0.215,0.519,0.081,0.644-0.07c0.293-0.304,0.297-1.082,0.435-1.236c0.097-0.283,0.339-0.234,0.457-0.109
				c0.114,0.165,0.25,0.272,0.418,0.361c0.274,0.242,0.601,0.285,0.923,0.065c0.22-0.123,0.363-0.284,0.492-0.601
				c0.138-0.37,0.07-2.308,0.039-3.386c0.207,0.291,0.411,0.589,0.614,0.89c0.089,0.946,0.129,1.878,0.1,2.772
				c-0.021,0.178,0.62-0.531,0.616-0.866c-0.003-0.294,0.001-0.56,0-0.807c0.311,0.497,0.612,1.001,0.897,1.512
				c0.176-0.093,0.116-1.092,0.004-1.229c-0.298-0.5-0.679-1.04-0.975-1.458c-0.058-0.527-0.138-1.15-0.174-1.34
				c-0.056-0.297-0.113-0.744-0.198-1.097c-0.023-0.138-0.094-0.578-0.072-0.62c0.035-0.098,0.166,0.003,0.231-0.111
				c0.097-0.105-0.335-1.225-0.555-1.545c-0.079-0.143-0.222-0.094-0.398,0.139c-0.164,0.153-0.104,0.503-0.041,0.836
				c0.162,0.848,0.307,1.711,0.422,2.572c-0.212-0.316-0.472-0.698-0.727-1.066c-0.007-0.035-0.033-0.166-0.033-0.168
				c0-0.015-0.035-0.693-0.065-0.855c-0.005-0.066-0.021-0.085,0.048-0.076c0.073,0.061,0.083,0.065,0.128,0.085
				c0.074,0.013,0.138-0.111,0.094-0.226c-0.228-0.42-0.455-0.842-0.683-1.262C25.215,3.008,25.184,2.98,25.149,2.974L25.149,2.974z
				 M3.944,2.996C3.817,2.992,3.678,3.07,3.732,3.222C3.701,3.305,3.979,3.584,4.028,3.738c0.044,0.109-0.044,0.461,0.048,0.494
				c0.084,0.036,0.2-0.244,0.244-0.503c0.024-0.142,0.006-0.627-0.324-0.727C3.979,2.998,3.962,2.996,3.944,2.996L3.944,2.996z
				 M28.1,2.999c-0.029,0.003-0.064,0.049-0.118,0.163c-0.129,0.211-0.174,0.59-0.122,0.925c0.311,2.103,0.542,4.14,0.59,6.004
				c-0.027,0.177-0.035,0.271-0.118,0.494c-0.184,0.235-0.386,0.53-0.577,0.672c-0.191,0.142-0.596,0.278-0.729,0.383
				c-0.421,0.243-0.423,0.523-0.083,0.533c0.586-0.068,1.28-0.116,1.758-0.838c0.128-0.202,0.278-0.75,0.285-1.086
				c0.045-1.967-0.025-3.89-0.32-5.312c-0.019-0.139-0.08-0.457-0.057-0.498c0.038-0.097,0.23,0.01,0.298-0.102
				c0.1-0.102-0.496-0.866-0.705-1.192C28.163,3.062,28.137,2.995,28.1,2.999L28.1,2.999z M21.95,3.031
				c-0.024,0.004-0.06,0.041-0.126,0.128c-0.164,0.536-0.221,0.973-0.159,1.306c0.421,2.196,0.852,4.196,0.783,6.286
				c0.2,0.001,0.43-0.456,0.529-0.91c0.054-0.624-0.036-1.004-0.052-1.371c-0.016-0.367-0.415-3.343-0.496-3.621
				c-0.098-0.525,0.388-0.069,0.335-0.374c-0.168-0.385-0.587-0.945-0.718-1.28C21.997,3.107,21.991,3.024,21.95,3.031L21.95,3.031z
				 M6.977,3.073c-0.052,0.009-0.102,0.052-0.12,0.122C6.846,3.241,6.878,3.317,6.836,3.34c-0.024,0.024-0.115,0.008-0.111-0.12
				c0-0.041-0.03-0.083-0.048-0.109C6.659,3.1,6.647,3.097,6.614,3.097c-0.04,0.002-0.039,0.012-0.061,0.046
				C6.543,3.176,6.531,3.21,6.531,3.249C6.526,3.294,6.507,3.31,6.474,3.316c-0.037,0-0.028,0.004-0.059-0.015
				C6.397,3.281,6.376,3.274,6.376,3.24c0-0.035-0.009-0.09-0.02-0.113c-0.016-0.021-0.041-0.032-0.07-0.039
				C6.13,3.088,6.119,3.268,6.128,3.336c-0.012,0.013-0.018,0.331,0.196,0.42C6.61,3.892,7.147,3.835,7.125,3.373
				c0-0.041-0.009-0.178-0.013-0.215C7.082,3.089,7.028,3.064,6.977,3.073L6.977,3.073z M10.82,3.077
				c-0.099,0.005-0.186,0.033-0.261,0.072c-0.19,0.182-0.234,0.473-0.085,0.655c0.146,0.069,0.291,0.215,0.194,0.296
				c-0.411,0.439-1.482,1.174-1.536,1.308c0,0.001-0.002,0.003-0.002,0.004c0,0.001,0,0.003,0,0.004c0,0,0,0.002,0,0.002
				c0,0.001,0.001,0.004,0.002,0.005c0,0,0.002,0.002,0.002,0.002h0.002l0.002,0.002c0,0,0.002,0,0.002,0l0.003,0.002
				c0.054,0.037,0.724,0.036,0.799,0.002c0.001,0,0.002-0.002,0.002-0.002l0.003,0c0,0,0-0.002,0-0.002
				c0.23-0.085,1.323-1.334,1.323-1.334c-0.057-0.048-0.109-0.084-0.165-0.133c-0.061-0.052-0.055-0.104,0-0.157
				c0.271-0.157,0.185-0.504,0.044-0.662C11.029,3.09,10.919,3.072,10.82,3.077L10.82,3.077z M20.865,3.081
				c-0.029,0.003-0.064,0.047-0.118,0.161c-0.129,0.211-0.217,0.58-0.207,0.925c0.28,1.937,0.366,3.632,0.548,5.569
				c0.015,0.187-0.013,0.459-0.137,0.568c-0.461,0.481-1.125,1.074-1.847,1.347c-0.078,0.087,0.193,0.459,0.544,0.459
				c0.586-0.068,1.102-0.397,1.58-1.264c0.128-0.202,0.352-0.635,0.359-0.971c0.045-1.967-0.099-3.496-0.394-4.918
				c-0.019-0.139-0.006-0.302,0.017-0.344c0.038-0.045,0.167,0.001,0.235-0.111c0.1-0.102-0.268-0.951-0.477-1.277
				C20.927,3.143,20.902,3.078,20.865,3.081L20.865,3.081z M5.304,3.14C5.223,3.15,5.147,3.216,5.11,3.304
				C5.097,3.614,5.095,3.925,5.13,4.211c0.141,0.502,0.186,0.944,0.255,1.458c0.019,0.689-0.398,0.298-0.379-0.044
				c0.096-0.443,0.07-1.142-0.015-1.319C4.923,4.13,4.844,4.086,4.679,4.115C4.548,4.107,4.21,4.476,4.116,5.086
				c0,0-0.079,0.313-0.113,0.592c-0.046,0.315-0.255,0.538-0.4-0.044C3.476,5.211,3.399,4.17,3.189,4.414
				c-0.06,0.813-0.132,2.245,0.559,2.391c0.836,0.08,0.374-1.413,0.677-1.684c0.057-0.134,0.163-0.136,0.172,0.033v1.269
				C4.589,6.834,4.86,6.957,5.071,7.042c0.219-0.017,0.364-0.011,0.45,0.202c0.034,0.731,0.07,1.464,0.104,2.196
				c0,0,0.507,0.146,0.531-1.234c0.024-0.81-0.161-1.49-0.052-1.647c0.004-0.155,0.202-0.162,0.339-0.087
				C6.663,6.626,6.759,6.816,7.099,6.74c0.517-0.142,0.828-0.393,0.836-0.79c-0.03-0.377-0.074-0.754-0.237-1.132
				C7.72,4.75,7.599,4.571,7.621,4.503c0.093,0.145,0.233,0.133,0.265,0c-0.088-0.29-0.225-0.567-0.446-0.688
				C7.258,3.654,6.99,3.688,6.892,4.024C6.847,4.411,7.033,4.87,7.315,5.245c0.06,0.146,0.144,0.39,0.107,0.609
				c-0.15,0.086-0.299,0.05-0.424-0.083c0,0-0.411-0.308-0.411-0.376c0.109-0.699,0.023-0.779-0.037-0.973
				C6.506,4.154,6.379,4.07,6.277,3.887c-0.103-0.109-0.242-0.109-0.309,0C5.786,4.202,5.871,4.879,6.002,5.182
				c0.095,0.279,0.24,0.453,0.172,0.453C6.118,5.792,6,5.755,5.915,5.573C5.794,5.198,5.77,4.638,5.77,4.385
				C5.733,4.072,5.693,3.404,5.487,3.234C5.432,3.159,5.367,3.133,5.304,3.14L5.304,3.14z M8.239,3.145
				C8.198,3.15,8.152,3.174,8.098,3.186C7.92,3.243,7.754,3.396,7.806,3.695c0.21,1.277,0.347,2.251,0.557,3.527
				C8.396,7.372,8.27,7.569,8.109,7.549C7.834,7.363,7.766,6.987,7.297,7.003C6.958,7.007,6.571,7.376,6.522,7.732
				c-0.057,0.283-0.077,0.589,0,0.836c0.238,0.287,0.524,0.256,0.775,0.191C7.503,8.674,7.673,8.471,7.745,8.52c0,0,0.002,0,0.002,0
				c0,0,0,0.002,0,0.002C7.792,8.6,7.743,9.264,6.777,9.777c-0.594,0.267-1.066,0.33-1.321-0.154C5.299,9.32,5.468,8.166,5.08,8.433
				c-1.147,2.957,2.688,3.37,3.116,0.122c0.028-0.092,0.112-0.184,0.172-0.161c0.026,0.011,0.05,0.047,0.059,0.113
				c-0.089,2.941-2.967,3.143-3.456,2.217c-0.121-0.218-0.158-0.704-0.17-0.994C4.779,9.554,4.735,9.452,4.684,9.412
				C4.567,9.324,4.41,9.553,4.377,9.949c-0.048,0.319-0.035,0.407-0.035,0.714c0.154,2.323,3.857,1.325,4.459-0.594
				c0.298-0.992-0.006-1.74,0.094-1.832c0.001-0.001,0.003-0.001,0.004-0.002C8.9,8.234,8.902,8.233,8.903,8.232
				c0.001,0,0.003-0.002,0.004-0.002C8.911,8.229,8.916,8.228,8.92,8.228c0.368,0.396,0.884,0.05,0.997-0.087
				c0.048-0.069,0.17-0.113,0.255-0.024c0.287,0.206,0.789,0.109,0.894-0.255c0.061-0.356,0.112-0.721,0.124-1.101
				c-0.187,0.058-0.338,0.101-0.398,0.165c-0.014,0.016-0.025,0.033-0.028,0.052c-0.016,0.105-0.032,0.21-0.048,0.316
				c-0.002,0.009-0.005,0.017-0.009,0.024c-0.008,0.013-0.021,0.025-0.035,0.033c-0.066,0.036-0.181,0.015-0.187-0.081
				c-0.089-0.404-0.455-0.456-0.677,0.17c-0.15,0.121-0.422,0.145-0.45-0.037c0.036-0.42-0.133-0.476-0.472-0.279
				C8.776,6.293,8.668,5.498,8.559,4.666c0.141-0.004,0.271,0.098,0.4-0.063c-0.14-0.435-0.436-1.32-0.603-1.404
				C8.355,3.199,8.354,3.198,8.352,3.197C8.345,3.188,8.336,3.18,8.328,3.173C8.325,3.171,8.321,3.167,8.318,3.165
				C8.315,3.162,8.31,3.16,8.307,3.158C8.3,3.154,8.292,3.151,8.285,3.149C8.27,3.145,8.255,3.143,8.239,3.145L8.239,3.145z
				 M19.683,3.151c-0.147-0.004-0.309,0.088-0.246,0.272c-0.037,0.1,0.315,0.441,0.372,0.627c0.102,0.286-0.078,0.559,0.028,0.598
				c0.098,0.044,0.234-0.295,0.285-0.609C20.181,3.785,20,3.265,19.744,3.158C19.724,3.153,19.704,3.152,19.683,3.151L19.683,3.151z
				 M10.768,3.465c0.067-0.007,0.148,0.055,0.187,0.141c0.042,0.093,0.021,0.181-0.048,0.198c-0.069,0.017-0.158-0.044-0.2-0.137
				c-0.042-0.093-0.021-0.183,0.048-0.2C10.759,3.466,10.763,3.465,10.768,3.465z M27.305,3.893
				c-0.134-0.005-0.28,0.097-0.222,0.296c-0.034,0.109,0.286,0.477,0.337,0.679c0.047,0.143-0.071,0.606,0.026,0.648
				c0.089,0.048,0.215-0.319,0.261-0.659c0.026-0.186-0.112-0.839-0.346-0.955C27.344,3.897,27.325,3.894,27.305,3.893L27.305,3.893
				z M18.162,4.12c0.012,0.055,0.024,0.109,0.033,0.165c0.027,0.121,0.051,0.24,0.076,0.359c-0.106-0.145-0.193-0.263-0.231-0.305
				C17.801,4.055,18.046,4.153,18.162,4.12L18.162,4.12z M20.268,5.155c-0.052,0.009-0.102,0.054-0.12,0.124
				c-0.011,0.046,0.022,0.12-0.02,0.144c-0.024,0.024-0.117,0.01-0.113-0.118c0-0.041-0.03-0.085-0.048-0.111
				c-0.018-0.012-0.03-0.015-0.063-0.015c-0.04,0.002-0.039,0.012-0.061,0.046c-0.009,0.034-0.022,0.068-0.022,0.107
				c-0.005,0.045-0.021,0.061-0.054,0.067c-0.037,0-0.031,0.004-0.061-0.015c-0.018-0.02-0.039-0.027-0.039-0.061
				c0-0.035-0.009-0.09-0.02-0.113c-0.016-0.021-0.041-0.03-0.07-0.037c-0.156,0.001-0.166,0.178-0.157,0.246
				c-0.012,0.013-0.02,0.334,0.194,0.422c0.286,0.137,0.826,0.077,0.803-0.385c0-0.041-0.011-0.178-0.015-0.215
				C20.374,5.172,20.32,5.147,20.268,5.155L20.268,5.155z M10.651,5.251c-0.035-0.004-0.082,0.009-0.135,0.041
				c-0.253,0.137-0.351,0.543-0.194,0.781c0.147,0.209,0.38,0.133,0.411,0.133c0.248,0.031,0.396-0.466,0.396-0.466
				s0.007-0.14-0.287,0.124c-0.124,0.023-0.141-0.022-0.172-0.091c-0.026-0.129-0.02-0.26,0.039-0.39
				C10.737,5.306,10.71,5.257,10.651,5.251L10.651,5.251z M24.247,5.314c-0.141-0.007-0.29,0.084-0.329,0.276
				c0.001,0.113,0.051,0.176,0.041,0.279c-0.015,0.059-0.075,0.098-0.22,0.028c0.023-0.021-0.094-0.185-0.094-0.185
				c-0.113-0.069-0.263,0.004-0.361,0.067c-0.054,0.098-0.094,0.266-0.033,0.437c0.162,0.299,0.717,0.809,0.981,0.814
				c0.005-0.269,0.031-0.628,0.046-0.851c0.006-0.084,0.026-0.177,0.107-0.198c0.081-0.021,0.22,0.081,0.222-0.007
				c-0.015-0.171-0.049-0.424-0.146-0.544C24.412,5.358,24.331,5.318,24.247,5.314L24.247,5.314z M12.992,6.252
				c-0.004,0.001-0.007,0.005-0.011,0.007c-0.002,0.001-0.005,0.003-0.007,0.004c-0.028,0.021-0.061,0.07-0.135,0.122
				c-0.125,0.142-0.147,0.24-0.139,0.524c0.007,0.03,0.237,0.668,0.431,1.116c0.131,0.466,0.252,1,0.163,1.504
				c-0.307,0.666-0.924,1.264-1.519,1.588c-0.303,0.097-0.565,0.064-0.635-0.002c-0.001-0.001-0.002-0.002-0.002-0.002
				c-0.174-0.117-0.178-0.326-0.168-0.361V10.75l0.002-0.002c0.502-0.35,1.076-0.633,1.525-1.578
				c0.133-0.361,0.173-0.578,0.041-1.136c-0.051-0.208-0.115-0.379-0.257-0.527c0,0,0.002-0.002,0.002-0.002
				c0.086-0.041,0.308,0.122,0.342,0.019c-0.052-0.266-0.233-0.624-0.437-0.807c-0.179-0.163-0.374-0.181-0.537-0.033
				c-0.185,0.103-0.224,0.472-0.135,0.794c0.099,0.243,0.365,0.286,0.555,0.775c0,0,0,0.002,0,0.002
				c0.004,0.031,0.065,0.365-0.03,0.501c-0.078,0.242-1.074,1.028-1.145,1.075c-0.001,0.001-0.006,0.004-0.006,0.004
				c0,0-0.002,0.002-0.002,0.002L10.886,9.84c0,0-0.002,0.002-0.002,0.002h-0.002H10.88c0,0-0.002-0.002-0.002-0.002V9.838
				c0,0-0.002-0.004-0.002-0.004c-0.003-0.02,0.002-0.07,0-0.15c-0.007-0.147,0.054-0.48,0.05-0.538V9.144l-0.002-0.002V9.14h-0.002
				c-0.329,0.213-0.438,0.865-0.498,1.058c-0.834,0.576-1.781,1.005-2.326,1.588c-0.284,0.444,1.957-0.509,2.217-0.625
				c0.002,0.002,0.004,0.004,0.007,0.007c0.05,0.054,0.054,0.244,0.202,0.416c0.233,0.316,0.728,0.51,1.21,0.39
				c0.808-0.292,1.273-0.843,1.747-1.454c0.068-0.099,0.174-0.176,0.272-0.1c0.326,0.729,1.265,1.248,2.478,1.301
				c0.281-0.342,0.147-0.51,0.033-0.581c-0.035-0.023-0.604-0.245-0.692-0.466c-0.056-0.205,0.08-0.387,0.35-0.524
				c0.779-0.094,1.546-0.199,2.287-0.437c0.008-0.249,0.154-0.622,0.252-0.783c0.068-0.112,0.112-0.123,0.128-0.139
				c0.001-0.001,0.002-0.002,0.002-0.002c0,0,0.002-0.002,0.002-0.002c0,0,0.002-0.002,0.002-0.002c0-0.001,0-0.004,0-0.004
				c0-0.006,0-0.014-0.002-0.023l-0.126-0.074L15.98,8.672c-0.031-0.012-0.054-0.024-0.067-0.035
				c-0.001-0.001-0.003-0.003-0.004-0.004c0,0-0.002-0.002-0.002-0.002c0,0-0.002-0.002-0.002-0.002c0,0-0.002-0.004-0.002-0.004
				L15.9,8.622V8.62c0,0-0.002-0.002-0.002-0.002c0,0,0-0.002,0-0.002c0,0,0-0.002,0-0.002V8.611V8.609V8.607V8.605
				c0,0,0-0.002,0-0.002V8.6c0,0,0.002-0.002,0.002-0.002c0.001-0.001,0.001-0.003,0.002-0.004c0.012-0.016,0.042-0.032,0.078-0.046
				c0.594-0.081,1.649-0.254,1.719-1.269c-0.011-0.529-0.226-0.875-0.875-0.971c-0.477,0.037-0.816,0.498-0.762,1.005
				c-0.023,0.137,0.046,0.405-0.094,0.435c-0.914,0.084-1.912,0.656-1.945,1.066h-0.002c0,0-0.002,0.002-0.002,0.002
				c-0.001,0-0.003,0.002-0.004,0.002c-0.001,0-0.004,0-0.004,0c-0.001,0-0.005,0.002-0.007,0.002c0,0-0.002,0-0.002,0
				c-0.001,0-0.004,0-0.004,0c0,0-0.002,0-0.002,0c-0.001,0-0.004,0-0.005,0c-0.002,0-0.007-0.002-0.009-0.002
				c-0.059-0.017-0.136-0.115-0.124-0.252c-0.035-0.709-0.265-1.511-0.627-2.128c-0.129-0.129-0.185-0.181-0.222-0.187
				c-0.001,0-0.003,0-0.004,0c-0.001,0-0.005,0-0.007,0h-0.002h-0.002C12.994,6.252,12.993,6.252,12.992,6.252L12.992,6.252z
				 M15.373,6.626c-0.052,0.009-0.102,0.052-0.12,0.122c-0.011,0.046,0.022,0.123-0.02,0.146c-0.024,0.024-0.117,0.01-0.113-0.118
				c0-0.041-0.03-0.085-0.048-0.111c-0.018-0.012-0.028-0.015-0.061-0.015c-0.04,0.002-0.041,0.012-0.063,0.046
				c-0.009,0.034-0.022,0.068-0.022,0.107c-0.005,0.045-0.021,0.061-0.054,0.067c-0.037,0-0.028,0.004-0.059-0.015
				c-0.018-0.02-0.041-0.027-0.041-0.061c0-0.035-0.007-0.09-0.017-0.113c-0.016-0.021-0.043-0.03-0.072-0.037
				c-0.156,0.001-0.166,0.178-0.157,0.246c-0.012,0.013-0.02,0.334,0.194,0.422c0.286,0.137,0.969,0.056,0.803-0.385
				c0-0.041-0.011-0.178-0.015-0.215C15.479,6.643,15.425,6.618,15.373,6.626L15.373,6.626z M24.98,7.02
				c-0.007-0.001-0.015-0.001-0.024,0.002c0,0-1.327,0.944-1.36,0.977c-0.132,0.117-0.066,0.528,0,0.481
				c0.095,0.037,1.431-0.869,1.406-0.975C25.06,7.509,25.088,7.04,24.98,7.02L24.98,7.02z M16.627,7.16
				c0.054-0.006,0.125,0.013,0.194,0.052c0.099,0.057,0.16,0.144,0.152,0.207c0,0.002,0,0.005,0,0.007
				c0,0.002-0.004,0.005-0.004,0.007c-0.001,0.002-0.001,0.005-0.002,0.007c0,0.001-0.002,0.003-0.002,0.004
				c0,0.001-0.002,0.003-0.002,0.004c-0.003,0.005-0.009,0.011-0.013,0.015c-0.048,0.044-0.158,0.038-0.261-0.022
				c-0.098-0.057-0.159-0.144-0.152-0.207c0-0.002,0.002-0.005,0.002-0.007c0.002-0.008,0.005-0.015,0.009-0.022
				c0.001-0.002,0.003-0.006,0.004-0.009c0,0,0.002-0.002,0.002-0.002c0.003-0.003,0.007-0.008,0.011-0.011
				C16.58,7.172,16.602,7.163,16.627,7.16L16.627,7.16z M5.005,7.4C4.317,7.412,3.31,8.301,3.283,8.794
				C4.009,8.446,4.722,8.111,5.46,7.75C5.34,7.572,5.452,7.412,5.005,7.4L5.005,7.4z M7.233,7.709
				C7.3,7.709,7.371,7.743,7.409,7.837C7.443,7.924,7.411,8.014,7.37,8.059v0.002C7.369,8.062,7.369,8.065,7.368,8.066
				c-0.029,0.037-0.13,0.022-0.202,0.022c-0.087-0.004-0.13-0.018-0.183-0.089C6.958,7.919,7.034,7.842,7.068,7.783
				c0-0.001,0.002-0.002,0.002-0.002c0.004-0.005,0.01-0.012,0.015-0.017c0.026-0.024,0.071-0.046,0.12-0.052
				C7.214,7.71,7.223,7.709,7.233,7.709L7.233,7.709z M24.722,7.982c-0.122,0.015-0.238,0.131-0.185,0.316
				c-0.034,0.109,0.166,0.488,0.218,0.69c0.047,0.143-0.06,0.549,0.037,0.592c0.089,0.048,0.324-0.241,0.316-0.603
				c0.026-0.186-0.066-0.872-0.3-0.988C24.78,7.981,24.75,7.979,24.722,7.982L24.722,7.982z M9.869,8.653
				C9.76,8.66,9.664,8.718,9.708,8.87c-0.007,0.11,0.305,0.245,0.324,0.5c0.045,0.105-0.067,0.443,0.026,0.474
				c0.085,0.035,0.203-0.233,0.248-0.483c0.025-0.137-0.107-0.615-0.331-0.701C9.941,8.654,9.905,8.65,9.869,8.653L9.869,8.653z
				 M14.314,9.26c0.008-0.001,0.015,0,0.024,0c0.001,0,0.003,0,0.004,0c0.277,0.075,0.686,0.083,1.04,0.12
				c0.289,0.018,0.432,0.244,0.161,0.339c-0.267,0.091-0.523,0.163-0.524,0.548c0.035,0.191,0.028,0.291-0.002,0.337
				c-0.002,0.003-0.006,0.008-0.009,0.011c0,0-0.002,0.002-0.002,0.002c0,0-0.002,0.002-0.002,0.002l-0.002,0.002L15,10.624
				c-0.001,0-0.004,0.002-0.004,0.002c-0.004,0.002-0.009,0.005-0.013,0.007c-0.004,0.001-0.009,0.001-0.013,0.002
				c-0.063,0.009-0.156-0.051-0.224-0.087c-0.164-0.118-0.626-0.404-0.692-1.018C14.044,9.391,14.148,9.271,14.314,9.26L14.314,9.26
				z M3.456,9.732C3.438,9.732,3.404,9.784,3.358,9.843c-0.409,0.652-0.445,1.625-0.22,1.915c0.12,0.137,0.318,0.197,0.463,0.155
				c0.257-0.111,0.37-0.632,0.309-0.823c-0.086-0.134-0.154-0.156-0.239-0.041c-0.181,0.367-0.256,0.116-0.272-0.089
				c-0.028-0.389,0.01-0.748,0.052-1.031C3.474,9.782,3.473,9.731,3.456,9.732L3.456,9.732z M17.393,10.588
				c-0.03-0.002-0.063,0.003-0.096,0.02c-0.006,0-0.293,0.194-0.385,0.329c-0.056,0.043-0.05,0.08-0.033,0.155
				c0.044,0.101,0.121,0.069,0.209,0.022c0.116-0.016,0.173,0.06,0.163,0.2c-0.054,0.174,0.024,0.239,0.024,0.25
				c0,0.011,0.112,0.107,0.244,0.03c0.278-0.106,0.451-0.209,0.84-0.294c0.102-0.002,0.096-0.275-0.065-0.285
				c-0.211,0.011-0.405,0.021-0.616,0.187c-0.13,0.03-0.152-0.049-0.181-0.12c-0.033-0.176,0.074-0.299,0.052-0.431
				C17.556,10.657,17.485,10.593,17.393,10.588L17.393,10.588z M26.317,10.921c-0.052,0.002-0.106,0.009-0.185,0.015
				c-0.085,0.018-0.115,0.055-0.131,0.159c0.006,0.157,0.102,0.149,0.2,0.211c0.057,0.072,0.094,0.138-0.004,0.257
				c-0.093,0.085-0.159,0.132-0.252,0.218c-0.044,0.075-0.071,0.19,0.063,0.226c0.248,0.07,0.823-0.303,0.823-0.311
				c0.093-0.07,0.062-0.202,0.054-0.202c-0.054-0.062-0.177-0.025-0.259-0.035c-0.039,0-0.168-0.019-0.107-0.133
				c0.051-0.071,0.07-0.113,0.104-0.2c0.039-0.085,0.005-0.143-0.135-0.189C26.418,10.923,26.369,10.919,26.317,10.921
				L26.317,10.921z M22.589,18.469c0,0-0.002,0.002-0.002,0.002c-0.413,0.106-0.4,0.534-0.135,0.722
				c-4.359,0-11.047-0.074-12.482-0.074c-0.803,0-3.341-0.096-3.39-0.096c0.544,0.796,1.333,0.959,2.365,0.975
				c1.936,0,10.906-0.024,13.459-0.024c-0.181,0.322,0.016,0.841,0.159,0.936c0.003,0.002,0.008,0.005,0.011,0.007
				c0.005,0.003,0.012,0.005,0.017,0.006c0.002,0,0.005,0,0.007,0c0.169,0.04,0.243-0.082,0.3-0.172
				c0.274,0.024,1.817,0.047,1.958-0.002c0,0,0.002-0.002,0.002-0.002c0.095,0.141,0.19,0.273,0.372,0.25
				c0.318-0.068,0.569-0.103,0.577-0.749c0,0-0.033-1.1-0.755-1.031c-0.171,0.026-0.651,0.074-0.651,0.074
				c-0.555-0.066-0.962-0.073-1.586-0.096c0.058-0.073,0.159-0.369,0.035-0.477c-0.033-0.027-0.081-0.042-0.148-0.037
				c0,0-0.002,0-0.002,0c-0.001,0-0.003,0-0.004,0c0,0-0.002-0.002-0.002-0.002c-0.002-0.001-0.005-0.001-0.007-0.002
				c-0.003-0.002-0.008-0.007-0.011-0.011c-0.001-0.001-0.004-0.003-0.004-0.004c-0.032-0.046-0.049-0.159-0.07-0.187L22.6,18.473
				l-0.002-0.002c-0.001,0-0.004-0.002-0.004-0.002c-0.001,0-0.003,0-0.003,0C22.591,18.469,22.59,18.469,22.589,18.469
				L22.589,18.469z M22.885,20.042c0.001,0,0.001,0,0.001,0c0.637,0.031,1.234,0.006,1.87,0.037c0.101,0.086,0.05,0.282-0.015,0.318
				c-0.003,0.001-0.008,0.004-0.011,0.004c-0.002,0.001-0.006,0-0.009,0c-0.002,0-0.006,0.001-0.009,0
				c-0.207-0.005-0.326-0.01-0.533-0.015c0-0.01-0.001-0.021-0.004-0.03c-0.049-0.145-0.404-0.135-0.487-0.022
				c-0.001,0.002-0.003,0.005-0.004,0.007c-0.001,0.002-0.003,0.006-0.004,0.009c-0.001,0.003-0.003,0.008-0.004,0.011
				c-0.001,0.004-0.002,0.011-0.002,0.015c-0.001,0.005-0.003,0.012-0.002,0.017c-0.279,0.034-0.53-0.009-0.809-0.02
				C22.779,20.271,22.789,20.086,22.885,20.042L22.885,20.042z"/>
		</g>
	</g>
</g>
</svg>
