<?xml version="1.0" encoding="iso-8859-1"?>
<!-- Generator: Adobe Illustrator 18.0.0, SVG Export Plug-In . SVG Version: 6.00 Build 0)  -->
<!DOCTYPE svg PUBLIC "-//W3C//DTD SVG 1.1//EN" "http://www.w3.org/Graphics/SVG/1.1/DTD/svg11.dtd">
<svg version="1.1" xmlns="http://www.w3.org/2000/svg" xmlns:xlink="http://www.w3.org/1999/xlink" x="0px" y="0px"
	 viewBox="0 0 32 24" style="enable-background:new 0 0 32 24;" xml:space="preserve">
<g id="fr-CA">
	<rect style="fill:#B0BEC9;" width="32" height="24"/>
	<rect x="1" y="1" style="fill:#E03232;" width="7" height="22"/>
	<rect x="24" y="1" style="fill:#E03232;" width="7" height="22"/>
	<rect x="8" y="1" style="fill:#FFFFFF;" width="16" height="22"/>
	<path style="fill:#E03232;" d="M18.87,14.771c0,0.227,0.256,0.836,0.256,0.836s-2.135-0.355-2.317-0.386
		c-0.18-0.033-0.342-0.033-0.337,0.345l0.152,1.135h-0.523l0.118-1.135c0-0.378-0.163-0.378-0.343-0.341
		c-0.18,0.031-2.317,0.399-2.317,0.399s0.253-0.608,0.253-0.835c0-0.295-0.631-0.71-1.316-1.313
		c-0.689-0.605-1.163-0.913-1.163-0.982c0-0.064,0.487-0.05,0.487-0.413c0-0.359-0.464-1.709-0.464-1.709s0.964,0.372,1.225,0.368
		c0.262,0,0.668-0.522,0.668-0.899c0,0,1.256,1.59,1.518,1.471c0.262-0.113-0.482-3.235-0.482-3.235s0.748,0.682,1.009,0.6
		c0.262-0.083,0.991-1.954,0.991-1.954s0.009-0.022,0.028-0.022c0.014,0,0.027,0.022,0.027,0.022s0.74,1.868,1,1.945
		c0.262,0.081,1.009-0.605,1.009-0.605s-0.725,3.127-0.464,3.241c0.262,0.113,1.515-1.487,1.515-1.487c0,0.377,0.41,0.9,0.671,0.9
		c0.261-0.005,1.221-0.381,1.221-0.381s-0.455,1.349-0.45,1.712c0,0.364,0.49,0.345,0.49,0.409c0,0.063-0.473,0.377-1.154,0.99
		C19.496,14.058,18.87,14.47,18.87,14.771L18.87,14.771z"/>
</g>
</svg>
