<?xml version="1.0" encoding="utf-8"?>
<!-- Generator: Adobe Illustrator 19.2.1, SVG Export Plug-In . SVG Version: 6.00 Build 0)  -->
<svg version="1.1" id="format" xmlns="http://www.w3.org/2000/svg" xmlns:xlink="http://www.w3.org/1999/xlink" x="0px" y="0px"
	 viewBox="0 0 448 512" style="enable-background:new 0 0 448 512;" xml:space="preserve">
<path class="lexicon-icon-outline" d="M384,0H160c-35.2,0-64,28.8-64,64v64c0,35.2,28.8,64,64,64h224c35.2,0,64-28.8,64-64V64C448,28.8,419.2,0,384,0z"/>
<path class="lexicon-icon-outline" d="M383,320h-31v-64c0-17.7-14.3-32-32-32H64v-96c0-17.7-14.3-32-32-32S0,110.3,0,128v128c0,17.7,14.3,32,32,32h256v32h-31
	c-0.5,0-1,0.5-1,1v190c0,0.5,0.5,1,1,1h126c0.5,0,1-0.5,1-1V321C384,320.5,383.5,320,383,320z"/>
</svg>