<?xml version="1.0" encoding="UTF-8"?><!DOCTYPE svg PUBLIC "-//W3C//DTD SVG 1.1//EN" "http://www.w3.org/Graphics/SVG/1.1/DTD/svg11.dtd"><svg xmlns="http://www.w3.org/2000/svg"><symbol id="add-cell" viewBox="0 0 512 512"><path d="M455.11 0H56.89C25.52 0 0 25.52 0 56.89v398.22C0 486.48 25.52 512 56.89 512h398.22c31.37 0 56.89-25.52 56.89-56.89V56.89C512 25.52 486.48 0 455.11 0zM160 448H64v-96h96v96zm0-128H64V192h96v128zm0-160H64V64h96v96zm160 288H192v-96h128v96zm0-288H192V64h128v96zm128 288h-96v-96h96v96zm0-128h-96V192h96v128zm0-160h-96V64h96v96z"/></symbol><symbol id="add-column" viewBox="0 0 512 512"><path d="M0 56.89v398.22C0 486.48 25.52 512 56.89 512h398.22c31.37 0 56.89-25.52 56.89-56.89V56.89C512 25.52 486.48 0 455.11 0H56.89C25.52 0 0 25.52 0 56.89zM448 352v96h-96v-96h96zm-288 0v96H64v-96h96zm288-160v128h-96V192h96zm-288 0v128H64V192h96zM448 64v96h-96V64h96zm-288 0v96H64V64h96z"/></symbol><symbol id="add-row" viewBox="0 0 512 512"><path d="M455.11 0H56.89C25.52 0 0 25.52 0 56.89v398.22C0 486.48 25.52 512 56.89 512h398.22c31.37 0 56.89-25.52 56.89-56.89V56.89C512 25.52 486.48 0 455.11 0zM160 448H64v-96h96v96zm0-288H64V64h96v96zm160 288H192v-96h128v96zm0-288H192V64h128v96zm128 288h-96v-96h96v96zm0-288h-96V64h96v96z"/></symbol><symbol id="adjust" viewBox="0 0 512 512"><path d="M256 0C114.85 0 0 114.85 0 256s114.85 256 256 256 256-114.85 256-256S397.15 0 256 0zM56.89 256c0-109.78 89.33-199.11 199.11-199.11v398.22c-109.78 0-199.11-89.33-199.11-199.11z"/></symbol><symbol id="align-center" viewBox="0 0 512 512"><path d="M419.986 96H92.013c-17.664 0-32-14.336-32-32s14.3-32 32-32h328.01c17.663 0 32 14.336 32 32-.038 17.664-14.337 32-32.038 32zM480 224H32c-17.664 0-32-14.3-32-32 0-17.664 14.336-32 32-32h448c17.664 0 32 14.336 32 32 0 17.7-14.336 32-32 32zM419.986 352H92.013c-17.664 0-32-14.336-32-32s14.336-32 32-32h328.01c17.663 0 32 14.336 32 32-.038 17.664-14.337 32-32.038 32zM480 480H32c-17.664 0-32-14.336-32-32s14.336-32 32-32h448c17.664 0 32 14.336 32 32s-14.336 32-32 32z"/></symbol><symbol id="align-justify" viewBox="0 0 512 512"><path d="M32 96h448c17.664 0 32-14.336 32-32s-14.336-32-32-32H32C14.336 32 0 46.336 0 64s14.336 32 32 32zM480 160H32c-17.664 0-32 14.336-32 32s14.336 32 32 32h448c17.664 0 32-14.336 32-32s-14.336-32-32-32zM480 288H32c-17.664 0-32 14.3-32 32 0 17.664 14.336 32 32 32h448c17.664 0 32-14.336 32-32 0-17.7-14.336-32-32-32zM480 416H32c-17.664 0-32 14.336-32 32s14.336 32 32 32h448c17.664 0 32-14.336 32-32s-14.336-32-32-32z"/></symbol><symbol id="align-left" viewBox="0 0 512 512"><path d="M32 96h320c17.664 0 32-14.336 32-32s-14.336-32-32-32H32C14.336 32 0 46.336 0 64s14.336 32 32 32zM32 224h448c17.664 0 32-14.336 32-32s-14.336-32-32-32H32c-17.664 0-32 14.336-32 32 0 17.7 14.336 32 32 32zM32 352h320c17.664 0 32-14.336 32-32s-14.336-32-32-32H32c-17.664 0-32 14.3-32 32 0 17.664 14.336 32 32 32zM480 416H32c-17.664 0-32 14.336-32 32s14.336 32 32 32h448c17.664 0 32-14.336 32-32s-14.336-32-32-32z"/></symbol><symbol id="align-right" viewBox="0 0 512 512"><path d="M512 64c0-17.664-14.336-32-32-32H160c-17.664 0-32 14.336-32 32s14.336 32 32 32h320c17.664 0 32-14.336 32-32zM512 192c0-17.664-14.336-32-32-32H32c-17.664 0-32 14.336-32 32s14.336 32 32 32h448c17.664 0 32-14.3 32-32zM512 320c0-17.7-14.336-32-32-32H160c-17.664 0-32 14.336-32 32s14.336 32 32 32h320c17.664 0 32-14.336 32-32zM0 448c0 17.664 14.336 32 32 32h448c17.664 0 32-14.336 32-32s-14.336-32-32-32H32c-17.664 0-32 14.336-32 32z"/></symbol><symbol id="angle-down" viewBox="0 0 512 512"><path d="M256 384c6.936-.22 13.81-2.973 19.11-8.272l227.222-227.22c11.058-11.027 11.058-28.942 0-40-11.026-11.058-28.94-11.058-40 0L256 314.84 49.667 108.51c-11.06-11.058-28.973-11.058-40 0-11.058 11.058-11.058 28.972 0 40l227.222 227.22c5.3 5.3 12.173 8.053 19.11 8.272z"/></symbol><symbol id="angle-left" viewBox="0 0 512 512"><path d="M114.106 254.607c.22 6.936 2.972 13.81 8.272 19.11L349.6 500.937c11.026 11.06 28.94 11.06 40 0 11.057-11.025 11.057-28.94 0-39.998L183.265 254.605 389.6 48.273c11.057-11.06 11.057-28.973 0-40-11.06-11.058-28.974-11.058-40 0L122.38 235.496c-5.3 5.3-8.053 12.174-8.274 19.11z"/></symbol><symbol id="angle-right" viewBox="0 0 512 512"><path d="M396.394 255.607c-.22-6.936-2.973-13.81-8.272-19.11L160.902 9.274c-11.027-11.06-28.94-11.06-40 0-11.058 11.026-11.058 28.94 0 40l206.333 206.332L120.902 461.94c-11.058 11.058-11.058 28.973 0 40 11.06 11.058 28.972 11.058 40 0l227.22-227.222c5.3-5.3 8.053-12.175 8.272-19.11z"/></symbol><symbol id="angle-up" viewBox="0 0 512 512"><path d="M255.5 115.213c-6.936.22-13.81 2.972-19.11 8.273L9.167 350.706c-11.06 11.027-11.06 28.94 0 40 11.026 11.058 28.94 11.058 40 0L255.5 184.373l206.333 206.333c11.058 11.058 28.973 11.058 40 0 11.057-11.058 11.057-28.973 0-40L274.61 123.487c-5.3-5.3-12.174-8.052-19.11-8.273z"/></symbol><symbol id="archive" viewBox="0 0 512 512"><path d="M0 128v295.11C0 454.48 25.52 480 56.89 480h398.22c31.37 0 56.89-25.52 56.89-56.89V128H0zm64 288V192h384l.033 224H64zM480 96H32C14.4 96 0 81.6 0 64s14.4-32 32-32h448c17.6 0 32 14.4 32 32s-14.4 32-32 32z"/><path d="M320 320H192c-17.6 0-32-14.4-32-32s14.4-32 32-32h128c17.6 0 32 14.4 32 32s-14.4 32-32 32z"/></symbol><symbol id="asterisk" viewBox="0 0 512 512"><path d="M323.635 190.012L470.3 141.204l41.716 122.673-149.177 47.57 93.552 125.15-104.947 76.345-96.067-126.425-93.553 126.425-104.913-77.618 92.28-123.912L.017 263.842 40.46 141.205l147.902 48.808V31.06h135.272v158.952z"/></symbol><symbol id="bars" viewBox="0 0 512 512"><path d="M480 64H32C14.336 64 0 49.664 0 32S14.336 0 32 0h448c17.664 0 32 14.336 32 32s-14.336 32-32 32zM480 288H32c-17.664 0-32-14.336-32-32s14.336-32 32-32h448c17.664 0 32 14.336 32 32s-14.336 32-32 32zM480 512H32c-17.664 0-32-14.336-32-32s14.336-32 32-32h448c17.664 0 32 14.336 32 32s-14.336 32-32 32z"/></symbol><symbol id="bold" viewBox="0 0 512 512"><path d="M262.217 0c25.307 0 47.69 3.51 67.182 10.46 19.455 6.984 35.912 16.602 49.297 28.89 13.35 12.288 23.59 26.843 30.647 43.703s10.606 35.145 10.606 54.894c0 26.478-7.058 49.59-21.175 69.34s-32.146 33.206-54.053 40.447c12.654 2.89 24.466 7.936 35.4 15.177 10.972 7.206 20.554 16.02 28.856 26.37 8.265 10.35 14.848 22.27 19.712 35.73 4.864 13.494 7.314 28.16 7.314 44.068 0 20.7-3.767 39.826-11.3 57.417-7.57 17.59-18.25 32.622-32.147 45.13-13.86 12.506-30.683 22.38-50.395 29.622C322.45 508.377 300.434 512 276.077 512H75.995V0h186.222zm-15.36 211.602c23.37 0 41.51-5.778 54.418-17.335s19.346-27.21 19.346-46.92c0-19.75-6.216-35.256-18.614-46.593-12.398-11.3-31.05-16.97-55.845-16.97h-70.838v127.818h71.534zm10.24 217.344c24.832 0 44.07-5.888 57.673-17.7 13.64-11.777 20.443-28.05 20.443-48.75 0-20.225-6.473-36.72-19.346-49.482-12.91-12.763-32.037-19.127-57.307-19.127h-83.237v135.058h81.774z"/></symbol><symbol id="camera" viewBox="0 0 512 512"><path d="M180.708 79.787c0-15.647-12.8-28.446-28.446-28.446H75.946C60.3 51.34 47.5 64.14 47.5 79.788v22.623h133.208V79.787z"/><path d="M454.61 123.304h-32.99v-45.31c0-26.845-21.95-48.796-48.795-48.796h-130.87c-26.847 0-48.798 21.95-48.798 48.797v45.278H57.39C25.742 123.305.015 149.03.015 180.646V425.43c0 31.646 25.726 57.373 57.373 57.373h397.254c31.646 0 57.373-25.726 57.373-57.373V180.646c-.033-31.614-25.76-57.34-57.404-57.34zM90.38 241.89c-16.64 0-30.112-13.472-30.112-30.112s13.472-30.11 30.11-30.11c16.64 0 30.112 13.47 30.112 30.11s-13.503 30.11-30.11 30.11zM316.22 452.69c-74.844 0-135.512-60.668-135.512-135.512s60.668-135.512 135.512-135.512 135.512 60.668 135.512 135.512-60.668 135.512-135.512 135.512z"/><path d="M391.512 317.18c0 41.582-33.71 75.29-75.29 75.29s-75.292-33.708-75.292-75.29c0-41.582 33.71-75.29 75.29-75.29s75.292 33.708 75.292 75.29z"/></symbol><symbol id="cards" viewBox="0 0 512 512"><path d="M465.052 0H46.948C21.126 0 0 21.127 0 46.948v130.798c0 25.82 21.127 46.948 46.948 46.948h418.104c25.822 0 46.948-21.126 46.948-46.948V46.948C512 21.126 490.873 0 465.052 0zM448 160.694H64v-96h384v96zM465.052 287.307H46.948C21.126 287.307 0 308.434 0 334.255v130.798C0 490.875 21.127 512 46.948 512h418.104C490.874 512 512 490.875 512 465.054V334.255c0-25.822-21.127-46.948-46.948-46.948zM448 448H64v-96h384v96z"/></symbol><symbol id="cards2" viewBox="0 0 512 512"><path d="M192 0H32C14.336 0 0 14.336 0 32v160c0 17.664 14.336 32 32 32h160c17.664 0 32-14.336 32-32V32c0-17.664-14.336-32-32-32zM192 288H32c-17.664 0-32 14.336-32 32v160c0 17.664 14.336 32 32 32h160c17.664 0 32-14.336 32-32V320c0-17.664-14.336-32-32-32zM480 0H320c-17.664 0-32 14.336-32 32v160c0 17.664 14.336 32 32 32h160c17.664 0 32-14.336 32-32V32c0-17.664-14.336-32-32-32zM480 288H320c-17.664 0-32 14.336-32 32v160c0 17.664 14.336 32 32 32h160c17.664 0 32-14.336 32-32V320c0-17.664-14.336-32-32-32z"/></symbol><symbol id="caret-bottom" viewBox="0 0 512 512"><path d="M103.5 204.3l136.1 136.1c9 9 23.7 9 32.7 0l136.1-136.1c14.6-14.6 4.3-39.5-16.4-39.5H119.9c-20.7 0-31 24.9-16.4 39.5z"/></symbol><symbol id="caret-double-l" viewBox="0 0 512 512"><path d="M347.913 199.336l-81.538-85c-5.413-5.642-14.188-5.642-19.6 0l-81.538 85c-8.73 9.1-2.548 24.664 9.8 24.664h163.077c12.348 0 18.53-15.563 9.8-24.664zM165.236 312.664l81.538 85c5.412 5.642 14.188 5.642 19.6 0l81.538-85c8.73-9.1 2.548-24.664-9.8-24.664H175.035c-12.347 0-18.53 15.563-9.8 24.664z"/></symbol><symbol id="caret-double" viewBox="0 0 512 512"><path d="M407.14 152L271.002 15.862c-9.036-9.037-23.688-9.037-32.725 0L102.142 152c-14.577 14.576-4.253 39.5 16.362 39.5h272.272c20.615 0 30.94-24.924 16.362-39.5zM103.18 359.002l136.136 136.136c9.036 9.036 23.688 9.036 32.724 0l136.136-136.136c14.577-14.577 4.253-39.502-16.362-39.502H119.542c-20.615 0-30.94 24.925-16.362 39.502z"/></symbol><symbol id="caret-top" viewBox="0 0 512 512"><path d="M408.5 307.7L272.4 171.6c-9-9-23.7-9-32.7 0L103.5 307.7c-14.6 14.6-4.3 39.5 16.4 39.5h272.3c20.6 0 30.9-24.9 16.3-39.5z"/></symbol><symbol id="chain-broken" viewBox="0 0 512 512"><path d="M479.31 30.213C460.887 11.79 436.36 1.626 410.306 1.626h-.03c-26.052 0-50.55 10.133-68.975 28.558l-114.03 114.03c-9.845 9.845-9.845 25.794 0 35.61 9.845 9.846 25.794 9.846 35.61 0l114.03-114.03c8.926-8.924 20.758-13.817 33.366-13.817 12.61 0 24.47 4.923 33.394 13.847 18.425 18.424 18.425 48.365.03 66.79l-114.03 114.03c-9.847 9.844-9.847 25.793 0 35.61 4.922 4.923 11.37 7.37 17.82 7.37s12.896-2.447 17.82-7.37l114.03-114.03c38.028-38.058 38-99.953-.03-138.01zM249.523 326.79L136.3 440.016c-8.868 8.867-20.643 13.733-33.194 13.733h-.058c-12.61-.03-24.47-4.952-33.395-13.875s-13.876-20.786-13.876-33.394c-.03-12.58 4.865-24.385 13.733-33.25l113.224-113.225c9.845-9.845 9.845-25.794 0-35.61-9.845-9.846-25.794-9.846-35.61 0L33.898 337.617c-18.425 18.396-28.53 42.894-28.5 68.95.028 26.024 10.22 50.523 28.644 68.947s42.894 28.587 68.948 28.644h.144c25.996 0 50.437-10.106 68.805-28.5l113.225-113.225c9.846-9.846 9.846-25.795 0-35.61-9.875-9.876-25.794-9.876-35.64-.03z"/></symbol><symbol id="change" viewBox="0 0 512 512"><path d="M32 256c17.6 0 32-14.4 32-32v-96h342.6l-17.1 17.1c-12.4 12.4-12.4 32.8 0 45.3 12.4 12.4 32.8 12.4 45.3 0l67.9-67.9c12.4-12.4 12.4-32.8 0-45.3L434.8 9.3c-12.4-12.4-32.8-12.4-45.3 0-12.4 12.4-12.4 32.8 0 45.3l9.4 9.4H32C14.4 64 0 78.4 0 96v128c0 17.6 14.4 32 32 32zM480 256c-17.6 0-32 14.4-32 32v96H105.4l17.1-17.1c12.4-12.4 12.4-32.8 0-45.3-12.4-12.4-32.8-12.4-45.3 0L9.3 389.5c-12.4 12.4-12.4 32.8 0 45.3l67.9 67.9c12.4 12.4 32.8 12.4 45.3 0 12.4-12.4 12.4-32.8 0-45.3l-9.4-9.4H480c17.6 0 32-14.4 32-32V288c0-17.6-14.4-32-32-32z"/></symbol><symbol id="check" viewBox="0 0 512 512"><path d="M502.09 60.993c-9.908-9.91-25.96-9.91-35.842 0L129.26 397.98l-83.508-83.45c-9.88-9.91-25.962-9.91-35.843 0-9.91 9.91-9.91 25.962 0 35.843l98.256 98.257c2.608 2.608 5.68 4.433 8.924 5.68 4.028 2.463 8.403 4.114 12.952 4.114 6.49 0 12.98-2.464 17.936-7.418L502.09 96.866c9.91-9.91 9.91-25.963 0-35.872z"/></symbol><symbol id="code" viewBox="0 0 512 512"><path d="M113.632 165.327c-7.608-7.63-19.99-7.63-27.6 0l-78.4 78.402c-7.63 7.63-7.63 19.99 0 27.598.535.536 1.226.736 1.806 1.205l76.573 76.572c3.817 3.815 8.814 5.734 13.812 5.734s9.995-1.898 13.81-5.713c7.63-7.63 7.63-19.99 0-27.6L49.356 257.25l64.278-64.28c7.608-7.653 7.608-20.013 0-27.643zM504.37 243.104c-.536-.536-1.227-.737-1.807-1.205l-76.572-76.573c-7.63-7.63-19.99-7.63-27.598 0-7.63 7.63-7.63 19.99 0 27.6l64.28 64.278-64.28 64.28c-7.63 7.63-7.63 19.99 0 27.598 3.815 3.815 8.813 5.712 13.81 5.712s9.996-1.897 13.812-5.712l78.402-78.402c7.586-7.585 7.586-19.946-.045-27.576zM322.733 162.894l-156.18 156.18c-7.63 7.63-7.63 19.99 0 27.598 3.817 3.815 8.814 5.712 13.812 5.712s9.995-1.897 13.81-5.712l156.18-156.18c7.63-7.63 7.63-19.99 0-27.598-7.653-7.63-19.99-7.63-27.62 0z"/></symbol><symbol id="cog" viewBox="0 0 512 512"><path d="M256 159.993c-53.026 0-96.007 42.98-96.007 96.007s42.98 96.007 96.007 96.007 96.007-42.98 96.007-96.007-42.98-96.007-96.007-96.007zM256 320c-35.276 0-64-28.695-64-64 0-35.276 28.695-64 64-64s64 28.695 64 64c-.03 35.276-28.724 64-64 64z"/><path d="M487.423 195.22l-21.47-3.22c-4.12-13.58-9.544-26.666-16.246-39.192l12.912-17.47c8.49-11.487 7.3-27.457-2.802-37.558l-45.6-45.6c-10.1-10.1-26.07-11.29-37.557-2.8l-17.468 12.913c-12.526-6.702-25.61-12.126-39.19-16.245l-3.222-21.47C314.66 10.45 302.526 0 288.242 0h-64.486c-14.285 0-26.42 10.45-28.538 24.576l-3.22 21.47c-13.578 4.12-26.666 9.545-39.19 16.246l-17.47-12.912c-11.487-8.49-27.457-7.3-37.558 2.8l-45.6 45.6c-10.1 10.1-11.29 26.07-2.8 37.558l12.912 17.47c-6.7 12.524-12.127 25.612-16.245 39.19l-21.47 3.22C10.45 197.338 0 209.472 0 223.756v64.486c0 14.284 10.45 26.42 24.577 28.538l21.47 3.22c4.12 13.58 9.544 26.665 16.246 39.192l-12.913 17.47c-8.49 11.486-7.3 27.456 2.8 37.557l45.6 45.598c10.1 10.1 26.07 11.29 37.558 2.8l17.47-12.91c12.526 6.7 25.612 12.124 39.19 16.244l3.22 21.47C197.34 501.55 209.474 512 223.76 512h64.486c14.284 0 26.42-10.45 28.538-24.577l3.22-21.47c13.58-4.12 26.665-9.544 39.192-16.246l17.47 12.912c11.486 8.49 27.456 7.298 37.557-2.802l45.6-45.6c10.1-10.1 11.29-26.07 2.8-37.557l-12.912-17.468c6.702-12.526 12.125-25.61 16.245-39.19l21.47-3.222c14.128-2.12 24.578-14.254 24.578-28.538v-64.486c0-14.285-10.45-26.42-24.576-28.538zm-11.995 86.38l-39.282 5.892c-4.694 27.038-15.325 52.038-30.504 73.61l23.62 31.955-36.204 36.204-31.956-23.62c-21.572 15.18-46.57 25.81-73.61 30.505l-5.892 39.282h-51.2l-5.893-39.282c-27.038-4.694-52.038-15.325-73.61-30.504l-31.955 23.62-36.204-36.203 23.62-31.956c-15.18-21.57-25.81-46.57-30.504-73.61l-39.282-5.89v-51.2l39.282-5.894c4.694-27.038 15.325-52.038 30.504-73.61l-23.62-31.955 36.204-36.203 31.956 23.62c21.572-15.18 46.57-25.81 73.61-30.504L230.4 36.57h51.2l5.892 39.283c27.038 4.694 52.038 15.325 73.61 30.504l31.956-23.62 36.204 36.204-23.62 31.957c15.18 21.572 25.81 46.57 30.504 73.61l39.282 5.892v51.2z"/></symbol><symbol id="columns" viewBox="0 0 512 512"><path d="M0 46.948v418.104C0 490.874 21.127 512 46.948 512h130.798c25.82 0 46.948-21.127 46.948-46.948V46.948C224.694 21.126 203.568 0 177.746 0H46.948C21.126 0 0 21.127 0 46.948zM160.694 64v384h-96V64h96zM287.307 46.948v418.104c0 25.822 21.127 46.948 46.948 46.948h130.798C490.875 512 512 490.873 512 465.052V46.948C512 21.126 490.875 0 465.054 0H334.255c-25.822 0-46.948 21.127-46.948 46.948zM448 64v384h-96V64h96z"/></symbol><symbol id="comments" viewBox="0 0 512 512"><path d="M448 0H64C28.7 0 0 28.7 0 64v288c0 35.3 28.7 64 64 64h50.7l-41 41c-12.5 12.5-12.5 32.8 0 45.3 6.2 6.2 14.4 9.4 22.6 9.4s16.4-3.1 22.6-9.4l86.3-86.3H448c35.3 0 64-28.7 64-64V64c0-35.3-28.7-64-64-64zm0 352H64V64h384v288z"/><path d="M384 128H128c-17.7 0-32 14.3-32 32s14.3 32 32 32h256c17.7 0 32-14.3 32-32s-14.3-32-32-32zM288 224H128c-17.7 0-32 14.3-32 32s14.3 32 32 32h160c17.7 0 32-14.3 32-32s-14.3-32-32-32z"/></symbol><symbol id="compress" viewBox="0 0 512 512"><path d="M192 64c-17.6 0-32 14.4-32 32v25.373L71.995 33.368c-10.623-10.623-28.005-10.623-38.627 0-10.623 10.623-10.623 28.005 0 38.627L121.373 160H96c-17.6 0-32 14.4-32 32s14.4 32 32 32h96c.815 0 1.62-.04 2.42-.1 7.745.645 15.72-1.972 21.613-7.866 5.893-5.893 8.512-13.868 7.865-21.614.06-.8.1-1.605.1-2.42V96c0-17.6-14.4-32-32-32zM64 320c0 17.6 14.4 32 32 32h25.373l-88.005 88.005c-10.623 10.623-10.623 28.005 0 38.627 10.623 10.623 28.005 10.623 38.627 0L160 390.627V416c0 17.6 14.4 32 32 32s32-14.4 32-32v-96c0-.815-.04-1.62-.1-2.42.645-7.746-1.972-15.72-7.866-21.613-5.893-5.894-13.868-8.512-21.614-7.865-.8-.06-1.605-.1-2.42-.1H96c-17.6 0-32 14.4-32 32zM320 448c17.6 0 32-14.4 32-32v-25.373l88.005 88.005c10.623 10.623 28.005 10.623 38.627 0 10.623-10.623 10.623-28.005 0-38.627L390.627 352H416c17.6 0 32-14.4 32-32s-14.4-32-32-32h-96c-.815 0-1.62.04-2.42.1-7.746-.645-15.72 1.972-21.613 7.866-5.894 5.894-8.512 13.868-7.865 21.614-.06.8-.1 1.604-.1 2.42v96c0 17.6 14.4 32 32 32zM448 192c0-17.6-14.4-32-32-32h-25.373l88.005-88.005c10.623-10.623 10.623-28.005 0-38.627-10.623-10.623-28.005-10.623-38.627 0L352 121.373V96c0-17.6-14.4-32-32-32s-32 14.4-32 32v96c0 .815.04 1.62.1 2.42-.645 7.745 1.972 15.72 7.866 21.613 5.894 5.893 13.868 8.512 21.614 7.865.8.06 1.604.1 2.42.1h96c17.6 0 32-14.4 32-32z"/></symbol><symbol id="control-panel" viewBox="0 0 512 512"><path d="M32 128h296.6c11.1 19.1 31.7 32 55.4 32s44.3-12.9 55.4-32H480c17.7 0 32-14.3 32-32s-14.3-32-32-32h-40.6c-11.1-19.1-31.7-32-55.4-32s-44.3 12.9-55.4 32H32C14.3 64 0 78.3 0 96s14.3 32 32 32zM480 384h-40.6c-11.1-19.1-31.7-32-55.4-32s-44.3 12.9-55.4 32H32c-17.7 0-32 14.3-32 32s14.3 32 32 32h296.6c11.1 19.1 31.7 32 55.4 32s44.3-12.9 55.4-32H480c17.7 0 32-14.3 32-32s-14.3-32-32-32zM480 224H183.4c-11.1-19.1-31.7-32-55.4-32s-44.3 12.9-55.4 32H32c-17.7 0-32 14.3-32 32s14.3 32 32 32h40.5c11.1 19.1 31.7 32 55.4 32s44.3-12.9 55.4-32H480c17.7 0 32-14.3 32-32s-14.3-32-32-32z"/></symbol><symbol id="date" viewBox="0 0 512 512"><path d="M448 160V64c0-17.7-14.3-32-32-32s-32 14.3-32 32v96h-96V64c0-17.7-14.3-32-32-32s-32 14.3-32 32v96h-96V64c0-17.7-14.3-32-32-32S64 46.3 64 64v96H0v288c0 35.3 28.7 64 64 64h384c35.3 0 64-28.7 64-64V160h-64zm0 288H64V224h384v224z"/></symbol><symbol id="edit-layout" viewBox="0 0 512 512"><path d="M455.11 0H56.89C25.52 0 0 25.52 0 56.89v398.22C0 486.48 25.52 512 56.89 512h398.22c31.37 0 56.89-25.52 56.89-56.89V56.89C512 25.52 486.48 0 455.11 0zM160 462.222H60.46V64H160v398.222zM224 448V288h223.97l.03 160H224zm224-224H224V64h224v160z"/></symbol><symbol id="effects" viewBox="0 0 512 512"><path d="M352 128c0 53.02-42.98 96-96 96s-96-42.98-96-96 42.98-96 96-96 96 42.98 96 96zM480 384c0 53.02-42.98 96-96 96s-96-42.98-96-96 42.98-96 96-96 96 42.98 96 96zM224 384c0 53.02-42.98 96-96 96s-96-42.98-96-96 42.98-96 96-96 96 42.98 96 96z"/></symbol><symbol id="ellipsis-h" viewBox="0 0 512 512"><path d="M320 256c0 35.346-28.654 64-64 64s-64-28.654-64-64c0-35.346 28.654-64 64-64s64 28.654 64 64zM128 256c0 35.346-28.654 64-64 64S0 291.346 0 256c0-35.346 28.654-64 64-64s64 28.654 64 64zM512 256c0 35.346-28.654 64-64 64s-64-28.654-64-64c0-35.346 28.654-64 64-64s64 28.654 64 64z"/></symbol><symbol id="ellipsis-v" viewBox="0 0 512 512"><path d="M319 255.5c0 35.346-28.654 64-64 64s-64-28.654-64-64c0-35.346 28.654-64 64-64s64 28.654 64 64zM319 448c0 35.346-28.654 64-64 64s-64-28.654-64-64c0-35.346 28.654-64 64-64s64 28.654 64 64zM319 64c0 35.346-28.654 64-64 64s-64-28.654-64-64c0-35.346 28.654-64 64-64s64 28.654 64 64z"/></symbol><symbol id="exclamation-circle" viewBox="0 0 512 512"><path d="M240 288h32l16-160h-64zM288 352c0 17.673-14.327 32-32 32s-32-14.327-32-32c0-17.673 14.327-32 32-32s32 14.327 32 32z"/><path d="M491.856 156.333C478.96 125.84 460.51 98.47 437.02 74.98s-50.862-41.94-81.354-54.837C324.064 6.776 290.53 0 256 0s-68.064 6.776-99.666 20.143C125.842 33.04 98.47 51.49 74.98 74.98s-41.94 50.86-54.836 81.353C6.777 187.935 0 221.468 0 256s6.777 68.065 20.144 99.666C33.04 386.156 51.49 413.53 74.98 437.02s50.862 41.94 81.354 54.836C187.936 505.222 221.47 512 256 512s68.065-6.777 99.666-20.144c30.49-12.897 57.863-31.346 81.353-54.837s41.94-50.862 54.836-81.354C505.222 324.064 512 290.53 512 256s-6.777-68.064-20.144-99.666zM256 448c-106.038 0-192-85.962-192-192S149.962 64 256 64s192 85.962 192 192-85.962 192-192 192z"/></symbol><symbol id="exclamation-full" viewBox="0 0 512 512"><path d="M256 0C114.615 0 0 114.615 0 256s114.615 256 256 256 256-114.615 256-256S397.385 0 256 0zm0 384c-17.673 0-32-14.327-32-32s14.327-32 32-32 32 14.327 32 32-14.327 32-32 32zm16-96h-32l-16-160h64l-16 160z"/></symbol><symbol id="expand" viewBox="0 0 512 512"><path d="M480 352c-17.6 0-32 14.4-32 32v25.373l-88.005-88.005c-10.623-10.623-28.005-10.623-38.627 0-10.623 10.623-10.623 28.005 0 38.627L409.373 448H384c-17.6 0-32 14.4-32 32s14.4 32 32 32h96c.815 0 1.62-.04 2.42-.1 7.746.645 15.72-1.972 21.613-7.866 5.894-5.894 8.512-13.868 7.865-21.614.06-.8.1-1.604.1-2.42v-96c0-17.6-14.4-32-32-32zM352 32c0 17.6 14.4 32 32 32h25.373l-88.005 88.005c-10.623 10.623-10.623 28.005 0 38.627 10.623 10.623 28.005 10.623 38.627 0L448 102.627V128c0 17.6 14.4 32 32 32s32-14.4 32-32V32c0-.814-.04-1.62-.1-2.42.645-7.746-1.972-15.72-7.866-21.613-5.894-5.894-13.868-8.51-21.614-7.865C481.62.042 480.816 0 480 0h-96c-17.6 0-32 14.4-32 32zM32 160c17.6 0 32-14.4 32-32v-25.373l88.005 88.005c10.623 10.623 28.005 10.623 38.627 0 10.623-10.623 10.623-28.005 0-38.627L102.627 64H128c17.6 0 32-14.4 32-32S145.6 0 128 0H32c-.814 0-1.62.04-2.42.102-7.746-.646-15.72 1.972-21.613 7.865C2.073 13.86-.543 21.835.102 29.58.042 30.38 0 31.187 0 32v96c0 17.6 14.4 32 32 32zM160 480c0-17.6-14.4-32-32-32h-25.373l88.005-88.005c10.623-10.623 10.623-28.005 0-38.627-10.623-10.623-28.005-10.623-38.627 0L64 409.373V384c0-17.6-14.4-32-32-32S0 366.4 0 384v96c0 .815.04 1.62.102 2.42-.646 7.746 1.972 15.72 7.865 21.613 5.894 5.894 13.867 8.512 21.614 7.865.8.06 1.606.1 2.42.1h96c17.6 0 32-14.4 32-32z"/></symbol><symbol id="flag-empty" viewBox="0 0 512 512"><path d="M415 32H160c0-17.7-14.3-32-32-32S96 14.3 96 32v448c0 17.7 14.3 32 32 32s32-14.3 32-32V288h255c18.2 0 33-14.8 33-33V65c0-18.2-14.8-33-33-33zm-31 192H160V96h224v128z"/></symbol><symbol id="flag-full" viewBox="0 0 512 512"><path d="M415 32H160c0-17.7-14.3-32-32-32S96 14.3 96 32v448c0 17.7 14.3 32 32 32s32-14.3 32-32V288h255c18.2 0 33-14.8 33-33V65c0-18.2-14.8-33-33-33z"/></symbol><symbol id="folder" viewBox="0 0 512 512"><path d="M455.11 128H352c-9.5 0-31.928-45.723-38.56-59.473C297.966 36.41 280.445 0 245.075 0H55.945C25.094 0-.003 26.852-.003 59.847V455.11c0 31.37 25.52 56.89 56.89 56.89h398.22c31.37 0 56.89-25.52 56.89-56.89V184.89c0-31.34-25.52-56.89-56.89-56.89zM64 66.96s.347-2.375.662-2.96h178.112c5.564 5.853 14.365 31.81 19.772 43.417 3.113 6.665 6.35 13.657 9.87 20.583H64V66.96zM448 448H64.032L64 192h384v256z"/></symbol><symbol id="format" viewBox="0 0 512 512"><path d="M416 32H160c-17.6 0-32 14.4-32 32v128c0 17.6 14.4 32 32 32h256c17.6 0 32-14.4 32-32V64c0-17.6-14.4-32-32-32z"/><path d="M320 320v-48c0-8.8-7.2-16-16-16H96V96c0-8.8-7.2-16-16-16s-16 7.2-16 16v176c0 8.8 7.2 16 16 16h208v32c-17.6 0-32 14.4-32 32v128c0 17.6 14.4 32 32 32h32c17.6 0 32-14.4 32-32V352c0-17.6-14.4-32-32-32z"/></symbol><symbol id="geolocation" viewBox="0 0 512 512"><path d="M256 0c-79.4 0-144 61.7-144 137.5 0 43.3 102.1 307.3 122.5 359.8 3.5 8.9 12 14.8 21.5 14.8s18-5.9 21.5-14.8c28.7-73.8 122.5-318 122.5-359.7C400 61.7 335.4 0 256 0zm0 224c-44.2 0-80-35.8-80-80s35.8-80 80-80 80 35.8 80 80-35.8 80-80 80z"/></symbol><symbol id="grid" viewBox="0 0 512 512"><path d="M495.965.018h-95.993c-8.813 0-15.98 7.168-15.98 16.017v95.993c0 8.85 7.167 16.017 16.016 16.017H496c8.85 0 16.018-7.168 16.018-16.017V16.035C511.98 7.185 504.814.018 495.964.018zM112.028 192.005H16.035c-8.85 0-16.017 7.167-16.017 16.017v95.993c0 8.85 7.168 16.017 16.017 16.017h95.993c8.85 0 15.98-7.168 15.98-16.017v-95.993c0-8.85-7.167-16.017-15.98-16.017zM303.978 192.005h-95.993c-8.85 0-16.017 7.167-16.017 16.017v95.993c0 8.85 7.167 16.017 16.017 16.017h95.993c8.85 0 16.017-7.168 16.017-16.017v-95.993c0-8.85-7.168-16.017-16.017-16.017zM495.965 192.005h-95.993c-8.85 0-16.017 7.167-16.017 16.017v95.993c0 8.85 7.168 16.017 16.017 16.017h95.993c8.85 0 16.017-7.168 16.017-16.017v-95.993c0-8.85-7.168-16.017-16.017-16.017zM112.028 383.99H16.035c-8.85 0-16.017 7.17-16.017 16.018V496c0 8.814 7.168 15.982 16.017 15.982h95.993c8.85 0 15.98-7.168 15.98-16.017v-95.993c0-8.813-7.167-15.98-15.98-15.98zM303.978 383.99h-95.993c-8.85 0-16.017 7.17-16.017 16.018V496c0 8.85 7.167 16.018 16.017 16.018h95.993c8.85 0 16.017-7.168 16.017-16.017V400.01c0-8.85-7.168-16.017-16.017-16.017zM495.965 383.99h-95.993c-8.85 0-16.017 7.17-16.017 16.018V496c0 8.85 7.168 16.018 16.017 16.018h95.993c8.85-.037 16.017-7.204 16.017-16.054V399.97c0-8.812-7.168-15.98-16.017-15.98zM112.028.018H16.035C7.185.018.018 7.186.018 16.035v95.993c0 8.814 7.168 15.98 16.017 15.98h95.993c8.85 0 15.98-7.167 15.98-16.016V16.036c0-8.85-7.167-16.017-15.98-16.017zM303.978.018h-95.993c-8.85 0-16.017 7.168-16.017 16.017v95.993c0 8.85 7.167 16.017 16.017 16.017h95.993c8.85 0 16.017-7.168 16.017-16.017V16.035c0-8.85-7.168-16.017-16.017-16.017z"/></symbol><symbol id="h1" viewBox="0 0 512 512"><path d="M266.812 199.73c-7.13-8.47-16.182-15.245-27.105-20.302-10.947-5.056-23.893-7.585-38.786-7.585-11.1 0-22.527 2.048-34.26 6.12s-21.415 10.845-29 20.302V64H64v352h73.66V277.48c.608-13.375 4.754-24.525 12.34-33.5 7.636-8.952 18.078-13.452 31.403-13.452 15.22 0 26.244 4.576 33.07 13.678 6.828 9.127 10.216 20.556 10.216 34.235V416H288V267.19c0-13.022-1.745-25.436-5.234-37.143-3.514-11.732-8.824-21.846-15.954-30.315zM396.014 128c-2.925 15.277-11.122 28.14-24.68 38.61-13.536 10.472-30.694 15.858-51.334 16.16V224h64v192h64V128h-51.986z"/></symbol><symbol id="h2" viewBox="0 0 512 512"><path d="M234.812 231.73c-7.13-8.47-16.182-15.245-27.105-20.302-10.947-5.056-23.893-7.585-38.786-7.585-11.1 0-22.527 2.048-34.26 6.12s-21.415 10.845-29 20.302V96H31.998v352h73.662V309.48c.608-13.375 4.754-24.525 12.34-33.5 7.635-8.95 18.078-13.452 31.4-13.452 15.222 0 26.245 4.576 33.072 13.678 6.827 9.127 10.215 20.556 10.215 34.235V448h63.31V299.19c0-13.022-1.744-25.436-5.233-37.143-3.514-11.732-8.824-21.846-15.954-30.315zM358.197 382.474c4.146-4.012 8.916-7.757 14.353-11.21l53.513-32.74c17.14-10.633 30.378-23.203 39.83-37.713C475.297 286.3 480 269.988 480 251.91c0-12.057-2.273-23.558-6.82-34.48-4.57-10.92-11.21-20.482-19.925-28.66s-19.257-14.733-31.67-19.614c-12.393-4.88-26.345-7.31-41.746-7.31-16.27 0-30.69 2.585-43.24 7.756-12.57 5.17-23.135 12.058-31.67 20.683-8.58 8.603-15.157 18.522-19.726 29.732s-6.82 23-6.82 35.35c0 .374.012.76.017 1.14h56.19c.742-11.25 4.34-20.84 10.792-28.733 7.288-8.916 18.32-13.373 33.164-13.373 13.974 0 24.45 3.878 31.448 11.635 6.998 7.778 10.498 16.67 10.498 26.723 0 9.762-2.52 18.477-7.49 26.077s-13.484 15.022-25.474 22.2l-45.825 27.57c-12.548 7.488-22.957 15.6-31.248 24.36-8.247 8.76-14.91 18.165-19.903 28.238-.463.928-.91 1.86-1.35 2.798-4.32 9.21-7.506 18.84-9.55 28.875-.213 1.034-.408 2.08-.602 3.126v32H480v-64H356.726c.478-.518.965-1.028 1.47-1.525z"/></symbol><symbol id="heart" viewBox="0 0 512 512"><path d="M255.973 480c-5.587 0-11.068-2.013-15.383-5.852-18.56-16.495-182.194-162.918-209.333-220.72C.013 186.84 28.582 107.114 94.963 75.74c17.925-8.474 37.016-12.79 56.715-12.79 40.96 0 79.354 19.144 104.322 50.52 24.97-31.376 63.36-50.52 104.322-50.52 19.7 0 38.79 4.29 56.716 12.79 66.406 31.375 94.976 111.073 63.706 177.69-27.14 57.8-190.746 204.224-209.333 220.72-3.997 3.575-9.028 5.534-14.19 5.825-.398.027-.822.027-1.245.027zM151.65 109.31c-12.814 0-25.232 2.807-36.935 8.34C71.37 138.145 52.73 190.227 73.17 233.757 89.456 268.416 186.18 362.623 256 425.746c69.822-63.123 166.545-157.33 182.803-191.99 20.44-43.53 1.8-95.61-41.544-116.105-11.705-5.533-24.123-8.34-36.938-8.34-33.52 0-64.368 19.647-78.64 50.043-.713 1.563-1.88 4.554-3.203 9.903-2.543 10.352-11.837 17.66-22.507 17.66h-.027c-10.67 0-19.965-7.307-22.48-17.687-1.27-5.297-2.436-8.288-3.178-9.877-14.272-30.397-45.118-50.043-78.64-50.043h.002z"/></symbol><symbol id="hidden" viewBox="0 0 512 512"><path d="M445.7 44.3c-16.4-16.4-43-16.4-59.4 0l-68.2 68.2c-26.2-7.3-68.3-6.5-72.4-6.5C210 106 81.3 116.5 3.2 254.5c-9.1 16.1 3.3 30.7 9.2 39.3C31 320.6 51.1 342 71.6 359l-37.3 37.3c-16.4 16.4-16.4 43 0 59.4 8.2 8.2 19 12.3 29.7 12.3s21.5-4.1 29.7-12.3l352-352c16.4-16.4 16.4-43 0-59.4zM56 266.6c26.8-42.1 62-72.7 104.9-91 6.6-2.8 13.1-5.2 19.4-7.3-32.8 23-54.3 61.1-54.3 104.2 0 9.9 1.1 19.6 3.3 28.8L108 322.6c-18-14.5-35.7-32.8-52-56zM499.7 238.2c-10.6-15.3-21.7-28.9-33.1-40.9L430.9 234c8.7 9.3 17.3 19.8 25.5 31.5-33.2 52.1-74.3 79.5-110.4 93.9 18.2-19.5 30.3-44.6 33.5-72.5l-135.3 139c3.7.1 20.3.2 24.3.2 35.2 0 162.2-10.5 240.2-148.5 9.1-16.2-3-30.8-9-39.4z"/></symbol><symbol id="home" viewBox="0 0 512 512"><path d="M258.872 247.804H256c-44.507 0-80.687 36.206-80.687 80.687v155.182c0 12.728 10.33 23.057 23.057 23.057s23.057-10.33 23.057-23.058v-155.18c0-19.08 15.52-34.573 34.572-34.573h2.87c17.498 0 31.7 14.23 31.7 31.7v158.078c0 12.728 10.33 23.057 23.058 23.057s23.057-10.33 23.057-23.057v-158.08c0-42.925-34.89-77.813-77.814-77.813z"/><path d="M503.12 239.952L289.07 19.262c-8.747-9.04-20.473-14.018-33.07-14.018-12.57 0-24.32 4.98-33.096 13.992h-.026L8.855 239.926C0 249.07.212 263.67 9.355 272.522c4.48 4.348 10.278 6.51 16.05 6.51 6.007 0 12.04-2.347 16.547-7.01l6.508-6.72v214.05c0 12.727 10.33 23.056 23.057 23.056s23.057-10.33 23.057-23.057V217.765L256 51.384l161.4 166.433v261.587c0 12.728 10.33 23.057 23.058 23.057s23.057-10.328 23.057-23.056v-214.05l6.51 6.72c4.505 4.664 10.513 7.01 16.547 7.01 5.798 0 11.568-2.16 16.048-6.51 9.144-8.88 9.38-23.477.5-32.62z"/></symbol><symbol id="horizontal-scroll" viewBox="0 0 512 512"><path d="M512 223.8c0-8.6-3.4-16.4-8.9-22.1-.7-.9-1.5-1.7-2.3-2.5L423.7 122c-13.6-13.6-35.7-13.6-49.3 0-6.8 6.8-10.2 15.7-10.2 24.7 0 8.9 3.4 17.9 10.2 24.7l20.4 20.4H115.3l20.4-20.4c13.6-13.6 13.6-35.7 0-49.3-13.6-13.6-35.7-13.6-49.3 0l-77.2 77C2.7 205.7-1 214.6-1 223.8c0 9.3 3.7 18.1 10.2 24.7l77.1 77.1c13.6 13.6 35.7 13.6 49.3 0 6.8-6.8 10.2-15.7 10.2-24.7 0-8.9-3.4-17.9-10.2-24.7l-20.4-20.4h279.5l-20.4 20.4c-13.6 13.6-13.6 35.7 0 49.3 13.6 13.6 35.7 13.6 49.3 0l77.1-77.1c.8-.8 1.6-1.7 2.3-2.5 5.6-5.7 9-13.5 9-22.1z"/></symbol><symbol id="hr" viewBox="0 0 512 512"><path d="M483.555 284.445H28.445C12.742 284.445-.002 271.702-.002 256s12.742-28.445 28.444-28.445h455.11C499.258 227.555 512 240.298 512 256s-12.743 28.445-28.445 28.445z"/></symbol><symbol id="import-export" viewBox="0 0 512 512"><path d="M254.5 81.1L182.9 9.5C176.8 3.4 168.6 0 160 0c-8.6 0-16.8 3.4-22.9 9.5L65.5 81.1c-12.7 12.7-12.7 33.2 0 45.8 6.3 6.3 14.6 9.5 22.9 9.5s16.6-3.2 22.9-9.5l16.7-16.7V481c0 17.7 14.3 32 32 32s32-14.3 32-32V110.2l16.7 16.7c12.7 12.7 33.2 12.7 45.8 0 12.7-12.7 12.7-33.2 0-45.8zM446.5 385.1c-6.3-6.3-14.6-9.5-22.9-9.5s-16.6 3.2-22.9 9.5L384 401.8V31c0-17.7-14.3-32-32-32s-32 14.3-32 32v370.8l-16.7-16.7c-12.7-12.7-33.2-12.7-45.8 0-12.7 12.7-12.7 33.2 0 45.8l71.6 71.6c6.1 6.1 14.3 9.5 22.9 9.5s16.8-3.4 22.9-9.5l71.6-71.6c12.7-12.7 12.7-33.2 0-45.8z"/></symbol><symbol id="info-circle-open" viewBox="0 0 512 512"><path d="M437 75C388.7 26.6 324.4 0 256 0S123.3 26.6 75 75C26.6 123.3 0 187.6 0 256s26.6 132.7 75 181c48.4 48.4 112.6 75 181 75s132.7-26.6 181-75c48.4-48.4 75-112.6 75-181s-26.6-132.7-75-181zM256 480C132.5 480 32 379.5 32 256S132.5 32 256 32s224 100.5 224 224-100.5 224-224 224z"/><path d="M288 384V224c0-17.7-14.3-32-32-32s-32 14.3-32 32v160c0 17.7 14.3 32 32 32s32-14.3 32-32z"/><circle cx="256" cy="128" r="32"/></symbol><symbol id="info-circle" viewBox="0 0 512 512"><path d="M437 75C388.7 26.6 324.4 0 256 0S123.3 26.6 75 75C26.6 123.3 0 187.6 0 256s26.6 132.7 75 181c48.4 48.4 112.6 75 181 75s132.7-26.6 181-75c48.4-48.4 75-112.6 75-181s-26.6-132.7-75-181zM288 384c0 17.7-14.3 32-32 32s-32-14.3-32-32V224c0-17.7 14.3-32 32-32s32 14.3 32 32v160zm-32-224c-17.7 0-32-14.3-32-32s14.3-32 32-32 32 14.3 32 32-14.3 32-32 32z"/></symbol><symbol id="information-live" viewBox="0 0 512 512"><path d="M273.542 160H215.23c-12.815 0-23.23 10.386-23.23 23.23 0 12.813 10.386 23.228 23.23 23.228h58.312v272.748c0 12.813 10.386 23.23 23.23 23.23 12.812 0 23.228-10.387 23.228-23.23V160h-46.458zM320 49.37c0 27.256-22.096 49.353-49.354 49.353s-49.354-22.097-49.354-49.354S243.388.014 270.646.014 320 22.11 320 49.37z"/></symbol><symbol id="italic" viewBox="0 0 512 512"><path d="M165.23 512h92.562l60.343-342.235H225.61zM330.423 16.713C319.488 5.56 305.92 0 289.72 0c-15.763 0-29.222 5.56-40.34 16.713-11.153 11.118-16.712 24.832-16.712 41.033 0 15.323 5.56 28.49 16.713 39.643 11.12 11.117 24.577 16.712 40.34 16.712 16.2 0 29.768-5.56 40.703-16.713 10.862-11.155 16.347-24.358 16.347-39.644 0-16.238-5.486-29.915-16.347-41.033z"/></symbol><symbol id="link" viewBox="0 0 512 512"><path d="M285.057 320.303c-24.563 0-49.097-9.328-67.78-28.04-9.667-9.665-9.667-25.325 0-34.963 9.667-9.666 25.326-9.666 34.965 0 18.062 18.062 47.486 18.09 65.576 0l122.474-122.445c18.062-18.06 18.062-47.486-.03-65.576-8.76-8.763-20.407-13.597-32.787-13.597-12.38 0-23.997 4.805-32.76 13.567L274.203 169.76c-9.666 9.667-25.326 9.667-34.964 0-9.667-9.665-9.667-25.325 0-34.963l100.51-100.51c18.09-18.09 42.145-28.068 67.725-28.068h.03c25.58 0 49.662 9.977 67.75 28.066 37.367 37.367 37.367 98.166.03 135.504L352.81 292.235c-18.682 18.712-43.217 28.067-67.75 28.067z"/><path d="M105.882 499.62h-.14c-25.553-.03-49.607-10.006-67.697-28.097-37.367-37.366-37.423-98.11-.142-135.39L160.49 213.544c37.367-37.367 98.166-37.34 135.504.03 9.666 9.665 9.666 25.325 0 34.963-9.666 9.666-25.326 9.666-34.964 0-18.09-18.09-47.486-18.09-65.576-.03L72.867 371.097c-18.005 18.005-17.92 47.344.14 65.435 8.763 8.763 20.41 13.597 32.79 13.624h.084c12.324 0 23.886-4.777 32.59-13.483L238.73 336.415c9.667-9.666 25.326-9.666 34.965 0 9.666 9.666 9.666 25.326 0 34.964L173.436 471.635c-18.034 18.062-42.002 27.983-67.555 27.983z"/></symbol><symbol id="list-ol" viewBox="0 0 512 512"><path d="M61.594 96.13H50.03v-68.8c0-2.41-.414-4.13-1.206-5.163s-2.17-1.55-4.096-1.55c-.62 0-1.41.105-2.34.277-.964.206-2.17.482-3.648.86l-17.69 4.75c-2.48.585-4.303 1.445-5.507 2.582s-1.79 2.478-1.79 4.096c0 2.237.55 3.96 1.618 5.163s2.583 1.824 4.544 1.824c.378 0 .963-.07 1.79-.207.79-.138 1.824-.344 3.064-.62l7.985-2.03v58.82H19.468c-3.236 0-5.54.585-6.952 1.755s-2.1 3.064-2.1 5.713c0 2.616.688 4.475 2.065 5.646S16.2 111 19.47 111H61.56c3.27 0 5.61-.584 6.988-1.754s2.065-3.028 2.065-5.645c0-2.65-.723-4.542-2.133-5.712s-3.718-1.755-6.883-1.755h-.002zM64.523 266.73c-2.374 0-4.2.55-5.404 1.582-1.206 1.067-1.825 2.685-1.825 4.853v.378H34.03l20.133-16.76c5.37-4.475 9.292-8.984 11.84-13.458s3.82-9.19 3.82-14.11c0-7.333-2.444-13.183-7.33-17.554-4.888-4.336-11.53-6.54-19.894-6.54-4.475 0-8.64.55-12.46 1.584-3.82 1.067-7.468 2.72-10.91 4.922-2.134 1.41-3.545 2.822-4.233 4.233s-1.067 3.544-1.067 6.4c0 2.787.55 4.853 1.687 6.264s2.787 2.1 5.025 2.1c2.58 0 4.922-1.65 7.056-4.99.758-1.24 1.41-2.168 1.927-2.754.963-1.204 2.34-2.133 4.165-2.787 1.79-.654 3.855-1 6.127-1 3.923 0 6.883.93 8.81 2.823s2.89 4.75 2.89 8.57c0 2.72-.722 5.472-2.168 8.19s-3.615 5.473-6.54 8.192l-27.02 25.16c-1.892 1.755-3.304 3.408-4.164 4.956-.895 1.618-1.342 3.2-1.342 4.853 0 1.962.688 3.476 2.1 4.543s3.373 1.618 5.954 1.618h47.738c1.41 0 2.41-.24 2.96-.757s.86-1.754.963-3.716l.515-9.913v-.826c0-1.928-.516-3.408-1.583-4.44-1.067-1.1-2.582-1.618-4.51-1.618h.003zM55.054 441.956c4.612-2.1 8.02-4.647 10.187-7.71s3.27-6.814 3.27-11.254c0-6.746-2.374-12.183-7.124-16.245s-11.083-6.127-19.068-6.127c-7.916 0-14.593 1.377-19.997 4.13s-8.087 6.058-8.087 9.913c0 1.755.55 3.236 1.618 4.372s2.514 1.72 4.303 1.72c1.618 0 4.51-1.066 8.708-3.166s8.02-3.168 11.393-3.168c3.2 0 5.678.895 7.434 2.685s2.65 4.302 2.65 7.503c0 3.717-.723 6.4-2.203 8.054s-4.68 2.822-9.602 3.51c-.276.035-.688.103-1.24.137-3.922.55-5.918 2.616-5.918 6.265 0 2.615.482 4.44 1.48 5.473s2.926 1.583 5.817 1.65c5.508.242 9.225 1.31 11.152 3.27 1.962 1.962 2.926 5.197 2.926 9.774 0 4.268-1.17 7.538-3.477 9.81-2.305 2.304-5.61 3.44-9.912 3.44-3.58 0-7.71-1.032-12.356-3.062-4.68-2.03-7.572-3.063-8.708-3.063-2.374 0-4.302.688-5.747 2.065-1.41 1.514-2.133 3.305-2.133 5.507 0 3.75 2.615 6.95 7.882 9.6 5.265 2.616 11.91 3.96 19.997 3.96 9.98 0 17.864-2.478 23.645-7.434s8.674-11.668 8.674-20.17c0-5.61-1.273-10.187-3.855-13.697-2.513-3.546-6.437-6.093-11.702-7.746l-.002.002zM448.5 480h-288c-17.6 0-32-14.4-32-32s14.4-32 32-32h288c17.6 0 32 14.4 32 32s-14.4 32-32 32zM448.5 288.002h-288c-17.6 0-32-14.4-32-32s14.4-32 32-32h288c17.6 0 32 14.4 32 32s-14.4 32-32 32zM448.5 96h-288c-17.6 0-32-14.4-32-32s14.4-32 32-32h288c17.6 0 32 14.4 32 32s-14.4 32-32 32z"/></symbol><symbol id="list-ul" viewBox="0 0 512 512"><path d="M448 288H160c-17.6 0-32-14.4-32-32s14.4-32 32-32h288c17.6 0 32 14.4 32 32s-14.4 32-32 32zM448 512H160c-17.6 0-32-14.4-32-32s14.4-32 32-32h288c17.6 0 32 14.4 32 32s-14.4 32-32 32zM448 64H160c-17.6 0-32-14.4-32-32s14.4-32 32-32h288c17.6 0 32 14.4 32 32s-14.4 32-32 32zM64 256c0 17.673-14.327 32-32 32S0 273.673 0 256c0-17.673 14.327-32 32-32s32 14.327 32 32zM64 32c0 17.673-14.327 32-32 32S0 49.673 0 32C0 14.327 14.327 0 32 0s32 14.327 32 32zM64 480c0 17.673-14.327 32-32 32S0 497.673 0 480c0-17.673 14.327-32 32-32s32 14.327 32 32z"/></symbol><symbol id="list" viewBox="0 0 512 512"><path d="M96.037 0h-64c-17.664 0-32 14.336-32 32s14.336 32 32 32h64c17.664 0 32-14.336 32-32s-14.336-32-32-32zM96.037 224h-64c-17.664 0-32 14.336-32 32s14.336 32 32 32h64c17.664 0 32-14.336 32-32s-14.336-32-32-32zM96.037 448h-64c-17.664 0-32 14.336-32 32s14.336 32 32 32h64c17.664 0 32-14.336 32-32s-14.336-32-32-32zM480 288H224c-17.6 0-32-14.4-32-32s14.4-32 32-32h256c17.6 0 32 14.4 32 32s-14.4 32-32 32zM480 64H224c-17.6 0-32-14.4-32-32s14.4-32 32-32h256c17.6 0 32 14.4 32 32s-14.4 32-32 32zM480 512H224c-17.6 0-32-14.4-32-32s14.4-32 32-32h256c17.6 0 32 14.4 32 32s-14.4 32-32 32z"/></symbol><symbol id="live" viewBox="0 0 512 512"><path d="M256 0C114.8 0 0 114.8 0 256s114.8 256 256 256 256-114.8 256-256S397.2 0 256 0zm0 384c-70.7 0-128-57.3-128-128s57.3-128 128-128 128 57.3 128 128-57.3 128-128 128z"/></symbol><symbol id="lock" viewBox="0 0 512 512"><path d="M384 256V128C384 57.432 326.568 0 256 0S128 57.432 128 128v128c-28.233 0-51.2 22.967-51.2 51.2v153.6c0 28.233 22.967 51.2 51.2 51.2h256c28.233 0 51.2-22.967 51.2-51.2V307.2c0-28.233-22.967-51.2-51.2-51.2zM179.2 128c0-42.364 34.436-76.8 76.8-76.8s76.8 34.436 76.8 76.8v128H179.2V128zM128 448V320h256l.03 128H128z"/><path d="M224 352h64v64h-64v-64z"/></symbol><symbol id="logout" viewBox="0 0 512 512"><path d="M256 256c17.6 0 32-14.4 32-32V32c0-17.6-14.4-32-32-32s-32 14.4-32 32v192c0 17.6 14.4 32 32 32z"/><path d="M459.834 164.518c-12.916-28.27-31.25-53.15-54.493-73.954-13.168-11.787-33.398-10.667-45.184 2.502s-10.666 33.4 2.502 45.186c16.628 14.883 29.738 32.668 38.965 52.864 9.54 20.88 14.377 43.215 14.377 66.39 0 42.737-16.643 82.916-46.863 113.136s-70.4 46.863-113.137 46.863c-42.738 0-82.917-16.643-113.137-46.863S96 300.242 96 257.505c0-23.175 4.837-45.512 14.377-66.392 9.228-20.197 22.337-37.983 38.965-52.865 13.168-11.787 14.29-32.017 2.502-45.185s-32.017-14.29-45.185-2.502c-23.244 20.804-41.578 45.687-54.494 73.957C38.786 193.803 32 225.09 32 257.505c0 30.226 5.928 59.564 17.617 87.2 11.284 26.68 27.43 50.63 47.992 71.192s44.512 36.71 71.19 47.992c27.637 11.69 56.975 17.615 87.2 17.615s59.566-5.927 87.2-17.616c26.68-11.285 50.63-27.43 71.193-47.993s36.708-44.513 47.99-71.19C474.074 317.068 480 287.73 480 257.504c0-32.416-6.784-63.702-20.166-92.987z"/></symbol><symbol id="magic" viewBox="0 0 512 512"><path d="M335.144 114.23c-16.73 0-32.46 6.515-44.298 18.353L18.546 404.86C6.325 417.058-.168 433.288.19 450.544c.383 17.256 7.59 33.175 20.336 44.846 11.576 10.596 26.612 16.444 42.293 16.444 16.73 0 32.46-6.516 44.297-18.353l272.3-272.3c24.417-24.416 24.417-64.18 0-88.595-11.814-11.838-27.542-18.353-44.273-18.353zm-56.47 89.55l29.524 29.523-192.37 192.37-29.524-29.524 192.37-192.37zM48.714 464.575c-4.25-3.89-6.66-9.19-6.78-14.94s2.054-11.147 6.11-15.23l8.737-8.735 29.525 29.525-8.736 8.736c-7.615 7.662-20.86 7.973-28.856.645zm301.18-272.946l-12.172 12.15-29.524-29.525 12.15-12.15c3.937-3.937 9.188-6.11 14.773-6.11s10.813 2.173 14.775 6.11c8.14 8.14 8.14 21.386 0 29.525zM446.556 94.968l6.11 6.11c4.082 4.082 9.428 6.11 14.774 6.11s10.692-2.03 14.774-6.11c8.163-8.162 8.163-21.385 0-29.524l-6.11-6.11 6.11-6.11c8.163-8.163 8.163-21.385 0-29.524-8.163-8.163-21.385-8.163-29.524 0l-6.11 6.11-6.11-6.11c-8.163-8.163-21.385-8.163-29.524 0-8.163 8.163-8.163 21.385 0 29.524l6.11 6.11-6.11 6.11c-8.163 8.162-8.163 21.385 0 29.524 4.082 4.082 9.428 6.11 14.774 6.11s10.692-2.03 14.774-6.11l6.062-6.11zM302.995 62.82c0 11.527 9.356 20.883 20.884 20.883s20.883-9.356 20.883-20.884c11.528 0 20.884-9.357 20.884-20.885S356.29 21.05 344.763 21.05c0-11.527-9.356-20.883-20.884-20.883s-20.885 9.356-20.885 20.884c-11.528 0-20.884 9.357-20.884 20.885s9.357 20.884 20.885 20.884zM490.95 188.12c0-11.527-9.357-20.883-20.885-20.883s-20.884 9.356-20.884 20.884c-11.527 0-20.883 9.357-20.883 20.885s9.356 20.884 20.884 20.884c0 11.527 9.357 20.883 20.885 20.883s20.884-9.356 20.884-20.884c11.527 0 20.883-9.357 20.883-20.885s-9.356-20.884-20.884-20.884z"/></symbol><symbol id="moon" viewBox="0 0 512 512"><path d="M186.548 81.39c0-25.364 3.774-49.822 10.668-72.936C84.294 34.254 0 135.24 0 256c0 140.28 113.722 254.003 254.004 254.003 114.92 0 211.984-76.346 243.336-181.068-18.252 4.173-37.266 6.46-56.788 6.46-140.283 0-254.004-113.758-254.004-254.005zM480.25 65.497H448.5v-31.75c0-17.527-14.225-31.75-31.75-31.75S385 16.22 385 33.746v31.75h-31.75c-17.527 0-31.75 14.224-31.75 31.75s14.187 31.75 31.75 31.75H385v31.75c0 17.527 14.223 31.75 31.75 31.75s31.75-14.223 31.75-31.75v-31.75h31.75c17.525 0 31.75-14.223 31.75-31.75s-14.225-31.75-31.75-31.75z"/></symbol><symbol id="myspace" viewBox="0 0 512 512"><path d="M488.728 231.264c-12.846 0-23.272 10.426-23.272 23.273 0 115.486-93.97 209.454-209.454 209.454S46.548 370.023 46.548 254.538c0-12.846-10.426-23.273-23.273-23.273S.002 241.69.002 254.537c0 141.152 114.847 256 256 256s256-114.848 256-256c0-12.846-10.426-23.273-23.272-23.273z"/><path d="M115.513 298.183c6.49 0 12.953-2.712 17.58-8.006 30.987-35.588 75.777-56.014 122.934-56.014s91.947 20.427 122.933 56.014c8.43 9.682 23.14 10.72 32.848 2.26 9.682-8.43 10.692-23.138 2.26-32.847-21.915-25.188-49.337-44.205-79.578-56.44 23.14-21.278 37.9-51.52 37.9-85.377C372.39 53.62 320.18 1.41 256.03 1.41S139.665 53.62 139.665 117.772c0 33.858 14.762 64.1 37.9 85.377-30.24 12.235-57.662 31.25-79.578 56.44-8.43 9.682-7.42 24.39 2.287 32.848 4.388 3.856 9.814 5.745 15.24 5.745zm70.67-180.357c0-38.513 31.304-69.818 69.817-69.818s69.818 31.305 69.818 69.818-31.305 69.818-69.818 69.818-69.818-31.332-69.818-69.818z"/></symbol><symbol id="paperclip" viewBox="0 0 512 512"><path d="M473.45 48.992c-17.8-17.8-41.45-27.588-66.605-27.588s-48.805 9.788-66.604 27.588L137.23 251.976c-12.605 12.604-19.25 28.517-18.785 44.868.465 15.34 7.136 30.185 18.756 41.832 11.567 11.565 26.987 17.963 43.365 17.963s31.798-6.4 43.363-17.964L332.83 229.774c9.35-9.35 9.35-24.498 0-33.822s-24.498-9.35-33.822 0l-108.93 108.902c-5.06 5.086-13.917 5.113-19.03 0-2.98-2.98-4.675-6.316-4.785-9.378-.082-3.144 1.53-6.37 4.785-9.624L374.06 82.84c17.526-17.5 48.04-17.5 65.565 0 18.073 18.073 18.073 47.493 0 65.565l-237.9 237.9c-32.644 32.618-85.77 32.644-118.416 0s-32.646-85.772 0-118.418L252.47 98.725c9.352-9.35 9.352-24.498 0-33.822-9.35-9.35-24.497-9.35-33.82 0L49.486 234.065c-51.293 51.293-51.293 134.794 0 186.087 25.647 25.647 59.36 38.47 93.044 38.47 33.714 0 67.398-12.824 93.045-38.47l237.9-237.9c36.718-36.774 36.718-96.515-.028-133.262z"/></symbol><symbol id="pause" viewBox="0 0 512 512"><path d="M160 0c-17.7 0-32 14.3-32 32v448c0 17.7 14.3 32 32 32s32-14.3 32-32V32c0-17.7-14.3-32-32-32zM352 0c-17.7 0-32 14.3-32 32v448c0 17.7 14.3 32 32 32s32-14.3 32-32V32c0-17.7-14.3-32-32-32z"/></symbol><symbol id="pencil" viewBox="0 0 512 512"><path d="M482.978 30.966C466.896 14.884 445.526 6.03 422.796 6.03s-44.1 8.853-60.182 24.936L4.15 389.43l4.378 115.272 119.877 1.233L482.98 151.36c33.17-33.202 33.17-87.19 0-120.395zM105.124 448.964l-41.958-.42-1.395-36.48L336.19 137.647l40.11 40.11-271.174 271.208zM442.868 111.22L416.44 137.65l-40.14-40.11 26.393-26.395c10.7-10.7 29.378-10.733 40.142 0 11.09 11.025 11.09 29.02.033 40.078z"/></symbol><symbol id="phone" viewBox="0 0 512 512"><path d="M490.85 363.4l-2.783-5.07c-19.817-35.92-128.178-54.345-129.206-54.38l-2.352-.065-10.77 1.524c-16.9 3.876-30.984 15.74-50.502 33.833-25.152-14.68-52.39-37.58-68.662-54.314-16.736-17.067-39.932-47.72-52.358-71.645 22.037-21.64 37.38-38.705 38.407-61.703.034-1.028-13.752-110.052-48.88-131.724l-5.07-3.08C149.064 11.043 131.137.34 109.398.34c-5.4 0-10.77.664-16.967 2.255-6.893 2.022-13.256 4.805-20.015 9.08-16.47 11.366-46.228 35.06-60.676 66.31-13.455 30.75-4.442 187.86 113.364 310.968 111.642 116.812 241.213 122.71 266.067 122.71 6.43 0 15.145-.297 22.436-1.623l2.817-.132 6.66-2.518c32.18-13.19 56.866-41.72 68.43-57.197 26.91-34.663 6.33-73.6-.662-86.79zm-45.5 51.696c-10.504 14.05-27.305 31.315-42.615 37.976-1.524.232-5.37.596-11.565.596-20.71 0-128.808-5.07-224.147-104.816C66.98 244.268 62.605 119.038 65.52 99.952c6.562-12.726 21.243-27.705 38.74-39.833.498-.3 1.922-1.127 3.413-1.56 5.534-1.39 15.608 4.607 21.042 7.822l2.386 1.458c8.086 13.487 20.58 63.56 23.264 81.155-3.778 6.43-19.187 21.44-27.737 29.758l-1.028 1.06c-11.898 12.824-15.476 31.184-8.882 47.32 14.184 32.94 45.864 75.258 68.397 98.29 22.103 22.765 59.45 53.386 93.218 70.617 16.304 8.086 36.286 4.805 49.144-7.49 10.074-9.41 25.02-23.394 30.553-26.278 17.63 3.446 67.7 18.16 80.79 26.676l1.06 1.955c7.027 13.42 8.65 20.082 5.468 24.19z"/></symbol><symbol id="picture" viewBox="0 0 512 512"><path d="M168.45 88.69c0 45.13-36.585 81.716-81.717 81.716S5.016 133.82 5.016 88.69c0-45.13 36.586-81.718 81.717-81.718S168.45 43.558 168.45 88.69zM505.454 480.48L335.262 201.5c-5.408-8.894-17.717-10.388-25.116-3.095L200.36 306.84l-40.305-39.81c-7.4-7.328-19.71-5.797-25.116 3.097L6.547 480.484C.003 491.228 7.722 505.03 20.35 505.03H491.69c12.594 0 20.313-13.803 13.767-24.546z"/></symbol><symbol id="play" viewBox="0 0 512 512"><path d="M127.5 453.745V58.255c0-46.992 26.017-58.255 57.84-25.017l189.245 197.744c13.165 13.75 13.165 36.28 0 50.067L185.34 478.793c-31.788 33.205-57.84 21.94-57.84-25.05z"/></symbol><symbol id="plus" viewBox="0 0 512 512"><path d="M479.82 224.002H287.41V32.092c0-17.6-14.4-32-32-32s-32 14.4-32 32v191.91H32c-17.6 0-32 14.4-32 32s14.4 32 32 32h191.41v191.91c0 17.6 14.4 32 32 32s32-14.4 32-32v-191.91h192.41c17.6 0 32-14.4 32-32s-14.4-32-32-32z"/></symbol><symbol id="print" viewBox="0 0 512 512"><path fill="none" d="M129.6 288.3h253.9c18.2 0 33 14.8 33 33v31.1H448V160.1H64v192.3h32.6v-31.1c0-18.2 14.8-33 33-33z"/><path d="M448 96h-63.5V33c0-18.2-14.8-33-33-33H161.4c-18.2 0-33 14.8-33 33v63H64c-35.3 0-64 27.7-64 63v193.3c0 35.3 28.7 64 64 64h32.6v64.3c0 18.2 14.8 33 33 33h254.9c18.2 0 32-14.8 32-33v-64.3H448c35.3 0 64-28.7 64-64V159c0-35.3-28.7-63-64-63zM192.4 64h128.1v32.4H192.4V64zm159.2 383.6h-191v-95.3h190.9l.1 95.3zm96.4-95.3h-31.4v-31.1c0-18.2-14.8-33-33-33h-254c-18.2 0-33 14.8-33 33v31.1H64V160h384v192.3z"/><circle cx="112" cy="208.3" r="16"/><circle cx="176.3" cy="208" r="15.7"/></symbol><symbol id="product-menu-closed" viewBox="0 0 512 512"><path d="M31.03 0C13.936 0 0 13.937 0 31.03v449.94C0 498.064 13.937 512 31.03 512s31.028-13.937 31.028-31.03V31.03c0-17.093-13.9-31.03-31.03-31.03zM463.983 511.966H144.018c-26.478 0-48.018-21.54-48.018-47.982V47.948c0-26.44 21.54-47.982 48.018-47.982h319.965c26.478 0 47.982 21.54 47.982 47.982v416c0 26.477-21.54 48.017-47.982 48.017zm-303.983-64h287.965v-384H160v384z"/></symbol><symbol id="product-menu-open" viewBox="0 0 512 512"><path d="M465.452 5.8H46.547C20.87 5.8.017 26.69.017 52.33V459.6c0 25.677 20.89 46.53 46.53 46.53h418.905c25.676 0 46.53-20.89 46.53-46.53V52.364c.035-25.677-20.854-46.565-46.53-46.565zM448 448H256V64h192v384z"/></symbol><symbol id="product-menu" viewBox="0 0 512 512"><path d="M480 64H320c-17.664 0-32-14.335-32-32 0-17.663 14.336-32 32-32h160c17.664 0 32 14.337 32 32 0 17.665-14.336 32-32 32zM480 288H320c-17.664 0-32-14.336-32-32s14.336-32 32-32h160c17.664 0 32 14.336 32 32s-14.336 32-32 32zM480 512H320c-17.664 0-32-14.336-32-32s14.336-32 32-32h160c17.664 0 32 14.336 32 32s-14.336 32-32 32zM176.018 512h-128C21.54 512 0 490.46 0 464.018V47.982C0 21.542 21.54 0 48.018 0h128C202.496 0 224 21.54 224 47.982v416c0 26.477-21.54 48.017-47.982 48.017zM64 448h96V64H64v384z"/></symbol><symbol id="question-circle-full" viewBox="0 0 512 512"><path d="M256 0C114.63 0 0 114.6 0 256c0 141.37 114.63 256 256 256s256-114.63 256-256C512 114.6 397.37 0 256 0zm13.605 360.77c-4.974 4.826-10.913 7.225-17.876 7.225s-12.874-2.428-17.73-7.226c-4.858-4.828-7.286-10.71-7.286-17.614 0-6.933 2.428-12.844 7.285-17.788 4.856-4.915 10.766-7.402 17.73-7.402s12.93 2.457 17.875 7.402 7.43 10.854 7.43 17.788c0 6.905-2.456 12.786-7.43 17.613zm51.433-128.264c-5.705 8.923-13.283 16.735-22.79 23.464l-12.99 9.128c-5.5 3.98-9.715 8.455-12.67 13.37-2.954 4.945-4.446 10.65-4.446 17.145v1.9H233.94c-.44-2.105-.73-4.183-.936-6.29s-.32-4.3-.32-6.612c0-8.396 1.9-16.412 5.704-24.078s10.24-14.834 19.31-21.563l15.184-11.323c9.07-6.7 13.605-15.01 13.605-24.87 0-3.57-.644-7.08-1.9-10.532s-3.22-6.495-5.852-9.128c-2.633-2.633-5.97-4.71-9.977-6.29s-8.66-2.37-13.927-2.37c-5.704 0-10.56 1.054-14.57 3.16s-7.343 4.77-9.977 8.017c-2.633 3.247-4.594 7.022-5.85 11.322s-1.902 8.66-1.902 13.05c0 4.212.41 7.547 1.26 10.064l-39.878-1.58c-.644-2.31-1.054-4.652-1.258-7.08-.205-2.4-.32-4.77-.32-7.08 0-8.397 1.58-16.62 4.74-24.693s7.81-15.214 13.926-21.416c6.114-6.172 13.663-11.175 22.645-14.95s19.368-5.676 31.188-5.676c12.23 0 22.996 1.785 32.3 5.355 9.274 3.57 17.087 8.25 23.435 14.013 6.32 5.764 11.09 12.434 14.248 19.982s4.74 15.33 4.74 23.29c.058 12.58-2.81 23.346-8.514 32.27z"/></symbol><symbol id="question-circle" viewBox="0 0 512 512"><path d="M236 287.926c-.4-1.915-.666-3.803-.852-5.72s-.292-3.91-.292-6.01c0-7.634 1.728-14.92 5.186-21.89s9.31-13.484 17.554-19.6L271.4 224.41c8.246-6.09 12.37-13.644 12.37-22.608 0-3.245-.587-6.436-1.73-9.576s-2.925-5.905-5.32-8.298c-2.393-2.393-5.425-4.282-9.07-5.72s-7.872-2.153-12.66-2.153c-5.186 0-9.6.958-13.246 2.873s-6.675 4.335-9.07 7.288c-2.393 2.952-4.176 6.383-5.32 10.293s-1.728 7.874-1.728 11.864c0 3.83.373 6.862 1.144 9.15l-36.252-1.436c-.585-2.1-.958-4.23-1.144-6.436-.186-2.18-.292-4.335-.292-6.436 0-7.633 1.436-15.107 4.31-22.448s7.1-13.83 12.66-19.47c5.56-5.612 12.42-10.16 20.586-13.59s17.608-5.16 28.352-5.16c11.118 0 20.905 1.623 29.364 4.868 8.43 3.245 15.533 7.5 21.305 12.74 5.744 5.24 10.08 11.304 12.95 18.166s4.31 13.936 4.31 21.172c0 11.437-2.58 21.225-7.767 29.337s-12.075 15.215-20.72 21.332l-11.81 8.298c-5 3.618-8.83 7.687-11.516 12.155-2.687 4.495-4.043 9.682-4.043 15.586v1.73H236zM229.376 329.42c0-6.304 2.208-11.677 6.623-16.172 4.415-4.47 9.786-6.73 16.117-6.73s11.756 2.235 16.25 6.73c4.496 4.495 6.756 9.868 6.756 16.17s-2.26 11.65-6.755 16.013c-4.522 4.39-9.92 6.57-16.25 6.57s-11.704-2.206-16.12-6.57-6.622-9.708-6.622-16.01z"/><path d="M491.356 155.833C478.46 125.34 460.01 97.97 436.52 74.48s-50.862-41.94-81.354-54.837C323.564 6.276 290.03-.5 255.5-.5s-68.064 6.776-99.666 20.143C125.342 32.54 97.97 50.99 74.48 74.48s-41.94 50.86-54.836 81.353C6.277 187.435-.5 220.968-.5 255.5s6.777 68.065 20.144 99.666C32.54 385.656 50.99 413.03 74.48 436.52s50.862 41.94 81.354 54.836C187.436 504.722 220.97 511.5 255.5 511.5s68.065-6.777 99.666-20.144c30.49-12.897 57.863-31.346 81.353-54.837s41.94-50.862 54.836-81.354C504.722 323.564 511.5 290.03 511.5 255.5s-6.777-68.064-20.144-99.666zM255.5 447.5c-106.038 0-192-85.962-192-192s85.962-192 192-192 192 85.962 192 192-85.962 192-192 192z"/></symbol><symbol id="quote-left" viewBox="0 0 512 512"><path d="M233.385 350.832c0 27.183-10.15 51.067-30.398 71.653-20.303 20.613-46.95 30.906-79.943 30.906-37.73 0-67.676-13.112-89.813-39.336C11.068 387.83-.014 355.994-.014 318.518c0-46.81 7.303-86.4 21.91-118.716s32.738-58.512 54.45-78.674c21.685-20.133 45.26-35.135 70.723-44.95 25.492-9.84 49.517-15.677 72.16-17.566v85.695c-27.352 4.71-53.042 17.117-77.067 37.222-24.052 20.16-37.024 46.61-38.885 79.378 7.53-4.68 17.455-7.02 29.694-7.02 32.033 0 56.79 8.684 74.246 25.998 17.427 17.342 26.168 40.972 26.168 70.947zm278.6 0c0 27.183-10.15 51.067-30.397 71.653-20.303 20.613-46.923 30.906-79.914 30.906-37.73 0-67.676-13.112-89.813-39.336-22.163-26.224-33.245-58.06-33.245-95.536 0-46.81 7.303-86.4 21.91-118.716s32.738-58.512 54.45-78.674c21.686-20.133 45.26-35.135 70.723-44.95 25.464-9.84 49.517-15.677 72.16-17.566v85.695c-27.353 4.71-53.04 17.117-77.094 37.222-24.053 20.16-37.024 46.61-38.885 79.378 7.528-4.68 17.454-7.02 29.693-7.02 32.034 0 56.792 8.684 74.247 25.998 17.426 17.342 26.168 40.972 26.168 70.947z"/></symbol><symbol id="quote-right" viewBox="0 0 512 512"><path d="M278.615 161.168c0-27.184 10.15-51.067 30.398-71.653 20.303-20.614 46.95-30.906 79.943-30.906 37.73 0 67.676 13.11 89.812 39.336 22.164 26.225 33.246 58.06 33.246 95.536 0 46.81-7.303 86.4-21.91 118.716s-32.738 58.512-54.45 78.673c-21.686 20.135-45.26 35.136-70.722 44.95-25.464 9.84-49.488 15.678-72.132 17.567v-85.695c27.353-4.71 53.04-17.116 77.067-37.222 24.053-20.163 37.024-46.613 38.885-79.38-7.53 4.682-17.455 7.022-29.693 7.022-32.035 0-56.793-8.685-74.248-26-17.455-17.34-26.197-40.97-26.197-70.947zm-278.6 0c0-27.184 10.152-51.067 30.398-71.653C50.716 68.9 77.336 58.61 110.327 58.61c37.73 0 67.676 13.11 89.812 39.336 22.163 26.225 33.245 58.06 33.245 95.536 0 46.81-7.304 86.4-21.91 118.716s-32.738 58.512-54.45 78.673c-21.685 20.135-45.26 35.136-70.723 44.95-25.463 9.84-49.517 15.678-72.16 17.567v-85.695c27.352-4.71 53.04-17.116 77.094-37.222 24.053-20.163 37.024-46.613 38.886-79.38-7.53 4.682-17.455 7.022-29.693 7.022-32.034 0-56.793-8.685-74.248-26C8.755 214.773.014 191.143.014 161.166z"/></symbol><symbol id="reload" viewBox="0 0 512 512"><path d="M472.065 460.954l-80.854 2.365c67.54-47.63 108.977-125.483 108.977-208.89 0-97.147-53.904-184.7-140.685-228.504-11.483-5.768-25.463-1.17-31.23 10.286-5.796 11.483-1.198 25.463 10.285 31.257C409.577 103.324 453.7 174.955 453.7 254.455c0 68.947-34.66 133.27-90.982 172.13l-2.074-70.703c-.372-12.838-11.19-23.23-23.92-22.566-12.84.372-22.94 11.084-22.567 23.92L318.01 488.7v.054l.028.478c.372 12.6 10.685 22.566 23.23 22.566h.69c.905-.027 1.648-.452 2.526-.585l128.964-3.774c12.838-.373 22.938-11.085 22.566-23.922s-11.27-23.23-23.948-22.566zM194.017 23.27v-.531C193.645 9.9 182.907-.2 170.095.172c-.904.027-1.648.452-2.525.585L38.58 4.532c-12.838.372-22.938 11.084-22.566 23.922.372 12.6 10.685 22.566 23.23 22.566h.69l80.856-2.365C53.252 96.285 11.814 174.163 11.814 257.545c0 97.148 53.903 184.7 140.685 228.504 3.348 1.7 6.936 2.497 10.445 2.497 8.506 0 16.692-4.678 20.785-12.785 5.794-11.483 1.196-25.463-10.286-31.23-71.02-35.857-115.142-107.49-115.142-186.988 0-68.947 34.66-133.27 90.98-172.13l2.074 70.702c.372 12.6 10.685 22.566 23.23 22.566h.69c12.84-.372 22.94-11.083 22.567-23.922L193.99 23.298l.026-.027z"/></symbol><symbol id="remove-style" viewBox="0 0 512 512"><path d="M0 64.426h116.53L54.686 352.273h70.6l57.646-287.847h110.737V0H0v64.426zM0 384h288v32H0v-32zM481 512c-8.28 0-16.065-3.224-21.92-9.08l-45.963-45.962-45.962 45.962c-5.856 5.856-13.64 9.08-21.92 9.08s-16.065-3.224-21.92-9.08c-5.857-5.854-9.08-13.64-9.08-21.92s3.223-16.065 9.08-21.92l45.96-45.963-45.96-45.962c-12.088-12.087-12.088-31.753 0-43.84 5.853-5.857 13.638-9.08 21.92-9.08s16.064 3.223 21.92 9.08l45.962 45.96 45.962-45.96c5.853-5.857 13.638-9.08 21.92-9.08s16.064 3.223 21.92 9.08c12.086 12.086 12.086 31.753 0 43.84l-45.962 45.962 45.962 45.962c5.856 5.853 9.08 13.638 9.08 21.92s-3.224 16.064-9.08 21.92c-5.855 5.855-13.64 9.08-21.92 9.08z"/></symbol><symbol id="repository" viewBox="0 0 512 512"><path d="M433.777 416C459.265 416 480 395.266 480 369.778V142.223C480 116.76 459.266 96 433.778 96H318.002c-7.72 0-25.94-29.15-31.33-40.32C274.103 29.582 259.865 0 231.128 0H77.457C52.393 0 32.003 21.82 32.003 48.628V369.78c0 25.487 20.734 46.22 46.222 46.22h145.778v32h-160c-17.673 0-32 14.328-32 32 0 17.674 14.327 32 32 32h384c17.673 0 32-14.326 32-32 0-17.672-14.327-32-32-32h-160v-32H433.78zM95.463 54.404s.282-1.93.537-2.404h133.255c4.52 4.755 11.672 17.845 16.065 27.276 2.53 5.416 5.16 11.096 8.02 16.724H95.462V54.404zM96 352l-.026-192H416v192H96z"/></symbol><symbol id="restore" viewBox="0 0 512 512"><path d="M180.7 347.3c3.1 3.1 7.2 4.7 11.3 4.7s8.2-1.6 11.3-4.7l48-48c6.3 3 13.3 4.7 20.7 4.7 26.5 0 48-21.5 48-48 0-20.9-13.4-38.7-32-45.3V112c0-8.8-7.2-16-16-16s-16 7.2-16 16v98.7c-18.6 6.6-32 24.4-32 45.3 0 7.4 1.7 14.4 4.7 20.7l-48 48c-6.3 6.2-6.3 16.4 0 22.6z"/><path d="M256 0C179.5 0 110.9 33.5 64 86.7V64c0-17.6-14.4-32-32-32S0 46.4 0 64v96c0 9.9 4.6 18.8 11.7 24.7 5.5 4.6 12.6 7.3 20.3 7.3h96c17.6 0 32-14.4 32-32s-14.4-32-32-32h-15.1c35.2-39.3 86.2-64 143.1-64 106 0 192 86 192 192s-86 192-192 192c-95.1 0-174.1-69.2-189.3-160H2c15.7 126.3 123.5 224 254 224 141.4 0 256-114.6 256-256S397.4 0 256 0z"/></symbol><symbol id="search" viewBox="0 0 512 512"><path d="M503.254 467.86L369.61 334.217c27.67-35.13 44.343-79.327 44.343-127.415C413.953 93.018 321.375.44 207.59.44S1.23 93.016 1.23 206.8s92.577 206.363 206.36 206.363c47.27 0 90.736-16.146 125.573-42.97l133.85 133.852c5.003 5.002 11.555 7.488 18.107 7.488s13.104-2.486 18.106-7.488c10.004-10.003 10.004-26.21.03-36.183zM52.446 206.8c0-85.557 69.616-155.172 155.173-155.172S362.792 121.244 362.792 206.8 293.177 361.975 207.62 361.975 52.447 292.358 52.447 206.8z"/></symbol><symbol id="share-alt" viewBox="0 0 512 512"><path d="M397.255 402.745c-5.868-5.868-12.71-10.478-20.334-13.702C369.01 385.697 360.626 384 352 384s-17.01 1.697-24.92 5.043c-2.626 1.11-5.155 2.39-7.588 3.822L215.135 288.508c1.434-2.432 2.712-4.962 3.822-7.587C222.303 273.01 224 264.626 224 256s-1.697-17.012-5.043-24.923c-1.11-2.625-2.388-5.155-3.822-7.587l104.357-104.357c2.432 1.433 4.96 2.712 7.587 3.822 7.91 3.346 16.295 5.043 24.92 5.043s17.01-1.697 24.92-5.043c7.626-3.225 14.467-7.835 20.335-13.703s10.478-12.71 13.702-20.334c3.346-7.91 5.043-16.296 5.043-24.922s-1.697-17.01-5.043-24.922c-3.225-7.625-7.835-14.466-13.702-20.334S384.545 8.263 376.92 5.037C369.01 1.69 360.626-.006 352-.006s-17.01 1.696-24.92 5.043c-7.626 3.225-14.467 7.835-20.335 13.703s-10.478 12.71-13.702 20.334C289.697 46.984 288 55.37 288 63.996s1.697 17.01 5.043 24.922c1.11 2.625 2.39 5.155 3.822 7.587L192.508 200.862c-2.43-1.434-4.962-2.712-7.587-3.822-7.91-3.346-16.295-5.042-24.92-5.042s-17.012 1.696-24.923 5.042c-7.625 3.225-14.466 7.835-20.334 13.702s-10.478 12.71-13.703 20.334c-3.346 7.91-5.043 16.296-5.043 24.922s1.697 17.01 5.043 24.922c3.225 7.625 7.835 14.466 13.703 20.334s12.71 10.478 20.334 13.702C142.987 318.302 151.373 320 160 320s17.01-1.698 24.92-5.044c2.626-1.11 5.156-2.39 7.588-3.822L296.865 415.49c-1.433 2.433-2.712 4.962-3.822 7.588-3.346 7.91-5.043 16.296-5.043 24.92s1.697 17.01 5.043 24.922c3.225 7.625 7.835 14.466 13.702 20.334s12.71 10.478 20.334 13.702c7.91 3.346 16.295 5.042 24.92 5.042s17.01-1.697 24.92-5.043c7.626-3.225 14.467-7.835 20.335-13.702s10.478-12.71 13.702-20.334c3.346-7.912 5.043-16.297 5.043-24.922s-1.697-17.01-5.043-24.92c-3.225-7.626-7.835-14.467-13.702-20.334zM352 32c17.673 0 32 14.327 32 32s-14.327 32-32 32-32-14.327-32-32 14.327-32 32-32zM160 288c-17.673 0-32-14.327-32-32s14.327-32 32-32 32 14.327 32 32-14.327 32-32 32zm192 192c-17.673 0-32-14.327-32-32s14.327-32 32-32 32 14.327 32 32-14.327 32-32 32z"/></symbol><symbol id="simulation-menu-closed" viewBox="0 0 512 512"><path d="M480 224h-2.272C463.695 125.898 386.1 48.304 288 34.272V32c0-17.673-14.327-32-32-32-17.673 0-32 14.327-32 32v2.272C125.898 48.305 48.304 125.9 34.272 224H32c-17.673 0-32 14.327-32 32 0 17.673 14.327 32 32 32h2.272C48.305 386.1 125.9 463.696 224 477.728V480c0 17.673 14.327 32 32 32 17.673 0 32-14.327 32-32v-2.272C386.1 463.695 463.696 386.1 477.728 288H480c17.673 0 32-14.327 32-32 0-17.673-14.327-32-32-32zM324.493 93.81c20.952 8.863 39.78 21.56 55.958 37.74s28.877 35.005 37.74 55.957c4.985 11.79 8.624 23.99 10.915 36.493h-32.673c-1.865-8.2-4.455-16.238-7.767-24.066-7.255-17.153-17.632-32.548-30.84-45.757s-28.605-23.585-45.758-30.84c-7.827-3.31-15.865-5.9-24.066-7.766V82.898c12.503 2.29 24.703 5.928 36.494 10.915zM224 224h-58.53c9.642-27.275 31.255-48.888 58.53-58.53V224zm0 64v58.53c-27.274-9.642-48.888-31.255-58.53-58.53H224zm64 0h58.53c-9.642 27.274-31.255 48.89-58.53 58.53V288zm0-64v-58.53c27.274 9.642 48.89 31.255 58.53 58.53H288zM93.81 187.507c8.863-20.952 21.56-39.78 37.74-55.958s35.005-28.877 55.957-37.74c11.79-4.986 23.99-8.623 36.493-10.914v32.674c-8.2 1.865-16.238 4.456-24.066 7.766-17.153 7.255-32.548 17.632-45.757 30.84s-23.585 28.605-30.84 45.758c-3.31 7.827-5.9 15.865-7.766 24.066H82.898c2.29-12.502 5.928-24.702 10.915-36.493zm93.697 230.682c-20.952-8.863-39.78-21.56-55.958-37.74s-28.877-35.005-37.74-55.957c-4.986-11.79-8.623-23.99-10.914-36.493h32.674c1.865 8.2 4.456 16.238 7.766 24.066 7.255 17.153 17.632 32.548 30.84 45.757s28.605 23.586 45.758 30.84c7.827 3.312 15.865 5.902 24.066 7.768v32.674c-12.502-2.29-24.702-5.928-36.493-10.916zm230.682-93.697c-8.863 20.952-21.56 39.78-37.74 55.958s-35.005 28.877-55.957 37.74c-11.79 4.985-23.99 8.624-36.493 10.915v-32.673c8.2-1.865 16.238-4.455 24.066-7.767 17.153-7.255 32.548-17.632 45.757-30.84s23.586-28.605 30.84-45.758c3.312-7.827 5.902-15.865 7.768-24.066h32.674c-2.29 12.503-5.928 24.703-10.916 36.494z"/></symbol><symbol id="simulation-menu-open" viewBox="0 0 512 512"><path d="M458.233 412.978C491.93 369.628 512 315.158 512 256s-20.07-113.627-53.767-156.977L480 77.255C492.5 64.758 492.5 44.497 480 32c-12.496-12.496-32.757-12.496-45.254 0l-21.768 21.768C369.628 20.07 315.158 0 256 0S142.375 20.07 99.025 53.767L77.256 32C64.76 19.502 44.498 19.502 32 32c-12.495 12.495-12.495 32.757 0 45.254l21.77 21.768C20.07 142.372 0 196.842 0 256s20.07 113.627 53.767 156.977L32 434.745C19.506 447.242 19.506 467.503 32 480c12.497 12.497 32.76 12.497 45.256 0l21.768-21.768C142.374 491.93 196.844 512 256 512s113.628-20.07 156.978-53.767L434.746 480C447.243 492.5 467.504 492.5 480 480c12.498-12.496 12.498-32.757 0-45.254l-21.767-21.768zm-25.295-231.693C442.933 204.915 448 230.053 448 256s-5.067 51.086-15.062 74.716c-5.483 12.963-12.315 25.178-20.42 36.548l-46.248-46.246c11.26-19.056 17.73-41.28 17.73-65.016s-6.47-45.96-17.73-65.016l46.246-46.246c8.106 11.37 14.938 23.584 20.42 36.547zM181.285 79.062C204.915 69.067 230.053 64 256 64s51.086 5.067 74.716 15.062c12.963 5.483 25.178 12.315 36.548 20.42l-46.246 46.247c-19.056-11.26-41.28-17.73-65.016-17.73s-45.96 6.47-65.016 17.73L144.74 99.482c11.37-8.106 23.584-14.938 36.547-20.42zM79.062 330.716C69.067 307.086 64 281.95 64 256s5.067-51.086 15.062-74.716c5.483-12.963 12.315-25.178 20.42-36.547l46.247 46.246C134.47 210.04 128 232.263 128 256s6.47 45.96 17.73 65.015l-46.247 46.247c-8.106-11.37-14.938-23.584-20.42-36.548zm251.654 102.222C307.086 442.933 281.95 448 256 448s-51.086-5.067-74.716-15.062c-12.963-5.483-25.178-12.315-36.547-20.42l46.246-46.248C210.04 377.53 232.263 384 256 384s45.96-6.47 65.015-17.73l46.247 46.246c-11.37 8.106-23.584 14.938-36.548 20.42z"/></symbol><symbol id="simulation-menu" viewBox="0 0 512 512"><path d="M320 256c0 35.346-28.654 64-64 64s-64-28.654-64-64c0-35.346 28.654-64 64-64s64 28.654 64 64z"/><path d="M512 192h-41.276C449.222 119.75 392.25 62.78 320 41.276V0H192v41.276C119.75 62.778 62.78 119.75 41.276 192H0v128h41.276C62.778 392.25 119.75 449.22 192 470.724V512h128v-41.276C392.25 449.222 449.22 392.25 470.724 320H512V192zm-93.81 132.493c-8.863 20.952-21.56 39.78-37.74 55.958s-35.005 28.877-55.957 37.74c-1.49.63-2.99 1.234-4.493 1.82V416H192v4.01c-1.504-.586-3.002-1.19-4.493-1.82-20.952-8.863-39.78-21.56-55.958-37.74s-28.877-35.005-37.74-55.957c-.63-1.49-1.234-2.99-1.822-4.493h4.01V192h-4.01c.588-1.504 1.192-3.002 1.823-4.493 8.863-20.952 21.56-39.78 37.74-55.958s35.005-28.877 55.957-37.74c1.49-.63 2.99-1.234 4.493-1.822v4.01h128v-4.01c1.503.588 3.002 1.192 4.493 1.823 20.952 8.863 39.78 21.56 55.958 37.74s28.877 35.005 37.74 55.957c.63 1.49 1.234 2.99 1.82 4.493H416v128h4.01c-.586 1.503-1.19 3.002-1.82 4.493z"/></symbol><symbol id="sites" viewBox="0 0 512 512"><path d="M256 0C114.615 0 0 114.615 0 256s114.615 256 256 256 256-114.615 256-256S397.385 0 256 0zm147.078 403.078c-19.118 19.118-41.367 34.122-66.13 44.596C311.335 458.507 284.1 464 256 464s-55.336-5.493-80.948-16.326c-24.763-10.474-47.012-25.478-66.13-44.596S74.8 361.71 64.326 336.948C53.493 311.335 48 284.1 48 256s5.493-55.336 16.326-80.948c10.474-24.763 25.478-47.012 44.596-66.13s41.367-34.122 66.13-44.596C200.665 53.493 227.9 48 256 48s55.336 5.493 80.948 16.326c24.763 10.474 47.012 25.478 66.13 44.596s34.122 41.367 44.596 66.13C458.507 200.665 464 227.9 464 256s-5.493 55.336-16.326 80.948c-10.474 24.763-25.478 47.012-44.596 66.13z"/><path d="M145.66 367.447l147.024-75.868 75.87-147.026-147.026 75.87-75.87 147.024zM256 224c17.673 0 32 14.327 32 32s-14.327 32-32 32-32-14.327-32-32 14.327-32 32-32z"/></symbol><symbol id="staging" viewBox="0 0 512 512"><path d="M384 254.7v1.3c0 16.8-3.2 32.8-9.1 47.5L493 352c12.6-30.9 19-63.6 19-97.3v-.7l-128 .7zM323.1 147l68.8-110.2C363.5 18.9 332.5 7 299.6 1.3l-22 128.5c16.4 2.8 31.8 8.7 45.5 17.2zM377.3 215.2l122.2-39.8c-10.3-31.8-26.4-60.9-48-86.6L353 172.5c10.7 12.4 19 26.8 24.3 42.7zM161.8 169.3L66 82.3c-22.4 24.9-39.5 53.5-50.8 84.9l120.9 43.9c5.8-15.5 14.6-29.7 25.7-41.8zM238.5 129.2L220.7 0c-33.1 4.6-64.5 15.5-93.4 32.4l65.2 112.5c13.9-8 29.4-13.4 46-15.7zM256 384c-9.3 0-18.4-1-27.2-2.9l-26.7 125.2c17.7 3.8 35.5 5.9 54.1 5.7 14.8 0 29.8-1.3 44.4-3.9L278.5 382c-7.3 1.3-14.8 2-22.5 2zM316 369.1l59.5 113.2c29.4-15.6 55.2-36.6 76.6-62.2l-97.7-82.3c-10.5 12.7-23.6 23.4-38.4 31.3zM128 256c0-2 .1-4 .1-6l-128-4.6c-.1 3.1-.2 6.2-.2 9.4 0 30.3 5.2 60.1 15.5 88.4l119.9-44.1c-4.7-13.5-7.3-28-7.3-43.1zM154.5 334L53.9 412.7c20.5 26.4 45.5 48.3 74.3 65l63.7-110.9c-14.5-8.4-27.2-19.6-37.4-32.8z"/></symbol><symbol id="star-half" viewBox="0 0 512 512"><path d="M418.07 510.06c-4.09 0-8.21-1.082-11.878-3.3l-150.298-90.167-146.18 86.21c-8.314 4.883-18.82 4.117-26.317-1.98s-10.4-16.208-7.285-25.367l55.537-162.89L10.676 216.33C2.997 210.204.013 199.91 3.26 190.645S15.24 175.15 25.06 175.15h150.113L234.38 16.936C237.734 7.908 246.365 1.942 256 1.942s18.24 5.965 21.644 14.993L336.85 175.15h150.113c9.82 0 18.557 6.204 21.803 15.495 3.246 9.265.264 19.56-7.418 25.683l-120.813 96.08 58.255 163.866c1.663 3.194 2.613 6.81 2.613 10.69 0 12.75-10.32 23.096-23.096 23.096h-.238zM256 366.625c4.118 0 8.236 1.108 11.878 3.3l106.85 64.114-43.263-121.66c-3.3-9.29-.343-19.665 7.39-25.815l81.96-65.197h-99.988c-9.635 0-18.265-5.965-21.618-14.993L256 90.92s-4.065 275.704 0 275.704z"/></symbol><symbol id="star-o" viewBox="0 0 512 512"><path d="M418.07 510.06c-4.09 0-8.21-1.082-11.878-3.3l-150.298-90.167-146.18 86.21c-8.314 4.883-18.82 4.117-26.317-1.98s-10.4-16.208-7.285-25.367l55.537-162.89L10.676 216.33C2.997 210.204.013 199.91 3.26 190.645S15.24 175.15 25.06 175.15h150.113L234.38 16.936C237.734 7.908 246.365 1.942 256 1.942s18.24 5.965 21.644 14.993L336.85 175.15h150.113c9.82 0 18.557 6.204 21.803 15.495 3.246 9.265.264 19.56-7.418 25.683l-120.813 96.08 58.255 163.866c1.663 3.194 2.613 6.81 2.613 10.69 0 12.75-10.32 23.096-23.096 23.096h-.238zM256 366.625c4.118 0 8.236 1.108 11.878 3.3l106.85 64.114-43.263-121.66c-3.3-9.29-.343-19.665 7.39-25.815l81.96-65.197h-99.988c-9.635 0-18.265-5.965-21.618-14.993L256 90.92l-43.21 115.43c-3.378 9.026-12.01 14.992-21.617 14.992H91.186l81.96 65.197c7.628 6.07 10.636 16.285 7.47 25.524l-40.65 119.257 104.315-61.528c3.617-2.112 7.656-3.168 11.72-3.168z"/></symbol><symbol id="star" viewBox="0 0 512 512"><path d="M508.753 190.647c-3.247-9.265-11.983-15.493-21.802-15.493H336.846L277.642 16.946c-3.378-9.027-12.01-14.992-21.644-14.992S237.734 7.92 234.38 16.946L175.18 175.154H25.048c-9.82 0-18.556 6.202-21.803 15.493-3.247 9.265-.264 19.558 7.417 25.682l120.966 96.233-55.534 162.88c-3.114 9.132-.212 19.268 7.285 25.365 7.47 6.097 17.974 6.89 26.315 1.98l146.173-86.205 150.317 90.163c3.668 2.217 7.786 3.3 11.877 3.3h.132c12.722-.423 23.2-10.32 23.2-23.096 0-3.853-.924-7.496-2.613-10.69l-58.25-163.83 120.806-96.103c7.68-6.097 10.663-16.417 7.417-25.682z"/></symbol><symbol id="strikethrough" viewBox="0 0 512 512"><path d="M512 224H337.19c-10.058-3.474-20.7-6.363-32.11-8.52l-68.463-13.13c-17.957-3.73-31.342-10.533-40.12-20.48-8.74-9.91-13.128-21.577-13.128-34.962 0-8.338 1.864-16.165 5.52-23.552 3.73-7.387 8.888-13.97 15.58-19.75 6.656-5.814 14.738-10.422 24.21-13.86 9.435-3.51 19.93-5.193 31.45-5.193 15.654 0 28.93 2.304 39.718 6.95 10.862 4.57 19.75 10.385 26.624 17.297 6.912 6.95 12.142 14.446 15.58 22.49s5.85 15.617 7.24 22.492l85.76-26.33c-2.743-13.825-7.973-28.234-15.58-43.302-7.606-14.994-18.285-28.71-32.145-41.216-13.824-12.47-31.232-22.71-52.224-30.793C314.148 4.06 288.95 0 259.473 0c-23.077 0-44.946 3.95-65.72 11.775-20.698 7.9-38.948 18.725-54.637 32.585-15.653 13.86-27.977 30.098-36.974 48.823s-13.495 38.912-13.495 60.6c0 26.842 6.254 50.138 18.213 70.18H-.002v64H192.91c7.79 2.486 15.8 4.753 24.358 6.472l68.424 13.86c19.42 3.658 34.158 10.716 44.288 21.103 10.13 10.423 15.177 22.784 15.177 37.083 0 17.52-6.802 31.964-20.37 43.302-13.605 11.337-33.317 16.97-59.136 16.97-17.517 0-32.73-2.524-45.64-7.608-12.873-5.083-23.735-11.886-32.475-20.48-8.777-8.52-15.58-18.322-20.407-29.44s-7.717-22.6-8.594-34.633l-88.502 23.516c1.792 17.59 6.912 35.474 15.177 53.723 8.264 18.212 20.37 34.742 36.278 49.517 15.91 14.81 35.62 26.953 59.136 36.352 23.515 9.544 51.602 14.298 84.333 14.298 28.6 0 53.797-4.39 75.666-13.13 21.906-8.776 40.338-20.186 55.296-34.266 15.03-14.08 26.404-30.28 34.266-48.53 7.826-18.213 11.776-36.827 11.776-55.77 0-17.08-3.035-33.5-8.997-49.153-3.11-8.12-6.985-15.8-11.557-23.114h90.587V224z"/></symbol><symbol id="subscript" viewBox="0 0 512 512"><path d="M416 0H0v96h160v416h96V96h160V0zM512 352H352v32h65.254l-.32 128H448l-.32-128H512v-32z"/></symbol><symbol id="suitcase" viewBox="0 0 512 512"><path d="M419.09 96H384V64c0-35.346-28.654-64-64-64H192c-35.346 0-64 28.654-64 64v32H92.91C41.597 96 0 137.597 0 188.91v230.18C0 470.4 41.597 512 92.91 512h326.18c51.313 0 92.91-41.597 92.91-92.91V188.91C512 137.6 470.403 96 419.09 96zM192 64h128v32H192V64zm256 355.09c0 15.94-12.97 28.91-28.91 28.91H92.91C76.97 448 64 435.03 64 419.09V188.91C64 172.97 76.97 160 92.91 160h326.18c15.94 0 28.91 12.97 28.91 28.91v230.18z"/></symbol><symbol id="sun" viewBox="0 0 512 512"><path d="M256 128c-70.692 0-128 57.308-128 128s57.308 128 128 128 128-57.308 128-128-57.308-128-128-128zm45.255 173.255C289.167 313.343 273.095 320 256 320s-33.167-6.657-45.255-18.745C198.657 289.167 192 273.095 192 256s6.657-33.167 18.745-45.255C222.833 198.657 238.905 192 256 192s33.167 6.657 45.255 18.745C313.343 222.833 320 238.905 320 256s-6.657 33.167-18.745 45.255zM480 224h-32c-17.673 0-32 14.327-32 32 0 17.673 14.327 32 32 32h32c17.673 0 32-14.327 32-32 0-17.673-14.327-32-32-32zM96 256c0-17.673-14.327-32-32-32H32c-17.673 0-32 14.327-32 32 0 17.673 14.327 32 32 32h32c17.673 0 32-14.327 32-32zM256 416c-17.673 0-32 14.327-32 32v32c0 17.673 14.327 32 32 32 17.673 0 32-14.327 32-32v-32c0-17.673-14.327-32-32-32zM256 96c17.673 0 32-14.327 32-32V32c0-17.673-14.327-32-32-32-17.673 0-32 14.327-32 32v32c0 17.673 14.327 32 32 32zM414.392 369.137c-12.497-12.497-32.758-12.497-45.255 0s-12.497 32.758 0 45.255l22.627 22.627c12.497 12.496 32.758 12.496 45.255 0 12.496-12.498 12.496-32.76 0-45.256l-22.628-22.627zM97.608 142.863c12.497 12.496 32.758 12.496 45.255 0 12.496-12.496 12.496-32.758 0-45.255L120.236 74.98c-12.497-12.495-32.758-12.495-45.255 0-12.495 12.498-12.495 32.76 0 45.256l22.628 22.627zM142.863 369.137c-12.496-12.497-32.758-12.497-45.255 0L74.98 391.764c-12.495 12.497-12.495 32.758 0 45.255 12.498 12.496 32.76 12.496 45.256 0l22.627-22.628c12.496-12.497 12.496-32.758 0-45.255zM369.137 142.863c12.497 12.496 32.758 12.496 45.255 0l22.627-22.627c12.496-12.497 12.496-32.758 0-45.255-12.498-12.495-32.76-12.495-45.256 0L369.137 97.61c-12.497 12.497-12.497 32.758 0 45.255z"/></symbol><symbol id="superscript" viewBox="0 0 512 512"><path d="M0 96h128v384h96V96h128V0H0l.002 96zM512 0h-96v32h32.26l-.26 96h32.26L480 32h32V0z"/></symbol><symbol id="table" viewBox="0 0 512 512"><path d="M455.11 0H56.89C25.52 0 0 25.52 0 56.89v398.22C0 486.48 25.52 512 56.89 512h398.22c31.37 0 56.89-25.52 56.89-56.89V56.89C512 25.52 486.48 0 455.11 0zM224 448H64V288h160v160zm0-224H64V64h160v160zm224 224H288V288h160v160zm0-224H288V64h160v160z"/></symbol><symbol id="table2" viewBox="0 0 512 512"><path d="M455.11 0H56.89C25.52 0 0 25.52 0 56.89v398.22C0 486.48 25.52 512 56.89 512h398.22c31.37 0 56.89-25.52 56.89-56.89V56.89C512 25.52 486.48 0 455.11 0zM160 448H64v-96h96v96zm0-160H64v-64h96v64zm0-128H64V64h96v96zm128 288h-64v-96h64v96zm0-160h-64v-64h64v64zm0-128h-64V64h64v96zm160 288h-96v-96h96v96zm0-160h-96v-64h96v64zm0-128h-96V64h96v96z"/></symbol><symbol id="thumbs-down" viewBox="0 0 512 512"><path d="M352.543 64L384 82.166v188.907h-.03l-14.71 7.356c-4.71 2.367-8.554 6.184-10.895 10.893l-89.606 179.21c-4.398 3.64-8.434 4.946-11.98 4.946-7.01 0-12.112-5.104-14.35-7.342-7.19-10.058 4.624-70.102 39.815-140.983 3.762-7.55 3.344-16.522-1.115-23.683s-12.288-11.536-20.73-11.536H91.97c-1.28-.11-10.336-.947-18.61-5.517-9.67-5.378-13.988-13.514-13.988-26.443s4.32-21.092 13.987-26.44c8.97-4.988 18.89-5.546 19-5.546 13.013-.417 23.182-10.95 23.378-23.96 0-.335.864-37.894 14.014-74.17C145.3 84.896 169.622 64 204.09 64h148.452zm8.577-32H204.092c-25.02 0-46.93 7.922-65.115 23.546-8.582 7.372-16.328 16.537-23.023 27.24-6.168 9.858-11.648 21.36-16.29 34.186-11.506 31.742-14.715 63.81-15.596 77.79-1.48.23-2.998.507-4.49.822-7.893 1.666-15.197 4.34-21.708 7.953-13.912 7.697-30.494 23.39-30.494 54.44 0 30.98 16.55 46.686 30.433 54.408l.085.048c12.935 7.142 26.212 8.942 31.32 9.384l1.378.12H248.26c-14.315 30.374-25.84 61.436-32.806 88.56-3.612 14.062-5.86 26.446-6.68 36.807-.487 6.123-.47 11.432.047 16.23.91 8.41 3.387 15.347 7.578 21.21l1.537 2.15 1.87 1.87c1.757 1.758 5.413 5.414 10.773 8.842 8.053 5.15 17.115 7.873 26.207 7.873 7.996 0 20.104-2.133 32.38-12.294l5.2-4.303 91.487-182.97 5.955-2.98 24.197-.445V63.693L361.124 32zM480.004 288c-17.67 0-31.996-14.325-31.996-31.996V63.996c0-17.67 14.325-31.996 31.996-31.996C497.674 32 512 46.325 512 63.996v192.008c0 17.67-14.325 31.996-31.996 31.996z"/></symbol><symbol id="thumbs-up" viewBox="0 0 512 512"><path d="M159.457 448L128 429.834V240.927h.03l14.71-7.356c4.71-2.368 8.554-6.184 10.895-10.893l89.606-179.21c4.4-3.64 8.434-4.946 11.978-4.946 7.012 0 12.114 5.103 14.352 7.343 7.188 10.058-4.625 70.102-39.816 140.983-3.762 7.55-3.344 16.523 1.114 23.684s12.287 11.536 20.73 11.536h168.43c1.28.11 10.336.947 18.612 5.517 9.668 5.377 13.987 13.513 13.987 26.44s-4.32 21.093-13.987 26.442c-8.97 4.987-18.89 5.545-19.002 5.545-13.012.418-23.18 10.95-23.377 23.962 0 .334-.863 37.893-14.013 74.17C366.7 427.104 342.377 448 307.91 448H159.458zm-8.577 32h157.028c25.02 0 46.928-7.922 65.115-23.546 8.582-7.372 16.327-16.537 23.023-27.24 6.168-9.858 11.648-21.36 16.29-34.186 11.506-31.743 14.715-63.808 15.596-77.79 1.48-.23 2.998-.507 4.49-.822 7.894-1.666 15.197-4.34 21.71-7.954 13.91-7.697 30.494-23.39 30.494-54.44 0-30.98-16.55-46.686-30.433-54.408l-.086-.048c-12.935-7.142-26.213-8.942-31.32-9.384l-1.378-.12H263.74c14.314-30.374 25.84-61.436 32.805-88.558 3.61-14.063 5.86-26.447 6.68-36.808.487-6.123.47-11.432-.047-16.23-.908-8.41-3.386-15.347-7.577-21.21l-1.538-2.15-1.87-1.87c-1.757-1.76-5.413-5.414-10.772-8.842-8.053-5.15-17.115-7.872-26.207-7.872-7.996 0-20.105 2.132-32.38 12.293l-5.2 4.303-91.487 182.97-5.956 2.977-24.196.446v238.796L150.878 480zM31.996 224c17.67 0 31.996 14.325 31.996 31.996v192.008c0 17.67-14.325 31.996-31.996 31.996C14.326 480 0 465.675 0 448.004V255.996C0 238.326 14.325 224 31.996 224z"/></symbol><symbol id="time" viewBox="0 0 512 512"><path d="M437 75C388.7 26.6 324.4 0 256 0S123.3 26.6 75 75C26.6 123.3 0 187.6 0 256s26.6 132.7 75 181c48.4 48.4 112.6 75 181 75s132.7-26.6 181-75c48.4-48.4 75-112.6 75-181s-26.6-132.7-75-181zM256 448c-105.9 0-192-86.1-192-192S150.1 64 256 64s192 86.1 192 192-86.1 192-192 192z"/><path d="M180.7 347.3c3.1 3.1 7.2 4.7 11.3 4.7s8.2-1.6 11.3-4.7l48-48c6.3 3 13.3 4.7 20.7 4.7 26.5 0 48-21.5 48-48 0-20.9-13.4-38.7-32-45.3V112c0-8.8-7.2-16-16-16s-16 7.2-16 16v98.7c-18.6 6.6-32 24.4-32 45.3 0 7.4 1.7 14.4 4.7 20.7l-48 48c-6.3 6.2-6.3 16.4 0 22.6z"/></symbol><symbol id="times-circle" viewBox="0 0 512 512"><path d="M256 0C114.847 0 0 114.847 0 256s114.847 256 256 256 256-114.847 256-256S397.153 0 256 0zm146.99 402.99c-19.143 19.144-41.405 34.17-66.167 44.663C311.223 458.5 284.03 464 256 464s-55.22-5.5-80.82-16.347c-24.764-10.493-47.026-25.52-66.17-44.662s-34.17-41.405-44.662-66.167C53.5 311.223 48 284.03 48 256s5.5-55.22 16.348-80.82c10.493-24.764 25.52-47.026 44.662-66.17s41.406-34.17 66.17-44.662C200.78 53.5 227.97 48 256 48s55.223 5.5 80.823 16.348c24.763 10.493 47.026 25.52 66.168 44.662s34.17 41.406 44.663 66.17C458.5 200.78 464 227.97 464 256s-5.5 55.223-16.347 80.823c-10.493 24.763-25.52 47.026-44.662 66.168z"/><path d="M301.474 255.47l67.882-67.882c12.497-12.496 12.497-32.758 0-45.255-12.497-12.496-32.758-12.496-45.255 0l-67.88 67.882-67.883-67.882c-12.496-12.496-32.758-12.496-45.255 0-12.496 12.496-12.496 32.758 0 45.255l67.882 67.882-67.882 67.882c-12.496 12.497-12.496 32.758 0 45.255s32.758 12.497 45.255 0l67.882-67.882 68.942 68.943c12.497 12.497 32.758 12.497 45.255 0s12.497-32.758 0-45.255l-68.943-68.943z"/></symbol><symbol id="times" viewBox="0 0 512 512"><path d="M295.78 256L500.987 50.795c10.998-10.998 10.998-28.814 0-39.78-10.998-11-28.815-11-39.78 0L256 216.218 50.795 10.98C39.83-.016 21.98-.016 11.015 10.98c-11 11-11 28.815 0 39.782L216.218 256 11.013 461.205c-10.998 10.998-10.998 28.815 0 39.78 5.467 5.532 12.67 8.266 19.874 8.266s14.407-2.733 19.907-8.232L256 295.78l205.205 205.205c5.5 5.5 12.703 8.233 19.906 8.233s14.408-2.734 19.907-8.233c10.998-10.998 10.998-28.815 0-39.78L295.78 255.998z"/></symbol><symbol id="transform" viewBox="0 0 512 512"><path d="M352 96H160V0H96v352c0 35.3 28.7 64 64 64h192v96h64V160c0-35.3-28.7-64-64-64zM160 352V160h192v192H160zM448 352h64v64h-64zM0 96h64v64H0z"/></symbol><symbol id="trash" viewBox="0 0 512 512"><path d="M303.63 0h-63.26c-26.29 0-47.628 5.71-47.628 32H96v63.258h352V32h-96.74c0-26.29-21.34-32-47.63-32zM272 416c8.837 0 16-7.163 16-16V240c0-8.837-7.163-16-16-16s-16 7.163-16 16v160c0 8.837 7.163 16 16 16zM336 416c8.837 0 16-7.163 16-16V240c0-8.837-7.163-16-16-16s-16 7.163-16 16v160c0 8.837 7.163 16 16 16z"/><path d="M96 128v312.557C96 479.967 128.035 512 167.444 512h209.113c39.41 0 71.443-32.034 71.443-71.443V128H96zm64 64h224v232.185C384 437.303 373.303 448 360.185 448h-176.37C170.67 448 160 437.303 160 424.185V192z"/><path d="M208 416c8.837 0 16-7.163 16-16V240c0-8.837-7.163-16-16-16s-16 7.163-16 16v160c0 8.837 7.163 16 16 16z"/></symbol><symbol id="twitter" viewBox="0 0 512 512"><path d="M512.015 97.213c-18.842 8.368-39.09 14.015-60.332 16.53 21.68-12.99 38.358-33.588 46.2-58.107-20.306 12.026-42.776 20.774-66.71 25.485C412.01 60.7 384.71 47.943 354.485 47.943c-58.02 0-105.04 47.048-105.04 105.04 0 8.22.937 16.237 2.722 23.933-87.308-4.39-164.698-46.2-216.516-109.75-9.04 15.51-14.22 33.56-14.22 52.813 0 36.457 18.55 68.612 46.728 87.425-17.234-.556-33.414-5.267-47.575-13.137v1.317c0 50.91 36.222 93.336 84.266 102.99-8.808 2.4-18.083 3.687-27.68 3.687-6.76 0-13.343-.673-19.78-1.9 13.372 41.722 52.17 72.122 98.136 72.94-35.96 28.177-81.252 44.972-130.465 44.972-8.485 0-16.852-.498-25.045-1.464 46.493 29.815 101.704 47.195 161.04 47.195 193.227 0 298.88-160.075 298.88-298.88 0-4.564-.117-9.07-.293-13.575 20.48-14.776 38.3-33.267 52.374-54.334z"/></symbol><symbol id="underline" viewBox="0 0 512 512"><path d="M96.695 448H416v64H96.695v-64zM255.724 416c87.848 0 159.724-71.875 159.724-159.724V0h-96v256c0 35.346-28.654 64-64 64-35.346 0-64-28.654-64-64V0H96v256.276C96 344.124 167.877 416 255.726 416z"/></symbol><symbol id="unlock" viewBox="0 0 512 512"><path d="M223.714 352h64v64h-64v-64zM384 256h.002z"/><path d="M384 256H179.2V128c0-42.364 34.436-76.8 76.8-76.8s76.8 34.436 76.8 76.8v28.79c0 14.13 11.47 25.6 25.6 25.6s25.6-11.47 25.6-25.6V128C384 57.432 326.568 0 256 0S128 57.432 128 128v128c-28.233 0-51.2 22.967-51.2 51.2v153.6c0 28.233 22.967 51.2 51.2 51.2h256c28.233 0 51.2-22.967 51.2-51.2V307.2c0-28.233-22.967-51.2-51.2-51.2zM128 448V320h256l.03 128H128z"/></symbol><symbol id="user" viewBox="0 0 512 512"><path d="M342.455 221.77C367.82 198.363 384 165.155 384 128 384 57.432 326.568 0 256 0S128 57.432 128 128c0 37.157 16.18 70.363 41.545 93.77C85.255 256.057 25.6 338.71 25.6 435.2v51.2c0 14.13 11.47 25.6 25.6 25.6s25.6-11.47 25.6-25.6v-51.2C76.8 336.4 157.198 256 256 256s179.2 80.4 179.2 179.2v51.2c0 14.13 11.47 25.6 25.6 25.6s25.6-11.47 25.6-25.6v-51.2c0-96.46-59.655-179.142-143.945-213.43zM179.2 128c0-42.364 34.436-76.8 76.8-76.8s76.8 34.436 76.8 76.8-34.436 76.8-76.8 76.8-76.8-34.436-76.8-76.8z"/></symbol><symbol id="users" viewBox="0 0 512 512"><path d="M396.84 268.312c20.292-18.726 33.237-45.292 33.237-75.02 0-56.456-45.947-102.403-102.404-102.403S225.27 136.836 225.27 193.292c0 29.727 12.943 56.293 33.237 75.02-67.435 27.432-115.16 93.556-115.16 170.752v40.962c0 11.305 9.174 20.48 20.48 20.48s20.48-9.174 20.48-20.48v-40.962c0-79.045 64.323-143.367 143.367-143.367S471.04 360.02 471.04 439.064v40.962c0 11.305 9.175 20.48 20.48 20.48s20.482-9.174 20.482-20.48v-40.962c0-77.196-47.704-143.343-115.16-170.753zM266.25 193.27c0-33.893 27.55-61.443 61.443-61.443 33.87 0 61.443 27.55 61.443 61.443s-27.55 61.443-61.443 61.443-61.443-27.55-61.443-61.443zM148.47 165.112c42.343 0 76.798-34.454 76.798-76.798s-34.454-76.798-76.798-76.798S71.672 45.97 71.672 88.314c0 18.163 6.6 34.642 17.18 47.797C36.61 159.144 0 211.34 0 271.988v31.997c0 11.305 9.175 20.48 20.48 20.48s20.482-9.174 20.482-20.48v-31.997c0-58.213 46.556-105.494 104.37-107.203 1.055.047 2.06.327 3.138.327zm-35.837-76.798c0-19.755 16.08-35.836 35.836-35.836s35.835 16.08 35.835 35.836c0 19.03-14.957 34.5-33.73 35.626-.725-.07-1.356-.42-2.106-.42-1.43 0-2.81.163-4.215.21-17.743-2.107-31.623-17.088-31.623-35.416z"/></symbol><symbol id="vertical-scroll" viewBox="0 0 512 512"><path d="M333.1 365.1c-8.9 0-17.9 3.4-24.7 10.2L288 395.8V116.2l20.4 20.4c13.6 13.6 35.7 13.6 49.3 0 13.6-13.6 13.6-35.7 0-49.3l-77.1-77.1C274.1 3.7 265.3 0 256 0s-18.1 3.7-24.7 10.2l-77.1 77.1c-13.6 13.6-13.6 35.7 0 49.3 6.8 6.8 15.7 10.2 24.7 10.2 8.9 0 17.9-3.4 24.7-10.2l20.4-20.4v279.5l-20.4-20.4c-13.6-13.6-35.7-13.6-49.3 0-13.6 13.6-13.6 35.7 0 49.3l77.1 77.1c.8.8 1.7 1.6 2.5 2.3 5.7 5.5 13.5 8.9 22.1 8.9 8.6 0 16.4-3.4 22.1-8.9.9-.7 1.7-1.5 2.5-2.3l77.1-77.1c13.6-13.6 13.6-35.7 0-49.3-6.7-6.8-15.7-10.2-24.6-10.2z"/></symbol><symbol id="view" viewBox="0 0 512 512"><path d="M499.7 228.2C412.4 101.9 291 96 260.4 96h-14.8C210 96 81.3 106.5 3.2 244.5c-9.1 16.1 3.3 30.7 9.2 39.3C99.8 410.1 222.6 416 253.6 416h14.9c35.2 0 162.2-10.5 240.2-148.5 9.1-16.1-3-30.7-9-39.3zm-246.6 85.3c-28.2 0-51-22.8-51-51s22.8-51 51-51 51 22.8 51 51-22.8 51-51 51zM56 256.6c26.8-42.1 62-72.7 104.9-91 6.6-2.8 13.1-5.2 19.4-7.3-32.8 23-54.3 61.1-54.3 104.2 0 29.7 10.2 57 27.3 78.7-32.6-15.8-67.3-41.9-97.3-84.6zm290 92.7c21.2-22.7 34.3-53.2 34.3-86.8 0-44.2-22.6-83.2-56.9-106 40.9 12.1 91.1 39.2 133 98.9-33.1 52.2-74.3 79.6-110.4 93.9z"/></symbol></svg>