<?xml version="1.0" encoding="utf-8"?>
<!-- Generated by IcoMoon.io -->
<!DOCTYPE svg PUBLIC "-//W3C//DTD SVG 1.1//EN" "http://www.w3.org/Graphics/SVG/1.1/DTD/svg11.dtd">
<svg version="1.1" xmlns="http://www.w3.org/2000/svg" xmlns:xlink="http://www.w3.org/1999/xlink" width="512" height="512" viewBox="0 0 512 512"><g id="icomoon-ignore">
</g>
<path d="M61.594 96.131h-11.565v-68.801c0-2.41-0.413-4.13-1.205-5.163s-2.169-1.549-4.096-1.549c-0.62 0-1.41 0.104-2.34 0.276-0.964 0.206-2.169 0.482-3.648 0.86l-17.691 4.75c-2.478 0.585-4.302 1.445-5.506 2.582s-1.79 2.478-1.79 4.096c0 2.237 0.55 3.959 1.618 5.163s2.582 1.824 4.543 1.824c0.378 0 0.963-0.069 1.79-0.206 0.791-0.138 1.824-0.344 3.064-0.62l7.985-2.031v58.821h-13.285c-3.236 0-5.541 0.585-6.952 1.755s-2.1 3.064-2.1 5.713c0 2.615 0.688 4.474 2.065 5.645s3.717 1.755 6.987 1.755h42.093c3.269 0 5.61-0.585 6.987-1.755s2.065-3.028 2.065-5.645c0-2.65-0.723-4.543-2.133-5.713s-3.718-1.755-6.883-1.755l-0.002-0.001z"></path>
<path d="M64.523 266.729c-2.374 0-4.2 0.55-5.404 1.583-1.205 1.067-1.824 2.685-1.824 4.853v0.378h-23.266l20.134-16.761c5.369-4.474 9.292-8.983 11.84-13.457s3.82-9.19 3.82-14.111c0-7.332-2.444-13.182-7.331-17.553-4.887-4.337-11.529-6.54-19.893-6.54-4.474 0-8.639 0.55-12.459 1.583-3.82 1.067-7.468 2.719-10.91 4.922-2.134 1.411-3.545 2.822-4.233 4.233s-1.067 3.545-1.067 6.401c0 2.787 0.55 4.853 1.687 6.264s2.787 2.1 5.025 2.1c2.581 0 4.922-1.651 7.056-4.99 0.758-1.239 1.41-2.168 1.927-2.754 0.963-1.204 2.34-2.133 4.165-2.787 1.79-0.654 3.855-0.999 6.127-0.999 3.923 0 6.883 0.929 8.81 2.822s2.891 4.75 2.891 8.57c0 2.719-0.723 5.472-2.169 8.191s-3.614 5.472-6.54 8.191l-27.018 25.16c-1.893 1.755-3.305 3.408-4.165 4.956-0.895 1.618-1.342 3.2-1.342 4.853 0 1.962 0.688 3.476 2.1 4.543s3.373 1.618 5.954 1.618h47.738c1.41 0 2.409-0.241 2.96-0.757s0.86-1.755 0.963-3.717l0.516-9.913v-0.827c0-1.928-0.516-3.408-1.583-4.44-1.067-1.101-2.582-1.618-4.509-1.618h0.002z"></path>
<path d="M55.054 441.956c4.612-2.099 8.019-4.647 10.187-7.709s3.269-6.815 3.269-11.255c0-6.746-2.374-12.183-7.124-16.245s-11.083-6.127-19.068-6.127c-7.916 0-14.593 1.377-19.997 4.13s-8.088 6.058-8.088 9.913c0 1.755 0.55 3.236 1.618 4.372s2.513 1.721 4.302 1.721c1.618 0 4.509-1.067 8.708-3.167s8.019-3.167 11.392-3.167c3.2 0 5.678 0.895 7.434 2.685s2.65 4.302 2.65 7.503c0 3.717-0.723 6.401-2.203 8.054s-4.681 2.822-9.602 3.51c-0.276 0.035-0.688 0.103-1.239 0.137-3.923 0.55-5.919 2.615-5.919 6.264 0 2.615 0.482 4.44 1.48 5.473s2.926 1.583 5.817 1.651c5.507 0.241 9.224 1.308 11.151 3.269 1.962 1.962 2.926 5.197 2.926 9.774 0 4.268-1.17 7.538-3.477 9.809-2.306 2.305-5.61 3.442-9.913 3.442-3.579 0-7.709-1.033-12.356-3.063-4.681-2.031-7.572-3.063-8.708-3.063-2.374 0-4.302 0.688-5.747 2.065-1.411 1.514-2.133 3.305-2.133 5.507 0 3.752 2.615 6.952 7.882 9.602 5.265 2.615 11.909 3.959 19.997 3.959 9.981 0 17.864-2.478 23.645-7.434s8.674-11.668 8.674-20.169c0-5.61-1.273-10.188-3.855-13.698-2.513-3.545-6.437-6.092-11.702-7.745l-0.002 0.002z"></path>
<path d="M448.5 480h-288c-17.6 0-32-14.4-32-32v0c0-17.6 14.4-32 32-32h288c17.6 0 32 14.4 32 32v0c0 17.6-14.4 32-32 32z"></path>
<path d="M448.5 288.002h-288c-17.6 0-32-14.4-32-32v0c0-17.6 14.4-32 32-32h288c17.6 0 32 14.4 32 32v0c0 17.6-14.4 32-32 32z"></path>
<path d="M448.5 96h-288c-17.6 0-32-14.4-32-32v0c0-17.6 14.4-32 32-32h288c17.6 0 32 14.4 32 32v0c0 17.6-14.4 32-32 32z"></path>
</svg>
