<?xml version="1.0" encoding="utf-8"?>
<!-- Generator: Adobe Illustrator 19.0.0, SVG Export Plug-In . SVG Version: 6.00 Build 0)  -->
<svg version="1.1" id="mobile-vertical" xmlns="http://www.w3.org/2000/svg" xmlns:xlink="http://www.w3.org/1999/xlink" x="0px"
	 y="0px" viewBox="0 0 288 384" enable-background="new 0 0 288 384" xml:space="preserve">
<path d="M288,320V64c0-35.2-28.8-64-64-64L64,0C28.8,0,0,28.8,0,64l0,256c0,35.2,28.8,64,64,64h160C259.2,384,288,355.2,288,320z
	 M64,286.8041V64h160v222.8041H64z M128,336c0-8.8365,7.1635-16,16-16s16,7.1635,16,16s-7.1635,16-16,16S128,344.8365,128,336z"/>
</svg>
