<?xml version="1.0" encoding="utf-8"?>
<!-- Generator: Adobe Illustrator 19.0.0, SVG Export Plug-In . SVG Version: 6.00 Build 0)  -->
<svg version="1.1" id="print" xmlns="http://www.w3.org/2000/svg" xmlns:xlink="http://www.w3.org/1999/xlink" x="0px" y="0px"
	 width="512px" height="512px" viewBox="0 0 512 512" enable-background="new 0 0 512 512" xml:space="preserve">
<path fill="none" d="M129.6,288.3h253.9c18.2,0,33,14.8,33,33v31.1H448c0,0,0,0,0,0l0-192.3H64v192.3h32.6v-31.1
	C96.6,303.1,111.4,288.3,129.6,288.3z"/>
<g>
	<path d="M448,96h-63.5V33c0-18.2-14.8-33-33-33H161.4c-18.2,0-33,14.8-33,33v63H64c-35.3,0-64,27.7-64,63v193.3
		c0,35.3,28.7,64,64,64h32.6v64.3c0,18.2,14.8,33,33,33h254.9c18.2,0,32-14.8,32-33v-64.3H448c35.3,0,64-28.7,64-64V159
		C512,123.7,483.3,96,448,96z M192.4,64h128.1v32.4H192.4V64z M351.6,447.6H160.6v-95.3h190.9L351.6,447.6z M448,352.3h-31.4v-31.1
		c0-18.2-14.8-33-33-33H129.6c-18.2,0-33,14.8-33,33v31.1H64V160h384V352.3C448,352.3,448,352.3,448,352.3z"/>
	<circle cx="112" cy="208.3" r="16"/>
	<circle cx="176.3" cy="208" r="15.7"/>
</g>
</svg>
