<?xml version="1.0" encoding="utf-8"?>
<!-- Generator: Adobe Illustrator 19.0.0, SVG Export Plug-In . SVG Version: 6.00 Build 0)  -->
<svg version="1.1" id="share" xmlns="http://www.w3.org/2000/svg" xmlns:xlink="http://www.w3.org/1999/xlink" x="0px" y="0px"
	 viewBox="0 0 448 448" enable-background="new 0 0 448 448" xml:space="preserve">
<path class="lexicon-icon-outline" d="M352,256c-25.8381,0-49.3213,10.2641-66.5961,26.9246l-94.1361-47.0682C191.7487,231.9703,192,228.014,192,224
	c0-4.0142-0.2514-7.9706-0.7322-11.8568l94.1359-47.0681C302.6784,181.7358,326.1617,192,352,192c52.9346,0,96-43.0654,96-96
	S404.9346,0,352,0s-96,43.0654-96,96c0,4.0143,0.2514,7.9707,0.7322,11.857l-94.136,47.0678C145.3215,138.2642,121.8382,128,96,128
	c-52.9346,0-96,43.0654-96,96s43.0654,96,96,96c25.838,0,49.3212-10.264,66.5959-26.9245l94.1362,47.068
	C256.2513,344.0297,256,347.9859,256,352c0,52.9346,43.0654,96,96,96s96-43.0654,96-96S404.9346,256,352,256z M352,64
	c17.6445,0,32,14.355,32,32s-14.3555,32-32,32s-32-14.355-32-32S334.3555,64,352,64z M96,256c-17.645,0-32-14.3555-32-32
	c0-17.645,14.355-32,32-32s32,14.355,32,32C128,241.6445,113.645,256,96,256z M352,384c-17.6445,0-32-14.3555-32-32
	s14.3555-32,32-32s32,14.3555,32,32S369.6445,384,352,384z"/>
</svg>
