<?xml version="1.0" encoding="utf-8"?>
<!-- Generated by IcoMoon.io -->
<!DOCTYPE svg PUBLIC "-//W3C//DTD SVG 1.1//EN" "http://www.w3.org/Graphics/SVG/1.1/DTD/svg11.dtd">
<svg version="1.1" xmlns="http://www.w3.org/2000/svg" xmlns:xlink="http://www.w3.org/1999/xlink" width="512" height="512" viewBox="0 0 512 512"><g id="icomoon-ignore">
</g>
<path d="M418.070 510.060c-4.091 0-8.209-1.082-11.878-3.299l-150.298-90.168-146.18 86.209c-8.314 4.884-18.82 4.118-26.317-1.98s-10.4-16.207-7.285-25.366l55.537-162.889-120.972-96.239c-7.681-6.124-10.664-16.418-7.418-25.683s11.983-15.494 21.803-15.494h150.113l59.206-158.216c3.352-9.027 11.983-14.993 21.618-14.993s18.24 5.965 21.645 14.993l59.206 158.216h150.113c9.82 0 18.557 6.203 21.803 15.494 3.246 9.265 0.264 19.559-7.418 25.683l-120.813 96.081 58.255 163.865c1.663 3.194 2.613 6.81 2.613 10.69 0 12.749-10.32 23.096-23.096 23.096-0.079 0-0.158 0-0.238 0zM256 366.625c4.118 0 8.236 1.108 11.878 3.299l106.85 64.115-43.263-121.659c-3.299-9.291-0.343-19.665 7.391-25.815l81.959-65.197h-99.988c-9.635 0-18.265-5.965-21.618-14.993l-43.209-115.455-43.209 115.429c-3.379 9.027-12.010 14.993-21.618 14.993h-99.987l81.959 65.197c7.629 6.070 10.637 16.286 7.47 25.525l-40.65 119.257 104.316-61.529c3.616-2.112 7.655-3.168 11.72-3.168z"></path>
</svg>
