<?xml version="1.0" encoding="utf-8"?>
<!-- Generated by IcoMoon.io -->
<!DOCTYPE svg PUBLIC "-//W3C//DTD SVG 1.1//EN" "http://www.w3.org/Graphics/SVG/1.1/DTD/svg11.dtd">
<svg version="1.1" xmlns="http://www.w3.org/2000/svg" xmlns:xlink="http://www.w3.org/1999/xlink" width="512" height="512" viewBox="0 0 512 512"><g id="icomoon-ignore">
</g>
<path d="M419.090 96h-35.090v-32c0-35.346-28.654-64-64-64h-128c-35.346 0-64 28.654-64 64v32h-35.090c-51.313 0-92.91 41.597-92.91 92.91v230.179c0 51.313 41.597 92.911 92.91 92.911h326.18c51.313 0 92.91-41.597 92.91-92.91v-230.179c0-51.313-41.597-92.91-92.91-92.91zM192 64h128v32h-128v-32zM448 419.090c0 15.941-12.969 28.91-28.91 28.91h-326.18c-15.941 0-28.91-12.969-28.91-28.91v-230.179c0-15.941 12.969-28.91 28.91-28.91h326.18c15.941 0 28.91 12.969 28.91 28.91v230.179z"></path>
</svg>
