<?xml version="1.0" encoding="utf-8"?>
<!-- Generator: Adobe Illustrator 19.0.0, SVG Export Plug-In . SVG Version: 6.00 Build 0)  -->
<svg version="1.1" id="tablet-landscape" xmlns="http://www.w3.org/2000/svg" xmlns:xlink="http://www.w3.org/1999/xlink" x="0px"
	 y="0px" viewBox="0 0 416 352" enable-background="new 0 0 416 352" xml:space="preserve">
<path d="M0,64l0,224c0,35.2,28.8,64,64,64h288c35.2,0,64-28.8,64-64V64c0-35.2-28.8-64-64-64L64,0C28.8,0,0,28.8,0,64z M384,176
	c0,8.8365-7.1635,16-16,16s-16-7.1635-16-16s7.1635-16,16-16S384,167.1635,384,176z M318.8041,64v224H64V64H318.8041z"/>
</svg>
