<?xml version="1.0" encoding="utf-8"?>
<!-- Generator: Adobe Illustrator 19.0.0, SVG Export Plug-In . SVG Version: 6.00 Build 0)  -->
<svg version="1.1" id="tag" xmlns="http://www.w3.org/2000/svg" xmlns:xlink="http://www.w3.org/1999/xlink" x="0px" y="0px"
	 viewBox="0 0 512 512" enable-background="new 0 0 512 512" xml:space="preserve">
<g>
	<path d="M511.9995,94.8843l-0.0146-0.9678c-1.4971-49.8223-37.0361-89.2593-84.5018-93.7729L425.9713,0h-144.118
		c-42.9018,0-70.9223,18.624-83.806,29.7256l-0.9014,0.7769L25.4709,202.2295c-16.5454,16.5654-25.5908,38.9253-25.4697,62.96
		c0.1206,23.8818,9.2744,46.1289,25.7807,62.6484L184.1469,486.25c16.583,16.6055,38.8515,25.75,62.7021,25.75
		c23.8452,0,46.0952-9.1299,62.644-25.7021l167.3025-167.4375l0.7773-0.9033c13.2461-15.3945,35.2881-47.8701,34.4013-92.644
		L511.9995,94.8843z M447.982,226.3789c0.5215,22.8545-10.8682,40.2246-18.2168,49.0029L264.2127,441.0684
		C259.7488,445.5381,253.5824,448,246.849,448c-6.8379,0-12.8608-2.4121-17.4292-6.9863L71.0489,282.5957
		c-9.2632-9.2715-9.4043-26.0195-0.3062-35.1289L240.6151,77.543C247.1107,72.1914,260.5389,64,281.8533,64h140.7996
		c14.374,1.9995,24.6826,14.7109,25.3466,31.4233l-0.0254,130.2207L447.982,226.3789z"/>
	<path d="M294.5949,121.5817c-26.3261,26.343-26.3261,69.1876,0,95.5306c12.7576,12.7615,29.7137,19.782,47.751,19.782
		c18.0553,0,35.0114-7.0206,47.751-19.782c12.7576-12.7524,19.7851-29.7136,19.7851-47.7653s-7.0275-35.0129-19.7851-47.7653
		C364.6357,96.0768,320.1281,96.0408,294.5949,121.5817z M364.005,191.0126c-11.5683,11.5718-31.7499,11.5718-43.3183,0
		c-11.9287-11.9413-11.9287-31.3899,0-43.3312c5.7842-5.7859,13.4784-8.9673,21.6591-8.9673c8.1807,0,15.875,3.1814,21.6591,8.9673
		s8.9736,13.4824,8.9736,21.6656C372.9786,177.5302,369.7892,185.2267,364.005,191.0126z"/>
</g>
</svg>
