<?xml version="1.0" encoding="utf-8"?>
<!-- Generated by IcoMoon.io -->
<!DOCTYPE svg PUBLIC "-//W3C//DTD SVG 1.1//EN" "http://www.w3.org/Graphics/SVG/1.1/DTD/svg11.dtd">
<svg version="1.1" xmlns="http://www.w3.org/2000/svg" xmlns:xlink="http://www.w3.org/1999/xlink" width="512" height="512" viewBox="0 0 512 512"><g id="icomoon-ignore">
</g>
<path d="M256 0c-141.153 0-256 114.847-256 256s114.847 256 256 256 256-114.847 256-256-114.847-256-256-256zM402.991 402.991c-19.144 19.143-41.406 34.17-66.168 44.662-25.6 10.847-52.793 16.347-80.822 16.347s-55.222-5.5-80.822-16.347c-24.763-10.493-47.025-25.519-66.169-44.662s-34.17-41.406-44.662-66.168c-10.847-25.6-16.347-52.793-16.347-80.822s5.5-55.222 16.347-80.822c10.493-24.763 25.519-47.025 44.662-66.169s41.406-34.17 66.169-44.662c25.6-10.847 52.792-16.347 80.822-16.347s55.222 5.5 80.822 16.347c24.763 10.493 47.026 25.519 66.168 44.662s34.17 41.406 44.662 66.169c10.847 25.6 16.346 52.792 16.346 80.822s-5.5 55.222-16.346 80.822c-10.493 24.763-25.519 47.026-44.662 66.168z"></path>
<path d="M301.474 255.47l67.882-67.882c12.497-12.496 12.497-32.758 0-45.255v0c-12.497-12.496-32.758-12.496-45.255 0l-67.882 67.882-67.882-67.882c-12.496-12.496-32.758-12.496-45.255 0v0c-12.496 12.496-12.496 32.758 0 45.255l67.882 67.882-67.882 67.882c-12.496 12.497-12.496 32.758 0 45.255v0c12.496 12.497 32.758 12.497 45.255 0l67.882-67.882 68.943 68.943c12.497 12.497 32.758 12.497 45.255 0v0c12.497-12.497 12.497-32.758 0-45.255l-68.943-68.943z"></path>
</svg>
