<?xml version="1.0" encoding="utf-8"?>
<!-- Generated by IcoMoon.io -->
<!DOCTYPE svg PUBLIC "-//W3C//DTD SVG 1.1//EN" "http://www.w3.org/Graphics/SVG/1.1/DTD/svg11.dtd">
<svg version="1.1" xmlns="http://www.w3.org/2000/svg" xmlns:xlink="http://www.w3.org/1999/xlink" width="512" height="512" viewBox="0 0 512 512"><g id="icomoon-ignore">
</g>
<path d="M303.629 0h-63.258c-26.292 0-47.629 5.709-47.629 32h-96.742v63.258h352v-63.258h-96.741c0-26.291-21.338-32-47.629-32z"></path>
<path d="M272 416v0c8.837 0 16-7.163 16-16v-160c0-8.837-7.163-16-16-16v0c-8.837 0-16 7.163-16 16v160c0 8.837 7.163 16 16 16z"></path>
<path d="M336 416v0c8.837 0 16-7.163 16-16v-160c0-8.837-7.163-16-16-16v0c-8.837 0-16 7.163-16 16v160c0 8.837 7.163 16 16 16z"></path>
<path d="M96 128v312.557c0 39.409 32.035 71.443 71.444 71.443h209.113c39.409 0 71.443-32.034 71.443-71.443v-312.557h-352zM160 192h224v232.185c0 13.118-10.697 23.815-23.815 23.815h-176.37c-13.145 0-23.815-10.697-23.815-23.815v-232.185z"></path>
<path d="M208 416v0c8.837 0 16-7.163 16-16v-160c0-8.837-7.163-16-16-16v0c-8.837 0-16 7.163-16 16v160c0 8.837 7.163 16 16 16z"></path>
</svg>
