<?xml version="1.0" encoding="utf-8"?>
<!-- Generator: Adobe Illustrator 19.0.0, SVG Export Plug-In . SVG Version: 6.00 Build 0)  -->
<svg version="1.1" id="trash" xmlns="http://www.w3.org/2000/svg" xmlns:xlink="http://www.w3.org/1999/xlink" x="0px" y="0px"
	 viewBox="0 0 384 512.9999" enable-background="new 0 0 384 512.9999" xml:space="preserve">
<g>
	<path d="M0,441.5569c0,39.409,32.035,71.443,71.444,71.443h241.113c39.409,0,71.443-32.034,71.443-71.443v-312.557H0V441.5569z
		 M64,192.9999h256v232.185c0,13.118-10.697,23.815-23.815,23.815H87.815c-13.145,0-23.815-10.697-23.815-23.815V192.9999z"/>
	<polygon points="288,32.9999 288,0 96,0 96,32.9999 0,32.9999 0,96.2579 384,96.2579 384,32.9999 	"/>
	<rect x="224" y="224" width="64" height="192"/>
	<rect x="96" y="224" width="64" height="192"/>
</g>
</svg>
