<?xml version="1.0" encoding="utf-8"?>
<!-- Generator: Adobe Illustrator 19.2.1, SVG Export Plug-In . SVG Version: 6.00 Build 0)  -->
<svg version="1.1" id="web-content" xmlns="http://www.w3.org/2000/svg" xmlns:xlink="http://www.w3.org/1999/xlink" x="0px"
	 y="0px" viewBox="0 0 512 512" style="enable-background:new 0 0 512 512;" xml:space="preserve">
<path class="lexicon-icon-body" fill="none" d="M437,75C396.3,34.3,344.3,7,288,0H64C28.7,0,0,28.7,0,64v384c0,35.3,28.7,64,64,64h224
	c56.3-7,108.3-34.3,149-75c48.4-48.4,75-112.6,75-181C512,187.6,485.4,123.3,437,75z"/>
<path class="lexicon-icon-outline" d="M437,75C396.3,34.3,344.3,7,288,0H64C28.7,0,0,28.7,0,64v384c0,35.3,28.7,64,64,64h224c56.3-7,108.3-34.3,149-75
	c48.4-48.4,75-112.6,75-181C512,187.6,485.4,123.3,437,75z M445.4,224.6c0.8,5.1,1.5,10.2,1.9,15.4h-79.6
	c-0.5-17.7-1.9-35.1-4.1-51.8c16.1,4,31,8.9,44.4,14.6C423.5,209.4,436.1,216.9,445.4,224.6z M431.6,178.4c-3.5-1.7-7.1-3.4-10.9-5
	c-18.7-8-39.9-14.5-62.8-19.3c-4.8-22.9-11.3-44.1-19.3-62.8c-1.6-3.8-3.3-7.4-5-10.9C377.2,99.7,412.3,134.8,431.6,178.4z
	 M323.8,363.7c-4,16.1-8.9,31-14.6,44.4c-6.4,15-13.6,30.7-21.2,39.9H64V64h224c7.6,9.2,14.7,24.9,21.2,39.9
	c5.7,13.4,10.6,28.3,14.6,44.4c-11.6-1.5-23.6-2.6-35.8-3.4V177c14.6,0.9,28.8,2.4,42.4,4.6c2.9,18.6,4.7,38.2,5.3,58.4H288v32h47.8
	c-0.6,20.2-2.4,39.8-5.3,58.4c-13.6,2.1-27.8,3.6-42.4,4.6V367C300.2,366.3,312.1,365.2,323.8,363.7z M333.6,431.6
	c1.7-3.5,3.4-7.1,5-10.9c8-18.7,14.5-39.9,19.3-62.8c22.9-4.8,44.1-11.3,62.8-19.3c3.8-1.6,7.4-3.3,10.9-5
	C412.3,377.2,377.2,412.3,333.6,431.6z M445.4,287.4c-9.3,7.8-21.9,15.2-37.3,21.8c-13.4,5.7-28.3,10.6-44.4,14.6
	c2.2-16.7,3.6-34.1,4.1-51.8h79.6C446.9,277.2,446.3,282.3,445.4,287.4z"/>
<path class="lexicon-icon-outline" d="M132,188.8c2.5,2.2,5.5,3.2,8.7,3.2c3.9,0,6.9-1.2,8.9-3.5c1.5-1.8,3.2-4.9,5.1-9.6l3.7-8.9h34.4l3.7,8.7l0,0.1
	c0.6,1.4,1.4,2.9,2.2,4.7c1,2,1.9,3.6,2.9,4.6c1.1,1.2,2.4,2.2,3.9,2.9c1.5,0.7,3.3,1,5.4,1c3.5,0,6.5-1.1,9-3.4
	c2.6-2.3,3.9-5.1,3.9-8.1c0-2.5-1-5.9-3.3-10.7l-25.1-55.5c-1.2-2.8-2.2-5-2.9-6.7c-0.9-1.9-2-3.7-3.2-5.3c-1.4-1.9-3.3-3.4-5.6-4.5
	c-2.3-1.2-5.1-1.8-8.4-1.8c-3.2,0-6,0.6-8.3,1.8c-2.3,1.2-4.2,2.7-5.6,4.6c-1.3,1.7-2.5,3.8-3.5,6.3l-2.5,5.8l-24.5,55.9
	c-1.1,2.3-1.8,4.1-2.3,5.5c-0.6,1.6-0.8,3.2-0.8,4.8C128,182.8,128.7,185.9,132,188.8z M175.5,127.2l9.3,22.8h-18.4L175.5,127.2z"/>
<path class="lexicon-icon-outline" d="M224,256h-96c-17.7,0-32,14.3-32,32s14.3,32,32,32h96c17.7,0,32-14.3,32-32S241.7,256,224,256z"/>
<path class="lexicon-icon-outline" d="M160,352h-32c-17.7,0-32,14.3-32,32s14.3,32,32,32h32c17.7,0,32-14.3,32-32S177.7,352,160,352z"/>
</svg>