<svg width="24" height="24" viewBox="0 0 24 24" fill="none" xmlns="http://www.w3.org/2000/svg">
<g clip-path="url(#clip0)">
<path d="M3.67094 2.83224H3.66892C3.55714 2.832 3.44641 2.8539 3.34314 2.89669C3.23986 2.93948 3.14609 3.0023 3.06723 3.08153C2.98682 3.16133 2.92308 3.2563 2.87968 3.36094C2.83629 3.46557 2.81412 3.57779 2.81446 3.69107V16.5691C2.81446 17.0413 3.20016 17.4265 3.67434 17.4277C5.67338 17.4324 9.02256 17.8491 11.333 20.267V6.78974C11.333 6.62966 11.2921 6.47928 11.215 6.35483C9.31864 3.30092 5.67451 2.83692 3.67094 2.83224V2.83224ZM21.1849 16.5691V3.69099C21.1849 3.46052 21.0952 3.24404 20.9322 3.08145C20.8533 3.00224 20.7596 2.93943 20.6563 2.89664C20.553 2.85386 20.4423 2.83194 20.3306 2.83215H20.3285C18.325 2.83692 14.6808 3.30092 12.7844 6.35483C12.7073 6.47928 12.6665 6.62966 12.6665 6.78974V20.2669C14.9769 17.849 18.3261 17.4324 20.3251 17.4276C20.7992 17.4264 21.1849 17.0413 21.1849 16.5691V16.5691Z" fill="#272833"/>
<path d="M23.1413 5.80212H22.5186V16.5691C22.5186 17.7749 21.5362 18.758 20.3286 18.761C18.633 18.7651 15.8372 19.0966 13.8572 20.9707C17.2817 20.1322 20.8917 20.6772 22.9491 21.1461C23.0751 21.1752 23.2061 21.1753 23.3322 21.1466C23.4583 21.1178 23.5763 21.0609 23.6773 20.9801C23.7782 20.8999 23.8597 20.7979 23.9156 20.6817C23.9715 20.5656 24.0003 20.4382 24 20.3093V6.66079C24.0001 6.18734 23.6148 5.80212 23.1413 5.80212V5.80212ZM1.48138 16.5691V5.80212H0.85867C0.385294 5.80212 0 6.18734 0 6.66079V20.3091C0 20.5717 0.117657 20.8162 0.322749 20.9799C0.423707 21.0607 0.541671 21.1177 0.667784 21.1464C0.793898 21.1752 0.924885 21.175 1.05091 21.1459C3.10829 20.6769 6.71841 20.132 10.1427 20.9704C8.16278 19.0965 5.36697 18.765 3.67137 18.761C2.46385 18.758 1.48138 17.7749 1.48138 16.5691V16.5691Z" fill="#272833"/>
</g>
<defs>
<clipPath id="clip0">
<rect width="24" height="24" fill="white"/>
</clipPath>
</defs>
</svg>
