<?xml version="1.0" encoding="UTF-8"?>
<svg width="1123px" height="1123px" viewBox="0 0 1123 1123" version="1.1" xmlns="http://www.w3.org/2000/svg" xmlns:xlink="http://www.w3.org/1999/xlink">
    <!-- Generator: Sketch 46.2 (44496) - http://www.bohemiancoding.com/sketch -->
    <title>Group 2</title>
    <desc>Created with Sketch.</desc>
    <defs></defs>
    <g id="Page-1" stroke="none" stroke-width="1" fill="none" fill-rule="evenodd">
        <g id="Artboard-Copy-5">
            <g id="Group-2">
                <rect id="Rectangle-5" fill-opacity="0.55" fill="#F1F2F5" x="0" y="0" width="1123" height="1123"></rect>
                <g id="Group" transform="translate(24.000000, 24.000000)" stroke="#FFFFFF" stroke-width="22">
                    <path d="M77.36757,425.425141 L77.36757,307 L153.908111,307 L153.908111,426.760363 L174,435.125 L154.864865,512 L78.3243243,512 L56,435.125 L77.36757,425.425141 Z" id="Combined-Shape"></path>
                    <path d="M204.444444,333 L230,115.269231 C230,51.6077925 178.512746,0 115,0 C51.4872538,0 0,51.6077925 0,115.269231 L25.5555556,333 L204.444444,333 Z" id="Combined-Shape" fill="#F8F8FA"></path>
                    <path d="M80,150 L80,278" id="Line" fill="#FFFFFF" stroke-linecap="square"></path>
                    <path d="M160,150 L160,278" id="Line-Copy" fill="#FFFFFF" stroke-linecap="square"></path>
                    <path d="M3,110 L227,110" id="Line-Copy-3" stroke-linecap="round"></path>
                    <rect id="Rectangle-7-Copy-13" transform="translate(396.000000, 256.000000) scale(1, -1) translate(-396.000000, -256.000000) " x="281" y="0" width="230" height="512"></rect>
                    <path d="M281,305 L409,305" id="Line-Copy-2" stroke-linecap="square"></path>
                    <path d="M281,407 L409,407" id="Line-Copy-4" stroke-linecap="square"></path>
                    <path d="M281,203 L409,203" id="Line-Copy-7" stroke-linecap="square"></path>
                    <circle id="Oval-2-Copy-21" transform="translate(422.500000, 89.500000) scale(1, -1) translate(-422.500000, -89.500000) " cx="422.5" cy="89.5" r="38.5"></circle>
                    <path d="M640.36757,988.425141 L640.36757,870 L716.908111,870 L716.908111,989.760363 L737,998.125 L717.864865,1075 L641.324324,1075 L619,998.125 L640.36757,988.425141 Z" id="Combined-Shape"></path>
                    <path d="M767.444444,896 L793,678.269231 C793,614.607792 741.512746,563 678,563 C614.487254,563 563,614.607792 563,678.269231 L588.555556,896 L767.444444,896 Z" id="Combined-Shape" fill="#F8F8FA"></path>
                    <path d="M643,713 L643,841" id="Line" fill="#FFFFFF" stroke-linecap="square"></path>
                    <path d="M723,713 L723,841" id="Line-Copy" fill="#FFFFFF" stroke-linecap="square"></path>
                    <path d="M566,673 L790,673" id="Line-Copy-3" fill="#FFFFFF" stroke-linecap="round"></path>
                    <rect id="Rectangle-7-Copy-13" transform="translate(959.000000, 819.000000) scale(1, -1) translate(-959.000000, -819.000000) " x="844" y="563" width="230" height="512"></rect>
                    <path d="M844,868 L972,868" id="Line-Copy-2" stroke-linecap="square"></path>
                    <path d="M844,970 L972,970" id="Line-Copy-4" stroke-linecap="square"></path>
                    <path d="M844,766 L972,766" id="Line-Copy-7" stroke-linecap="square"></path>
                    <circle id="Oval-2-Copy-21" transform="translate(985.500000, 652.500000) scale(1, -1) translate(-985.500000, -652.500000) " cx="985.5" cy="652.5" r="38.5"></circle>
                    <path d="M563,339 L793,339" id="Line" stroke-linecap="square"></path>
                    <circle id="Oval-2-Copy-19" fill="#F8F8FA" transform="translate(712.000000, 339.000000) scale(1, -1) translate(-712.000000, -339.000000) " cx="712" cy="339" r="51"></circle>
                    <path d="M563,459 L793,459" id="Line-Copy" stroke-linecap="square"></path>
                    <circle id="Oval-2-Copy-20" fill="#F8F8FA" transform="translate(646.000000, 459.000000) scale(1, -1) translate(-646.000000, -459.000000) " cx="646" cy="459" r="51"></circle>
                    <circle id="Oval-2-Copy-20" transform="translate(959.000000, 115.000000) scale(1, -1) translate(-959.000000, -115.000000) " cx="959" cy="115" r="115"></circle>
                    <circle id="Oval-2-Copy-20" transform="translate(959.000000, 115.000000) scale(1, -1) translate(-959.000000, -115.000000) " cx="959" cy="115" r="45"></circle>
                    <path d="M563,189.268605 L563,8 L793,8 L793,189.268605 C767.760353,189.268605 752.630104,189.268605 747.609253,189.268605 L690.190674,239 L690.190674,189.268605 L563,189.268605 Z" id="Path" stroke-linecap="round" transform="translate(678.000000, 123.500000) scale(-1, 1) translate(-678.000000, -123.500000) "></path>
                    <rect id="Rectangle-7-Copy-14" transform="translate(959.000000, 395.000000) scale(1, -1) translate(-959.000000, -395.000000) " x="844" y="280" width="230" height="230"></rect>
                    <polyline id="Path-2" stroke-linecap="square" transform="translate(913.000000, 395.000000) scale(-1, 1) translate(-913.000000, -395.000000) " points="896 355 930 395 896 435"></polyline>
                    <polyline id="Path-2-Copy" stroke-linecap="square" points="989 355 1023.04851 395 989 435"></polyline>
                    <path d="M0,903 L230,903" id="Line" stroke-linecap="square"></path>
                    <circle id="Oval-2-Copy-19" fill="#F8F8FA" transform="translate(149.000000, 903.000000) scale(1, -1) translate(-149.000000, -903.000000) " cx="149" cy="903" r="51"></circle>
                    <path d="M0,1023 L230,1023" id="Line-Copy" stroke-linecap="square"></path>
                    <circle id="Oval-2-Copy-20" fill="#F8F8FA" transform="translate(83.000000, 1023.000000) scale(1, -1) translate(-83.000000, -1023.000000) " cx="83" cy="1023" r="51"></circle>
                    <circle id="Oval-2-Copy-20" transform="translate(396.000000, 679.000000) scale(1, -1) translate(-396.000000, -679.000000) " cx="396" cy="679" r="115"></circle>
                    <circle id="Oval-2-Copy-20" transform="translate(396.000000, 679.000000) scale(1, -1) translate(-396.000000, -679.000000) " cx="396" cy="679" r="45"></circle>
                    <path d="M0,753.268605 L8.44654208e-13,572 L230,572 L230,753.268605 C204.760353,753.268605 189.630104,753.268605 184.609253,753.268605 L127.190674,803 L127.190674,753.268605 L0,753.268605 Z" id="Path" stroke-linecap="round" transform="translate(115.000000, 687.500000) scale(-1, 1) translate(-115.000000, -687.500000) "></path>
                    <rect id="Rectangle-7-Copy-14" transform="translate(396.000000, 959.000000) scale(1, -1) translate(-396.000000, -959.000000) " x="281" y="844" width="230" height="230"></rect>
                    <polyline id="Path-2" stroke-linecap="square" transform="translate(350.000000, 959.000000) scale(-1, 1) translate(-350.000000, -959.000000) " points="333 919 367 959 333 999"></polyline>
                    <polyline id="Path-2-Copy" stroke-linecap="square" points="426 919 460.04851 959 426 999"></polyline>
                </g>
            </g>
        </g>
    </g>
</svg>