<?xml version="1.0" encoding="UTF-8"?>
<svg width="168px" height="173px" viewBox="0 0 168 173" version="1.1" xmlns="http://www.w3.org/2000/svg" xmlns:xlink="http://www.w3.org/1999/xlink">
    <!-- Generator: Sketch 46.2 (44496) - http://www.bohemiancoding.com/sketch -->
    <title>Group</title>
    <desc>Created with Sketch.</desc>
    <defs></defs>
    <g id="Page-1" stroke="none" stroke-width="1" fill="none" fill-rule="evenodd">
        <g id="Canvas-Copy-50" transform="translate(-12.000000, -12.000000)" stroke="#B3472D" stroke-width="8">
            <g id="Group" transform="translate(16.000000, 16.000000)">
                <path d="M0,128 L1.08357767e-12,0 L160,0 C160,4 160,46.6666667 160,128 C144.8261,128 131.492766,128 128,128 L88,160 L88,128" id="Path" fill="#F7ECEA" stroke-linecap="square"></path>
                <path d="M88,128 C72.7809604,128 44.7809604,128 4,128 L4,128" id="Path" fill="#F7ECEA" stroke-linecap="square" stroke-linejoin="round"></path>
                <rect id="Rectangle-7-Copy-17" fill="#FFFFFF" x="40" y="72" width="32" height="32"></rect>
                <circle id="Oval-2-Copy-22" fill="#FFDF9F" cx="104" cy="40" r="16"></circle>
                <g id="Group-Copy" transform="translate(56.000000, 40.000000) scale(1, -1) translate(-56.000000, -40.000000) translate(40.000000, 24.000000)" stroke-linecap="square">
                    <path d="M16,-2.84217094e-14 L16,28" id="Line-Copy"></path>
                    <polyline id="Path-2-Copy" transform="translate(16.000000, 24.000000) scale(1, -1) translate(-16.000000, -24.000000) " points="0 32 16.2603819 16 32 32"></polyline>
                </g>
                <g id="Group-Copy-2" transform="translate(88.000000, 73.000000)" stroke-linecap="square">
                    <path d="M16,-2.84217094e-14 L16,27.9894749" id="Line-Copy"></path>
                    <polyline id="Path-2-Copy" transform="translate(16.000000, 24.000000) scale(1, -1) translate(-16.000000, -24.000000) " points="0 32 16.2603819 16 32 32"></polyline>
                </g>
            </g>
        </g>
    </g>
</svg>