<?xml version="1.0" encoding="utf-8"?>
<!-- Generated by IcoMoon.io -->
<!DOCTYPE svg PUBLIC "-//W3C//DTD SVG 1.1//EN" "http://www.w3.org/Graphics/SVG/1.1/DTD/svg11.dtd">
<svg version="1.1" xmlns="http://www.w3.org/2000/svg" xmlns:xlink="http://www.w3.org/1999/xlink" width="512" height="512" viewBox="0 0 512 512"><g id="icomoon-ignore">
</g>
<path d="M256 159.993c-53.026 0-96.007 42.981-96.007 96.007s42.981 96.007 96.007 96.007 96.007-42.981 96.007-96.007-42.981-96.007-96.007-96.007zM256 320c-35.276 0-64-28.695-64-64 0-35.276 28.695-64 64-64s64 28.695 64 64c-0.029 35.276-28.724 64-64 64z"></path>
<path d="M487.423 195.219l-21.471-3.22c-4.12-13.579-9.543-26.665-16.245-39.191l12.912-17.47c8.49-11.487 7.3-27.457-2.801-37.558l-45.599-45.599c-10.101-10.101-26.071-11.292-37.558-2.801l-17.469 12.913c-12.526-6.702-25.611-12.126-39.191-16.245l-3.221-21.471c-2.119-14.127-14.254-24.577-28.538-24.577h-64.486c-14.285 0-26.419 10.45-28.538 24.576l-3.22 21.471c-13.578 4.118-26.666 9.544-39.191 16.245l-17.469-12.912c-11.487-8.491-27.457-7.3-37.558 2.801l-45.599 45.599c-10.101 10.1-11.291 26.071-2.801 37.558l12.912 17.469c-6.701 12.525-12.127 25.613-16.245 39.191l-21.471 3.22c-14.126 2.119-24.576 14.254-24.576 28.538v64.486c0 14.284 10.45 26.42 24.577 28.538l21.471 3.221c4.119 13.579 9.543 26.664 16.245 39.191l-12.913 17.469c-8.491 11.487-7.3 27.457 2.801 37.558l45.599 45.599c10.1 10.101 26.070 11.291 37.558 2.801l17.47-12.912c12.526 6.702 25.612 12.125 39.191 16.245l3.22 21.471c2.119 14.127 14.254 24.577 28.538 24.577h64.487c14.284 0 26.42-10.45 28.538-24.577l3.221-21.471c13.579-4.12 26.664-9.543 39.191-16.245l17.469 12.912c11.487 8.49 27.457 7.299 37.558-2.801l45.599-45.599c10.101-10.101 11.291-26.070 2.801-37.558l-12.913-17.469c6.702-12.526 12.125-25.611 16.245-39.191l21.471-3.221c14.127-2.119 24.577-14.254 24.577-28.538v-64.486c0-14.285-10.45-26.419-24.577-28.538zM475.428 281.6l-39.282 5.892c-4.694 27.038-15.325 52.038-30.504 73.609l23.62 31.956-36.204 36.204-31.956-23.62c-21.572 15.179-46.571 25.81-73.61 30.504l-5.892 39.282h-51.2l-5.893-39.282c-27.038-4.694-52.038-15.325-73.609-30.504l-31.956 23.62-36.204-36.204 23.62-31.956c-15.179-21.572-25.81-46.571-30.504-73.61l-39.282-5.892v-51.2l39.282-5.893c4.694-27.038 15.325-52.038 30.504-73.609l-23.62-31.956 36.204-36.204 31.956 23.62c21.572-15.179 46.571-25.81 73.609-30.504l5.893-39.282h51.2l5.892 39.282c27.038 4.694 52.038 15.325 73.61 30.504l31.956-23.62 36.204 36.204-23.62 31.956c15.179 21.572 25.81 46.571 30.504 73.609l39.282 5.893v51.2z"></path>
</svg>
