<?xml version="1.0" encoding="utf-8"?>
<!-- Generated by IcoMoon.io -->
<!DOCTYPE svg PUBLIC "-//W3C//DTD SVG 1.1//EN" "http://www.w3.org/Graphics/SVG/1.1/DTD/svg11.dtd">
<svg version="1.1" xmlns="http://www.w3.org/2000/svg" xmlns:xlink="http://www.w3.org/1999/xlink" width="512" height="512" viewBox="0 0 512 512"><g id="icomoon-ignore">
</g>
<path d="M0 46.948v418.104c0 25.822 21.127 46.948 46.948 46.948h130.798c25.821 0 46.948-21.127 46.948-46.948v-418.104c0-25.822-21.126-46.948-46.948-46.948h-130.798c-25.822 0-46.948 21.127-46.948 46.948zM160.694 64v384h-96v-384h96z"></path>
<path d="M287.307 46.948v418.104c0 25.822 21.127 46.948 46.948 46.948h130.798c25.822 0 46.948-21.127 46.948-46.948v-418.104c0-25.822-21.127-46.948-46.948-46.948h-130.798c-25.822 0-46.948 21.127-46.948 46.948zM448 64v384h-96v-384h96z"></path>
</svg>
