<?xml version="1.0" encoding="utf-8"?>
<!-- Generator: Adobe Illustrator 19.0.0, SVG Export Plug-In . SVG Version: 6.00 Build 0)  -->
<svg version="1.1" id="documents-and-media" xmlns="http://www.w3.org/2000/svg" xmlns:xlink="http://www.w3.org/1999/xlink"
	 x="0px" y="0px" viewBox="0 0 512 512" enable-background="new 0 0 512 512" xml:space="preserve">
<g>
	<path d="M148.0327,188.7564c2.5156,2.1522,5.4572,3.2436,8.7425,3.2436c3.9436,0,6.9327-1.1787,8.8838-3.5027
		c1.5286-1.8203,3.1597-4.8787,5.1325-9.626l3.6923-8.8971h34.3967l3.6841,8.6872l0.0408,0.0924
		c0.6209,1.3525,1.3709,2.9293,2.2296,4.6871c0.9973,2.0418,1.9477,3.5625,2.9049,4.6488c1.0693,1.2133,2.3934,2.1793,3.9362,2.8716
		c1.5367,0.6891,3.337,1.0387,5.3519,1.0387c3.4898,0,6.5292-1.1389,9.034-3.3852c2.6128-2.3441,3.9382-5.0629,3.9382-8.0812
		c0-2.4871-1.0387-5.8828-3.254-10.6522l-25.0598-55.5282c-1.2031-2.837-2.1651-5.0364-2.9396-6.7225
		c-0.8682-1.892-1.9504-3.6878-3.2181-5.3376c-1.4259-1.8563-3.2996-3.3821-5.5699-4.5356C197.663,96.5913,194.8526,96,191.6074,96
		c-3.2025,0-5.9905,0.5913-8.2867,1.7578c-2.284,1.1603-4.1671,2.7181-5.5965,4.6301c-1.2683,1.6957-2.4612,3.8156-3.5455,6.3013
		l-2.5176,5.7778l-24.5394,55.8879c-1.0557,2.3467-1.7996,4.1494-2.2731,5.5095C144.2853,177.48,144,179.0903,144,180.6511
		C144,182.7755,144.6998,185.9062,148.0327,188.7564z M191.5054,127.158l9.2684,22.7615h-18.3689L191.5054,127.158z"/>
	<path d="M448,96h-64V64c0-35.2896-28.71-64-64-64H64C28.7104,0,0,28.7104,0,64v256.002c0,35.29,28.7104,64,64,64h32V448
		c0,35.29,28.7104,64,64,64h288c35.29,0,64-28.71,64-64V160C512,124.7104,483.29,96,448,96z M64,320.002V64h256l0.005,32H320v64
		h0.015l0.025,160c0,0-0.0127,0.002-0.04,0.002H160V320H96v0.002H64z M448,448H160v-63.998h160c35.29,0,64-28.71,64-64V160h64
		l0.04,287.998C448.04,447.998,448.0273,448,448,448z"/>
	<path d="M128,288h128c17.6729,0,32-14.3267,32-32s-14.3271-32-32-32H128c-17.6733,0-32,14.3267-32,32S110.3267,288,128,288z"/>
</g>
</svg>
