<?xml version="1.0" encoding="utf-8"?>
<!-- Generator: Adobe Illustrator 19.2.1, SVG Export Plug-In . SVG Version: 6.00 Build 0)  -->
<svg version="1.1" id="dynamic-data-list" xmlns="http://www.w3.org/2000/svg" xmlns:xlink="http://www.w3.org/1999/xlink" x="0px"
	 y="0px" viewBox="0 0 448 512" style="enable-background:new 0 0 448 512;" xml:space="preserve">
<path class="lexicon-icon-outline" d="M442.7,416.4l-45.2-26.2l22.8-54.8c0.7-1.5,1.1-3.1,1.1-4.7c0-5.9-4.7-10.7-10.6-10.7c-2.7,0.1-4.9,0.9-6.7,2.3
	c-0.3,0.3-0.6,0.4-0.7,0.6l-80,75.7c-2.5,2.3-3.6,5.7-3.3,9c0.4,3.3,2.3,6.3,5.3,8l45.3,26.3l-23.1,55.4c-2,4.6-0.4,10,3.8,12.9
	c1.9,1.3,4,1.9,6.1,1.9c2.7,0,5.3-1,7.3-2.9l80-75.7c2.4-2.3,3.6-5.7,3.2-9C447.5,421,445.6,418,442.7,416.4z"/>
<path class="lexicon-icon-outline" d="M383.7,0H63.9C28.6,0,0,28.6,0,63.9v320.1C0,419.3,28.7,448,63.9,448h192.2l-0.1-64H256h-64v-64h64h0.1H320v-63.8V256v-64
	h64v64v0.2h64V64.3C448,28.8,419.2,0,383.7,0z M128,384H64v-64h64V384z M128,256H64v-64h64V256z M128,128H64V64h64V128z M256,256
	h-64v-64h64V256z M256,128h-64V64h64V128z M384,128h-64V64h64V128z"/>
</svg>