<?xml version="1.0" encoding="utf-8"?>
<!-- Generated by IcoMoon.io -->
<!DOCTYPE svg PUBLIC "-//W3C//DTD SVG 1.1//EN" "http://www.w3.org/Graphics/SVG/1.1/DTD/svg11.dtd">
<svg version="1.1" xmlns="http://www.w3.org/2000/svg" xmlns:xlink="http://www.w3.org/1999/xlink" width="512" height="512" viewBox="0 0 512 512"><g id="icomoon-ignore">
</g>
<path d="M455.11 128h-103.11c-9.5 0-31.928-45.723-38.56-59.473-15.474-32.118-32.995-68.527-68.365-68.527h-189.131c-30.85 0-55.946 26.852-55.946 59.847v395.264c0 31.37 25.519 56.889 56.889 56.889h398.222c31.37 0 56.889-25.519 56.889-56.889v-270.222c0-31.338-25.519-56.889-56.889-56.889zM64 66.959c0 0 0.347-2.374 0.662-2.959h178.112c5.564 5.853 14.365 31.809 19.772 43.417 3.113 6.665 6.349 13.657 9.87 20.583h-208.416v-61.041zM448 448h-383.968l-0.032-256h384v256z"></path>
</svg>
