<?xml version="1.0" encoding="utf-8"?>
<!-- Generator: Adobe Illustrator 19.0.0, SVG Export Plug-In . SVG Version: 6.00 Build 0)  -->
<svg version="1.1" id="format" xmlns="http://www.w3.org/2000/svg" xmlns:xlink="http://www.w3.org/1999/xlink" x="0px" y="0px"
	 width="512px" height="512px" viewBox="0 0 512 512" enable-background="new 0 0 512 512" xml:space="preserve">
<g>
	<path d="M416,32H160c-17.6,0-32,14.4-32,32v128c0,17.6,14.4,32,32,32h256c17.6,0,32-14.4,32-32V64
		C448,46.4,433.6,32,416,32z"/>
	<path d="M320,320v-48c0-8.8-7.2-16-16-16H96V96c0-8.8-7.2-16-16-16s-16,7.2-16,16v176c0,8.8,7.2,16,16,16h208v32
		c-17.6,0-32,14.4-32,32v128c0,17.6,14.4,32,32,32h32c17.6,0,32-14.4,32-32V352C352,334.4,337.6,320,320,320z"/>
</g>
</svg>