<?xml version="1.0" encoding="utf-8"?>
<!-- Generator: Adobe Illustrator 19.0.0, SVG Export Plug-In . SVG Version: 6.00 Build 0)  -->
<svg version="1.1" id="info-panel-closed" xmlns="http://www.w3.org/2000/svg" xmlns:xlink="http://www.w3.org/1999/xlink" x="0px"
	 y="0px" viewBox="0 0 512 512" enable-background="new 0 0 512 512" xml:space="preserve">
<g>
	<path d="M437.0195,74.9805C388.667,26.6289,324.3799,0,256,0C187.6196,0,123.3325,26.6289,74.9805,74.9805
		C26.6289,123.3325,0,187.6196,0,256c0,68.3799,26.6289,132.667,74.9805,181.0195C123.3325,485.3711,187.6196,512,256,512
		c68.3799,0,132.667-26.6289,181.0195-74.9805C485.3711,388.667,512,324.3799,512,256
		C512,187.6196,485.3711,123.3325,437.0195,74.9805z M256,480C132.486,480,32,379.514,32,256S132.486,32,256,32s224,100.486,224,224
		S379.514,480,256,480z"/>
	<path d="M288,384V224c0-17.6733-14.3267-32-32-32c-17.6729,0-32,14.3267-32,32v160c0,17.6729,14.3271,32,32,32
		C273.6733,416,288,401.6729,288,384z"/>
	<circle cx="256" cy="128" r="32"/>
</g>
</svg>
