<?xml version="1.0" encoding="utf-8"?>
<!-- Generated by IcoMoon.io -->
<!DOCTYPE svg PUBLIC "-//W3C//DTD SVG 1.1//EN" "http://www.w3.org/Graphics/SVG/1.1/DTD/svg11.dtd">
<svg version="1.1" xmlns="http://www.w3.org/2000/svg" xmlns:xlink="http://www.w3.org/1999/xlink" width="512" height="512" viewBox="0 0 512 512"><g id="icomoon-ignore">
</g>
<path d="M335.144 114.229c-16.731 0-32.459 6.516-44.298 18.354l-272.301 272.278c-12.22 12.196-18.712 28.426-18.354 45.682 0.382 17.256 7.59 33.175 20.335 44.846 11.576 10.597 26.612 16.445 42.293 16.445 16.731 0 32.46-6.516 44.298-18.353l272.301-272.301c24.416-24.416 24.416-64.18 0-88.595-11.815-11.838-27.543-18.353-44.274-18.353zM278.674 203.779l29.524 29.524-192.37 192.37-29.524-29.524 192.37-192.37zM48.713 464.576c-4.248-3.89-6.658-9.189-6.778-14.941s2.053-11.146 6.11-15.228l8.736-8.736 29.524 29.524-8.736 8.736c-7.614 7.661-20.859 7.972-28.855 0.644zM349.894 191.63l-12.172 12.149-29.524-29.524 12.149-12.149c3.938-3.938 9.189-6.11 14.774-6.11s10.812 2.172 14.774 6.11c8.139 8.139 8.139 21.385 0 29.524z"></path>
<path d="M446.556 94.968l6.11 6.11c4.082 4.082 9.428 6.11 14.774 6.11s10.692-2.029 14.774-6.11c8.163-8.162 8.163-21.385 0-29.524l-6.11-6.11 6.11-6.11c8.163-8.163 8.163-21.385 0-29.524-8.163-8.163-21.385-8.163-29.524 0l-6.11 6.11-6.11-6.11c-8.163-8.163-21.385-8.163-29.524 0-8.163 8.163-8.163 21.385 0 29.524l6.11 6.11-6.11 6.11c-8.163 8.162-8.163 21.385 0 29.524 4.082 4.082 9.428 6.11 14.774 6.11s10.692-2.029 14.774-6.11l6.062-6.11z"></path>
<path d="M302.995 62.819c0 11.528 9.356 20.884 20.884 20.884s20.884-9.356 20.884-20.884c11.528 0 20.884-9.356 20.884-20.884s-9.356-20.884-20.884-20.884c0-11.528-9.356-20.884-20.884-20.884s-20.884 9.356-20.884 20.884c-11.528 0-20.884 9.356-20.884 20.884s9.356 20.884 20.884 20.884z"></path>
<path d="M490.949 188.121c0-11.528-9.356-20.884-20.884-20.884s-20.884 9.356-20.884 20.884c-11.528 0-20.884 9.356-20.884 20.884s9.356 20.884 20.884 20.884c0 11.528 9.356 20.884 20.884 20.884s20.884-9.356 20.884-20.884c11.528 0 20.884-9.356 20.884-20.884s-9.356-20.884-20.884-20.884z"></path>
</svg>
