<?xml version="1.0" encoding="utf-8"?>
<!-- Generated by IcoMoon.io -->
<!DOCTYPE svg PUBLIC "-//W3C//DTD SVG 1.1//EN" "http://www.w3.org/Graphics/SVG/1.1/DTD/svg11.dtd">
<svg version="1.1" xmlns="http://www.w3.org/2000/svg" xmlns:xlink="http://www.w3.org/1999/xlink" width="512" height="512" viewBox="0 0 512 512"><g id="icomoon-ignore">
</g>
<path d="M490.851 363.401l-2.784-5.070c-19.817-35.921-128.178-54.346-129.206-54.38l-2.353-0.066-10.77 1.524c-16.9 3.877-30.984 15.74-50.502 33.834-25.152-14.68-52.391-37.579-68.662-54.314-16.736-17.066-39.932-47.719-52.358-71.644 22.037-21.639 37.381-38.705 38.407-61.703 0.034-1.028-13.752-110.052-48.879-131.724v0l-5.070-3.081c-9.611-5.733-27.538-16.436-49.277-16.436-5.401 0-10.77 0.663-16.967 2.254-6.893 2.022-13.256 4.805-20.015 9.080-16.469 11.366-46.228 35.060-60.676 66.309-13.454 30.752-4.441 187.86 113.365 310.969 111.642 116.812 241.213 122.711 266.067 122.711 6.429 0 15.144-0.298 22.435-1.624l2.817-0.132 6.661-2.518c32.178-13.189 56.865-41.721 68.43-57.197 26.908-34.663 6.329-73.6-0.663-86.79zM445.351 415.096c-10.505 14.050-27.306 31.315-42.616 37.976-1.524 0.232-5.369 0.596-11.565 0.596-20.711 0-128.808-5.070-224.147-104.816-100.044-104.584-104.418-229.814-101.502-248.901 6.561-12.725 21.242-27.704 38.739-39.832 0.498-0.298 1.922-1.126 3.413-1.558 5.534-1.392 15.608 4.606 21.042 7.821l2.386 1.458c8.085 13.487 20.579 63.559 23.263 81.155-3.778 6.429-19.187 21.44-27.737 29.758l-1.028 1.060c-11.897 12.824-15.475 31.184-8.881 47.321 14.184 32.94 45.864 75.257 68.397 98.288 22.103 22.766 59.45 53.387 93.218 70.618 16.304 8.086 36.286 4.805 49.144-7.489 10.074-9.411 25.019-23.395 30.553-26.279 17.63 3.446 67.7 18.159 80.791 26.676l1.060 1.955c7.026 13.421 8.649 20.082 5.467 24.191z"></path>
</svg>
