<?xml version="1.0" encoding="utf-8"?>
<!-- Generated by IcoMoon.io -->
<!DOCTYPE svg PUBLIC "-//W3C//DTD SVG 1.1//EN" "http://www.w3.org/Graphics/SVG/1.1/DTD/svg11.dtd">
<svg version="1.1" xmlns="http://www.w3.org/2000/svg" xmlns:xlink="http://www.w3.org/1999/xlink" width="512" height="512" viewBox="0 0 512 512"><g id="icomoon-ignore">
</g>
<path d="M256 0c-141.385 0-256 114.615-256 256s114.615 256 256 256 256-114.615 256-256-114.615-256-256-256zM403.078 403.078c-19.118 19.118-41.367 34.122-66.13 44.596-25.613 10.833-52.847 16.326-80.948 16.326s-55.336-5.493-80.948-16.326c-24.763-10.474-47.012-25.478-66.13-44.596s-34.122-41.367-44.596-66.13c-10.833-25.613-16.326-52.847-16.326-80.948s5.493-55.336 16.326-80.948c10.474-24.763 25.478-47.012 44.596-66.13s41.367-34.122 66.13-44.596c25.613-10.833 52.847-16.326 80.948-16.326s55.336 5.493 80.948 16.326c24.763 10.474 47.012 25.478 66.13 44.596s34.122 41.367 44.596 66.13c10.833 25.613 16.326 52.847 16.326 80.948s-5.493 55.336-16.326 80.948c-10.474 24.763-25.478 47.012-44.596 66.13z"></path>
<path d="M145.659 367.447l147.025-75.868 75.869-147.025-147.025 75.869-75.869 147.025zM256 224c17.673 0 32 14.327 32 32s-14.327 32-32 32-32-14.327-32-32 14.327-32 32-32z"></path>
</svg>
