<?xml version="1.0" encoding="utf-8"?>
<!-- Generated by IcoMoon.io -->
<!DOCTYPE svg PUBLIC "-//W3C//DTD SVG 1.1//EN" "http://www.w3.org/Graphics/SVG/1.1/DTD/svg11.dtd">
<svg version="1.1" xmlns="http://www.w3.org/2000/svg" xmlns:xlink="http://www.w3.org/1999/xlink" width="512" height="512" viewBox="0 0 512 512"><g id="icomoon-ignore">
</g>
<path d="M352 256.728c0 53.019-42.981 96-96 96s-96-42.981-96-96c0-53.019 42.981-96 96-96s96 42.981 96 96z"></path>
<path d="M32 256c0-0.637 0.002-1.273 0.008-1.909l-31.999-0.267c-0.001 0.069-0.001 0.131-0.001 0.201 0 0.007 0 0.013 0 0.020 0 0.026-0.001 0.048-0.001 0.075-0.003 0.445-0.005 0.889-0.006 1.335v0c0 0.087-0.001 0.173-0.001 0.26 0 0.008 0 0.023 0 0.032 0 0.031 0 0.063 0 0.094 0 0.008 0 0.029 0 0.037 0 0.041 0 0.082 0 0.122 0 0.060 0 0.12 0 0.178 0 0.009 0 0.008 0 0.017 0 0.057 0 0.113 0 0.17 0 0.009 0 0.017 0 0.026 0 0.055 0 0.11 0.001 0.165 0 0.017 0 0.012 0 0.029 0 0.055 0.001 0.109 0.001 0.163 0 0.009 0 0.020 0 0.029 0 0.057 0.001 0.111 0.001 0.167v0.022c0 0.058 0.001 0.115 0.001 0.173v0.012c0 0.057 0.001 0.112 0.001 0.168 0 0.009 0 0.010 0 0.018 0.001 0.055 0.001 0.111 0.001 0.167 0 0.009 0 0.020 0 0.029 0.001 0.055 0.001 0.111 0.001 0.165 0 0.009 0 0.019 0 0.027 0 0.055 0 0.108 0.001 0.162 0 0.009 0 0.026 0.001 0.034 0.001 0.053 0.001 0.108 0.001 0.162 0 0.009 0 0.017 0 0.026 0.001 0.055 0.001 0.113 0.001 0.168 0 0.009 0 0.011 0 0.019 0.001 0.055 0.001 0.109 0.001 0.163 0 0.009 0 0.009 0 0.017 0.001 0.055 0.001 0.111 0.001 0.166 0 0.009 0.001 0.022 0.001 0.031 0.001 0.053 0.001 0.107 0.001 0.161 0 0.009 0.001 0.024 0.001 0.033 0.001 0.053 0.001 0.104 0.002 0.157 0 0.017 0.001 0.022 0.001 0.039 0.001 0.053 0.002 0.106 0.002 0.159 0 0.009 0.001 0.019 0.001 0.027 0.001 0.055 0.002 0.111 0.002 0.167 0 0.009 0 0.013 0.001 0.022 0.001 0.053 0.002 0.105 0.002 0.159 0 0.009 0 0.013 0.001 0.022 0.001 0.053 0.002 0.108 0.002 0.161 0.001 0.017 0.001 0.018 0.001 0.036 0.001 0.053 0.002 0.105 0.002 0.158 0 0.009 0.001 0.026 0.001 0.034 0.001 0.053 0.002 0.106 0.003 0.158 0.001 0.017 0.001 0.019 0.001 0.037 0.001 0.053 0.002 0.105 0.003 0.157 0 0.009 0.001 0.025 0.001 0.034 0.001 0.053 0.002 0.106 0.003 0.159 0 0.009 0.001 0.022 0.001 0.031 0.001 0.053 0.002 0.104 0.003 0.156 0 0.009 0 0.010 0.001 0.018 0.001 0.055 0.002 0.108 0.003 0.162 0.001 0.017 0.001 0.013 0.001 0.031 0.001 0.053 0.002 0.105 0.003 0.157 0 0.009 0.001 0.031 0.001 0.039 0.001 0.051 0.002 0.1 0.003 0.151 0.001 0.017 0.001 0.026 0.001 0.044 0.001 0.050 0.002 0.101 0.003 0.151 0 0.009 0.001 0.033 0.001 0.041 0.001 0.051 0.002 0.103 0.004 0.154 0.001 0.017 0.001 0.019 0.001 0.036 0.001 0.050 0.002 0.099 0.004 0.149 0.001 0.017 0.001 0.017 0.001 0.034 0.001 0.048 0.002 0.094 0.004 0.141 0.001 0.017 0.001 0.026 0.001 0.043 0.001 0.050 0.003 0.1 0.004 0.149 0 0.009 0.001 0.036 0.001 0.045 0.001 0.050 0.003 0.099 0.004 0.147 0.001 0.017 0.001 0.029 0.001 0.046 0.002 0.050 0.003 0.1 0.004 0.15 0.001 0.009 0.001 0.033 0.001 0.041 0.002 0.050 0.003 0.101 0.004 0.151 0.001 0.017 0.001 0.026 0.001 0.043 0.002 0.048 0.003 0.096 0.004 0.144 0 0.009 0.001 0.031 0.001 0.039 0.002 0.046 0.003 0.092 0.004 0.139 0 0.009 0.001 0.029 0.001 0.038 0.002 0.050 0.003 0.101 0.004 0.151 0.001 0.017 0.001 0.026 0.002 0.043 0.002 0.048 0.003 0.096 0.004 0.144 0.001 0.017 0.001 0.038 0.002 0.055 0.002 0.046 0.003 0.092 0.004 0.139 0.001 0.017 0.001 0.038 0.002 0.055 0.002 0.048 0.003 0.094 0.005 0.141 0.001 0.017 0.001 0.033 0.002 0.050 0.001 0.046 0.003 0.093 0.004 0.139 0.001 0.009 0.001 0.039 0.002 0.048 0.002 0.043 0.003 0.087 0.004 0.129 0.001 0.026 0.001 0.030 0.002 0.055 0.002 0.046 0.003 0.088 0.005 0.134 0.001 0.017 0.001 0.031 0.002 0.048 0.002 0.048 0.003 0.094 0.005 0.141 0.001 0.017 0.002 0.039 0.002 0.057 0.002 0.046 0.003 0.091 0.005 0.135 0.001 0.017 0.002 0.041 0.002 0.058 0.002 0.046 0.003 0.091 0.005 0.135 0.001 0.026 0.001 0.034 0.002 0.059 0.002 0.041 0.003 0.082 0.005 0.123 0.001 0.026 0.002 0.043 0.003 0.068 0.002 0.038 0.003 0.075 0.004 0.112 0.001 0.026 0.002 0.046 0.003 0.072 0.002 0.038 0.003 0.077 0.004 0.115 0.001 0.017 0.002 0.042 0.002 0.059 0.002 0.043 0.004 0.089 0.005 0.132 0.001 0.026 0.002 0.038 0.003 0.063 0.002 0.044 0.004 0.087 0.005 0.132 0.001 0.017 0.002 0.046 0.003 0.063 0.002 0.043 0.004 0.087 0.005 0.13 0.001 0.026 0.002 0.040 0.003 0.065 0.002 0.038 0.003 0.075 0.005 0.112 0.001 0.026 0.003 0.057 0.004 0.082 0.002 0.033 0.003 0.063 0.004 0.095 0.002 0.034 0.003 0.062 0.004 0.096 0.002 0.031 0.003 0.064 0.004 0.096 0.001 0.026 0.003 0.063 0.004 0.089 0.002 0.034 0.003 0.069 0.005 0.102 0.001 0.026 0.002 0.048 0.003 0.074 0.002 0.041 0.004 0.080 0.005 0.121 0.001 0.017 0.003 0.057 0.003 0.075 0.002 0.039 0.004 0.080 0.005 0.12 0.001 0.026 0.002 0.050 0.003 0.075 0.002 0.036 0.003 0.071 0.005 0.106 0.002 0.034 0.003 0.052 0.004 0.086 0.002 0.029 0.003 0.058 0.004 0.088 0.002 0.034 0.004 0.075 0.005 0.108 0.001 0.026 0.003 0.052 0.004 0.077 0.002 0.043 0.004 0.073 0.006 0.115 0.001 0.024 0.003 0.051 0.004 0.075 0.002 0.034 0.003 0.065 0.005 0.1 0.002 0.034 0.003 0.065 0.005 0.099 0.001 0.026 0.003 0.052 0.004 0.077 0.002 0.039 0.004 0.079 0.006 0.118 0.001 0.026 0.003 0.053 0.004 0.079 0.002 0.034 0.003 0.065 0.005 0.099s0.003 0.060 0.005 0.094c0.002 0.027 0.003 0.055 0.004 0.083 0.002 0.034 0.004 0.080 0.006 0.114 0.001 0.024 0.003 0.051 0.004 0.075 0.002 0.043 0.004 0.067 0.006 0.109 0.002 0.029 0.003 0.058 0.005 0.087 0.002 0.034 0.003 0.056 0.005 0.091 0.002 0.034 0.004 0.067 0.005 0.1 0.002 0.026 0.003 0.058 0.005 0.084 0.002 0.037 0.004 0.073 0.006 0.111 0.002 0.034 0.003 0.053 0.005 0.087 0.002 0.024 0.003 0.046 0.004 0.071 0.002 0.043 0.004 0.081 0.007 0.123 0.001 0.022 0.003 0.045 0.004 0.067 0.003 0.043 0.005 0.083 0.007 0.125 0.001 0.022 0.003 0.043 0.004 0.065 0.003 0.051 0.005 0.083 0.008 0.134 0.001 0.019 0.002 0.037 0.003 0.057 0.003 0.043 0.006 0.098 0.008 0.14 0.001 0.019 0.002 0.036 0.003 0.055 0.002 0.034 0.004 0.070 0.006 0.104 0.002 0.031 0.004 0.062 0.005 0.091 0.002 0.034 0.004 0.058 0.005 0.092 0.001 0.019 0.002 0.036 0.003 0.055 0.003 0.051 0.006 0.094 0.009 0.145 0.001 0.014 0.002 0.027 0.003 0.041 0.003 0.051 0.006 0.104 0.009 0.156 0.001 0.015 0.002 0.031 0.003 0.046 0.003 0.051 0.006 0.097 0.009 0.148 0.001 0.015 0.002 0.034 0.003 0.049 0.003 0.051 0.006 0.098 0.009 0.149 0.001 0.015 0.002 0.033 0.003 0.048 0.004 0.060 0.006 0.098 0.010 0.157 0.001 0.012 0.002 0.025 0.003 0.038 0.002 0.034 0.004 0.063 0.006 0.097 0.001 0.010 0.002 0.021 0.002 0.032 0.004 0.060 0.007 0.106 0.010 0.165 0.001 0.012 0.002 0.026 0.003 0.038 0.003 0.051 0.007 0.108 0.010 0.159 0.001 0.014 0.001 0.027 0.002 0.041 0.003 0.051 0.007 0.108 0.010 0.159 0 0.010 0.001 0.024 0.002 0.034 0.003 0.051 0.007 0.12 0.011 0.171 0 0.009 0.001 0.017 0.001 0.026 0.011 0.17 0.021 0.327 0.032 0.497 0 0.008 0.001 0.015 0.001 0.024 0.004 0.060 0.008 0.12 0.012 0.179 0 0.007 0.001 0.012 0.001 0.019 0.004 0.068 0.008 0.115 0.012 0.183 0 0.006 0.001 0.012 0.001 0.017 0.004 0.068 0.008 0.118 0.013 0.187 0 0.004 0 0.009 0.001 0.013 0.016 0.238 0.032 0.468 0.049 0.705 0 0.002 0 0.006 0 0.008 0.005 0.068 0.009 0.126 0.014 0.194 0 0.003 0 0.005 0 0.009 0.005 0.068 0.009 0.13 0.014 0.198 0 0.001 0 0 0 0.002 0.017 0.237 0.035 0.473 0.053 0.709 0 0.001 0 0.003 0 0.004 0.005 0.067 0.010 0.13 0.015 0.197 0 0.002 0 0.003 0 0.005 0.005 0.067 0.010 0.13 0.015 0.199 0 0.001 0 0.002 0 0.003 0.445 5.719 1.076 11.384 1.89 16.991 0 0.001 0.001 0.003 0.001 0.004 0.010 0.067 0.018 0.124 0.027 0.19 0.001 0.004 0.001 0.007 0.002 0.011 0.010 0.067 0.018 0.125 0.028 0.191 0 0.001 0.001 0.003 0.001 0.005 0.025 0.166 0.048 0.327 0.073 0.493 0.001 0.004 0.002 0.009 0.002 0.012 0.010 0.067 0.017 0.113 0.026 0.18 0.002 0.009 0.002 0.018 0.004 0.026 0.007 0.050 0.018 0.116 0.025 0.166 0.002 0.010 0.003 0.019 0.005 0.029 0.007 0.050 0.018 0.118 0.026 0.168 0.002 0.009 0.002 0.018 0.004 0.026 0.010 0.066 0.017 0.113 0.027 0.18 0.001 0.005 0.002 0.008 0.002 0.013 0.015 0.099 0.029 0.187 0.043 0.286 0.003 0.018 0.006 0.036 0.008 0.053 0.006 0.041 0.014 0.095 0.021 0.137 0.003 0.019 0.006 0.037 0.009 0.056 0.007 0.050 0.013 0.080 0.020 0.13 0.003 0.020 0.006 0.039 0.009 0.060 0.006 0.041 0.014 0.087 0.020 0.128 0.003 0.021 0.006 0.043 0.010 0.063 0.005 0.033 0.010 0.069 0.016 0.102 0.005 0.029 0.009 0.058 0.014 0.087 0.005 0.033 0.008 0.050 0.013 0.084 0.006 0.036 0.011 0.071 0.017 0.108 0.004 0.025 0.009 0.057 0.013 0.082s0.008 0.051 0.012 0.075c0.006 0.041 0.011 0.072 0.018 0.113 0.004 0.024 0.007 0.048 0.011 0.072 0.005 0.033 0.012 0.077 0.018 0.11 0.004 0.026 0.008 0.052 0.013 0.079 0.006 0.033 0.012 0.074 0.017 0.106 0.004 0.026 0.009 0.053 0.013 0.079 0.006 0.033 0.010 0.058 0.014 0.091 0.005 0.032 0.010 0.065 0.015 0.097 0.004 0.025 0.008 0.050 0.012 0.075 0.006 0.038 0.013 0.077 0.018 0.115 0.004 0.024 0.007 0.047 0.011 0.072 0.006 0.040 0.013 0.080 0.019 0.12 0.004 0.024 0.006 0.041 0.010 0.065 0.006 0.034 0.011 0.068 0.017 0.103 0.004 0.024 0.010 0.060 0.014 0.084 0.005 0.031 0.010 0.062 0.015 0.091 0.006 0.033 0.009 0.053 0.014 0.086s0.011 0.068 0.017 0.102c0.002 0.017 0.007 0.041 0.010 0.058 0.007 0.043 0.014 0.087 0.022 0.13 0.002 0.017 0.006 0.038 0.009 0.055 0.007 0.043 0.015 0.089 0.022 0.133 0.002 0.017 0.006 0.038 0.009 0.055 0.007 0.043 0.014 0.089 0.022 0.132 0.004 0.024 0.005 0.028 0.009 0.053 0.007 0.046 0.015 0.092 0.023 0.137 0.002 0.017 0.005 0.026 0.007 0.043 0.007 0.043 0.014 0.086 0.022 0.128 0.003 0.017 0.006 0.031 0.008 0.048 0.007 0.046 0.015 0.089 0.022 0.135 0.003 0.017 0.003 0.019 0.006 0.036 0.008 0.048 0.016 0.096 0.025 0.144 0.002 0.008 0.006 0.036 0.007 0.045 0.008 0.048 0.017 0.096 0.025 0.144 0.003 0.017 0.004 0.023 0.006 0.039 0.009 0.049 0.017 0.098 0.025 0.147 0.002 0.008 0.005 0.027 0.006 0.036 0.009 0.052 0.018 0.103 0.026 0.155l0.003 0.019c0.010 0.056 0.019 0.111 0.029 0.166l0.002 0.010c0.010 0.055 0.019 0.112 0.029 0.168 0.002 0.008 0 0 0.002 0.009 0.010 0.055 0.019 0.111 0.029 0.166 0.002 0.008 0.002 0.013 0.003 0.022 0.010 0.054 0.019 0.109 0.029 0.163 0.002 0.008 0.002 0.011 0.003 0.019 0.010 0.055 0.019 0.109 0.029 0.163 0.002 0.008 0.002 0.012 0.003 0.019 0.010 0.057 0.020 0.113 0.030 0.169l0.001 0.003c0.16 0.906 0.325 1.81 0.494 2.712l31.449-5.909c-2.561-13.631-3.86-27.644-3.86-41.651z"></path>
<path d="M419.027 102.382l23.285-21.951c-3.214-3.409-6.519-6.73-9.913-9.957v0c-0.047-0.045-0.094-0.090-0.142-0.135v0c-0.046-0.044-0.094-0.088-0.139-0.132l-0.005-0.004c-0.045-0.043-0.090-0.085-0.135-0.128-0.006-0.005-0.004-0.004-0.010-0.009-0.043-0.041-0.087-0.082-0.13-0.124-0.006-0.005-0.007-0.007-0.013-0.012-0.043-0.040-0.086-0.081-0.128-0.121-0.006-0.005-0.007-0.007-0.014-0.013-0.043-0.040-0.085-0.080-0.127-0.121-0.006-0.005-0.009-0.008-0.014-0.014-0.042-0.040-0.084-0.079-0.125-0.118-0.012-0.011-0.007-0.006-0.018-0.017-0.041-0.038-0.080-0.076-0.121-0.114-0.012-0.011-0.012-0.010-0.023-0.022-0.040-0.037-0.079-0.075-0.12-0.112-0.006-0.005-0.017-0.015-0.022-0.020-0.039-0.037-0.080-0.076-0.12-0.112-0.006-0.005-0.017-0.016-0.022-0.021-0.039-0.037-0.079-0.075-0.119-0.111-0.006-0.005-0.019-0.017-0.024-0.023-0.038-0.036-0.078-0.073-0.116-0.109-0.006-0.005-0.020-0.019-0.026-0.024-0.038-0.036-0.079-0.073-0.117-0.109-0.006-0.005-0.019-0.019-0.026-0.024-0.038-0.036-0.079-0.073-0.117-0.109-0.006-0.005-0.019-0.017-0.025-0.023-0.038-0.036-0.077-0.072-0.115-0.108-0.012-0.011-0.018-0.016-0.029-0.028-0.036-0.034-0.073-0.068-0.11-0.102-0.012-0.011-0.022-0.021-0.034-0.031-0.036-0.034-0.072-0.067-0.109-0.102-0.012-0.011-0.022-0.020-0.034-0.031-0.036-0.034-0.072-0.067-0.109-0.101-0.012-0.011-0.024-0.022-0.036-0.034-0.034-0.032-0.070-0.064-0.103-0.096-0.017-0.016-0.034-0.031-0.051-0.047-0.030-0.028-0.060-0.056-0.091-0.084-0.017-0.016-0.036-0.034-0.054-0.050-0.031-0.028-0.060-0.055-0.091-0.084-0.017-0.016-0.037-0.034-0.055-0.050-0.030-0.028-0.060-0.055-0.089-0.082-0.024-0.022-0.032-0.029-0.055-0.051-0.027-0.025-0.057-0.052-0.084-0.078-0.024-0.022-0.041-0.037-0.064-0.058-0.026-0.023-0.050-0.046-0.076-0.070-0.024-0.022-0.048-0.044-0.072-0.066s-0.048-0.043-0.072-0.066c-0.024-0.022-0.048-0.043-0.072-0.066s-0.050-0.046-0.075-0.068c-0.024-0.022-0.046-0.043-0.070-0.064s-0.048-0.043-0.072-0.066c-0.024-0.022-0.050-0.045-0.073-0.067s-0.048-0.043-0.072-0.066c-0.024-0.022-0.049-0.045-0.073-0.067s-0.049-0.044-0.074-0.067c-0.024-0.022-0.045-0.041-0.068-0.063-0.029-0.026-0.058-0.052-0.087-0.079-0.017-0.016-0.038-0.035-0.056-0.051-0.026-0.024-0.053-0.048-0.079-0.072-0.024-0.022-0.046-0.041-0.069-0.063-0.022-0.020-0.045-0.040-0.067-0.061-0.029-0.027-0.050-0.046-0.080-0.073-0.019-0.017-0.039-0.035-0.058-0.053-0.029-0.027-0.055-0.050-0.086-0.077-0.024-0.022-0.048-0.044-0.073-0.066s-0.048-0.043-0.072-0.064c-0.018-0.016-0.037-0.034-0.055-0.050-0.029-0.027-0.061-0.055-0.091-0.082-0.007-0.007-0.014-0.013-0.022-0.019-0.107-0.097-0.208-0.188-0.315-0.284-0.007-0.006-0.015-0.013-0.022-0.019-0.19-0.171-0.374-0.335-0.565-0.505-0.002-0.002-0.006-0.005-0.008-0.007-0.048-0.043-0.093-0.083-0.141-0.126-0-0.001-0-0.001-0.002-0.001-0.144-0.128-0.282-0.251-0.425-0.379-0.002-0.002-0.005-0.004-0.007-0.006-6.080-5.395-12.416-10.503-18.993-15.306v0c-0.052-0.038-0.096-0.071-0.149-0.108-0.005-0.004-0.010-0.007-0.014-0.011-0.052-0.038-0.092-0.067-0.144-0.105-0.003-0.002-0.007-0.005-0.010-0.008-0.052-0.038-0.091-0.066-0.144-0.105-0.005-0.004-0.010-0.008-0.015-0.011-0.052-0.038-0.090-0.066-0.142-0.103-0.004-0.003-0.010-0.007-0.014-0.010-0.052-0.038-0.087-0.063-0.139-0.1-0.008-0.006-0.017-0.013-0.025-0.018-0.046-0.033-0.088-0.063-0.133-0.096-0.007-0.005-0.014-0.010-0.022-0.016-0.046-0.033-0.086-0.063-0.132-0.095-0.012-0.008-0.022-0.016-0.034-0.025-0.046-0.033-0.077-0.056-0.123-0.089-0.013-0.010-0.026-0.019-0.039-0.029-0.033-0.023-0.082-0.059-0.114-0.082-0.017-0.012-0.034-0.025-0.050-0.036-0.039-0.028-0.070-0.050-0.11-0.078-0.017-0.013-0.033-0.023-0.050-0.036-0.039-0.028-0.065-0.047-0.104-0.075-0.022-0.016-0.044-0.032-0.065-0.047-0.033-0.023-0.061-0.044-0.094-0.067-0.025-0.018-0.051-0.037-0.077-0.054-0.026-0.019-0.053-0.038-0.079-0.057-0.029-0.020-0.058-0.041-0.087-0.062-0.013-0.010-0.022-0.016-0.034-0.025v0l-18.609 26.032c11.848 8.469 22.926 18.143 32.928 28.753z"></path>
<path d="M18.398 351.479c2.251 5.596 4.693 11.094 7.32 16.486l0.002 0.003c0.028 0.058 0.056 0.115 0.084 0.173l0.001 0.002c0.029 0.058 0.056 0.115 0.084 0.173l0.002 0.003c0.028 0.057 0.056 0.115 0.084 0.171l0.003 0.007c0.027 0.056 0.054 0.111 0.081 0.166l0.006 0.012c0.027 0.055 0.054 0.11 0.081 0.164l0.004 0.008c0.027 0.055 0.055 0.111 0.082 0.168l0.004 0.008c0.027 0.055 0.055 0.111 0.082 0.168 0.003 0.007 0 0.001 0.004 0.009 0.027 0.055 0.055 0.111 0.082 0.166 0.003 0.007 0.002 0.003 0.005 0.010 0.027 0.055 0.055 0.111 0.082 0.166 0.003 0.007 0 0 0.003 0.007 0.028 0.057 0.055 0.111 0.084 0.168 0.003 0.007-0-0 0.003 0.007 0.028 0.057 0.055 0.111 0.084 0.168 0.003 0.007 0 0.002 0.005 0.009 0.027 0.055 0.054 0.108 0.081 0.163 0.003 0.007 0.003 0.007 0.007 0.014 0.027 0.053 0.053 0.108 0.081 0.161 0.003 0.007 0.003 0.005 0.006 0.013 0.027 0.053 0.055 0.109 0.081 0.163l0.006 0.011c0.027 0.055 0.055 0.108 0.082 0.163l0.006 0.012c0.027 0.055 0.053 0.107 0.081 0.161l0.007 0.014c0.027 0.055 0.054 0.107 0.081 0.161l0.006 0.012c0.027 0.055 0.054 0.107 0.081 0.161l0.006 0.013c0.027 0.053 0.054 0.108 0.081 0.161l0.007 0.014c0.026 0.053 0.053 0.104 0.079 0.158 0.003 0.007 0.006 0.012 0.010 0.019 0.026 0.053 0.052 0.103 0.079 0.156 0.003 0.007 0.006 0.010 0.009 0.018 0.026 0.053 0.053 0.105 0.080 0.158 0.003 0.007 0.004 0.009 0.008 0.015 0.026 0.053 0.055 0.107 0.081 0.159 0.003 0.007 0.003 0.007 0.007 0.014 0.027 0.053 0.053 0.106 0.081 0.159 0.003 0.007 0.005 0.009 0.009 0.016 0.027 0.053 0.054 0.106 0.081 0.159 0.003 0.007 0.003 0.007 0.007 0.014 0.028 0.055 0.055 0.108 0.083 0.163 0.003 0.007 0.001 0.002 0.005 0.009 0.028 0.055 0.055 0.108 0.083 0.162 0.003 0.007 0.003 0.007 0.007 0.014 0.027 0.053 0.054 0.106 0.081 0.158 0.003 0.007 0.005 0.010 0.009 0.017 0.027 0.053 0.055 0.106 0.081 0.159 0.003 0.007 0.003 0.007 0.007 0.014 0.027 0.053 0.055 0.108 0.083 0.161 0.003 0.007 0.003 0.005 0.006 0.012 0.027 0.053 0.055 0.108 0.083 0.161 0.003 0.007 0.003 0.005 0.006 0.012 0.027 0.053 0.055 0.106 0.082 0.159 0.003 0.007 0.004 0.008 0.008 0.015 0.027 0.053 0.055 0.107 0.083 0.16l0.006 0.012c0.028 0.054 0.056 0.108 0.084 0.163l0.006 0.010c0.028 0.054 0.056 0.108 0.084 0.161l0.006 0.013c0.027 0.053 0.055 0.105 0.082 0.158l0.009 0.017c0.028 0.053 0.055 0.106 0.084 0.159l0.006 0.012c0.029 0.055 0.056 0.108 0.085 0.163l0.006 0.010c0.029 0.055 0.057 0.108 0.085 0.163l0.005 0.010c0.029 0.054 0.057 0.108 0.085 0.163 0.004 0.007 0.002 0.003 0.006 0.011 0.029 0.056 0.058 0.111 0.087 0.167 0.004 0.007-0.002-0.003 0.002 0.003 0.030 0.058 0.060 0.113 0.090 0.171v0c0.030 0.057 0.060 0.113 0.090 0.17 0.004 0.007-0.002-0.003 0.002 0.003 0.029 0.055 0.058 0.111 0.088 0.166 0.004 0.007 0 0 0.003 0.007 0.030 0.057 0.060 0.113 0.090 0.17l0 0.002c0.213 0.402 0.427 0.803 0.642 1.204l0.002 0.003c0.030 0.057 0.061 0.112 0.090 0.168l0.001 0.002c0.031 0.058 0.061 0.113 0.092 0.171l0 0.001c0.061 0.115 0.122 0.228 0.184 0.341 0.004 0.007-0.002-0.004 0.002 0.003 0.030 0.055 0.061 0.113 0.091 0.168 0.004 0.007-0.002-0.002 0.003 0.005 0.030 0.056 0.061 0.111 0.091 0.168l0.001 0.002c0.030 0.056 0.061 0.113 0.092 0.169l0.003 0.005c0.030 0.055 0.059 0.11 0.090 0.164l0.006 0.010c0.029 0.053 0.058 0.108 0.088 0.161l0.005 0.010c0.029 0.055 0.058 0.108 0.088 0.161l0.006 0.010c0.029 0.053 0.058 0.107 0.088 0.161l0.006 0.012c0.029 0.053 0.058 0.104 0.086 0.157l0.009 0.016c0.029 0.051 0.057 0.103 0.085 0.156l0.008 0.014c0.029 0.053 0.057 0.103 0.086 0.156 0.004 0.007 0.005 0.009 0.009 0.015 0.028 0.050 0.056 0.103 0.084 0.153 0.004 0.007 0.008 0.014 0.012 0.021 0.027 0.049 0.055 0.099 0.081 0.148 0.004 0.007 0.011 0.019 0.015 0.026 0.026 0.048 0.054 0.098 0.081 0.145 0.004 0.007 0.009 0.016 0.012 0.023 0.027 0.050 0.055 0.099 0.082 0.149 0.004 0.007 0.008 0.014 0.012 0.022 0.028 0.050 0.055 0.099 0.083 0.149 0.004 0.007 0.008 0.015 0.013 0.022 0.027 0.049 0.054 0.098 0.082 0.147 0.004 0.007 0.010 0.017 0.014 0.024 0.027 0.048 0.054 0.096 0.081 0.146 0.004 0.007 0.010 0.017 0.014 0.024 0.028 0.050 0.055 0.099 0.083 0.148 0.004 0.007 0.007 0.013 0.011 0.020 0.028 0.050 0.055 0.099 0.083 0.148 0.004 0.007 0.010 0.017 0.014 0.024 0.027 0.048 0.054 0.096 0.081 0.144 0.004 0.007 0.011 0.020 0.016 0.027 0.027 0.048 0.054 0.096 0.081 0.144 0.004 0.007 0.010 0.017 0.014 0.024 0.028 0.048 0.054 0.097 0.082 0.146 0.004 0.007 0.010 0.017 0.014 0.024 0.028 0.048 0.054 0.097 0.082 0.146 0.004 0.007 0.010 0.017 0.014 0.024 0.027 0.048 0.054 0.096 0.081 0.144 0.008 0.014 0.007 0.012 0.014 0.026 0.028 0.048 0.054 0.096 0.082 0.144 0.008 0.014 0.005 0.009 0.013 0.023 0.028 0.048 0.054 0.096 0.082 0.145 0.008 0.014 0.007 0.012 0.014 0.026 0.027 0.048 0.054 0.096 0.081 0.143 0.008 0.014 0.007 0.012 0.015 0.026 0.026 0.047 0.053 0.094 0.080 0.14 0.008 0.014 0.010 0.017 0.017 0.031 0.026 0.046 0.053 0.093 0.080 0.139 0.004 0.007 0.011 0.020 0.016 0.027 0.027 0.048 0.054 0.096 0.082 0.144 0.004 0.007 0.010 0.017 0.014 0.024 0.028 0.050 0.056 0.097 0.084 0.146 0.004 0.007 0.008 0.014 0.013 0.022 0.028 0.048 0.056 0.097 0.084 0.146 0.004 0.007 0.011 0.018 0.014 0.025 0.028 0.050 0.056 0.096 0.084 0.146 0.004 0.007 0.008 0.014 0.012 0.021 0.029 0.050 0.056 0.099 0.086 0.149 0.004 0.007 0.008 0.013 0.011 0.020 0.029 0.049 0.056 0.097 0.084 0.147 0.004 0.007 0.010 0.017 0.014 0.024 0.028 0.048 0.055 0.096 0.083 0.143 0.004 0.007 0.011 0.020 0.016 0.027 0.028 0.048 0.054 0.094 0.082 0.142 0.004 0.007 0.011 0.019 0.015 0.026 0.028 0.048 0.055 0.096 0.083 0.142 0.004 0.007 0.011 0.019 0.015 0.026 0.028 0.048 0.055 0.094 0.083 0.142 0.004 0.007 0.011 0.019 0.016 0.026 0.027 0.046 0.054 0.094 0.081 0.14 0.008 0.014 0.009 0.015 0.017 0.029 0.028 0.048 0.054 0.094 0.082 0.142 0.004 0.007 0.011 0.018 0.014 0.025 0.028 0.048 0.056 0.096 0.083 0.143 0.008 0.014 0.007 0.012 0.015 0.026 0.027 0.046 0.054 0.094 0.081 0.139 0.008 0.014 0.009 0.015 0.017 0.029 0.027 0.046 0.054 0.092 0.081 0.139 0.008 0.014 0.009 0.015 0.017 0.029 0.028 0.048 0.056 0.094 0.083 0.142 0.004 0.007 0.010 0.017 0.014 0.024 0.029 0.049 0.057 0.097 0.086 0.146 0.004 0.007 0.008 0.014 0.012 0.021 0.029 0.049 0.059 0.099 0.087 0.148 0.004 0.007 0.007 0.012 0.011 0.019 0.029 0.049 0.057 0.098 0.087 0.147 0.004 0.007 0.009 0.015 0.013 0.022 0.029 0.050 0.059 0.099 0.087 0.149 0.004 0.007 0.006 0.010 0.010 0.017 0.030 0.050 0.059 0.101 0.090 0.151 0.004 0.007 0.005 0.009 0.009 0.015 0.030 0.050 0.060 0.102 0.090 0.152 0.004 0.007 0.005 0.007 0.008 0.014 0.029 0.049 0.059 0.099 0.087 0.147 0.004 0.007 0.011 0.017 0.014 0.024 0.029 0.050 0.058 0.098 0.087 0.147 0.004 0.007 0.005 0.009 0.010 0.015 0.029 0.050 0.060 0.101 0.090 0.151 0.004 0.007 0.008 0.013 0.012 0.020 0.029 0.050 0.059 0.098 0.088 0.148 0.004 0.007 0.008 0.013 0.012 0.020 0.029 0.048 0.059 0.098 0.087 0.147 0.008 0.014 0.005 0.010 0.014 0.023 0.029 0.050 0.059 0.098 0.088 0.147l0.011 0.018c0.029 0.050 0.059 0.099 0.090 0.149 0.004 0.007 0.008 0.014 0.013 0.021 0.029 0.048 0.059 0.098 0.087 0.145 0.004 0.007 0.011 0.017 0.014 0.024 0.029 0.048 0.056 0.094 0.085 0.141 0.004 0.007 0.013 0.022 0.017 0.029 0.029 0.048 0.058 0.096 0.087 0.144 0.004 0.007 0.006 0.010 0.010 0.017 0.031 0.050 0.060 0.1 0.090 0.151 0.004 0.007 0.005 0.009 0.010 0.015 0.031 0.050 0.060 0.1 0.091 0.151 0.004 0.007 0.005 0.010 0.010 0.017 0.030 0.050 0.060 0.099 0.090 0.149 0.004 0.007 0.008 0.014 0.013 0.021 0.029 0.048 0.059 0.098 0.089 0.147 0.004 0.007 0.005 0.009 0.010 0.015 0.031 0.050 0.060 0.1 0.092 0.151 0.004 0.007 0.007 0.011 0.011 0.018 0.029 0.048 0.060 0.099 0.090 0.147 0.004 0.007 0.008 0.014 0.013 0.021 0.029 0.048 0.058 0.096 0.087 0.143 0.008 0.014 0.008 0.014 0.017 0.027 0.029 0.046 0.056 0.092 0.085 0.139 0.008 0.014 0.006 0.010 0.014 0.024 0.029 0.046 0.058 0.095 0.087 0.142 0.008 0.014 0.008 0.012 0.016 0.026 0.029 0.046 0.057 0.092 0.086 0.139 0.008 0.014 0.008 0.012 0.016 0.026 0.029 0.046 0.056 0.091 0.085 0.139 0.008 0.014 0.010 0.017 0.019 0.030 0.028 0.046 0.056 0.091 0.084 0.137 0.004 0.007 0.011 0.019 0.016 0.025 0.028 0.046 0.057 0.093 0.086 0.139 0.004 0.007 0.014 0.022 0.019 0.029 0.028 0.045 0.056 0.090 0.083 0.135 0.004 0.007 0.015 0.024 0.020 0.031 0.027 0.044 0.054 0.089 0.081 0.132 0.004 0.007 0.017 0.029 0.022 0.036 0.027 0.044 0.054 0.087 0.081 0.131 0.004 0.007 0.015 0.024 0.019 0.031 0.028 0.045 0.055 0.089 0.083 0.134 0.004 0.007 0.016 0.025 0.020 0.032 0.028 0.045 0.056 0.091 0.084 0.135 0.004 0.007 0.013 0.019 0.017 0.026 0.029 0.046 0.057 0.092 0.086 0.137 0.004 0.007 0.014 0.022 0.017 0.029 0.029 0.046 0.057 0.091 0.086 0.138 0.004 0.007 0.011 0.017 0.016 0.024 0.029 0.046 0.057 0.092 0.087 0.139 0.004 0.007 0.014 0.022 0.017 0.029 0.029 0.046 0.057 0.091 0.085 0.137 0.004 0.007 0.014 0.022 0.017 0.029 0.028 0.045 0.057 0.091 0.084 0.135 0.008 0.014 0.011 0.017 0.020 0.031 0.029 0.046 0.056 0.090 0.085 0.135 0.004 0.007 0.012 0.019 0.017 0.026 0.029 0.046 0.057 0.091 0.086 0.137 0.008 0.014 0.010 0.015 0.018 0.029 0.029 0.046 0.057 0.091 0.086 0.137 0.008 0.014 0.008 0.012 0.017 0.026 0.029 0.046 0.057 0.091 0.087 0.137 0.008 0.014 0.010 0.015 0.019 0.029 0.029 0.046 0.059 0.093 0.087 0.138 0.008 0.014 0.005 0.009 0.014 0.022 0.029 0.047 0.059 0.094 0.089 0.14 0.008 0.014 0.008 0.012 0.016 0.026 0.029 0.046 0.059 0.093 0.088 0.139 0.005 0.007 0.011 0.018 0.016 0.025 0.028 0.045 0.057 0.091 0.086 0.135 0.008 0.014 0.013 0.019 0.021 0.033 0.028 0.045 0.057 0.089 0.085 0.134 0.005 0.007 0.013 0.020 0.017 0.026 0.029 0.046 0.059 0.092 0.087 0.137 0.005 0.007 0.013 0.020 0.017 0.027 0.029 0.046 0.059 0.092 0.089 0.139 0.005 0.007 0.011 0.017 0.015 0.024 0.029 0.046 0.059 0.092 0.089 0.139 0.005 0.007 0.013 0.019 0.017 0.026 0.031 0.048 0.060 0.094 0.091 0.142 0.005 0.007 0.007 0.010 0.011 0.017 0.031 0.048 0.062 0.097 0.093 0.146 0.005 0.007 0.008 0.012 0.013 0.019 0.031 0.048 0.062 0.096 0.093 0.145 0.005 0.007 0.007 0.011 0.011 0.018 0.030 0.047 0.060 0.094 0.090 0.141 0.005 0.007 0.012 0.019 0.017 0.026 0.030 0.047 0.060 0.093 0.090 0.14 0.005 0.007 0.010 0.014 0.014 0.022 0.030 0.046 0.060 0.093 0.090 0.139 0.005 0.007 0.011 0.018 0.016 0.025 0.029 0.046 0.060 0.094 0.090 0.139 0.005 0.007 0.011 0.016 0.014 0.022 0.031 0.046 0.059 0.092 0.090 0.139 0.005 0.007 0.011 0.018 0.016 0.025 0.031 0.048 0.063 0.096 0.093 0.144l0.011 0.016c0.031 0.048 0.062 0.094 0.093 0.142 0.008 0.014 0.007 0.010 0.016 0.024 0.031 0.046 0.060 0.093 0.090 0.139 0.008 0.014 0.006 0.009 0.014 0.022 0.030 0.046 0.060 0.091 0.090 0.137 0.005 0.007 0.007 0.010 0.011 0.017l26.797-17.491c-7.969-12.208-14.759-25.235-20.182-38.717l-29.689 11.942z"></path>
<path d="M495.188 164.563c-6-15.685-13.497-30.628-22.318-44.655l-27.089 17.035c7.76 12.34 14.327 25.479 19.519 39.053l29.888-11.433z"></path>
<path d="M361.46 22.663c-5.138-2.326-10.365-4.486-15.678-6.477-0.007-0.003-0.003-0.002-0.012-0.004-0.020-0.008-0.039-0.015-0.060-0.022-0.015-0.006-0.019-0.007-0.034-0.013-0.023-0.009-0.046-0.017-0.069-0.026-0.007-0.003-0.012-0.005-0.021-0.008-0.024-0.009-0.048-0.017-0.072-0.026-0.007-0.003-0.012-0.005-0.020-0.008-0.022-0.008-0.045-0.017-0.067-0.025-0.007-0.003-0.018-0.007-0.026-0.009-0.017-0.006-0.035-0.013-0.053-0.020-0.015-0.006-0.026-0.009-0.041-0.015s-0.029-0.011-0.043-0.016c-0.015-0.005-0.034-0.013-0.050-0.018-0.014-0.005-0.025-0.009-0.038-0.014-0.023-0.008-0.029-0.011-0.051-0.019-0.014-0.005-0.026-0.010-0.039-0.014-0.023-0.008-0.032-0.012-0.055-0.021-0.007-0.002-0.014-0.005-0.021-0.008-0.023-0.008-0.050-0.018-0.073-0.027-0.005-0.002-0.010-0.004-0.014-0.005-0.023-0.008-0.052-0.020-0.075-0.028-0.009-0.003-0.017-0.007-0.026-0.009-0.023-0.008-0.043-0.016-0.065-0.024-0.009-0.003-0.017-0.007-0.026-0.009-0.023-0.008-0.045-0.017-0.068-0.025-0.004-0.002-0.008-0.003-0.012-0.005-0.031-0.011-0.049-0.018-0.079-0.030-0.005-0.002-0.009-0.004-0.014-0.005-0.023-0.008-0.055-0.020-0.077-0.028-0.005-0.002-0.010-0.004-0.014-0.005-0.023-0.008-0.055-0.020-0.077-0.028-0.005-0.002-0.009-0.004-0.015-0.005-0.023-0.008-0.057-0.021-0.079-0.029-0.001-0.001 0 0-0.001-0.001-0.061-0.023-0.121-0.044-0.182-0.067-0.003-0.001-0.003-0.001-0.006-0.002-0.031-0.011-0.052-0.019-0.082-0.030-0.007-0.003-0.014-0.005-0.022-0.008-0.023-0.008-0.049-0.018-0.072-0.026-0.004-0.002-0.006-0.002-0.010-0.004-0.031-0.011-0.053-0.020-0.084-0.030-0.001-0.001 0 0-0.001-0.001-0.031-0.011-0.060-0.022-0.091-0.034-0.001-0.001 0.001 0.001 0 0-0.031-0.011-0.060-0.021-0.090-0.033-0.003-0.001-0.005-0.002-0.009-0.003-0.123-0.044-0.238-0.087-0.361-0.132h-0c-9.456-3.429-19.166-6.316-29.104-8.626v0l-7.244 31.169c14.165 3.292 28.069 8.004 41.326 14.005l13.197-29.152z"></path>
<path d="M75.75 74.215c-0.005 0.005-0.008 0.008-0.013 0.013-0.036 0.036-0.072 0.071-0.108 0.106-0.011 0.011-0.017 0.017-0.028 0.028-0.037 0.037-0.074 0.073-0.111 0.11-0.011 0.011-0.016 0.016-0.028 0.027-0.037 0.037-0.074 0.074-0.112 0.111-0.011 0.011-0.013 0.013-0.025 0.025-0.038 0.038-0.077 0.076-0.115 0.115-0.011 0.011-0.010 0.010-0.022 0.022-0.041 0.041-0.082 0.082-0.123 0.122-0.005 0.005-0.007 0.007-0.012 0.012-0.041 0.041-0.084 0.084-0.126 0.126-0.005 0.005-0.007 0.007-0.012 0.012-0.043 0.043-0.085 0.085-0.127 0.127-0.005 0.005-0.004 0.004-0.010 0.010-0.043 0.043-0.083 0.083-0.126 0.126-0.005 0.005-0.009 0.010-0.015 0.015-0.043 0.043-0.085 0.085-0.127 0.129l-0.007 0.007c-0.044 0.044-0.089 0.090-0.133 0.134l-0.005 0.005c-0.043 0.044-0.088 0.088-0.131 0.132-0.005 0.005-0.002 0.002-0.008 0.008-0.042 0.043-0.086 0.087-0.128 0.129-0.005 0.005-0.007 0.007-0.012 0.012-0.041 0.042-0.084 0.085-0.126 0.127-0.005 0.005-0.004 0.004-0.010 0.010-0.042 0.043-0.085 0.085-0.126 0.128-0.005 0.005-0.006 0.006-0.012 0.012-0.041 0.042-0.084 0.085-0.125 0.127l-0.011 0.011c-0.041 0.042-0.082 0.083-0.123 0.125-0.011 0.011-0.007 0.007-0.017 0.018-0.040 0.041-0.081 0.082-0.121 0.123l-0.012 0.012c-0.041 0.042-0.083 0.084-0.124 0.126-0.005 0.006-0.008 0.008-0.013 0.014-0.041 0.042-0.082 0.084-0.123 0.126-0.005 0.005-0.007 0.007-0.013 0.013-0.041 0.042-0.082 0.084-0.124 0.126-0.005 0.006-0.007 0.007-0.013 0.013-0.042 0.043-0.084 0.085-0.125 0.128-0.005 0.005-0.003 0.003-0.008 0.009-0.043 0.043-0.085 0.087-0.127 0.13-0.005 0.006-0.005 0.005-0.010 0.010-0.042 0.043-0.084 0.085-0.125 0.129-0.005 0.005-0.005 0.005-0.011 0.011-0.041 0.042-0.082 0.085-0.124 0.127l-0.014 0.014c-0.041 0.042-0.082 0.085-0.124 0.127l-0.010 0.011c-0.041 0.043-0.082 0.085-0.124 0.128-0.005 0.006-0.007 0.007-0.013 0.013-0.041 0.043-0.083 0.085-0.124 0.129-0.005 0.006-0.004 0.004-0.010 0.010-0.041 0.043-0.084 0.086-0.125 0.129-0.005 0.006-0.006 0.007-0.011 0.012-0.043 0.044-0.085 0.088-0.127 0.132-0.005 0.006-0.001 0.001-0.006 0.006-0.043 0.044-0.085 0.089-0.129 0.133-0.005 0.006-0.001 0.001-0.007 0.007-0.043 0.044-0.085 0.088-0.128 0.133l-0.007 0.007c-0.042 0.044-0.085 0.088-0.127 0.132l-0.009 0.010c-10.091 10.504-19.296 21.868-27.49 33.97l26.496 17.942c8.163-12.055 17.553-23.374 27.909-33.643l-22.532-22.722z"></path>
<path d="M256 32c2.532 0 5.096 0.042 7.62 0.127l1.067-31.982c-1.981-0.066-3.969-0.11-5.961-0.131h-0.005c-0.089-0.001-0.178-0.002-0.267-0.003-0.009 0-0.001 0-0.010 0-0.039-0.001-0.079-0.001-0.119-0.001-0.009 0-0.010 0-0.018 0-0.087-0.001-0.173-0.001-0.259-0.002-0.009 0-0.010 0-0.019 0-0.036-0.001-0.070-0.001-0.106-0.001-0.009 0-0.021 0-0.030 0-0.041-0.001-0.081-0.001-0.122-0.001h-0.002c-0.044-0-0.089-0-0.132-0.001h-0.012c-0.038-0.001-0.075-0.001-0.113-0.001-0.009 0-0.018 0-0.027 0-0.037 0-0.074-0.001-0.111-0.001-0.009 0-0.007 0-0.016 0-0.043 0-0.085-0.001-0.127-0.001-0.009 0-0.012 0-0.020 0-0.033 0-0.067-0.001-0.1-0.001-0.017 0-0.026 0-0.043 0-0.030 0-0.060 0-0.089-0.001-0.017 0-0.016 0-0.033 0-0.041 0-0.082-0.001-0.124-0.001-0.009 0-0.009 0-0.017 0-0.034 0-0.070 0-0.104-0.001-0.017 0-0.022 0-0.039 0-0.029 0-0.058 0-0.088 0-0.009 0-0.030 0-0.038 0-0.041 0-0.082 0-0.122 0-0.009 0-0.001 0-0.010 0-0.037 0-0.075 0-0.112 0-0.009 0-0.031 0-0.039 0-0.029 0-0.059 0-0.089 0-0.009 0-0.030 0-0.039 0-0.041 0-0.082 0-0.122 0-0.035 0-0.067 0-0.102 0-0.011 0-0.022 0-0.032 0-0.026 0-0.042 0-0.069 0-0.013 0-0.027 0-0.041 0-0.026 0-0.036 0-0.063 0-0.012 0-0.024 0-0.037 0-0.026 0-0.037 0-0.064 0-0.016 0-0.033 0-0.048 0-0.017 0-0.035 0-0.052 0s-0.032 0-0.049 0c-0.026 0-0.028 0-0.053 0-0.016 0-0.032 0-0.048 0-0.017 0-0.037 0-0.054 0-0.014 0-0.031 0-0.046 0-0.017 0-0.038 0-0.055 0s-0.033 0-0.049 0c-0.017 0-0.035 0-0.052 0-0.016 0-0.032 0-0.048 0-0.017 0-0.037 0-0.055 0-0.016 0-0.030 0-0.046 0-0.017 0-0.039 0-0.056 0-0.014 0-0.031 0-0.046 0-0.017 0-0.037 0-0.054 0s-0.034 0-0.050 0.001c-0.017 0-0.033 0-0.050 0.001s-0.033 0-0.049 0.001c-0.017 0-0.036 0-0.053 0.001s-0.031 0-0.048 0.001c-0.017 0-0.038 0-0.055 0.001-0.016 0-0.029 0-0.044 0.001-0.017 0-0.038 0-0.055 0.001-0.016 0-0.034 0-0.049 0.001-0.017 0-0.034 0-0.051 0.001s-0.032 0-0.049 0.001c-0.017 0-0.038 0.001-0.055 0.001-0.016 0-0.030 0-0.046 0.001-0.017 0-0.044 0.001-0.061 0.001-0.012 0-0.025 0-0.038 0.001-0.026 0-0.034 0.001-0.060 0.001-0.016 0-0.030 0-0.046 0.001-0.026 0-0.028 0.001-0.054 0.001-0.016 0-0.030 0.001-0.046 0.001-0.026 0-0.036 0.001-0.061 0.001-0.013 0-0.027 0.001-0.041 0.001-0.026 0.001-0.049 0.001-0.075 0.001-0.008 0-0.017 0-0.025 0-0.026 0.001-0.042 0.001-0.068 0.001-0.012 0-0.024 0.001-0.036 0.001-0.069 0.001-0.134 0.001-0.202 0.002-0.002 0-0.004 0-0.006 0-0.035 0.001-0.062 0.001-0.096 0.001-0.008 0-0.016 0-0.024 0.001-0.026 0.001-0.047 0.001-0.073 0.001-0.018 0-0.034 0.001-0.051 0.001s-0.036 0.001-0.053 0.001c-0.012 0-0.028 0.001-0.040 0.001-0.026 0.001-0.036 0.001-0.061 0.001-0.013 0-0.026 0.001-0.040 0.001-0.026 0.001-0.036 0.001-0.062 0.001-0.016 0-0.031 0.001-0.047 0.001-0.017 0-0.033 0.001-0.050 0.001-0.019 0.001-0.037 0.001-0.058 0.001-0.008 0-0.035 0.001-0.043 0.001-0.018 0.001-0.036 0.001-0.055 0.001-0.017 0.001-0.030 0.001-0.048 0.001-0.017 0-0.033 0.001-0.049 0.001s-0.036 0.001-0.053 0.001-0.033 0.001-0.050 0.001c-0.017 0.001-0.030 0.001-0.047 0.001-0.018 0.001-0.036 0.001-0.055 0.001-0.017 0.001-0.031 0.001-0.048 0.001s-0.035 0.001-0.052 0.001c-0.017 0.001-0.030 0.001-0.047 0.001-0.018 0.001-0.036 0.001-0.055 0.001-0.017 0.001-0.030 0.001-0.048 0.001s-0.037 0.001-0.055 0.001c-0.017 0.001-0.022 0.001-0.039 0.001-0.020 0.001-0.043 0.001-0.064 0.001-0.017 0.001-0.021 0.001-0.038 0.001-0.019 0.001-0.041 0.001-0.060 0.001-0.008 0-0.032 0.001-0.041 0.001-0.020 0.001-0.040 0.001-0.061 0.001-0.008 0-0.031 0.001-0.040 0.001-0.020 0.001-0.042 0.001-0.062 0.001-0.008 0-0.025 0.001-0.034 0.001-0.022 0.001-0.044 0.001-0.066 0.001-0.008 0-0.029 0.001-0.037 0.001-0.022 0.001-0.041 0.001-0.063 0.001-0.008 0-0.030 0.001-0.038 0.001-0.020 0.001-0.040 0.001-0.060 0.001-0.017 0.001-0.028 0.001-0.045 0.001-0.019 0.001-0.037 0.001-0.058 0.001-0.008 0-0.018 0.001-0.027 0.001-0.191 0.004-0.381 0.007-0.572 0.012h-0c-0.027 0.001-0.053 0.001-0.079 0.002-0.008 0-0.013 0.001-0.022 0.001-0.025 0.001-0.052 0.001-0.076 0.002l-0.024 0.001c-0.026 0.001-0.052 0.001-0.078 0.002-0.008 0-0.013 0.001-0.022 0.001-0.026 0.001-0.050 0.001-0.076 0.002-0.008 0-0.018 0.001-0.026 0.001-0.022 0.001-0.042 0.001-0.064 0.002-0.008 0-0.032 0.001-0.041 0.001-0.019 0.001-0.040 0.001-0.059 0.002-0.008 0-0.032 0.001-0.041 0.001-0.020 0.001-0.041 0.001-0.061 0.002-0.008 0-0.030 0.001-0.038 0.001-0.020 0.001-0.042 0.001-0.063 0.002-0.008 0-0.031 0.001-0.040 0.001-0.018 0.001-0.037 0.001-0.055 0.002-0.017 0.001-0.030 0.001-0.047 0.001-0.020 0.001-0.041 0.001-0.061 0.002-0.017 0.001-0.016 0.001-0.033 0.001-0.024 0.001-0.048 0.001-0.071 0.002-0.008 0-0.017 0.001-0.025 0.001-0.026 0.001-0.050 0.002-0.076 0.002-0.008 0-0.016 0.001-0.024 0.001-0.024 0.001-0.048 0.001-0.072 0.002-0.008 0.001-0.022 0.001-0.030 0.001-0.024 0.001-0.048 0.002-0.072 0.002-0.008 0-0.017 0.001-0.025 0.001-0.024 0.001-0.049 0.002-0.074 0.002-0.008 0.001-0.017 0.001-0.025 0.001-0.026 0.001-0.049 0.002-0.076 0.002-0.008 0-0.016 0.001-0.024 0.001-0.024 0.001-0.049 0.002-0.073 0.002-0.008 0.001-0.019 0.001-0.028 0.001-0.025 0.001-0.052 0.002-0.077 0.002l-0.009 0.001c-0.031 0.001-0.060 0.002-0.091 0.003h-0.005c-0.262 0.008-0.524 0.015-0.785 0.023-0.008 0.001 0.006 0-0.003 0-0.061 0.002-0.124 0.004-0.185 0.006l-0.015 0.001c-0.028 0.001-0.056 0.002-0.084 0.003l-0.014 0.001c-0.028 0.001-0.055 0.002-0.083 0.003-0.008 0.001-0.008 0.001-0.017 0.001-0.029 0.001-0.058 0.002-0.087 0.003-0.008 0.001-0.002 0-0.011 0.001-0.026 0.001-0.052 0.002-0.079 0.003-0.008 0.001-0.018 0.001-0.026 0.001-0.025 0.001-0.050 0.002-0.076 0.003-0.008 0.001-0.012 0.001-0.020 0.001-0.026 0.001-0.052 0.002-0.078 0.003-0.008 0.001-0.014 0.001-0.023 0.001-0.026 0.001-0.054 0.002-0.080 0.003l-0.017 0.001c-0.028 0.001-0.054 0.002-0.081 0.003l-0.021 0.001c-0.028 0.001-0.053 0.002-0.081 0.003l-0.016 0.001c-0.026 0.001-0.054 0.002-0.081 0.003-0.008 0.001-0.014 0.001-0.023 0.001-0.025 0.001-0.051 0.002-0.077 0.003-0.008 0.001-0.013 0.001-0.023 0.001-0.025 0.001-0.052 0.002-0.077 0.003-0.008 0.001-0.016 0.001-0.024 0.001-0.025 0.001-0.052 0.002-0.078 0.003-0.008 0.001-0.007 0.001-0.017 0.001-0.028 0.001-0.056 0.002-0.084 0.003l-0.013 0.001c-0.422 0.015-0.843 0.033-1.264 0.051l-0.012 0.001c-0.028 0.001-0.056 0.003-0.084 0.004-0.008 0.001-0.007 0.001-0.016 0.001-0.029 0.001-0.055 0.003-0.084 0.004-0.008 0.001-0.006 0.001-0.014 0.001-0.029 0.002-0.058 0.003-0.087 0.004-0.008 0.001-0.002 0-0.012 0.001-0.031 0.002-0.061 0.003-0.093 0.004-0.008 0.001 0.005 0-0.005 0-0.032 0.002-0.063 0.003-0.094 0.004h-0.005c-0.064 0.003-0.129 0.006-0.192 0.009h-0.006c-0.032 0.002-0.064 0.003-0.095 0.005h-0.001c-0.032 0.002-0.061 0.003-0.094 0.004l-0.009 0.001c-0.064 0.003-0.128 0.006-0.191 0.009h-0.001c-9.256 0.43-18.383 1.352-27.357 2.74-0.008 0.002 0 0-0.007 0.001-0.029 0.005-0.056 0.009-0.085 0.013-0.008 0.002-0.004 0.001-0.012 0.002-0.027 0.004-0.055 0.009-0.083 0.013-0.008 0.002-0.007 0.001-0.016 0.002-0.027 0.004-0.052 0.008-0.079 0.012l-0.018 0.003c-0.024 0.003-0.049 0.007-0.073 0.011-0.017 0.002-0.013 0.002-0.030 0.005-0.022 0.003-0.043 0.006-0.065 0.010-0.008 0.002-0.023 0.003-0.030 0.005-0.022 0.003-0.044 0.007-0.066 0.010-0.008 0.002-0.022 0.003-0.030 0.005-0.022 0.003-0.043 0.007-0.065 0.010-0.008 0.002-0.025 0.004-0.033 0.005-0.021 0.003-0.041 0.006-0.061 0.010-0.008 0.002-0.030 0.005-0.038 0.006-0.019 0.003-0.040 0.006-0.059 0.009-0.008 0.002-0.028 0.005-0.036 0.006-0.021 0.003-0.040 0.006-0.061 0.010-0.008 0.002-0.030 0.005-0.038 0.006-0.019 0.003-0.038 0.006-0.058 0.009-0.008 0.002-0.034 0.006-0.042 0.006-0.018 0.003-0.036 0.006-0.054 0.009-0.017 0.002-0.035 0.006-0.051 0.008s-0.030 0.005-0.046 0.007c-0.017 0.002-0.037 0.006-0.054 0.009-0.014 0.002-0.030 0.005-0.043 0.007-0.025 0.004-0.040 0.006-0.065 0.010-0.010 0.002-0.021 0.003-0.031 0.005-0.025 0.004-0.053 0.009-0.077 0.013-0.007 0.001-0.013 0.002-0.020 0.003-0.132 0.022-0.261 0.042-0.393 0.063-0.006 0.001-0.010 0.002-0.016 0.002-0.025 0.004-0.058 0.010-0.083 0.014-0.005 0.001-0.010 0.002-0.014 0.002-0.033 0.006-0.051 0.009-0.084 0.014-0.005 0.001-0.009 0.002-0.014 0.002-0.033 0.006-0.054 0.009-0.087 0.014-0.003 0.001-0.005 0.001-0.007 0.001-0.033 0.006-0.055 0.009-0.089 0.014-0.006 0.001-0.011 0.002-0.017 0.002-0.033 0.006-0.050 0.008-0.083 0.014-0.004 0.001-0.009 0.002-0.013 0.002-0.033 0.006-0.054 0.009-0.087 0.014-0.004 0.001-0.006 0.001-0.011 0.002-0.033 0.006-0.056 0.010-0.089 0.014-0.002 0.001-0.005 0.001-0.007 0.001-0.033 0.006-0.055 0.009-0.088 0.014-0.005 0.001-0.011 0.002-0.016 0.002-0.033 0.006-0.054 0.009-0.087 0.014-0.002 0.001-0.005 0.001-0.006 0.001-0.033 0.006-0.061 0.010-0.094 0.015-0.001 0-0.002 0.001-0.004 0.001-0.066 0.011-0.13 0.022-0.196 0.033v0c-2.389 0.4-4.77 0.834-7.137 1.299l6.175 31.398c14.227-2.798 28.868-4.218 43.514-4.218z"></path>
<path d="M49.533 168.953l-29.48-12.446c-3.384 8.014-6.371 16.237-8.937 24.643l-0.001 0.001c-0.018 0.061-0.037 0.121-0.056 0.182l-0.002 0.007c-0.009 0.030-0.018 0.059-0.027 0.089l-0.001 0.002c-0.009 0.029-0.017 0.056-0.026 0.086l-0.004 0.012c-0.008 0.028-0.017 0.054-0.024 0.081l-0.004 0.013c-0.008 0.026-0.015 0.052-0.024 0.078l-0.005 0.018c-0.008 0.025-0.015 0.052-0.024 0.077l-0.005 0.017c-0.008 0.024-0.014 0.048-0.022 0.072-0.002 0.008-0.005 0.017-0.008 0.024-0.007 0.024-0.014 0.048-0.021 0.071-0.002 0.008-0.005 0.014-0.007 0.023-0.007 0.023-0.014 0.045-0.021 0.067-0.005 0.016-0.004 0.012-0.008 0.029-0.007 0.023-0.014 0.046-0.021 0.068-0.005 0.016-0.003 0.010-0.008 0.025-0.007 0.022-0.013 0.042-0.019 0.064-0.005 0.016-0.005 0.018-0.010 0.034-0.006 0.020-0.012 0.041-0.018 0.061-0.005 0.016-0.005 0.016-0.009 0.031-0.006 0.019-0.012 0.040-0.018 0.060-0.005 0.016-0.007 0.021-0.011 0.037-0.006 0.019-0.011 0.038-0.018 0.058-0.005 0.016-0.006 0.020-0.011 0.036-0.005 0.018-0.011 0.037-0.017 0.056-0.005 0.016-0.008 0.025-0.012 0.041s-0.010 0.034-0.015 0.051c-0.005 0.016-0.009 0.031-0.014 0.047-0.005 0.014-0.009 0.030-0.014 0.045-0.005 0.016-0.009 0.032-0.014 0.048-0.005 0.017-0.010 0.033-0.014 0.049-0.005 0.016-0.008 0.028-0.013 0.043-0.005 0.017-0.009 0.032-0.014 0.049-0.005 0.016-0.009 0.030-0.014 0.047s-0.009 0.031-0.014 0.048c-0.005 0.016-0.009 0.032-0.014 0.048-0.004 0.013-0.008 0.029-0.012 0.042-0.005 0.016-0.012 0.041-0.017 0.056-0.004 0.012-0.008 0.025-0.011 0.037-0.005 0.016-0.014 0.045-0.018 0.060-0.003 0.010-0.006 0.020-0.009 0.030-0.007 0.024-0.012 0.042-0.020 0.066-0.002 0.009-0.005 0.019-0.008 0.028-0.007 0.024-0.013 0.044-0.020 0.069-0.002 0.008-0.005 0.017-0.008 0.024-0.007 0.024-0.013 0.044-0.020 0.069-0.003 0.010-0.005 0.018-0.008 0.028-0.007 0.024-0.014 0.046-0.021 0.070-0.002 0.007-0.005 0.015-0.007 0.022-0.007 0.024-0.014 0.049-0.021 0.073-0.002 0.007-0.005 0.015-0.007 0.022-0.009 0.031-0.013 0.043-0.022 0.075-0.002 0.006-0.004 0.012-0.005 0.018-0.009 0.031-0.014 0.047-0.023 0.078-0.002 0.005-0.003 0.011-0.005 0.016-0.009 0.031-0.015 0.053-0.024 0.084-0.001 0.002-0.002 0.005-0.002 0.007-0.009 0.031-0.017 0.056-0.026 0.088-0.001 0.002-0.002 0.005-0.002 0.006-0.009 0.031-0.018 0.059-0.027 0.091 0 0.001-0.001 0.001-0.001 0.002-0.009 0.031-0.017 0.058-0.026 0.089-0.001 0.002-0.002 0.005-0.002 0.006-1.888 6.493-3.523 13.083-4.899 19.778l31.344 6.444c2.929-14.25 7.284-28.27 12.941-41.671z"></path>
<path d="M337.774 464.613l11.688 29.789c1.197-0.469 2.385-0.947 3.574-1.433 0.001-0 0.001-0 0.002-0.001 0.060-0.024 0.113-0.046 0.173-0.071 0.004-0.002 0.007-0.002 0.010-0.004 0.053-0.022 0.106-0.043 0.158-0.065 0.010-0.005 0.019-0.008 0.029-0.012 0.053-0.022 0.092-0.038 0.145-0.060 0.012-0.005 0.026-0.010 0.038-0.015 0.045-0.019 0.099-0.041 0.144-0.060 0.012-0.005 0.024-0.010 0.037-0.015 0.045-0.019 0.092-0.038 0.137-0.057 0.017-0.007 0.031-0.013 0.048-0.020 0.038-0.015 0.087-0.036 0.125-0.051 0.021-0.009 0.041-0.017 0.062-0.026 0.038-0.015 0.074-0.031 0.111-0.046 0.024-0.010 0.050-0.021 0.075-0.031 0.038-0.015 0.068-0.029 0.106-0.044 0.026-0.010 0.050-0.021 0.075-0.031 0.038-0.015 0.065-0.027 0.102-0.043 0.027-0.012 0.055-0.023 0.082-0.034 0.030-0.012 0.063-0.026 0.093-0.039s0.063-0.026 0.094-0.039c0.030-0.012 0.050-0.021 0.080-0.034 0.035-0.014 0.070-0.029 0.104-0.044 0.030-0.012 0.045-0.019 0.075-0.031 0.036-0.015 0.070-0.029 0.106-0.045 0.030-0.012 0.044-0.019 0.074-0.031 0.038-0.016 0.077-0.033 0.115-0.048 0.015-0.007 0.043-0.018 0.058-0.024 0.043-0.019 0.088-0.037 0.132-0.055 0.015-0.007 0.030-0.012 0.045-0.019 0.046-0.019 0.090-0.038 0.136-0.058 0.015-0.007 0.031-0.013 0.046-0.019 0.046-0.019 0.091-0.039 0.137-0.058 0.015-0.007 0.027-0.012 0.042-0.018 0.049-0.021 0.096-0.041 0.145-0.062 0.007-0.003 0.024-0.010 0.031-0.013 0.052-0.022 0.103-0.043 0.154-0.065 0.007-0.003 0.017-0.007 0.024-0.010 0.052-0.022 0.103-0.044 0.155-0.066 0.007-0.003 0.021-0.009 0.028-0.012 0.050-0.022 0.101-0.043 0.151-0.065 0.007-0.003 0.021-0.009 0.029-0.012 0.050-0.022 0.101-0.043 0.152-0.065 0.007-0.003 0.018-0.007 0.026-0.011 0.053-0.022 0.103-0.045 0.156-0.067 0.007-0.003 0.014-0.005 0.021-0.009 0.053-0.023 0.106-0.046 0.159-0.069 0.007-0.003 0.012-0.005 0.019-0.008 0.053-0.023 0.107-0.046 0.161-0.070 0.007-0.003 0.014-0.005 0.021-0.009 0.053-0.023 0.107-0.046 0.161-0.070l0.017-0.007c0.055-0.024 0.11-0.048 0.164-0.071l0.015-0.007c0.055-0.024 0.11-0.048 0.166-0.072l0.014-0.006c0.055-0.024 0.11-0.048 0.164-0.072l0.017-0.007c0.055-0.024 0.11-0.048 0.163-0.072l0.014-0.006c0.056-0.024 0.113-0.050 0.169-0.074l0.005-0.002c0.058-0.026 0.115-0.050 0.173-0.076l0.007-0.003c0.057-0.025 0.115-0.050 0.171-0.075l0.010-0.005c0.057-0.025 0.114-0.050 0.171-0.075l0.005-0.002c0.058-0.026 0.116-0.051 0.174-0.077l0.005-0.002c0.058-0.026 0.115-0.051 0.173-0.077 0.007-0.003-0.002 0 0.006-0.002 0.058-0.026 0.115-0.051 0.173-0.077 0.007-0.003-0.001 0 0.007-0.003 6.211-2.752 12.291-5.744 18.23-8.964 0.007-0.004-0.005 0.002 0.003-0.002 0.228-0.124 0.456-0.248 0.684-0.372v0c0.227-0.124 0.454-0.248 0.68-0.373l0.007-0.004c0.056-0.031 0.111-0.061 0.167-0.092v0c0.056-0.031 0.111-0.062 0.167-0.092 0.007-0.004 0.005-0.002 0.012-0.007 0.053-0.029 0.106-0.058 0.159-0.088 0.007-0.004 0.005-0.003 0.012-0.007 0.051-0.029 0.101-0.056 0.152-0.084 0.007-0.004 0.017-0.010 0.024-0.014 0.050-0.027 0.1-0.055 0.149-0.083 0.007-0.004 0.011-0.006 0.018-0.010 0.050-0.027 0.1-0.055 0.149-0.083 0.007-0.004 0.020-0.011 0.027-0.015 0.048-0.026 0.095-0.053 0.143-0.079 0.007-0.004 0.021-0.012 0.028-0.015 0.047-0.026 0.092-0.051 0.139-0.077 0.014-0.008 0.021-0.012 0.034-0.019 0.046-0.026 0.092-0.051 0.139-0.077 0.007-0.004 0.021-0.012 0.028-0.015 0.047-0.026 0.092-0.051 0.139-0.077 0.014-0.008 0.022-0.012 0.036-0.020 0.045-0.026 0.089-0.050 0.134-0.075 0.014-0.008 0.022-0.012 0.036-0.021 0.044-0.025 0.087-0.048 0.13-0.074 0.014-0.008 0.029-0.016 0.043-0.024 0.043-0.024 0.086-0.048 0.128-0.072 0.014-0.008 0.026-0.014 0.040-0.022 0.043-0.024 0.084-0.048 0.127-0.071 0.014-0.008 0.034-0.019 0.048-0.027 0.041-0.023 0.081-0.046 0.122-0.069 0.014-0.008 0.034-0.019 0.048-0.027 0.040-0.022 0.079-0.045 0.12-0.067 0.021-0.012 0.031-0.017 0.052-0.029 0.040-0.022 0.078-0.044 0.118-0.067 0.021-0.012 0.029-0.017 0.050-0.029 0.039-0.022 0.078-0.044 0.116-0.066 0.021-0.012 0.034-0.019 0.055-0.031 0.038-0.022 0.076-0.043 0.113-0.065 0.021-0.012 0.036-0.020 0.057-0.032 0.037-0.021 0.073-0.041 0.11-0.063 0.021-0.012 0.039-0.022 0.060-0.034 0.037-0.021 0.074-0.042 0.111-0.063 0.021-0.012 0.035-0.020 0.056-0.032 0.037-0.021 0.074-0.042 0.111-0.063 0.021-0.012 0.039-0.022 0.060-0.034 0.035-0.020 0.072-0.041 0.107-0.062 0.021-0.012 0.043-0.025 0.065-0.037 0.034-0.019 0.067-0.038 0.101-0.058 0.021-0.012 0.048-0.027 0.068-0.039 0.034-0.019 0.068-0.039 0.103-0.059 0.021-0.012 0.043-0.024 0.063-0.036 0.034-0.019 0.068-0.039 0.103-0.059 0.021-0.012 0.047-0.027 0.067-0.039 0.034-0.019 0.067-0.038 0.101-0.058 0.021-0.012 0.048-0.027 0.069-0.039 0.031-0.019 0.065-0.038 0.096-0.055 0.028-0.016 0.046-0.026 0.074-0.043 0.033-0.019 0.064-0.037 0.096-0.055 0.028-0.016 0.044-0.026 0.072-0.041 0.031-0.019 0.062-0.036 0.094-0.055 0.028-0.016 0.048-0.028 0.077-0.045 0.030-0.017 0.062-0.036 0.091-0.053 0.028-0.016 0.049-0.029 0.077-0.045s0.058-0.034 0.086-0.050c0.028-0.016 0.057-0.033 0.084-0.050 0.029-0.017 0.058-0.034 0.087-0.050 0.028-0.016 0.051-0.029 0.079-0.046s0.058-0.034 0.086-0.050c0.041-0.024 0.078-0.046 0.12-0.070 0.016-0.009 0.033-0.019 0.048-0.029 0.104-0.061 0.2-0.118 0.305-0.178 0.010-0.006 0.019-0.011 0.029-0.017 0.111-0.065 0.214-0.126 0.325-0.191 0.002-0.001 0.004-0.002 0.006-0.003 0.111-0.065 0.217-0.128 0.328-0.193 0.002-0.001 0.003-0.002 0.005-0.002 2.639-1.56 5.251-3.168 7.828-4.82l-17.264-26.944c-12.274 7.865-25.357 14.543-38.886 19.851z"></path>
<path d="M95.605 412.363l-22.912 22.339c0.653 0.67 1.306 1.332 1.967 1.995 0.018 0.018 0.037 0.037 0.055 0.055 0.022 0.022 0.040 0.040 0.063 0.063 0.025 0.025 0.050 0.050 0.076 0.075 0.022 0.022 0.038 0.038 0.061 0.060 0.026 0.026 0.055 0.055 0.082 0.082 0.017 0.017 0.035 0.035 0.052 0.052 0.029 0.029 0.057 0.057 0.086 0.086 0.017 0.017 0.034 0.034 0.050 0.050 0.029 0.029 0.059 0.060 0.089 0.089 0.017 0.017 0.030 0.030 0.047 0.047 0.029 0.029 0.061 0.060 0.090 0.089 0.017 0.017 0.030 0.030 0.047 0.047 0.032 0.032 0.064 0.064 0.097 0.096 0.011 0.012 0.026 0.026 0.037 0.037 0.034 0.034 0.066 0.065 0.1 0.099 0.011 0.012 0.027 0.026 0.038 0.038 0.034 0.034 0.068 0.067 0.102 0.101 0.011 0.012 0.025 0.026 0.037 0.036 0.034 0.034 0.068 0.067 0.102 0.101 0.011 0.012 0.025 0.026 0.037 0.036 0.036 0.036 0.070 0.070 0.107 0.106 0.005 0.005 0.023 0.023 0.029 0.029 0.037 0.036 0.075 0.074 0.112 0.11 0.005 0.005 0.022 0.022 0.028 0.027 0.038 0.038 0.077 0.076 0.115 0.113 0.005 0.005 0.016 0.016 0.022 0.022 0.040 0.039 0.079 0.077 0.118 0.116 0.011 0.012 0.010 0.010 0.022 0.022 0.041 0.041 0.083 0.082 0.124 0.122 0.005 0.005 0.007 0.007 0.013 0.012 0.042 0.041 0.085 0.084 0.127 0.125 0.005 0.005 0.008 0.008 0.014 0.014 0.043 0.042 0.084 0.082 0.126 0.124 0.005 0.005 0.004 0.004 0.010 0.010 0.043 0.042 0.086 0.084 0.129 0.126 0.005 0.005 0.005 0.005 0.010 0.010 0.043 0.043 0.087 0.085 0.13 0.127l0.006 0.006c0.044 0.043 0.090 0.087 0.134 0.13l0.005 0.005c0.045 0.044 0.090 0.087 0.135 0.132l0.004 0.003c0.046 0.045 0.091 0.088 0.136 0.133l0.002 0.002c10.265 9.969 21.363 19.084 33.179 27.233l18.166-26.344c-11.987-8.266-23.227-17.751-33.407-28.192z"></path>
<path d="M460.961 346.531l29.264 12.947c1.461-3.302 2.853-6.639 4.177-10.013l0.002-0.003c0.023-0.058 0.046-0.117 0.068-0.175l0.003-0.009c0.011-0.029 0.022-0.057 0.033-0.085l0-0.002c0.012-0.029 0.022-0.057 0.034-0.086l0.004-0.010c0.010-0.027 0.022-0.055 0.032-0.082l0.002-0.005c0.010-0.027 0.022-0.055 0.033-0.083 0.003-0.007 0.002-0.005 0.005-0.012 0.010-0.026 0.021-0.053 0.031-0.078 0.003-0.007 0.002-0.005 0.005-0.012 0.010-0.024 0.020-0.051 0.029-0.075 0.003-0.007 0.005-0.012 0.007-0.019 0.010-0.024 0.019-0.048 0.029-0.072 0.003-0.007 0.002-0.007 0.005-0.014 0.010-0.026 0.019-0.050 0.029-0.075 0.003-0.007 0.004-0.010 0.007-0.017 0.010-0.024 0.019-0.050 0.029-0.074 0.003-0.007 0.003-0.007 0.005-0.015 0.010-0.024 0.019-0.048 0.029-0.073 0.003-0.007 0.006-0.016 0.009-0.024 0.009-0.022 0.017-0.043 0.026-0.066 0.003-0.007 0.007-0.017 0.010-0.025 0.008-0.021 0.017-0.043 0.024-0.063 0.003-0.007 0.010-0.025 0.012-0.033 0.007-0.020 0.015-0.038 0.022-0.058 0.003-0.007 0.010-0.024 0.012-0.031 0.007-0.019 0.014-0.038 0.022-0.057 0.006-0.015 0.009-0.024 0.015-0.039 0.007-0.018 0.014-0.036 0.021-0.055 0.003-0.007 0.009-0.022 0.012-0.030 0.007-0.020 0.016-0.041 0.024-0.061 0.003-0.007 0.009-0.024 0.012-0.031 0.007-0.020 0.015-0.041 0.023-0.060 0.003-0.007 0.008-0.022 0.011-0.029 0.007-0.020 0.015-0.040 0.023-0.060 0.003-0.007 0.010-0.028 0.014-0.036 0.007-0.019 0.014-0.038 0.022-0.057 0.003-0.007 0.010-0.024 0.012-0.031 0.007-0.019 0.014-0.038 0.022-0.058 0.006-0.015 0.010-0.026 0.015-0.041s0.012-0.031 0.019-0.048c0.006-0.015 0.012-0.030 0.017-0.046s0.011-0.029 0.017-0.044c0.006-0.015 0.014-0.035 0.019-0.050 0.005-0.014 0.010-0.028 0.016-0.042 0.006-0.015 0.010-0.029 0.017-0.043 0.006-0.016 0.012-0.032 0.019-0.048 0.006-0.015 0.010-0.027 0.017-0.043s0.013-0.034 0.019-0.050c0.003-0.007 0.010-0.028 0.014-0.036 0.007-0.018 0.014-0.037 0.021-0.055 0.006-0.015 0.012-0.030 0.017-0.046 0.005-0.014 0.011-0.029 0.017-0.043s0.012-0.033 0.018-0.048c0.005-0.014 0.012-0.030 0.017-0.044s0.013-0.034 0.019-0.049c0.005-0.014 0.010-0.028 0.015-0.041 0.009-0.023 0.012-0.031 0.020-0.053 0.005-0.012 0.009-0.024 0.014-0.035 0.009-0.023 0.017-0.044 0.026-0.067 0.003-0.007 0.005-0.014 0.009-0.022 0.009-0.023 0.016-0.043 0.024-0.065 0.003-0.009 0.007-0.019 0.010-0.027 0.009-0.023 0.014-0.039 0.024-0.062 0.004-0.010 0.007-0.020 0.012-0.030 0.009-0.023 0.014-0.039 0.024-0.062 0.003-0.009 0.007-0.019 0.010-0.028 0.009-0.023 0.017-0.045 0.026-0.068 0.003-0.007 0.006-0.015 0.009-0.023 0.009-0.023 0.017-0.046 0.026-0.070 0.002-0.007 0.005-0.014 0.008-0.021 0.009-0.023 0.019-0.050 0.027-0.073 0.002-0.005 0.005-0.013 0.007-0.019 0.009-0.023 0.019-0.051 0.028-0.075 0.002-0.005 0.004-0.011 0.006-0.015 0.012-0.031 0.020-0.053 0.031-0.084 0-0.002 0.002-0.004 0.002-0.006 0.009-0.023 0.021-0.055 0.029-0.078 0.002-0.005 0.003-0.010 0.006-0.015 0.012-0.031 0.018-0.048 0.029-0.079 0.002-0.004 0.003-0.009 0.005-0.012 0.012-0.031 0.019-0.051 0.031-0.082 0.001-0.003 0.002-0.007 0.003-0.010 0.012-0.031 0.019-0.053 0.031-0.083 0.001-0.003 0.002-0.005 0.003-0.009 0.012-0.031 0.022-0.058 0.034-0.089v-0c0.865-2.322 1.696-4.659 2.495-7.012 0-0.002 0.001-0.003 0.002-0.005 0.010-0.031 0.019-0.056 0.029-0.087 0.001-0.003 0.002-0.007 0.003-0.009 0.010-0.031 0.017-0.050 0.027-0.081 0.002-0.007 0.004-0.012 0.007-0.019 0.008-0.023 0.017-0.051 0.026-0.075 0.002-0.005 0.003-0.010 0.005-0.014 0.010-0.031 0.015-0.046 0.026-0.077 0.002-0.005 0.004-0.011 0.005-0.017 0.008-0.023 0.019-0.055 0.026-0.079 0-0.002 0.002-0.005 0.002-0.007 0.010-0.031 0.019-0.057 0.029-0.088v-0c0.021-0.062 0.041-0.12 0.061-0.182 0.002-0.004 0.002-0.007 0.003-0.011 0.010-0.031 0.017-0.051 0.027-0.082 0.002-0.004 0.002-0.007 0.003-0.011 0.010-0.031 0.017-0.049 0.027-0.080 0.002-0.005 0.004-0.012 0.005-0.017 0.008-0.024 0.018-0.053 0.026-0.077 0.002-0.005 0.003-0.009 0.005-0.014 0.010-0.031 0.016-0.048 0.026-0.079 0.002-0.005 0.003-0.010 0.005-0.015 0.010-0.031 0.017-0.049 0.027-0.080 0.001-0.003 0.002-0.005 0.003-0.009 0.010-0.031 0.018-0.053 0.029-0.085 0.001-0.003 0.002-0.007 0.003-0.009 0.010-0.031 0.017-0.053 0.028-0.084 0.002-0.004 0.002-0.006 0.003-0.010 0.010-0.031 0.017-0.050 0.027-0.081 0.002-0.005 0.003-0.011 0.005-0.016 0.010-0.031 0.016-0.048 0.026-0.079 0.001-0.003 0.002-0.007 0.003-0.010 0.010-0.031 0.017-0.050 0.027-0.082 0.002-0.005 0.003-0.010 0.005-0.015 0.010-0.031 0.016-0.048 0.026-0.079 0.002-0.004 0.003-0.009 0.005-0.013 0.010-0.031 0.016-0.048 0.026-0.079 0.002-0.006 0.003-0.010 0.005-0.016 0.010-0.031 0.016-0.048 0.026-0.080 0.002-0.004 0.002-0.005 0.003-0.009 0.010-0.031 0.017-0.052 0.027-0.084 0.002-0.004 0.002-0.008 0.004-0.012 0.010-0.031 0.017-0.051 0.027-0.082 0.001-0.003 0.002-0.007 0.003-0.009 0.010-0.031 0.017-0.051 0.027-0.082 0.002-0.005 0.003-0.009 0.005-0.014 0.010-0.031 0.016-0.048 0.026-0.079 0.002-0.006 0.003-0.010 0.005-0.015 0.010-0.031 0.014-0.045 0.024-0.075 0.002-0.007 0.005-0.015 0.007-0.022 0.007-0.024 0.015-0.048 0.024-0.072 0.002-0.007 0.005-0.015 0.007-0.022 0.007-0.024 0.015-0.046 0.023-0.070 0.003-0.009 0.005-0.017 0.008-0.025 0.007-0.024 0.015-0.046 0.023-0.070 0.002-0.007 0.005-0.014 0.007-0.021 0.007-0.024 0.015-0.046 0.022-0.070 0.003-0.010 0.007-0.020 0.010-0.029 0.005-0.015 0.014-0.045 0.020-0.060 0.004-0.012 0.007-0.022 0.011-0.034 0.005-0.015 0.014-0.041 0.019-0.057 0.004-0.012 0.009-0.027 0.013-0.039 0.005-0.015 0.012-0.037 0.017-0.053 0.005-0.014 0.009-0.027 0.013-0.041 0.005-0.015 0.012-0.034 0.017-0.050s0.010-0.031 0.015-0.046c0.005-0.015 0.010-0.032 0.015-0.048 0.005-0.014 0.010-0.029 0.014-0.043s0.011-0.034 0.016-0.050c0.005-0.014 0.010-0.029 0.014-0.044s0.012-0.036 0.017-0.051c0.004-0.012 0.009-0.026 0.012-0.039 0.005-0.015 0.012-0.038 0.017-0.054s0.010-0.029 0.014-0.043c0.005-0.015 0.010-0.031 0.015-0.046s0.010-0.031 0.015-0.047c0.005-0.015 0.010-0.031 0.015-0.046s0.010-0.032 0.015-0.048c0.005-0.015 0.010-0.031 0.015-0.046s0.010-0.030 0.014-0.045c0.005-0.015 0.010-0.031 0.015-0.048 0.005-0.017 0.010-0.034 0.017-0.051 0.005-0.015 0.008-0.026 0.013-0.041 0.005-0.017 0.011-0.034 0.016-0.050 0.005-0.015 0.008-0.026 0.014-0.041 0.006-0.019 0.012-0.038 0.019-0.057 0.005-0.015 0.005-0.017 0.010-0.034 0.006-0.019 0.012-0.038 0.019-0.058 0.005-0.015 0.007-0.021 0.012-0.036 0.006-0.019 0.014-0.041 0.019-0.061 0.002-0.008 0.007-0.022 0.010-0.029 0.007-0.022 0.014-0.043 0.021-0.064 0.002-0.008 0.007-0.020 0.009-0.027 0.007-0.024 0.014-0.045 0.022-0.068 0.002-0.008 0.005-0.015 0.007-0.023 0.007-0.022 0.014-0.046 0.022-0.068 0.002-0.008 0.005-0.017 0.008-0.026 0.007-0.024 0.015-0.048 0.023-0.072 0.002-0.008 0.003-0.010 0.005-0.017 0.008-0.026 0.015-0.048 0.023-0.073 0.002-0.008 0.005-0.017 0.008-0.025 0.007-0.022 0.014-0.044 0.021-0.067 0.002-0.008 0.007-0.022 0.010-0.031 0.007-0.021 0.012-0.039 0.019-0.060 0.002-0.008 0.008-0.026 0.010-0.034 0.007-0.021 0.014-0.043 0.020-0.063 0.002-0.008 0.005-0.018 0.008-0.026 0.007-0.024 0.014-0.045 0.022-0.067 0.002-0.008 0.005-0.017 0.007-0.024 0.007-0.024 0.015-0.048 0.022-0.072 0.002-0.008 0.003-0.010 0.006-0.019 0.008-0.026 0.016-0.050 0.024-0.075 0.002-0.008 0.002-0.008 0.005-0.016 0.009-0.027 0.017-0.055 0.026-0.082 0.002-0.008-0 0.002 0.002-0.006 0.009-0.029 0.018-0.058 0.027-0.087 0.002-0.008 0 0 0.002-0.007 0.009-0.028 0.018-0.058 0.027-0.086 0.002-0.008 0 0 0.002-0.007 0.009-0.027 0.017-0.057 0.026-0.084 0.002-0.008 0.002-0.005 0.004-0.012 0.009-0.028 0.018-0.057 0.026-0.085v-0c0.010-0.031 0.019-0.061 0.029-0.092l0.001-0.002c2.078-6.658 3.892-13.433 5.428-20.311l-31.23-6.978c-3.171 14.195-7.764 28.139-13.651 41.445z"></path>
<path d="M512 255.844c0-0.008 0-0.018 0-0.026 0-0.049 0-0.1 0-0.149 0-0.008 0-0.022 0-0.030 0-0.102-0-0.207-0-0.31 0-0.008 0-0.022 0-0.030 0-0.049 0-0.101-0-0.15 0-0.008 0-0.018 0-0.026 0-0.052-0-0.104-0-0.156v-0.004c0-0.052-0-0.102-0-0.153 0-0.008 0-0.018 0-0.026 0-0.048-0-0.099-0-0.148 0-0.008 0-0.028 0-0.036 0-0.049-0-0.1-0.001-0.149v-0.012c-0-0.048-0-0.097-0.001-0.145 0-0.008 0-0.022 0-0.030-0-0.048-0-0.097-0.001-0.145 0-0.008 0-0.029 0-0.037-0-0.049-0-0.099-0.001-0.148 0-0.008 0-0.005 0-0.013-0-0.047-0-0.094-0.001-0.141 0-0.008 0-0.025-0-0.035-0-0.048-0.001-0.096-0.002-0.143 0-0.008 0-0.029-0-0.037-0-0.048-0.001-0.096-0.002-0.145 0-0.008 0-0.014 0-0.023-0-0.043-0.001-0.087-0.002-0.13 0-0.008-0-0.033-0-0.042-0-0.047-0.001-0.095-0.002-0.141 0-0.008-0-0.030-0-0.038-0-0.048-0.001-0.096-0.002-0.145 0-0.008 0-0.013 0-0.022-0-0.045-0.001-0.090-0.002-0.136 0-0.008-0-0.023-0-0.032-0-0.048-0.001-0.096-0.002-0.144 0-0.008-0-0.030-0-0.039-0-0.048-0.002-0.095-0.002-0.144 0-0.008 0-0.017-0-0.025-0-0.043-0.001-0.086-0.002-0.13 0-0.008-0-0.030-0-0.038-0-0.048-0.002-0.094-0.002-0.142 0-0.008-0-0.030-0-0.039-0-0.048-0.002-0.095-0.002-0.143 0-0.008-0-0.019-0-0.028-0-0.042-0.002-0.083-0.002-0.125 0-0.008-0-0.030-0-0.038-0.001-0.047-0.002-0.094-0.002-0.141 0-0.008-0-0.032-0-0.041-0.001-0.048-0.002-0.095-0.002-0.143 0-0.008-0-0.021-0-0.030-0-0.041-0.002-0.081-0.002-0.122-0-0.017-0-0.027-0.001-0.044-0.001-0.046-0.002-0.091-0.002-0.137-0-0.017-0-0.026-0.001-0.043-0.001-0.047-0.002-0.092-0.002-0.139 0-0.008-0-0.028-0-0.036-0-0.038-0.002-0.077-0.002-0.115-0-0.017-0-0.028-0.001-0.046-0.001-0.044-0.002-0.088-0.002-0.132-0-0.017-0-0.036-0.001-0.053-0.001-0.044-0.002-0.089-0.003-0.133 0-0.008-0-0.030-0.001-0.038-0.001-0.036-0.002-0.075-0.002-0.112-0-0.017-0-0.032-0.001-0.049-0.001-0.044-0.002-0.087-0.003-0.13-0-0.017-0.001-0.036-0.002-0.054-0.001-0.043-0.002-0.087-0.003-0.13-0-0.017-0-0.028-0.001-0.045-0.001-0.036-0.002-0.072-0.002-0.108-0-0.017-0-0.030-0.001-0.047-0.001-0.044-0.002-0.089-0.003-0.133-0-0.017-0.001-0.033-0.002-0.050-0.001-0.044-0.002-0.088-0.003-0.132-0-0.017-0-0.030-0.001-0.047-0.001-0.035-0.002-0.068-0.002-0.102-0-0.017-0.001-0.037-0.002-0.054-0.001-0.042-0.002-0.084-0.003-0.126-0-0.017-0.001-0.041-0.002-0.058-0.001-0.038-0.002-0.079-0.003-0.118-0-0.017-0.002-0.046-0.002-0.063-0.001-0.031-0.002-0.062-0.002-0.094-0-0.017-0.001-0.040-0.002-0.057-0.001-0.041-0.002-0.082-0.003-0.124-0-0.017-0.002-0.047-0.002-0.064-0.001-0.036-0.002-0.071-0.003-0.107-0-0.025-0.002-0.047-0.002-0.072-0.001-0.030-0.002-0.060-0.002-0.090-0-0.017-0.002-0.042-0.002-0.060-0.002-0.041-0.002-0.081-0.003-0.122-0-0.017-0.002-0.048-0.002-0.065-0.001-0.034-0.002-0.069-0.003-0.103-0.001-0.025-0.002-0.055-0.002-0.081-0.001-0.027-0.002-0.053-0.002-0.079-0.001-0.025-0.002-0.042-0.002-0.068-0.002-0.038-0.002-0.077-0.004-0.115-0-0.017-0.002-0.052-0.002-0.069-0.001-0.030-0.002-0.060-0.003-0.090-0.001-0.034-0.002-0.061-0.003-0.096-0.001-0.024-0.002-0.048-0.002-0.072-0.001-0.034-0.002-0.059-0.003-0.093-0.001-0.031-0.002-0.061-0.003-0.093-0-0.017-0.002-0.055-0.002-0.072-0.001-0.028-0.002-0.054-0.003-0.082-0.001-0.034-0.002-0.070-0.003-0.105-0.001-0.023-0.002-0.045-0.002-0.067-0.002-0.034-0.002-0.071-0.004-0.106-0.001-0.026-0.002-0.051-0.003-0.077-0.002-0.034-0.002-0.047-0.003-0.081-0.001-0.023-0.002-0.045-0.002-0.068-0.002-0.043-0.002-0.072-0.005-0.115-0.001-0.022-0.002-0.044-0.002-0.065-0.002-0.043-0.003-0.076-0.005-0.118-0.001-0.023-0.002-0.044-0.002-0.066-0.002-0.034-0.002-0.047-0.003-0.081-0.001-0.020-0.002-0.040-0.002-0.060-0.002-0.043-0.003-0.088-0.005-0.131-0-0.016-0.002-0.033-0.002-0.049-0.002-0.052-0.003-0.091-0.005-0.142-0-0.015-0.002-0.031-0.002-0.046-0.002-0.034-0.002-0.054-0.003-0.088-0-0.014-0.001-0.028-0.002-0.042-0.002-0.052-0.004-0.1-0.007-0.151-0-0.012-0.001-0.025-0.002-0.038-0.002-0.052-0.005-0.112-0.007-0.163-0-0.009-0.001-0.019-0.001-0.029-0.002-0.034-0.002-0.060-0.004-0.094-0-0.007-0-0.013-0.001-0.021-0.002-0.052-0.005-0.117-0.007-0.167-0-0.014-0.002-0.028-0.002-0.042-0.002-0.051-0.005-0.1-0.007-0.151-0-0.012-0.001-0.025-0.002-0.037-0.002-0.034-0.002-0.058-0.004-0.092-0-0.009-0.001-0.020-0.002-0.029-0.002-0.051-0.005-0.109-0.007-0.16-0-0.014-0.001-0.027-0.002-0.041-0.002-0.051-0.005-0.109-0.007-0.161-0-0.010-0.001-0.019-0.002-0.029-0.002-0.034-0.003-0.059-0.005-0.094-0-0.007-0-0.015-0.001-0.022-0.002-0.051-0.005-0.12-0.008-0.172-0-0.010-0.001-0.020-0.002-0.030-0.002-0.051-0.005-0.119-0.008-0.17-0-0.008-0-0.015-0.001-0.023-0.002-0.034-0.003-0.061-0.005-0.095 0-0.005-0-0.011-0-0.016-0.002-0.051-0.007-0.127-0.009-0.179-0-0.010-0.001-0.018-0.002-0.028-0.002-0.051-0.005-0.114-0.009-0.166-0-0.011-0.001-0.020-0.002-0.031-0.002-0.034-0.003-0.060-0.005-0.095v-0.001c-0.003-0.068-0.007-0.129-0.010-0.196 0-0.006-0-0.011-0.001-0.017-0.009-0.171-0.017-0.325-0.026-0.495 0-0.006-0-0.011-0.001-0.016-0.009-0.171-0.018-0.33-0.027-0.5 0-0.001 0-0.002 0-0.004-0.394-7.047-1.072-14.013-2.024-20.896 0-0.001-0-0.004-0.001-0.006-0.009-0.066-0.017-0.125-0.026-0.192 0-0.001-0-0.004-0.001-0.006-0.014-0.1-0.026-0.189-0.041-0.288-0.001-0.008-0.002-0.016-0.003-0.023-0.007-0.050-0.017-0.123-0.024-0.172-0.001-0.006-0.002-0.012-0.002-0.018-0.014-0.1-0.026-0.184-0.040-0.284-0.002-0.010-0.002-0.018-0.004-0.028-0.007-0.050-0.016-0.111-0.023-0.16-0.002-0.011-0.003-0.020-0.005-0.031-0.013-0.091-0.026-0.183-0.039-0.274-0.002-0.014-0.004-0.029-0.007-0.043-0.007-0.049-0.013-0.090-0.021-0.14-0.002-0.014-0.005-0.030-0.007-0.044-0.003-0.025-0.009-0.060-0.012-0.085-0.004-0.026-0.007-0.052-0.012-0.078-0.005-0.033-0.010-0.067-0.014-0.101-0.003-0.021-0.006-0.042-0.009-0.063-0.005-0.033-0.012-0.079-0.017-0.113-0.003-0.022-0.007-0.044-0.010-0.066-0.003-0.025-0.007-0.049-0.011-0.073-0.005-0.036-0.010-0.072-0.016-0.108-0.003-0.025-0.007-0.046-0.010-0.071-0.003-0.023-0.007-0.044-0.010-0.066-0.005-0.033-0.012-0.077-0.017-0.111-0.003-0.024-0.007-0.048-0.010-0.071-0.003-0.025-0.006-0.041-0.010-0.066-0.005-0.038-0.012-0.077-0.017-0.115-0.003-0.025-0.005-0.036-0.009-0.061-0.005-0.031-0.010-0.062-0.014-0.093-0.004-0.025-0.007-0.047-0.011-0.072-0.005-0.032-0.010-0.065-0.014-0.097-0.004-0.025-0.005-0.031-0.009-0.055-0.006-0.041-0.012-0.083-0.019-0.124-0.002-0.008-0.006-0.040-0.007-0.048-0.007-0.042-0.012-0.083-0.019-0.125-0.002-0.008-0.002-0.016-0.003-0.024-0.007-0.043-0.014-0.088-0.020-0.131-0.002-0.008-0.005-0.029-0.005-0.037-0.007-0.045-0.014-0.090-0.021-0.136-0.002-0.008-0.005-0.030-0.006-0.037-0.007-0.047-0.014-0.093-0.022-0.139l-0.002-0.011c-0.007-0.048-0.014-0.095-0.022-0.143-0.002-0.008-0.003-0.019-0.005-0.028-0.007-0.049-0.015-0.097-0.023-0.146-0.002-0.008-0.002-0.014-0.003-0.022-0.008-0.051-0.016-0.101-0.024-0.151l-0-0.002c-0.008-0.050-0.016-0.101-0.024-0.15-0.002-0.008-0.002-0.013-0.003-0.021-0.007-0.049-0.015-0.099-0.024-0.148-0.002-0.008-0.002-0.014-0.003-0.023-0.017-0.102-0.033-0.206-0.049-0.308-0.002-0.008-0.002-0.008-0.002-0.017-0.008-0.052-0.017-0.102-0.024-0.154-0.002-0.008-0-0.005-0.002-0.012-0.026-0.163-0.053-0.326-0.079-0.488-0.002-0.008 0.001 0.007 0-0.001-0.108-0.661-0.217-1.321-0.329-1.981l-31.546 5.372c2.117 12.429 3.19 25.185 3.19 37.913 0 1.897-0.024 3.82-0.072 5.714l31.99 0.798c0.048-1.894 0.074-3.792 0.080-5.695 0-0.009 0 0.002 0-0.007 0-0.032 0-0.064 0-0.096 0-0.009 0 0.005 0-0.003 0-0.032 0-0.064 0-0.096 0-0.017 0-0.017 0-0.035 0-0.022 0-0.046 0-0.068 0-0.017 0-0.017 0-0.034 0-0.022 0-0.045 0-0.067 0-0.017 0-0.041 0-0.058 0-0.014 0-0.029 0-0.043 0-0.026 0-0.055 0-0.082 0-0.007 0-0.014 0-0.021 0-0.026 0-0.051 0-0.077 0-0.009 0-0.018 0-0.027 0-0.034 0-0.068 0-0.102 0-0.052 0-0.105 0-0.156z"></path>
<path d="M410.996 417.717l22.145 23.099c1.033-0.99 2.057-1.988 3.072-2.995l0.005-0.005c0.044-0.043 0.088-0.087 0.132-0.131l0.008-0.008c0.043-0.043 0.085-0.084 0.128-0.127 0.005-0.005 0.008-0.008 0.014-0.014 0.041-0.041 0.082-0.082 0.123-0.123 0.005-0.005 0.010-0.010 0.015-0.015 0.041-0.041 0.081-0.080 0.122-0.122 0.005-0.005 0.011-0.011 0.017-0.017 0.041-0.040 0.082-0.082 0.122-0.122 0.005-0.005 0.010-0.010 0.015-0.015 0.041-0.040 0.080-0.080 0.12-0.12 0.005-0.005 0.014-0.014 0.020-0.020 0.039-0.039 0.078-0.078 0.116-0.117 0.005-0.005 0.016-0.016 0.022-0.022 0.038-0.038 0.075-0.075 0.113-0.113 0.012-0.012 0.017-0.017 0.028-0.028 0.036-0.036 0.070-0.071 0.106-0.107 0.012-0.012 0.022-0.022 0.033-0.034 0.034-0.034 0.069-0.070 0.103-0.104 0.012-0.012 0.024-0.024 0.034-0.034 0.034-0.034 0.068-0.068 0.101-0.102 0.012-0.012 0.024-0.024 0.036-0.036 0.034-0.034 0.067-0.067 0.101-0.101 0.012-0.012 0.026-0.026 0.037-0.038 0.034-0.034 0.066-0.067 0.099-0.101 0.012-0.012 0.025-0.026 0.036-0.036 0.034-0.034 0.067-0.067 0.101-0.101 0.017-0.017 0.020-0.021 0.037-0.038 0.032-0.033 0.066-0.067 0.099-0.099 0.017-0.017 0.022-0.022 0.038-0.039 0.033-0.034 0.064-0.065 0.096-0.098 0.017-0.017 0.024-0.024 0.041-0.041 0.031-0.031 0.063-0.064 0.094-0.095 0.017-0.017 0.026-0.027 0.043-0.044 0.031-0.031 0.061-0.062 0.091-0.094 0.022-0.023 0.031-0.032 0.054-0.055 0.027-0.027 0.054-0.055 0.082-0.083 0.022-0.023 0.034-0.034 0.056-0.057 0.027-0.027 0.055-0.055 0.082-0.083 0.017-0.017 0.039-0.041 0.056-0.058 0.027-0.027 0.054-0.055 0.081-0.083 0.017-0.017 0.038-0.038 0.055-0.055 0.027-0.027 0.055-0.055 0.082-0.084 0.022-0.023 0.038-0.038 0.060-0.062 0.025-0.026 0.050-0.050 0.074-0.076 0.022-0.023 0.039-0.041 0.062-0.063 0.025-0.026 0.048-0.050 0.073-0.075 0.022-0.023 0.043-0.045 0.066-0.067s0.046-0.048 0.069-0.070c0.022-0.023 0.046-0.048 0.068-0.070s0.043-0.044 0.064-0.065c0.028-0.029 0.048-0.050 0.075-0.078 0.020-0.021 0.039-0.040 0.059-0.060 0.028-0.029 0.046-0.048 0.075-0.077 0.021-0.021 0.042-0.043 0.063-0.065 0.028-0.029 0.046-0.048 0.074-0.077 0.021-0.022 0.041-0.043 0.063-0.065 0.028-0.029 0.043-0.045 0.071-0.074 0.022-0.022 0.043-0.045 0.065-0.067s0.050-0.051 0.072-0.075c0.021-0.022 0.041-0.043 0.062-0.065 0.022-0.023 0.051-0.053 0.073-0.076 0.019-0.021 0.041-0.043 0.060-0.063 0.022-0.023 0.053-0.055 0.075-0.079 0.021-0.022 0.041-0.043 0.062-0.064 0.022-0.023 0.050-0.052 0.072-0.075 0.021-0.022 0.041-0.043 0.062-0.065 0.022-0.023 0.053-0.055 0.075-0.078 0.019-0.020 0.037-0.039 0.056-0.058 0.022-0.023 0.054-0.057 0.076-0.079 0.024-0.026 0.050-0.053 0.075-0.079 0.017-0.017 0.042-0.044 0.058-0.061 0.026-0.027 0.051-0.053 0.077-0.080 0.017-0.017 0.038-0.041 0.055-0.058 0.026-0.026 0.052-0.055 0.077-0.081 0.022-0.023 0.038-0.041 0.060-0.063 0.024-0.026 0.048-0.050 0.072-0.077 0.022-0.023 0.038-0.041 0.060-0.063 0.024-0.026 0.048-0.050 0.072-0.076 0.022-0.023 0.041-0.043 0.063-0.067 0.023-0.024 0.046-0.048 0.069-0.073 0.033-0.035 0.061-0.065 0.094-0.099 0.012-0.012 0.024-0.026 0.036-0.038 0.038-0.041 0.070-0.075 0.109-0.115 0.009-0.009 0.017-0.017 0.025-0.026 0.033-0.035 0.070-0.075 0.103-0.109 0.010-0.010 0.019-0.021 0.029-0.031 0.033-0.035 0.065-0.069 0.098-0.104 0.012-0.012 0.025-0.026 0.036-0.039 0.033-0.035 0.058-0.062 0.091-0.096 0.014-0.015 0.027-0.029 0.041-0.044 0.033-0.035 0.065-0.069 0.098-0.104 0.012-0.012 0.023-0.024 0.035-0.037 0.027-0.029 0.070-0.074 0.097-0.103 0.011-0.012 0.024-0.025 0.035-0.037 0.033-0.035 0.065-0.070 0.098-0.104 0.012-0.012 0.024-0.026 0.036-0.038 0.033-0.035 0.063-0.067 0.096-0.102 0.012-0.014 0.024-0.025 0.036-0.038 0.033-0.035 0.066-0.070 0.099-0.106 0.012-0.012 0.023-0.024 0.035-0.038 0.027-0.029 0.065-0.069 0.092-0.099 0.014-0.015 0.027-0.029 0.041-0.045 0.033-0.035 0.059-0.063 0.091-0.099 0.014-0.015 0.029-0.031 0.043-0.046 0.033-0.035 0.055-0.059 0.087-0.094 0.014-0.015 0.028-0.030 0.043-0.046 0.033-0.035 0.062-0.066 0.094-0.101 0.012-0.014 0.026-0.027 0.038-0.041 0.033-0.035 0.058-0.063 0.091-0.099 0.012-0.014 0.026-0.029 0.039-0.042 0.033-0.035 0.064-0.069 0.097-0.104 0.011-0.012 0.022-0.024 0.034-0.036 0.033-0.035 0.065-0.070 0.098-0.106 0.010-0.011 0.019-0.021 0.030-0.032 0.033-0.035 0.072-0.078 0.104-0.113 0.010-0.010 0.018-0.019 0.027-0.030 0.033-0.036 0.067-0.072 0.099-0.108 0.012-0.012 0.024-0.026 0.035-0.038 0.033-0.036 0.063-0.069 0.096-0.104 0.014-0.015 0.028-0.030 0.043-0.046 0.027-0.029 0.060-0.065 0.087-0.095 0.014-0.015 0.027-0.029 0.041-0.045 0.027-0.029 0.064-0.070 0.091-0.099 0.017-0.018 0.032-0.035 0.048-0.053 0.027-0.029 0.054-0.059 0.081-0.089 0.017-0.018 0.033-0.036 0.049-0.053 0.033-0.036 0.050-0.055 0.082-0.089 0.019-0.021 0.039-0.043 0.058-0.063 0.027-0.029 0.046-0.050 0.072-0.079 0.017-0.019 0.036-0.038 0.053-0.058 0.027-0.029 0.051-0.056 0.078-0.086 0.024-0.026 0.047-0.051 0.071-0.078 0.022-0.024 0.036-0.040 0.058-0.063 0.024-0.027 0.048-0.053 0.072-0.080 0.022-0.024 0.036-0.039 0.057-0.063 0.026-0.028 0.050-0.055 0.076-0.084 0.022-0.024 0.031-0.035 0.053-0.058 0.026-0.028 0.049-0.054 0.075-0.082 0.022-0.024 0.036-0.040 0.058-0.064 0.024-0.026 0.049-0.054 0.072-0.080 0.022-0.024 0.036-0.040 0.058-0.064 0.024-0.026 0.048-0.053 0.072-0.079 0.022-0.024 0.043-0.048 0.065-0.071 0.022-0.025 0.044-0.048 0.067-0.074 0.022-0.024 0.055-0.060 0.076-0.084 0.017-0.018 0.034-0.038 0.050-0.055 0.032-0.036 0.055-0.060 0.087-0.096 0.015-0.017 0.029-0.033 0.045-0.049 0.026-0.029 0.053-0.058 0.079-0.089 0.017-0.019 0.034-0.038 0.051-0.057 0.022-0.024 0.050-0.056 0.072-0.079 0.021-0.022 0.041-0.045 0.060-0.067 0.026-0.029 0.046-0.052 0.073-0.082 0.017-0.019 0.036-0.041 0.054-0.060 0.026-0.029 0.048-0.053 0.075-0.083 0.019-0.022 0.039-0.043 0.059-0.065 0.026-0.030 0.042-0.047 0.068-0.077 0.021-0.022 0.041-0.046 0.061-0.068 0.026-0.030 0.041-0.046 0.067-0.075 0.021-0.024 0.043-0.048 0.063-0.071s0.048-0.053 0.069-0.077c0.019-0.022 0.039-0.044 0.058-0.065 0.026-0.030 0.046-0.051 0.072-0.081 0.019-0.022 0.039-0.044 0.059-0.066 0.022-0.024 0.048-0.053 0.069-0.077s0.041-0.047 0.063-0.070c0.022-0.024 0.041-0.047 0.063-0.071 0.024-0.026 0.047-0.053 0.070-0.079 0.021-0.024 0.038-0.043 0.060-0.067s0.043-0.050 0.065-0.074c0.021-0.024 0.045-0.050 0.065-0.074 0.022-0.025 0.045-0.050 0.067-0.075 0.021-0.024 0.041-0.046 0.062-0.070s0.043-0.049 0.065-0.074c0.021-0.024 0.041-0.048 0.063-0.072 0.024-0.026 0.048-0.054 0.071-0.080 0.021-0.024 0.036-0.041 0.057-0.065 0.023-0.026 0.048-0.053 0.070-0.079 0.021-0.024 0.038-0.043 0.058-0.067 0.026-0.029 0.050-0.057 0.075-0.086 0.021-0.024 0.031-0.034 0.051-0.058 0.028-0.032 0.057-0.065 0.086-0.097 0.016-0.018 0.024-0.028 0.041-0.046 0.029-0.034 0.058-0.067 0.087-0.1 0.016-0.018 0.026-0.029 0.041-0.048 0.029-0.033 0.056-0.064 0.085-0.097 0.016-0.018 0.028-0.032 0.043-0.050 0.029-0.033 0.057-0.065 0.085-0.098 0.016-0.018 0.026-0.029 0.041-0.048 0.029-0.034 0.058-0.067 0.087-0.1 0.016-0.018 0.023-0.026 0.039-0.045 0.030-0.034 0.059-0.067 0.089-0.102 0.010-0.012 0.029-0.033 0.039-0.045 0.029-0.034 0.058-0.067 0.087-0.101 0.010-0.012 0.029-0.034 0.040-0.046 0.030-0.034 0.060-0.070 0.091-0.104 0.010-0.012 0.024-0.028 0.034-0.040 0.032-0.037 0.063-0.072 0.095-0.11 0.010-0.012 0.020-0.023 0.031-0.035 0.033-0.038 0.065-0.075 0.098-0.113 0.010-0.012 0.019-0.022 0.029-0.034 0.032-0.037 0.065-0.075 0.096-0.111 0.010-0.012 0.021-0.024 0.031-0.036 0.032-0.037 0.064-0.074 0.096-0.111 0.010-0.012 0.021-0.024 0.031-0.036 0.032-0.037 0.065-0.075 0.096-0.111 0.005-0.006 0.024-0.029 0.030-0.034 0.033-0.038 0.065-0.075 0.097-0.113 0.010-0.012 0.020-0.024 0.031-0.036 0.032-0.037 0.063-0.074 0.096-0.111 0.010-0.012 0.021-0.024 0.031-0.036 0.033-0.038 0.066-0.077 0.099-0.115 0.010-0.012 0.014-0.017 0.025-0.029 0.035-0.041 0.069-0.080 0.104-0.122 0.010-0.012 0.010-0.012 0.021-0.024 0.035-0.041 0.070-0.082 0.105-0.123 0.010-0.012 0.012-0.014 0.022-0.026 0.035-0.041 0.070-0.082 0.105-0.123 0.005-0.006 0.016-0.019 0.021-0.024 0.036-0.042 0.071-0.083 0.106-0.125 0.005-0.006 0.014-0.017 0.019-0.022 0.038-0.044 0.075-0.089 0.113-0.132 0.005-0.006 0.005-0.007 0.010-0.012 0.040-0.048 0.079-0.093 0.119-0.14l0.006-0.007c0.039-0.046 0.079-0.094 0.119-0.14l0.012-0.014c0.039-0.046 0.079-0.094 0.119-0.14l0.007-0.007c0.041-0.048 0.081-0.096 0.122-0.144v0c0.041-0.049 0.084-0.099 0.125-0.148 0.005-0.006-0.002 0.002 0.004-0.005 0.041-0.048 0.080-0.094 0.12-0.143 0.005-0.006 0.003-0.004 0.009-0.010 0.038-0.046 0.078-0.092 0.116-0.139 0.005-0.006 0.005-0.005 0.010-0.012 0.039-0.046 0.077-0.091 0.116-0.138l0.009-0.010c0.038-0.046 0.078-0.093 0.116-0.139l0.010-0.012c0.038-0.046 0.076-0.091 0.115-0.137 0.005-0.006 0.007-0.009 0.012-0.015 0.038-0.046 0.077-0.091 0.115-0.137 0.005-0.006 0.003-0.003 0.008-0.010 0.040-0.048 0.079-0.094 0.118-0.142 0.005-0.006-0 0.001 0.005-0.005 0.041-0.048 0.080-0.096 0.12-0.144 0.005-0.006 0 0 0.005-0.007 0.040-0.048 0.079-0.096 0.119-0.143 0.005-0.006 0.001-0.002 0.007-0.007 0.041-0.048 0.080-0.096 0.12-0.145l0.002-0.002c0.041-0.050 0.082-0.099 0.123-0.149l0-0.001c0.041-0.050 0.082-0.099 0.123-0.149l0.002-0.002c0.041-0.050 0.082-0.099 0.123-0.149l0.002-0.002c4.317-5.216 8.429-10.606 12.327-16.159l-26.189-18.389c-8.368 11.918-17.947 23.077-28.474 33.168z"></path>
<path d="M158.511 19.217c-15.515 6.395-30.264 14.27-44.071 23.451l17.718 26.647c12.141-8.072 25.111-14.974 38.547-20.512l-12.195-29.585z"></path>
<path d="M154.511 491.094c2.244 0.971 4.506 1.909 6.784 2.817 0.007 0.003 0.006 0.002 0.013 0.005 0.053 0.021 0.106 0.043 0.159 0.063 0.007 0.003 0.016 0.007 0.024 0.010 0.023 0.009 0.045 0.018 0.067 0.027 0.007 0.003 0.013 0.005 0.021 0.009 0.017 0.007 0.036 0.014 0.053 0.021 0.015 0.006 0.028 0.011 0.042 0.017 0.017 0.007 0.036 0.014 0.053 0.021 0.015 0.006 0.018 0.007 0.034 0.014 0.018 0.007 0.036 0.014 0.054 0.022 0.015 0.006 0.025 0.010 0.040 0.016s0.030 0.012 0.046 0.018c0.015 0.006 0.028 0.011 0.043 0.017s0.034 0.013 0.049 0.019c0.015 0.006 0.028 0.010 0.042 0.017 0.023 0.009 0.042 0.017 0.065 0.026l0.020 0.008c0.022 0.009 0.043 0.017 0.065 0.026 0.015 0.006 0.013 0.005 0.029 0.012 0.019 0.007 0.036 0.014 0.055 0.022 0.015 0.006 0.020 0.008 0.036 0.014s0.029 0.012 0.043 0.017c0.023 0.009 0.029 0.012 0.052 0.021 0.013 0.005 0.025 0.010 0.038 0.015 0.023 0.009 0.025 0.010 0.048 0.019 0.016 0.007 0.030 0.012 0.047 0.019 0.015 0.006 0.033 0.013 0.048 0.019 0.012 0.005 0.023 0.009 0.034 0.013 0.023 0.009 0.034 0.014 0.056 0.022 0.011 0.004 0.020 0.008 0.030 0.012 0.023 0.009 0.042 0.016 0.064 0.025 0.006 0.002 0.014 0.005 0.021 0.008 0.023 0.009 0.042 0.017 0.065 0.026 0.012 0.005 0.023 0.009 0.034 0.013 0.023 0.009 0.038 0.015 0.061 0.024 0.006 0.002 0.013 0.005 0.019 0.007 0.023 0.009 0.049 0.019 0.072 0.028 0.005 0.002 0.010 0.004 0.014 0.005 0.060 0.024 0.107 0.041 0.167 0.065 0.006 0.002 0.012 0.005 0.017 0.007 0.023 0.009 0.053 0.021 0.076 0.029 0.004 0.002 0.006 0.002 0.010 0.004 0.030 0.012 0.049 0.019 0.079 0.031 0.005 0.002 0.010 0.004 0.014 0.005 0.030 0.012 0.048 0.019 0.079 0.031 0.003 0.001 0.006 0.002 0.008 0.003 0.030 0.012 0.048 0.019 0.078 0.030 0.006 0.002 0.015 0.006 0.022 0.009 0.023 0.009 0.051 0.020 0.074 0.029 0.003 0.001 0.006 0.002 0.008 0.003 0.030 0.012 0.053 0.020 0.083 0.032 0.003 0.001 0.005 0.002 0.007 0.003 0.061 0.024 0.113 0.043 0.173 0.067 0.005 0.002 0.007 0.003 0.012 0.005 0.030 0.012 0.052 0.020 0.082 0.031 0.001 0 0.002 0 0.003 0.001 0.030 0.012 0.058 0.022 0.088 0.034 0.001 0 0.003 0.001 0.004 0.002 0.061 0.024 0.116 0.045 0.177 0.068 0.002 0 0.006 0.002 0.008 0.003 0.121 0.046 0.238 0.091 0.359 0.137 0.001 0 0 0 0.001 0 0.121 0.046 0.24 0.091 0.362 0.138 0.003 0.001 0.004 0.002 0.007 0.002 4.386 1.668 8.822 3.215 13.319 4.644 0.002 0 0.006 0.002 0.007 0.002 0.031 0.010 0.058 0.018 0.089 0.028h0.001c0.094 0.029 0.186 0.059 0.28 0.089 0.001 0 0 0 0.001 0 0.125 0.039 0.246 0.078 0.371 0.117 0.001 0 0.005 0.002 0.006 0.002 0.125 0.039 0.243 0.077 0.368 0.115 0.003 0.001 0.006 0.002 0.010 0.003 0.031 0.010 0.053 0.017 0.084 0.026 0.003 0.001 0.007 0.002 0.010 0.003 0.031 0.010 0.054 0.017 0.085 0.026 0.003 0.001 0.005 0.002 0.007 0.002 0.031 0.010 0.054 0.017 0.085 0.026 0.004 0.001 0.006 0.002 0.011 0.003 0.031 0.010 0.047 0.014 0.078 0.024 0.007 0.002 0.013 0.004 0.020 0.006 0.031 0.010 0.048 0.014 0.079 0.024 0.003 0.001 0.006 0.002 0.010 0.003 0.031 0.010 0.054 0.017 0.085 0.026 0.003 0.001 0.005 0.002 0.008 0.002 0.031 0.010 0.052 0.016 0.083 0.026 0.004 0.001 0.009 0.002 0.013 0.004 0.031 0.010 0.046 0.014 0.077 0.024 0.007 0.002 0.013 0.004 0.020 0.006 0.031 0.010 0.048 0.014 0.079 0.024 0.004 0.001 0.006 0.002 0.011 0.003 0.031 0.010 0.052 0.016 0.083 0.026 0.004 0.001 0.008 0.002 0.012 0.003 0.031 0.010 0.049 0.015 0.081 0.025 0.005 0.002 0.008 0.002 0.013 0.004 0.031 0.010 0.046 0.014 0.077 0.024 0.007 0.002 0.012 0.003 0.019 0.005 0.031 0.010 0.052 0.016 0.083 0.026 0.002 0 0.002 0.001 0.005 0.002 0.031 0.010 0.060 0.019 0.091 0.028 0.001 0 0 0 0.001 0 0.031 0.010 0.058 0.017 0.089 0.027 0.003 0.001 0.005 0.002 0.007 0.002 0.031 0.010 0.053 0.016 0.083 0.026 0.005 0.002 0.007 0.002 0.012 0.004 0.031 0.010 0.054 0.017 0.086 0.026 0.002 0 0.003 0.001 0.005 0.002 0.031 0.010 0.055 0.017 0.087 0.026 0.004 0.001 0.006 0.002 0.010 0.003 0.031 0.010 0.049 0.015 0.081 0.024 0.006 0.002 0.010 0.003 0.015 0.005 0.031 0.010 0.046 0.014 0.077 0.024 0.006 0.002 0.012 0.004 0.018 0.005 0.031 0.010 0.050 0.015 0.082 0.025 0.003 0.001 0.005 0.002 0.008 0.002 0.031 0.010 0.057 0.017 0.089 0.027 0.002 0 0.002 0.001 0.005 0.002 0.031 0.010 0.060 0.018 0.091 0.027 0.001 0 0.001 0 0.002 0 0.031 0.010 0.058 0.017 0.089 0.027 0.002 0 0.005 0.002 0.006 0.002 0.063 0.019 0.12 0.036 0.183 0.055 0.002 0 0.002 0.001 0.005 0.002 0.063 0.019 0.121 0.036 0.185 0.055 0.001 0 0.003 0.001 0.004 0.001 0.126 0.038 0.246 0.074 0.373 0.111 0.002 0 0.004 0.001 0.006 0.002 0.031 0.010 0.059 0.017 0.091 0.027 0.001 0 0.001 0 0.002 0 0.031 0.010 0.058 0.017 0.089 0.026 0.003 0.001 0.004 0.001 0.006 0.002 0.031 0.010 0.058 0.017 0.089 0.026 0.002 0 0.003 0.001 0.005 0.002 0.031 0.010 0.052 0.015 0.083 0.025 0.005 0.002 0.008 0.002 0.013 0.004 0.031 0.010 0.059 0.017 0.090 0.026 0.001 0 0 0 0.001 0 6.265 1.861 12.618 3.486 19.073 4.87l6.711-31.288c-14.222-3.050-28.204-7.524-41.558-13.296l-12.697 29.373z"></path>
<path d="M256 480c-1.266 0-2.549-0.010-3.813-0.031l-0.532 31.995c0.344 0.005 0.691 0.010 1.036 0.015 0 0 0.001 0 0.002 0 0.035 0 0.064 0.001 0.098 0.001 0.005 0 0.008 0 0.013 0 0.095 0.001 0.179 0.002 0.273 0.003 0.013 0 0.026 0 0.040 0 0.026 0 0.047 0 0.073 0.001 0.014 0 0.030 0 0.044 0 0.026 0 0.047 0 0.073 0 0.018 0 0.036 0 0.053 0 0.035 0 0.070 0 0.104 0.001 0.023 0 0.047 0 0.070 0 0.017 0 0.038 0 0.056 0 0.023 0 0.046 0 0.068 0 0.017 0 0.036 0 0.053 0 0.027 0 0.054 0 0.081 0 0.017 0 0.043 0 0.060 0 0.032 0 0.064 0 0.096 0.001 0.008 0 0.036 0 0.044 0 0.025 0 0.052 0 0.077 0 0.017 0 0.031 0 0.049 0 0.032 0 0.064 0 0.095 0 0.008 0 0.016 0 0.024 0 0.041 0 0.082 0 0.123 0.001 0.008 0 0.023 0 0.031 0 0.031 0 0.061 0 0.093 0 0.017 0 0.022 0 0.038 0 0.031 0 0.063 0 0.095 0 0.008 0 0.022 0 0.030 0 0.040 0 0.081 0 0.12 0 0.017 0 0.018 0 0.035 0 0.029 0 0.058 0 0.086 0 0.017 0 0.029 0 0.047 0 0.029 0 0.058 0 0.087 0 0.017 0 0.018 0 0.036 0 0.041 0 0.082 0 0.123 0 0.008 0 0.011 0 0.019 0 0.035 0 0.070 0 0.104 0 0.017 0 0.019 0 0.036 0 0.030 0 0.060 0 0.090 0 0.008 0 0.029 0 0.037 0 0.041 0 0.081 0 0.121 0 0.008 0 0.006 0 0.014 0 0.036 0 0.071 0 0.106 0 0.008 0 0.035 0 0.043 0 0.029 0 0.057 0 0.085 0 0.008 0 0.030 0 0.038 0 0.041 0 0.082 0 0.122 0 0.055 0 0.111 0 0.166 0 0.009 0 0.017 0 0.025 0 0.052 0 0.105 0 0.157 0 0.017 0 0.013 0 0.031 0 0.053 0 0.105 0 0.158 0 0.009 0 0.015 0 0.024 0 0.056 0 0.11 0 0.166-0h0.003c0.055 0 0.111-0 0.166-0h0.021c0.052 0 0.104-0 0.156-0 0.017 0 0.017 0 0.034 0 0.051 0 0.103-0 0.154-0 0.009 0 0.019 0 0.029 0 0.054 0 0.107-0 0.161-0.001h0.011c0.054-0 0.106-0 0.161-0.001h0.019c0.053-0 0.106-0 0.159-0.001 0.009 0 0.024 0 0.032 0 0.052-0 0.103-0 0.154-0.001 0.009 0 0.020 0 0.029 0 0.054-0 0.106-0.001 0.161-0.002 0.009 0 0.007 0 0.015 0 0.052-0 0.104-0.001 0.156-0.002h0.021c0.053-0 0.105-0.001 0.158-0.002 0.009 0 0.023 0 0.031-0 0.052-0 0.103-0.001 0.154-0.002 0.009 0 0.022 0 0.030-0 0.054-0 0.106-0.001 0.159-0.002 0.009 0 0.007 0 0.015 0 0.052-0 0.103-0.001 0.154-0.002 0.009 0 0.013 0 0.022 0 0.053-0 0.108-0.002 0.161-0.002 0.009 0 0.015 0 0.024-0 0.053-0 0.108-0.002 0.161-0.002 0.009 0 0.014 0 0.024-0 0.055-0 0.108-0.002 0.163-0.002 0.009 0 0.006 0 0.014 0 0.053-0 0.106-0.002 0.159-0.002 0.009 0 0.010 0 0.018 0 0.053-0.001 0.107-0.002 0.161-0.002 0.009 0 0.019 0 0.027-0 0.053-0.001 0.106-0.002 0.159-0.002 0.009 0 0.014 0 0.023-0 0.055-0.001 0.109-0.002 0.164-0.002 0.009 0 0.003 0 0.012 0 0.055-0.001 0.111-0.002 0.165-0.003 0.009 0 0.002 0 0.010 0 0.055-0.001 0.111-0.002 0.166-0.003 0.009 0 0.012 0 0.021-0 0.055-0.001 0.111-0.002 0.165-0.003 0.009 0 0.008 0 0.017-0 0.057-0.001 0.113-0.002 0.17-0.003 0.009 0-0.001 0 0.007 0 0.057-0.001 0.114-0.002 0.171-0.003 0.009 0-0.002 0 0.007 0 0.055-0.001 0.112-0.002 0.168-0.003 0.009 0 0.011 0 0.019-0 0.055-0.001 0.109-0.002 0.164-0.003 0.009 0 0.012 0 0.020-0 0.055-0.001 0.111-0.002 0.166-0.003 0.009 0 0.003 0 0.012 0 0.055-0.002 0.112-0.002 0.168-0.004 0.009 0-0.002 0 0.007 0 0.055-0.002 0.113-0.002 0.168-0.004 0.009 0 0.010 0 0.018-0 0.055-0.002 0.111-0.002 0.166-0.004 0.009 0 0.010 0 0.018-0 0.057-0.002 0.113-0.002 0.168-0.004h0.007c0.115-0.003 0.233-0.006 0.348-0.009 0.009 0 0.007 0 0.015-0 0.057-0.002 0.111-0.003 0.168-0.005 0.009 0 0.007 0 0.015-0 0.057-0.002 0.113-0.003 0.17-0.005h0.007c0.115-0.003 0.233-0.007 0.349-0.010 0.009 0 0.005 0 0.013-0 0.057-0.002 0.114-0.003 0.171-0.005l0.010-0c0.058-0.002 0.115-0.003 0.173-0.005h0.004c0.118-0.003 0.235-0.007 0.353-0.011h0.009c0.058-0.002 0.114-0.003 0.171-0.005l0.012-0c0.058-0.002 0.115-0.004 0.171-0.005h0.007c0.118-0.004 0.236-0.008 0.353-0.012h0.003c0.059-0.002 0.117-0.004 0.176-0.006h0.007c0.059-0.002 0.117-0.004 0.176-0.007h0.002c0.118-0.005 0.238-0.009 0.356-0.013h0.003c0.059-0.002 0.117-0.005 0.176-0.007h0.005c0.059-0.002 0.117-0.005 0.176-0.007h0.003c0.118-0.005 0.238-0.010 0.356-0.014h0.003c0.059-0.002 0.118-0.005 0.177-0.007h0.004c0.058-0.002 0.118-0.005 0.175-0.007h0.007c0.118-0.005 0.236-0.010 0.353-0.015h0.003c0.059-0.002 0.116-0.005 0.175-0.007h0.005c6.767-0.296 13.467-0.855 20.089-1.667l0.005-0c0.056-0.007 0.113-0.014 0.17-0.021l0.009-0.001c0.057-0.007 0.115-0.014 0.171-0.021v0c0.116-0.014 0.231-0.029 0.348-0.043l0.006-0c0.055-0.007 0.111-0.014 0.166-0.021l0.014-0.002c0.056-0.007 0.11-0.014 0.166-0.021l0.010-0.001c0.111-0.014 0.224-0.029 0.336-0.043l0.015-0.002c0.053-0.007 0.105-0.014 0.158-0.021 0.009-0.001 0.015-0.002 0.024-0.003 0.052-0.007 0.103-0.014 0.156-0.020 0.009-0.001 0.014-0.002 0.022-0.003 0.107-0.014 0.214-0.028 0.322-0.042 0.009-0.001 0.016-0.002 0.024-0.003 0.050-0.007 0.1-0.013 0.151-0.019 0.009-0.001 0.022-0.003 0.031-0.004 0.050-0.007 0.099-0.013 0.149-0.019 0.009-0.001 0.024-0.003 0.031-0.004 0.050-0.007 0.102-0.014 0.152-0.020 0.009-0.001 0.007-0.001 0.016-0.002 0.048-0.007 0.094-0.012 0.142-0.019 0.017-0.002 0.015-0.002 0.031-0.004 0.048-0.007 0.096-0.013 0.143-0.019 0.017-0.002 0.024-0.003 0.040-0.005 0.046-0.007 0.095-0.013 0.142-0.019 0.009-0.001 0.031-0.004 0.039-0.005 0.048-0.007 0.096-0.013 0.144-0.019 0.009-0.001 0.022-0.003 0.030-0.004 0.042-0.005 0.084-0.012 0.127-0.017 0.017-0.002 0.022-0.003 0.038-0.005 0.046-0.007 0.092-0.012 0.139-0.019 0.017-0.002 0.029-0.004 0.046-0.007 0.043-0.006 0.089-0.012 0.133-0.019 0.017-0.002 0.034-0.005 0.051-0.007 0.043-0.006 0.086-0.012 0.128-0.017 0.017-0.002 0.033-0.005 0.049-0.007 0.036-0.005 0.072-0.010 0.108-0.015 0.017-0.002 0.036-0.005 0.053-0.007 0.043-0.006 0.085-0.012 0.129-0.018 0.017-0.002 0.035-0.005 0.051-0.007 0.043-0.006 0.085-0.012 0.128-0.018 0.017-0.002 0.041-0.006 0.058-0.008 0.038-0.005 0.074-0.010 0.113-0.016 0.025-0.003 0.046-0.007 0.070-0.010 0.030-0.005 0.058-0.008 0.089-0.012 0.025-0.003 0.060-0.009 0.085-0.012 0.032-0.005 0.065-0.010 0.098-0.014 0.025-0.003 0.039-0.005 0.063-0.009 0.039-0.005 0.078-0.011 0.117-0.017 0.025-0.003 0.048-0.007 0.072-0.010 0.027-0.004 0.053-0.007 0.081-0.012 0.041-0.006 0.063-0.009 0.104-0.015 0.022-0.003 0.046-0.007 0.068-0.010 0.041-0.006 0.077-0.011 0.118-0.017 0.022-0.003 0.043-0.007 0.065-0.010 0.025-0.003 0.053-0.007 0.078-0.012 0.036-0.005 0.072-0.010 0.108-0.016 0.025-0.003 0.055-0.008 0.079-0.012 0.021-0.003 0.043-0.007 0.063-0.010 0.041-0.006 0.084-0.012 0.125-0.019 0.017-0.002 0.034-0.005 0.050-0.007 0.050-0.007 0.096-0.014 0.146-0.022 0.014-0.002 0.026-0.004 0.039-0.006 0.099-0.014 0.183-0.027 0.281-0.042 0.008-0.001 0.017-0.002 0.024-0.003 0.058-0.009 0.111-0.017 0.169-0.026 0.007-0.001 0.014-0.002 0.022-0.003 0.067-0.010 0.111-0.017 0.177-0.026 0.005-0.001 0.010-0.002 0.015-0.002 0.166-0.025 0.323-0.049 0.488-0.075 0.002-0 0.005-0 0.007-0.001 2.118-0.325 4.234-0.676 6.335-1.053l-5.64-31.499c-13.031 2.334-26.416 3.517-39.784 3.517z"></path>
</svg>
