<?xml version="1.0" encoding="utf-8"?>
<!-- Generated by IcoMoon.io -->
<!DOCTYPE svg PUBLIC "-//W3C//DTD SVG 1.1//EN" "http://www.w3.org/Graphics/SVG/1.1/DTD/svg11.dtd">
<svg version="1.1" xmlns="http://www.w3.org/2000/svg" xmlns:xlink="http://www.w3.org/1999/xlink" width="512" height="512" viewBox="0 0 512 512"><g id="icomoon-ignore">
</g>
<path d="M159.457 448l-31.457-18.166v-188.907l0.029-0 14.712-7.356c4.709-2.369 8.553-6.185 10.894-10.894l89.606-179.211c4.398-3.639 8.433-4.945 11.977-4.945 7.012 0 12.114 5.102 14.352 7.342 7.188 10.058-4.625 70.102-39.816 140.983-3.762 7.551-3.344 16.523 1.114 23.684s12.287 11.536 20.73 11.536h168.429c1.281 0.111 10.337 0.947 18.613 5.517 9.668 5.377 13.987 13.513 13.987 26.441s-4.319 21.092-13.987 26.441c-8.971 4.987-18.89 5.545-19.002 5.545-13.012 0.418-23.181 10.95-23.377 23.962 0 0.334-0.864 37.893-14.014 74.169-15.548 42.964-39.871 63.861-74.337 63.861h-148.452zM150.88 480h157.028c25.020 0 46.928-7.922 65.115-23.546 8.582-7.372 16.327-16.537 23.023-27.24 6.168-9.858 11.648-21.361 16.289-34.186 11.507-31.743 14.716-63.808 15.597-77.79 1.48-0.231 2.998-0.507 4.49-0.822 7.894-1.666 15.197-4.341 21.709-7.954v0c13.911-7.697 30.495-23.39 30.495-54.441 0-30.978-16.55-46.685-30.433-54.407l-0.086-0.048c-12.935-7.142-26.213-8.942-31.321-9.384l-1.377-0.119h-157.667c14.314-30.375 25.839-61.437 32.805-88.559 3.611-14.063 5.86-26.447 6.681-36.808 0.486-6.123 0.47-11.432-0.048-16.231-0.908-8.409-3.386-15.346-7.577-21.209l-1.538-2.151-1.87-1.87c-1.757-1.758-5.413-5.413-10.772-8.841-8.053-5.15-17.115-7.872-26.207-7.872-7.996 0-20.105 2.132-32.381 12.293l-5.2 4.303-91.486 182.97-5.955 2.977-24.196 0.446v238.795l54.88 31.693z"></path>
<path d="M31.996 224v0c17.671 0 31.996 14.325 31.996 31.996v192.008c0 17.671-14.325 31.996-31.996 31.996v0c-17.671 0-31.996-14.325-31.996-31.996v-192.008c0-17.671 14.325-31.996 31.996-31.996z"></path>
</svg>
