<?xml version="1.0" encoding="utf-8"?>
<!-- Generator: Adobe Illustrator 19.0.0, SVG Export Plug-In . SVG Version: 6.00 Build 0)  -->
<svg version="1.1" id="thumbs-down" xmlns="http://www.w3.org/2000/svg" xmlns:xlink="http://www.w3.org/1999/xlink" x="0px"
	 y="0px" viewBox="0 0 512 512.0083" enable-background="new 0 0 512 512.0083" xml:space="preserve">
<g>
	<path d="M120.1279,31.0859C83.9331,56.9404,64,91.3584,64,128v35.9497c-7.6533,2.1396-15.5903,5.3442-23.2539,10.0688
		C22.1577,185.478,0,209.0029,0,256c0,37.9624,0.8213,56.1353,8.6826,70.8335c4.458,8.335,13.3691,19.1172,30.5049,23.1465
		c8.1147,1.9082,16.2256,1.9082,24.79,1.9082l108.1934,0.0762c-4.0454,9.1152-7.6436,18.6074-10.6699,29.3857
		c-14.7388,40.877-13.3081,77.0449,4.0654,101.9502c12.9136,18.5127,33.3477,28.708,57.5381,28.708
		c0.4712,0,0.9385-0.0039,1.415-0.0117l0.2012-0.0039c23.9663-0.54,47.2598-15.7168,69.2324-45.1094
		c12.5869-16.8359,21.1514-33.5459,22.5635-36.3613l57.3867-110.5215H416V0.0015L200.1758,0
		C178.3262,0,146.1572,12.4927,120.1279,31.0859z M352,64.0005v192h-16.9795l-75.4199,145.2539l-0.3115,0.6143
		c-0.0557,0.1143-5.8428,11.7168-14.6118,23.9805c-11.3306,15.8467-19.3804,21.2236-21.9478,22.1562
		c-3.7896-0.0547-4.4048-0.9375-4.6724-1.3213c-3.2651-4.6797-4.9009-20.3975,3.9741-44.5166l0.4722-1.2822l0.3604-1.3184
		c4.5156-16.4912,11.2578-29.458,20.5898-47.4033c2.8955-5.5684,5.8896-11.3262,9.1411-17.7979l23.2744-46.3291l-211.293-0.1484
		C64,277.7515,64,263.4497,64,256c0-19.2212,5.0864-32.0225,29.9097-32.0225c0.5547,0,1.0391,0.0078,1.4434,0.0161L128,224.6538V128
		c0-19.4473,15.5342-34.8174,28.5664-44.2871C175.2095,70.166,195.0483,64.2163,200.2446,64L352,64.0005z"/>
	<path d="M480,0c-17.6729,0-32,14.3271-32,32v256.0005c0,17.6729,14.3271,32,32,32s32-14.3271,32-32V32
		C512,14.3271,497.6729,0,480,0z"/>
</g>
</svg>
