<?xml version="1.0" encoding="utf-8"?>
<!-- Generated by IcoMoon.io -->
<!DOCTYPE svg PUBLIC "-//W3C//DTD SVG 1.1//EN" "http://www.w3.org/Graphics/SVG/1.1/DTD/svg11.dtd">
<svg version="1.1" xmlns="http://www.w3.org/2000/svg" xmlns:xlink="http://www.w3.org/1999/xlink" width="512" height="512" viewBox="0 0 512 512"><g id="icomoon-ignore">
</g>
<path d="M396.839 268.312c20.293-18.726 33.238-45.292 33.238-75.019 0-56.457-45.947-102.404-102.404-102.404s-102.404 45.948-102.404 102.404c0 29.727 12.944 56.293 33.238 75.019-67.435 27.433-115.161 93.557-115.161 170.753v40.962c0 11.305 9.175 20.481 20.481 20.481s20.481-9.175 20.481-20.481v-40.962c0-79.045 64.322-143.367 143.366-143.367s143.366 64.322 143.366 143.366v40.962c0 11.305 9.175 20.481 20.481 20.481s20.481-9.175 20.481-20.481v-40.962c0-77.196-47.704-143.343-115.161-170.753zM266.252 193.27c0-33.893 27.55-61.443 61.443-61.443 33.87 0 61.443 27.55 61.443 61.443s-27.55 61.443-61.443 61.443c-33.893 0-61.443-27.55-61.443-61.443z"></path>
<path d="M148.47 165.112c42.343 0 76.798-34.454 76.798-76.798s-34.454-76.798-76.798-76.798-76.798 34.455-76.798 76.798c0 18.163 6.6 34.642 17.18 47.797-52.243 23.032-88.852 75.23-88.852 135.876v31.997c0 11.305 9.175 20.481 20.481 20.481s20.481-9.175 20.481-20.481v-31.997c0-58.213 46.556-105.494 104.371-107.203 1.054 0.047 2.059 0.327 3.137 0.327zM112.633 88.314c0-19.755 16.081-35.836 35.836-35.836s35.836 16.081 35.836 35.836c0 19.030-14.957 34.501-33.729 35.626-0.726-0.070-1.357-0.421-2.107-0.421-1.428 0-2.809 0.164-4.214 0.21-17.743-2.106-31.623-17.087-31.623-35.415z"></path>
</svg>
