<?xml version="1.0" encoding="utf-8"?>
<!-- Generator: Adobe Illustrator 19.0.0, SVG Export Plug-In . SVG Version: 6.00 Build 0)  -->
<svg version="1.1" id="workflow" xmlns="http://www.w3.org/2000/svg" xmlns:xlink="http://www.w3.org/1999/xlink" x="0px" y="0px"
	 viewBox="0 0 512 512" enable-background="new 0 0 512 512" xml:space="preserve">
<g>
	<path d="M448,0H64C28.7104,0,0,28.7104,0,64v384c0,35.29,28.7104,64,64,64h384c35.29,0,64-28.71,64-64V64
		C512,28.7104,483.29,0,448,0z M448,448H64V64h384l0.04,383.998C448.04,447.998,448.0273,448,448,448z"/>
	<path d="M352,257.6034V208h32l-48-96l-48,96h32v49.6034c-31.3453,6.3631-56.0335,31.0513-62.3966,62.3966H192v-64h64V96H96v160h64
		v64v32h32h65.6034c7.4127,36.5153,39.6936,64,78.3966,64c44.1828,0,80-35.8173,80-80C416,297.297,388.5154,265.0161,352,257.6034z"
		/>
</g>
</svg>
