<?xml version="1.0" encoding="utf-8"?>
<!-- Generated by IcoMoon.io -->
<!DOCTYPE svg PUBLIC "-//W3C//DTD SVG 1.1//EN" "http://www.w3.org/Graphics/SVG/1.1/DTD/svg11.dtd">
<svg version="1.1" xmlns="http://www.w3.org/2000/svg" xmlns:xlink="http://www.w3.org/1999/xlink" width="512" height="512" viewBox="0 0 512 512"><g id="icomoon-ignore">
</g>
<path d="M455.111 0h-398.222c-31.37 0-56.889 25.519-56.889 56.889v398.222c0 31.37 25.519 56.889 56.889 56.889h398.222c31.37 0 56.889-25.519 56.889-56.889v-398.222c0-31.37-25.519-56.889-56.889-56.889zM160 448h-96v-96h96v96zM160 160h-96v-96h96v96zM320 448h-128v-96h128v96zM320 160h-128v-96h128v96zM448 448h-96v-96h96v96zM448 160h-96v-96h96v96z"></path>
</svg>
