<?xml version="1.0" encoding="utf-8"?>
<!-- Generated by IcoMoon.io -->
<!DOCTYPE svg PUBLIC "-//W3C//DTD SVG 1.1//EN" "http://www.w3.org/Graphics/SVG/1.1/DTD/svg11.dtd">
<svg version="1.1" xmlns="http://www.w3.org/2000/svg" xmlns:xlink="http://www.w3.org/1999/xlink" width="512" height="512" viewBox="0 0 512 512"><g id="icomoon-ignore">
</g>
<path d="M0 128v295.111c0 31.37 25.519 56.889 56.889 56.889h398.222c31.37 0 56.889-25.519 56.889-56.889v-295.111h-512zM64 416v-224h384l0.033 224h-384.033z"></path>
<path d="M480 96h-448c-17.6 0-32-14.4-32-32v0c0-17.6 14.4-32 32-32h448c17.6 0 32 14.4 32 32v0c0 17.6-14.4 32-32 32z"></path>
<path d="M320 320h-128c-17.6 0-32-14.4-32-32v0c0-17.6 14.4-32 32-32h128c17.6 0 32 14.4 32 32v0c0 17.6-14.4 32-32 32z"></path>
</svg>
