<?xml version="1.0" encoding="utf-8"?>
<!-- Generator: Adobe Illustrator 19.0.0, SVG Export Plug-In . SVG Version: 6.00 Build 0)  -->
<svg version="1.1" id="calendar" xmlns="http://www.w3.org/2000/svg" xmlns:xlink="http://www.w3.org/1999/xlink" x="0px" y="0px"
	 viewBox="0 0 512 480" enable-background="new 0 0 512 480" xml:space="preserve">
<g>
	<path d="M448,96V32c0-17.6729-14.3271-32-32-32s-32,14.3271-32,32v64h-96V32c0-17.6729-14.3271-32-32-32s-32,14.3271-32,32v64h-96
		V32c0-17.6729-14.3271-32-32-32S64,14.3271,64,32v64H0v320c0,35.29,28.7104,64,64,64h384c35.29,0,64-28.71,64-64V96H448z M448,416
		H64V160h384.0049l0.0352,255.998C448.04,415.998,448.0273,416,448,416z"/>
	<path d="M144,224h-32c-8.8365,0-16,7.1635-16,16v32c0,8.8365,7.1635,16,16,16h32c8.8365,0,16-7.1635,16-16v-32
		C160,231.1635,152.8365,224,144,224z"/>
	<path d="M272,224h-32c-8.8365,0-16,7.1635-16,16v32c0,8.8365,7.1635,16,16,16h32c8.8365,0,16-7.1635,16-16v-32
		C288,231.1635,280.8365,224,272,224z"/>
	<path d="M400,224h-32c-8.8365,0-16,7.1635-16,16v32c0,8.8365,7.1635,16,16,16h32c8.8365,0,16-7.1635,16-16v-32
		C416,231.1635,408.8365,224,400,224z"/>
	<path d="M144,320h-32c-8.8365,0-16,7.1635-16,16v32c0,8.8365,7.1635,16,16,16h32c8.8365,0,16-7.1635,16-16v-32
		C160,327.1635,152.8365,320,144,320z"/>
	<path d="M272,320h-32c-8.8365,0-16,7.1635-16,16v32c0,8.8365,7.1635,16,16,16h32c8.8365,0,16-7.1635,16-16v-32
		C288,327.1635,280.8365,320,272,320z"/>
	<path d="M400,320h-32c-8.8365,0-16,7.1635-16,16v32c0,8.8365,7.1635,16,16,16h32c8.8365,0,16-7.1635,16-16v-32
		C416,327.1635,408.8365,320,400,320z"/>
</g>
</svg>
