<?xml version="1.0" encoding="utf-8"?>
<!-- Generated by IcoMoon.io -->
<!DOCTYPE svg PUBLIC "-//W3C//DTD SVG 1.1//EN" "http://www.w3.org/Graphics/SVG/1.1/DTD/svg11.dtd">
<svg version="1.1" xmlns="http://www.w3.org/2000/svg" xmlns:xlink="http://www.w3.org/1999/xlink" width="512" height="512" viewBox="0 0 512 512"><g id="icomoon-ignore">
</g>
<path d="M240 288h32l16-160h-64z"></path>
<path d="M288 352c0 17.673-14.327 32-32 32s-32-14.327-32-32c0-17.673 14.327-32 32-32s32 14.327 32 32z"></path>
<path d="M491.856 156.333c-12.897-30.492-31.346-57.863-54.837-81.353s-50.861-41.94-81.353-54.837c-31.602-13.367-65.135-20.144-99.666-20.144s-68.064 6.777-99.666 20.144c-30.492 12.897-57.863 31.346-81.353 54.837s-41.94 50.861-54.837 81.353c-13.367 31.602-20.144 65.135-20.144 99.667s6.777 68.065 20.144 99.666c12.897 30.491 31.346 57.863 54.837 81.353s50.861 41.94 81.353 54.837c31.602 13.366 65.135 20.144 99.666 20.144s68.065-6.777 99.666-20.144c30.491-12.897 57.863-31.346 81.353-54.837s41.94-50.861 54.837-81.353c13.366-31.602 20.144-65.135 20.144-99.666s-6.777-68.064-20.144-99.666zM256 448c-106.038 0-192-85.962-192-192s85.962-192 192-192 192 85.962 192 192-85.962 192-192 192z"></path>
</svg>
