<?xml version="1.0" encoding="utf-8"?>
<!-- Generator: Adobe Illustrator 19.2.1, SVG Export Plug-In . SVG Version: 6.00 Build 0)  -->
<svg version="1.1" id="Layer_1" xmlns="http://www.w3.org/2000/svg" xmlns:xlink="http://www.w3.org/1999/xlink" x="0px" y="0px"
	 viewBox="0 0 512 512" enable-background="new 0 0 512 512" xml:space="preserve">
<rect y="64" fill="#B0BEC9" width="512" height="384"/>
<rect x="16" y="80" fill="#75BD4A" width="480" height="96"/>
<rect x="16" y="336" fill="#E03232" width="480" height="96"/>
<rect x="16" y="176" fill="#FFFFFF" width="480" height="160"/>
<rect x="32" y="143.4" opacity="0.5" fill="#FFFFFF" enable-background="new    " width="16.6" height="16.6"/>
<rect x="65.2" y="143.4" opacity="0.5" fill="#FFFFFF" enable-background="new    " width="16.6" height="16.6"/>
<rect x="98.4" y="143.4" opacity="0.5" fill="#FFFFFF" enable-background="new    " width="16.6" height="16.6"/>
<rect x="131.6" y="143.4" opacity="0.5" fill="#FFFFFF" enable-background="new    " width="16.6" height="16.6"/>
<rect x="164.7" y="143.4" opacity="0.5" fill="#FFFFFF" enable-background="new    " width="16.6" height="16.6"/>
<rect x="197.9" y="143.4" opacity="0.5" fill="#FFFFFF" enable-background="new    " width="16.6" height="16.6"/>
<rect x="231.1" y="143.4" opacity="0.5" fill="#FFFFFF" enable-background="new    " width="16.6" height="16.6"/>
<rect x="264.3" y="143.4" opacity="0.5" fill="#FFFFFF" enable-background="new    " width="16.6" height="16.6"/>
<rect x="297.5" y="143.4" opacity="0.5" fill="#FFFFFF" enable-background="new    " width="16.6" height="16.6"/>
<rect x="330.7" y="143.4" opacity="0.5" fill="#FFFFFF" enable-background="new    " width="16.6" height="16.6"/>
<rect x="363.9" y="143.4" opacity="0.5" fill="#FFFFFF" enable-background="new    " width="16.6" height="16.6"/>
<rect x="397" y="143.4" opacity="0.5" fill="#FFFFFF" enable-background="new    " width="16.6" height="16.6"/>
<rect x="430.2" y="143.4" opacity="0.5" fill="#FFFFFF" enable-background="new    " width="16.6" height="16.6"/>
<rect x="463.4" y="143.4" opacity="0.5" fill="#FFFFFF" enable-background="new    " width="16.6" height="16.6"/>
<rect x="32" y="352" opacity="0.5" fill="#FFFFFF" enable-background="new    " width="16.6" height="16.6"/>
<rect x="65.2" y="352" opacity="0.5" fill="#FFFFFF" enable-background="new    " width="16.6" height="16.6"/>
<rect x="98.4" y="352" opacity="0.5" fill="#FFFFFF" enable-background="new    " width="16.6" height="16.6"/>
<rect x="131.6" y="352" opacity="0.5" fill="#FFFFFF" enable-background="new    " width="16.6" height="16.6"/>
<rect x="164.7" y="352" opacity="0.5" fill="#FFFFFF" enable-background="new    " width="16.6" height="16.6"/>
<rect x="197.9" y="352" opacity="0.5" fill="#FFFFFF" enable-background="new    " width="16.6" height="16.6"/>
<rect x="231.1" y="352" opacity="0.5" fill="#FFFFFF" enable-background="new    " width="16.6" height="16.6"/>
<rect x="264.3" y="352" opacity="0.5" fill="#FFFFFF" enable-background="new    " width="16.6" height="16.6"/>
<rect x="297.5" y="352" opacity="0.5" fill="#FFFFFF" enable-background="new    " width="16.6" height="16.6"/>
<rect x="330.7" y="352" opacity="0.5" fill="#FFFFFF" enable-background="new    " width="16.6" height="16.6"/>
<rect x="363.9" y="352" opacity="0.5" fill="#FFFFFF" enable-background="new    " width="16.6" height="16.6"/>
<rect x="397" y="352" opacity="0.5" fill="#FFFFFF" enable-background="new    " width="16.6" height="16.6"/>
<rect x="430.2" y="352" opacity="0.5" fill="#FFFFFF" enable-background="new    " width="16.6" height="16.6"/>
<rect x="463.4" y="352" opacity="0.5" fill="#FFFFFF" enable-background="new    " width="16.6" height="16.6"/>
<circle fill="#E03232" cx="254" cy="252" r="40"/>
</svg>
