<?xml version="1.0" encoding="iso-8859-1"?>
<!-- Generator: Adobe Illustrator 18.0.0, SVG Export Plug-In . SVG Version: 6.00 Build 0)  -->
<!DOCTYPE svg PUBLIC "-//W3C//DTD SVG 1.1//EN" "http://www.w3.org/Graphics/SVG/1.1/DTD/svg11.dtd">
<svg version="1.1" xmlns="http://www.w3.org/2000/svg" xmlns:xlink="http://www.w3.org/1999/xlink" x="0px" y="0px"
	 viewBox="0 0 32 24" style="enable-background:new 0 0 32 24;" xml:space="preserve">
<g id="en-AU">
	<g>
		<rect style="fill:#B0BEC9;" width="32" height="24"/>
		<rect x="1" y="1" style="fill:#0035A0;" width="30" height="22"/>
		<g>
			<rect x="5.5" y="1" style="fill:#FFFFFF;" width="3" height="12"/>
		</g>
		<g>
			<rect x="1" y="5.5" style="fill:#FFFFFF;" width="12" height="3"/>
		</g>
		<g>
			<rect x="1" y="5.5" style="fill:#FFFFFF;" width="12" height="3"/>
		</g>
		<g>
			<rect x="6" y="1" style="fill:#E03232;" width="2" height="12"/>
		</g>
		<g>
			<rect x="1" y="6" style="fill:#E03232;" width="12" height="2"/>
		</g>
		<g>
			<polygon style="fill:#E03232;" points="1.707,1 1,1 1,1.707 12.293,13 13,13 13,12.293 			"/>
		</g>
		<g>
			<polygon style="fill:#E03232;" points="13,1.707 13,1 12.293,1 1,12.293 1,13 1.707,13 			"/>
		</g>
		<rect x="24" y="13" style="fill:#FFFFFF;" width="1" height="1"/>
		<rect x="6" y="17" style="fill:#FFFFFF;" width="2" height="2"/>
		<rect x="18" y="3" style="fill:#FFFFFF;" width="2" height="2"/>
		<rect x="17" y="11" style="fill:#FFFFFF;" width="2" height="2"/>
		<rect x="25" y="7" style="fill:#FFFFFF;" width="2" height="2"/>
	</g>
</g>
</svg>
