<?xml version="1.0" encoding="iso-8859-1"?>
<!-- Generator: Adobe Illustrator 18.0.0, SVG Export Plug-In . SVG Version: 6.00 Build 0)  -->
<!DOCTYPE svg PUBLIC "-//W3C//DTD SVG 1.1//EN" "http://www.w3.org/Graphics/SVG/1.1/DTD/svg11.dtd">
<svg version="1.1" xmlns="http://www.w3.org/2000/svg" xmlns:xlink="http://www.w3.org/1999/xlink" x="0px" y="0px"
	 viewBox="0 0 32 24" style="enable-background:new 0 0 32 24;" xml:space="preserve">
<g id="fa-IR">
	<g>
		<rect style="fill:#B0BEC9;" width="32" height="24"/>
		<rect x="1" y="1" style="fill:#75BD4A;" width="30" height="6"/>
		<rect x="1" y="17" style="fill:#E03232;" width="30" height="6"/>
		<rect x="1" y="7" style="fill:#FFFFFF;" width="30" height="10"/>
		<rect x="2" y="4.963" style="opacity:0.5;fill:#FFFFFF;" width="1.037" height="1.037"/>
		<rect x="4.074" y="4.963" style="opacity:0.5;fill:#FFFFFF;" width="1.037" height="1.037"/>
		<rect x="6.148" y="4.963" style="opacity:0.5;fill:#FFFFFF;" width="1.037" height="1.037"/>
		<rect x="8.222" y="4.963" style="opacity:0.5;fill:#FFFFFF;" width="1.037" height="1.037"/>
		<rect x="10.296" y="4.963" style="opacity:0.5;fill:#FFFFFF;" width="1.037" height="1.037"/>
		<rect x="12.37" y="4.963" style="opacity:0.5;fill:#FFFFFF;" width="1.037" height="1.037"/>
		<rect x="14.444" y="4.963" style="opacity:0.5;fill:#FFFFFF;" width="1.037" height="1.037"/>
		<rect x="16.519" y="4.963" style="opacity:0.5;fill:#FFFFFF;" width="1.037" height="1.037"/>
		<rect x="18.593" y="4.963" style="opacity:0.5;fill:#FFFFFF;" width="1.037" height="1.037"/>
		<rect x="20.667" y="4.963" style="opacity:0.5;fill:#FFFFFF;" width="1.037" height="1.037"/>
		<rect x="22.741" y="4.963" style="opacity:0.5;fill:#FFFFFF;" width="1.037" height="1.037"/>
		<rect x="24.815" y="4.963" style="opacity:0.5;fill:#FFFFFF;" width="1.037" height="1.037"/>
		<rect x="26.889" y="4.963" style="opacity:0.5;fill:#FFFFFF;" width="1.037" height="1.037"/>
		<rect x="28.963" y="4.963" style="opacity:0.5;fill:#FFFFFF;" width="1.037" height="1.037"/>
		<rect x="2" y="18" style="opacity:0.5;fill:#FFFFFF;" width="1.037" height="1.037"/>
		<rect x="4.074" y="18" style="opacity:0.5;fill:#FFFFFF;" width="1.037" height="1.037"/>
		<rect x="6.148" y="18" style="opacity:0.5;fill:#FFFFFF;" width="1.037" height="1.037"/>
		<rect x="8.222" y="18" style="opacity:0.5;fill:#FFFFFF;" width="1.037" height="1.037"/>
		<rect x="10.296" y="18" style="opacity:0.5;fill:#FFFFFF;" width="1.037" height="1.037"/>
		<rect x="12.37" y="18" style="opacity:0.5;fill:#FFFFFF;" width="1.037" height="1.037"/>
		<rect x="14.444" y="18" style="opacity:0.5;fill:#FFFFFF;" width="1.037" height="1.037"/>
		<rect x="16.519" y="18" style="opacity:0.5;fill:#FFFFFF;" width="1.037" height="1.037"/>
		<rect x="18.593" y="18" style="opacity:0.5;fill:#FFFFFF;" width="1.037" height="1.037"/>
		<rect x="20.667" y="18" style="opacity:0.5;fill:#FFFFFF;" width="1.037" height="1.037"/>
		<rect x="22.741" y="18" style="opacity:0.5;fill:#FFFFFF;" width="1.037" height="1.037"/>
		<rect x="24.815" y="18" style="opacity:0.5;fill:#FFFFFF;" width="1.037" height="1.037"/>
		<rect x="26.889" y="18" style="opacity:0.5;fill:#FFFFFF;" width="1.037" height="1.037"/>
		<rect x="28.963" y="18" style="opacity:0.5;fill:#FFFFFF;" width="1.037" height="1.037"/>
		<circle style="fill:#E03232;" cx="15.875" cy="11.753" r="2.5"/>
	</g>
</g>
</svg>
