<?xml version="1.0" encoding="utf-8"?>
<!-- Generator: Adobe Illustrator 19.0.0, SVG Export Plug-In . SVG Version: 6.00 Build 0)  -->
<svg version="1.1" id="format" xmlns="http://www.w3.org/2000/svg" xmlns:xlink="http://www.w3.org/1999/xlink" x="0px" y="0px"
	 viewBox="0 0 384 512" enable-background="new 0 0 384 512" xml:space="preserve">
<g>
	<path d="M352,0H96C78.4,0,64,14.4,64,32v144c0,17.6,14.4,32,32,32h256c17.6,0,32-14.4,32-32V32C384,14.4,369.6,0,352,0z"/>
	<path d="M256,320v-64c0-8.8364-7.1631-16-16-16H32V96c0-8.8364-7.1636-16-16-16S0,87.1636,0,96v160c0,8.8369,7.1636,16,16,16h208
		v48c-17.6,0-32,14.4-32,32v128c0,17.6,14.4,32,32,32h32c17.6,0,32-14.4,32-32V352C288,334.4,273.6,320,256,320z"/>
</g>
</svg>
