<?xml version="1.0" encoding="utf-8"?>
<!-- Generator: Adobe Illustrator 19.0.0, SVG Export Plug-In . SVG Version: 6.00 Build 0)  -->
<svg version="1.1" id="hidden" xmlns="http://www.w3.org/2000/svg" xmlns:xlink="http://www.w3.org/1999/xlink" x="0px" y="0px"
	 viewBox="0 0 512 436" enable-background="new 0 0 512 436" xml:space="preserve">
<g>
	<path d="M445.6982,12.3018c-16.4023-16.4023-42.9941-16.4023-59.3965,0l-68.2316,68.2316
		c-26.4254-5.8365-47.2835-6.5294-57.6635-6.5294c-3.1384,0-3.7601,0.0617-6.9594,0.0617v0.1719
		c0-0.0992-3.7164-0.2375-7.8062-0.2375C209.9582,74,81.2656,84.4789,3.2292,222.5328c-9.0824,16.0696,3.265,30.6672,9.2105,39.2797
		c18.524,26.7916,38.6472,48.1525,59.1522,65.1991l-37.2902,37.2902c-16.4023,16.4014-16.4023,42.9951,0,59.3965
		C42.5024,431.8994,53.2515,436,64,436s21.4976-4.1006,29.6982-12.3018l352-352C462.1006,55.2964,462.1006,28.7036,445.6982,12.3018
		z M55.9866,234.557c26.8224-42.0859,62.0492-72.6562,104.8947-90.9859c6.6454-2.843,13.13-5.2227,19.4036-7.2617
		c-32.8257,22.9968-54.3102,61.0851-54.3102,104.2148c0,9.9127,1.1427,19.5558,3.2919,28.8127l-21.2262,21.2262
		C90.0422,276.1462,72.33,257.829,55.9866,234.557z"/>
	<path d="M499.7458,206.189c-10.6108-15.348-21.7278-28.9044-33.1218-40.9015l-35.6954,36.6708
		c8.7316,9.3387,17.2793,19.7817,25.5046,31.4956c-33.1538,52.1101-74.3496,79.5117-110.4122,93.8679
		c18.1773-19.4545,30.3268-44.6105,33.452-72.5019L244.1777,393.8127c3.7186,0.1431,6.8986,0.1849,9.446,0.1849
		c3.1774,0,6.2221-0.0617,6.2221-0.0617v-0.1734c3.1993,0.0992,4.6037,0.2375,8.6465,0.2375
		c35.2471,0,162.2136-10.4852,240.2405-148.5312C517.8154,229.3992,505.7024,214.7969,499.7458,206.189z"/>
</g>
</svg>
