<?xml version="1.0" encoding="utf-8"?>
<!-- Generated by IcoMoon.io -->
<!DOCTYPE svg PUBLIC "-//W3C//DTD SVG 1.1//EN" "http://www.w3.org/Graphics/SVG/1.1/DTD/svg11.dtd">
<svg version="1.1" xmlns="http://www.w3.org/2000/svg" xmlns:xlink="http://www.w3.org/1999/xlink" width="512" height="512" viewBox="0 0 512 512"><g id="icomoon-ignore">
</g>
<path d="M258.872 247.804h-2.872c-44.507 0-80.687 36.206-80.687 80.687v155.181c0 12.728 10.329 23.057 23.057 23.057s23.057-10.329 23.057-23.057v-155.181c0-19.079 15.521-34.572 34.572-34.572h2.872c17.497 0 31.7 14.23 31.7 31.7v158.079c0 12.728 10.329 23.057 23.057 23.057s23.057-10.329 23.057-23.057v-158.079c0-42.926-34.889-77.814-77.814-77.814z"></path>
<path d="M503.12 239.952l-214.049-220.69c-8.748-9.039-20.474-14.018-33.070-14.018-12.57 0-24.322 4.98-33.097 13.992h-0.026l-214.023 220.69c-8.854 9.143-8.643 23.743 0.501 32.596 4.479 4.348 10.277 6.509 16.048 6.509 6.008 0 12.042-2.346 16.548-7.010l6.508-6.719v214.049c0 12.728 10.329 23.057 23.057 23.057s23.057-10.329 23.057-23.057v-261.587l161.427-166.38c0 0 0 0 0 0l161.4 166.433v261.587c0 12.728 10.329 23.057 23.057 23.057s23.057-10.329 23.057-23.057v-214.049l6.509 6.719c4.506 4.664 10.514 7.010 16.548 7.010 5.798 0 11.568-2.161 16.048-6.509 9.144-8.88 9.38-23.478 0.501-32.622z"></path>
</svg>
