<?xml version="1.0" encoding="utf-8"?>
<!-- Generator: Adobe Illustrator 19.0.0, SVG Export Plug-In . SVG Version: 6.00 Build 0)  -->
<svg version="1.1" id="import_x5F_export" xmlns="http://www.w3.org/2000/svg" xmlns:xlink="http://www.w3.org/1999/xlink" x="0px"
	 y="0px" viewBox="0 0 416 513.9673" enable-background="new 0 0 416 513.9673" xml:space="preserve">
<g>
	<path d="M198.5104,82.0729l-71.5978-71.5988c-6.0773-6.0764-14.3182-9.4902-22.912-9.4902s-16.8347,3.4139-22.9116,9.4902
		L9.4901,82.0729c-12.6535,12.6535-12.6535,33.1696,0,45.8231c6.327,6.327,14.6193,9.4902,22.9116,9.4902
		s16.5846-3.1633,22.9116-9.4902L72,111.2093v370.758c0,17.6729,14.3271,32,32,32s32-14.3271,32-32v-370.758l16.6863,16.6868
		c12.654,12.6535,33.1711,12.6535,45.8231,0C211.1634,115.2426,211.1634,94.7269,198.5104,82.0729z"/>
	<path d="M406.5099,386.0717c-6.327-6.327-14.6193-9.4903-22.9116-9.4903s-16.5846,3.1633-22.9116,9.4903L344,402.7585V32
		c0-17.6733-14.3271-32-32-32s-32,14.3267-32,32v370.7585l-16.6863-16.6868c-12.654-12.6535-33.1711-12.6535-45.8231,0
		c-12.654,12.6534-12.654,33.1691-0.001,45.8231l71.5978,71.5988c6.0773,6.0763,14.3182,9.4902,22.912,9.4902
		s16.8347-3.4139,22.9116-9.4902l71.5988-71.5988C419.1634,419.2413,419.1634,398.7252,406.5099,386.0717z"/>
</g>
</svg>
