<?xml version="1.0" encoding="utf-8"?>
<!-- Generator: Adobe Illustrator 19.0.0, SVG Export Plug-In . SVG Version: 6.00 Build 0)  -->
<svg version="1.1" id="mark-as-question" xmlns="http://www.w3.org/2000/svg" xmlns:xlink="http://www.w3.org/1999/xlink" x="0px"
	 y="0px" viewBox="0 0 416 448" enable-background="new 0 0 416 448" xml:space="preserve">
<g>
	<path class="lexicon-icon-outline" d="M256,128c17.6729,0,32-14.3267,32-32c0-17.645,14.3555-32,32-32s32,14.355,32,32c0,18.5171-6.9668,26.209-22.7246,41.8433
		C311.8564,155.126,288,178.7954,288,224c0,17.6729,14.3271,32,32,32s32-14.3271,32-32c0-17.7974,6.8525-25.3462,22.3525-40.7241
		C391.9287,165.8374,416,141.9546,416,96c0-52.9346-43.0654-96-96-96s-96,43.0654-96,96C224,113.6733,238.3271,128,256,128z"/>
	<circle cx="320" cy="320" r="32"/>
	<path class="lexicon-icon-outline" d="M32,352h128c17.6729,0,32-14.3267,32-32s-14.3271-32-32-32H32c-17.6733,0-32,14.3267-32,32S14.3267,352,32,352z"/>
	<path class="lexicon-icon-outline" d="M352,384H32c-17.6733,0-32,14.3271-32,32s14.3267,32,32,32h320c17.6729,0,32-14.3271,32-32S369.6729,384,352,384z"/>
</g>
</svg>
