<?xml version="1.0" encoding="utf-8"?>
<!-- Generator: Adobe Illustrator 19.2.1, SVG Export Plug-In . SVG Version: 6.00 Build 0)  -->
<svg version="1.1" id="mobile-landscape" xmlns="http://www.w3.org/2000/svg" xmlns:xlink="http://www.w3.org/1999/xlink" width="512" height="512" x="0px"
	 y="0px" viewBox="0 0 384 288" style="enable-background:new 0 0 384 288;" xml:space="preserve">
<path class="lexicon-icon-body" fill="none" d="M320,0H64C28.8,0,0,28.8,0,64v160c0,35.2,28.8,64,64,64h256c35.2,0,64-28.8,64-64V64C384,28.8,355.2,0,320,0z
	 M336,160c-8.8,0-16-7.2-16-16s7.2-16,16-16s16,7.2,16,16S344.8,160,336,160z"/>
<path class="lexicon-icon-outline" d="M320,0H64C28.8,0,0,28.8,0,64v160c0,35.2,28.8,64,64,64h256c35.2,0,64-28.8,64-64V64C384,28.8,355.2,0,320,0z M286.8,224H64
	V64h222.8V224L286.8,224z M336,160c-8.8,0-16-7.2-16-16s7.2-16,16-16s16,7.2,16,16S344.8,160,336,160z"/>
</svg>