<?xml version="1.0" encoding="utf-8"?>
<!-- Generator: Adobe Illustrator 19.0.0, SVG Export Plug-In . SVG Version: 6.00 Build 0)  -->
<svg version="1.1" id="polls" xmlns="http://www.w3.org/2000/svg" xmlns:xlink="http://www.w3.org/1999/xlink" x="0px" y="0px"
	 viewBox="0 0 512 512" enable-background="new 0 0 512 512" xml:space="preserve">
<g>
	<path d="M448,0H64C28.7104,0,0,28.7104,0,64v384c0,35.29,28.7104,64,64,64h384c35.29,0,64-28.71,64-64V64
		C512,28.7104,483.29,0,448,0z M448,448H64V64h384l0.04,383.998C448.04,447.998,448.0273,448,448,448z"/>
	<path d="M160,128c-17.6729,0-32,14.3271-32,32v192c0,17.6733,14.3271,32,32,32s32-14.3267,32-32V160
		C192,142.3271,177.6729,128,160,128z"/>
	<path d="M256,224c-17.6729,0-32,14.3271-32,32v96c0,17.6733,14.3271,32,32,32s32-14.3267,32-32v-96
		C288,238.3271,273.6729,224,256,224z"/>
	<path d="M352,192c-17.6729,0-32,14.3271-32,32v128c0,17.6733,14.3271,32,32,32s32-14.3267,32-32V224
		C384,206.3271,369.6729,192,352,192z"/>
</g>
</svg>
