<?xml version="1.0" encoding="utf-8"?>
<!-- Generated by IcoMoon.io -->
<!DOCTYPE svg PUBLIC "-//W3C//DTD SVG 1.1//EN" "http://www.w3.org/Graphics/SVG/1.1/DTD/svg11.dtd">
<svg version="1.1" xmlns="http://www.w3.org/2000/svg" xmlns:xlink="http://www.w3.org/1999/xlink" width="512" height="512" viewBox="0 0 512 512"><g id="icomoon-ignore">
</g>
<path d="M256 128c-70.692 0-128 57.308-128 128s57.308 128 128 128 128-57.308 128-128-57.308-128-128-128zM301.255 301.255c-12.088 12.088-28.16 18.745-45.255 18.745s-33.167-6.657-45.255-18.745c-12.088-12.088-18.745-28.16-18.745-45.255s6.657-33.167 18.745-45.255c12.088-12.088 28.16-18.745 45.255-18.745s33.167 6.657 45.255 18.745c12.088 12.088 18.745 28.16 18.745 45.255s-6.657 33.167-18.745 45.255z"></path>
<path d="M480 224h-32c-17.673 0-32 14.327-32 32v0c0 17.673 14.327 32 32 32h32c17.673 0 32-14.327 32-32v0c0-17.673-14.327-32-32-32z"></path>
<path d="M96 256v0c0-17.673-14.327-32-32-32h-32c-17.673 0-32 14.327-32 32v0c0 17.673 14.327 32 32 32h32c17.673 0 32-14.327 32-32z"></path>
<path d="M256 416v0c-17.673 0-32 14.327-32 32v32c0 17.673 14.327 32 32 32v0c17.673 0 32-14.327 32-32v-32c0-17.673-14.327-32-32-32z"></path>
<path d="M256 96v0c17.673 0 32-14.327 32-32v-32c0-17.673-14.327-32-32-32v0c-17.673 0-32 14.327-32 32v32c0 17.673 14.327 32 32 32z"></path>
<path d="M414.392 369.137c-12.497-12.497-32.758-12.497-45.255 0v0c-12.497 12.497-12.497 32.758 0 45.255l22.627 22.627c12.497 12.497 32.758 12.497 45.255 0v0c12.497-12.497 12.497-32.758 0-45.255l-22.627-22.627z"></path>
<path d="M97.608 142.863c12.497 12.496 32.758 12.496 45.255 0v0c12.496-12.496 12.496-32.758 0-45.255l-22.627-22.627c-12.497-12.496-32.758-12.496-45.255 0v0c-12.496 12.497-12.496 32.758 0 45.255l22.627 22.627z"></path>
<path d="M142.863 369.137c-12.496-12.497-32.758-12.497-45.255 0l-22.627 22.627c-12.496 12.497-12.496 32.758 0 45.255v0c12.497 12.497 32.758 12.497 45.255 0l22.627-22.627c12.496-12.497 12.496-32.758 0-45.255v0z"></path>
<path d="M369.137 142.863c12.497 12.496 32.758 12.496 45.255 0l22.627-22.627c12.497-12.497 12.497-32.758 0-45.255v0c-12.497-12.496-32.758-12.496-45.255 0l-22.627 22.627c-12.497 12.497-12.497 32.758 0 45.255v0z"></path>
</svg>
