<?xml version="1.0" encoding="utf-8"?>
<!-- Generator: Adobe Illustrator 19.2.1, SVG Export Plug-In . SVG Version: 6.00 Build 0)  -->
<svg version="1.1" id="tablet-landscape" xmlns="http://www.w3.org/2000/svg" xmlns:xlink="http://www.w3.org/1999/xlink" x="0px"
	 y="0px" viewBox="0 0 416 352" style="enable-background:new 0 0 416 352;" xml:space="preserve">
<path class="lexicon-icon-body" fill="none" d="M352,0H64C28.8,0,0,28.8,0,64v224c0,35.2,28.8,64,64,64h288c35.2,0,64-28.8,64-64V64C416,28.8,387.2,0,352,0z
	 M368,192c-8.8,0-16-7.2-16-16s7.2-16,16-16s16,7.2,16,16S376.8,192,368,192z"/>
<path class="lexicon-icon-outline" d="M0,64v224c0,35.2,28.8,64,64,64h288c35.2,0,64-28.8,64-64V64c0-35.2-28.8-64-64-64H64C28.8,0,0,28.8,0,64z M384,176
	c0,8.8-7.2,16-16,16s-16-7.2-16-16s7.2-16,16-16S384,167.2,384,176z M318.8,64v224H64V64H318.8z"/>
</svg>