<?xml version="1.0" encoding="utf-8"?>
<!-- Generator: Adobe Illustrator 19.2.0, SVG Export Plug-In . SVG Version: 6.00 Build 0)  -->
<svg version="1.1" xmlns="http://www.w3.org/2000/svg" xmlns:xlink="http://www.w3.org/1999/xlink" width="512" height="512" x="0px" y="0px"
	 viewBox="0 0 512 512" enable-background="new 0 0 512 512" xml:space="preserve">
<path class="lexicon-icon-outline" d="M445.4,435.3c-24.9-59.8-135-324-159.7-383.4C280.9,40.2,269.4,32,256,32s-24.9,8.2-29.6,19.9
	C201.6,111.3,91.5,375.5,66.6,435.3c-1.7,3.9-2.6,8.2-2.6,12.7c0,17.7,14.3,32,32,32c13.4,0,24.9-8.2,29.6-19.9
	c6.2-14.8,17.6-42.2,31.7-76.1h197.3c14.1,33.8,25.5,61.3,31.7,76.1c4.8,11.7,16.2,19.9,29.6,19.9c17.7,0,32-14.3,32-32
	C448,443.5,447.1,439.2,445.4,435.3z M184,320c24.4-58.5,51.3-123.2,72-172.8c20.7,49.6,47.6,114.2,72,172.8H184z"/>
</svg>