<?xml version="1.0" encoding="utf-8"?>
<!-- Generator: Adobe Illustrator 19.0.0, SVG Export Plug-In . SVG Version: 6.00 Build 0)  -->
<svg version="1.1" id="time" xmlns="http://www.w3.org/2000/svg" xmlns:xlink="http://www.w3.org/1999/xlink" x="0px" y="0px"
	 viewBox="0 0 512 512" enable-background="new 0 0 512 512" xml:space="preserve">
<g>
	<path d="M272,210.7426v-98.7421c0-8.8364-7.1631-16-16-16c-8.8364,0-16,7.1636-16,16v98.7421c-18.6409,6.5906-32,24.36-32,45.2579
		c0,7.4102,1.6818,14.4267,4.6803,20.6927l-47.9938,47.9938c-6.2485,6.248-6.2485,16.3789,0,22.627
		c3.124,3.124,7.2188,4.6865,11.3135,4.6865s8.1895-1.5625,11.3135-4.6865l47.9938-47.9938
		c6.2661,2.9985,13.2826,4.6803,20.6927,4.6803c26.5096,0,48-21.4904,48-48C304,235.1025,290.6409,217.3332,272,210.7426z"/>
	<path d="M437.0195,74.9805C388.667,26.6289,324.3799,0,256,0C187.6196,0,123.3325,26.6289,74.9805,74.9805
		C26.6289,123.3325,0,187.6196,0,256c0,68.3799,26.6289,132.667,74.9805,181.0195C123.3325,485.3711,187.6196,512,256,512
		c68.3799,0,132.667-26.6289,181.0195-74.9805C485.3711,388.667,512,324.3799,512,256
		C512,187.6196,485.3711,123.3325,437.0195,74.9805z M256,448c-105.8691,0-192-86.1309-192-192S150.1309,64,256,64
		s192,86.1309,192,192S361.8691,448,256,448z"/>
</g>
</svg>
