<?xml version="1.0" encoding="utf-8"?>
<!-- Generator: Adobe Illustrator 19.2.1, SVG Export Plug-In . SVG Version: 6.00 Build 0)  -->
<svg version="1.1" id="Layer_1" xmlns="http://www.w3.org/2000/svg" xmlns:xlink="http://www.w3.org/1999/xlink" x="0px" y="0px"
	 viewBox="0 0 512 512" style="enable-background:new 0 0 512 512;" xml:space="preserve">

<path class="lexicon-icon-body" fill="none" d="M384,256H179.2V128c0-42.4,34.4-76.8,76.8-76.8s76.8,34.4,76.8,76.8v28.8c0,14.1,11.5,25.6,25.6,25.6
	s25.6-11.5,25.6-25.6V128C384,57.4,326.6,0,256,0S128,57.4,128,128v128c-28.2,0-51.2,23-51.2,51.2v153.6c0,28.2,23,51.2,51.2,51.2
	h256c28.2,0,51.2-23,51.2-51.2V307.2C435.2,279,412.2,256,384,256L384,256z"/>
<path class="lexicon-icon-outline" d="M384,256H179.2V128c0-42.4,34.4-76.8,76.8-76.8s76.8,34.4,76.8,76.8v28.8c0,14.1,11.5,25.6,25.6,25.6s25.6-11.5,25.6-25.6
	V128C384,57.4,326.6,0,256,0S128,57.4,128,128v128c-28.2,0-51.2,23-51.2,51.2v153.6c0,28.2,23,51.2,51.2,51.2h256
	c28.2,0,51.2-23,51.2-51.2V307.2C435.2,279,412.2,256,384,256L384,256z M128,448V320h256l0,128H128z"/>
<path class="lexicon-icon-outline" d="M223.7,352h64v64h-64L223.7,352L223.7,352z"/>
</svg>