<?xml version="1.0" encoding="utf-8"?>
<!-- Generator: Adobe Illustrator 19.0.0, SVG Export Plug-In . SVG Version: 6.00 Build 0)  -->
<svg version="1.1" id="vertical_x5F_scroll" xmlns="http://www.w3.org/2000/svg" xmlns:xlink="http://www.w3.org/1999/xlink"
	 x="0px" y="0px" viewBox="0 0 224 512.9834" enable-background="new 0 0 224 512.9834" xml:space="preserve">
<path d="M189.1059,365.105c-8.9302,0-17.8603,3.4066-24.674,10.2203L144,395.7572V116.2426l20.4313,20.432
	c13.6274,13.6268,35.7228,13.6268,49.348,0c13.6274-13.6268,13.6274-35.7206,0.001-49.348l-77.1053-77.1064
	C130.1303,3.6765,121.2555,0,112.0006,0s-18.1298,3.6765-24.674,10.2203L10.2202,87.3267c-13.6269,13.6268-13.6269,35.7211,0,49.348
	c6.8137,6.8137,15.7438,10.2203,24.674,10.2203c8.9302,0,17.8603-3.4066,24.674-10.2203L80,116.2427v279.5146l-20.4313-20.432
	c-13.6274-13.6268-35.7228-13.6268-49.348,0c-13.6274,13.6268-13.6274,35.7206-0.001,49.348l77.1053,77.1064
	c0.8141,0.814,1.6644,1.5832,2.5469,2.3069c5.7479,5.5068,13.5398,8.8968,22.1282,8.8968c8.5949,0,16.3923-3.3952,22.1414-8.9094
	c0.8771-0.7202,1.7227-1.4849,2.5321-2.2943l77.1064-77.1064c13.6269-13.6268,13.6269-35.7211,0-49.348
	C206.9662,368.5117,198.036,365.105,189.1059,365.105z"/>
</svg>
