<?xml version="1.0" encoding="utf-8"?>
<!-- Generator: Adobe Illustrator 19.0.0, SVG Export Plug-In . SVG Version: 6.00 Build 0)  -->
<svg version="1.1" id="view" xmlns="http://www.w3.org/2000/svg" xmlns:xlink="http://www.w3.org/1999/xlink" x="0px" y="0px"
	 viewBox="0 0 512 320" enable-background="new 0 0 512 320" xml:space="preserve">
<path d="M499.7458,132.1891C412.4256,5.8844,290.9908,0.0039,260.4067,0.0039c-3.1384,0-3.7601,0.0617-6.9595,0.0617v0.1719
	c0-0.0992-3.7164-0.2375-7.8061-0.2375C209.9582,0,81.2655,10.4789,3.2292,148.5328c-9.0824,16.0695,3.2649,30.6672,9.2105,39.2797
	c87.3328,126.3109,210.197,132.1852,241.1841,132.1852c3.1774,0,6.2221-0.0617,6.2221-0.0617v-0.1734
	c3.1993,0.0992,4.6037,0.2375,8.6466,0.2375c35.2471,0,162.2135-10.4852,240.2405-148.5312
	C517.8154,155.3992,505.7024,140.7969,499.7458,132.1891z M253.1255,217.5195c-28.1564,0-50.9828-22.8313-50.9828-50.9953
	c0-28.1633,22.8263-50.9945,50.9828-50.9945c28.158,0,50.9843,22.8312,50.9843,50.9945
	C304.1098,194.6883,281.2834,217.5195,253.1255,217.5195z M55.9866,160.557c26.8224-42.0859,62.0492-72.6563,104.8946-90.9859
	c6.6454-2.843,13.13-5.2227,19.4036-7.2617c-32.8257,22.9969-54.3102,61.0852-54.3102,104.2148
	c0,29.7109,10.2134,57.0195,27.2832,78.668C120.6899,229.4,86.027,203.3328,55.9866,160.557z M346.0211,253.3219
	c21.2361-22.7281,34.2567-53.2344,34.2567-86.7977c0-44.2492-22.6045-83.2039-56.8815-105.9859
	c40.9381,12.1039,91.1335,39.2398,133.037,98.9156C423.2795,211.5641,382.0836,238.9656,346.0211,253.3219z"/>
</svg>
