<?xml version="1.0" encoding="utf-8"?>
<!-- Generator: Adobe Illustrator 19.0.0, SVG Export Plug-In . SVG Version: 6.00 Build 0)  -->
<svg version="1.1" id="web-content" xmlns="http://www.w3.org/2000/svg" xmlns:xlink="http://www.w3.org/1999/xlink" x="0px"
	 y="0px" viewBox="0 0 512 512" enable-background="new 0 0 512 512" xml:space="preserve">
<g>
	<path d="M132.0326,188.7564c2.5156,2.1522,5.4572,3.2435,8.7426,3.2435c3.9436,0,6.9327-1.1786,8.8838-3.5027
		c1.5286-1.8204,3.1597-4.8788,5.1325-9.626l3.6922-8.8971h34.3968l3.6841,8.6871l0.0408,0.0925
		c0.6209,1.3525,1.3709,2.9293,2.2296,4.6871c0.9973,2.0418,1.9477,3.5625,2.9049,4.6487c1.0693,1.2134,2.3933,2.1794,3.9362,2.8716
		c1.5366,0.6891,3.3369,1.0387,5.3519,1.0387c3.4898,0,6.5292-1.1389,9.034-3.3852c2.6127-2.3441,3.9382-5.0628,3.9382-8.0812
		c0-2.4871-1.0387-5.8828-3.2541-10.6522l-25.0598-55.5282c-1.2031-2.8369-2.165-5.0364-2.9395-6.7225
		c-0.8682-1.892-1.9504-3.6879-3.2181-5.3376c-1.4259-1.8563-3.2996-3.3821-5.5699-4.5357
		c-2.2955-1.1661-5.106-1.7574-8.3513-1.7574c-3.2024,0-5.9905,0.5914-8.2866,1.7578c-2.284,1.1603-4.1671,2.7181-5.5965,4.6301
		c-1.2683,1.6956-2.4612,3.8156-3.5455,6.3013l-2.5176,5.7779l-24.5394,55.8879c-1.0557,2.3468-1.7996,4.1495-2.2731,5.5095
		c-0.5632,1.6155-0.8485,3.2258-0.8485,4.7866C128,182.7755,128.6997,185.9062,132.0326,188.7564z M175.5054,127.1579
		l9.2683,22.7615h-18.3688L175.5054,127.1579z"/>
	<path d="M437.0195,74.9805C396.2927,34.2545,344.2602,6.9718,288,0H64C28.7104,0,0,28.7104,0,64v384c0,35.29,28.7104,64,64,64h224
		c56.2602-6.9718,108.2927-34.2545,149.0195-74.9805C485.3711,388.6675,512,324.3804,512,256
		C512,187.6201,485.3711,123.333,437.0195,74.9805z M445.4264,224.6491c0.8337,5.0543,1.4722,10.173,1.9014,15.3509h-79.5667
		c-0.5186-17.7125-1.8915-35.0597-4.0815-51.7776c16.0652,3.9678,30.9948,8.8527,44.4092,14.6019
		C423.5476,209.4492,436.1344,216.8608,445.4264,224.6491z M431.6126,178.4262c-3.5113-1.7195-7.1406-3.3961-10.9183-5.0151
		c-18.6684-8.0007-39.8773-14.4782-62.8036-19.3019c-4.8237-22.9263-11.3012-44.1352-19.3019-62.8036
		c-1.619-3.7776-3.2955-7.407-5.0151-10.9183C377.1733,99.7222,412.2778,134.8267,431.6126,178.4262z M323.7778,363.6796
		c-3.9678,16.0654-8.8528,30.9951-14.602,44.4097C302.7355,423.1171,295.5506,438.7888,288,448H64V64h224
		c7.5506,9.2113,14.7355,24.8832,21.1758,39.9111c5.7491,13.4145,10.6341,28.3441,14.6019,44.4092
		c-11.6483-1.5259-23.6083-2.6439-35.7776-3.3654v32.0603c14.5713,0.9157,28.7769,2.4354,42.4194,4.5653
		c2.9032,18.5956,4.7107,38.2137,5.3342,58.4194H288v32h47.7535c-0.6235,20.2056-2.431,39.8237-5.3341,58.4194
		c-13.6425,2.1299-27.8481,3.6496-42.4194,4.5653v32.0603C300.1694,366.3235,312.1294,365.2056,323.7778,363.6796z
		 M333.574,431.6125c1.7195-3.5111,3.3959-7.1403,5.0148-10.9177c8.0007-18.6688,14.4783-39.8779,19.3019-62.8041
		c22.9263-4.8237,44.1351-11.3015,62.8035-19.3023c3.7777-1.619,7.4071-3.2955,10.9185-5.0151
		C412.2781,377.1729,377.1736,412.2776,333.574,431.6125z M445.4265,287.3507c-9.292,7.7884-21.8788,15.2001-37.3376,21.8251
		c-13.4145,5.7491-28.3441,10.6341-44.4092,14.6019c2.1901-16.7179,3.563-34.0651,4.0815-51.7776h79.5667
		C446.8986,277.1778,446.2601,282.2964,445.4265,287.3507z"/>
	<path d="M224,256h-96c-17.6733,0-32,14.3267-32,32s14.3267,32,32,32h96c17.6729,0,32-14.3267,32-32S241.6729,256,224,256z"/>
	<path d="M160,352h-32c-17.6733,0-32,14.3267-32,32s14.3267,32,32,32h32c17.6729,0,32-14.3267,32-32S177.6729,352,160,352z"/>
</g>
</svg>
