<?xml version="1.0" encoding="utf-8"?>
<!-- Generator: Adobe Illustrator 19.2.1, SVG Export Plug-In . SVG Version: 6.00 Build 0)  -->
<svg version="1.1" id="mobile-vertical" xmlns="http://www.w3.org/2000/svg" xmlns:xlink="http://www.w3.org/1999/xlink" width="512" height="512" x="0px"
	 y="0px" viewBox="0 0 288 384" style="enable-background:new 0 0 288 384;" xml:space="preserve">
<path class="lexicon-icon-body" fill="none" d="M224,0H64C28.8,0,0,28.8,0,64v256c0,35.2,28.8,64,64,64h160c35.2,0,64-28.8,64-64V64C288,28.8,259.2,0,224,0z
	 M144,352c-8.8,0-16-7.2-16-16s7.2-16,16-16s16,7.2,16,16S152.8,352,144,352z"/>
<path class="lexicon-icon-outline" d="M288,320V64c0-35.2-28.8-64-64-64H64C28.8,0,0,28.8,0,64v256c0,35.2,28.8,64,64,64h160C259.2,384,288,355.2,288,320z
	 M64,286.8V64h160v222.8H64L64,286.8z M128,336c0-8.8,7.2-16,16-16s16,7.2,16,16s-7.2,16-16,16S128,344.8,128,336z"/>
</svg>