<?xml version="1.0" encoding="utf-8"?>
<!-- Generator: Adobe Illustrator 19.0.0, SVG Export Plug-In . SVG Version: 6.00 Build 0)  -->
<svg version="1.1" id="shortcut" xmlns="http://www.w3.org/2000/svg" xmlns:xlink="http://www.w3.org/1999/xlink" x="0px" y="0px"
	 viewBox="0 0 160.1297 351.9181" enable-background="new 0 0 160.1297 351.9181" xml:space="preserve">
<path class="lexicon-icon-outline" d="M128.0977,160.089c14.6801,0,27.1736-10.1113,30.8975-23.733c0.7245-2.6503,1.123-5.4312,1.1345-8.2989l0.0001-96.0251
	C160.1296,14.4957,145.7047,0.0707,128.0978,0H32.0726c-2.8562,0-5.6274,0.3889-8.27,1.1056
	C10.2207,4.7896,0.0998,17.2927,0.0407,32.032c0.0001,17.5362,14.425,31.9612,32.0319,32.0319h13.0621
	c-62.2318,69.3142-60.1102,180.1745,6.3679,246.652c19.1143,19.1143,41.8984,32.5576,67.7197,39.9561
	c2.9463,0.8447,5.9111,1.2461,8.8301,1.2461c13.915,0,26.7227-9.1504,30.7461-23.1934c4.8682-16.9893-4.958-34.708-21.9473-39.5762
	c-15.2598-4.373-28.749-12.3418-40.0937-23.6865c-20.792-20.792-32.7168-50.4736-32.7168-81.4336
	c0-30.6118,11.6642-59.9675,32.0248-80.7224l0.0004,0.5679l-0.0001,24.1831C96.0658,145.5933,110.4908,160.0182,128.0977,160.089z"
	/>
</svg>
