<?xml version="1.0" encoding="utf-8"?>
<!-- Generator: Adobe Illustrator 19.2.1, SVG Export Plug-In . SVG Version: 6.00 Build 0)  -->
<svg version="1.1" id="tablet-vertical" xmlns="http://www.w3.org/2000/svg" xmlns:xlink="http://www.w3.org/1999/xlink" x="0px"
	 y="0px" viewBox="0 0 352 416" style="enable-background:new 0 0 352 416;" xml:space="preserve">
<path class="lexicon-icon-body" fill="none" d="M288,0H64C28.8,0,0,28.8,0,64v288c0,35.2,28.8,64,64,64h224c35.2,0,64-28.8,64-64V64C352,28.8,323.2,0,288,0z
	 M176,384c-8.8,0-16-7.2-16-16s7.2-16,16-16s16,7.2,16,16S184.8,384,176,384z"/>
<path class="lexicon-icon-outline" d="M288,0H64C28.8,0,0,28.8,0,64v288c0,35.2,28.8,64,64,64h224c35.2,0,64-28.8,64-64V64C352,28.8,323.2,0,288,0z M176,384
	c-8.8,0-16-7.2-16-16s7.2-16,16-16s16,7.2,16,16S184.8,384,176,384z M288,318.8H64V64h224V318.8z"/>
</svg>