<?xml version="1.0" encoding="UTF-8"?>
<svg width="817px" height="835px" viewBox="0 0 817 835" version="1.1" xmlns="http://www.w3.org/2000/svg" xmlns:xlink="http://www.w3.org/1999/xlink">
    <!-- Generator: Sketch 48.1 (47250) - http://www.bohemiancoding.com/sketch -->
    <title>Group 2 Copy 2</title>
    <desc>Created with Sketch.</desc>
    <defs>
        <path d="M141.609161,221.798691 L157.343512,79.2138182 C157.343512,35.4652344 122.120967,0 78.671756,0 C35.2225449,0 0,35.4652344 0,79.2138182 L15.7343512,221.798691 L141.609161,221.798691 Z" id="path-1"></path>
    </defs>
    <g id="Desktop-Copy" stroke="none" stroke-width="1" fill="none" fill-rule="evenodd" transform="translate(-60.000000, -23.000000)">
        <g id="Group-2-Copy-2" transform="translate(59.000000, 23.000000)">
            <g id="Group-8" transform="translate(275.500000, 106.500000) rotate(-30.000000) translate(-275.500000, -106.500000) translate(198.000000, 29.000000)" stroke-width="18">
                <rect id="Rectangle-7-Copy-14" stroke="#444557" transform="translate(77.428822, 77.428822) scale(1, -1) translate(-77.428822, -77.428822) " x="9" y="9" width="136.857644" height="136.857644"></rect>
                <polyline id="Path-4" stroke="#444557" transform="translate(48.372541, 77.741431) rotate(-270.000000) translate(-48.372541, -77.741431) " points="17.4010122 64.1913871 48.1732628 91.2914748 79.3440697 64.837327"></polyline>
                <polyline id="Path-4-Copy" stroke="#B3472D" transform="translate(106.746274, 77.284929) scale(-1, 1) rotate(-270.000000) translate(-106.746274, -77.284929) " points="75.7747452 63.7348855 106.546996 90.8349731 137.717803 64.3808253"></polyline>
            </g>
            <g id="Group-6" transform="translate(364.000000, 692.500000) scale(-1, 1) rotate(-221.000000) translate(-364.000000, -692.500000) translate(285.000000, 530.000000)">
                <path d="M53.5818462,266.626043 L53.5818462,187.472703 L104.612174,187.472703 L104.612174,267.518483 L118.007634,273.109263 L105.250052,324.4912 L54.2197237,324.4912 L39.335878,273.109263 L53.5818462,266.626043 Z" id="Combined-Shape" stroke="#444557" stroke-width="18"></path>
                <g id="Combined-Shape">
                    <use fill="#393A4A" fill-rule="evenodd" xlink:href="#path-1"></use>
                    <path stroke="#444557" stroke-width="18" d="M133.547686,212.798691 L148.341914,78.733219 C148.085431,40.1628187 116.977543,9 78.671756,9 C40.3659687,9 9.25808048,40.1628187 9.00159751,78.733219 L23.7958262,212.798691 L133.547686,212.798691 Z"></path>
                </g>
                <path d="M102.273283,102.977964 L102.273283,190.113164" id="Line-Copy" stroke="#B3472D" stroke-width="18" fill="#FFFFFF"></path>
                <path d="M55.0702292,102.977964 L55.0702292,190.113164" id="Line-Copy-5" stroke="#444557" stroke-width="18" fill="#FFFFFF"></path>
                <path d="M5.24478373,79.2138182 L152.098728,79.2138182" id="Line-Copy-3" stroke="#444557" stroke-width="18" fill="#FFFFFF"></path>
            </g>
            <g id="Group-5" transform="translate(686.500000, 533.500000) rotate(-21.000000) translate(-686.500000, -533.500000) translate(609.000000, 370.000000)">
                <rect id="Rectangle-7-Copy-13" stroke="#444557" stroke-width="18" transform="translate(77.428822, 163.463292) scale(1, -1) translate(-77.428822, -163.463292) " x="9" y="9" width="136.857644" height="308.926584"></rect>
                <path d="M13.5500438,194.599157 L96.1407872,194.599157" id="Line-Copy-2" stroke="#444557" stroke-width="19" stroke-linecap="square"></path>
                <path d="M13.5500438,256.870887 L96.1407872,256.870887" id="Line-Copy-4" stroke="#444557" stroke-width="19" stroke-linecap="square"></path>
                <path d="M13.5500438,132.327427 L96.1407872,132.327427" id="Line-Copy-7" stroke="#444557" stroke-width="19" stroke-linecap="square"></path>
                <ellipse id="Oval-2-Copy-21" stroke="#B3472D" stroke-width="18" transform="translate(92.914586, 62.271730) scale(1, -1) translate(-92.914586, -62.271730) " cx="92.9145863" cy="62.2717303" rx="21.9715288" ry="22.1358651"></ellipse>
            </g>
            <g id="Group" transform="translate(534.500000, 190.500000) rotate(204.000000) translate(-534.500000, -190.500000) translate(457.000000, 27.000000)">
                <path d="M106.78925,279.287476 C98.2041419,274.642542 88.3838562,272.006992 77.9512539,272.006992 C67.8793434,272.006992 58.3781415,274.463452 50.0081138,278.812932" id="Combined-Shape-Copy-2" stroke="#226EFF" stroke-width="18" stroke-linejoin="round"></path>
                <path d="M77.4288219,312.824064 L145.857644,230.273773 L145.857644,74.7260763 C145.857644,38.4995233 115.291161,9 77.4288219,9 C39.5664829,9 9,38.4995233 9,74.7260763 L9,230.273773 L77.4288219,312.824064 Z" id="Path-47" stroke="#444557" stroke-width="18"></path>
                <path d="M54.2001753,89.5156122 L54.2001753,222.36197" id="Line" stroke="#444557" stroke-width="18" stroke-linecap="square"></path>
                <path d="M100.657468,89.5156122 L100.657468,222.36197" id="Line-Copy" stroke="#444557" stroke-width="18" stroke-linecap="square"></path>
                <path d="M5.16192146,77.8396628 L150.018342,77.8396628" id="Line-Copy-3" stroke="#444557" stroke-width="18"></path>
                <path d="M7.7414023,225.735022 L148.406645,225.735022" id="Line-Copy-6" stroke="#444557" stroke-width="19"></path>
            </g>
            <g id="Group-7" transform="translate(165.500000, 430.000000) rotate(-25.000000) translate(-165.500000, -430.000000) translate(15.000000, 362.000000)" stroke-width="18">
                <rect id="Rectangle-7-Copy-14" stroke="#444557" transform="translate(150.395766, 83.176508) scale(1, -1) translate(-150.395766, -83.176508) " x="0" y="30.4870071" width="300.791533" height="105.379003"></rect>
                <rect id="Rectangle-7-Copy-14" stroke="#444557" transform="translate(74.702073, 15.243504) scale(1, -1) translate(-74.702073, -15.243504) " x="29.7486131" y="0" width="89.9069197" height="30.4870071"></rect>
                <rect id="Rectangle-7-Copy-14" stroke="#444557" transform="translate(225.758920, 15.243504) scale(1, -1) translate(-225.758920, -15.243504) " x="180.47492" y="0" width="90.568" height="30.4870071"></rect>
                <path d="M74.702073,104.053481 L29.7486131,104.053481" id="Line-Copy-4" stroke="#226EFF" fill="#FFFFFF" stroke-linecap="square"></path>
            </g>
        </g>
    </g>
</svg>