<?xml version="1.0" encoding="UTF-8"?>
<svg width="928px" height="978px" viewBox="0 0 928 978" version="1.1" xmlns="http://www.w3.org/2000/svg" xmlns:xlink="http://www.w3.org/1999/xlink">
    <!-- Generator: Sketch 48.1 (47250) - http://www.bohemiancoding.com/sketch -->
    <title>Group 2 Copy</title>
    <desc>Created with Sketch.</desc>
    <defs>
        <path d="M162.223153,253.191737 L180.247947,90.4256202 C180.247947,40.4849292 139.89807,0 90.1239736,0 C40.3498774,0 0,40.4849292 0,90.4256202 L18.0247947,253.191737 L162.223153,253.191737 Z" id="path-1"></path>
    </defs>
    <g id="Desktop" stroke="none" stroke-width="1" fill="none" fill-rule="evenodd" transform="translate(-257.000000, -60.000000)">
        <g id="Group-2-Copy" transform="translate(255.000000, 60.000000)">
            <g id="Group-8" transform="translate(313.011404, 120.521292) rotate(-28.000000) translate(-313.011404, -120.521292) translate(224.511404, 32.021292)" stroke-width="20">
                <rect id="Rectangle-7-Copy-14" stroke="#3F4052" transform="translate(88.418719, 88.418719) scale(1, -1) translate(-88.418719, -88.418719) " x="10" y="10" width="156.837438" height="156.837438"></rect>
                <polyline id="Path-4" stroke="#3F4052" transform="translate(55.238321, 88.775699) rotate(-270.000000) translate(-55.238321, -88.775699) " points="19.8708332 73.3024227 55.0107582 104.248974 90.6058086 74.0400444"></polyline>
                <polyline id="Path-4-Copy" stroke="#B3472D" transform="translate(121.897358, 88.254403) scale(-1, 1) rotate(-270.000000) translate(-121.897358, -88.254403) " points="86.5298703 72.7811273 121.669795 103.727679 157.264846 73.5187489"></polyline>
            </g>
            <g id="Group-6" transform="translate(407.432715, 817.039940) scale(-1, 1) rotate(-222.000000) translate(-407.432715, -817.039940) translate(316.932715, 631.539940)">
                <path d="M61.3817352,304.363883 L61.3817352,214.007301 L119.840529,214.007301 L119.840529,305.382638 L135.18596,311.764728 L120.571262,370.419185 L62.1124683,370.419185 L45.0619868,311.764728 L61.3817352,304.363883 Z" id="Combined-Shape" stroke="#3F4052" stroke-width="20"></path>
                <g id="Combined-Shape">
                    <use fill="#393A4A" fill-rule="evenodd" xlink:href="#path-1"></use>
                    <path stroke="#3F4052" stroke-width="20" d="M153.269427,243.191737 L170.246204,89.8893505 C169.958844,45.710959 134.189566,10 90.1239736,10 C46.0583814,10 10.2891037,45.710959 10.0017436,89.8893505 L26.9785205,243.191737 L153.269427,243.191737 Z"></path>
                </g>
                <path d="M117.161166,117.553306 L117.161166,217.021488" id="Line-Copy" stroke="#B3472D" stroke-width="20" fill="#FFFFFF"></path>
                <path d="M63.0867815,117.553306 L63.0867815,217.021488" id="Line-Copy-5" stroke="#3F4052" stroke-width="20" fill="#FFFFFF"></path>
                <path d="M6.00826491,90.4256202 L174.239682,90.4256202" id="Line-Copy-3" stroke="#3F4052" stroke-width="20" fill="#FFFFFF"></path>
            </g>
            <g id="Group-5" transform="translate(780.283006, 615.275972) rotate(-21.000000) translate(-780.283006, -615.275972) translate(691.783006, 428.775972)" stroke-width="20">
                <rect id="Rectangle-7-Copy-13" stroke="#3F4052" transform="translate(88.418719, 186.458128) scale(1, -1) translate(-88.418719, -186.458128) " x="10" y="10" width="156.837438" height="352.916256"></rect>
                <path d="M15.4732759,221.973962 L109.786576,221.973962" id="Line-Copy-2" stroke="#3F4052" stroke-linecap="square"></path>
                <path d="M15.4732759,293.00563 L109.786576,293.00563" id="Line-Copy-4" stroke="#3F4052" stroke-linecap="square"></path>
                <path d="M15.4732759,150.942294 L109.786576,150.942294" id="Line-Copy-7" stroke="#3F4052" stroke-linecap="square"></path>
                <ellipse id="Oval-2-Copy-21" stroke="#B3472D" transform="translate(106.102463, 71.031668) scale(1, -1) translate(-106.102463, -71.031668) " cx="106.102463" cy="71.0316678" rx="25.3674877" ry="25.5158339"></ellipse>
            </g>
            <g id="Group" transform="translate(605.129969, 216.623270) rotate(204.000000) translate(-605.129969, -216.623270) translate(516.629969, 30.123270)" stroke-width="20">
                <path d="M120.838916,319.068196 C111.035277,313.769847 99.8211442,310.763547 87.9077854,310.763547 C76.4063134,310.763547 65.5565539,313.565564 55.9985222,318.526897" id="Combined-Shape-Copy-2" stroke="#226EFF" stroke-linejoin="round"></path>
                <path d="M88.4187192,357.257057 L166.837438,262.759888 L166.837438,85.2380014 C166.837438,43.7688355 131.808494,10 88.4187192,10 C45.0289441,10 10,43.7688355 10,85.2380014 L10,262.759888 L88.4187192,357.257057 Z" id="Path-47" stroke="#3F4052"></path>
                <path d="M61.8931034,102.108023 L61.8931034,253.642247" id="Line" stroke="#3F4052" stroke-linecap="square"></path>
                <path d="M114.944335,102.108023 L114.944335,253.642247" id="Line-Copy" stroke="#3F4052" stroke-linecap="square"></path>
                <path d="M5.89458128,88.7895848 L171.311268,88.7895848" id="Line-Copy-3" stroke="#3F4052"></path>
                <path d="M8.84018199,257.489796 L169.470813,257.489796" id="Line-Copy-6" stroke="#3F4052"></path>
            </g>
            <g id="Group-7" transform="translate(189.961213, 504.558777) rotate(-25.000000) translate(-189.961213, -504.558777) translate(17.461213, 427.058777)" stroke-width="20">
                <rect id="Rectangle-7-Copy-14" stroke="#3F4052" transform="translate(172.380530, 94.796756) scale(1, -1) translate(-172.380530, -94.796756) " x="0" y="34.7462213" width="344.761059" height="120.101069"></rect>
                <rect id="Rectangle-7-Copy-14" stroke="#3F4052" transform="translate(85.621977, 17.373111) scale(1, -1) translate(-85.621977, -17.373111) " x="34.0972476" y="0" width="103.049459" height="34.7462213"></rect>
                <rect id="Rectangle-7-Copy-14" stroke="#3F4052" transform="translate(258.760224, 17.373111) scale(1, -1) translate(-258.760224, -17.373111) " x="206.856636" y="0" width="103.807176" height="34.7462213"></rect>
                <path d="M85.6219773,118.590364 L34.0972476,118.590364" id="Line-Copy-4" stroke="#226EFF" fill="#FFFFFF" stroke-linecap="square"></path>
            </g>
        </g>
    </g>
</svg>