<?xml version="1.0" encoding="UTF-8"?>
<svg width="36px" height="37px" viewBox="0 0 36 37" version="1.1" xmlns="http://www.w3.org/2000/svg" xmlns:xlink="http://www.w3.org/1999/xlink">
    <!-- Generator: Sketch 48.1 (47250) - http://www.bohemiancoding.com/sketch -->
    <title>liferay_logo</title>
    <desc>Created with Sketch.</desc>
    <defs></defs>
    <g id="Desktop" stroke="none" stroke-width="1" fill="none" fill-rule="evenodd" transform="translate(-384.000000, -876.000000)">
        <g id="Group" transform="translate(384.000000, 876.000000)" fill="#FFFFFF" fill-rule="nonzero">
            <g id="liferay_logo">
                <g id="Layer_1">
                    <path d="M3.75207313,0.468296531 C1.68896739,0.468296531 0,2.15895289 0,4.22412174 L0,32.3838938 C0,34.4454959 1.68896739,36.1361523 3.75207313,36.1361523 L31.8837136,36.1361523 C33.9468193,36.1361523 35.6357867,34.4454959 35.6357867,32.380327 L35.6357867,4.22412174 C35.6322235,2.15895289 33.9432561,0.468296531 31.8801504,0.468296531 L3.75207313,0.468296531 Z M9.37840123,4.22412174 L9.37840123,9.85607616 L3.75207313,9.85607616 L3.75207313,4.22412174 L9.37840123,4.22412174 Z M16.8789843,4.22412174 L16.8789843,9.85607616 L11.2526562,9.85607616 L11.2526562,4.22412174 L16.8789843,4.22412174 Z M24.3795673,4.22412174 L24.3795673,9.85607616 L18.7532392,9.85607616 L18.7532392,4.22412174 L24.3795673,4.22412174 Z M9.37840123,11.7322054 L9.37840123,17.3641598 L3.75207313,17.3641598 L3.75207313,11.7322054 L9.37840123,11.7322054 Z M16.8789843,11.7322054 L16.8789843,17.3641598 L11.2526562,17.3641598 L11.2526562,11.7322054 L16.8789843,11.7322054 Z M31.8801504,11.7322054 L31.8801504,17.3641598 L26.2538223,17.3641598 L26.2538223,11.7322054 L31.8801504,11.7322054 Z M9.37840123,19.240289 L9.37840123,24.8722434 L3.75207313,24.8722434 L3.75207313,19.240289 L9.37840123,19.240289 Z M24.3795673,19.240289 L24.3795673,24.8722434 L18.7532392,24.8722434 L18.7532392,19.240289 L24.3795673,19.240289 Z M31.8801504,19.240289 L31.8801504,24.8722434 L26.2538223,24.8722434 L26.2538223,19.240289 L31.8801504,19.240289 Z M16.8789843,26.7483726 L16.8789843,32.380327 L11.2526562,32.380327 L11.2526562,26.7483726 L16.8789843,26.7483726 Z M24.3795673,26.7483726 L24.3795673,32.380327 L18.7532392,32.380327 L18.7532392,26.7483726 L24.3795673,26.7483726 Z M31.8801504,26.7483726 L31.8801504,32.380327 L26.2538223,32.380327 L26.2538223,26.7483726 L31.8801504,26.7483726 Z" id="Shape"></path>
                </g>
            </g>
        </g>
    </g>
</svg>