<?xml version="1.0" encoding="iso-8859-1"?>
<!-- Generator: Adobe Illustrator 18.0.0, SVG Export Plug-In . SVG Version: 6.00 Build 0)  -->
<!DOCTYPE svg PUBLIC "-//W3C//DTD SVG 1.1//EN" "http://www.w3.org/Graphics/SVG/1.1/DTD/svg11.dtd">
<svg version="1.1" xmlns="http://www.w3.org/2000/svg" xmlns:xlink="http://www.w3.org/1999/xlink" x="0px" y="0px"
	 viewBox="0 0 28 28" style="enable-background:new 0 0 28 28;" xml:space="preserve">
<g id="_x32_cards">
	<g>
		<g>
			<path d="M21.055,16.406v3.281c0,0.724-0.589,1.312-1.312,1.312H8.258c-0.724,0-1.312-0.589-1.312-1.312v-3.281
				c0-0.724,0.589-1.312,1.312-1.312h11.484C20.466,15.094,21.055,15.682,21.055,16.406z M19.305,19.25v-2.406H8.695v2.406H19.305z"
				/>
		</g>
		<g>
			<path d="M21.055,8.312v3.281c0,0.724-0.589,1.312-1.312,1.312H8.258c-0.724,0-1.312-0.589-1.312-1.312V8.312
				C6.945,7.589,7.534,7,8.258,7h11.484C20.466,7,21.055,7.589,21.055,8.312z M19.305,11.156V8.75H8.695v2.406H19.305z"/>
		</g>
	</g>
</g>
<g id="Layer_1">
</g>
</svg>
