<?xml version="1.0" encoding="utf-8"?>
<!-- Generator: Adobe Illustrator 19.0.0, SVG Export Plug-In . SVG Version: 6.00 Build 0)  -->
<svg version="1.1" id="XMLID_1_" xmlns="http://www.w3.org/2000/svg" xmlns:xlink="http://www.w3.org/1999/xlink" x="0px" y="0px"
	 viewBox="0 0 14.109 13.999" enable-background="new 0 0 14.109 13.999" xml:space="preserve">
<g id="_x32_-cards">
	<g>
		<g>
			<path d="M14.109,9.406v3.281c0,0.724-0.589,1.312-1.312,1.312H1.312C0.588,13.999,0,13.41,0,12.687V9.406
				c0-0.724,0.589-1.312,1.312-1.312h11.484C13.52,8.094,14.109,8.682,14.109,9.406z M12.359,12.25V9.844H1.749v2.406H12.359z"/>
		</g>
		<g>
			<path d="M14.109,1.312v3.281c0,0.724-0.589,1.312-1.312,1.312H1.312C0.588,5.905,0,5.316,0,4.593V1.312
				C-0.001,0.589,0.588,0,1.312,0h11.484C13.52,0,14.109,0.589,14.109,1.312z M12.359,4.156V1.75H1.749v2.406H12.359z"/>
		</g>
	</g>
</g>
</svg>
