<?xml version="1.0" encoding="iso-8859-1"?>
<!-- Generator: Adobe Illustrator 18.0.0, SVG Export Plug-In . SVG Version: 6.00 Build 0)  -->
<!DOCTYPE svg PUBLIC "-//W3C//DTD SVG 1.1//EN" "http://www.w3.org/Graphics/SVG/1.1/DTD/svg11.dtd">
<svg version="1.1" xmlns="http://www.w3.org/2000/svg" xmlns:xlink="http://www.w3.org/1999/xlink" x="0px" y="0px"
	 viewBox="0 0 28 28" style="enable-background:new 0 0 28 28;" xml:space="preserve">
<g id="_x32_columns">
	<g>
		<g>
			<path d="M11.594,21.055H8.312C7.589,21.055,7,20.466,7,19.742V8.258c0-0.724,0.589-1.312,1.312-1.312h3.281
				c0.724,0,1.312,0.589,1.312,1.312v11.484C12.906,20.466,12.318,21.055,11.594,21.055z M8.75,19.305h2.406V8.695H8.75V19.305z"/>
		</g>
		<g>
			<path d="M19.688,21.055h-3.281c-0.724,0-1.312-0.589-1.312-1.312V8.258c0-0.724,0.589-1.312,1.312-1.312h3.281
				C20.411,6.945,21,7.534,21,8.258v11.484C21,20.466,20.411,21.055,19.688,21.055z M16.844,19.305h2.406V8.695h-2.406V19.305z"/>
		</g>
	</g>
</g>
<g id="Layer_1">
</g>
</svg>
