<?xml version="1.0" encoding="utf-8"?>
<!-- Generator: Adobe Illustrator 19.0.0, SVG Export Plug-In . SVG Version: 6.00 Build 0)  -->
<svg version="1.1" id="XMLID_1_" xmlns="http://www.w3.org/2000/svg" xmlns:xlink="http://www.w3.org/1999/xlink" x="0px" y="0px"
	 viewBox="0 0 14 14.109" enable-background="new 0 0 14 14.109" xml:space="preserve">
<g id="_x32_-columns">
	<g>
		<g>
			<path d="M4.594,14.109H1.312C0.589,14.109,0,13.52,0,12.796V1.312C0,0.588,0.589,0,1.312,0h3.281
				c0.724,0,1.312,0.589,1.312,1.312v11.484C5.906,13.52,5.318,14.109,4.594,14.109z M1.75,12.359h2.406V1.749H1.75V12.359z"/>
		</g>
		<g>
			<path d="M12.688,14.109H9.407c-0.724,0-1.312-0.589-1.312-1.312V1.312C8.095,0.588,8.684,0,9.407,0h3.281
				C13.411-0.001,14,0.588,14,1.312v11.484C14,13.52,13.411,14.109,12.688,14.109z M9.844,12.359h2.406V1.749H9.844V12.359z"/>
		</g>
	</g>
</g>
</svg>
