<?xml version="1.0" encoding="utf-8"?>
<!-- Generator: Adobe Illustrator 19.0.0, SVG Export Plug-In . SVG Version: 6.00 Build 0)  -->
<svg version="1.1" id="XMLID_1_" xmlns="http://www.w3.org/2000/svg" xmlns:xlink="http://www.w3.org/1999/xlink" x="0px" y="0px"
	 viewBox="0 0 15.75 15.75" enable-background="new 0 0 15.75 15.75" xml:space="preserve">
<g id="add-row">
	<path d="M14,0H1.75C0.785,0,0,0.785,0,1.75V14c0,0.965,0.785,1.75,1.75,1.75H14c0.965,0,1.75-0.785,1.75-1.75V1.75
		C15.75,0.785,14.965,0,14,0z M6.563,4.375V1.75h2.625v2.625H6.563z M9.187,10.937v3.062H6.562v-3.062H9.187z M14,4.375h-3.063V1.75
		h3.062L14,4.375z M4.813,1.75v2.625H1.75V1.75H4.813z M1.75,10.937h3.062v3.062H1.75V10.937z M10.937,14v-3.062H14V14H10.937z"/>
</g>
</svg>
