<?xml version="1.0" encoding="iso-8859-1"?>
<!-- Generator: Adobe Illustrator 18.0.0, SVG Export Plug-In . SVG Version: 6.00 Build 0)  -->
<!DOCTYPE svg PUBLIC "-//W3C//DTD SVG 1.1//EN" "http://www.w3.org/Graphics/SVG/1.1/DTD/svg11.dtd">
<svg version="1.1" xmlns="http://www.w3.org/2000/svg" xmlns:xlink="http://www.w3.org/1999/xlink" x="0px" y="0px"
	 viewBox="0 0 28 28" style="enable-background:new 0 0 28 28;" xml:space="preserve">
<g id="align-center">
	<g>
		<path d="M18.484,8.75H9.516c-0.483,0-0.875-0.392-0.875-0.875v0C8.641,7.392,9.032,7,9.516,7h8.969
			c0.483,0,0.875,0.392,0.875,0.875v0C19.359,8.358,18.968,8.75,18.484,8.75z"/>
		<path d="M20.125,12.833H7.875C7.392,12.833,7,12.442,7,11.958v0c0-0.483,0.392-0.875,0.875-0.875h12.25
			c0.483,0,0.875,0.392,0.875,0.875v0C21,12.442,20.608,12.833,20.125,12.833z"/>
		<path d="M18.484,16.917H9.516c-0.483,0-0.875-0.392-0.875-0.875v0c0-0.483,0.392-0.875,0.875-0.875h8.969
			c0.483,0,0.875,0.392,0.875,0.875v0C19.359,16.525,18.968,16.917,18.484,16.917z"/>
		<path d="M20.125,21H7.875C7.392,21,7,20.608,7,20.125l0,0c0-0.483,0.392-0.875,0.875-0.875h12.25c0.483,0,0.875,0.392,0.875,0.875
			l0,0C21,20.608,20.608,21,20.125,21z"/>
	</g>
</g>
<g id="Layer_1">
</g>
</svg>
