<?xml version="1.0" encoding="utf-8"?>
<!-- Generator: Adobe Illustrator 19.0.0, SVG Export Plug-In . SVG Version: 6.00 Build 0)  -->
<svg version="1.1" id="XMLID_1_" xmlns="http://www.w3.org/2000/svg" xmlns:xlink="http://www.w3.org/1999/xlink" x="0px" y="0px"
	 viewBox="0 0 14 14" enable-background="new 0 0 14 14" xml:space="preserve">
<g id="align-center">
	<g>
		<path d="M11.484,1.75H2.516c-0.483,0-0.875-0.392-0.875-0.875l0,0C1.641,0.392,2.032,0,2.516,0h8.969
			c0.483,0,0.875,0.392,0.875,0.875l0,0C12.359,1.358,11.968,1.75,11.484,1.75z"/>
		<path d="M13.125,5.833H0.875C0.392,5.833,0,5.442,0,4.958l0,0c0-0.483,0.392-0.875,0.875-0.875h12.25
			C13.608,4.083,14,4.475,14,4.958l0,0C14,5.442,13.608,5.833,13.125,5.833z"/>
		<path d="M11.484,9.917H2.516c-0.483,0-0.875-0.392-0.875-0.875l0,0c0-0.483,0.392-0.875,0.875-0.875h8.969
			c0.483,0,0.875,0.392,0.875,0.875l0,0C12.359,9.525,11.968,9.917,11.484,9.917z"/>
		<path d="M13.125,14H0.875C0.392,14,0,13.608,0,13.125l0,0c0-0.483,0.392-0.875,0.875-0.875h12.25c0.483,0,0.875,0.392,0.875,0.875
			l0,0C14,13.608,13.608,14,13.125,14z"/>
	</g>
</g>
</svg>
