<?xml version="1.0" encoding="iso-8859-1"?>
<!-- Generator: Adobe Illustrator 18.0.0, SVG Export Plug-In . SVG Version: 6.00 Build 0)  -->
<!DOCTYPE svg PUBLIC "-//W3C//DTD SVG 1.1//EN" "http://www.w3.org/Graphics/SVG/1.1/DTD/svg11.dtd">
<svg version="1.1" xmlns="http://www.w3.org/2000/svg" xmlns:xlink="http://www.w3.org/1999/xlink" x="0px" y="0px"
	 viewBox="0 0 28 28" style="enable-background:new 0 0 28 28;" xml:space="preserve">
<g id="align-right">
	<g>
		<path d="M20.125,8.75h-8.75c-0.483,0-0.875-0.392-0.875-0.875v0C10.5,7.392,10.892,7,11.375,7h8.75C20.608,7,21,7.392,21,7.875v0
			C21,8.358,20.608,8.75,20.125,8.75z"/>
		<path d="M20.125,12.833H7.875C7.392,12.833,7,12.442,7,11.958v0c0-0.483,0.392-0.875,0.875-0.875h12.25
			c0.483,0,0.875,0.392,0.875,0.875v0C21,12.442,20.608,12.833,20.125,12.833z"/>
		<path d="M20.125,16.917h-8.75c-0.483,0-0.875-0.392-0.875-0.875v0c0-0.483,0.392-0.875,0.875-0.875h8.75
			c0.483,0,0.875,0.392,0.875,0.875v0C21,16.525,20.608,16.917,20.125,16.917z"/>
		<path d="M20.125,21H7.875C7.392,21,7,20.608,7,20.125l0,0c0-0.483,0.392-0.875,0.875-0.875h12.25c0.483,0,0.875,0.392,0.875,0.875
			l0,0C21,20.608,20.608,21,20.125,21z"/>
	</g>
</g>
<g id="Layer_1">
</g>
</svg>
