<?xml version="1.0" encoding="utf-8"?>
<!-- Generator: Adobe Illustrator 19.0.0, SVG Export Plug-In . SVG Version: 6.00 Build 0)  -->
<svg version="1.1" id="XMLID_1_" xmlns="http://www.w3.org/2000/svg" xmlns:xlink="http://www.w3.org/1999/xlink" x="0px" y="0px"
	 viewBox="0 0 14 14" enable-background="new 0 0 14 14" xml:space="preserve">
<g id="align-right">
	<g>
		<path d="M13.125,1.75h-8.75C3.892,1.75,3.5,1.358,3.5,0.875l0,0C3.5,0.392,3.892,0,4.375,0h8.75C13.608,0,14,0.392,14,0.875l0,0
			C14,1.358,13.608,1.75,13.125,1.75z"/>
		<path d="M13.125,5.833H0.875C0.392,5.833,0,5.442,0,4.958l0,0c0-0.483,0.392-0.875,0.875-0.875h12.25
			C13.608,4.083,14,4.475,14,4.958l0,0C14,5.442,13.608,5.833,13.125,5.833z"/>
		<path d="M13.125,9.917h-8.75C3.892,9.917,3.5,9.525,3.5,9.042l0,0c0-0.483,0.392-0.875,0.875-0.875h8.75
			C13.608,8.167,14,8.559,14,9.042l0,0C14,9.525,13.608,9.917,13.125,9.917z"/>
		<path d="M13.125,14H0.875C0.392,14,0,13.608,0,13.125l0,0c0-0.483,0.392-0.875,0.875-0.875h12.25c0.483,0,0.875,0.392,0.875,0.875
			l0,0C14,13.608,13.608,14,13.125,14z"/>
	</g>
</g>
</svg>
