<?xml version="1.0" encoding="utf-8"?>
<!-- Generator: Adobe Illustrator 19.0.0, SVG Export Plug-In . SVG Version: 6.00 Build 0)  -->
<svg version="1.1" id="XMLID_1_" xmlns="http://www.w3.org/2000/svg" xmlns:xlink="http://www.w3.org/1999/xlink" x="0px" y="0px"
	 viewBox="0 0 14 14" enable-background="new 0 0 14 14" xml:space="preserve">
<g id="align-justify">
	<g>
		<path d="M0.875,1.75h12.25C13.608,1.75,14,1.358,14,0.875S13.608,0,13.125,0H0.875C0.392,0,0,0.392,0,0.875S0.392,1.75,0.875,1.75
			z"/>
		<path d="M13.125,4.083H0.875C0.392,4.083,0,4.475,0,4.958s0.392,0.875,0.875,0.875h12.25C13.608,5.833,14,5.441,14,4.958
			S13.608,4.083,13.125,4.083z"/>
		<path d="M13.125,8.167H0.875C0.392,8.167,0,8.558,0,9.042c0,0.483,0.392,0.875,0.875,0.875h12.25C13.608,9.917,14,9.525,14,9.042
			C14,8.558,13.608,8.167,13.125,8.167z"/>
		<path d="M13.125,12.25H0.875C0.392,12.25,0,12.642,0,13.125S0.392,14,0.875,14h12.25C13.608,14,14,13.608,14,13.125
			S13.608,12.25,13.125,12.25z"/>
	</g>
</g>
</svg>
