<?xml version="1.0" encoding="iso-8859-1"?>
<!-- Generator: Adobe Illustrator 18.0.0, SVG Export Plug-In . SVG Version: 6.00 Build 0)  -->
<!DOCTYPE svg PUBLIC "-//W3C//DTD SVG 1.1//EN" "http://www.w3.org/Graphics/SVG/1.1/DTD/svg11.dtd">
<svg version="1.1" xmlns="http://www.w3.org/2000/svg" xmlns:xlink="http://www.w3.org/1999/xlink" x="0px" y="0px"
	 viewBox="0 0 28 28" style="enable-background:new 0 0 28 28;" xml:space="preserve">
<g id="align-left">
	<g>
		<path d="M7.875,8.75h8.75c0.483,0,0.875-0.392,0.875-0.875C17.5,7.392,17.108,7,16.625,7h-8.75C7.392,7,7,7.392,7,7.875
			C7,8.358,7.392,8.75,7.875,8.75z"/>
		<path d="M7.875,12.833h12.25c0.483,0,0.875-0.392,0.875-0.875c0-0.483-0.392-0.875-0.875-0.875H7.875
			C7.392,11.083,7,11.475,7,11.958C7,12.442,7.392,12.833,7.875,12.833z"/>
		<path d="M7.875,16.917h8.75c0.483,0,0.875-0.392,0.875-0.875c0-0.483-0.392-0.875-0.875-0.875h-8.75
			C7.392,15.167,7,15.558,7,16.042C7,16.525,7.392,16.917,7.875,16.917z"/>
		<path d="M20.125,19.25H7.875C7.392,19.25,7,19.642,7,20.125C7,20.608,7.392,21,7.875,21h12.25C20.608,21,21,20.608,21,20.125
			C21,19.642,20.608,19.25,20.125,19.25z"/>
	</g>
</g>
<g id="Layer_1">
</g>
</svg>
