<?xml version="1.0" encoding="utf-8"?>
<!-- Generator: Adobe Illustrator 19.0.0, SVG Export Plug-In . SVG Version: 6.00 Build 0)  -->
<svg version="1.1" id="XMLID_1_" xmlns="http://www.w3.org/2000/svg" xmlns:xlink="http://www.w3.org/1999/xlink" x="0px" y="0px"
	 viewBox="0 0 14 14" enable-background="new 0 0 14 14" xml:space="preserve">
<g id="align-left">
	<g>
		<path d="M0.875,1.75h8.75c0.483,0,0.875-0.392,0.875-0.875S10.108,0,9.625,0h-8.75C0.392,0,0,0.392,0,0.875S0.392,1.75,0.875,1.75
			z"/>
		<path d="M0.875,5.833h12.25C13.608,5.833,14,5.441,14,4.958s-0.392-0.875-0.875-0.875H0.875C0.392,4.083,0,4.475,0,4.958
			C0,5.442,0.392,5.833,0.875,5.833z"/>
		<path d="M0.875,9.917h8.75c0.483,0,0.875-0.392,0.875-0.875s-0.392-0.875-0.875-0.875h-8.75C0.392,8.167,0,8.558,0,9.042
			C0,9.525,0.392,9.917,0.875,9.917z"/>
		<path d="M13.125,12.25H0.875C0.392,12.25,0,12.642,0,13.125S0.392,14,0.875,14h12.25C13.608,14,14,13.608,14,13.125
			S13.608,12.25,13.125,12.25z"/>
	</g>
</g>
</svg>
