<?xml version="1.0" encoding="utf-8"?>
<!-- Generator: Adobe Illustrator 19.0.0, SVG Export Plug-In . SVG Version: 6.00 Build 0)  -->
<svg version="1.1" id="XMLID_1_" xmlns="http://www.w3.org/2000/svg" xmlns:xlink="http://www.w3.org/1999/xlink" x="0px" y="0px"
	 viewBox="0 0 15.75 14" enable-background="new 0 0 15.75 14" xml:space="preserve">
<g id="archive">
	<g>
		<path d="M0,12.25C0,13.215,0.785,14,1.75,14H14c0.965,0,1.75-0.785,1.75-1.75V3.5H0V12.25z M1.75,5.25H14l0.001,7H1.75V5.25z"/>
		<path d="M0.875,1.75h14c0.483,0,0.875-0.392,0.875-0.875S15.358,0,14.875,0h-14C0.392,0,0,0.392,0,0.875S0.392,1.75,0.875,1.75z"
			/>
		<path d="M10.5,7H5.25C4.767,7,4.375,7.392,4.375,7.875S4.767,8.75,5.25,8.75h5.25c0.483,0,0.875-0.392,0.875-0.875
			S10.983,7,10.5,7z"/>
	</g>
</g>
</svg>
