<?xml version="1.0" encoding="iso-8859-1"?>
<!-- Generator: Adobe Illustrator 18.0.0, SVG Export Plug-In . SVG Version: 6.00 Build 0)  -->
<!DOCTYPE svg PUBLIC "-//W3C//DTD SVG 1.1//EN" "http://www.w3.org/Graphics/SVG/1.1/DTD/svg11.dtd">
<svg version="1.1" xmlns="http://www.w3.org/2000/svg" xmlns:xlink="http://www.w3.org/1999/xlink" x="0px" y="0px"
	 viewBox="0 0 28 28" style="enable-background:new 0 0 28 28;" xml:space="preserve">
<g id="archive">
	<g>
		<path d="M6.125,19.25c0,0.965,0.785,1.75,1.75,1.75h12.25c0.965,0,1.75-0.785,1.75-1.75V10.5H6.125V19.25z M7.875,12.25h12.25
			l0.001,7H7.875V12.25z"/>
		<path d="M7,8.75h14c0.483,0,0.875-0.392,0.875-0.875S21.483,7,21,7H7C6.517,7,6.125,7.392,6.125,7.875S6.517,8.75,7,8.75z"/>
		<path d="M16.625,14h-5.25c-0.483,0-0.875,0.392-0.875,0.875s0.392,0.875,0.875,0.875h5.25c0.483,0,0.875-0.392,0.875-0.875
			S17.108,14,16.625,14z"/>
	</g>
</g>
<g id="Layer_1">
</g>
</svg>
