<?xml version="1.0" encoding="utf-8"?>
<!-- Generator: Adobe Illustrator 19.0.0, SVG Export Plug-In . SVG Version: 6.00 Build 0)  -->
<svg version="1.1" id="XMLID_1_" xmlns="http://www.w3.org/2000/svg" xmlns:xlink="http://www.w3.org/1999/xlink" x="0px" y="0px"
	 viewBox="0 0 14 14" enable-background="new 0 0 14 14" xml:space="preserve">
<g id="bars">
	<g>
		<path d="M13.125,1.75H0.875C0.392,1.75,0,1.358,0,0.875l0,0C0,0.392,0.392,0,0.875,0h12.25C13.608,0,14,0.392,14,0.875l0,0
			C14,1.358,13.608,1.75,13.125,1.75z"/>
		<path d="M13.125,7.875H0.875C0.392,7.875,0,7.483,0,7l0,0c0-0.483,0.392-0.875,0.875-0.875h12.25C13.608,6.125,14,6.517,14,7l0,0
			C14,7.483,13.608,7.875,13.125,7.875z"/>
		<path d="M13.125,14H0.875C0.392,14,0,13.608,0,13.125l0,0c0-0.483,0.392-0.875,0.875-0.875h12.25c0.483,0,0.875,0.392,0.875,0.875
			l0,0C14,13.608,13.608,14,13.125,14z"/>
	</g>
</g>
</svg>
