<?xml version="1.0" encoding="iso-8859-1"?>
<!-- Generator: Adobe Illustrator 18.0.0, SVG Export Plug-In . SVG Version: 6.00 Build 0)  -->
<!DOCTYPE svg PUBLIC "-//W3C//DTD SVG 1.1//EN" "http://www.w3.org/Graphics/SVG/1.1/DTD/svg11.dtd">
<svg version="1.1" xmlns="http://www.w3.org/2000/svg" xmlns:xlink="http://www.w3.org/1999/xlink" x="0px" y="0px"
	 viewBox="0 0 28 28" style="enable-background:new 0 0 28 28;" xml:space="preserve">
<g id="bars">
	<g>
		<path d="M20.125,8.75H7.875C7.392,8.75,7,8.358,7,7.875v0C7,7.392,7.392,7,7.875,7h12.25C20.608,7,21,7.392,21,7.875v0
			C21,8.358,20.608,8.75,20.125,8.75z"/>
		<path d="M20.125,14.875H7.875C7.392,14.875,7,14.483,7,14v0c0-0.483,0.392-0.875,0.875-0.875h12.25C20.608,13.125,21,13.517,21,14
			v0C21,14.483,20.608,14.875,20.125,14.875z"/>
		<path d="M20.125,21H7.875C7.392,21,7,20.608,7,20.125l0,0c0-0.483,0.392-0.875,0.875-0.875h12.25c0.483,0,0.875,0.392,0.875,0.875
			l0,0C21,20.608,20.608,21,20.125,21z"/>
	</g>
</g>
<g id="Layer_1">
</g>
</svg>
