<?xml version="1.0" encoding="utf-8"?>
<!-- Generator: Adobe Illustrator 19.0.0, SVG Export Plug-In . SVG Version: 6.00 Build 0)  -->
<svg version="1.1" id="blogs" xmlns="http://www.w3.org/2000/svg" xmlns:xlink="http://www.w3.org/1999/xlink" x="0px" y="0px"
	 viewBox="0 0 512 512" enable-background="new 0 0 512 512" xml:space="preserve">
<g>
	<path d="M448,0H64C28.7104,0,0,28.7104,0,64v384c0,35.29,28.7104,64,64,64h384c35.29,0,64-28.71,64-64V64
		C512,28.7104,483.29,0,448,0z M448,448H64V64h384l0.04,383.998C448.04,447.998,448.0273,448,448,448z"/>
	<path d="M384,256H128c-17.6733,0-32,14.3267-32,32s14.3267,32,32,32h256c17.6729,0,32-14.3267,32-32S401.6729,256,384,256z"/>
	<path d="M288,352H128c-17.6733,0-32,14.3271-32,32s14.3267,32,32,32h160c17.6729,0,32-14.3271,32-32S305.6729,352,288,352z"/>
	<path d="M384,96H128c-17.6,0-32,14.4-32,32v64c0,17.6,14.4,32,32,32h256c17.6,0,32-14.4,32-32v-64C416,110.4,401.6,96,384,96z"/>
</g>
</svg>
