<?xml version="1.0" encoding="utf-8"?>
<!-- Generator: Adobe Illustrator 19.0.0, SVG Export Plug-In . SVG Version: 6.00 Build 0)  -->
<svg version="1.1" id="XMLID_1_" xmlns="http://www.w3.org/2000/svg" xmlns:xlink="http://www.w3.org/1999/xlink" x="0px" y="0px"
	 viewBox="0 0 9.844 14" enable-background="new 0 0 9.844 14" xml:space="preserve">
<g id="bold">
	<g>
		<g>
			<path d="M5.092,0c0.692,0,1.304,0.096,1.837,0.286c0.532,0.191,0.982,0.454,1.348,0.79C8.642,1.412,8.922,1.81,9.115,2.271
				c0.193,0.461,0.29,0.961,0.29,1.501c0,0.724-0.193,1.356-0.579,1.896S7.947,6.576,7.348,6.774
				c0.346,0.079,0.669,0.217,0.968,0.415c0.3,0.197,0.562,0.438,0.789,0.721c0.226,0.283,0.406,0.609,0.539,0.977
				c0.133,0.369,0.2,0.77,0.2,1.205c0,0.566-0.103,1.089-0.309,1.57c-0.207,0.481-0.499,0.892-0.879,1.234
				c-0.379,0.342-0.839,0.612-1.378,0.81C6.739,13.901,6.137,14,5.471,14H0V0H5.092z M4.672,5.786c0.639,0,1.135-0.158,1.488-0.474
				s0.529-0.744,0.529-1.283c0-0.54-0.17-0.964-0.509-1.274C5.841,2.446,5.331,2.291,4.653,2.291H2.716v3.495H4.672z M4.952,11.729
				c0.679,0,1.205-0.161,1.577-0.484c0.373-0.322,0.559-0.767,0.559-1.333c0-0.553-0.177-1.004-0.529-1.353
				C6.206,8.21,5.683,8.036,4.992,8.036H2.716v3.693C2.716,11.729,4.952,11.729,4.952,11.729z"/>
		</g>
	</g>
</g>
</svg>
