<?xml version="1.0" encoding="iso-8859-1"?>
<!-- Generator: Adobe Illustrator 18.0.0, SVG Export Plug-In . SVG Version: 6.00 Build 0)  -->
<!DOCTYPE svg PUBLIC "-//W3C//DTD SVG 1.1//EN" "http://www.w3.org/Graphics/SVG/1.1/DTD/svg11.dtd">
<svg version="1.1" xmlns="http://www.w3.org/2000/svg" xmlns:xlink="http://www.w3.org/1999/xlink" x="0px" y="0px"
	 viewBox="0 0 28 28" style="enable-background:new 0 0 28 28;" xml:space="preserve">
<g id="bold">
	<g>
		<g>
			<path d="M14.17,7c0.692,0,1.304,0.096,1.837,0.286c0.532,0.191,0.982,0.454,1.348,0.79C17.72,8.412,18,8.81,18.193,9.271
				c0.193,0.461,0.29,0.961,0.29,1.501c0,0.724-0.193,1.356-0.579,1.896c-0.386,0.54-0.879,0.908-1.478,1.106
				c0.346,0.079,0.669,0.217,0.968,0.415c0.3,0.197,0.562,0.438,0.789,0.721c0.226,0.283,0.406,0.609,0.539,0.977
				c0.133,0.369,0.2,0.77,0.2,1.205c0,0.566-0.103,1.089-0.309,1.57c-0.207,0.481-0.499,0.892-0.879,1.234
				c-0.379,0.342-0.839,0.612-1.378,0.81C15.817,20.901,15.215,21,14.549,21H9.078V7H14.17z M13.75,12.786
				c0.639,0,1.135-0.158,1.488-0.474c0.353-0.316,0.529-0.744,0.529-1.283c0-0.54-0.17-0.964-0.509-1.274
				c-0.339-0.309-0.849-0.464-1.527-0.464h-1.937v3.495H13.75z M14.03,18.729c0.679,0,1.205-0.161,1.577-0.484
				c0.373-0.322,0.559-0.767,0.559-1.333c0-0.553-0.177-1.004-0.529-1.353c-0.353-0.349-0.876-0.523-1.567-0.523h-2.276v3.693H14.03
				z"/>
		</g>
	</g>
</g>
<g id="Layer_1">
</g>
</svg>
