<?xml version="1.0" encoding="utf-8"?>
<!-- Generated by IcoMoon.io -->
<!DOCTYPE svg PUBLIC "-//W3C//DTD SVG 1.1//EN" "http://www.w3.org/Graphics/SVG/1.1/DTD/svg11.dtd">
<svg version="1.1" xmlns="http://www.w3.org/2000/svg" xmlns:xlink="http://www.w3.org/1999/xlink" width="512" height="512" viewBox="0 0 512 512"><g id="icomoon-ignore">
</g>
<path d="M180.708 79.787c0-15.647-12.799-28.446-28.446-28.446h-76.316c-15.647 0-28.446 12.799-28.446 28.446v22.623h133.208v-22.623z"></path>
<path d="M454.611 123.304h-32.99v-45.309c0-26.846-21.95-48.797-48.796-48.797h-130.871c-26.846 0-48.797 21.95-48.797 48.797v45.278h-135.768c-31.646 0.032-57.373 25.758-57.373 57.373v244.784c0 31.646 25.726 57.373 57.373 57.373h397.255c31.646 0 57.373-25.726 57.373-57.373v-244.784c-0.033-31.614-25.759-57.34-57.404-57.34zM90.379 241.889c-16.639 0-30.111-13.471-30.111-30.111s13.472-30.111 30.111-30.111c16.639 0 30.111 13.471 30.111 30.111s-13.503 30.111-30.111 30.111zM316.22 452.692c-74.844 0-135.512-60.668-135.512-135.512s60.668-135.512 135.512-135.512c74.844 0 135.512 60.668 135.512 135.512s-60.668 135.512-135.512 135.512z"></path>
<path d="M391.512 317.18c0 41.582-33.709 75.291-75.291 75.291s-75.291-33.709-75.291-75.291c0-41.582 33.709-75.291 75.291-75.291s75.291 33.709 75.291 75.291z"></path>
</svg>
