<?xml version="1.0" encoding="iso-8859-1"?>
<!-- Generator: Adobe Illustrator 18.0.0, SVG Export Plug-In . SVG Version: 6.00 Build 0)  -->
<!DOCTYPE svg PUBLIC "-//W3C//DTD SVG 1.1//EN" "http://www.w3.org/Graphics/SVG/1.1/DTD/svg11.dtd">
<svg version="1.1" xmlns="http://www.w3.org/2000/svg" xmlns:xlink="http://www.w3.org/1999/xlink" x="0px" y="0px"
	 viewBox="0 0 28 28" style="enable-background:new 0 0 28 28;" xml:space="preserve">
<g id="camera">
	<g>
		<path style="fill:#010001;" d="M11.647,8.493c0-0.489-0.4-0.889-0.889-0.889H8.373c-0.489,0-0.889,0.4-0.889,0.889V9.2h4.163
			V8.493z"/>
		<path style="fill:#010001;" d="M20.207,9.853h-0.224h-0.224h-0.583V8.437c0-0.839-0.686-1.525-1.525-1.525h-4.09
			c-0.839,0-1.525,0.686-1.525,1.525v1.415h-0.792H7.793C6.804,9.853,6,10.657,6,11.645v7.65c0,0.989,0.804,1.793,1.793,1.793h1.434
			h9.076h1.905c0.989,0,1.793-0.804,1.793-1.793v-7.65C22,10.657,21.196,9.853,20.207,9.853z M8.824,13.559
			c-0.52,0-0.941-0.421-0.941-0.941s0.421-0.941,0.941-0.941c0.52,0,0.941,0.421,0.941,0.941S9.343,13.559,8.824,13.559z
			 M15.882,20.147c-2.339,0-4.235-1.896-4.235-4.235s1.896-4.235,4.235-4.235c2.339,0,4.235,1.896,4.235,4.235
			S18.221,20.147,15.882,20.147z"/>
		<circle style="fill:#010001;" cx="15.882" cy="15.912" r="2.353"/>
	</g>
</g>
<g id="Layer_1">
</g>
</svg>
