<?xml version="1.0" encoding="utf-8"?>
<!-- Generator: Adobe Illustrator 19.0.0, SVG Export Plug-In . SVG Version: 6.00 Build 0)  -->
<svg version="1.1" id="XMLID_1_" xmlns="http://www.w3.org/2000/svg" xmlns:xlink="http://www.w3.org/1999/xlink" x="0px" y="0px"
	 viewBox="0 0 16.001 14.176" enable-background="new 0 0 16.001 14.176" xml:space="preserve">
<g id="camera">
	<g>
		<path fill="#010001" d="M5.647,1.581c0-0.489-0.4-0.889-0.889-0.889H2.373c-0.489,0-0.889,0.4-0.889,0.889v0.707h4.163V1.581z"/>
		<path fill="#010001" d="M14.207,2.941h-0.224h-0.224h-0.583V1.525C13.176,0.686,12.49,0,11.651,0h-4.09
			C6.722,0,6.036,0.686,6.036,1.525V2.94H5.244H1.793C0.804,2.941,0,3.745,0,4.733v7.65c0,0.989,0.804,1.793,1.793,1.793h1.434
			h9.076h1.905c0.989,0,1.793-0.804,1.793-1.793v-7.65C16,3.745,15.196,2.941,14.207,2.941z M2.824,6.647
			c-0.52,0-0.941-0.421-0.941-0.941s0.421-0.941,0.941-0.941s0.941,0.421,0.941,0.941S3.343,6.647,2.824,6.647z M9.882,13.235
			c-2.339,0-4.235-1.896-4.235-4.235s1.896-4.235,4.235-4.235S14.117,6.661,14.117,9S12.221,13.235,9.882,13.235z"/>
		<circle fill="#010001" cx="9.882" cy="9" r="2.353"/>
	</g>
</g>
</svg>
