<?xml version="1.0" encoding="utf-8"?>
<!-- Generated by IcoMoon.io -->
<!DOCTYPE svg PUBLIC "-//W3C//DTD SVG 1.1//EN" "http://www.w3.org/Graphics/SVG/1.1/DTD/svg11.dtd">
<svg version="1.1" xmlns="http://www.w3.org/2000/svg" xmlns:xlink="http://www.w3.org/1999/xlink" width="512" height="512" viewBox="0 0 512 512"><g id="icomoon-ignore">
</g>
<path d="M465.052 0h-418.104c-25.822 0-46.948 21.127-46.948 46.948v130.798c0 25.821 21.127 46.948 46.948 46.948h418.104c25.822 0 46.948-21.126 46.948-46.948v-130.798c0-25.822-21.127-46.948-46.948-46.948zM448 160.694h-384v-96h384v96z"></path>
<path d="M465.052 287.307h-418.104c-25.822 0-46.948 21.127-46.948 46.948v130.798c0 25.822 21.127 46.948 46.948 46.948h418.104c25.822 0 46.948-21.127 46.948-46.948v-130.798c0-25.822-21.127-46.948-46.948-46.948zM448 448h-384v-96h384v96z"></path>
</svg>
