<?xml version="1.0" encoding="utf-8"?>
<!-- Generator: Adobe Illustrator 19.0.0, SVG Export Plug-In . SVG Version: 6.00 Build 0)  -->
<svg version="1.1" id="XMLID_1_" xmlns="http://www.w3.org/2000/svg" xmlns:xlink="http://www.w3.org/1999/xlink" x="0px" y="0px"
	 viewBox="0 0 14 14" enable-background="new 0 0 14 14" xml:space="preserve">
<g id="cards">
	<g>
		<path d="M5.25,0H0.875C0.392,0,0,0.392,0,0.875V5.25c0,0.483,0.392,0.875,0.875,0.875H5.25c0.483,0,0.875-0.392,0.875-0.875V0.875
			C6.125,0.392,5.733,0,5.25,0z"/>
		<path d="M5.25,7.875H0.875C0.392,7.875,0,8.267,0,8.75v4.375C0,13.608,0.392,14,0.875,14H5.25c0.483,0,0.875-0.392,0.875-0.875
			V8.75C6.125,8.267,5.733,7.875,5.25,7.875z"/>
		<path d="M13.125,0H8.75C8.267,0,7.875,0.392,7.875,0.875V5.25c0,0.483,0.392,0.875,0.875,0.875h4.375
			C13.608,6.125,14,5.733,14,5.25V0.875C14,0.392,13.608,0,13.125,0z"/>
		<path d="M13.125,7.875H8.75c-0.483,0-0.875,0.392-0.875,0.875v4.375C7.875,13.608,8.267,14,8.75,14h4.375
			C13.608,14,14,13.608,14,13.125V8.75C14,8.267,13.608,7.875,13.125,7.875z"/>
	</g>
</g>
</svg>
