<?xml version="1.0" encoding="utf-8"?>
<!-- Generator: Adobe Illustrator 19.0.0, SVG Export Plug-In . SVG Version: 6.00 Build 0)  -->
<svg version="1.1" id="XMLID_1_" xmlns="http://www.w3.org/2000/svg" xmlns:xlink="http://www.w3.org/1999/xlink" x="0px" y="0px"
	 viewBox="0 0 17.4533 17.456" enable-background="new 0 0 17.4533 17.456" xml:space="preserve">
<g id="chain-broken">
	<g>
		<path d="M16.462,0.993C15.822,0.353,14.97,0,14.065,0h-0.001c-0.905,0-1.756,0.352-2.396,0.992L7.707,4.953
			c-0.342,0.342-0.342,0.896,0,1.237c0.342,0.342,0.896,0.342,1.237,0l3.961-3.961c0.31-0.31,0.721-0.48,1.159-0.48l0,0
			c0.438,0,0.85,0.171,1.16,0.481c0.64,0.64,0.64,1.68,0.001,2.32l-3.961,3.961c-0.342,0.342-0.342,0.896,0,1.237
			c0.171,0.171,0.395,0.256,0.619,0.256s0.448-0.085,0.619-0.256l3.961-3.961C17.784,4.465,17.783,2.315,16.462,0.993z"/>
		<path d="M8.48,11.295l-3.933,3.933c-0.308,0.308-0.717,0.477-1.153,0.477c0,0-0.001,0-0.002,0c-0.438-0.001-0.85-0.172-1.16-0.482
			s-0.482-0.722-0.482-1.16c-0.001-0.437,0.169-0.847,0.477-1.155L6.16,8.975c0.342-0.342,0.342-0.896,0-1.237
			c-0.342-0.342-0.896-0.342-1.237,0L0.99,11.671C0.35,12.31-0.001,13.161,0,14.066c0.001,0.904,0.355,1.755,0.995,2.395
			c0.64,0.64,1.49,0.993,2.395,0.995c0.002,0,0.003,0,0.005,0c0.903,0,1.752-0.351,2.39-0.99l3.933-3.933
			c0.342-0.342,0.342-0.896,0-1.237C9.375,10.953,8.822,10.953,8.48,11.295z"/>
	</g>
</g>
</svg>
