<?xml version="1.0" encoding="utf-8"?>
<!-- Generator: Adobe Illustrator 19.0.0, SVG Export Plug-In . SVG Version: 6.00 Build 0)  -->
<svg version="1.1" id="XMLID_1_" xmlns="http://www.w3.org/2000/svg" xmlns:xlink="http://www.w3.org/1999/xlink" x="0px" y="0px"
	 viewBox="0 0 22.7773 8.8595" enable-background="new 0 0 22.7773 8.8595" xml:space="preserve">
<g id="code">
	<g>
		<path d="M5.0075,0.3655c-0.341-0.342-0.896-0.342-1.237,0l-3.514,3.514c-0.342,0.342-0.342,0.896,0,1.237
			c0.024,0.024,0.055,0.033,0.081,0.054l3.432,3.432c0.171,0.171,0.395,0.257,0.619,0.257s0.448-0.085,0.619-0.256
			c0.342-0.342,0.342-0.896,0-1.237l-2.881-2.881l2.881-2.881C5.3485,1.2615,5.3485,0.7075,5.0075,0.3655z"/>
		<path d="M22.5205,3.8515c-0.024-0.024-0.055-0.033-0.081-0.054l-3.432-3.432c-0.342-0.342-0.896-0.342-1.237,0
			c-0.342,0.342-0.342,0.896,0,1.237l2.881,2.881l-2.881,2.881c-0.342,0.342-0.342,0.896,0,1.237
			c0.171,0.171,0.395,0.256,0.619,0.256s0.448-0.085,0.619-0.256l3.514-3.514C22.8625,4.7475,22.8625,4.1935,22.5205,3.8515z"/>
		<path d="M14.3795,0.2565l-7,7c-0.342,0.342-0.342,0.896,0,1.237c0.171,0.171,0.395,0.256,0.619,0.256s0.448-0.085,0.619-0.256l7-7
			c0.342-0.342,0.342-0.896,0-1.237C15.2745-0.0855,14.7215-0.0855,14.3795,0.2565z"/>
	</g>
</g>
</svg>
