<?xml version="1.0" encoding="iso-8859-1"?>
<!-- Generator: Adobe Illustrator 18.0.0, SVG Export Plug-In . SVG Version: 6.00 Build 0)  -->
<!DOCTYPE svg PUBLIC "-//W3C//DTD SVG 1.1//EN" "http://www.w3.org/Graphics/SVG/1.1/DTD/svg11.dtd">
<svg version="1.1" xmlns="http://www.w3.org/2000/svg" xmlns:xlink="http://www.w3.org/1999/xlink" x="0px" y="0px"
	 viewBox="0 0 28 28" style="enable-background:new 0 0 28 28;" xml:space="preserve">
<g id="code">
	<g>
		<path d="M7.619,9.936c-0.341-0.342-0.896-0.342-1.237,0L2.868,13.45c-0.342,0.342-0.342,0.896,0,1.237
			c0.024,0.024,0.055,0.033,0.081,0.054l3.432,3.432C6.552,18.344,6.776,18.43,7,18.43s0.448-0.085,0.619-0.256
			c0.342-0.342,0.342-0.896,0-1.237l-2.881-2.881l2.881-2.881C7.96,10.832,7.96,10.278,7.619,9.936z"/>
		<path d="M25.132,13.422c-0.024-0.024-0.055-0.033-0.081-0.054l-3.432-3.432c-0.342-0.342-0.896-0.342-1.237,0
			c-0.342,0.342-0.342,0.896,0,1.237l2.881,2.881l-2.881,2.881c-0.342,0.342-0.342,0.896,0,1.237
			c0.171,0.171,0.395,0.256,0.619,0.256s0.448-0.085,0.619-0.256l3.514-3.514C25.474,14.318,25.474,13.764,25.132,13.422z"/>
		<path d="M16.991,9.827l-7,7c-0.342,0.342-0.342,0.896,0,1.237c0.171,0.171,0.395,0.256,0.619,0.256s0.448-0.085,0.619-0.256l7-7
			c0.342-0.342,0.342-0.896,0-1.237C17.886,9.485,17.333,9.485,16.991,9.827z"/>
	</g>
</g>
<g id="Layer_1">
</g>
</svg>
