<?xml version="1.0" encoding="iso-8859-1"?>
<!-- Generator: Adobe Illustrator 18.0.0, SVG Export Plug-In . SVG Version: 6.00 Build 0)  -->
<!DOCTYPE svg PUBLIC "-//W3C//DTD SVG 1.1//EN" "http://www.w3.org/Graphics/SVG/1.1/DTD/svg11.dtd">
<svg version="1.1" xmlns="http://www.w3.org/2000/svg" xmlns:xlink="http://www.w3.org/1999/xlink" x="0px" y="0px"
	 viewBox="0 0 28 28" style="enable-background:new 0 0 28 28;" xml:space="preserve">
<g id="cog">
	<g>
		<path d="M14,10.062c-2.175,0-3.938,1.763-3.938,3.938s1.763,3.938,3.938,3.938s3.938-1.763,3.938-3.938S16.175,10.062,14,10.062z
			 M14,16.188c-1.206,0-2.188-0.981-2.188-2.188c0-1.206,0.981-2.188,2.188-2.188s2.188,0.981,2.188,2.188
			C16.187,15.206,15.206,16.188,14,16.188z"/>
		<path d="M23.079,11.624l-0.698-0.14c-0.157-0.506-0.359-0.995-0.605-1.463l0.444-0.664c0.474-0.71,0.427-1.581-0.115-2.119
			L20.88,6.019c-0.524-0.521-1.427-0.571-2.119-0.114l-0.667,0.441c-0.454-0.238-0.927-0.436-1.415-0.591l-0.17-0.841
			C16.34,4.081,15.69,3.5,14.928,3.5h-1.733c-0.762,0-1.412,0.582-1.581,1.414l-0.163,0.801c-0.536,0.161-1.052,0.372-1.546,0.631
			L9.238,5.906C8.547,5.449,7.644,5.499,7.12,6.019L5.895,7.237c-0.542,0.538-0.589,1.41-0.115,2.12l0.444,0.664
			c-0.246,0.468-0.448,0.957-0.605,1.463l-0.698,0.14C4.084,11.791,3.5,12.439,3.5,13.2v1.722c0,0.761,0.584,1.409,1.421,1.577
			l0.698,0.14c0.159,0.512,0.364,1.006,0.614,1.479l-0.434,0.648c-0.474,0.709-0.427,1.581,0.115,2.12l1.225,1.217
			c0.524,0.52,1.428,0.57,2.118,0.114l0.659-0.435c0.498,0.261,1.02,0.473,1.562,0.633l0.136,0.671
			c0.169,0.833,0.819,1.414,1.581,1.414h1.733c0.761,0,1.412-0.581,1.581-1.414l0.144-0.71c0.494-0.156,0.972-0.354,1.43-0.594
			l0.658,0.435c0.318,0.21,0.675,0.321,1.033,0.322c0.418,0,0.803-0.155,1.085-0.435l1.226-1.218c0.542-0.539,0.589-1.41,0.115-2.12
			l-0.433-0.648c0.25-0.473,0.455-0.967,0.614-1.479l0.699-0.14c0.837-0.167,1.421-0.816,1.421-1.577V13.2
			C24.5,12.439,23.916,11.791,23.079,11.624z M22.75,14.78c-0.005,0.001-0.009,0.002-0.015,0.003l-1.776,0.355l-0.13,0.544
			c-0.171,0.714-0.453,1.391-0.836,2.013l-0.295,0.479l1.047,1.565c0.002,0.003,0.003,0.005,0.005,0.007l-1.028,1.021
			c-0.005-0.003-0.01-0.006-0.016-0.01l-1.568-1.036l-0.474,0.288c-0.611,0.372-1.275,0.648-1.972,0.819l-0.539,0.132l-0.36,1.776
			c-0.001,0.005-0.002,0.009-0.003,0.013h-1.459c-0.001-0.004-0.002-0.008-0.003-0.012l-0.356-1.758l-0.551-0.126
			c-0.741-0.169-1.443-0.453-2.086-0.845l-0.474-0.289l-1.568,1.036c-0.006,0.004-0.011,0.007-0.016,0.01L7.25,19.746
			c0.002-0.002,0.003-0.005,0.005-0.007l1.047-1.565l-0.295-0.479c-0.383-0.622-0.665-1.299-0.836-2.013L7.04,15.139l-1.775-0.355
			c-0.005-0.001-0.01-0.002-0.015-0.003v-1.437c0.005-0.001,0.009-0.002,0.015-0.003l1.775-0.355L7.17,12.44
			c0.17-0.709,0.448-1.382,0.827-1.999l0.293-0.478L7.235,8.384C7.233,8.382,7.232,8.379,7.23,8.377l1.027-1.021
			c0.005,0.003,0.01,0.006,0.016,0.01l1.578,1.042l0.474-0.29c0.64-0.391,1.337-0.675,2.072-0.845l0.548-0.127l0.382-1.885
			c0.001-0.004,0.002-0.008,0.003-0.012h1.459c0.001,0.004,0.002,0.008,0.003,0.012l0.386,1.904L15.716,7.3
			c0.69,0.172,1.349,0.448,1.957,0.819l0.474,0.29l1.578-1.042c0.006-0.004,0.012-0.007,0.017-0.01l1.027,1.021
			c-0.001,0.002-0.003,0.005-0.004,0.007l-1.056,1.579l0.293,0.478c0.379,0.618,0.658,1.291,0.827,1.999l0.13,0.544l1.776,0.355
			c0.005,0.001,0.01,0.002,0.015,0.003V14.78z"/>
	</g>
</g>
<g id="Layer_1">
</g>
</svg>
