<?xml version="1.0" encoding="utf-8"?>
<!-- Generator: Adobe Illustrator 19.0.0, SVG Export Plug-In . SVG Version: 6.00 Build 0)  -->
<svg version="1.1" id="XMLID_1_" xmlns="http://www.w3.org/2000/svg" xmlns:xlink="http://www.w3.org/1999/xlink" x="0px" y="0px"
	 viewBox="0 0 21.001 21" enable-background="new 0 0 21.001 21" xml:space="preserve">
<g id="cog">
	<g>
		<path d="M10.5,6.562c-2.175,0-3.938,1.763-3.938,3.938s1.763,3.938,3.938,3.938s3.938-1.763,3.938-3.938S12.675,6.562,10.5,6.562z
			 M10.5,12.688c-1.206,0-2.188-0.981-2.188-2.188c0-1.206,0.981-2.188,2.188-2.188s2.188,0.981,2.188,2.188
			C12.687,11.706,11.706,12.688,10.5,12.688z"/>
		<path d="M19.579,8.124l-0.698-0.14c-0.157-0.506-0.359-0.995-0.605-1.463l0.444-0.664c0.474-0.71,0.427-1.581-0.115-2.119
			L17.38,2.519c-0.524-0.521-1.427-0.571-2.119-0.114l-0.667,0.441c-0.454-0.238-0.927-0.436-1.415-0.591l-0.17-0.841
			C12.84,0.581,12.19,0,11.428,0H9.695C8.933,0,8.283,0.582,8.114,1.414L7.951,2.215C7.415,2.376,6.899,2.587,6.405,2.846
			l-0.667-0.44C5.047,1.949,4.144,1.999,3.62,2.519L2.395,3.737c-0.542,0.538-0.589,1.41-0.115,2.12l0.444,0.664
			C2.478,6.989,2.276,7.478,2.119,7.984l-0.698,0.14C0.584,8.291,0,8.939,0,9.7v1.722c0,0.761,0.584,1.409,1.421,1.577l0.698,0.14
			c0.159,0.512,0.364,1.006,0.614,1.479l-0.434,0.648c-0.474,0.709-0.427,1.581,0.115,2.12l1.225,1.217
			c0.524,0.52,1.428,0.57,2.118,0.114l0.659-0.435c0.498,0.261,1.02,0.473,1.562,0.633l0.136,0.671C8.283,20.419,8.933,21,9.695,21
			h1.733c0.761,0,1.412-0.581,1.581-1.414l0.144-0.71c0.494-0.156,0.972-0.354,1.43-0.594l0.658,0.435
			c0.318,0.21,0.675,0.321,1.033,0.322c0.418,0,0.803-0.155,1.085-0.435l1.226-1.218c0.542-0.539,0.589-1.41,0.115-2.12
			l-0.433-0.648c0.25-0.473,0.455-0.967,0.614-1.479l0.699-0.14c0.837-0.167,1.421-0.816,1.421-1.577V9.7
			C21,8.939,20.416,8.291,19.579,8.124z M19.25,11.28c-0.005,0.001-0.009,0.002-0.015,0.003l-1.776,0.355l-0.13,0.544
			c-0.171,0.714-0.453,1.391-0.836,2.013l-0.295,0.479l1.047,1.565c0.002,0.003,0.003,0.005,0.005,0.007l-1.028,1.021
			c-0.005-0.003-0.01-0.006-0.016-0.01l-1.568-1.036l-0.474,0.288c-0.611,0.372-1.275,0.648-1.972,0.819l-0.539,0.132l-0.36,1.776
			c-0.001,0.005-0.002,0.009-0.003,0.013H9.831c-0.001-0.004-0.002-0.008-0.003-0.012l-0.356-1.758l-0.551-0.126
			C8.18,17.184,7.478,16.9,6.835,16.508l-0.474-0.289l-1.568,1.036c-0.006,0.004-0.011,0.007-0.016,0.01L3.75,16.246
			c0.002-0.002,0.003-0.005,0.005-0.007l1.047-1.565l-0.295-0.479c-0.383-0.622-0.665-1.299-0.836-2.013L3.54,11.639l-1.775-0.355
			c-0.005-0.001-0.01-0.002-0.015-0.003V9.844c0.005-0.001,0.009-0.002,0.015-0.003L3.54,9.486L3.67,8.94
			c0.17-0.709,0.448-1.382,0.827-1.999L4.79,6.463L3.735,4.884C3.733,4.882,3.732,4.879,3.73,4.877l1.027-1.021
			c0.005,0.003,0.01,0.006,0.016,0.01l1.578,1.042l0.474-0.29c0.64-0.391,1.337-0.675,2.072-0.845l0.548-0.127l0.382-1.885
			C9.828,1.757,9.829,1.753,9.83,1.749h1.459c0.001,0.004,0.002,0.008,0.003,0.012l0.386,1.904L12.216,3.8
			c0.69,0.172,1.349,0.448,1.957,0.819l0.474,0.29l1.578-1.042c0.006-0.004,0.012-0.007,0.017-0.01l1.027,1.021
			c-0.001,0.002-0.003,0.005-0.004,0.007l-1.056,1.579l0.293,0.478c0.379,0.618,0.658,1.291,0.827,1.999l0.13,0.544l1.776,0.355
			c0.005,0.001,0.01,0.002,0.015,0.003V11.28z"/>
	</g>
</g>
</svg>
