<?xml version="1.0" encoding="utf-8"?>
<!-- Generator: Adobe Illustrator 19.0.0, SVG Export Plug-In . SVG Version: 6.00 Build 0)  -->
<svg version="1.1" id="comments" xmlns="http://www.w3.org/2000/svg" xmlns:xlink="http://www.w3.org/1999/xlink" x="0px" y="0px"
	 width="512px" height="512px" viewBox="0 0 512 512" enable-background="new 0 0 512 512" xml:space="preserve">
<g>
	<path d="M448,0H64C28.7,0,0,28.7,0,64v304c0,35.3,28.7,64,64,64h50.7l-25.4,25.4c-12.5,12.5-12.5,32.8,0,45.3
		c6.2,6.2,14.4,9.4,22.6,9.4s16.4-3.1,22.6-9.4l70.6-70.6H448c35.3,0,64-28.7,64-64V64C512,28.7,483.3,0,448,0z M448,368H64V64h384
		V368C448,368,448,368,448,368z"/>
	<path d="M368,112H144c-17.7,0-32,14.3-32,32s14.3,32,32,32h224c17.7,0,32-14.3,32-32S385.7,112,368,112z"/>
	<path d="M272,256H144c-17.7,0-32,14.3-32,32s14.3,32,32,32h128c17.7,0,32-14.3,32-32S289.7,256,272,256z"/>
</g>
</svg>
