<?xml version="1.0" encoding="iso-8859-1"?>
<!-- Generator: Adobe Illustrator 18.0.0, SVG Export Plug-In . SVG Version: 6.00 Build 0)  -->
<!DOCTYPE svg PUBLIC "-//W3C//DTD SVG 1.1//EN" "http://www.w3.org/Graphics/SVG/1.1/DTD/svg11.dtd">
<svg version="1.1" xmlns="http://www.w3.org/2000/svg" xmlns:xlink="http://www.w3.org/1999/xlink" x="0px" y="0px"
	 viewBox="0 0 28 28" style="enable-background:new 0 0 28 28;" xml:space="preserve">
<g id="compress">
	<g>
		<path d="M20.993,6.111c-0.224,0-0.448,0.085-0.619,0.256l-2.936,2.936V8.025c0-0.483-0.392-0.875-0.875-0.875
			s-0.875,0.392-0.875,0.875v3.391c0,0.114,0.023,0.228,0.068,0.335c0.049,0.119,0.128,0.22,0.221,0.306
			c0.16,0.175,0.385,0.289,0.641,0.289h3.391c0.483,0,0.875-0.392,0.875-0.875s-0.392-0.875-0.875-0.875h-1.388l2.991-2.991
			c0.342-0.342,0.342-0.896,0-1.237C21.441,6.197,21.217,6.111,20.993,6.111z"/>
		<path d="M15.729,16.724v3.332c0,0.483,0.392,0.875,0.875,0.875s0.875-0.392,0.875-0.875v-1.333l2.909,2.909
			c0.342,0.342,0.896,0.342,1.237,0c0.342-0.342,0.342-0.896,0-1.237l-2.909-2.909h1.278c0.483,0,0.875-0.392,0.875-0.875
			s-0.392-0.875-0.875-0.875h-3.278c-0.047-0.008-0.093-0.027-0.14-0.027c-0.224,0-0.448,0.085-0.619,0.256
			C15.751,16.173,15.685,16.456,15.729,16.724z"/>
		<path d="M7.612,21.605l3.018-3.018v1.333c0,0.483,0.392,0.875,0.875,0.875s0.875-0.392,0.875-0.875v-3.391
			c0-0.256-0.114-0.481-0.289-0.641c-0.16-0.175-0.385-0.289-0.641-0.289H8.06c-0.483,0-0.875,0.392-0.875,0.875
			S7.577,17.35,8.06,17.35h1.333l-3.018,3.018c-0.342,0.342-0.342,0.896,0,1.237C6.716,21.947,7.271,21.947,7.612,21.605z"/>
		<path d="M11.478,7.15c-0.483,0-0.875,0.392-0.875,0.875v1.333L7.612,6.368C7.441,6.197,7.217,6.111,6.993,6.111
			S6.546,6.197,6.375,6.368c-0.342,0.342-0.342,0.896,0,1.237l2.991,2.991H8.033c-0.483,0-0.875,0.392-0.875,0.875
			s0.392,0.875,0.875,0.875h3.391c0.256,0,0.481-0.114,0.641-0.289c0.175-0.16,0.289-0.385,0.289-0.641V8.025
			C12.353,7.542,11.961,7.15,11.478,7.15z"/>
	</g>
</g>
<g id="Layer_1">
</g>
</svg>
