<?xml version="1.0" encoding="utf-8"?>
<!-- Generator: Adobe Illustrator 19.0.0, SVG Export Plug-In . SVG Version: 6.00 Build 0)  -->
<svg version="1.1" id="XMLID_1_" xmlns="http://www.w3.org/2000/svg" xmlns:xlink="http://www.w3.org/1999/xlink" x="0px" y="0px"
	 viewBox="0 0 15.763 15.7775" enable-background="new 0 0 15.763 15.7775" xml:space="preserve">
<g id="compress">
	<g>
		<path d="M14.8745,0c-0.224,0-0.448,0.085-0.619,0.256l-2.936,2.936V1.914c0-0.483-0.392-0.875-0.875-0.875
			s-0.875,0.392-0.875,0.875v3.391c0,0.114,0.023,0.228,0.068,0.335c0.049,0.119,0.128,0.22,0.221,0.306
			c0.16,0.175,0.385,0.289,0.641,0.289h3.391c0.483,0,0.875-0.392,0.875-0.875s-0.392-0.875-0.875-0.875h-1.388l2.991-2.991
			c0.342-0.342,0.342-0.896,0-1.237C15.3225,0.086,15.0985,0,14.8745,0z"/>
		<path d="M9.6105,10.613v3.332c0,0.483,0.392,0.875,0.875,0.875s0.875-0.392,0.875-0.875v-1.333l2.909,2.909
			c0.342,0.342,0.896,0.342,1.237,0c0.342-0.342,0.342-0.896,0-1.237l-2.909-2.909h1.278c0.483,0,0.875-0.392,0.875-0.875
			s-0.392-0.875-0.875-0.875h-3.278c-0.047-0.008-0.093-0.027-0.14-0.027c-0.224,0-0.448,0.085-0.619,0.256
			C9.6325,10.062,9.5665,10.345,9.6105,10.613z"/>
		<path d="M1.4935,15.494l3.018-3.018v1.333c0,0.483,0.392,0.875,0.875,0.875s0.875-0.392,0.875-0.875v-3.391
			c0-0.256-0.114-0.481-0.289-0.641c-0.16-0.175-0.385-0.289-0.641-0.289h-3.39c-0.483,0-0.875,0.392-0.875,0.875
			c0,0.483,0.392,0.876,0.875,0.876h1.333l-3.018,3.018c-0.342,0.342-0.342,0.896,0,1.237
			C0.5975,15.836,1.1525,15.836,1.4935,15.494z"/>
		<path d="M5.3595,1.039c-0.483,0-0.875,0.392-0.875,0.875v1.333l-2.991-2.99C1.3225,0.086,1.0985,0,0.8745,0
			s-0.447,0.086-0.618,0.257c-0.342,0.342-0.342,0.896,0,1.237l2.991,2.991h-1.333c-0.483,0-0.875,0.392-0.875,0.875
			s0.392,0.875,0.875,0.875h3.391c0.256,0,0.481-0.114,0.641-0.289c0.175-0.16,0.289-0.385,0.289-0.641V1.914
			C6.2345,1.431,5.8425,1.039,5.3595,1.039z"/>
	</g>
</g>
</svg>
