<?xml version="1.0" encoding="iso-8859-1"?>
<!-- Generator: Adobe Illustrator 18.0.0, SVG Export Plug-In . SVG Version: 6.00 Build 0)  -->
<!DOCTYPE svg PUBLIC "-//W3C//DTD SVG 1.1//EN" "http://www.w3.org/Graphics/SVG/1.1/DTD/svg11.dtd">
<svg version="1.1" xmlns="http://www.w3.org/2000/svg" xmlns:xlink="http://www.w3.org/1999/xlink" x="0px" y="0px"
	 viewBox="0 0 28 28" style="enable-background:new 0 0 28 28;" xml:space="preserve">
<g id="control-panel">
	<g>
		<path d="M5.25,7.875h11.326c0.351,0.895,1.217,1.531,2.236,1.531s1.886-0.636,2.236-1.531h1.701c0.483,0,0.875-0.392,0.875-0.875
			s-0.392-0.875-0.875-0.875h-1.701c-0.351-0.895-1.217-1.531-2.236-1.531s-1.886,0.636-2.236,1.531H5.25
			C4.767,6.125,4.375,6.517,4.375,7S4.767,7.875,5.25,7.875z"/>
		<path d="M22.75,13.125H11.424c-0.351-0.895-1.217-1.531-2.236-1.531s-1.886,0.636-2.236,1.531H5.25
			c-0.483,0-0.875,0.392-0.875,0.875s0.392,0.875,0.875,0.875h1.701c0.351,0.895,1.217,1.531,2.236,1.531s1.886-0.636,2.236-1.531
			H22.75c0.483,0,0.875-0.392,0.875-0.875S23.233,13.125,22.75,13.125z"/>
		<path d="M22.75,20.125h-1.701c-0.351-0.895-1.217-1.531-2.236-1.531s-1.886,0.636-2.236,1.531H5.25
			c-0.483,0-0.875,0.392-0.875,0.875s0.392,0.875,0.875,0.875h11.326c0.351,0.895,1.217,1.531,2.236,1.531s1.886-0.636,2.236-1.531
			h1.701c0.483,0,0.875-0.392,0.875-0.875S23.233,20.125,22.75,20.125z"/>
	</g>
</g>
<g id="Layer_1">
</g>
</svg>
