<?xml version="1.0" encoding="utf-8"?>
<!-- Generated by IcoMoon.io -->
<!DOCTYPE svg PUBLIC "-//W3C//DTD SVG 1.1//EN" "http://www.w3.org/Graphics/SVG/1.1/DTD/svg11.dtd">
<svg version="1.1" xmlns="http://www.w3.org/2000/svg" xmlns:xlink="http://www.w3.org/1999/xlink" width="512" height="512" viewBox="0 0 512 512"><g id="icomoon-ignore">
</g>
<path d="M479.964 128h-447.964c-17.664 0-32-14.336-32-32v0c0-17.664 14.299-32 32-32h448c17.664 0 32 14.336 32 32v0c-0.037 17.664-14.336 32-32.037 32h0.001z"></path>
<path d="M448 96c0 35.346-28.654 64-64 64s-64-28.654-64-64c0-35.346 28.654-64 64-64s64 28.654 64 64z"></path>
<path d="M479.964 448h-447.964c-17.664 0-32-14.336-32-32v0c0-17.664 14.299-32 32-32h448c17.664 0 32 14.336 32 32v0c-0.037 17.664-14.336 32-32.037 32h0.001z"></path>
<path d="M448 416c0 35.346-28.654 64-64 64s-64-28.654-64-64c0-35.346 28.654-64 64-64s64 28.654 64 64z"></path>
<path d="M32.037 288c-17.701 0-32-14.336-32.037-32v0c0-17.664 14.336-32 32-32h448c17.701 0 32 14.336 32 32v0c0 17.664-14.336 32-32 32h-447.963z"></path>
<path d="M192 256c0 35.346-28.654 64-64 64s-64-28.654-64-64c0-35.346 28.654-64 64-64s64 28.654 64 64z"></path>
</svg>
