<?xml version="1.0" encoding="utf-8"?>
<!-- Generator: Adobe Illustrator 19.0.0, SVG Export Plug-In . SVG Version: 6.00 Build 0)  -->
<svg version="1.1" id="XMLID_1_" xmlns="http://www.w3.org/2000/svg" xmlns:xlink="http://www.w3.org/1999/xlink" x="0px" y="0px"
	 viewBox="0 0 19.25 18.812" enable-background="new 0 0 19.25 18.812" xml:space="preserve">
<g id="control-panel">
	<g>
		<path d="M0.875,3.281h11.326c0.351,0.895,1.217,1.531,2.236,1.531s1.886-0.636,2.236-1.531h1.701c0.483,0,0.875-0.392,0.875-0.875
			s-0.392-0.875-0.875-0.875h-1.701C16.322,0.636,15.456,0,14.437,0s-1.886,0.636-2.236,1.531H0.875C0.392,1.531,0,1.923,0,2.406
			S0.392,3.281,0.875,3.281z"/>
		<path d="M18.375,8.531H7.049C6.698,7.636,5.832,7,4.813,7S2.927,7.636,2.577,8.531H0.875C0.392,8.531,0,8.923,0,9.406
			s0.392,0.875,0.875,0.875h1.701c0.351,0.895,1.217,1.531,2.236,1.531s1.886-0.636,2.236-1.531h11.327
			c0.483,0,0.875-0.392,0.875-0.875S18.858,8.531,18.375,8.531z"/>
		<path d="M18.375,15.531h-1.701C16.323,14.636,15.457,14,14.438,14s-1.886,0.636-2.236,1.531H0.875C0.392,15.531,0,15.923,0,16.406
			s0.392,0.875,0.875,0.875h11.326c0.351,0.895,1.217,1.531,2.236,1.531s1.886-0.636,2.236-1.531h1.701
			c0.483,0,0.875-0.392,0.875-0.875S18.858,15.531,18.375,15.531z"/>
	</g>
</g>
</svg>
