<?xml version="1.0" encoding="utf-8"?>
<!-- Generator: Adobe Illustrator 19.0.0, SVG Export Plug-In . SVG Version: 6.00 Build 0)  -->
<svg version="1.1" id="date" xmlns="http://www.w3.org/2000/svg" xmlns:xlink="http://www.w3.org/1999/xlink" x="0px" y="0px"
	 viewBox="0 0 512 487" enable-background="new 0 0 512 487" xml:space="preserve">
<path d="M448,120V32c0-17.6729-14.3271-32-32-32s-32,14.3271-32,32v88h-96V32c0-17.6729-14.3271-32-32-32s-32,14.3271-32,32v88h-96
	V32c0-17.6729-14.3271-32-32-32S64,14.3271,64,32v88H0v303c0,35.29,28.7104,64,64,64h384c35.29,0,64-28.71,64-64V120H448z M448,423
	H64V184h384.0049l0.0352,238.998C448.04,422.998,448.0273,423,448,423z"/>
</svg>
