<?xml version="1.0" encoding="utf-8"?>
<!-- Generator: Adobe Illustrator 19.0.0, SVG Export Plug-In . SVG Version: 6.00 Build 0)  -->
<svg version="1.1" id="desktop" xmlns="http://www.w3.org/2000/svg" xmlns:xlink="http://www.w3.org/1999/xlink" x="0px" y="0px"
	 viewBox="0 0 512 512" enable-background="new 0 0 512 512" xml:space="preserve">
<g>
	<path fill="#231F20" d="M448,0H64C28.8,0,0,28.8,0,64v289.1959c0,35.2,28.8,64,64,64h384c35.2,0,64-28.8,64-64V64
		C512,28.8,483.2,0,448,0z M432,385.1959c-8.8365,0-16-7.1635-16-16s7.1635-16,16-16s16,7.1635,16,16
		S440.8365,385.1959,432,385.1959z M448,320H64V64h384V320z"/>
	<path fill="#231F20" d="M448,448H64c-17.6733,0-32,14.3271-32,32s14.3267,32,32,32h384c17.6729,0,32-14.3271,32-32
		S465.6729,448,448,448z"/>
</g>
</svg>
