<?xml version="1.0" encoding="utf-8"?>
<!-- Generator: Adobe Illustrator 19.0.0, SVG Export Plug-In . SVG Version: 6.00 Build 0)  -->
<svg version="1.1" id="dynamic-data-list" xmlns="http://www.w3.org/2000/svg" xmlns:xlink="http://www.w3.org/1999/xlink" x="0px"
	 y="0px" viewBox="0 0 448 512" enable-background="new 0 0 448 512" xml:space="preserve">
<g>
	<path d="M442.7067,416.3736L397.4572,390.17l22.8115-54.7545c0.6664-1.4532,1.0933-3.0668,1.0933-4.7337
		c0-5.8944-4.7465-10.6818-10.6258-10.6818c-2.6662,0.0537-4.893,0.8802-6.6661,2.2936c-0.3203,0.2535-0.5733,0.4135-0.7336,0.6267
		l-79.9937,75.7307c-2.4531,2.3469-3.6395,5.6807-3.2794,9.0149c0.4133,3.3334,2.3464,6.3074,5.2526,7.9739l45.2634,26.2573
		l-23.0784,55.3674c-1.9733,4.6409-0.3601,10.0014,3.7598,12.8684c1.8663,1.2937,3.9597,1.8671,6.0925,1.8671
		c2.6536,0,5.2531-0.9869,7.3464-2.9069l79.9937-75.7441c2.4396-2.3469,3.6395-5.6804,3.2265-9.0145
		C447.5464,421.0007,445.5735,418.04,442.7067,416.3736z"/>
	<path d="M383.6516,0H63.942C28.6277,0,0,28.6277,0,63.9419V384.058C0,419.316,28.6844,448,63.942,448h192.2322l-0.0581-64H256h-64
		v-64h64h0.058H320v-63.8258V256v-64h64v64v0.1742h64V64.3483C448,28.8097,419.1903,0,383.6516,0z M128,384H64v-64h64V384z M128,256
		H64v-64h64V256z M128,128H64V64h64V128z M256,256h-64v-64h64V256z M256,128h-64V64h64V128z M384,128h-64V64h64V128z"/>
</g>
</svg>
