<?xml version="1.0" encoding="utf-8"?>
<!-- Generator: Adobe Illustrator 19.0.0, SVG Export Plug-In . SVG Version: 6.00 Build 0)  -->
<svg version="1.1" id="XMLID_1_" xmlns="http://www.w3.org/2000/svg" xmlns:xlink="http://www.w3.org/1999/xlink" x="0px" y="0px"
	 viewBox="0 0 17.5 17.5" enable-background="new 0 0 17.5 17.5" xml:space="preserve">
<g id="exclamation-full">
	<g>
		<path d="M8.75,0C3.918,0,0,3.917,0,8.75c0,4.832,3.918,8.75,8.75,8.75s8.75-3.918,8.75-8.75C17.5,3.917,13.582,0,8.75,0z
			 M9.359,12.435c-0.17,0.168-0.375,0.253-0.614,0.253c-0.232,0-0.431-0.084-0.598-0.253c-0.167-0.168-0.25-0.373-0.25-0.615
			s0.083-0.448,0.25-0.621c0.167-0.172,0.366-0.258,0.598-0.258c0.239,0,0.444,0.086,0.614,0.258
			c0.17,0.172,0.255,0.379,0.255,0.621C9.614,12.061,9.529,12.267,9.359,12.435z M9.277,10.227H8.223L7.875,4.812h1.75L9.277,10.227
			z"/>
	</g>
</g>
</svg>
