<?xml version="1.0" encoding="utf-8"?>
<!-- Generator: Adobe Illustrator 19.0.0, SVG Export Plug-In . SVG Version: 6.00 Build 0)  -->
<svg version="1.1" id="XMLID_1_" xmlns="http://www.w3.org/2000/svg" xmlns:xlink="http://www.w3.org/1999/xlink" x="0px" y="0px"
	 viewBox="0 0 19.25 19.25" enable-background="new 0 0 19.25 19.25" xml:space="preserve">
<g id="exclamation-circle">
	<g>
		<path d="M9.625,0C4.318,0,0,4.318,0,9.625s4.318,9.625,9.625,9.625s9.625-4.318,9.625-9.625S14.932,0,9.625,0z M9.625,17.5
			c-4.342,0-7.875-3.533-7.875-7.875S5.283,1.75,9.625,1.75S17.5,5.283,17.5,9.625S13.967,17.5,9.625,17.5z"/>
		<path d="M9.62,11.816c-0.232,0-0.431,0.086-0.598,0.258c-0.167,0.172-0.25,0.379-0.25,0.621s0.083,0.447,0.25,0.615
			s0.366,0.253,0.598,0.253c0.239,0,0.444-0.084,0.614-0.253c0.17-0.168,0.255-0.373,0.255-0.615s-0.085-0.448-0.255-0.621
			C10.063,11.902,9.859,11.816,9.62,11.816z"/>
		<polygon points="9.098,11.102 10.152,11.102 10.5,5.687 8.75,5.687 		"/>
	</g>
</g>
</svg>
