<?xml version="1.0" encoding="iso-8859-1"?>
<!-- Generator: Adobe Illustrator 18.0.0, SVG Export Plug-In . SVG Version: 6.00 Build 0)  -->
<!DOCTYPE svg PUBLIC "-//W3C//DTD SVG 1.1//EN" "http://www.w3.org/Graphics/SVG/1.1/DTD/svg11.dtd">
<svg version="1.1" xmlns="http://www.w3.org/2000/svg" xmlns:xlink="http://www.w3.org/1999/xlink" x="0px" y="0px"
	 viewBox="0 0 28 28" style="enable-background:new 0 0 28 28;" xml:space="preserve">
<g id="exclamation-full">
	<g>
		<path d="M14,5.25c-4.832,0-8.75,3.917-8.75,8.75c0,4.832,3.918,8.75,8.75,8.75s8.75-3.918,8.75-8.75
			C22.75,9.167,18.832,5.25,14,5.25z M14.609,17.685c-0.17,0.168-0.375,0.253-0.614,0.253c-0.232,0-0.431-0.084-0.598-0.253
			c-0.167-0.168-0.25-0.373-0.25-0.615c0-0.242,0.083-0.448,0.25-0.621c0.167-0.172,0.366-0.258,0.598-0.258
			c0.239,0,0.444,0.086,0.614,0.258c0.17,0.172,0.255,0.379,0.255,0.621C14.864,17.311,14.779,17.517,14.609,17.685z M14.527,15.477
			h-1.054l-0.348-5.415h1.75L14.527,15.477z"/>
	</g>
</g>
<g id="Layer_1">
</g>
</svg>
