<?xml version="1.0" encoding="utf-8"?>
<!-- Generator: Adobe Illustrator 19.0.0, SVG Export Plug-In . SVG Version: 6.00 Build 0)  -->
<svg version="1.1" id="XMLID_1_" xmlns="http://www.w3.org/2000/svg" xmlns:xlink="http://www.w3.org/1999/xlink" x="0px" y="0px"
	 viewBox="0 0 15.7634 15.777" enable-background="new 0 0 15.7634 15.777" xml:space="preserve">
<g id="expand">
	<g>
		<path d="M10.446,6.235c0.224,0,0.448-0.085,0.619-0.256l2.936-2.936v1.278c0,0.483,0.392,0.875,0.875,0.875
			s0.875-0.392,0.875-0.875V0.93c0-0.114-0.023-0.228-0.068-0.335c-0.049-0.119-0.128-0.22-0.221-0.306
			C15.302,0.114,15.077,0,14.821,0H11.43c-0.483,0-0.875,0.392-0.875,0.875S10.947,1.75,11.43,1.75h1.388L9.827,4.741
			c-0.342,0.342-0.342,0.896,0,1.237C9.998,6.149,10.222,6.235,10.446,6.235z"/>
		<path d="M15.75,14.762V11.43c0-0.483-0.392-0.875-0.875-0.875S14,10.947,14,11.43v1.333l-2.909-2.909
			c-0.342-0.342-0.896-0.342-1.237,0c-0.342,0.342-0.342,0.896,0,1.237L12.763,14h-1.278c-0.483,0-0.875,0.392-0.875,0.875
			s0.392,0.875,0.875,0.875h3.278c0.047,0.008,0.093,0.027,0.14,0.027c0.224,0,0.448-0.085,0.619-0.256
			C15.729,15.314,15.795,15.031,15.75,14.762z"/>
		<path d="M4.769,9.745l-3.018,3.018V11.43c0-0.483-0.392-0.875-0.875-0.875s-0.875,0.392-0.875,0.875v3.391
			c0,0.256,0.114,0.481,0.289,0.641c0.16,0.175,0.385,0.289,0.641,0.289h3.391c0.483,0,0.875-0.392,0.875-0.875
			s-0.392-0.875-0.875-0.875H2.988l3.018-3.018c0.342-0.342,0.342-0.896,0-1.237C5.664,9.403,5.11,9.403,4.769,9.745z"/>
		<path d="M0.875,5.196c0.483,0,0.875-0.392,0.875-0.875V2.988l2.991,2.991C4.912,6.15,5.136,6.235,5.36,6.235
			S5.808,6.15,5.979,5.979c0.342-0.342,0.342-0.896,0-1.237L2.988,1.75h1.333c0.483,0,0.875-0.392,0.875-0.875S4.804,0,4.321,0H0.93
			C0.674,0,0.449,0.114,0.289,0.289C0.114,0.449,0,0.674,0,0.93v3.391C0,4.804,0.392,5.196,0.875,5.196z"/>
	</g>
</g>
</svg>
