<?xml version="1.0" encoding="iso-8859-1"?>
<!-- Generator: Adobe Illustrator 18.0.0, SVG Export Plug-In . SVG Version: 6.00 Build 0)  -->
<!DOCTYPE svg PUBLIC "-//W3C//DTD SVG 1.1//EN" "http://www.w3.org/Graphics/SVG/1.1/DTD/svg11.dtd">
<svg version="1.1" xmlns="http://www.w3.org/2000/svg" xmlns:xlink="http://www.w3.org/1999/xlink" x="0px" y="0px"
	 viewBox="0 0 32 24" style="enable-background:new 0 0 32 24;" xml:space="preserve">
<g id="tr-TR">
	<g>
		<rect style="fill:#C0CFD8;" width="32" height="24"/>
		<rect x="1" y="1" style="fill:#E03232;" width="30" height="22"/>
		<path style="fill:#FFFFFF;" d="M15,17c-2.761,0-5-2.239-5-5s2.239-5,5-5c0.127,0,0.247,0.028,0.372,0.037
			C14.411,6.383,13.25,6,12,6c-3.314,0-6,2.686-6,6s2.686,6,6,6c1.25,0,2.411-0.383,3.372-1.037C15.247,16.972,15.127,17,15,17z"/>
		<polygon style="fill:#FFFFFF;" points="15.826,8.626 17.111,10.23 19.033,9.504 17.904,11.221 19.189,12.825 17.207,12.283
			16.078,14 15.982,11.947 14,11.405 15.922,10.679 		"/>
	</g>
</g>
</svg>
