<?xml version="1.0" encoding="iso-8859-1"?>
<!-- Generator: Adobe Illustrator 18.0.0, SVG Export Plug-In . SVG Version: 6.00 Build 0)  -->
<!DOCTYPE svg PUBLIC "-//W3C//DTD SVG 1.1//EN" "http://www.w3.org/Graphics/SVG/1.1/DTD/svg11.dtd">
<svg version="1.1" xmlns="http://www.w3.org/2000/svg" xmlns:xlink="http://www.w3.org/1999/xlink" x="0px" y="0px"
	 viewBox="0 0 32 24" style="enable-background:new 0 0 32 24;" xml:space="preserve">
<g id="zn-CN">
	<g>
		<g>
			<rect style="fill:#C0CFD8;" width="32" height="24"/>
			<rect x="1" y="1" style="fill:#E03232;" width="30" height="22"/>
			<polygon style="fill:#FCD638;" points="9.544,10.921 7.044,9.081 4.599,11 5.499,7.944 3,6.104 6.056,6.056 6.956,3 7.944,6.026
				11,5.977 8.555,7.896 			"/>
		</g>
		<g>
			<polygon style="fill:#FFDD00;" points="14.785,5.64 14.163,4.758 13.146,5.121 13.779,4.213 13.158,3.332 14.171,3.652
				14.804,2.744 14.796,3.85 15.809,4.17 14.792,4.534 			"/>
			<polygon style="fill:#FFDD00;" points="17.228,8.737 17.26,7.659 16.229,7.339 17.28,6.992 17.312,5.914 17.93,6.778
				18.981,6.432 18.312,7.312 18.929,8.176 17.898,7.856 			"/>
			<polygon style="fill:#FFDD00;" points="16.688,13.304 17.011,12.275 16.105,11.688 17.211,11.639 17.534,10.61 17.894,11.609
				19,11.56 18.117,12.226 18.478,13.225 17.571,12.638 			"/>
			<polygon style="fill:#FFDD00;" points="12.992,15.953 13.74,15.176 13.191,14.246 14.202,14.696 14.95,13.918 14.828,14.973
				15.839,15.423 14.752,15.625 14.629,16.68 14.08,15.751 			"/>
		</g>
	</g>
</g>
</svg>
