<?xml version="1.0" encoding="utf-8"?>
<!-- Generator: Adobe Illustrator 19.2.1, SVG Export Plug-In . SVG Version: 6.00 Build 0)  -->
<svg version="1.1" id="Layer_1" xmlns="http://www.w3.org/2000/svg" xmlns:xlink="http://www.w3.org/1999/xlink" x="0px" y="0px"
	 viewBox="0 0 512 512" enable-background="new 0 0 512 512" xml:space="preserve">
<rect y="64" fill="#B0BEC9" width="512" height="384"/>
<rect x="16" y="80.3" fill="#0094CE" width="480" height="112"/>
<rect x="16" y="320" fill="#FFFFFF" width="480" height="112"/>
<rect x="16" y="192" fill="#4C4C4E" width="480" height="128"/>
<rect y="64" fill="#B0BEC9" width="512" height="384"/>
<rect x="16" y="80" fill="#E03232" width="480" height="352"/>
<polygon fill="#75BD4A" points="256,295.7 441.9,432 496,432 496,392.3 310.1,256 496,119.7 496,80 441.9,80 256,216.3 70.1,80 
	16,80 16,119.7 201.9,256 16,392.3 16,432 70.1,432 "/>
<polygon fill="#FFFFFF" points="496,224 288,224 288,80 224,80 224,224 16,224 16,288 224,288 224,432 288,432 288,288 496,288 "/>
</svg>
