<?xml version="1.0" encoding="iso-8859-1"?>
<!-- Generator: Adobe Illustrator 18.0.0, SVG Export Plug-In . SVG Version: 6.00 Build 0)  -->
<!DOCTYPE svg PUBLIC "-//W3C//DTD SVG 1.1//EN" "http://www.w3.org/Graphics/SVG/1.1/DTD/svg11.dtd">
<svg version="1.1" xmlns="http://www.w3.org/2000/svg" xmlns:xlink="http://www.w3.org/1999/xlink" x="0px" y="0px"
	 viewBox="0 0 32 24" style="enable-background:new 0 0 32 24;" xml:space="preserve">
<g id="en-GB">
	<g>
		<rect style="fill:#B0BEC9;" width="32" height="24"/>
		<rect x="1" y="1" style="fill:#0035A0;" width="30" height="22"/>
		<rect x="13" y="1" style="fill:#FFFFFF;" width="6" height="22"/>
		<rect x="1" y="9" style="fill:#FFFFFF;" width="30" height="6"/>
		<polygon style="fill:#FFFFFF;" points="16,15.721 25.926,23 31,23 31,19.279 21.074,12 31,4.721 31,1 25.926,1 16,8.279 6.074,1
			1,1 1,4.721 10.926,12 1,19.279 1,23 6.074,23 		"/>
		<polygon style="fill:#E03232;" points="16,14.48 27.618,23 31,23 31,20.52 19.382,12 31,3.48 31,1 27.618,1 16,9.52 4.382,1 1,1
			1,3.48 12.618,12 1,20.52 1,23 4.382,23 		"/>
		<polygon style="fill:#E03232;" points="31,10 18,10 18,1 14,1 14,10 1,10 1,14 14,14 14,23 18,23 18,14 31,14 		"/>
	</g>
</g>
</svg>
