<?xml version="1.0" encoding="utf-8"?>
<!-- Generator: Adobe Illustrator 19.0.0, SVG Export Plug-In . SVG Version: 6.00 Build 0)  -->
<svg version="1.1" id="geolocation" xmlns="http://www.w3.org/2000/svg" xmlns:xlink="http://www.w3.org/1999/xlink" x="0px"
	 y="0px" viewBox="0 0 288 512" enable-background="new 0 0 288 512" xml:space="preserve">
<path d="M144.0028,0C64.6,0,0,61.6733,0,137.4829c0,43.3011,102.0522,307.2784,122.5089,359.7557
	C125.9813,506.1449,134.5073,512,144,512h0.0056c9.4955-0.0029,18.0215-5.8636,21.4883-14.7728
	C194.2313,423.3949,288,179.2528,288,137.4829C288,61.6733,223.4028,0,144.0028,0z M144,224c-44.1828,0-80-35.8173-80-80
	c0-44.1828,35.8172-80,80-80s80,35.8172,80,80C224,188.1827,188.1828,224,144,224z"/>
</svg>
