<?xml version="1.0" encoding="utf-8"?>
<!-- Generator: Adobe Illustrator 19.0.0, SVG Export Plug-In . SVG Version: 6.00 Build 0)  -->
<svg version="1.1" id="XMLID_1_" xmlns="http://www.w3.org/2000/svg" xmlns:xlink="http://www.w3.org/1999/xlink" x="0px" y="0px"
	 viewBox="0 0 14.001 14.001" enable-background="new 0 0 14.001 14.001" xml:space="preserve">
<g id="grid">
	<g>
		<g>
			<path d="M13.562,0h-2.625C10.696,0,10.5,0.196,10.5,0.438v2.625c0,0.242,0.196,0.438,0.438,0.438h2.625
				c0.242,0,0.438-0.196,0.438-0.438V0.438C14,0.196,13.804,0,13.562,0z"/>
			<path d="M3.063,5.25H0.438C0.196,5.25,0,5.446,0,5.688v2.625c0,0.242,0.196,0.438,0.438,0.438h2.625
				c0.242,0,0.437-0.196,0.437-0.438V5.688C3.5,5.446,3.304,5.25,3.063,5.25z"/>
			<path d="M8.312,5.25H5.687c-0.242,0-0.438,0.196-0.438,0.438v2.625c0,0.242,0.196,0.438,0.438,0.438h2.625
				c0.242,0,0.438-0.196,0.438-0.438V5.688C8.75,5.446,8.554,5.25,8.312,5.25z"/>
			<path d="M13.562,5.25h-2.625c-0.242,0-0.438,0.196-0.438,0.438v2.625c0,0.242,0.196,0.438,0.438,0.438h2.625
				C13.804,8.751,14,8.555,14,8.313V5.688C14,5.446,13.804,5.25,13.562,5.25z"/>
			<path d="M3.063,10.5H0.438C0.196,10.5,0,10.696,0,10.938v2.625C0,13.804,0.196,14,0.438,14h2.625C3.305,14,3.5,13.804,3.5,13.562
				v-2.625C3.5,10.696,3.304,10.5,3.063,10.5z"/>
			<path d="M8.312,10.5H5.687c-0.242,0-0.438,0.196-0.438,0.438v2.625c0,0.242,0.196,0.438,0.438,0.438h2.625
				c0.242,0,0.438-0.196,0.438-0.438v-2.625C8.75,10.696,8.554,10.5,8.312,10.5z"/>
			<path d="M13.562,10.5h-2.625c-0.242,0-0.438,0.196-0.438,0.438v2.625c0,0.242,0.196,0.438,0.438,0.438h2.625
				C13.804,14,14,13.804,14,13.562v-2.625C14,10.696,13.804,10.5,13.562,10.5z"/>
			<path d="M3.063,0H0.438C0.196,0,0,0.196,0,0.438v2.625C0,3.304,0.196,3.5,0.438,3.5h2.625C3.305,3.5,3.5,3.304,3.5,3.062V0.438
				C3.5,0.196,3.304,0,3.063,0z"/>
			<path d="M8.312,0H5.687C5.445,0,5.249,0.196,5.249,0.438v2.625c0,0.242,0.196,0.438,0.438,0.438h2.625
				c0.242,0,0.438-0.196,0.438-0.438V0.438C8.75,0.196,8.554,0,8.312,0z"/>
		</g>
	</g>
</g>
</svg>
