<?xml version="1.0" encoding="utf-8"?>
<!-- Generator: Adobe Illustrator 19.0.0, SVG Export Plug-In . SVG Version: 6.00 Build 0)  -->
<svg version="1.1" id="XMLID_1_" xmlns="http://www.w3.org/2000/svg" xmlns:xlink="http://www.w3.org/1999/xlink" x="0px" y="0px"
	 viewBox="0 0 15.75 14" enable-background="new 0 0 15.75 14" xml:space="preserve">
<g id="h1">
	<g>
		<path d="M7.612,5.337C7.33,5.002,6.972,4.734,6.54,4.534c-0.433-0.2-0.945-0.3-1.534-0.3c-0.439,0-0.891,0.081-1.355,0.242
			C3.187,4.637,2.804,4.905,2.504,5.279V0H0v14h2.504V8.412c0.024-0.529,0.188-0.97,0.488-1.325
			c0.302-0.354,0.715-0.532,1.242-0.532c0.602,0,1.038,0.181,1.308,0.541c0.27,0.361,0.404,0.813,0.404,1.354V14H8.45V8.005
			c0-0.515-0.069-1.006-0.207-1.469C8.104,6.072,7.894,5.672,7.612,5.337z"/>
		<path d="M13.511,1.45c-0.126,0.658-0.479,1.212-1.063,1.663c-0.583,0.451-1.322,0.683-2.211,0.696v1.799h2.936V14h2.577V1.45
			H13.511z"/>
	</g>
</g>
</svg>
