<?xml version="1.0" encoding="iso-8859-1"?>
<!-- Generator: Adobe Illustrator 18.0.0, SVG Export Plug-In . SVG Version: 6.00 Build 0)  -->
<!DOCTYPE svg PUBLIC "-//W3C//DTD SVG 1.1//EN" "http://www.w3.org/Graphics/SVG/1.1/DTD/svg11.dtd">
<svg version="1.1" xmlns="http://www.w3.org/2000/svg" xmlns:xlink="http://www.w3.org/1999/xlink" x="0px" y="0px"
	 viewBox="0 0 28 28" style="enable-background:new 0 0 28 28;" xml:space="preserve">
<g id="h1">
	<g>
		<path d="M13.737,12.337c-0.282-0.335-0.64-0.603-1.072-0.803c-0.433-0.2-0.945-0.3-1.534-0.3c-0.439,0-0.891,0.081-1.355,0.242
			c-0.464,0.161-0.847,0.429-1.147,0.803V7H6.125v14h2.504v-5.588c0.024-0.529,0.188-0.97,0.488-1.325
			c0.302-0.354,0.715-0.532,1.242-0.532c0.602,0,1.038,0.181,1.308,0.541c0.27,0.361,0.404,0.813,0.404,1.354V21h2.504v-5.995
			c0-0.515-0.069-1.006-0.207-1.469C14.229,13.072,14.019,12.672,13.737,12.337z"/>
		<path d="M19.636,8.45c-0.126,0.658-0.479,1.212-1.063,1.663c-0.583,0.451-1.322,0.683-2.211,0.696v1.799h2.936V21h2.577V8.45
			H19.636z"/>
	</g>
</g>
<g id="Layer_1">
</g>
</svg>
