<?xml version="1.0" encoding="utf-8"?>
<!-- Generator: Adobe Illustrator 19.0.0, SVG Export Plug-In . SVG Version: 6.00 Build 0)  -->
<svg version="1.1" id="XMLID_1_" xmlns="http://www.w3.org/2000/svg" xmlns:xlink="http://www.w3.org/1999/xlink" x="0px" y="0px"
	 viewBox="0 0 19.686 14.001" enable-background="new 0 0 19.686 14.001" xml:space="preserve">
<g id="h2">
	<g>
		<path d="M7.771,5.337C7.483,5.002,7.118,4.734,6.677,4.534c-0.442-0.2-0.964-0.3-1.566-0.3c-0.449,0-0.91,0.081-1.383,0.242
			C3.254,4.637,2.864,4.905,2.557,5.279V0H0v14h2.556V8.412c0.025-0.529,0.192-0.97,0.499-1.325c0.308-0.354,0.73-0.532,1.268-0.532
			c0.614,0,1.06,0.181,1.335,0.541C5.933,7.457,6.071,7.909,6.071,8.45V14h2.556V8.005c0-0.515-0.07-1.006-0.211-1.469
			C8.272,6.072,8.058,5.672,7.771,5.337z"/>
		<path d="M13.715,11.699c0.102-0.245,0.247-0.457,0.431-0.638c0.186-0.18,0.4-0.348,0.644-0.503l2.401-1.469
			c0.769-0.477,1.363-1.041,1.787-1.692c0.422-0.651,0.633-1.383,0.633-2.194c0-0.541-0.102-1.057-0.306-1.547
			c-0.205-0.49-0.503-0.919-0.894-1.286c-0.391-0.367-0.864-0.661-1.421-0.88c-0.556-0.219-1.182-0.328-1.873-0.328
			c-0.73,0-1.377,0.116-1.94,0.348c-0.564,0.232-1.038,0.541-1.421,0.928c-0.385,0.386-0.68,0.831-0.885,1.334
			c-0.205,0.503-0.306,1.032-0.306,1.586c0,0.154,0.009,0.316,0.028,0.483c0.019,0.168,0.042,0.297,0.067,0.386l2.517,0.078
			c-0.064-0.232-0.097-0.464-0.097-0.696c0-0.592,0.164-1.089,0.491-1.489c0.327-0.4,0.822-0.6,1.488-0.6
			c0.627,0,1.097,0.174,1.411,0.522c0.314,0.349,0.471,0.748,0.471,1.199c0,0.438-0.113,0.829-0.336,1.17S16,7.085,15.462,7.407
			l-2.056,1.237c-0.563,0.336-1.03,0.7-1.402,1.093c-0.37,0.393-0.669,0.815-0.893,1.267c-0.225,0.451-0.388,0.925-0.489,1.421
			c-0.103,0.497-0.155,1.022-0.155,1.576h9.219V11.7h-5.971V11.699z"/>
	</g>
</g>
</svg>
