<?xml version="1.0" encoding="iso-8859-1"?>
<!-- Generator: Adobe Illustrator 18.0.0, SVG Export Plug-In . SVG Version: 6.00 Build 0)  -->
<!DOCTYPE svg PUBLIC "-//W3C//DTD SVG 1.1//EN" "http://www.w3.org/Graphics/SVG/1.1/DTD/svg11.dtd">
<svg version="1.1" xmlns="http://www.w3.org/2000/svg" xmlns:xlink="http://www.w3.org/1999/xlink" x="0px" y="0px"
	 viewBox="0 0 28 28" style="enable-background:new 0 0 28 28;" xml:space="preserve">
<g id="heart">
	<g>
		<g>
			<path d="M13.999,21.875c-0.211,0-0.418-0.076-0.581-0.221c-0.701-0.623-6.881-6.153-7.906-8.336
				c-1.18-2.515-0.101-5.526,2.406-6.711c0.677-0.32,1.398-0.483,2.142-0.483c1.547,0,2.997,0.723,3.94,1.908
				c0.943-1.185,2.393-1.908,3.94-1.908c0.744,0,1.465,0.162,2.142,0.483c2.508,1.185,3.587,4.195,2.406,6.711
				c-1.025,2.183-7.204,7.713-7.906,8.336c-0.151,0.135-0.341,0.209-0.536,0.22C14.031,21.875,14.015,21.875,13.999,21.875z
				 M10.059,7.875c-0.484,0-0.953,0.106-1.395,0.315c-1.637,0.774-2.341,2.741-1.569,4.385c0.615,1.309,4.268,4.867,6.905,7.251
				c2.637-2.384,6.29-5.942,6.904-7.251c0.772-1.644,0.068-3.611-1.569-4.385c-0.442-0.209-0.911-0.315-1.395-0.315
				c-1.266,0-2.431,0.742-2.97,1.89c-0.027,0.059-0.071,0.172-0.121,0.374c-0.096,0.391-0.447,0.667-0.85,0.667h-0.001
				c-0.403,0-0.754-0.276-0.849-0.668c-0.048-0.2-0.092-0.313-0.12-0.373C12.49,8.617,11.325,7.875,10.059,7.875z"/>
		</g>
	</g>
</g>
<g id="Layer_1">
</g>
</svg>
