<?xml version="1.0" encoding="utf-8"?>
<!-- Generator: Adobe Illustrator 19.0.0, SVG Export Plug-In . SVG Version: 6.00 Build 0)  -->
<svg version="1.1" id="XMLID_1_" xmlns="http://www.w3.org/2000/svg" xmlns:xlink="http://www.w3.org/1999/xlink" x="0px" y="0px"
	 viewBox="0 0 17.9331 15.751" enable-background="new 0 0 17.9331 15.751" xml:space="preserve">
<g id="heart">
	<g>
		<g>
			<path d="M8.9653,15.751c-0.211,0-0.418-0.076-0.581-0.221c-0.701-0.623-6.881-6.153-7.906-8.336
				c-1.18-2.515-0.101-5.526,2.406-6.711C3.5613,0.163,4.2823,0,5.0263,0c1.547,0,2.997,0.723,3.94,1.908
				C9.9093,0.723,11.3593,0,12.9063,0c0.744,0,1.465,0.162,2.142,0.483c2.508,1.185,3.587,4.195,2.406,6.711
				c-1.025,2.183-7.204,7.713-7.906,8.336c-0.151,0.135-0.341,0.209-0.536,0.22C8.9973,15.751,8.9813,15.751,8.9653,15.751z
				 M5.0253,1.751c-0.484,0-0.953,0.106-1.395,0.315c-1.637,0.774-2.341,2.741-1.569,4.385c0.615,1.309,4.268,4.867,6.905,7.251
				c2.637-2.384,6.29-5.942,6.904-7.251c0.772-1.644,0.068-3.611-1.569-4.385c-0.442-0.209-0.911-0.315-1.395-0.315
				c-1.266,0-2.431,0.742-2.97,1.89c-0.027,0.059-0.071,0.172-0.121,0.374c-0.096,0.391-0.447,0.667-0.85,0.667h-0.001
				c-0.403,0-0.754-0.276-0.849-0.668c-0.048-0.2-0.092-0.313-0.12-0.373C7.4563,2.493,6.2913,1.751,5.0253,1.751z"/>
		</g>
	</g>
</g>
</svg>
