<?xml version="1.0" encoding="utf-8"?>
<!-- Generated by IcoMoon.io -->
<!DOCTYPE svg PUBLIC "-//W3C//DTD SVG 1.1//EN" "http://www.w3.org/Graphics/SVG/1.1/DTD/svg11.dtd">
<svg version="1.1" xmlns="http://www.w3.org/2000/svg" xmlns:xlink="http://www.w3.org/1999/xlink" width="512" height="512" viewBox="0 0 512 512"><g id="icomoon-ignore">
</g>
<path d="M255.973 479.999c-5.587 0-11.068-2.012-15.383-5.851-18.561-16.495-182.194-162.918-209.333-220.719-31.244-66.591-2.675-146.316 63.706-177.692 17.925-8.473 37.016-12.789 56.715-12.789 40.961 0 79.354 19.144 104.322 50.52 24.969-31.376 63.361-50.52 104.322-50.52 19.7 0 38.79 4.289 56.716 12.789 66.406 31.376 94.976 111.074 63.706 177.692-27.14 57.8-190.746 204.223-209.333 220.719-3.998 3.575-9.029 5.534-14.192 5.825-0.397 0.027-0.821 0.027-1.244 0.027l0.001-0.001zM151.651 109.31c-12.815 0-25.233 2.807-36.936 8.341-43.344 20.493-61.984 72.575-41.544 116.105 16.284 34.66 113.007 128.867 182.829 191.99 69.822-63.123 166.545-157.331 182.803-191.99 20.44-43.529 1.8-95.611-41.544-116.105-11.704-5.534-24.122-8.341-36.937-8.341-33.52 0-64.368 19.647-78.639 50.043-0.714 1.563-1.88 4.554-3.204 9.903-2.542 10.352-11.836 17.661-22.506 17.661h-0.027c-10.671 0-19.965-7.308-22.48-17.688-1.27-5.296-2.436-8.287-3.178-9.876-14.272-30.397-45.118-50.043-78.639-50.043h0.001z"></path>
</svg>
