<?xml version="1.0" encoding="iso-8859-1"?>
<!-- Generator: Adobe Illustrator 18.0.0, SVG Export Plug-In . SVG Version: 6.00 Build 0)  -->
<!DOCTYPE svg PUBLIC "-//W3C//DTD SVG 1.1//EN" "http://www.w3.org/Graphics/SVG/1.1/DTD/svg11.dtd">
<svg version="1.1" xmlns="http://www.w3.org/2000/svg" xmlns:xlink="http://www.w3.org/1999/xlink" x="0px" y="0px"
	 viewBox="0 0 28 28" style="enable-background:new 0 0 28 28;" xml:space="preserve">
<g id="home">
	<g>
		<path d="M14.109,13.689H14c-1.689,0-3.062,1.374-3.062,3.062v5.889c0,0.483,0.392,0.875,0.875,0.875s0.875-0.392,0.875-0.875
			v-5.889c0-0.724,0.589-1.312,1.312-1.312h0.109c0.664,0,1.203,0.54,1.203,1.203v5.999c0,0.483,0.392,0.875,0.875,0.875
			s0.875-0.392,0.875-0.875v-5.999C17.062,15.013,15.738,13.689,14.109,13.689z"/>
		<path d="M23.378,13.391l-8.122-8.375l-0.001,0C14.923,4.673,14.478,4.484,14,4.484c-0.477,0-0.923,0.189-1.256,0.531l-0.001,0
			l-8.122,8.375c-0.336,0.347-0.328,0.901,0.019,1.237c0.17,0.165,0.39,0.247,0.609,0.247c0.228,0,0.457-0.089,0.628-0.266
			l0.247-0.255v8.123c0,0.483,0.392,0.875,0.875,0.875s0.875-0.392,0.875-0.875l0-9.927l5.061-5.219L14,6.235c0,0,0,0,0,0
			l6.125,6.316v9.927c0,0.483,0.392,0.875,0.875,0.875s0.875-0.392,0.875-0.875v-8.123l0.247,0.255
			c0.171,0.177,0.399,0.266,0.628,0.266c0.22,0,0.439-0.082,0.609-0.247C23.706,14.292,23.715,13.738,23.378,13.391z"/>
	</g>
</g>
<g id="Layer_1">
</g>
</svg>
