<?xml version="1.0" encoding="utf-8"?>
<!-- Generator: Adobe Illustrator 19.0.0, SVG Export Plug-In . SVG Version: 6.00 Build 0)  -->
<svg version="1.1" id="XMLID_1_" xmlns="http://www.w3.org/2000/svg" xmlns:xlink="http://www.w3.org/1999/xlink" x="0px" y="0px"
	 viewBox="0 0 19.2508 19.032" enable-background="new 0 0 19.2508 19.032" xml:space="preserve">
<g id="home">
	<g>
		<path d="M9.7347,9.205h-0.109c-1.689,0-3.062,1.374-3.062,3.062v5.889c0,0.483,0.392,0.875,0.875,0.875s0.875-0.392,0.875-0.875
			v-5.889c0-0.724,0.589-1.312,1.312-1.312h0.109c0.664,0,1.203,0.54,1.203,1.203v5.999c0,0.483,0.392,0.875,0.875,0.875
			s0.875-0.392,0.875-0.875v-5.999C12.6877,10.529,11.3637,9.205,9.7347,9.205z"/>
		<path d="M19.0037,8.907l-8.122-8.375h-0.001C10.5487,0.189,10.1037,0,9.6257,0c-0.477,0-0.923,0.189-1.256,0.531h-0.001
			l-8.122,8.375c-0.336,0.347-0.328,0.901,0.019,1.237c0.17,0.165,0.39,0.247,0.609,0.247c0.228,0,0.457-0.089,0.628-0.266
			l0.247-0.255v8.123c0,0.483,0.392,0.875,0.875,0.875s0.875-0.392,0.875-0.875V8.065l5.061-5.219l1.065-1.095l0,0l6.125,6.316
			v9.927c0,0.483,0.392,0.875,0.875,0.875s0.875-0.392,0.875-0.875V9.871l0.247,0.255c0.171,0.177,0.399,0.266,0.628,0.266
			c0.22,0,0.439-0.082,0.609-0.247C19.3317,9.808,19.3407,9.254,19.0037,8.907z"/>
	</g>
</g>
</svg>
