<?xml version="1.0" encoding="utf-8"?>
<!-- Generator: Adobe Illustrator 19.0.0, SVG Export Plug-In . SVG Version: 6.00 Build 0)  -->
<svg version="1.1" id="horizontal_x5F_scroll" xmlns="http://www.w3.org/2000/svg" xmlns:xlink="http://www.w3.org/1999/xlink"
	 x="0px" y="0px" viewBox="0 0 512.9834 224" enable-background="new 0 0 512.9834 224" xml:space="preserve">
<path d="M512.9834,112c0-8.5949-3.3952-16.3923-8.9094-22.1414c-0.7202-0.8771-1.4849-1.7227-2.2943-2.5321l-77.1064-77.1064
	c-13.6268-13.6268-35.7211-13.6268-49.348,0c-6.8137,6.8137-10.2202,15.7438-10.2202,24.674s3.4066,17.8603,10.2202,24.674
	L395.7572,80H116.2427l20.432-20.4314c13.6268-13.6274,13.6268-35.7227,0-49.348c-13.6269-13.6274-35.7206-13.6274-49.348-0.001
	L10.2203,87.325C3.6765,93.8698,0,102.7445,0,111.9995s3.6765,18.1297,10.2203,24.674l77.1064,77.1064
	c13.6268,13.6268,35.7211,13.6268,49.348,0c6.8137-6.8137,10.2202-15.7438,10.2202-24.674c0-8.9302-3.4066-17.8604-10.2202-24.674
	L116.2428,144h279.5145l-20.4319,20.4313c-13.6268,13.6274-13.6268,35.7227,0,49.348c13.6269,13.6274,35.7206,13.6274,49.348,0.0011
	l77.1064-77.1053c0.814-0.8141,1.5832-1.6644,2.3069-2.5469C509.5934,128.3803,512.9834,120.5884,512.9834,112z"/>
</svg>
