<?xml version="1.0" encoding="iso-8859-1"?>
<!-- Generator: Adobe Illustrator 18.0.0, SVG Export Plug-In . SVG Version: 6.00 Build 0)  -->
<!DOCTYPE svg PUBLIC "-//W3C//DTD SVG 1.1//EN" "http://www.w3.org/Graphics/SVG/1.1/DTD/svg11.dtd">
<svg version="1.1" xmlns="http://www.w3.org/2000/svg" xmlns:xlink="http://www.w3.org/1999/xlink" x="0px" y="0px"
	 viewBox="0 0 28 28" style="enable-background:new 0 0 28 28;" xml:space="preserve">
<g id="italic">
	<g>
		<polygon points="11.518,21 14.049,21 15.699,11.642 13.169,11.642 		"/>
		<path d="M16.035,7.457C15.736,7.152,15.365,7,14.922,7c-0.431,0-0.799,0.152-1.103,0.457c-0.305,0.304-0.457,0.679-0.457,1.122
			c0,0.419,0.152,0.779,0.457,1.084c0.304,0.304,0.672,0.457,1.103,0.457c0.443,0,0.814-0.152,1.113-0.457
			c0.297-0.305,0.447-0.666,0.447-1.084C16.482,8.135,16.332,7.761,16.035,7.457z"/>
	</g>
</g>
<g id="Layer_1">
</g>
</svg>
