<?xml version="1.0" encoding="utf-8"?>
<!-- Generator: Adobe Illustrator 19.0.0, SVG Export Plug-In . SVG Version: 6.00 Build 0)  -->
<svg version="1.1" id="XMLID_1_" xmlns="http://www.w3.org/2000/svg" xmlns:xlink="http://www.w3.org/1999/xlink" x="0px" y="0px"
	 viewBox="0 0 17.4525 17.456" enable-background="new 0 0 17.4525 17.456" xml:space="preserve">
<g id="link">
	<g>
		<g>
			<g>
				<path d="M9.7319,11.112c-0.869,0-1.737-0.33-2.398-0.992c-0.342-0.342-0.342-0.896,0-1.237c0.342-0.342,0.896-0.342,1.237,0
					c0.639,0.639,1.68,0.64,2.32,0l4.333-4.332c0.639-0.639,0.639-1.68-0.001-2.32c-0.31-0.31-0.722-0.481-1.16-0.481l0,0
					c-0.438,0-0.849,0.17-1.159,0.48l-3.556,3.556c-0.342,0.342-0.896,0.342-1.237,0c-0.342-0.342-0.342-0.896,0-1.237l3.556-3.556
					c0.64-0.64,1.491-0.993,2.396-0.993h0.001c0.905,0,1.757,0.353,2.397,0.993c1.322,1.322,1.322,3.473,0.001,4.794l-4.333,4.332
					C11.4679,10.781,10.5999,11.112,9.7319,11.112z"/>
			</g>
			<g>
				<path d="M3.3929,17.456c-0.002,0-0.003,0-0.005,0c-0.904-0.001-1.755-0.354-2.395-0.994c-1.322-1.322-1.324-3.471-0.005-4.79
					l4.337-4.337c1.322-1.322,3.473-1.321,4.794,0.001c0.342,0.342,0.342,0.896,0,1.237c-0.342,0.342-0.896,0.342-1.237,0
					c-0.64-0.64-1.68-0.64-2.32-0.001l-4.337,4.337c-0.637,0.637-0.634,1.675,0.005,2.315c0.31,0.31,0.722,0.481,1.16,0.482
					c0.001,0,0.002,0,0.003,0c0.436,0,0.845-0.169,1.153-0.477l3.547-3.547c0.342-0.342,0.896-0.342,1.237,0
					c0.342,0.342,0.342,0.896,0,1.237l-3.547,3.547C5.1449,17.105,4.2969,17.456,3.3929,17.456z"/>
			</g>
		</g>
	</g>
</g>
</svg>
