<?xml version="1.0" encoding="utf-8"?>
<!-- Generator: Adobe Illustrator 19.0.0, SVG Export Plug-In . SVG Version: 6.00 Build 0)  -->
<svg version="1.1" id="XMLID_1_" xmlns="http://www.w3.org/2000/svg" xmlns:xlink="http://www.w3.org/1999/xlink" x="0px" y="0px"
	 viewBox="0 0 13.999 14" enable-background="new 0 0 13.999 14" xml:space="preserve">
<g id="list">
	<g>
		<path d="M6.374,1.75h6.75c0.483,0,0.875-0.392,0.875-0.875S13.607,0,13.124,0h-6.75C5.891,0,5.499,0.392,5.499,0.875
			S5.891,1.75,6.374,1.75z"/>
		<path d="M13.124,6.125h-6.75C5.891,6.125,5.499,6.517,5.499,7s0.392,0.875,0.875,0.875h6.75c0.483,0,0.875-0.392,0.875-0.875
			S13.607,6.125,13.124,6.125z"/>
		<path d="M13.124,12.25h-6.75c-0.483,0-0.875,0.392-0.875,0.875S5.891,14,6.374,14h6.75c0.483,0,0.875-0.392,0.875-0.875
			S13.607,12.25,13.124,12.25z"/>
		<path d="M2.625,0h-1.75C0.392,0,0,0.392,0,0.875S0.392,1.75,0.875,1.75h1.75C3.108,1.75,3.5,1.358,3.5,0.875
			C3.5,0.392,3.108,0,2.625,0z"/>
		<path d="M2.625,6.125h-1.75C0.392,6.125,0,6.517,0,7s0.392,0.875,0.875,0.875h1.75C3.108,7.875,3.5,7.483,3.5,7
			S3.108,6.125,2.625,6.125z"/>
		<path d="M2.625,12.25h-1.75C0.392,12.25,0,12.642,0,13.125C0,13.608,0.392,14,0.875,14h1.75C3.108,14,3.5,13.608,3.5,13.125
			C3.5,12.642,3.108,12.25,2.625,12.25z"/>
	</g>
</g>
</svg>
