<?xml version="1.0" encoding="utf-8"?>
<!-- Generator: Adobe Illustrator 19.0.0, SVG Export Plug-In . SVG Version: 6.00 Build 0)  -->
<svg version="1.1" id="XMLID_1_" xmlns="http://www.w3.org/2000/svg" xmlns:xlink="http://www.w3.org/1999/xlink" x="0px" y="0px"
	 viewBox="0 0 14 14.11" enable-background="new 0 0 14 14.11" xml:space="preserve">
<g id="list-ul">
	<g>
		<circle cx="0.875" cy="0.875" r="0.875"/>
		<circle cx="0.875" cy="7" r="0.875"/>
		<circle cx="0.875" cy="13.235" r="0.875"/>
		<path d="M4.375,1.75h8.75C13.608,1.75,14,1.359,14,0.875C14,0.392,13.608,0,13.125,0h-8.75C3.892,0,3.5,0.392,3.5,0.875
			C3.5,1.359,3.892,1.75,4.375,1.75z"/>
		<path d="M13.125,6.125h-8.75C3.892,6.125,3.5,6.517,3.5,7s0.392,0.875,0.875,0.875h8.75C13.608,7.875,14,7.483,14,7
			S13.608,6.125,13.125,6.125z"/>
		<path d="M13.125,12.25h-8.75c-0.483,0-0.875,0.392-0.875,0.875S3.892,14,4.375,14h8.75C13.608,14,14,13.608,14,13.125
			S13.608,12.25,13.125,12.25z"/>
	</g>
</g>
</svg>
