<?xml version="1.0" encoding="iso-8859-1"?>
<!-- Generator: Adobe Illustrator 18.0.0, SVG Export Plug-In . SVG Version: 6.00 Build 0)  -->
<!DOCTYPE svg PUBLIC "-//W3C//DTD SVG 1.1//EN" "http://www.w3.org/Graphics/SVG/1.1/DTD/svg11.dtd">
<svg version="1.1" xmlns="http://www.w3.org/2000/svg" xmlns:xlink="http://www.w3.org/1999/xlink" x="0px" y="0px"
	 viewBox="0 0 28 28" style="enable-background:new 0 0 28 28;" xml:space="preserve">
<g id="list-ul">
	<g>
		<circle cx="7.875" cy="7.82" r="0.875"/>
		<circle cx="7.875" cy="13.945" r="0.875"/>
		<circle cx="7.875" cy="20.18" r="0.875"/>
		<path d="M11.375,8.695h8.75C20.608,8.695,21,8.304,21,7.82c0-0.483-0.392-0.875-0.875-0.875h-8.75
			c-0.483,0-0.875,0.392-0.875,0.875C10.5,8.304,10.892,8.695,11.375,8.695z"/>
		<path d="M20.125,13.07h-8.75c-0.483,0-0.875,0.392-0.875,0.875c0,0.483,0.392,0.875,0.875,0.875h8.75
			c0.483,0,0.875-0.392,0.875-0.875C21,13.462,20.608,13.07,20.125,13.07z"/>
		<path d="M20.125,19.195h-8.75c-0.483,0-0.875,0.392-0.875,0.875c0,0.483,0.392,0.875,0.875,0.875h8.75
			c0.483,0,0.875-0.392,0.875-0.875C21,19.587,20.608,19.195,20.125,19.195z"/>
	</g>
</g>
<g id="Layer_1">
</g>
</svg>
