<?xml version="1.0" encoding="iso-8859-1"?>
<!-- Generator: Adobe Illustrator 18.0.0, SVG Export Plug-In . SVG Version: 6.00 Build 0)  -->
<!DOCTYPE svg PUBLIC "-//W3C//DTD SVG 1.1//EN" "http://www.w3.org/Graphics/SVG/1.1/DTD/svg11.dtd">
<svg version="1.1" xmlns="http://www.w3.org/2000/svg" xmlns:xlink="http://www.w3.org/1999/xlink" x="0px" y="0px"
	 viewBox="0 0 28 28" style="enable-background:new 0 0 28 28;" xml:space="preserve">
<g id="list">
	<g>
		<path d="M13.375,8.75h6.75C20.608,8.75,21,8.358,21,7.875C21,7.392,20.608,7,20.125,7h-6.75C12.892,7,12.5,7.392,12.5,7.875
			C12.5,8.358,12.892,8.75,13.375,8.75z"/>
		<path d="M20.125,13.125h-6.75c-0.483,0-0.875,0.392-0.875,0.875c0,0.483,0.392,0.875,0.875,0.875h6.75
			C20.608,14.875,21,14.483,21,14C21,13.517,20.608,13.125,20.125,13.125z"/>
		<path d="M20.125,19.25h-6.75c-0.483,0-0.875,0.392-0.875,0.875c0,0.483,0.392,0.875,0.875,0.875h6.75
			C20.608,21,21,20.608,21,20.125C21,19.642,20.608,19.25,20.125,19.25z"/>
		<path d="M9.626,7h-1.75C7.393,7,7.001,7.392,7.001,7.875c0,0.483,0.392,0.875,0.875,0.875h1.75c0.483,0,0.875-0.392,0.875-0.875
			C10.501,7.392,10.109,7,9.626,7z"/>
		<path d="M9.626,13.125h-1.75c-0.483,0-0.875,0.392-0.875,0.875c0,0.483,0.392,0.875,0.875,0.875h1.75
			c0.483,0,0.875-0.392,0.875-0.875C10.501,13.517,10.109,13.125,9.626,13.125z"/>
		<path d="M9.626,19.25h-1.75c-0.483,0-0.875,0.392-0.875,0.875C7.001,20.608,7.393,21,7.876,21h1.75
			c0.483,0,0.875-0.392,0.875-0.875C10.501,19.642,10.109,19.25,9.626,19.25z"/>
	</g>
</g>
<g id="Layer_1">
</g>
</svg>
