<?xml version="1.0" encoding="iso-8859-1"?>
<!-- Generator: Adobe Illustrator 18.0.0, SVG Export Plug-In . SVG Version: 6.00 Build 0)  -->
<!DOCTYPE svg PUBLIC "-//W3C//DTD SVG 1.1//EN" "http://www.w3.org/Graphics/SVG/1.1/DTD/svg11.dtd">
<svg version="1.1" xmlns="http://www.w3.org/2000/svg" xmlns:xlink="http://www.w3.org/1999/xlink" x="0px" y="0px"
	 viewBox="0 0 28 28" style="enable-background:new 0 0 28 28;" xml:space="preserve">
<g id="list-ol">
	<g>
		<path d="M11.375,8.75h8.75C20.608,8.75,21,8.358,21,7.875C21,7.392,20.608,7,20.125,7h-8.75C10.892,7,10.5,7.392,10.5,7.875
			C10.5,8.358,10.892,8.75,11.375,8.75z"/>
		<path d="M20.125,13.125h-8.75c-0.483,0-0.875,0.392-0.875,0.875c0,0.483,0.392,0.875,0.875,0.875h8.75
			C20.608,14.875,21,14.483,21,14C21,13.517,20.608,13.125,20.125,13.125z"/>
		<path d="M20.125,19.25h-8.75c-0.483,0-0.875,0.392-0.875,0.875c0,0.483,0.392,0.875,0.875,0.875h8.75
			C20.608,21,21,20.608,21,20.125C21,19.642,20.608,19.25,20.125,19.25z"/>
		<path d="M8.487,8.756H8.151V6.757c0-0.07-0.012-0.12-0.035-0.15S8.053,6.562,7.997,6.562c-0.018,0-0.041,0.003-0.068,0.008
			C7.901,6.576,7.866,6.584,7.823,6.595L7.309,6.733C7.237,6.75,7.184,6.775,7.149,6.808S7.097,6.88,7.097,6.927
			c0,0.065,0.016,0.115,0.047,0.15S7.219,7.13,7.276,7.13c0.011,0,0.028-0.002,0.052-0.006c0.023-0.004,0.053-0.01,0.089-0.018
			l0.232-0.059v1.709H7.263c-0.094,0-0.161,0.017-0.202,0.051S7,8.896,7,8.973c0,0.076,0.02,0.13,0.06,0.164
			s0.108,0.051,0.203,0.051h1.223c0.095,0,0.163-0.017,0.203-0.051s0.06-0.088,0.06-0.164c0-0.077-0.021-0.132-0.062-0.166
			C8.646,8.773,8.579,8.756,8.487,8.756z"/>
		<path d="M8.573,14.586c-0.069,0-0.122,0.016-0.157,0.046c-0.035,0.031-0.053,0.078-0.053,0.141v0.011H7.687l0.585-0.487
			c0.156-0.13,0.27-0.261,0.344-0.391s0.111-0.267,0.111-0.41c0-0.213-0.071-0.383-0.213-0.51c-0.142-0.126-0.335-0.19-0.578-0.19
			c-0.13,0-0.251,0.016-0.362,0.046c-0.111,0.031-0.217,0.079-0.317,0.143c-0.062,0.041-0.103,0.082-0.123,0.123
			s-0.031,0.103-0.031,0.186c0,0.081,0.016,0.141,0.049,0.182c0.033,0.041,0.081,0.061,0.146,0.061c0.075,0,0.143-0.048,0.205-0.145
			c0.022-0.036,0.041-0.063,0.056-0.08c0.028-0.035,0.068-0.062,0.121-0.081c0.052-0.019,0.112-0.029,0.178-0.029
			c0.114,0,0.2,0.027,0.256,0.082c0.056,0.055,0.084,0.138,0.084,0.249c0,0.079-0.021,0.159-0.063,0.238s-0.105,0.159-0.19,0.238
			l-0.785,0.731c-0.055,0.051-0.096,0.099-0.121,0.144C7.013,14.931,7,14.977,7,15.025c0,0.057,0.02,0.101,0.061,0.132
			s0.098,0.047,0.173,0.047h1.387c0.041,0,0.07-0.007,0.086-0.022c0.016-0.015,0.025-0.051,0.028-0.108l0.015-0.288v-0.024
			c0-0.056-0.015-0.099-0.046-0.129C8.673,14.601,8.629,14.586,8.573,14.586z"/>
		<path d="M8.297,20.013c0.134-0.061,0.233-0.135,0.296-0.224c0.063-0.089,0.095-0.198,0.095-0.327c0-0.196-0.069-0.354-0.207-0.472
			c-0.138-0.118-0.322-0.178-0.554-0.178c-0.23,0-0.424,0.04-0.581,0.12s-0.235,0.176-0.235,0.288c0,0.051,0.016,0.094,0.047,0.127
			s0.073,0.05,0.125,0.05c0.047,0,0.131-0.031,0.253-0.092c0.122-0.061,0.233-0.092,0.331-0.092c0.093,0,0.165,0.026,0.216,0.078
			s0.077,0.125,0.077,0.218c0,0.108-0.021,0.186-0.064,0.234c-0.043,0.048-0.136,0.082-0.279,0.102
			c-0.008,0.001-0.02,0.003-0.036,0.004c-0.114,0.016-0.172,0.076-0.172,0.182c0,0.076,0.014,0.129,0.043,0.159
			s0.085,0.046,0.169,0.048c0.16,0.007,0.268,0.038,0.324,0.095c0.057,0.057,0.085,0.151,0.085,0.284
			c0,0.124-0.034,0.219-0.101,0.285c-0.067,0.067-0.163,0.1-0.288,0.1c-0.104,0-0.224-0.03-0.359-0.089
			c-0.136-0.059-0.22-0.089-0.253-0.089c-0.069,0-0.125,0.02-0.167,0.06C7.021,20.928,7,20.98,7,21.044
			c0,0.109,0.076,0.202,0.229,0.279c0.153,0.076,0.346,0.115,0.581,0.115c0.29,0,0.519-0.072,0.687-0.216
			c0.168-0.144,0.252-0.339,0.252-0.586c0-0.163-0.037-0.296-0.112-0.398C8.564,20.135,8.45,20.061,8.297,20.013z"/>
	</g>
</g>
<g id="Layer_1">
</g>
</svg>
