<?xml version="1.0" encoding="utf-8"?>
<!-- Generator: Adobe Illustrator 19.0.0, SVG Export Plug-In . SVG Version: 6.00 Build 0)  -->
<svg version="1.1" id="XMLID_1_" xmlns="http://www.w3.org/2000/svg" xmlns:xlink="http://www.w3.org/1999/xlink" x="0px" y="0px"
	 viewBox="0 0 14 14.876" enable-background="new 0 0 14 14.876" xml:space="preserve">
<g id="list-ol">
	<g>
		<path d="M4.375,2.188h8.75C13.608,2.188,14,1.796,14,1.313s-0.392-0.875-0.875-0.875h-8.75C3.892,0.438,3.5,0.83,3.5,1.313
			S3.892,2.188,4.375,2.188z"/>
		<path d="M13.125,6.563h-8.75C3.892,6.563,3.5,6.955,3.5,7.438s0.392,0.875,0.875,0.875h8.75C13.608,8.313,14,7.921,14,7.438
			S13.608,6.563,13.125,6.563z"/>
		<path d="M13.125,12.688h-8.75c-0.483,0-0.875,0.392-0.875,0.875s0.392,0.875,0.875,0.875h8.75c0.483,0,0.875-0.392,0.875-0.875
			S13.608,12.688,13.125,12.688z"/>
		<path d="M1.487,2.194H1.151V0.195c0-0.07-0.012-0.12-0.035-0.15S1.053,0,0.997,0C0.979,0,0.956,0.003,0.929,0.008
			C0.901,0.014,0.866,0.022,0.823,0.033L0.309,0.171c-0.072,0.017-0.125,0.042-0.16,0.075S0.097,0.318,0.097,0.365
			c0,0.065,0.016,0.115,0.047,0.15s0.075,0.053,0.132,0.053c0.011,0,0.028-0.002,0.052-0.006c0.023-0.004,0.053-0.01,0.089-0.018
			l0.232-0.059v1.709H0.263c-0.094,0-0.161,0.017-0.202,0.051S0,2.334,0,2.411c0,0.076,0.02,0.13,0.06,0.164
			s0.108,0.051,0.203,0.051h1.223c0.095,0,0.163-0.017,0.203-0.051s0.06-0.088,0.06-0.164c0-0.077-0.021-0.132-0.062-0.166
			C1.646,2.211,1.579,2.194,1.487,2.194z"/>
		<path d="M1.573,8.024c-0.069,0-0.122,0.016-0.157,0.046C1.381,8.101,1.363,8.148,1.363,8.211v0.011H0.687l0.585-0.487
			c0.156-0.13,0.27-0.261,0.344-0.391s0.111-0.267,0.111-0.41c0-0.213-0.071-0.383-0.213-0.51c-0.142-0.126-0.335-0.19-0.578-0.19
			c-0.13,0-0.251,0.016-0.362,0.046C0.463,6.311,0.357,6.359,0.257,6.423C0.195,6.464,0.154,6.505,0.134,6.546
			S0.103,6.649,0.103,6.732c0,0.081,0.016,0.141,0.049,0.182s0.081,0.061,0.146,0.061c0.075,0,0.143-0.048,0.205-0.145
			c0.022-0.036,0.041-0.063,0.056-0.08C0.587,6.715,0.627,6.688,0.68,6.669C0.732,6.65,0.792,6.64,0.858,6.64
			c0.114,0,0.2,0.027,0.256,0.082C1.17,6.777,1.198,6.86,1.198,6.971c0,0.079-0.021,0.159-0.063,0.238S1.03,7.368,0.945,7.447
			L0.16,8.178C0.105,8.229,0.064,8.277,0.039,8.322C0.013,8.369,0,8.415,0,8.463C0,8.52,0.02,8.564,0.061,8.595
			s0.098,0.047,0.173,0.047h1.387c0.041,0,0.07-0.007,0.086-0.022c0.016-0.015,0.025-0.051,0.028-0.108L1.75,8.224V8.2
			c0-0.056-0.015-0.099-0.046-0.129C1.673,8.039,1.629,8.024,1.573,8.024z"/>
		<path d="M1.297,13.451c0.134-0.061,0.233-0.135,0.296-0.224c0.063-0.089,0.095-0.198,0.095-0.327c0-0.196-0.069-0.354-0.207-0.472
			S1.159,12.25,0.927,12.25c-0.23,0-0.424,0.04-0.581,0.12s-0.235,0.176-0.235,0.288c0,0.051,0.016,0.094,0.047,0.127
			s0.073,0.05,0.125,0.05c0.047,0,0.131-0.031,0.253-0.092c0.122-0.061,0.233-0.092,0.331-0.092c0.093,0,0.165,0.026,0.216,0.078
			s0.077,0.125,0.077,0.218c0,0.108-0.021,0.186-0.064,0.234c-0.043,0.048-0.136,0.082-0.279,0.102
			c-0.008,0.001-0.02,0.003-0.036,0.004c-0.114,0.016-0.172,0.076-0.172,0.182c0,0.076,0.014,0.129,0.043,0.159
			s0.085,0.046,0.169,0.048c0.16,0.007,0.268,0.038,0.324,0.095c0.057,0.057,0.085,0.151,0.085,0.284
			c0,0.124-0.034,0.219-0.101,0.285c-0.067,0.067-0.163,0.1-0.288,0.1c-0.104,0-0.224-0.03-0.359-0.089
			c-0.136-0.059-0.22-0.089-0.253-0.089c-0.069,0-0.125,0.02-0.167,0.06C0.021,14.366,0,14.418,0,14.482
			c0,0.109,0.076,0.202,0.229,0.279c0.153,0.076,0.346,0.115,0.581,0.115c0.29,0,0.519-0.072,0.687-0.216s0.252-0.339,0.252-0.586
			c0-0.163-0.037-0.296-0.112-0.398C1.564,13.573,1.45,13.499,1.297,13.451z"/>
	</g>
</g>
</svg>
