<?xml version="1.0" encoding="utf-8"?>
<!-- Generator: Adobe Illustrator 19.0.0, SVG Export Plug-In . SVG Version: 6.00 Build 0)  -->
<svg version="1.1" id="XMLID_1_" xmlns="http://www.w3.org/2000/svg" xmlns:xlink="http://www.w3.org/1999/xlink" x="0px" y="0px"
	 viewBox="0 0 12.25 17.5" enable-background="new 0 0 12.25 17.5" xml:space="preserve">
<g id="lock">
	<g>
		<path d="M10.5,8.75V4.375C10.5,1.963,8.537,0,6.125,0S1.75,1.963,1.75,4.375V8.75C0.785,8.75,0,9.535,0,10.5v5.25
			c0,0.965,0.785,1.75,1.75,1.75h8.75c0.965,0,1.75-0.785,1.75-1.75V10.5C12.25,9.535,11.465,8.75,10.5,8.75z M3.5,4.375
			c0-1.448,1.177-2.625,2.625-2.625S8.75,2.927,8.75,4.375V8.75H3.5V4.375z M1.75,15.75V10.5h8.75l0.001,5.25H1.75z"/>
		<rect x="5.25" y="12.25" width="1.75" height="1.75"/>
	</g>
</g>
</svg>
