<?xml version="1.0" encoding="iso-8859-1"?>
<!-- Generator: Adobe Illustrator 18.0.0, SVG Export Plug-In . SVG Version: 6.00 Build 0)  -->
<!DOCTYPE svg PUBLIC "-//W3C//DTD SVG 1.1//EN" "http://www.w3.org/Graphics/SVG/1.1/DTD/svg11.dtd">
<svg version="1.1" xmlns="http://www.w3.org/2000/svg" xmlns:xlink="http://www.w3.org/1999/xlink" x="0px" y="0px"
	 viewBox="0 0 28 28" style="enable-background:new 0 0 28 28;" xml:space="preserve">
<g id="Log_out">
	<g>
		<path d="M18.051,6.421c-0.404-0.203-0.896-0.041-1.099,0.362c-0.204,0.404-0.042,0.896,0.362,1.099
			c2.499,1.261,4.051,3.782,4.051,6.578c0,4.06-3.304,7.364-7.364,7.364c-4.06,0-7.364-3.303-7.364-7.364
			c0-2.797,1.552-5.317,4.051-6.578c0.403-0.204,0.565-0.696,0.362-1.099c-0.204-0.403-0.696-0.565-1.099-0.362
			C6.897,7.962,5,11.043,5,14.46c0,4.963,4.037,9,9,9s9-4.037,9-9C23,11.043,21.104,7.963,18.051,6.421z"/>
		<path d="M14,13.847c0.452,0,0.818-0.366,0.818-0.818v-7.67c0-0.452-0.366-0.818-0.818-0.818s-0.818,0.366-0.818,0.818v7.67
			C13.182,13.48,13.548,13.847,14,13.847z"/>
	</g>
</g>
<g id="Layer_1">
</g>
</svg>
