<?xml version="1.0" encoding="utf-8"?>
<!-- Generator: Adobe Illustrator 19.0.0, SVG Export Plug-In . SVG Version: 6.00 Build 0)  -->
<svg version="1.1" id="XMLID_1_" xmlns="http://www.w3.org/2000/svg" xmlns:xlink="http://www.w3.org/1999/xlink" x="0px" y="0px"
	 viewBox="0 0 18 18.919" enable-background="new 0 0 18 18.919" xml:space="preserve">
<g id="log-out">
	<g>
		<path d="M13.051,1.88c-0.404-0.203-0.896-0.041-1.099,0.362c-0.204,0.404-0.042,0.896,0.362,1.099
			c2.499,1.261,4.051,3.782,4.051,6.578c0,4.06-3.304,7.364-7.364,7.364S1.637,13.98,1.637,9.919c0-2.797,1.552-5.317,4.051-6.578
			C6.091,3.137,6.253,2.645,6.05,2.242C5.846,1.839,5.354,1.677,4.951,1.88C1.897,3.421,0,6.502,0,9.919c0,4.963,4.037,9,9,9
			s9-4.037,9-9C18,6.502,16.104,3.422,13.051,1.88z"/>
		<path d="M9,9.306c0.452,0,0.818-0.366,0.818-0.818v-7.67C9.818,0.366,9.452,0,9,0S8.182,0.366,8.182,0.818v7.67
			C8.182,8.939,8.548,9.306,9,9.306z"/>
	</g>
</g>
</svg>
