<?xml version="1.0" encoding="utf-8"?>
<!-- Generator: Adobe Illustrator 19.0.0, SVG Export Plug-In . SVG Version: 6.00 Build 0)  -->
<svg version="1.1" id="XMLID_1_" xmlns="http://www.w3.org/2000/svg" xmlns:xlink="http://www.w3.org/1999/xlink" x="0px" y="0px"
	 viewBox="0 0 21.4376 21.438" enable-background="new 0 0 21.4376 21.438" xml:space="preserve">
<g id="magic">
	<g>
		<path d="M14.0346,4.779c-0.701,0-1.36,0.273-1.856,0.769L0.7696,16.956c-0.512,0.511-0.784,1.191-0.769,1.914
			c0.016,0.723,0.318,1.39,0.852,1.879c0.485,0.444,1.115,0.689,1.772,0.689c0.701,0,1.36-0.273,1.856-0.769L15.8896,9.26
			c1.023-1.023,1.023-2.689,0-3.712C15.3946,5.052,14.7356,4.779,14.0346,4.779z M11.6686,8.531l1.237,1.237l-8.06,8.06
			l-1.237-1.237L11.6686,8.531z M2.0336,19.458c-0.178-0.163-0.279-0.385-0.284-0.626s0.086-0.467,0.256-0.638l0.366-0.366
			l1.237,1.237l-0.366,0.366C2.9236,19.752,2.3686,19.765,2.0336,19.458z M14.6526,8.022l-0.51,0.509l-1.237-1.237l0.509-0.509
			c0.165-0.165,0.385-0.256,0.619-0.256s0.453,0.091,0.619,0.256C14.9936,7.126,14.9936,7.681,14.6526,8.022z"/>
		<path d="M18.7026,3.972l0.256,0.256c0.171,0.171,0.395,0.256,0.619,0.256s0.448-0.085,0.619-0.256
			c0.342-0.342,0.342-0.896,0-1.237l-0.256-0.256l0.256-0.256c0.342-0.342,0.342-0.896,0-1.237c-0.342-0.342-0.896-0.342-1.237,0
			l-0.256,0.256l-0.256-0.256c-0.342-0.342-0.896-0.342-1.237,0c-0.342,0.342-0.342,0.896,0,1.237l0.256,0.256l-0.256,0.256
			c-0.342,0.342-0.342,0.896,0,1.237c0.171,0.171,0.395,0.256,0.619,0.256s0.448-0.085,0.619-0.256L18.7026,3.972z"/>
		<path d="M12.6876,2.625c0,0.483,0.392,0.875,0.875,0.875s0.875-0.392,0.875-0.875c0.483,0,0.875-0.392,0.875-0.875
			s-0.392-0.875-0.875-0.875c0-0.483-0.392-0.875-0.875-0.875s-0.875,0.392-0.875,0.875c-0.483,0-0.875,0.392-0.875,0.875
			S12.2046,2.625,12.6876,2.625z"/>
		<path d="M20.5626,7.875c0-0.483-0.392-0.875-0.875-0.875s-0.875,0.392-0.875,0.875c-0.483,0-0.875,0.392-0.875,0.875
			s0.392,0.875,0.875,0.875c0,0.483,0.392,0.875,0.875,0.875s0.875-0.392,0.875-0.875c0.483,0,0.875-0.392,0.875-0.875
			S21.0456,7.875,20.5626,7.875z"/>
	</g>
</g>
</svg>
