<?xml version="1.0" encoding="iso-8859-1"?>
<!-- Generator: Adobe Illustrator 18.0.0, SVG Export Plug-In . SVG Version: 6.00 Build 0)  -->
<!DOCTYPE svg PUBLIC "-//W3C//DTD SVG 1.1//EN" "http://www.w3.org/Graphics/SVG/1.1/DTD/svg11.dtd">
<svg version="1.1" xmlns="http://www.w3.org/2000/svg" xmlns:xlink="http://www.w3.org/1999/xlink" x="0px" y="0px"
	 viewBox="0 0 28 28" style="enable-background:new 0 0 28 28;" xml:space="preserve">
<g id="magic">
	<g>
		<path d="M17.316,8.06c-0.701,0-1.36,0.273-1.856,0.769L4.051,20.237c-0.512,0.511-0.784,1.191-0.769,1.914
			c0.016,0.723,0.318,1.39,0.852,1.879c0.485,0.444,1.115,0.689,1.772,0.689c0.701,0,1.36-0.273,1.856-0.769l11.409-11.409
			c1.023-1.023,1.023-2.689,0-3.712C18.676,8.333,18.017,8.06,17.316,8.06z M14.95,11.812l1.237,1.237l-8.06,8.06l-1.237-1.237
			L14.95,11.812z M5.315,22.739c-0.178-0.163-0.279-0.385-0.284-0.626c-0.005-0.241,0.086-0.467,0.256-0.638l0.366-0.366
			l1.237,1.237l-0.366,0.366C6.205,23.033,5.65,23.046,5.315,22.739z M17.934,11.303l-0.51,0.509l-1.237-1.237l0.509-0.509
			c0.165-0.165,0.385-0.256,0.619-0.256c0.234,0,0.453,0.091,0.619,0.256C18.275,10.407,18.275,10.962,17.934,11.303z"/>
		<path d="M21.984,7.253l0.256,0.256c0.171,0.171,0.395,0.256,0.619,0.256s0.448-0.085,0.619-0.256c0.342-0.342,0.342-0.896,0-1.237
			l-0.256-0.256l0.256-0.256c0.342-0.342,0.342-0.896,0-1.237c-0.342-0.342-0.896-0.342-1.237,0l-0.256,0.256l-0.256-0.256
			c-0.342-0.342-0.896-0.342-1.237,0c-0.342,0.342-0.342,0.896,0,1.237l0.256,0.256l-0.256,0.256c-0.342,0.342-0.342,0.896,0,1.237
			c0.171,0.171,0.395,0.256,0.619,0.256s0.448-0.085,0.619-0.256L21.984,7.253z"/>
		<path d="M15.969,5.906c0,0.483,0.392,0.875,0.875,0.875s0.875-0.392,0.875-0.875c0.483,0,0.875-0.392,0.875-0.875
			s-0.392-0.875-0.875-0.875c0-0.483-0.392-0.875-0.875-0.875s-0.875,0.392-0.875,0.875c-0.483,0-0.875,0.392-0.875,0.875
			S15.486,5.906,15.969,5.906z"/>
		<path d="M23.844,11.156c0-0.483-0.392-0.875-0.875-0.875s-0.875,0.392-0.875,0.875c-0.483,0-0.875,0.392-0.875,0.875
			s0.392,0.875,0.875,0.875c0,0.483,0.392,0.875,0.875,0.875s0.875-0.392,0.875-0.875c0.483,0,0.875-0.392,0.875-0.875
			S24.327,11.156,23.844,11.156z"/>
	</g>
</g>
<g id="Layer_1">
</g>
</svg>
