<?xml version="1.0" encoding="utf-8"?>
<!-- Generator: Adobe Illustrator 19.0.0, SVG Export Plug-In . SVG Version: 6.00 Build 0)  -->
<svg version="1.1" id="XMLID_1_" xmlns="http://www.w3.org/2000/svg" xmlns:xlink="http://www.w3.org/1999/xlink" x="0px" y="0px"
	 viewBox="0 0 14.11 14" enable-background="new 0 0 14.11 14" xml:space="preserve">
<g id="moon">
	<g>
		<path d="M5.141,2.188c0-0.699,0.104-1.373,0.294-2.01C2.323,0.889,0,3.672,0,7c0,3.866,3.134,7,7,7
			c3.167,0,5.842-2.104,6.706-4.99c-0.503,0.115-1.027,0.178-1.565,0.178C8.275,9.188,5.141,6.053,5.141,2.188z"/>
		<path d="M13.235,1.75H12.36V0.875C12.36,0.392,11.968,0,11.485,0S10.61,0.392,10.61,0.875V1.75H9.735
			c-0.483,0-0.875,0.392-0.875,0.875S9.251,3.5,9.735,3.5h0.875v0.875c0,0.483,0.392,0.875,0.875,0.875s0.875-0.392,0.875-0.875V3.5
			h0.875c0.483,0,0.875-0.392,0.875-0.875S13.718,1.75,13.235,1.75z"/>
	</g>
</g>
</svg>
