<?xml version="1.0" encoding="utf-8"?>
<!-- Generated by IcoMoon.io -->
<!DOCTYPE svg PUBLIC "-//W3C//DTD SVG 1.1//EN" "http://www.w3.org/Graphics/SVG/1.1/DTD/svg11.dtd">
<svg version="1.1" xmlns="http://www.w3.org/2000/svg" xmlns:xlink="http://www.w3.org/1999/xlink" width="512" height="512" viewBox="0 0 512 512"><g id="icomoon-ignore">
</g>
<path d="M186.548 81.39c0-25.364 3.774-49.822 10.668-72.936-112.922 25.799-197.216 126.785-197.216 247.545 0 140.282 113.722 254.004 254.004 254.004 114.919 0 211.984-76.346 243.336-181.068-18.252 4.173-37.266 6.459-56.788 6.459-140.283 0-254.004-113.757-254.004-254.004z"></path>
<path d="M480.249 65.497h-31.75v-31.751c0-17.526-14.224-31.75-31.75-31.75s-31.75 14.224-31.75 31.75v31.751h-31.75c-17.526 0-31.75 14.224-31.75 31.751s14.188 31.75 31.75 31.75h31.75v31.75c0 17.526 14.224 31.75 31.75 31.75s31.75-14.224 31.75-31.75v-31.75h31.75c17.526 0 31.75-14.224 31.75-31.751s-14.224-31.751-31.75-31.751z"></path>
</svg>
