<?xml version="1.0" encoding="utf-8"?>
<!-- Generator: Adobe Illustrator 19.0.0, SVG Export Plug-In . SVG Version: 6.00 Build 0)  -->
<svg version="1.1" id="XMLID_1_" xmlns="http://www.w3.org/2000/svg" xmlns:xlink="http://www.w3.org/1999/xlink" x="0px" y="0px"
	 viewBox="0 0 19.25 19.142" enable-background="new 0 0 19.25 19.142" xml:space="preserve">
<g id="myspace">
	<g>
		<path d="M18.375,8.642c-0.483,0-0.875,0.392-0.875,0.875c0,4.342-3.533,7.875-7.875,7.875S1.75,13.859,1.75,9.517
			c0-0.483-0.392-0.875-0.875-0.875S0,9.034,0,9.517c0,5.307,4.318,9.625,9.625,9.625s9.625-4.318,9.625-9.625
			C19.25,9.034,18.858,8.642,18.375,8.642z"/>
		<path d="M4.343,11.158c0.244,0,0.487-0.102,0.661-0.301c1.165-1.338,2.849-2.106,4.622-2.106s3.457,0.768,4.622,2.106
			c0.317,0.364,0.87,0.403,1.235,0.085c0.364-0.317,0.402-0.87,0.085-1.235c-0.824-0.947-1.855-1.662-2.992-2.122
			c0.87-0.8,1.425-1.937,1.425-3.21C14.001,1.963,12.038,0,9.626,0S5.251,1.963,5.251,4.375c0,1.273,0.555,2.41,1.425,3.21
			C5.539,8.045,4.508,8.76,3.684,9.707c-0.317,0.364-0.279,0.917,0.086,1.235C3.935,11.087,4.139,11.158,4.343,11.158z M7,4.377
			c0-1.448,1.177-2.625,2.625-2.625s2.625,1.177,2.625,2.625s-1.177,2.625-2.625,2.625S7,5.824,7,4.377z"/>
	</g>
</g>
</svg>
