<?xml version="1.0" encoding="iso-8859-1"?>
<!-- Generator: Adobe Illustrator 18.0.0, SVG Export Plug-In . SVG Version: 6.00 Build 0)  -->
<!DOCTYPE svg PUBLIC "-//W3C//DTD SVG 1.1//EN" "http://www.w3.org/Graphics/SVG/1.1/DTD/svg11.dtd">
<svg version="1.1" xmlns="http://www.w3.org/2000/svg" xmlns:xlink="http://www.w3.org/1999/xlink" x="0px" y="0px"
	 viewBox="0 0 28 28" style="enable-background:new 0 0 28 28;" xml:space="preserve">
<g id="myspace">
	<g>
		<path d="M22.75,13.07c-0.483,0-0.875,0.392-0.875,0.875c0,4.342-3.533,7.875-7.875,7.875c-4.342,0-7.875-3.533-7.875-7.875
			c0-0.483-0.392-0.875-0.875-0.875s-0.875,0.392-0.875,0.875c0,5.307,4.318,9.625,9.625,9.625s9.625-4.318,9.625-9.625
			C23.625,13.462,23.233,13.07,22.75,13.07z"/>
		<path d="M8.718,15.586c0.244,0,0.487-0.102,0.661-0.301c1.165-1.338,2.849-2.106,4.622-2.106s3.457,0.768,4.622,2.106
			c0.317,0.364,0.87,0.403,1.235,0.085c0.364-0.317,0.402-0.87,0.085-1.235c-0.824-0.947-1.855-1.662-2.992-2.122
			c0.87-0.8,1.425-1.937,1.425-3.21c0-2.412-1.963-4.375-4.375-4.375c-2.412,0-4.375,1.963-4.375,4.375
			c0,1.273,0.555,2.41,1.425,3.21c-1.137,0.46-2.168,1.175-2.992,2.122c-0.317,0.364-0.279,0.917,0.086,1.235
			C8.31,15.515,8.514,15.586,8.718,15.586z M11.375,8.805c0-1.448,1.177-2.625,2.625-2.625s2.625,1.177,2.625,2.625
			S15.448,11.43,14,11.43S11.375,10.252,11.375,8.805z"/>
	</g>
</g>
<g id="Layer_1">
</g>
</svg>
