<?xml version="1.0" encoding="utf-8"?>
<!-- Generator: Adobe Illustrator 19.0.0, SVG Export Plug-In . SVG Version: 6.00 Build 0)  -->
<svg version="1.1" id="XMLID_1_" xmlns="http://www.w3.org/2000/svg" xmlns:xlink="http://www.w3.org/1999/xlink" x="0px" y="0px"
	 viewBox="0 0 17.9211 15.991" enable-background="new 0 0 17.9211 15.991" xml:space="preserve">
<g id="paperclip">
	<g>
		<g>
			<path d="M16.913,1.009C16.262,0.358,15.397,0,14.477,0s-1.785,0.358-2.436,1.009L4.616,8.433
				c-0.461,0.461-0.704,1.043-0.687,1.641c0.017,0.561,0.261,1.104,0.686,1.53c0.423,0.423,0.987,0.657,1.586,0.657
				c0.599,0,1.163-0.234,1.586-0.657l3.983-3.983c0.342-0.342,0.342-0.896,0-1.237s-0.896-0.342-1.237,0l-3.984,3.983
				c-0.185,0.186-0.509,0.187-0.696,0c-0.109-0.109-0.171-0.231-0.175-0.343C5.675,9.909,5.734,9.791,5.853,9.672l7.425-7.425
				c0.641-0.64,1.757-0.64,2.398,0c0.661,0.661,0.661,1.737,0,2.398l-8.701,8.701c-1.194,1.193-3.137,1.194-4.331,0
				s-1.194-3.137,0-4.331l6.187-6.187c0.342-0.342,0.342-0.896,0-1.237c-0.342-0.342-0.896-0.342-1.237,0L1.407,7.778
				c-1.876,1.876-1.876,4.93,0,6.806c0.938,0.938,2.171,1.407,3.403,1.407c1.233,0,2.465-0.469,3.403-1.407l8.701-8.701
				C18.257,4.538,18.257,2.353,16.913,1.009z"/>
		</g>
	</g>
</g>
</svg>
