<?xml version="1.0" encoding="utf-8"?>
<!-- Generator: Adobe Illustrator 19.0.0, SVG Export Plug-In . SVG Version: 6.00 Build 0)  -->
<svg version="1.1" id="XMLID_1_" xmlns="http://www.w3.org/2000/svg" xmlns:xlink="http://www.w3.org/1999/xlink" x="0px" y="0px"
	 viewBox="0 0 15.5343 15.417" enable-background="new 0 0 15.5343 15.417" xml:space="preserve">
<g id="pencil">
	<path d="M14.767,0.769C14.271,0.273,13.612,0,12.911,0c-0.701,0-1.36,0.273-1.856,0.769L0,11.824l0.135,3.555l3.697,0.038
		L14.767,4.482C15.79,3.458,15.79,1.793,14.767,0.769z M3.114,13.66L1.82,13.647l-0.043-1.125l8.463-8.463l1.237,1.237L3.114,13.66z
		 M13.53,3.244l-0.815,0.815l-1.238-1.237l0.814-0.814c0.33-0.33,0.906-0.331,1.238,0C13.871,2.348,13.871,2.903,13.53,3.244z"/>
</g>
</svg>
