<?xml version="1.0" encoding="utf-8"?>
<!-- Generated by IcoMoon.io -->
<!DOCTYPE svg PUBLIC "-//W3C//DTD SVG 1.1//EN" "http://www.w3.org/Graphics/SVG/1.1/DTD/svg11.dtd">
<svg version="1.1" xmlns="http://www.w3.org/2000/svg" xmlns:xlink="http://www.w3.org/1999/xlink" width="512" height="512" viewBox="0 0 512 512"><g id="icomoon-ignore">
</g>
<path d="M482.978 30.966c-16.082-16.082-37.452-24.935-60.182-24.935s-44.099 8.852-60.182 24.935l-358.464 358.464 4.378 115.272 119.877 1.233 354.574-354.574c33.171-33.203 33.171-87.192 0-120.396zM105.124 448.964l-41.958-0.421-1.395-36.479 274.417-274.417 40.111 40.111-271.175 271.207zM442.868 111.221l-26.427 26.427-40.142-40.111 26.394-26.394c10.701-10.701 29.378-10.733 40.142 0 11.089 11.025 11.089 29.020 0.033 40.078z"></path>
</svg>
