<?xml version="1.0" encoding="iso-8859-1"?>
<!-- Generator: Adobe Illustrator 18.0.0, SVG Export Plug-In . SVG Version: 6.00 Build 0)  -->
<!DOCTYPE svg PUBLIC "-//W3C//DTD SVG 1.1//EN" "http://www.w3.org/Graphics/SVG/1.1/DTD/svg11.dtd">
<svg version="1.1" xmlns="http://www.w3.org/2000/svg" xmlns:xlink="http://www.w3.org/1999/xlink" x="0px" y="0px"
	 viewBox="0 0 28 28" style="enable-background:new 0 0 28 28;" xml:space="preserve">
<g id="pencil">
	<path d="M21,7.06c-0.496-0.496-1.155-0.769-1.856-0.769c-0.701,0-1.36,0.273-1.856,0.769L6.233,18.115l0.135,3.555l3.697,0.038
		L21,10.773C22.023,9.749,22.023,8.084,21,7.06z M9.347,19.951l-1.294-0.013L8.01,18.813l8.463-8.463l1.237,1.237L9.347,19.951z
		 M19.763,9.535l-0.815,0.815L17.71,9.113l0.814-0.814c0.33-0.33,0.906-0.331,1.238,0C20.104,8.639,20.104,9.194,19.763,9.535z"/>
</g>
<g id="Layer_1">
</g>
</svg>
