<?xml version="1.0" encoding="utf-8"?>
<!-- Generator: Adobe Illustrator 19.0.0, SVG Export Plug-In . SVG Version: 6.00 Build 0)  -->
<svg version="1.1" id="XMLID_1_" xmlns="http://www.w3.org/2000/svg" xmlns:xlink="http://www.w3.org/1999/xlink" x="0px" y="0px"
	 viewBox="0 0 15.0261 15.43" enable-background="new 0 0 15.0261 15.43" xml:space="preserve">
<g id="phone">
	<g>
		<g>
			<path d="M14.6,10.956l-0.084-0.153c-0.598-1.084-3.868-1.64-3.899-1.641L10.546,9.16l-0.325,0.046
				c-0.51,0.117-0.935,0.475-1.524,1.021C7.938,9.784,7.116,9.093,6.625,8.588C6.12,8.073,5.42,7.148,5.045,6.426
				C5.71,5.773,6.173,5.258,6.204,4.564c0.001-0.031-0.415-3.321-1.475-3.975l0,0L4.576,0.496C4.286,0.323,3.745,0,3.089,0
				C2.926,0,2.764,0.02,2.577,0.068c-0.208,0.061-0.4,0.145-0.604,0.274C1.476,0.685,0.578,1.4,0.142,2.343
				c-0.406,0.928-0.134,5.669,3.421,9.384c3.369,3.525,7.279,3.703,8.029,3.703c0.194,0,0.457-0.009,0.677-0.049l0.085-0.004
				l0.201-0.076c0.971-0.398,1.716-1.259,2.065-1.726C15.432,12.529,14.811,11.354,14.6,10.956z M13.227,12.516
				c-0.317,0.424-0.824,0.945-1.286,1.146c-0.046,0.007-0.162,0.018-0.349,0.018c-0.625,0-3.887-0.153-6.764-3.163
				C1.809,7.361,1.677,3.582,1.765,3.006C1.963,2.622,2.406,2.17,2.934,1.804C2.949,1.795,2.992,1.77,3.037,1.757
				c0.167-0.042,0.471,0.139,0.635,0.236l0.072,0.044c0.244,0.407,0.621,1.918,0.702,2.449C4.332,4.68,3.867,5.133,3.609,5.384
				L3.578,5.416C3.219,5.803,3.111,6.357,3.31,6.844C3.738,7.838,4.694,9.115,5.374,9.81c0.667,0.687,1.794,1.611,2.813,2.131
				c0.492,0.244,1.095,0.145,1.483-0.226c0.304-0.284,0.755-0.706,0.922-0.793c0.532,0.104,2.043,0.548,2.438,0.805l0.032,0.059
				C13.274,12.191,13.323,12.392,13.227,12.516z"/>
		</g>
	</g>
</g>
</svg>
