<?xml version="1.0" encoding="iso-8859-1"?>
<!-- Generator: Adobe Illustrator 18.0.0, SVG Export Plug-In . SVG Version: 6.00 Build 0)  -->
<!DOCTYPE svg PUBLIC "-//W3C//DTD SVG 1.1//EN" "http://www.w3.org/Graphics/SVG/1.1/DTD/svg11.dtd">
<svg version="1.1" xmlns="http://www.w3.org/2000/svg" xmlns:xlink="http://www.w3.org/1999/xlink" x="0px" y="0px"
	 viewBox="0 0 28 28" style="enable-background:new 0 0 28 28;" xml:space="preserve">
<g id="print">
	<g>
		<path d="M21.886,8.969h-3.511v-1.75c0-0.965-0.785-1.75-1.75-1.75h-5.25c-0.965,0-1.75,0.785-1.75,1.75v1.75H6.114
			c-0.959,0-1.739,0.785-1.739,1.75v7c0,0.965,0.78,1.75,1.739,1.75h1.761v1.312c0,0.965,0.785,1.75,1.75,1.75h8.75
			c0.965,0,1.75-0.785,1.75-1.75v-1.312h1.761c0.959,0,1.739-0.785,1.739-1.75v-7C23.625,9.754,22.845,8.969,21.886,8.969z
			 M11.375,7.219h5.25l0.001,1.75h-5.251V7.219z M9.625,20.781v-4.375h8.75l0.001,4.375H9.625z M20.125,17.719v-1.312
			c0-0.965-0.785-1.75-1.75-1.75h-8.75c-0.965,0-1.75,0.785-1.75,1.75v1.312h-1.75l-0.011-7h5.261h5.25h5.25l0.011,7H20.125z"/>
		<circle cx="7.875" cy="12.469" r="0.875"/>
		<circle cx="10.5" cy="12.469" r="0.875"/>
	</g>
</g>
<g id="Layer_1">
</g>
</svg>
