<?xml version="1.0" encoding="utf-8"?>
<!-- Generated by IcoMoon.io -->
<!DOCTYPE svg PUBLIC "-//W3C//DTD SVG 1.1//EN" "http://www.w3.org/Graphics/SVG/1.1/DTD/svg11.dtd">
<svg version="1.1" xmlns="http://www.w3.org/2000/svg" xmlns:xlink="http://www.w3.org/1999/xlink" width="512" height="512" viewBox="0 0 512 512"><g id="icomoon-ignore">
</g>
<path d="M352 128v-49.454c0-25.666-20.88-46.545-46.546-46.545h-98.909c-25.666 0-46.546 20.88-46.546 46.545v49.454h-113.748c-25.507 0-46.253 20.88-46.253 46.546v162.909c0 25.666 20.746 46.546 46.253 46.546h49.748v49.454c0 25.666 20.88 46.546 46.546 46.546h226.909c25.666 0 46.546-20.88 46.546-46.546v-49.454h49.747c25.507 0 46.253-20.88 46.253-46.546v-162.909c0-25.666-20.746-46.546-46.253-46.546h-113.747zM192 64h128l0.027 64h-128.027v-64zM128 319.993h255.973l0.027 128.007h-256l-0.001-128.006zM416 334.546c0-25.666-20.88-46.546-46.546-46.546h-226.909c-25.666 0-46.546 20.88-46.546 46.546v17.454h-63.708l-0.293-192h447.707l0.293 192h-64l0-17.454z"></path>
<path d="M96 208c0 8.837-7.163 16-16 16s-16-7.163-16-16c0-8.837 7.163-16 16-16s16 7.163 16 16z"></path>
<path d="M160 208c0 8.837-7.163 16-16 16s-16-7.163-16-16c0-8.837 7.163-16 16-16s16 7.163 16 16z"></path>
</svg>
