<?xml version="1.0" encoding="utf-8"?>
<!-- Generator: Adobe Illustrator 19.0.0, SVG Export Plug-In . SVG Version: 6.00 Build 0)  -->
<svg version="1.1" id="XMLID_1_" xmlns="http://www.w3.org/2000/svg" xmlns:xlink="http://www.w3.org/1999/xlink" x="0px" y="0px"
	 viewBox="0 0 19.25 17.062" enable-background="new 0 0 19.25 17.062" xml:space="preserve">
<g id="print">
	<g>
		<path d="M17.511,3.5H14V1.75C14,0.785,13.215,0,12.25,0H7C6.035,0,5.25,0.785,5.25,1.75V3.5H1.739C0.78,3.5,0,4.285,0,5.25v7
			C0,13.215,0.78,14,1.739,14H3.5v1.312c0,0.965,0.785,1.75,1.75,1.75H14c0.965,0,1.75-0.785,1.75-1.75V14h1.761
			c0.959,0,1.739-0.785,1.739-1.75v-7C19.25,4.285,18.47,3.5,17.511,3.5z M7,1.75h5.25l0.001,1.75H7V1.75z M5.25,15.312v-4.375H14
			l0.001,4.375H5.25z M15.75,12.25v-1.312c0-0.965-0.785-1.75-1.75-1.75H5.25c-0.965,0-1.75,0.785-1.75,1.75v1.312H1.75l-0.011-7H7
			h5.25h5.25l0.011,7H15.75z"/>
		<circle cx="3.5" cy="7" r="0.875"/>
		<circle cx="6.125" cy="7" r="0.875"/>
	</g>
</g>
</svg>
