<?xml version="1.0" encoding="utf-8"?>
<!-- Generator: Adobe Illustrator 19.0.0, SVG Export Plug-In . SVG Version: 6.00 Build 0)  -->
<svg version="1.1" id="XMLID_1_" xmlns="http://www.w3.org/2000/svg" xmlns:xlink="http://www.w3.org/1999/xlink" x="0px" y="0px"
	 viewBox="0 0 14 14" enable-background="new 0 0 14 14" xml:space="preserve">
<g id="product-menu">
	<g>
		<g>
			<path d="M13.125,1.75H8.75c-0.483,0-0.875-0.392-0.875-0.875l0,0C7.875,0.392,8.267,0,8.75,0h4.375C13.608,0,14,0.392,14,0.875
				l0,0C14,1.358,13.608,1.75,13.125,1.75z"/>
		</g>
		<g>
			<path d="M13.125,7.875H8.75C8.267,7.875,7.875,7.483,7.875,7l0,0c0-0.483,0.392-0.875,0.875-0.875h4.375
				C13.608,6.125,14,6.517,14,7l0,0C14,7.483,13.608,7.875,13.125,7.875z"/>
		</g>
		<g>
			<path d="M13.125,14H8.75c-0.483,0-0.875-0.392-0.875-0.875l0,0c0-0.483,0.392-0.875,0.875-0.875h4.375
				c0.483,0,0.875,0.392,0.875,0.875l0,0C14,13.608,13.608,14,13.125,14z"/>
		</g>
		<g>
			<path d="M4.813,14h-3.5C0.589,14,0,13.411,0,12.688V1.312C0,0.589,0.589,0,1.313,0h3.5c0.724,0,1.312,0.589,1.312,1.312v11.375
				C6.125,13.411,5.536,14,4.813,14z M1.75,12.25h2.625V1.75H1.75V12.25z"/>
		</g>
	</g>
</g>
</svg>
