<?xml version="1.0" encoding="utf-8"?>
<!-- Generated by IcoMoon.io -->
<!DOCTYPE svg PUBLIC "-//W3C//DTD SVG 1.1//EN" "http://www.w3.org/Graphics/SVG/1.1/DTD/svg11.dtd">
<svg version="1.1" xmlns="http://www.w3.org/2000/svg" xmlns:xlink="http://www.w3.org/1999/xlink" width="512" height="512" viewBox="0 0 512 512"><g id="icomoon-ignore">
</g>
<path d="M480 64.001h-160c-17.664 0-32-14.336-32-32v0c0-17.664 14.336-32 32-32h160c17.664 0 32 14.336 32 32v0c0 17.664-14.336 32-32 32z"></path>
<path d="M480 288h-160c-17.664 0-32-14.336-32-32v0c0-17.664 14.336-32 32-32h160c17.664 0 32 14.336 32 32v0c0 17.664-14.336 32-32 32z"></path>
<path d="M480 512h-160c-17.664 0-32-14.336-32-32v0c0-17.664 14.336-32 32-32h160c17.664 0 32 14.336 32 32v0c0 17.664-14.336 32-32 32z"></path>
<path d="M176.018 512h-128c-26.478 0-48.018-21.541-48.018-47.982v-416.036c0-26.441 21.541-47.982 48.018-47.982h128c26.478 0 47.982 21.541 47.982 47.982v415.999c0 26.478-21.541 48.018-47.982 48.018zM64.001 448h96v-384h-96v384z"></path>
</svg>
