<?xml version="1.0" encoding="iso-8859-1"?>
<!-- Generator: Adobe Illustrator 18.0.0, SVG Export Plug-In . SVG Version: 6.00 Build 0)  -->
<!DOCTYPE svg PUBLIC "-//W3C//DTD SVG 1.1//EN" "http://www.w3.org/Graphics/SVG/1.1/DTD/svg11.dtd">
<svg version="1.1" xmlns="http://www.w3.org/2000/svg" xmlns:xlink="http://www.w3.org/1999/xlink" x="0px" y="0px"
	 viewBox="0 0 28 28" style="enable-background:new 0 0 28 28;" xml:space="preserve">
<g id="product-menu-closed">
	<g>
		<path d="M7.656,6.945c-0.482,0-0.875,0.393-0.875,0.875V20.18c0,0.482,0.393,0.875,0.875,0.875s0.875-0.393,0.875-0.875V7.82
			C8.531,7.338,8.139,6.945,7.656,6.945z"/>
		<path d="M19.906,6.945h-8.608c-0.724,0-1.312,0.589-1.312,1.312v11.484c0,0.724,0.589,1.312,1.312,1.312h8.608
			c0.724,0,1.312-0.589,1.312-1.312V8.258C21.219,7.534,20.63,6.945,19.906,6.945z M19.469,19.305h-7.733V8.695h7.733V19.305z"/>
	</g>
</g>
<g id="Layer_1">
</g>
</svg>
