<?xml version="1.0" encoding="iso-8859-1"?>
<!-- Generator: Adobe Illustrator 18.0.0, SVG Export Plug-In . SVG Version: 6.00 Build 0)  -->
<!DOCTYPE svg PUBLIC "-//W3C//DTD SVG 1.1//EN" "http://www.w3.org/Graphics/SVG/1.1/DTD/svg11.dtd">
<svg version="1.1" xmlns="http://www.w3.org/2000/svg" xmlns:xlink="http://www.w3.org/1999/xlink" x="0px" y="0px"
	 viewBox="0 0 28 28" style="enable-background:new 0 0 28 28;" xml:space="preserve">
<g id="product-menu">
	<g>
		<g>
			<path d="M20.125,8.75H15.75c-0.483,0-0.875-0.392-0.875-0.875v0C14.875,7.392,15.267,7,15.75,7h4.375C20.608,7,21,7.392,21,7.875
				v0C21,8.358,20.608,8.75,20.125,8.75z"/>
		</g>
		<g>
			<path d="M20.125,14.875H15.75c-0.483,0-0.875-0.392-0.875-0.875v0c0-0.483,0.392-0.875,0.875-0.875h4.375
				C20.608,13.125,21,13.517,21,14v0C21,14.483,20.608,14.875,20.125,14.875z"/>
		</g>
		<g>
			<path d="M20.125,21H15.75c-0.483,0-0.875-0.392-0.875-0.875l0,0c0-0.483,0.392-0.875,0.875-0.875h4.375
				c0.483,0,0.875,0.392,0.875,0.875l0,0C21,20.608,20.608,21,20.125,21z"/>
		</g>
		<g>
			<path d="M11.813,21h-3.5C7.589,21,7,20.411,7,19.688V8.312C7,7.589,7.589,7,8.313,7h3.5c0.724,0,1.312,0.589,1.312,1.312v11.375
				C13.125,20.411,12.536,21,11.813,21z M8.75,19.25h2.625V8.75H8.75V19.25z"/>
		</g>
	</g>
</g>
<g id="Layer_1">
</g>
</svg>
