<?xml version="1.0" encoding="utf-8"?>
<!-- Generated by IcoMoon.io -->
<!DOCTYPE svg PUBLIC "-//W3C//DTD SVG 1.1//EN" "http://www.w3.org/Graphics/SVG/1.1/DTD/svg11.dtd">
<svg version="1.1" xmlns="http://www.w3.org/2000/svg" xmlns:xlink="http://www.w3.org/1999/xlink" width="512" height="512" viewBox="0 0 512 512"><g id="icomoon-ignore">
</g>
<path d="M31.029 0c-17.092 0-31.029 13.937-31.029 31.029v449.942c0 17.092 13.937 31.029 31.029 31.029s31.029-13.937 31.029-31.029v-449.942c0-17.092-13.901-31.029-31.029-31.029v0z"></path>
<path d="M463.983 511.966h-319.965c-26.478 0-48.018-21.541-48.018-47.982v-416.036c0-26.441 21.541-47.982 48.018-47.982h319.965c26.478 0 47.982 21.541 47.982 47.982v415.999c0 26.478-21.541 48.018-47.982 48.018v0.001zM160 447.966h287.965v-384h-287.965v384z"></path>
</svg>
