<?xml version="1.0" encoding="utf-8"?>
<!-- Generator: Adobe Illustrator 19.0.0, SVG Export Plug-In . SVG Version: 6.00 Build 0)  -->
<svg version="1.1" id="XMLID_1_" xmlns="http://www.w3.org/2000/svg" xmlns:xlink="http://www.w3.org/1999/xlink" x="0px" y="0px"
	 viewBox="0 0 14.437 14.11" enable-background="new 0 0 14.437 14.11" xml:space="preserve">
<g id="product-menu-closed">
	<g>
		<path d="M0.875,0C0.393,0,0,0.393,0,0.875v12.36c0,0.482,0.393,0.875,0.875,0.875s0.875-0.393,0.875-0.875V0.875
			C1.75,0.393,1.358,0,0.875,0z"/>
		<path d="M13.125,0H4.517C3.793,0,3.205,0.589,3.205,1.312v11.484c0,0.724,0.589,1.312,1.312,1.312h8.608
			c0.724,0,1.312-0.589,1.312-1.312V1.313C14.438,0.589,13.849,0,13.125,0z M12.688,12.36H4.955V1.75h7.733V12.36z"/>
	</g>
</g>
</svg>
