<?xml version="1.0" encoding="utf-8"?>
<!-- Generator: Adobe Illustrator 19.0.0, SVG Export Plug-In . SVG Version: 6.00 Build 0)  -->
<svg version="1.1" id="XMLID_1_" xmlns="http://www.w3.org/2000/svg" xmlns:xlink="http://www.w3.org/1999/xlink" x="0px" y="0px"
	 viewBox="0 0 19.25 19.25" enable-background="new 0 0 19.25 19.25" xml:space="preserve">
<g id="question-circle">
	<g>
		<g>
			<path d="M9.625,19.25C4.318,19.25,0,14.932,0,9.625S4.318,0,9.625,0s9.625,4.318,9.625,9.625S14.932,19.25,9.625,19.25z
				 M9.625,1.75c-4.342,0-7.875,3.533-7.875,7.875S5.283,17.5,9.625,17.5S17.5,13.967,17.5,9.625S13.967,1.75,9.625,1.75z"/>
		</g>
		<g>
			<g>
				<path d="M8.873,11.043c-0.015-0.072-0.025-0.143-0.032-0.215c-0.007-0.072-0.011-0.147-0.011-0.226
					c0-0.287,0.065-0.561,0.195-0.823s0.35-0.507,0.66-0.737l0.519-0.387c0.31-0.229,0.465-0.513,0.465-0.85
					c0-0.122-0.022-0.242-0.065-0.36c-0.043-0.118-0.11-0.222-0.2-0.312S10.2,6.972,10.063,6.918
					C9.926,6.864,9.767,6.837,9.587,6.837c-0.195,0-0.361,0.036-0.498,0.108S8.838,7.108,8.748,7.219
					c-0.09,0.111-0.157,0.24-0.2,0.387S8.483,7.902,8.483,8.052c0,0.144,0.014,0.258,0.043,0.344L7.163,8.342
					C7.141,8.263,7.127,8.183,7.12,8.1C7.113,8.018,7.109,7.937,7.109,7.858c0-0.287,0.054-0.568,0.162-0.844
					s0.267-0.52,0.476-0.732C7.956,6.071,8.214,5.9,8.521,5.771s0.662-0.194,1.066-0.194c0.418,0,0.786,0.061,1.104,0.183
					c0.317,0.122,0.584,0.282,0.801,0.479c0.216,0.197,0.379,0.425,0.487,0.683c0.108,0.258,0.162,0.524,0.162,0.796
					c0,0.43-0.097,0.798-0.292,1.103c-0.195,0.305-0.454,0.572-0.779,0.802l-0.444,0.312c-0.188,0.136-0.332,0.289-0.433,0.457
					c-0.101,0.169-0.152,0.364-0.152,0.586v0.065C10.041,11.043,8.873,11.043,8.873,11.043z M8.624,12.603
					c0-0.237,0.083-0.439,0.249-0.608c0.166-0.168,0.368-0.253,0.606-0.253s0.442,0.084,0.611,0.253s0.254,0.371,0.254,0.608
					s-0.085,0.438-0.254,0.602c-0.17,0.165-0.373,0.247-0.611,0.247s-0.44-0.083-0.606-0.247C8.707,13.041,8.624,12.84,8.624,12.603
					z"/>
			</g>
		</g>
	</g>
</g>
</svg>
