<?xml version="1.0" encoding="utf-8"?>
<!-- Generated by IcoMoon.io -->
<!DOCTYPE svg PUBLIC "-//W3C//DTD SVG 1.1//EN" "http://www.w3.org/Graphics/SVG/1.1/DTD/svg11.dtd">
<svg version="1.1" xmlns="http://www.w3.org/2000/svg" xmlns:xlink="http://www.w3.org/1999/xlink" width="512" height="512" viewBox="0 0 512 512"><g id="icomoon-ignore">
</g>
<path d="M235.999 287.926c-0.399-1.915-0.665-3.803-0.851-5.719s-0.292-3.91-0.292-6.011c0-7.634 1.728-14.921 5.186-21.889s9.309-13.485 17.554-19.602l13.805-10.293c8.245-6.091 12.368-13.644 12.368-22.608 0-3.245-0.586-6.436-1.728-9.576s-2.926-5.905-5.32-8.298c-2.394-2.393-5.426-4.282-9.070-5.719s-7.873-2.154-12.661-2.154c-5.186 0-9.601 0.958-13.246 2.873s-6.675 4.335-9.070 7.288c-2.393 2.952-4.176 6.383-5.32 10.293s-1.728 7.873-1.728 11.863c0 3.83 0.373 6.862 1.144 9.15l-36.252-1.436c-0.585-2.101-0.958-4.229-1.144-6.436-0.186-2.181-0.292-4.335-0.292-6.436 0-7.633 1.436-15.107 4.309-22.448s7.102-13.831 12.661-19.469c5.559-5.613 12.421-10.16 20.586-13.591s17.608-5.16 28.352-5.16c11.118 0 20.905 1.623 29.364 4.868 8.431 3.245 15.533 7.5 21.305 12.74 5.745 5.24 10.081 11.304 12.952 18.166s4.309 13.936 4.309 21.172c0 11.437-2.579 21.225-7.767 29.337s-12.075 15.214-20.719 21.331l-11.81 8.298c-5 3.618-8.831 7.687-11.517 12.155-2.687 4.495-4.043 9.682-4.043 15.586v1.728l-31.064-0z"></path>
<path d="M229.376 329.419c0-6.303 2.208-11.676 6.623-16.171 4.416-4.469 9.787-6.729 16.118-6.729s11.756 2.234 16.251 6.729c4.495 4.495 6.755 9.868 6.755 16.171s-2.261 11.649-6.755 16.012c-4.522 4.389-9.921 6.57-16.251 6.57s-11.703-2.207-16.118-6.57-6.623-9.709-6.623-16.012v0z"></path>
<path d="M491.356 155.833c-12.897-30.492-31.346-57.863-54.837-81.353s-50.861-41.94-81.353-54.837c-31.602-13.367-65.135-20.144-99.666-20.144s-68.064 6.777-99.666 20.144c-30.492 12.897-57.863 31.346-81.353 54.837s-41.94 50.861-54.837 81.353c-13.367 31.602-20.144 65.135-20.144 99.667s6.777 68.065 20.144 99.666c12.897 30.491 31.346 57.863 54.837 81.353s50.861 41.94 81.353 54.837c31.602 13.366 65.135 20.144 99.666 20.144s68.065-6.777 99.666-20.144c30.491-12.897 57.863-31.346 81.353-54.837s41.94-50.861 54.837-81.353c13.366-31.602 20.144-65.135 20.144-99.666s-6.777-68.064-20.144-99.666zM255.5 447.5c-106.038 0-192-85.962-192-192s85.962-192 192-192 192 85.962 192 192-85.962 192-192 192z"></path>
</svg>
