<?xml version="1.0" encoding="utf-8"?>
<!-- Generator: Adobe Illustrator 19.0.0, SVG Export Plug-In . SVG Version: 6.00 Build 0)  -->
<svg version="1.1" id="XMLID_1_" xmlns="http://www.w3.org/2000/svg" xmlns:xlink="http://www.w3.org/1999/xlink" x="0px" y="0px"
	 viewBox="0 0 17.5 17.5" enable-background="new 0 0 17.5 17.5" xml:space="preserve">
<g id="question-circle-full">
	<g>
		<path d="M8.75,0C3.918,0,0,3.917,0,8.75c0,4.832,3.918,8.75,8.75,8.75s8.75-3.918,8.75-8.75C17.5,3.917,13.582,0,8.75,0z
			 M9.215,12.331c-0.17,0.165-0.373,0.247-0.611,0.247s-0.44-0.083-0.606-0.247c-0.166-0.165-0.249-0.366-0.249-0.602
			c0-0.237,0.083-0.439,0.249-0.608c0.166-0.168,0.368-0.253,0.606-0.253s0.442,0.084,0.611,0.253s0.254,0.371,0.254,0.608
			C9.469,11.965,9.385,12.166,9.215,12.331z M10.973,7.947c-0.195,0.305-0.454,0.572-0.779,0.802L9.75,9.061
			C9.562,9.197,9.418,9.35,9.317,9.518c-0.101,0.169-0.152,0.364-0.152,0.586v0.065H7.996c-0.015-0.072-0.025-0.143-0.032-0.215
			C7.957,9.882,7.953,9.807,7.953,9.728c0-0.287,0.065-0.561,0.195-0.823s0.35-0.507,0.66-0.737l0.519-0.387
			c0.31-0.229,0.465-0.513,0.465-0.85c0-0.122-0.022-0.242-0.065-0.36c-0.043-0.118-0.11-0.222-0.2-0.312S9.323,6.098,9.186,6.044
			C9.049,5.99,8.89,5.963,8.71,5.963c-0.195,0-0.361,0.036-0.498,0.108S7.961,6.234,7.871,6.345c-0.09,0.111-0.157,0.24-0.2,0.387
			S7.606,7.028,7.606,7.178c0,0.144,0.014,0.258,0.043,0.344L6.286,7.468C6.264,7.389,6.25,7.309,6.243,7.226
			C6.236,7.144,6.232,7.063,6.232,6.984c0-0.287,0.054-0.568,0.162-0.844S6.661,5.62,6.87,5.408
			c0.209-0.211,0.467-0.382,0.774-0.511S8.306,4.703,8.71,4.703c0.418,0,0.786,0.061,1.104,0.183
			c0.317,0.122,0.584,0.282,0.801,0.479c0.216,0.197,0.379,0.425,0.487,0.683c0.108,0.258,0.162,0.524,0.162,0.796
			C11.266,7.274,11.168,7.642,10.973,7.947z"/>
	</g>
</g>
</svg>
