<?xml version="1.0" encoding="utf-8"?>
<!-- Generator: Adobe Illustrator 19.0.0, SVG Export Plug-In . SVG Version: 6.00 Build 0)  -->
<svg version="1.1" id="XMLID_1_" xmlns="http://www.w3.org/2000/svg" xmlns:xlink="http://www.w3.org/1999/xlink" x="0px" y="0px"
	 viewBox="0 0 18.157 14" enable-background="new 0 0 18.157 14" xml:space="preserve">
<g id="quote-left">
	<g>
		<g>
			<path d="M8.277,10.363c0,0.964-0.36,1.811-1.078,2.541C6.479,13.635,5.534,14,4.364,14c-1.338,0-2.4-0.465-3.185-1.395
				C0.393,11.675,0,10.546,0,9.217c0-1.66,0.259-3.064,0.777-4.21s1.161-2.075,1.931-2.79c0.769-0.714,1.605-1.246,2.508-1.594
				C6.12,0.274,6.972,0.067,7.775,0v3.039c-0.97,0.167-1.881,0.607-2.733,1.32C4.189,5.074,3.729,6.012,3.663,7.174
				C3.93,7.008,4.282,6.925,4.716,6.925c1.136,0,2.014,0.308,2.633,0.922C7.967,8.462,8.277,9.3,8.277,10.363z M18.157,10.363
				c0,0.964-0.36,1.811-1.078,2.541C16.359,13.635,15.415,14,14.245,14c-1.338,0-2.4-0.465-3.185-1.395
				c-0.786-0.93-1.179-2.059-1.179-3.388c0-1.66,0.259-3.064,0.777-4.21c0.518-1.146,1.161-2.075,1.931-2.79
				c0.769-0.714,1.605-1.246,2.508-1.594C16,0.274,16.853,0.067,17.656,0v3.039c-0.97,0.167-1.881,0.607-2.734,1.32
				c-0.853,0.715-1.313,1.653-1.379,2.815c0.267-0.166,0.619-0.249,1.053-0.249c1.136,0,2.014,0.308,2.633,0.922
				C17.847,8.462,18.157,9.3,18.157,10.363z"/>
		</g>
	</g>
</g>
</svg>
