<?xml version="1.0" encoding="iso-8859-1"?>
<!-- Generator: Adobe Illustrator 18.0.0, SVG Export Plug-In . SVG Version: 6.00 Build 0)  -->
<!DOCTYPE svg PUBLIC "-//W3C//DTD SVG 1.1//EN" "http://www.w3.org/Graphics/SVG/1.1/DTD/svg11.dtd">
<svg version="1.1" xmlns="http://www.w3.org/2000/svg" xmlns:xlink="http://www.w3.org/1999/xlink" x="0px" y="0px"
	 viewBox="0 0 28 28" style="enable-background:new 0 0 28 28;" xml:space="preserve">
<g id="quote-right">
	<g>
		<g>
			<path d="M14.802,10.637c0-0.964,0.36-1.811,1.078-2.541C16.6,7.365,17.545,7,18.715,7c1.338,0,2.4,0.465,3.185,1.395
				c0.786,0.93,1.179,2.059,1.179,3.388c0,1.66-0.259,3.064-0.777,4.21c-0.518,1.146-1.161,2.075-1.931,2.79
				c-0.769,0.714-1.605,1.246-2.508,1.594c-0.903,0.349-1.755,0.556-2.558,0.623v-3.039c0.97-0.167,1.881-0.607,2.733-1.32
				c0.853-0.715,1.313-1.653,1.379-2.815c-0.267,0.166-0.619,0.249-1.053,0.249c-1.136,0-2.014-0.308-2.633-0.922
				C15.112,12.538,14.802,11.7,14.802,10.637z M4.922,10.637c0-0.964,0.36-1.811,1.078-2.541C6.72,7.365,7.664,7,8.834,7
				c1.338,0,2.4,0.465,3.185,1.395c0.786,0.93,1.179,2.059,1.179,3.388c0,1.66-0.259,3.064-0.777,4.21
				c-0.518,1.146-1.161,2.075-1.931,2.79c-0.769,0.714-1.605,1.246-2.508,1.594C7.079,20.726,6.226,20.933,5.423,21v-3.039
				c0.97-0.167,1.881-0.607,2.734-1.32c0.853-0.715,1.313-1.653,1.379-2.815c-0.267,0.166-0.619,0.249-1.053,0.249
				c-1.136,0-2.014-0.308-2.633-0.922C5.232,12.538,4.922,11.7,4.922,10.637z"/>
		</g>
	</g>
</g>
<g id="Layer_1">
</g>
</svg>
