<?xml version="1.0" encoding="iso-8859-1"?>
<!-- Generator: Adobe Illustrator 18.0.0, SVG Export Plug-In . SVG Version: 6.00 Build 0)  -->
<!DOCTYPE svg PUBLIC "-//W3C//DTD SVG 1.1//EN" "http://www.w3.org/Graphics/SVG/1.1/DTD/svg11.dtd">
<svg version="1.1" xmlns="http://www.w3.org/2000/svg" xmlns:xlink="http://www.w3.org/1999/xlink" x="0px" y="0px"
	 viewBox="0 0 28 28" style="enable-background:new 0 0 28 28;" xml:space="preserve">
<g id="quote-left">
	<g>
		<g>
			<path d="M13.198,17.363c0,0.964-0.36,1.811-1.078,2.541C11.4,20.635,10.455,21,9.285,21c-1.338,0-2.4-0.465-3.185-1.395
				c-0.786-0.93-1.179-2.059-1.179-3.388c0-1.66,0.259-3.064,0.777-4.21c0.518-1.146,1.161-2.075,1.931-2.79
				c0.769-0.714,1.605-1.246,2.508-1.594C11.041,7.274,11.893,7.067,12.696,7v3.039c-0.97,0.167-1.881,0.607-2.733,1.32
				c-0.853,0.715-1.313,1.653-1.379,2.815c0.267-0.166,0.619-0.249,1.053-0.249c1.136,0,2.014,0.308,2.633,0.922
				C12.888,15.462,13.198,16.3,13.198,17.363z M23.078,17.363c0,0.964-0.36,1.811-1.078,2.541C21.28,20.635,20.336,21,19.166,21
				c-1.338,0-2.4-0.465-3.185-1.395c-0.786-0.93-1.179-2.059-1.179-3.388c0-1.66,0.259-3.064,0.777-4.21
				c0.518-1.146,1.161-2.075,1.931-2.79c0.769-0.714,1.605-1.246,2.508-1.594C20.921,7.274,21.774,7.067,22.577,7v3.039
				c-0.97,0.167-1.881,0.607-2.734,1.32c-0.853,0.715-1.313,1.653-1.379,2.815c0.267-0.166,0.619-0.249,1.053-0.249
				c1.136,0,2.014,0.308,2.633,0.922C22.768,15.462,23.078,16.3,23.078,17.363z"/>
		</g>
	</g>
</g>
<g id="Layer_1">
</g>
</svg>
