<?xml version="1.0" encoding="utf-8"?>
<!-- Generator: Adobe Illustrator 19.0.0, SVG Export Plug-In . SVG Version: 6.00 Build 0)  -->
<svg version="1.1" id="XMLID_1_" xmlns="http://www.w3.org/2000/svg" xmlns:xlink="http://www.w3.org/1999/xlink" x="0px" y="0px"
	 viewBox="0 0 18.374 19.2494" enable-background="new 0 0 18.374 19.2494" xml:space="preserve">
<g id="reload">
	<g>
		<path d="M17.316,17.3364l-3.042,0.089c2.541-1.792,4.1-4.721,4.1-7.859c0-3.655-2.028-6.949-5.293-8.597
			c-0.432-0.217-0.958-0.044-1.175,0.387c-0.218,0.432-0.045,0.958,0.387,1.176c2.672,1.349,4.332,4.044,4.332,7.035
			c0,2.594-1.304,5.014-3.423,6.476l-0.078-2.66c-0.014-0.483-0.421-0.874-0.9-0.849c-0.483,0.014-0.863,0.417-0.849,0.9
			l0.145,4.946v0.001c0,0.001,0,0.001,0,0.001l0.001,0.018c0.014,0.474,0.402,0.849,0.874,0.849c0.009,0,0.018,0,0.026,0
			c0.034-0.001,0.062-0.017,0.095-0.022l4.852-0.142c0.483-0.014,0.863-0.417,0.849-0.9
			C18.203,17.7024,17.793,17.3114,17.316,17.3364z"/>
		<path d="M6.855,0.8694c0-0.001,0-0.001,0-0.002v-0.018c-0.014-0.483-0.418-0.863-0.9-0.849c-0.034,0.001-0.062,0.017-0.095,0.022
			l-4.853,0.142c-0.483,0.014-0.863,0.417-0.849,0.9c0.014,0.474,0.402,0.849,0.874,0.849c0.009,0,0.017,0,0.026,0L4.1,1.8244
			C1.559,3.6164,0,6.5464,0,9.6834c0,3.655,2.028,6.949,5.293,8.597c0.126,0.064,0.261,0.094,0.393,0.094
			c0.32,0,0.628-0.176,0.782-0.481c0.218-0.432,0.045-0.958-0.387-1.175c-2.672-1.349-4.332-4.044-4.332-7.035
			c0-2.594,1.304-5.014,3.423-6.476l0.078,2.66c0.014,0.474,0.402,0.849,0.874,0.849c0.009,0,0.018,0,0.026,0
			c0.483-0.014,0.863-0.417,0.849-0.9l-0.145-4.946L6.855,0.8694z"/>
	</g>
</g>
</svg>
