<?xml version="1.0" encoding="utf-8"?>
<!-- Generator: Adobe Illustrator 19.0.0, SVG Export Plug-In . SVG Version: 6.00 Build 0)  -->
<svg version="1.1" id="XMLID_1_" xmlns="http://www.w3.org/2000/svg" xmlns:xlink="http://www.w3.org/1999/xlink" x="0px" y="0px"
	 viewBox="0 0 19.6895 20.233" enable-background="new 0 0 19.6895 20.233" xml:space="preserve">
<g id="remove-style">
	<g>
		<g>
			<polygon points="0,2.625 4.376,2.625 1.932,14 4.722,14 7,2.625 11.376,2.625 11.376,0 0,0 			"/>
			<rect y="15.75" width="11.375" height="1.75"/>
			<path d="M17.425,16.734l2.006-2.006c0.342-0.342,0.342-0.896,0-1.237s-0.896-0.342-1.237,0l-2.006,2.006l-2.006-2.006
				c-0.342-0.342-0.896-0.342-1.237,0s-0.342,0.896,0,1.237l2.006,2.006l-2.006,2.006c-0.342,0.342-0.342,0.896,0,1.237
				c0.171,0.171,0.395,0.256,0.619,0.256s0.448-0.085,0.619-0.256l2.006-2.006l2.006,2.006c0.171,0.171,0.395,0.256,0.619,0.256
				s0.448-0.085,0.619-0.256c0.342-0.342,0.342-0.896,0-1.237L17.425,16.734z"/>
		</g>
	</g>
</g>
</svg>
