<?xml version="1.0" encoding="iso-8859-1"?>
<!-- Generator: Adobe Illustrator 18.0.0, SVG Export Plug-In . SVG Version: 6.00 Build 0)  -->
<!DOCTYPE svg PUBLIC "-//W3C//DTD SVG 1.1//EN" "http://www.w3.org/Graphics/SVG/1.1/DTD/svg11.dtd">
<svg version="1.1" xmlns="http://www.w3.org/2000/svg" xmlns:xlink="http://www.w3.org/1999/xlink" x="0px" y="0px"
	 viewBox="0 0 28 28" style="enable-background:new 0 0 28 28;" xml:space="preserve">
<g id="remove-style">
	<g>
		<g>
			<polygon points="8.312,6.125 12.688,6.125 10.244,17.5 13.034,17.5 15.312,6.125 19.688,6.125 19.688,3.5 8.312,3.5 			"/>
			<rect x="8.312" y="19.25" width="11.375" height="1.75"/>
			<path d="M25.737,20.234l2.006-2.006c0.342-0.342,0.342-0.896,0-1.237s-0.896-0.342-1.237,0L24.5,18.997l-2.006-2.006
				c-0.342-0.342-0.896-0.342-1.237,0s-0.342,0.896,0,1.237l2.006,2.006l-2.006,2.006c-0.342,0.342-0.342,0.896,0,1.237
				c0.171,0.171,0.395,0.256,0.619,0.256s0.448-0.085,0.619-0.256l2.006-2.006l2.006,2.006c0.171,0.171,0.395,0.256,0.619,0.256
				s0.448-0.085,0.619-0.256c0.342-0.342,0.342-0.896,0-1.237L25.737,20.234z"/>
		</g>
	</g>
</g>
<g id="Layer_1">
</g>
</svg>
