<?xml version="1.0" encoding="utf-8"?>
<!-- Generator: Adobe Illustrator 19.0.0, SVG Export Plug-In . SVG Version: 6.00 Build 0)  -->
<svg version="1.1" id="reply" xmlns="http://www.w3.org/2000/svg" xmlns:xlink="http://www.w3.org/1999/xlink" x="0px" y="0px"
	 viewBox="0 0 320 255.9961" enable-background="new 0 0 320 255.9961" xml:space="preserve">
<path class="lexicon-icon-outline" d="M288,63.9961H113.1l9.4-9.4c12.4-12.5,12.4-32.9,0-45.3C112.0359-1.0843,96.0384-2.7689,83.8296,4.23
	c-2.3754,1.3618-4.6099,3.0464-6.6296,5.066l-67.9,67.9c-12.4,12.5-12.4,32.9,0,45.3l67.9,67.9
	c2.0359,2.0197,4.284,3.7043,6.6704,5.066c12.2652,6.9989,28.2492,5.3143,38.6296-5.066c12.4-12.5,12.4-32.9,0-45.3l-17.1-17.1H256
	v96c0,17.6,14.4,32,32,32s32-14.4,32-32v-128C320,78.3961,305.6,63.9961,288,63.9961z"/>
</svg>
