<?xml version="1.0" encoding="utf-8"?>
<!-- Generated by IcoMoon.io -->
<!DOCTYPE svg PUBLIC "-//W3C//DTD SVG 1.1//EN" "http://www.w3.org/Graphics/SVG/1.1/DTD/svg11.dtd">
<svg version="1.1" xmlns="http://www.w3.org/2000/svg" xmlns:xlink="http://www.w3.org/1999/xlink" width="512" height="512" viewBox="0 0 512 512"><g id="icomoon-ignore">
</g>
<path d="M433.777 416c25.488 0 46.223-20.734 46.223-46.222v-227.555c0-25.462-20.734-46.222-46.222-46.222h-115.776c-7.719 0-25.941-29.15-31.329-40.322-12.572-26.096-26.809-55.678-55.546-55.678h-153.669c-25.066 0-45.456 21.817-45.456 48.626v321.152c0 25.488 20.734 46.222 46.222 46.222h145.778v32h-160c-17.673 0-32 14.327-32 32v0c0 17.673 14.327 32 32 32h384c17.673 0 32-14.327 32-32v0c0-17.673-14.327-32-32-32h-160v-32h145.777zM95.463 54.404c0 0 0.282-1.929 0.537-2.404h133.255c4.521 4.755 11.672 17.845 16.065 27.276 2.529 5.416 5.159 11.096 8.019 16.724h-157.876v-41.596zM96 352l-0.026-192h320.026v192h-320z"></path>
</svg>
