<?xml version="1.0" encoding="utf-8"?>
<!-- Generator: Adobe Illustrator 19.0.0, SVG Export Plug-In . SVG Version: 6.00 Build 0)  -->
<svg version="1.1" id="Layer_1" xmlns="http://www.w3.org/2000/svg" xmlns:xlink="http://www.w3.org/1999/xlink" x="0px" y="0px"
	 width="512px" height="512px" viewBox="0 0 512 512" enable-background="new 0 0 512 512" xml:space="preserve">
<g>
	<path d="M164.7,347.3c3.1,3.1,7.2,4.7,11.3,4.7s8.2-1.6,11.3-4.7l48-48c6.3,3,13.3,4.7,20.7,4.7c26.5,0,48-21.5,48-48
		c0-20.9-13.4-38.7-32-45.3V112c0-8.8-7.2-16-16-16c-8.8,0-16,7.2-16,16v98.7c-18.6,6.6-32,24.4-32,45.3c0,7.4,1.7,14.4,4.7,20.7
		l-48,48C158.4,330.9,158.4,341.1,164.7,347.3z"/>
	<path d="M491.9,156.3L491.9,156.3C479,125.8,460.5,98.5,437,75c-23.5-23.5-50.9-41.9-81.4-54.8C324.1,6.8,290.5,0,256,0
		s-68.1,6.8-99.7,20.1c-21.8,9.2-42,21.3-60.3,36V44c0-17.7-14.3-32-32-32S32,26.3,32,44v100c0,17.7,14.3,32,32,32h100
		c17.7,0,32-14.3,32-32s-14.3-32-32-32h-35c33.8-29.9,78.3-48,127-48c106,0,192,86,192,192c0,106-86,192-192,192S64,362,64,256v0H0
		v0c0,34.5,6.8,68.1,20.1,99.7C33,386.2,51.5,413.5,75,437c23.5,23.5,50.9,41.9,81.4,54.8c31.6,13.4,65.1,20.1,99.7,20.1
		s68.1-6.8,99.7-20.1c30.5-12.9,57.9-31.3,81.4-54.8c23.5-23.5,41.9-50.9,54.8-81.4c13.4-31.6,20.1-65.1,20.1-99.7
		S505.2,187.9,491.9,156.3z"/>
</g>
</svg>
