<?xml version="1.0" encoding="utf-8"?>
<!-- Generator: Adobe Illustrator 19.0.0, SVG Export Plug-In . SVG Version: 6.00 Build 0)  -->
<svg version="1.1" id="XMLID_1_" xmlns="http://www.w3.org/2000/svg" xmlns:xlink="http://www.w3.org/1999/xlink" x="0px" y="0px"
	 viewBox="0 0 17.4186 17.473" enable-background="new 0 0 17.4186 17.473" xml:space="preserve">
<g id="search">
	<path d="M17.163,15.98l-4.569-4.569c0.946-1.201,1.516-2.712,1.516-4.356C14.11,3.165,10.945,0,7.055,0S0,3.165,0,7.055
		s3.165,7.055,7.055,7.055c1.616,0,3.102-0.552,4.293-1.469l4.576,4.576c0.171,0.171,0.395,0.256,0.619,0.256
		s0.448-0.085,0.619-0.256C17.504,16.875,17.504,16.321,17.163,15.98z M1.751,7.055c0-2.925,2.38-5.305,5.305-5.305
		s5.305,2.38,5.305,5.305s-2.38,5.305-5.305,5.305S1.751,9.98,1.751,7.055z"/>
</g>
</svg>
