<?xml version="1.0" encoding="iso-8859-1"?>
<!-- Generator: Adobe Illustrator 18.0.0, SVG Export Plug-In . SVG Version: 6.00 Build 0)  -->
<!DOCTYPE svg PUBLIC "-//W3C//DTD SVG 1.1//EN" "http://www.w3.org/Graphics/SVG/1.1/DTD/svg11.dtd">
<svg version="1.1" xmlns="http://www.w3.org/2000/svg" xmlns:xlink="http://www.w3.org/1999/xlink" x="0px" y="0px"
	 viewBox="0 0 28 28" style="enable-background:new 0 0 28 28;" xml:space="preserve">
<g id="simulation-menu-closed">
	<path d="M22.75,13.125h-0.706c-0.407-3.765-3.405-6.763-7.169-7.169V5.25c0-0.483-0.392-0.875-0.875-0.875
		s-0.875,0.392-0.875,0.875v0.706C9.36,6.362,6.362,9.36,5.956,13.125H5.25c-0.483,0-0.875,0.392-0.875,0.875
		s0.392,0.875,0.875,0.875h0.706c0.407,3.765,3.405,6.763,7.169,7.169v0.706c0,0.483,0.392,0.875,0.875,0.875
		s0.875-0.392,0.875-0.875v-0.706c3.765-0.407,6.763-3.405,7.169-7.169h0.706c0.483,0,0.875-0.392,0.875-0.875
		S23.233,13.125,22.75,13.125z M20.276,13.125h-1.614c-0.367-1.904-1.877-3.398-3.787-3.749V7.724
		C17.672,8.112,19.888,10.328,20.276,13.125z M13.125,13.125h-1.929c0.292-0.919,1.011-1.638,1.929-1.931V13.125z M13.125,14.875
		v1.971c-0.931-0.297-1.658-1.033-1.942-1.971H13.125z M14.875,14.875h1.987c-0.288,0.953-1.034,1.698-1.987,1.985V14.875z
		 M14.875,13.125v-1.946c0.94,0.283,1.678,1.012,1.975,1.946H14.875z M13.125,7.724v1.657c-1.889,0.365-3.377,1.855-3.741,3.744
		h-1.66C8.112,10.328,10.328,8.112,13.125,7.724z M7.724,14.875H9.38c0.351,1.908,1.843,3.416,3.745,3.784v1.618
		C10.328,19.888,8.112,17.672,7.724,14.875z M14.875,20.276v-1.613c1.923-0.352,3.437-1.866,3.791-3.788h1.61
		C19.888,17.672,17.672,19.888,14.875,20.276z"/>
</g>
<g id="Layer_1">
</g>
</svg>
