<?xml version="1.0" encoding="utf-8"?>
<!-- Generated by IcoMoon.io -->
<!DOCTYPE svg PUBLIC "-//W3C//DTD SVG 1.1//EN" "http://www.w3.org/Graphics/SVG/1.1/DTD/svg11.dtd">
<svg version="1.1" xmlns="http://www.w3.org/2000/svg" xmlns:xlink="http://www.w3.org/1999/xlink" width="512" height="512" viewBox="0 0 512 512"><g id="icomoon-ignore">
</g>
<path d="M320 256c0 35.346-28.654 64-64 64s-64-28.654-64-64c0-35.346 28.654-64 64-64s64 28.654 64 64z"></path>
<path d="M512 192h-41.276c-21.502-72.249-78.475-129.221-150.724-150.724v-41.276h-128v41.276c-72.249 21.502-129.221 78.475-150.724 150.724h-41.276v128h41.276c21.502 72.249 78.475 129.221 150.724 150.724v41.276h128v-41.276c72.249-21.502 129.221-78.475 150.724-150.724h41.276v-128zM418.189 324.493c-8.862 20.952-21.559 39.779-37.738 55.958s-35.006 28.876-55.958 37.738c-1.49 0.63-2.989 1.235-4.493 1.822v-4.011h-128v4.011c-1.504-0.587-3.002-1.192-4.493-1.822-20.952-8.862-39.779-21.559-55.958-37.738s-28.876-35.006-37.738-55.958c-0.63-1.49-1.235-2.989-1.823-4.493h4.011v-128h-4.011c0.588-1.504 1.192-3.002 1.823-4.493 8.862-20.952 21.559-39.779 37.738-55.958s35.006-28.876 55.958-37.738c1.49-0.63 2.989-1.235 4.493-1.823v4.011h128v-4.011c1.503 0.588 3.002 1.192 4.493 1.823 20.952 8.862 39.779 21.559 55.958 37.738s28.876 35.006 37.738 55.958c0.63 1.49 1.235 2.989 1.822 4.493h-4.011v128h4.011c-0.587 1.503-1.192 3.002-1.822 4.493z"></path>
</svg>
