<?xml version="1.0" encoding="utf-8"?>
<!-- Generator: Adobe Illustrator 19.0.0, SVG Export Plug-In . SVG Version: 6.00 Build 0)  -->
<svg version="1.1" id="XMLID_1_" xmlns="http://www.w3.org/2000/svg" xmlns:xlink="http://www.w3.org/1999/xlink" x="0px" y="0px"
	 viewBox="0 0 19.25 19.25" enable-background="new 0 0 19.25 19.25" xml:space="preserve">
<g id="simulation-menu-closed">
	<path d="M18.375,8.75h-0.706c-0.407-3.765-3.405-6.763-7.169-7.169V0.875C10.5,0.392,10.108,0,9.625,0S8.75,0.392,8.75,0.875v0.706
		C4.985,1.987,1.987,4.985,1.581,8.75H0.875C0.392,8.75,0,9.142,0,9.625S0.392,10.5,0.875,10.5h0.706
		c0.407,3.765,3.405,6.763,7.169,7.169v0.706c0,0.483,0.392,0.875,0.875,0.875s0.875-0.392,0.875-0.875v-0.706
		c3.765-0.407,6.763-3.405,7.169-7.169h0.706c0.483,0,0.875-0.392,0.875-0.875S18.858,8.75,18.375,8.75z M15.901,8.75h-1.614
		C13.92,6.846,12.41,5.352,10.5,5.001V3.349C13.297,3.737,15.513,5.953,15.901,8.75z M8.75,8.75H6.821
		C7.113,7.831,7.832,7.112,8.75,6.819V8.75z M8.75,10.5v1.971c-0.931-0.297-1.658-1.033-1.942-1.971C6.808,10.5,8.75,10.5,8.75,10.5
		z M10.5,10.5h1.987c-0.288,0.953-1.034,1.698-1.987,1.985V10.5z M10.5,8.75V6.804c0.94,0.283,1.678,1.012,1.975,1.946H10.5z
		 M8.75,3.349v1.657C6.861,5.371,5.373,6.861,5.009,8.75h-1.66C3.737,5.953,5.953,3.737,8.75,3.349z M3.349,10.5h1.656
		c0.351,1.908,1.843,3.416,3.745,3.784v1.618C5.953,15.513,3.737,13.297,3.349,10.5z M10.5,15.901v-1.613
		c1.923-0.352,3.437-1.866,3.791-3.788h1.61C15.513,13.297,13.297,15.513,10.5,15.901z"/>
</g>
</svg>
