<?xml version="1.0" encoding="iso-8859-1"?>
<!-- Generator: Adobe Illustrator 18.0.0, SVG Export Plug-In . SVG Version: 6.00 Build 0)  -->
<!DOCTYPE svg PUBLIC "-//W3C//DTD SVG 1.1//EN" "http://www.w3.org/Graphics/SVG/1.1/DTD/svg11.dtd">
<svg version="1.1" xmlns="http://www.w3.org/2000/svg" xmlns:xlink="http://www.w3.org/1999/xlink" x="0px" y="0px" width="28px"
	 height="28px" viewBox="0 0 28 28" style="enable-background:new 0 0 28 28;" xml:space="preserve">
<g id="simulation-menu">
	<g>
		<path d="M22.268,12.114c-0.722-3.166-3.216-5.66-6.382-6.383V4.522h-3.772v1.209c-3.166,0.722-5.66,3.216-6.382,6.383H4.522v3.772
			h1.21c0.722,3.166,3.216,5.66,6.382,6.383v1.209h3.772v-1.209c3.166-0.722,5.66-3.216,6.382-6.383h1.21v-3.772H22.268z
			 M20.516,15.886c-0.646,2.228-2.402,3.984-4.63,4.63v-0.811h-3.772v0.811c-2.228-0.646-3.984-2.403-4.63-4.63h0.81v-3.772h-0.81
			c0.646-2.228,2.402-3.984,4.63-4.63v0.81h3.772v-0.81c2.228,0.646,3.984,2.403,4.63,4.63h-0.81v3.772H20.516z"/>
		<circle cx="14" cy="14" r="1.886"/>
	</g>
</g>
<g id="Layer_1">
</g>
</svg>
