<?xml version="1.0" encoding="iso-8859-1"?>
<!-- Generator: Adobe Illustrator 18.0.0, SVG Export Plug-In . SVG Version: 6.00 Build 0)  -->
<!DOCTYPE svg PUBLIC "-//W3C//DTD SVG 1.1//EN" "http://www.w3.org/Graphics/SVG/1.1/DTD/svg11.dtd">
<svg version="1.1" xmlns="http://www.w3.org/2000/svg" xmlns:xlink="http://www.w3.org/1999/xlink" x="0px" y="0px"
	 viewBox="0 0 28 28" style="enable-background:new 0 0 28 28;" xml:space="preserve">
<g id="simulation-menu-open">
	<path d="M19.568,7.194L19.07,7.693c-2.95-2.374-7.189-2.374-10.139,0L8.432,7.194c-0.342-0.342-0.896-0.342-1.237,0
		s-0.342,0.896,0,1.237L7.693,8.93c-2.374,2.95-2.374,7.189,0,10.139l-0.499,0.499c-0.342,0.342-0.342,0.896,0,1.237
		s0.896,0.342,1.237,0l0.499-0.499c2.95,2.374,7.189,2.374,10.139,0l0.499,0.499c0.342,0.342,0.896,0.342,1.237,0
		s0.342-0.896,0-1.237l-0.499-0.499c2.374-2.95,2.374-7.189,0-10.139l0.499-0.499c0.342-0.342,0.342-0.896,0-1.237
		S19.91,6.852,19.568,7.194z M17.819,8.943l-1.141,1.141c-1.606-1.087-3.73-1.076-5.328,0.027l-1.169-1.169
		C12.434,7.24,15.566,7.24,17.819,8.943z M8.943,10.181l1.172,1.172c-1.078,1.594-1.077,3.699,0.002,5.293l-1.174,1.174
		C7.24,15.566,7.24,12.434,8.943,10.181z M10.181,19.057l1.171-1.171c1.597,1.101,3.719,1.112,5.324,0.027l1.144,1.144
		C15.566,20.76,12.434,20.76,10.181,19.057z M19.057,17.819l-1.141-1.141c1.11-1.609,1.111-3.75,0.002-5.359l1.139-1.139
		C20.76,12.434,20.76,15.566,19.057,17.819z"/>
</g>
<g id="Layer_1">
</g>
</svg>
