<?xml version="1.0" encoding="utf-8"?>
<!-- Generator: Adobe Illustrator 19.0.0, SVG Export Plug-In . SVG Version: 6.00 Build 0)  -->
<svg version="1.1" id="XMLID_1_" xmlns="http://www.w3.org/2000/svg" xmlns:xlink="http://www.w3.org/1999/xlink" x="0px" y="0px"
	 viewBox="0 0 16.174 16.174" enable-background="new 0 0 16.174 16.174" xml:space="preserve">
<g id="simulation-menu-open">
	<path d="M13.6555,1.2815l-0.498,0.499c-2.95-2.374-7.189-2.374-10.139,0l-0.499-0.499c-0.342-0.342-0.896-0.342-1.237,0
		s-0.342,0.896,0,1.237l0.498,0.499c-2.374,2.95-2.374,7.189,0,10.139l-0.499,0.499c-0.342,0.342-0.342,0.896,0,1.237
		s0.896,0.342,1.237,0l0.499-0.499c2.95,2.374,7.189,2.374,10.139,0l0.499,0.499c0.342,0.342,0.896,0.342,1.237,0
		s0.342-0.896,0-1.237l-0.499-0.499c2.374-2.95,2.374-7.189,0-10.139l0.499-0.499c0.342-0.342,0.342-0.896,0-1.237
		S13.9975,0.9395,13.6555,1.2815z M11.9065,3.0305l-1.141,1.141c-1.606-1.087-3.73-1.076-5.328,0.027l-1.169-1.169
		C6.5215,1.3275,9.6535,1.3275,11.9065,3.0305z M3.0305,4.2685l1.172,1.172c-1.078,1.594-1.077,3.699,0.002,5.293l-1.174,1.174
		C1.3275,9.6535,1.3275,6.5215,3.0305,4.2685z M4.2685,13.1445l1.171-1.171c1.597,1.101,3.719,1.112,5.324,0.027l1.144,1.144
		C9.6535,14.8475,6.5215,14.8475,4.2685,13.1445z M13.1445,11.9065l-1.141-1.141c1.11-1.609,1.111-3.75,0.002-5.359l1.139-1.139
		C14.8475,6.5215,14.8475,9.6535,13.1445,11.9065z"/>
</g>
</svg>
