<?xml version="1.0" encoding="utf-8"?>
<!-- Generator: Adobe Illustrator 19.0.0, SVG Export Plug-In . SVG Version: 6.00 Build 0)  -->
<svg version="1.1" id="XMLID_1_" xmlns="http://www.w3.org/2000/svg" xmlns:xlink="http://www.w3.org/1999/xlink" x="0px" y="0px"
	 viewBox="0 0 18.956 18.956" enable-background="new 0 0 18.956 18.956" xml:space="preserve">
<g id="simulation-menu">
	<g>
		<path d="M17.746,7.592c-0.722-3.166-3.216-5.66-6.382-6.383V0H7.592v1.209C4.426,1.931,1.932,4.425,1.21,7.592H0v3.772h1.21
			c0.722,3.166,3.216,5.66,6.382,6.383v1.209h3.772v-1.209c3.166-0.722,5.66-3.216,6.382-6.383h1.21V7.592
			C18.956,7.592,17.746,7.592,17.746,7.592z M15.994,11.364c-0.646,2.228-2.402,3.984-4.63,4.63v-0.811H7.592v0.811
			c-2.228-0.646-3.984-2.403-4.63-4.63h0.81V7.592h-0.81c0.646-2.228,2.402-3.984,4.63-4.63v0.81h3.772v-0.81
			c2.228,0.646,3.984,2.403,4.63,4.63h-0.81v3.772C15.184,11.364,15.994,11.364,15.994,11.364z"/>
		<circle cx="9.478" cy="9.478" r="1.886"/>
	</g>
</g>
</svg>
