<?xml version="1.0" encoding="utf-8"?>
<!-- Generator: Adobe Illustrator 19.0.0, SVG Export Plug-In . SVG Version: 6.00 Build 0)  -->
<svg version="1.1" id="XMLID_1_" xmlns="http://www.w3.org/2000/svg" xmlns:xlink="http://www.w3.org/1999/xlink" x="0px" y="0px"
	 viewBox="0 0 19.25 19.25" enable-background="new 0 0 19.25 19.25" xml:space="preserve">
<g id="sites">
	<g>
		<path d="M9.625,0C4.318,0,0,4.318,0,9.625s4.318,9.625,9.625,9.625s9.625-4.318,9.625-9.625S14.932,0,9.625,0z M9.625,17.5
			c-4.342,0-7.875-3.533-7.875-7.875S5.283,1.75,9.625,1.75S17.5,5.283,17.5,9.625S13.967,17.5,9.625,17.5z"/>
		<path d="M5.753,13.387l5.186-2.689l2.689-5.186L8.442,8.201L5.753,13.387z M9.694,8.393c0.571,0,1.054,0.483,1.054,1.06
			c0,0.571-0.483,1.054-1.054,1.054c-0.577,0-1.06-0.482-1.06-1.054C8.634,8.875,9.117,8.393,9.694,8.393z"/>
	</g>
</g>
</svg>
