<?xml version="1.0" encoding="iso-8859-1"?>
<!-- Generator: Adobe Illustrator 18.0.0, SVG Export Plug-In . SVG Version: 6.00 Build 0)  -->
<!DOCTYPE svg PUBLIC "-//W3C//DTD SVG 1.1//EN" "http://www.w3.org/Graphics/SVG/1.1/DTD/svg11.dtd">
<svg version="1.1" xmlns="http://www.w3.org/2000/svg" xmlns:xlink="http://www.w3.org/1999/xlink" x="0px" y="0px"
	 viewBox="0 0 28 28" style="enable-background:new 0 0 28 28;" xml:space="preserve">
<g id="sites">
	<g>
		<path d="M14,4.375c-5.307,0-9.625,4.318-9.625,9.625S8.693,23.625,14,23.625s9.625-4.318,9.625-9.625S19.307,4.375,14,4.375z
			 M14,21.875c-4.342,0-7.875-3.533-7.875-7.875c0-4.342,3.533-7.875,7.875-7.875S21.875,9.658,21.875,14
			C21.875,18.342,18.342,21.875,14,21.875z"/>
		<path d="M10.128,17.762l5.186-2.689l2.689-5.186l-5.186,2.689L10.128,17.762z M14.069,12.768c0.571,0,1.054,0.483,1.054,1.06
			c0,0.571-0.483,1.054-1.054,1.054c-0.577,0-1.06-0.482-1.06-1.054C13.009,13.25,13.492,12.768,14.069,12.768z"/>
	</g>
</g>
<g id="Layer_1">
</g>
</svg>
