<?xml version="1.0" encoding="utf-8"?>
<!-- Generator: Adobe Illustrator 19.0.0, SVG Export Plug-In . SVG Version: 6.00 Build 0)  -->
<svg version="1.1" id="XMLID_1_" xmlns="http://www.w3.org/2000/svg" xmlns:xlink="http://www.w3.org/1999/xlink" x="0px" y="0px"
	 viewBox="0 0 19 18.9539" enable-background="new 0 0 19 18.9539" xml:space="preserve">
<g id="staging">
	<g>
		<circle cx="9.5" cy="9.5039" r="4"/>
		<path d="M1.724,6.0629L0.81,5.6589c-0.269,0.606-0.474,1.243-0.609,1.89l0.979,0.205C1.301,7.1749,1.485,6.6059,1.724,6.0629z"/>
		<path d="M1,9.5219l-1,0.002c0.001,0.664,0.071,1.328,0.209,1.973l0.978-0.209C1.064,10.7109,1.001,10.1169,1,9.5219z"/>
		<path d="M3.796,3.2019l-0.671-0.742c-0.491,0.445-0.936,0.942-1.324,1.478l0.81,0.587C2.958,4.0449,3.357,3.5999,3.796,3.2019z"/>
		<path d="M6.849,1.4249l-0.312-0.95c-0.629,0.207-1.238,0.48-1.811,0.813l0.503,0.864C5.741,1.8539,6.286,1.6099,6.849,1.4249z"/>
		<path d="M18.786,7.4919c-0.14-0.647-0.349-1.282-0.62-1.886l-0.912,0.41c0.243,0.54,0.43,1.108,0.556,1.688L18.786,7.4919z"/>
		<path d="M9.487,1.0039c0.298,0.007,0.587,0.014,0.875,0.043l0.099-0.995c-0.321-0.032-0.684-0.063-0.975-0.048
			c-0.341,0-0.677,0.019-1.008,0.054l0.106,0.994C8.882,1.0199,9.182,1.0039,9.487,1.0039z"/>
		<path d="M0.826,13.3849c0.27,0.604,0.605,1.181,0.996,1.716l0.808-0.59c-0.35-0.479-0.649-0.995-0.892-1.534L0.826,13.3849z"/>
		<path d="M16.38,14.4969l0.809,0.588c0.392-0.539,0.726-1.117,0.993-1.719l-0.914-0.406
			C17.028,13.4979,16.729,14.0159,16.38,14.4969z"/>
		<path d="M3.153,16.5729c0.494,0.443,1.034,0.835,1.606,1.165l0.5-0.865c-0.513-0.296-0.997-0.647-1.438-1.044L3.153,16.5729z"/>
		<path d="M18,9.5039c0,0.593-0.062,1.188-0.184,1.768l0.979,0.205c0.136-0.646,0.205-1.31,0.205-1.973v-0.038L18,9.5039z"/>
		<path d="M13.756,16.8639l0.5,0.865c0.571-0.33,1.111-0.723,1.604-1.169l-0.67-0.742C14.749,16.2179,14.265,16.5689,13.756,16.8639
			z"/>
		<path d="M15.831,2.4219l-0.666,0.745c0.441,0.396,0.843,0.838,1.193,1.316l0.807-0.592C16.773,3.3569,16.325,2.8629,15.831,2.4219
			z"/>
		<path d="M12.407,0.4569L12.1,1.4089c0.564,0.181,1.11,0.422,1.625,0.718l0.498-0.867C13.648,0.9289,13.037,0.6589,12.407,0.4569z"
			/>
		<path d="M6.574,18.5449c0.631,0.204,1.285,0.342,1.943,0.409l0.103-0.994c-0.589-0.061-1.174-0.185-1.738-0.366L6.574,18.5449z"/>
		<path d="M10.395,17.9589l0.105,0.994c0.66-0.069,1.313-0.209,1.941-0.413l-0.309-0.951
			C11.571,17.7709,10.986,17.8959,10.395,17.9589z"/>
	</g>
</g>
</svg>
