<?xml version="1.0" encoding="iso-8859-1"?>
<!-- Generator: Adobe Illustrator 18.0.0, SVG Export Plug-In . SVG Version: 6.00 Build 0)  -->
<!DOCTYPE svg PUBLIC "-//W3C//DTD SVG 1.1//EN" "http://www.w3.org/Graphics/SVG/1.1/DTD/svg11.dtd">
<svg version="1.1" xmlns="http://www.w3.org/2000/svg" xmlns:xlink="http://www.w3.org/1999/xlink" x="0px" y="0px"
	 viewBox="0 0 28 28" style="enable-background:new 0 0 28 28;" xml:space="preserve">
<g id="star-o">
	<g>
		<g>
			<path d="M20.14,23.625c-0.155,0-0.311-0.041-0.45-0.125l-5.694-3.416L8.458,23.35c-0.315,0.185-0.713,0.156-0.997-0.075
				c-0.284-0.231-0.394-0.614-0.276-0.961l2.104-6.171l-4.583-3.646c-0.291-0.232-0.404-0.622-0.281-0.973
				c0.123-0.351,0.454-0.587,0.826-0.587h5.687l2.243-5.994C13.308,4.601,13.635,4.375,14,4.375s0.691,0.226,0.82,0.568l2.243,5.994
				h5.687c0.372,0,0.703,0.235,0.826,0.587c0.123,0.351,0.01,0.741-0.281,0.973l-4.577,3.64l2.207,6.208
				c0.063,0.121,0.099,0.258,0.099,0.405c0,0.483-0.391,0.875-0.875,0.875C20.146,23.625,20.143,23.625,20.14,23.625z M14,18.191
				c0.156,0,0.312,0.042,0.45,0.125l4.048,2.429l-1.639-4.609c-0.125-0.352-0.013-0.745,0.28-0.978l3.105-2.47h-3.788
				c-0.365,0-0.692-0.226-0.819-0.568L14,7.746l-1.637,4.373c-0.128,0.342-0.455,0.568-0.819,0.568H7.756l3.105,2.47
				c0.289,0.23,0.403,0.617,0.283,0.967l-1.54,4.518l3.952-2.331C13.693,18.231,13.846,18.191,14,18.191z"/>
		</g>
	</g>
</g>
<g id="Layer_1">
</g>
</svg>
