<?xml version="1.0" encoding="utf-8"?>
<!-- Generator: Adobe Illustrator 19.0.0, SVG Export Plug-In . SVG Version: 6.00 Build 0)  -->
<svg version="1.1" id="XMLID_1_" xmlns="http://www.w3.org/2000/svg" xmlns:xlink="http://www.w3.org/1999/xlink" x="0px" y="0px"
	 viewBox="0 0 19.2493 19.25" enable-background="new 0 0 19.2493 19.25" xml:space="preserve">
<g id="star-o">
	<g>
		<g>
			<path d="M15.7642,19.25c-0.155,0-0.311-0.041-0.45-0.125l-5.694-3.416l-5.538,3.266c-0.315,0.185-0.713,0.156-0.997-0.075
				s-0.394-0.614-0.276-0.961l2.104-6.171l-4.583-3.646C0.0392,7.89-0.0738,7.5,0.0492,7.149c0.123-0.351,0.454-0.587,0.826-0.587
				h5.687l2.243-5.994C8.9322,0.226,9.2592,0,9.6242,0s0.691,0.226,0.82,0.568l2.243,5.994h5.687c0.372,0,0.703,0.235,0.826,0.587
				c0.123,0.351,0.01,0.741-0.281,0.973l-4.577,3.64l2.207,6.208c0.063,0.121,0.099,0.258,0.099,0.405
				c0,0.483-0.391,0.875-0.875,0.875C15.7702,19.25,15.7672,19.25,15.7642,19.25z M9.6242,13.816c0.156,0,0.312,0.042,0.45,0.125
				l4.048,2.429l-1.639-4.609c-0.125-0.352-0.013-0.745,0.28-0.978l3.105-2.47h-3.788c-0.365,0-0.692-0.226-0.819-0.568
				l-1.637-4.374l-1.637,4.373c-0.128,0.342-0.455,0.568-0.819,0.568h-3.788l3.105,2.47c0.289,0.23,0.403,0.617,0.283,0.967
				l-1.54,4.518l3.952-2.331C9.3172,13.856,9.4702,13.816,9.6242,13.816z"/>
		</g>
	</g>
</g>
</svg>
