<?xml version="1.0" encoding="utf-8"?>
<!-- Generator: Adobe Illustrator 19.0.0, SVG Export Plug-In . SVG Version: 6.00 Build 0)  -->
<svg version="1.1" id="XMLID_1_" xmlns="http://www.w3.org/2000/svg" xmlns:xlink="http://www.w3.org/1999/xlink" x="0px" y="0px"
	 viewBox="0 0 19.2503 19.25" enable-background="new 0 0 19.2503 19.25" xml:space="preserve">
<g id="star">
	<path d="M19.2012,7.149c-0.123-0.351-0.454-0.587-0.826-0.587h-5.687l-2.243-5.994C10.3172,0.226,9.9902,0,9.6252,0
		s-0.692,0.226-0.819,0.568l-2.243,5.994h-5.688c-0.372,0-0.703,0.235-0.826,0.587c-0.123,0.351-0.01,0.741,0.281,0.973l4.583,3.646
		l-2.104,6.171c-0.118,0.346-0.008,0.73,0.276,0.961c0.283,0.231,0.681,0.261,0.997,0.075l5.538-3.266l5.695,3.416
		c0.139,0.084,0.295,0.125,0.45,0.125c0.001,0,0.003,0,0.005,0c0.482-0.016,0.879-0.391,0.879-0.875
		c0-0.146-0.035-0.284-0.099-0.405l-2.207-6.207l4.577-3.641C19.2112,7.891,19.3242,7.5,19.2012,7.149z"/>
</g>
</svg>
