<?xml version="1.0" encoding="utf-8"?>
<!-- Generated by IcoMoon.io -->
<!DOCTYPE svg PUBLIC "-//W3C//DTD SVG 1.1//EN" "http://www.w3.org/Graphics/SVG/1.1/DTD/svg11.dtd">
<svg version="1.1" xmlns="http://www.w3.org/2000/svg" xmlns:xlink="http://www.w3.org/1999/xlink" width="512" height="512" viewBox="0 0 512 512"><g id="icomoon-ignore">
</g>
<path d="M508.753 190.647c-3.247-9.265-11.983-15.493-21.802-15.493h-150.106l-59.203-158.208c-3.378-9.027-12.010-14.992-21.644-14.992s-18.264 5.965-21.617 14.992l-59.203 158.208h-150.131c-9.819 0-18.555 6.202-21.802 15.493-3.247 9.265-0.264 19.558 7.417 25.682l120.966 96.234-55.534 162.88c-3.114 9.132-0.212 19.268 7.285 25.365 7.47 6.097 17.975 6.889 26.316 1.979l146.173-86.204 150.317 90.163c3.668 2.217 7.786 3.299 11.877 3.299 0.026 0 0.079 0 0.132 0 12.722-0.422 23.2-10.32 23.2-23.095 0-3.853-0.924-7.496-2.613-10.69l-58.252-163.83 120.807-96.103c7.68-6.097 10.663-16.417 7.417-25.682z"></path>
</svg>
