<?xml version="1.0" encoding="iso-8859-1"?>
<!-- Generator: Adobe Illustrator 18.0.0, SVG Export Plug-In . SVG Version: 6.00 Build 0)  -->
<!DOCTYPE svg PUBLIC "-//W3C//DTD SVG 1.1//EN" "http://www.w3.org/Graphics/SVG/1.1/DTD/svg11.dtd">
<svg version="1.1" xmlns="http://www.w3.org/2000/svg" xmlns:xlink="http://www.w3.org/1999/xlink" x="0px" y="0px"
	 viewBox="0 0 28 28" style="enable-background:new 0 0 28 28;" xml:space="preserve">
<g id="star">
	<path d="M23.576,11.524c-0.123-0.351-0.454-0.587-0.826-0.587h-5.687l-2.243-5.994C14.692,4.601,14.365,4.375,14,4.375
		s-0.692,0.226-0.819,0.568l-2.243,5.994H5.25c-0.372,0-0.703,0.235-0.826,0.587c-0.123,0.351-0.01,0.741,0.281,0.973l4.583,3.646
		l-2.104,6.171c-0.118,0.346-0.008,0.73,0.276,0.961c0.283,0.231,0.681,0.261,0.997,0.075l5.538-3.266L19.69,23.5
		c0.139,0.084,0.295,0.125,0.45,0.125c0.001,0,0.003,0,0.005,0c0.482-0.016,0.879-0.391,0.879-0.875
		c0-0.146-0.035-0.284-0.099-0.405l-2.207-6.207l4.577-3.641C23.586,12.266,23.699,11.875,23.576,11.524z"/>
</g>
<g id="Layer_1">
</g>
</svg>
