<?xml version="1.0" encoding="utf-8"?>
<!-- Generator: Adobe Illustrator 19.0.0, SVG Export Plug-In . SVG Version: 6.00 Build 0)  -->
<svg version="1.1" id="XMLID_1_" xmlns="http://www.w3.org/2000/svg" xmlns:xlink="http://www.w3.org/1999/xlink" x="0px" y="0px"
	 viewBox="0 0 14 14" enable-background="new 0 0 14 14" xml:space="preserve">
<g id="strikethrough">
	<path d="M14,6.125H9.22C8.945,6.03,8.654,5.951,8.342,5.892L6.47,5.533c-0.491-0.102-0.857-0.288-1.097-0.56
		c-0.239-0.271-0.359-0.59-0.359-0.956c0-0.228,0.051-0.442,0.151-0.644c0.102-0.202,0.243-0.382,0.426-0.54
		c0.182-0.159,0.403-0.285,0.662-0.379c0.258-0.096,0.545-0.142,0.86-0.142c0.428,0,0.791,0.063,1.086,0.19
		c0.297,0.125,0.54,0.284,0.728,0.473C9.116,3.165,9.259,3.37,9.353,3.59s0.16,0.427,0.198,0.615l2.345-0.72
		c-0.075-0.378-0.218-0.772-0.426-1.184c-0.208-0.41-0.5-0.785-0.879-1.127c-0.378-0.341-0.854-0.621-1.428-0.842
		C8.59,0.111,7.901,0,7.095,0C6.464,0,5.866,0.108,5.298,0.322C4.732,0.538,4.233,0.834,3.804,1.213
		C3.376,1.592,3.039,2.036,2.793,2.548C2.547,3.06,2.424,3.612,2.424,4.205c0,0.734,0.171,1.371,0.498,1.919H0v1.75h5.275
		c0.213,0.068,0.432,0.13,0.666,0.177L7.812,8.43c0.531,0.1,0.934,0.293,1.211,0.577C9.3,9.292,9.438,9.63,9.438,10.021
		c0,0.479-0.186,0.874-0.557,1.184c-0.372,0.31-0.911,0.464-1.617,0.464c-0.479,0-0.895-0.069-1.248-0.208
		c-0.352-0.139-0.649-0.325-0.888-0.56c-0.24-0.233-0.426-0.501-0.558-0.805S4.359,9.478,4.335,9.149l-2.42,0.643
		c0.049,0.481,0.189,0.97,0.415,1.469c0.226,0.498,0.557,0.95,0.992,1.354c0.435,0.405,0.974,0.737,1.617,0.994
		C5.582,13.87,6.35,14,7.245,14c0.782,0,1.471-0.12,2.069-0.359c0.599-0.24,1.103-0.552,1.512-0.937
		c0.411-0.385,0.722-0.828,0.937-1.327c0.214-0.498,0.322-1.007,0.322-1.525c0-0.467-0.083-0.916-0.246-1.344
		c-0.085-0.222-0.191-0.432-0.316-0.632H14V6.125z"/>
</g>
</svg>
