<?xml version="1.0" encoding="utf-8"?>
<!-- Generator: Adobe Illustrator 19.0.0, SVG Export Plug-In . SVG Version: 6.00 Build 0)  -->
<svg version="1.1" id="XMLID_1_" xmlns="http://www.w3.org/2000/svg" xmlns:xlink="http://www.w3.org/1999/xlink" x="0px" y="0px"
	 viewBox="0 0 15.75 14.875" enable-background="new 0 0 15.75 14.875" xml:space="preserve">
<g id="suitcase">
	<g>
		<g>
			<g>
				<path d="M13.125,2.626h-1.334c0.008-0.072,0.022-0.143,0.022-0.217V1.967C11.813,0.882,10.931,0,9.846,0H5.905
					C4.82,0,3.938,0.882,3.938,1.967v0.441c0,0.074,0.014,0.145,0.022,0.217H2.625C1.177,2.625,0,3.802,0,5.25v7
					c0,1.448,1.177,2.625,2.625,2.625h10.5c1.448,0,2.625-1.177,2.625-2.625v-7C15.75,3.803,14.573,2.626,13.125,2.626z
					 M5.687,2.409V1.967c0-0.12,0.097-0.217,0.217-0.217h3.941c0.12,0,0.217,0.097,0.217,0.217v0.441
					c0,0.116-0.101,0.217-0.217,0.217H5.904C5.785,2.626,5.687,2.528,5.687,2.409z M14,12.25c0,0.483-0.392,0.875-0.875,0.875h-10.5
					c-0.483,0-0.875-0.392-0.875-0.875v-7c0-0.483,0.392-0.875,0.875-0.875h3.279h3.941h3.279c0.483,0,0.875,0.392,0.875,0.875v7H14
					z"/>
			</g>
		</g>
	</g>
</g>
</svg>
