<?xml version="1.0" encoding="iso-8859-1"?>
<!-- Generator: Adobe Illustrator 18.0.0, SVG Export Plug-In . SVG Version: 6.00 Build 0)  -->
<!DOCTYPE svg PUBLIC "-//W3C//DTD SVG 1.1//EN" "http://www.w3.org/Graphics/SVG/1.1/DTD/svg11.dtd">
<svg version="1.1" xmlns="http://www.w3.org/2000/svg" xmlns:xlink="http://www.w3.org/1999/xlink" x="0px" y="0px"
	 viewBox="0 0 28 28" style="enable-background:new 0 0 28 28;" xml:space="preserve">
<g id="suitcase">
	<g>
		<g>
			<g>
				<path d="M19.25,9.188h-1.334c0.008-0.072,0.022-0.143,0.022-0.217V8.529c0-1.085-0.882-1.967-1.967-1.967h-3.941
					c-1.085,0-1.967,0.882-1.967,1.967v0.441c0,0.074,0.014,0.145,0.022,0.217H8.75c-1.448,0-2.625,1.177-2.625,2.625v7
					c0,1.448,1.177,2.625,2.625,2.625h10.5c1.448,0,2.625-1.177,2.625-2.625v-7C21.875,10.365,20.698,9.188,19.25,9.188z
					 M11.812,8.971V8.529c0-0.12,0.097-0.217,0.217-0.217h3.941c0.12,0,0.217,0.097,0.217,0.217v0.441
					c0,0.116-0.101,0.217-0.217,0.217h-3.941C11.91,9.188,11.812,9.09,11.812,8.971z M20.125,18.812
					c0,0.483-0.392,0.875-0.875,0.875H8.75c-0.483,0-0.875-0.392-0.875-0.875v-7c0-0.483,0.392-0.875,0.875-0.875h3.279h3.941h3.279
					c0.483,0,0.875,0.392,0.875,0.875V18.812z"/>
			</g>
		</g>
	</g>
</g>
<g id="Layer_1">
</g>
</svg>
