<?xml version="1.0" encoding="utf-8"?>
<!-- Generator: Adobe Illustrator 19.0.0, SVG Export Plug-In . SVG Version: 6.00 Build 0)  -->
<svg version="1.1" id="XMLID_1_" xmlns="http://www.w3.org/2000/svg" xmlns:xlink="http://www.w3.org/1999/xlink" x="0px" y="0px"
	 viewBox="0 0 15.75 15.75" enable-background="new 0 0 15.75 15.75" xml:space="preserve">
<g id="sun.svg">
	<g>
		<path d="M7.839,3.256c-2.564,0-4.643,2.068-4.643,4.619s2.079,4.619,4.643,4.619s4.642-2.068,4.642-4.619
			C12.481,5.324,10.403,3.256,7.839,3.256z M7.839,10.744c-1.595,0-2.893-1.287-2.893-2.869s1.298-2.869,2.893-2.869
			s2.892,1.287,2.892,2.869S9.434,10.744,7.839,10.744z"/>
		<path d="M7.766,2.905c0.483,0,0.875-0.392,0.875-0.875V0.875C8.641,0.392,8.249,0,7.766,0S6.891,0.392,6.891,0.875V2.03
			C6.891,2.513,7.283,2.905,7.766,2.905z"/>
		<path d="M7.766,12.845c-0.483,0-0.875,0.392-0.875,0.875v1.155c0,0.483,0.392,0.875,0.875,0.875s0.875-0.392,0.875-0.875V13.72
			C8.641,13.237,8.249,12.845,7.766,12.845z"/>
		<path d="M2.911,7.875C2.911,7.392,2.519,7,2.036,7H0.875C0.392,7,0,7.392,0,7.875S0.392,8.75,0.875,8.75h1.161
			C2.519,8.75,2.911,8.358,2.911,7.875z"/>
		<path d="M14.875,7h-1.161c-0.483,0-0.875,0.392-0.875,0.875s0.392,0.875,0.875,0.875h1.161c0.483,0,0.875-0.392,0.875-0.875
			S15.358,7,14.875,7z"/>
		<path d="M11.998,4.612c0.223,0,0.446-0.085,0.617-0.255l0.821-0.816c0.343-0.341,0.344-0.895,0.003-1.237
			c-0.341-0.342-0.895-0.345-1.237-0.003l-0.821,0.816c-0.343,0.341-0.344,0.895-0.003,1.238
			C11.549,4.526,11.774,4.612,11.998,4.612z"/>
		<path d="M12.616,11.465c-0.343-0.341-0.897-0.339-1.238,0.003c-0.341,0.342-0.339,0.897,0.003,1.237l0.821,0.817
			c0.171,0.17,0.394,0.255,0.617,0.255c0.225,0,0.449-0.086,0.62-0.258c0.341-0.343,0.339-0.897-0.003-1.238L12.616,11.465z"/>
		<path d="M3.062,4.357c0.171,0.17,0.394,0.255,0.617,0.255c0.225,0,0.449-0.086,0.62-0.258C4.64,4.011,4.638,3.457,4.296,3.116
			L3.476,2.3C3.133,1.96,2.579,1.961,2.238,2.303C1.897,2.646,1.899,3.2,2.241,3.541L3.062,4.357z"/>
		<path d="M3.062,11.418l-0.821,0.817c-0.343,0.341-0.344,0.895-0.003,1.238c0.171,0.172,0.395,0.258,0.62,0.258
			c0.223,0,0.446-0.085,0.617-0.255l0.821-0.817c0.343-0.341,0.344-0.895,0.003-1.237C3.959,11.078,3.405,11.077,3.062,11.418z"/>
	</g>
</g>
</svg>