<?xml version="1.0" encoding="iso-8859-1"?>
<!-- Generator: Adobe Illustrator 18.0.0, SVG Export Plug-In . SVG Version: 6.00 Build 0)  -->
<!DOCTYPE svg PUBLIC "-//W3C//DTD SVG 1.1//EN" "http://www.w3.org/Graphics/SVG/1.1/DTD/svg11.dtd">
<svg version="1.1" xmlns="http://www.w3.org/2000/svg" xmlns:xlink="http://www.w3.org/1999/xlink" x="0px" y="0px"
	 viewBox="0 0 28 28" style="enable-background:new 0 0 28 28;" xml:space="preserve">
<g id="table2">
	<path d="M20.125,6.125H7.875c-0.965,0-1.75,0.785-1.75,1.75v12.25c0,0.965,0.785,1.75,1.75,1.75h12.25
		c0.965,0,1.75-0.785,1.75-1.75V7.875C21.875,6.91,21.09,6.125,20.125,6.125z M12.688,15.312V12.25h2.625v3.062H12.688z
		 M15.313,17.062v3.062h-2.625v-3.062H15.313z M7.875,12.25h3.062v3.062H7.875V12.25z M12.688,10.5V7.875h2.625V10.5H12.688z
		 M17.063,12.25h3.063l0,3.062h-3.063V12.25z M20.125,10.5h-3.063V7.875h3.062L20.125,10.5z M10.938,7.875V10.5H7.875V7.875H10.938z
		 M7.875,17.062h3.062v3.062H7.875V17.062z M17.063,20.125v-3.062h3.063l0,3.062H17.063z"/>
</g>
<g id="Layer_1">
</g>
</svg>
