<?xml version="1.0" encoding="utf-8"?>
<!-- Generator: Adobe Illustrator 19.0.0, SVG Export Plug-In . SVG Version: 6.00 Build 0)  -->
<svg version="1.1" id="thumbs-up" xmlns="http://www.w3.org/2000/svg" xmlns:xlink="http://www.w3.org/1999/xlink" x="0px" y="0px"
	 viewBox="0 0 512 512.0073" enable-background="new 0 0 512 512.0073" xml:space="preserve">
<g>
	<path d="M503.3174,185.1733c-4.458-8.335-13.3691-19.1167-30.5049-23.1465c-8.1143-1.9082-16.2256-1.9082-24.79-1.9082
		l-108.1934-0.0752c4.0459-9.1157,7.6436-18.6064,10.6699-29.3853c14.7412-40.8804,13.3096-77.0439-4.0645-101.9512
		C333.5205,10.1948,313.0869,0,288.8965,0c-0.4717,0-0.9395,0.0039-1.416,0.0117l-0.2012,0.0039
		c-23.9658,0.5396-47.2593,15.7168-69.2324,45.1089c-12.5864,16.8359-21.1509,33.5454-22.5635,36.3613l-57.3862,110.5215H96v319.998
		l215.8242,0.002c21.8496,0,54.0186-12.4922,80.0479-31.0859C428.0664,455.0669,448,420.6489,448,384.0073v-35.9502
		c7.6533-2.1387,15.5908-5.3438,23.2539-10.0684C489.8418,326.5298,512,303.0044,512,256.0073
		C512,218.0444,511.1787,199.8716,503.3174,185.1733z M418.0908,288.0298c-0.5547,0-1.04-0.0078-1.4434-0.0156L384,287.353v96.6543
		c0,19.4473-15.5342,34.8174-28.5664,44.2871c-18.6426,13.5469-38.4824,19.4961-43.6787,19.7129H160v-192h16.9795l75.4204-145.2539
		l0.3105-0.6143c0.0562-0.1138,5.8433-11.7163,14.6128-23.9805c11.3301-15.8467,19.3799-21.2236,21.9473-22.1562
		c3.791,0.0566,4.4287,0.9702,4.6729,1.3208c3.2646,4.6802,4.9004,20.3975-3.9746,44.5166l-0.4717,1.2822l-0.3613,1.3184
		c-4.5146,16.4902-11.2568,29.4551-20.5869,47.3994c-2.8965,5.5693-5.8916,11.3286-9.1436,17.8027l-23.2734,46.3286l211.292,0.147
		C448,234.2554,448,248.5571,448,256.0073C448,275.228,442.9141,288.0298,418.0908,288.0298z"/>
	<path d="M32,192.0073c-17.6733,0-32,14.3267-32,32v256c0,17.6729,14.3267,32,32,32s32-14.3271,32-32v-256
		C64,206.334,49.6733,192.0073,32,192.0073z"/>
</g>
</svg>
