<?xml version="1.0" encoding="utf-8"?>
<!-- Generated by IcoMoon.io -->
<!DOCTYPE svg PUBLIC "-//W3C//DTD SVG 1.1//EN" "http://www.w3.org/Graphics/SVG/1.1/DTD/svg11.dtd">
<svg version="1.1" xmlns="http://www.w3.org/2000/svg" xmlns:xlink="http://www.w3.org/1999/xlink" width="512" height="512" viewBox="0 0 512 512"><g id="icomoon-ignore">
</g>
<path d="M352.543 64l31.457 18.166v188.907l-0.029 0-14.712 7.356c-4.709 2.368-8.553 6.185-10.894 10.894l-89.606 179.211c-4.397 3.639-8.433 4.945-11.978 4.945-7.012 0-12.113-5.103-14.352-7.341-7.188-10.058 4.625-70.102 39.816-140.983 3.762-7.551 3.344-16.522-1.115-23.683s-12.288-11.536-20.73-11.536h-168.429c-1.281-0.111-10.337-0.947-18.612-5.517-9.668-5.377-13.987-13.513-13.987-26.442s4.319-21.092 13.987-26.441c8.972-4.987 18.891-5.545 19.002-5.545 13.012-0.418 23.181-10.951 23.377-23.962 0-0.334 0.864-37.893 14.014-74.169 15.547-42.964 39.871-63.861 74.338-63.861h148.452zM361.12 32h-157.028c-25.020 0-46.929 7.922-65.115 23.546-8.582 7.372-16.328 16.537-23.023 27.24-6.168 9.858-11.648 21.361-16.289 34.186-11.507 31.742-14.716 63.809-15.597 77.79-1.48 0.231-2.998 0.507-4.489 0.822-7.894 1.666-15.198 4.341-21.709 7.953v0c-13.912 7.697-30.494 23.391-30.494 54.441 0 30.978 16.549 46.685 30.433 54.407l0.086 0.048c12.935 7.142 26.212 8.942 31.321 9.384l1.377 0.119h157.666c-14.314 30.375-25.839 61.437-32.805 88.56-3.612 14.063-5.859 26.447-6.681 36.808-0.486 6.123-0.47 11.432 0.048 16.231 0.908 8.409 3.386 15.346 7.577 21.209l1.537 2.151 1.87 1.87c1.757 1.757 5.413 5.413 10.773 8.841 8.053 5.151 17.115 7.873 26.207 7.873 7.996 0 20.104-2.132 32.381-12.293l5.2-4.303 91.486-182.971 5.955-2.978 24.197-0.446v-238.795l-54.88-31.694z"></path>
<path d="M480.004 288v0c-17.671 0-31.996-14.325-31.996-31.996v-192.008c0-17.671 14.325-31.996 31.996-31.996v0c17.671 0 31.996 14.325 31.996 31.996v192.008c0 17.671-14.325 31.996-31.996 31.996z"></path>
</svg>
