<?xml version="1.0" encoding="utf-8"?>
<!-- Generator: Adobe Illustrator 19.0.0, SVG Export Plug-In . SVG Version: 6.00 Build 0)  -->
<svg version="1.1" id="XMLID_1_" xmlns="http://www.w3.org/2000/svg" xmlns:xlink="http://www.w3.org/1999/xlink" x="0px" y="0px"
	 viewBox="0 0 18.375 18.2362" enable-background="new 0 0 18.375 18.2362" xml:space="preserve">
<g id="thumbs-up">
	<g>
		<path d="M3.662,17.0582l1.77,1.022c0.133,0.077,0.284,0.117,0.438,0.117h0.758h4.298h0.506c3.437,0,4.648-3.561,4.878-5.951
			c1.011-0.306,2.065-1.147,2.065-2.761c0-2.06-1.716-2.861-2.87-2.897c-0.009,0-0.018,0-0.027,0h-3.541h-0.506h-0.669
			c0.177-0.423,0.371-0.92,0.546-1.441c0.749-2.221,0.744-3.61-0.017-4.371c-0.652-0.652-1.316-0.782-1.759-0.776
			c-1.005,0.014-1.696,0.713-1.771,0.793c-0.059,0.062-0.109,0.133-0.147,0.21l-3.156,6.312l-0.75,0.375
			c-0.296,0.148-0.484,0.451-0.484,0.783v7.827C3.225,16.6132,3.392,16.9022,3.662,17.0582z M4.975,9.0142l0.528-0.264
			c0.169-0.085,0.307-0.222,0.391-0.391l3.216-6.432c0.47-0.389,0.824-0.035,0.945,0.086c0.258,0.361-0.166,2.516-1.429,5.06
			c-0.135,0.271-0.12,0.593,0.04,0.85c0.16,0.257,0.441,0.414,0.744,0.414h2.023h0.506h3.518c0.046,0.004,0.371,0.034,0.668,0.198
			c0.347,0.193,0.502,0.485,0.502,0.949c0,0.464-0.155,0.757-0.502,0.949c-0.322,0.179-0.678,0.199-0.682,0.199
			c-0.467,0.015-0.832,0.393-0.839,0.86c0,0.012-0.031,1.36-0.503,2.662c-0.558,1.542-1.431,2.292-2.668,2.292h-0.506H6.629H6.105
			l-1.129-0.652v-6.78H4.975z"/>
		<path d="M0.833,18.2362c0.458,0,0.833-0.375,0.833-0.833v-8.175c0-0.458-0.375-0.833-0.833-0.833S0,8.7702,0,9.2282v8.175
			C-0.001,17.8612,0.375,18.2362,0.833,18.2362z"/>
	</g>
</g>
</svg>
