<?xml version="1.0" encoding="utf-8"?>
<!-- Generator: Adobe Illustrator 19.0.0, SVG Export Plug-In . SVG Version: 6.00 Build 0)  -->
<svg version="1.1" id="XMLID_1_" xmlns="http://www.w3.org/2000/svg" xmlns:xlink="http://www.w3.org/1999/xlink" x="0px" y="0px"
	 viewBox="0 0 18.375 18.2362" enable-background="new 0 0 18.375 18.2362" xml:space="preserve">
<g id="thumbs-down">
	<g>
		<path d="M14.713,1.178l-1.77-1.022c-0.133-0.077-0.284-0.117-0.438-0.117h-0.758H7.449H6.943c-3.437,0-4.648,3.561-4.878,5.951
			C1.054,6.296,0,7.137,0,8.751c0,2.06,1.716,2.861,2.87,2.897c0.009,0,0.018,0,0.027,0h3.539h0.506h0.669
			c-0.177,0.423-0.371,0.92-0.546,1.441c-0.749,2.221-0.744,3.61,0.017,4.371c0.652,0.652,1.316,0.782,1.759,0.776
			c1.005-0.014,1.696-0.713,1.771-0.793c0.059-0.062,0.109-0.133,0.147-0.21l3.156-6.312l0.75-0.375
			c0.296-0.148,0.484-0.451,0.484-0.783V1.935C15.15,1.623,14.983,1.334,14.713,1.178z M13.4,9.222l-0.528,0.264
			c-0.169,0.085-0.307,0.222-0.391,0.391l-3.216,6.432c-0.47,0.389-0.824,0.035-0.945-0.086c-0.258-0.361,0.166-2.516,1.429-5.06
			c0.135-0.271,0.12-0.593-0.04-0.85S9.268,9.899,8.965,9.899H6.942H6.438H2.92C2.874,9.895,2.549,9.865,2.252,9.701
			C1.905,9.508,1.75,9.216,1.75,8.752c0-0.464,0.155-0.757,0.502-0.949C2.574,7.624,2.93,7.604,2.934,7.604
			c0.467-0.015,0.832-0.393,0.839-0.86c0-0.012,0.031-1.36,0.503-2.662C4.834,2.54,5.707,1.79,6.944,1.79H7.45h4.298h0.524
			l1.129,0.652v6.78H13.4z"/>
		<path d="M17.542,0c-0.458,0-0.833,0.375-0.833,0.833v8.175c0,0.458,0.375,0.833,0.833,0.833s0.833-0.375,0.833-0.833V0.833
			C18.376,0.375,18,0,17.542,0z"/>
	</g>
</g>
</svg>
