<?xml version="1.0" encoding="iso-8859-1"?>
<!-- Generator: Adobe Illustrator 18.0.0, SVG Export Plug-In . SVG Version: 6.00 Build 0)  -->
<!DOCTYPE svg PUBLIC "-//W3C//DTD SVG 1.1//EN" "http://www.w3.org/Graphics/SVG/1.1/DTD/svg11.dtd">
<svg version="1.1" xmlns="http://www.w3.org/2000/svg" xmlns:xlink="http://www.w3.org/1999/xlink" x="0px" y="0px"
	 viewBox="0 0 28 28" style="enable-background:new 0 0 28 28;" xml:space="preserve">
<g id="thumbs-down">
	<g>
		<path d="M19.525,6.06l-1.77-1.022c-0.133-0.077-0.284-0.117-0.438-0.117h-0.758h-4.298h-0.506c-3.437,0-4.648,3.561-4.878,5.951
			c-1.011,0.306-2.065,1.147-2.065,2.761c0,2.06,1.716,2.861,2.87,2.897c0.009,0,0.018,0,0.027,0h3.539h0.506h0.669
			c-0.177,0.423-0.371,0.92-0.546,1.441c-0.749,2.221-0.744,3.61,0.017,4.371c0.652,0.652,1.316,0.782,1.759,0.776
			c1.005-0.014,1.696-0.713,1.771-0.793c0.059-0.062,0.109-0.133,0.147-0.21l3.156-6.312l0.75-0.375
			c0.296-0.148,0.484-0.451,0.484-0.783V6.817C19.962,6.505,19.795,6.216,19.525,6.06z M18.212,14.104l-0.528,0.264
			c-0.169,0.085-0.307,0.222-0.391,0.391l-3.216,6.432c-0.47,0.389-0.824,0.035-0.945-0.086c-0.258-0.361,0.166-2.516,1.429-5.06
			c0.135-0.271,0.12-0.593-0.04-0.85c-0.16-0.257-0.441-0.414-0.744-0.414h-2.023H11.25H7.732c-0.046-0.004-0.371-0.034-0.668-0.198
			c-0.347-0.193-0.502-0.485-0.502-0.949c0-0.464,0.155-0.757,0.502-0.949c0.322-0.179,0.678-0.199,0.682-0.199
			c0.467-0.015,0.832-0.393,0.839-0.86c0-0.012,0.031-1.36,0.503-2.662c0.558-1.542,1.431-2.292,2.668-2.292h0.506h4.298h0.524
			l1.129,0.652V14.104z"/>
		<path d="M22.354,4.882c-0.458,0-0.833,0.375-0.833,0.833v8.175c0,0.458,0.375,0.833,0.833,0.833c0.458,0,0.833-0.375,0.833-0.833
			V5.715C23.188,5.257,22.812,4.882,22.354,4.882z"/>
	</g>
</g>
<g id="Layer_1">
</g>
</svg>
