<?xml version="1.0" encoding="utf-8"?>
<!-- Generator: Adobe Illustrator 19.0.0, SVG Export Plug-In . SVG Version: 6.00 Build 0)  -->
<svg version="1.1" id="XMLID_1_" xmlns="http://www.w3.org/2000/svg" xmlns:xlink="http://www.w3.org/1999/xlink" x="0px" y="0px"
	 viewBox="0 0 15.75 15.7505" enable-background="new 0 0 15.75 15.7505" xml:space="preserve">
<g id="times">
	<path d="M9.1115,7.8755l6.381-6.381c0.342-0.342,0.342-0.896,0-1.237c-0.342-0.342-0.896-0.342-1.237,0l-6.381,6.381l-6.381-6.382
		c-0.341-0.342-0.896-0.342-1.237,0c-0.342,0.342-0.342,0.896,0,1.237l6.381,6.382l-6.381,6.381c-0.342,0.342-0.342,0.896,0,1.237
		c0.17,0.172,0.394,0.257,0.618,0.257s0.448-0.085,0.619-0.256l6.381-6.382l6.381,6.381c0.171,0.171,0.395,0.256,0.619,0.256
		s0.448-0.085,0.619-0.256c0.342-0.342,0.342-0.896,0-1.237L9.1115,7.8755z"/>
</g>
</svg>
