<?xml version="1.0" encoding="utf-8"?>
<!-- Generator: Adobe Illustrator 19.0.0, SVG Export Plug-In . SVG Version: 6.00 Build 0)  -->
<svg version="1.1" id="XMLID_1_" xmlns="http://www.w3.org/2000/svg" xmlns:xlink="http://www.w3.org/1999/xlink" x="0px" y="0px"
	 viewBox="0 0 19.25 19.25" enable-background="new 0 0 19.25 19.25" xml:space="preserve">
<g id="times-circle">
	<g>
		<path d="M9.625,0C4.318,0,0,4.318,0,9.625s4.318,9.625,9.625,9.625s9.625-4.318,9.625-9.625S14.932,0,9.625,0z M9.625,17.5
			c-4.342,0-7.875-3.533-7.875-7.875S5.283,1.75,9.625,1.75S17.5,5.283,17.5,9.625S13.967,17.5,9.625,17.5z"/>
		<path d="M10.796,9.539l2.709-2.708c0.342-0.342,0.342-0.896,0-1.237c-0.342-0.342-0.896-0.342-1.237,0L9.559,8.302L6.764,5.507
			c-0.341-0.342-0.896-0.342-1.237,0c-0.342,0.342-0.342,0.896,0,1.237l2.795,2.795l-2.968,2.968c-0.342,0.342-0.342,0.896,0,1.237
			C5.525,13.915,5.749,14,5.973,14s0.448-0.085,0.619-0.256l2.968-2.968l2.881,2.881c0.171,0.171,0.395,0.256,0.619,0.256
			s0.448-0.085,0.619-0.256c0.342-0.342,0.342-0.896,0-1.237L10.796,9.539z"/>
	</g>
</g>
</svg>
