<?xml version="1.0" encoding="iso-8859-1"?>
<!-- Generator: Adobe Illustrator 18.0.0, SVG Export Plug-In . SVG Version: 6.00 Build 0)  -->
<!DOCTYPE svg PUBLIC "-//W3C//DTD SVG 1.1//EN" "http://www.w3.org/Graphics/SVG/1.1/DTD/svg11.dtd">
<svg version="1.1" xmlns="http://www.w3.org/2000/svg" xmlns:xlink="http://www.w3.org/1999/xlink" x="0px" y="0px"
	 viewBox="0 0 28 28" style="enable-background:new 0 0 28 28;" xml:space="preserve">
<g id="times">
	<path d="M15.237,14l6.381-6.381c0.342-0.342,0.342-0.896,0-1.237c-0.342-0.342-0.896-0.342-1.237,0L14,12.763L7.619,6.381
		c-0.341-0.342-0.896-0.342-1.237,0c-0.342,0.342-0.342,0.896,0,1.237L12.763,14l-6.381,6.381c-0.342,0.342-0.342,0.896,0,1.237
		C6.552,21.79,6.776,21.875,7,21.875s0.448-0.085,0.619-0.256L14,15.237l6.381,6.381c0.171,0.171,0.395,0.256,0.619,0.256
		s0.448-0.085,0.619-0.256c0.342-0.342,0.342-0.896,0-1.237L15.237,14z"/>
</g>
<g id="Layer_1">
</g>
</svg>
