<?xml version="1.0" encoding="utf-8"?>
<!-- Generator: Adobe Illustrator 19.0.0, SVG Export Plug-In . SVG Version: 6.00 Build 0)  -->
<svg version="1.1" id="Layer_1" xmlns="http://www.w3.org/2000/svg" xmlns:xlink="http://www.w3.org/1999/xlink" x="0px" y="0px"
	 viewBox="0 0 14 18.8" enable-background="new 0 0 14 18.8" xml:space="preserve">
<g id="trash.svg">
	<g>
		<path d="M0,4.8v11.4c0,1.4,1.2,2.6,2.6,2.6h8.8c1.4,0,2.6-1.2,2.6-2.6V4.8H0z M12.2,16.2c0,0.5-0.4,0.9-0.9,0.9H2.6
			c-0.5,0-0.9-0.4-0.9-0.9V6.6h10.5V16.2z"/>
		<path d="M14,1.8h-3.5c0-1-0.8-1.8-1.8-1.8H5.2c-1,0-1.8,0.8-1.8,1.8H0v1.8h14V1.8z"/>
		<path d="M4.4,15.1c0.5,0,0.9-0.4,0.9-0.9V9c0-0.5-0.4-0.9-0.9-0.9S3.5,8.5,3.5,9v5.2C3.5,14.7,3.9,15.1,4.4,15.1z"/>
		<path d="M7,15.1c0.5,0,0.9-0.4,0.9-0.9V9c0-0.5-0.4-0.9-0.9-0.9S6.1,8.5,6.1,9v5.2C6.1,14.7,6.5,15.1,7,15.1z"/>
		<path d="M9.6,15.1c0.5,0,0.9-0.4,0.9-0.9V9c0-0.5-0.4-0.9-0.9-0.9S8.8,8.5,8.8,9v5.2C8.8,14.7,9.1,15.1,9.6,15.1z"/>
	</g>
</g>
</svg>
