<?xml version="1.0" encoding="iso-8859-1"?>
<!-- Generator: Adobe Illustrator 18.0.0, SVG Export Plug-In . SVG Version: 6.00 Build 0)  -->
<!DOCTYPE svg PUBLIC "-//W3C//DTD SVG 1.1//EN" "http://www.w3.org/Graphics/SVG/1.1/DTD/svg11.dtd">
<svg version="1.1" xmlns="http://www.w3.org/2000/svg" xmlns:xlink="http://www.w3.org/1999/xlink" x="0px" y="0px"
	 viewBox="0 0 28 28" style="enable-background:new 0 0 28 28;" xml:space="preserve">
<g id="trash">
	<g>
		<path d="M7,9.406v11.375c0,1.448,1.177,2.625,2.625,2.625h8.75c1.448,0,2.625-1.177,2.625-2.625V9.406H7z M19.25,20.781
			c0,0.482-0.393,0.875-0.875,0.875h-8.75c-0.483,0-0.875-0.393-0.875-0.875v-9.625h10.5V20.781z"/>
		<path d="M21,6.344h-3.5c0-0.966-0.784-1.75-1.75-1.75h-3.5c-0.966,0-1.75,0.784-1.75,1.75H7v1.75h14V6.344z"/>
		<path d="M11.375,19.688c0.483,0,0.875-0.392,0.875-0.875v-5.25c0-0.483-0.392-0.875-0.875-0.875c-0.483,0-0.875,0.392-0.875,0.875
			v5.25C10.5,19.296,10.892,19.688,11.375,19.688z"/>
		<path d="M14,19.688c0.483,0,0.875-0.392,0.875-0.875v-5.25c0-0.483-0.392-0.875-0.875-0.875c-0.483,0-0.875,0.392-0.875,0.875
			v5.25C13.125,19.296,13.517,19.688,14,19.688z"/>
		<path d="M16.625,19.688c0.483,0,0.875-0.392,0.875-0.875v-5.25c0-0.483-0.392-0.875-0.875-0.875c-0.483,0-0.875,0.392-0.875,0.875
			v5.25C15.75,19.296,16.142,19.688,16.625,19.688z"/>
	</g>
</g>
<g id="Layer_1">
</g>
</svg>
