<?xml version="1.0" encoding="iso-8859-1"?>
<!-- Generator: Adobe Illustrator 18.0.0, SVG Export Plug-In . SVG Version: 6.00 Build 0)  -->
<!DOCTYPE svg PUBLIC "-//W3C//DTD SVG 1.1//EN" "http://www.w3.org/Graphics/SVG/1.1/DTD/svg11.dtd">
<svg version="1.1" xmlns="http://www.w3.org/2000/svg" xmlns:xlink="http://www.w3.org/1999/xlink" x="0px" y="0px"
	 viewBox="0 0 28 28" style="enable-background:new 0 0 28 28;" xml:space="preserve">
<g id="twitter">
	<g>
		<g>
			<path d="M22.75,8.573c-0.644,0.286-1.336,0.479-2.062,0.565c0.741-0.444,1.311-1.148,1.579-1.986
				c-0.694,0.411-1.462,0.71-2.28,0.871c-0.655-0.698-1.588-1.134-2.621-1.134c-1.983,0-3.59,1.608-3.59,3.59
				c0,0.281,0.032,0.555,0.093,0.818c-2.984-0.15-5.629-1.579-7.4-3.751c-0.309,0.53-0.486,1.147-0.486,1.805
				c0,1.246,0.634,2.345,1.597,2.988c-0.589-0.019-1.142-0.18-1.626-0.449c0,0.015,0,0.03,0,0.045c0,1.74,1.238,3.19,2.88,3.52
				c-0.301,0.082-0.618,0.126-0.946,0.126c-0.231,0-0.456-0.023-0.676-0.065c0.457,1.426,1.783,2.465,3.354,2.493
				c-1.229,0.963-2.777,1.537-4.459,1.537c-0.29,0-0.576-0.017-0.856-0.05c1.589,1.019,3.476,1.613,5.504,1.613
				c6.604,0,10.215-5.471,10.215-10.215c0-0.156-0.004-0.31-0.01-0.464C21.66,9.925,22.269,9.293,22.75,8.573L22.75,8.573z
				 M22.75,8.573"/>
		</g>
	</g>
</g>
<g id="Layer_1">
</g>
</svg>
