<?xml version="1.0" encoding="utf-8"?>
<!-- Generator: Adobe Illustrator 19.0.0, SVG Export Plug-In . SVG Version: 6.00 Build 0)  -->
<svg version="1.1" id="Layer_1" xmlns="http://www.w3.org/2000/svg" xmlns:xlink="http://www.w3.org/1999/xlink" x="0px" y="0px"
	 viewBox="0 0 17.5 14.2" enable-background="new 0 0 17.5 14.2" xml:space="preserve">
<path d="M17.5,1.7c-0.6,0.3-1.3,0.5-2.1,0.6c0.7-0.4,1.3-1.1,1.6-2c-0.7,0.4-1.5,0.7-2.3,0.9C14.1,0.4,13.1,0,12.1,0
	c-2,0-3.6,1.6-3.6,3.6c0,0.3,0,0.6,0.1,0.8C5.6,4.3,3,2.8,1.2,0.7C0.9,1.2,0.7,1.8,0.7,2.5c0,1.2,0.6,2.3,1.6,3
	C1.7,5.4,1.2,5.3,0.7,5c0,0,0,0,0,0c0,1.7,1.2,3.2,2.9,3.5C3.3,8.6,3,8.7,2.6,8.7c-0.2,0-0.5,0-0.7-0.1c0.5,1.4,1.8,2.5,3.4,2.5
	c-1.2,1-2.8,1.5-4.5,1.5c-0.3,0-0.6,0-0.9,0c1.6,1,3.5,1.6,5.5,1.6c6.6,0,10.2-5.5,10.2-10.2c0-0.2,0-0.3,0-0.5
	C16.4,3,17,2.4,17.5,1.7L17.5,1.7z"/>
</svg>
