<?xml version="1.0" encoding="iso-8859-1"?>
<!-- Generator: Adobe Illustrator 18.0.0, SVG Export Plug-In . SVG Version: 6.00 Build 0)  -->
<!DOCTYPE svg PUBLIC "-//W3C//DTD SVG 1.1//EN" "http://www.w3.org/Graphics/SVG/1.1/DTD/svg11.dtd">
<svg version="1.1" xmlns="http://www.w3.org/2000/svg" xmlns:xlink="http://www.w3.org/1999/xlink" x="0px" y="0px"
	 viewBox="0 0 28 28" style="enable-background:new 0 0 28 28;" xml:space="preserve">
<g id="underline">
	<g>
		<g>
			<rect x="9.644" y="19.25" width="8.731" height="1.75"/>
			<path d="M13.983,18.156c-0.609,0-1.179-0.087-1.707-0.262c-0.529-0.174-0.988-0.436-1.378-0.785
				c-0.39-0.349-0.699-0.78-0.928-1.292c-0.231-0.513-0.345-1.103-0.345-1.77V7h2.211v6.894c0,0.718,0.193,1.262,0.576,1.631
				c0.385,0.369,0.909,0.554,1.571,0.554c0.673,0,1.201-0.184,1.585-0.554c0.385-0.369,0.578-0.913,0.578-1.631V7h2.21v7.047
				c0,0.667-0.115,1.257-0.344,1.77c-0.229,0.513-0.54,0.944-0.93,1.292c-0.39,0.349-0.851,0.611-1.386,0.785
				C15.163,18.069,14.592,18.156,13.983,18.156z"/>
		</g>
	</g>
</g>
<g id="Layer_1">
</g>
</svg>
