<?xml version="1.0" encoding="utf-8"?>
<!-- Generator: Adobe Illustrator 19.0.0, SVG Export Plug-In . SVG Version: 6.00 Build 0)  -->
<svg version="1.1" id="Layer_1" xmlns="http://www.w3.org/2000/svg" xmlns:xlink="http://www.w3.org/1999/xlink" x="0px" y="0px"
	 viewBox="0 0 8.8 14" enable-background="new 0 0 8.8 14" xml:space="preserve">
<rect x="0" y="12.2" width="8.7" height="1.8"/>
<path d="M4.4,11.2c-0.6,0-1.2-0.1-1.7-0.3c-0.5-0.2-1-0.4-1.4-0.8C0.9,9.8,0.6,9.3,0.3,8.8C0.1,8.3,0,7.7,0,7V0h2.2v6.9
	c0,0.7,0.2,1.3,0.6,1.6c0.4,0.4,0.9,0.6,1.6,0.6c0.7,0,1.2-0.2,1.6-0.6c0.4-0.4,0.6-0.9,0.6-1.6V0h2.2v7c0,0.7-0.1,1.3-0.3,1.8
	c-0.2,0.5-0.5,0.9-0.9,1.3c-0.4,0.3-0.9,0.6-1.4,0.8C5.5,11.1,5,11.2,4.4,11.2z"/>
</svg>
