<?xml version="1.0" encoding="iso-8859-1"?>
<!-- Generator: Adobe Illustrator 18.0.0, SVG Export Plug-In . SVG Version: 6.00 Build 0)  -->
<!DOCTYPE svg PUBLIC "-//W3C//DTD SVG 1.1//EN" "http://www.w3.org/Graphics/SVG/1.1/DTD/svg11.dtd">
<svg version="1.1" xmlns="http://www.w3.org/2000/svg" xmlns:xlink="http://www.w3.org/1999/xlink" x="0px" y="0px"
	 viewBox="0 0 28 28" style="enable-background:new 0 0 28 28;" xml:space="preserve">
<g id="unlock">
	<g>
		<path d="M18.375,14h-7V9.625C11.375,8.177,12.552,7,14,7s2.625,1.177,2.625,2.625v0.984c0,0.483,0.392,0.875,0.875,0.875
			s0.875-0.392,0.875-0.875V9.625c0-2.412-1.963-4.375-4.375-4.375c-2.412,0-4.375,1.963-4.375,4.375V14
			c-0.965,0-1.75,0.785-1.75,1.75V21c0,0.965,0.785,1.75,1.75,1.75h8.75c0.965,0,1.75-0.785,1.75-1.75v-5.25
			C20.125,14.785,19.34,14,18.375,14z M9.625,21v-5.25h8.75L18.376,21H9.625z"/>
		<rect x="13.234" y="17.5" width="1.75" height="1.75"/>
	</g>
</g>
<g id="Layer_1">
</g>
</svg>
