<?xml version="1.0" encoding="utf-8"?>
<!-- Generated by IcoMoon.io -->
<!DOCTYPE svg PUBLIC "-//W3C//DTD SVG 1.1//EN" "http://www.w3.org/Graphics/SVG/1.1/DTD/svg11.dtd">
<svg version="1.1" xmlns="http://www.w3.org/2000/svg" xmlns:xlink="http://www.w3.org/1999/xlink" width="512" height="512" viewBox="0 0 512 512"><g id="icomoon-ignore">
</g>
<path d="M223.714 352h64v64h-64v-64z"></path>
<path d="M384 256v0h0.002z"></path>
<path d="M384 256h-204.8v-128c0-42.364 34.436-76.8 76.8-76.8s76.8 34.436 76.8 76.8v28.789c0 14.131 11.469 25.6 25.6 25.6s25.6-11.469 25.6-25.6v-28.789c0-70.568-57.432-128-128-128s-128 57.432-128 128v128c-28.233 0-51.2 22.967-51.2 51.2v153.6c0 28.233 22.967 51.2 51.2 51.2h256c28.233 0 51.2-22.967 51.2-51.2v-153.6c0-28.233-22.967-51.2-51.2-51.2zM128 448v-128h256l0.029 128h-256.029z"></path>
</svg>
