<?xml version="1.0" encoding="utf-8"?>
<!-- Generator: Adobe Illustrator 19.0.0, SVG Export Plug-In . SVG Version: 6.00 Build 0)  -->
<svg version="1.1" id="Layer_1" xmlns="http://www.w3.org/2000/svg" xmlns:xlink="http://www.w3.org/1999/xlink" x="0px" y="0px"
	 viewBox="0 0 12.2 17.5" enable-background="new 0 0 12.2 17.5" xml:space="preserve">
<path d="M10.5,8.8h-7V4.4c0-1.4,1.2-2.6,2.6-2.6s2.6,1.2,2.6,2.6v1c0,0.5,0.4,0.9,0.9,0.9s0.9-0.4,0.9-0.9v-1C10.5,2,8.5,0,6.1,0
	S1.8,2,1.8,4.4v4.4c-1,0-1.8,0.8-1.8,1.8v5.2c0,1,0.8,1.8,1.8,1.8h8.8c1,0,1.8-0.8,1.8-1.8v-5.2C12.2,9.5,11.5,8.8,10.5,8.8z
	 M1.8,15.8v-5.2h8.8l0,5.2H1.8z"/>
<rect x="5.4" y="12.2" width="1.8" height="1.8"/>
</svg>
