<?xml version="1.0" encoding="utf-8"?>
<!-- Generator: Adobe Illustrator 19.0.0, SVG Export Plug-In . SVG Version: 6.00 Build 0)  -->
<svg version="1.1" id="users" xmlns="http://www.w3.org/2000/svg" xmlns:xlink="http://www.w3.org/1999/xlink" x="0px" y="0px"
	 viewBox="0 0 21.9 20.9" enable-background="new 0 0 21.9 20.9" xml:space="preserve">
<path d="M17,11c0.9-0.8,1.4-1.9,1.4-3.2c0-2.4-2-4.4-4.4-4.4s-4.4,2-4.4,4.4c0,1.3,0.6,2.4,1.4,3.2c-2.9,1.2-4.9,4-4.9,7.3V20
	c0,0.5,0.4,0.9,0.9,0.9s0.9-0.4,0.9-0.9v-1.8c0-3.4,2.7-6.1,6.1-6.1s6.1,2.7,6.1,6.1V20c0,0.5,0.4,0.9,0.9,0.9s0.9-0.4,0.9-0.9v-1.8
	C21.9,15,19.8,12.1,17,11z M11.4,7.8c0-1.4,1.2-2.6,2.6-2.6c1.4,0,2.6,1.2,2.6,2.6s-1.2,2.6-2.6,2.6S11.4,9.2,11.4,7.8z"/>
<path d="M6.3,6.6c1.8,0,3.3-1.5,3.3-3.3S8.2,0,6.3,0S3.1,1.5,3.1,3.3c0,0.8,0.3,1.5,0.7,2C1.6,6.3,0,8.5,0,11.1v1.4
	c0,0.5,0.4,0.9,0.9,0.9s0.9-0.4,0.9-0.9v-1.4c0-2.5,2-4.5,4.5-4.6C6.3,6.6,6.3,6.6,6.3,6.6z M4.8,3.3c0-0.8,0.7-1.5,1.5-1.5
	s1.5,0.7,1.5,1.5c0,0.8-0.6,1.5-1.4,1.5c0,0-0.1,0-0.1,0c-0.1,0-0.1,0-0.2,0C5.4,4.7,4.8,4.1,4.8,3.3z"/>
</svg>
