<?xml version="1.0" encoding="iso-8859-1"?>
<!-- Generator: Adobe Illustrator 18.0.0, SVG Export Plug-In . SVG Version: 6.00 Build 0)  -->
<!DOCTYPE svg PUBLIC "-//W3C//DTD SVG 1.1//EN" "http://www.w3.org/Graphics/SVG/1.1/DTD/svg11.dtd">
<svg version="1.1" xmlns="http://www.w3.org/2000/svg" xmlns:xlink="http://www.w3.org/1999/xlink" x="0px" y="0px"
	 viewBox="0 0 28 28" style="enable-background:new 0 0 28 28;" xml:space="preserve">
<g id="users">
	<g>
		<path d="M20.017,14.526c0.867-0.8,1.42-1.935,1.42-3.205c0-2.412-1.963-4.375-4.375-4.375c-2.412,0-4.375,1.963-4.375,4.375
			c0,1.27,0.553,2.405,1.42,3.205c-2.881,1.172-4.92,3.997-4.92,7.295v1.75c0,0.483,0.392,0.875,0.875,0.875
			s0.875-0.392,0.875-0.875v-1.75c0-3.377,2.748-6.125,6.125-6.125c3.377,0,6.125,2.748,6.125,6.125v1.75
			c0,0.483,0.392,0.875,0.875,0.875s0.875-0.392,0.875-0.875v-1.75C24.937,18.523,22.899,15.697,20.017,14.526z M14.438,11.32
			c0-1.448,1.177-2.625,2.625-2.625c1.447,0,2.625,1.177,2.625,2.625s-1.177,2.625-2.625,2.625
			C15.615,13.945,14.438,12.768,14.438,11.32z"/>
		<path d="M9.406,10.117c1.809,0,3.281-1.472,3.281-3.281s-1.472-3.281-3.281-3.281S6.125,5.027,6.125,6.836
			c0,0.776,0.282,1.48,0.734,2.042c-2.232,0.984-3.796,3.214-3.796,5.805v1.367c0,0.483,0.392,0.875,0.875,0.875
			s0.875-0.392,0.875-0.875v-1.367c0-2.487,1.989-4.507,4.459-4.58C9.317,10.105,9.36,10.117,9.406,10.117z M7.875,6.836
			c0-0.844,0.687-1.531,1.531-1.531s1.531,0.687,1.531,1.531c0,0.813-0.639,1.474-1.441,1.522C9.465,8.355,9.438,8.34,9.406,8.34
			c-0.061,0-0.12,0.007-0.18,0.009C8.468,8.259,7.875,7.619,7.875,6.836z"/>
	</g>
</g>
<g id="Layer_1">
</g>
</svg>