<?xml version="1.0" encoding="utf-8"?>
<!-- Generated by IcoMoon.io -->
<!DOCTYPE svg PUBLIC "-//W3C//DTD SVG 1.1//EN" "http://www.w3.org/Graphics/SVG/1.1/DTD/svg11.dtd">
<svg version="1.1" xmlns="http://www.w3.org/2000/svg" xmlns:xlink="http://www.w3.org/1999/xlink" width="512" height="512" viewBox="0 0 512 512"><g id="icomoon-ignore">
</g>
<path d="M342.455 221.769c25.365-23.405 41.545-56.613 41.545-93.769 0-70.568-57.432-128-128-128s-128 57.432-128 128c0 37.157 16.179 70.363 41.545 93.769-84.29 34.289-143.945 116.941-143.945 213.431v51.2c0 14.131 11.469 25.6 25.6 25.6s25.6-11.469 25.6-25.6v-51.2c0-98.801 80.398-179.2 179.2-179.2s179.2 80.399 179.2 179.2v51.2c0 14.131 11.469 25.6 25.6 25.6s25.6-11.469 25.6-25.6v-51.2c0-96.461-59.655-179.142-143.945-213.431zM179.2 128c0-42.364 34.436-76.8 76.8-76.8s76.8 34.436 76.8 76.8-34.436 76.8-76.8 76.8-76.8-34.436-76.8-76.8z"></path>
</svg>
