<?xml version="1.0" encoding="utf-8"?>
<!-- Generator: Adobe Illustrator 19.0.0, SVG Export Plug-In . SVG Version: 6.00 Build 0)  -->
<svg version="1.1" id="user" xmlns="http://www.w3.org/2000/svg" xmlns:xlink="http://www.w3.org/1999/xlink" x="0px" y="0px"
	 viewBox="0 0 15.8 17.5" enable-background="new 0 0 15.8 17.5" xml:space="preserve">
<path d="M10.8,7.6c0.9-0.8,1.4-1.9,1.4-3.2c0-2.4-2-4.4-4.4-4.4S3.5,2,3.5,4.4c0,1.3,0.6,2.4,1.4,3.2C2,8.8,0,11.6,0,14.9v1.8
	c0,0.5,0.4,0.9,0.9,0.9s0.9-0.4,0.9-0.9v-1.8c0-3.4,2.7-6.1,6.1-6.1s6.1,2.7,6.1,6.1v1.8c0,0.5,0.4,0.9,0.9,0.9s0.9-0.4,0.9-0.9
	v-1.8C15.8,11.6,13.7,8.8,10.8,7.6z M5.2,4.4c0-1.4,1.2-2.6,2.6-2.6s2.6,1.2,2.6,2.6S9.3,7,7.9,7S5.2,5.8,5.2,4.4z"/>
</svg>
