<?xml version="1.0" encoding="utf-8"?>
<!-- Generator: Adobe Illustrator 19.0.0, SVG Export Plug-In . SVG Version: 6.00 Build 0)  -->
<svg version="1.1" id="wiki" xmlns="http://www.w3.org/2000/svg" xmlns:xlink="http://www.w3.org/1999/xlink" x="0px" y="0px"
	 viewBox="0 0 512 512" enable-background="new 0 0 512 512" xml:space="preserve">
<g>
	<path d="M448,0H64C28.7104,0,0,28.7104,0,64v384c0,35.29,28.7104,64,64,64h384c35.29,0,64-28.71,64-64V64
		C512,28.7104,483.29,0,448,0z M448,448H64V64h384l0.04,383.998C448.04,447.998,448.0273,448,448,448z"/>
	<path d="M384,256H128c-17.6733,0-32,14.3267-32,32s14.3267,32,32,32h256c17.6729,0,32-14.3267,32-32S401.6729,256,384,256z"/>
	<path d="M288,352H128c-17.6733,0-32,14.3271-32,32s14.3267,32,32,32h160c17.6729,0,32-14.3271,32-32S305.6729,352,288,352z"/>
	<path d="M191.0441,200.6423c0.7333,1.8857,1.7548,4.4387,3.0555,7.6591c1.3008,3.2205,2.8111,6.014,4.5222,8.3654
		c1.7111,2.3513,3.8499,4.1671,6.4166,5.432S210.7216,224,214.3882,224c7.1674,0,12.1784-2.0486,15.0331-6.1382
		c2.8547-4.0896,5.4999-10.1579,7.9443-18.1973l18.4553-65.2057l19.0664,65.2057c1.6325,5.2147,3.1341,9.4517,4.5222,12.7109
		c1.3881,3.2592,3.5182,6.014,6.4166,8.2567C288.7072,222.8748,292.688,224,297.734,224c4.8889,0,8.7475-1.0476,11.5586-3.1506
		s4.8713-4.4931,6.1634-7.1703c1.3095-2.6772,3.1428-7.0228,5.4999-13.0369l27.2552-78.4599
		C350.7429,116.0287,352,111.4269,352,108.385c0-3.329-1.4667-6.2313-4.4-8.6912C344.6667,97.2338,341.2097,96,337.2113,96
		c-3.9809,0-7.0364,0.8148-9.1666,2.4444c-2.1127,1.6296-3.6143,3.5153-4.5222,5.6493c-0.8905,2.134-2.0778,5.595-3.5444,10.3752
		l-21.9997,73.6797l-19.791-69.0081c-2.0341-6.1537-3.623-10.4838-4.7666-12.9825c-1.1437-2.4988-3.1166-4.819-5.9277-6.953
		C264.682,97.0709,260.7885,96,255.821,96c-4.8889,0-8.7388,1.0709-11.5499,3.2049c-2.8111,2.134-4.723,4.3844-5.7444,6.7357
		c-1.0214,2.3513-2.5841,6.7512-4.7055,13.1998l-19.7997,69.0081l-21.7552-73.6797c-2.2-6.7357-4.2778-11.5004-6.2333-14.2862
		C184.0775,97.3968,180.3323,96,174.7887,96c-4.1555,0-7.6562,1.2649-10.511,3.8024S160,105.1956,160,108.385
		c0,2.5375,1.3444,7.1315,4.0333,13.7974L191.0441,200.6423z"/>
</g>
</svg>
