<!--
* SPDX-FileCopyrightText: © 2020 Liferay, Inc. <https://liferay.com>
* SPDX-FileCopyrightText: © 2020 Contributors to the project Clay <https://github.com/liferay/clay/graphs/contributors>
*
* SPDX-License-Identifier: BSD-3-Clause
-->
<svg xmlns="http://www.w3.org/2000/svg" viewBox="0 0 512 512">
	<path class="lexicon-icon-outline" d="M479.9,224H320c-44.8-3.4-40.4-62.3,0-64h160C525.4,163.3,519.9,221.9,479.9,224z M479.9,352H320c-44.8-3.4-40.4-62.3,0-64h160C525.4,291.3,519.9,349.9,479.9,352z M192,160H32c-17.7,0-32,14.3-32,32V320c0,17.7,14.3,32,32,32h160c17.7,0,32-14.3,32-32V192C224,174.3,209.7,160,192,160z M479.9,96H32c-43.7-2-41.5-62.2,0-64h448C524.5,34.1,520.8,94.7,479.9,96z M479.9,480H32c-43.7-2-41.5-62.2,0-64h448C524.5,418.1,520.8,478.7,479.9,480z"/>
</svg>