<!--
* SPDX-FileCopyrightText: © 2020 Liferay, Inc. <https://liferay.com>
* SPDX-FileCopyrightText: © 2020 Contributors to the project Clay <https://github.com/liferay/clay/graphs/contributors>
*
* SPDX-License-Identifier: BSD-3-Clause
-->
<svg viewBox="0 0 16 16" xmlns="http://www.w3.org/2000/svg"><path class="lexicon-icon-outline" d="M12.31 2H6.232c-.931 0-1.693.772-1.693 1.715v6.042a2.2 2.2 0 0 0-.423-.042c-1.169 0-2.115.959-2.115 2.142 0 1.184.946 2.143 2.115 2.143 1.169 0 2.116-.959 2.116-2.143V6.286h6.077V8.9a2.201 2.201 0 0 0-.424-.043c-1.168 0-2.115.96-2.115 2.143 0 1.184.947 2.143 2.115 2.143 1.17 0 2.116-.959 2.116-2.143V3.715c0-.943-.762-1.715-1.693-1.715Z" /></svg>