<!--
* SPDX-FileCopyrightText: © 2020 Liferay, Inc. <https://liferay.com>
* SPDX-FileCopyrightText: © 2020 Contributors to the project Clay <https://github.com/liferay/clay/graphs/contributors>
*
* SPDX-License-Identifier: BSD-3-Clause
-->
<svg xmlns="http://www.w3.org/2000/svg" viewBox="0 0 512 512">
	<path class="lexicon-icon-outline" d="M159.7,0c13.2,0,24,10.7,24,24v40.1l112,0.5c13.2,0.1,23.9,10.9,23.9,24.1c-0.1,13.3-10.8,24-24.1,23.9l-26-0.1c-4.5,41.9-15.5,72.4-31.9,96.7c-11.4,16.8-24.8,29.8-38.6,41.3c14.2,11.1,41.1,30.4,58.9,43.2c10,7.1,13.2,20.5,7.6,31.3c-6.7,12.9-23,17.2-34.7,8.9c-25.2-17.6-48.9-36.1-67.8-50.8l-2.9-2.3L157,283c-24.5,19.1-55.3,43.1-88.5,64.7c-11.1,7.2-25.9,4-33.1-7.1c-7.2-11.1-4-26,7.1-33.1c29-18.9,55.5-39.1,78.4-57c-10.9-9.1-21.6-19.1-31.1-31c-9.7-12.2-18-26-24.6-42.5c-5.9-14.8,6-29.7,22-29.7c10.9,0,20.3,7.3,24.8,17.3c4.4,9.9,9.6,18.1,15.3,25.2c9,11.3,19.8,20.7,32.7,30.8c15.8-12.3,28.2-23.5,38.1-38c10.7-15.8,19.3-36.9,23.4-70l-61.5-0.3H24c-13.2,0-24-10.8-24-24c0-13.3,10.7-24,24-24h111.9V24C135.8,10.8,146.5,0,159.7,0z"/>
	<path class="lexicon-icon-outline" d="M378.7,208.5c9.6,0,18.3,5.7,22,14.6l109.4,255.6c5.2,12.2-0.4,26.2-12.6,31.4c-12.2,5.2-26.2-0.4-31.4-12.6l-21-49H312.2l-21,49c-5.2,12.2-19.3,17.8-31.4,12.6c-12.2-5.2-17.8-19.3-12.6-31.4l25.9-60.4c0.6-2.1,1.5-4.2,2.6-6l81-189.2C360.5,214.1,369.1,208.5,378.7,208.5z M424.6,400.5l-45.9-107.3l-45.9,107.3H424.6z"/>
</svg>