<!--
* SPDX-FileCopyrightText: © 2020 Liferay, Inc. <https://liferay.com>
* SPDX-FileCopyrightText: © 2020 Contributors to the project Clay <https://github.com/liferay/clay/graphs/contributors>
*
* SPDX-License-Identifier: BSD-3-Clause
-->
<svg xmlns="http://www.w3.org/2000/svg" viewBox="0 0 512 512">
	<path class="lexicon-icon-outline lx-background-color-line" d="M399.7,512H111.9c-63.2,0-64.5-96,0-96h287.8C462.1,416,466,512,399.7,512z"/>
	<path class="lexicon-icon-outline lx-background-color-bucket-drop" d="M447.6,335.9c0,64.4-95.9,63.8-95.9,0c0-26.5,47.9-80.1,47.9-80.1S447.6,309.4,447.6,335.9z M377.5,173.9L213.9,10c-30.1-30.1-75.8,14.6-45.2,45.3l27,27.1l-113,113.2c-25,25-25,65.6,0,90.6l80,80.1c23.7,23.8,64.6,25.9,90.4,0l124.4-125.1C396,222.6,396,192.5,377.5,173.9z M128,240.9L128,240.9v-0.2V240.9z M304.9,223.8h-160l95.9-96.2c0,0,0,0,0.1,0l80,80.2L304.9,223.8z"/>
</svg>