<!--
* SPDX-FileCopyrightText: © 2020 Liferay, Inc. <https://liferay.com>
* SPDX-FileCopyrightText: © 2020 Contributors to the project Clay <https://github.com/liferay/clay/graphs/contributors>
*
* SPDX-License-Identifier: BSD-3-Clause
-->
<svg xmlns="http://www.w3.org/2000/svg" viewBox="0 0 512 512">
	<path class="lexicon-icon-outline" d="M437,75C388.7,26.6,324.4,0,256,0S123.3,26.6,75,75C26.6,123.3,0,187.6,0,256s26.6,132.7,75,181
	c48.4,48.4,112.6,75,181,75s132.7-26.6,181-75c48.4-48.4,75-112.6,75-181S485.4,123.3,437,75z M448,256c0,41.4-13.2,79.8-35.5,111.2
	L144.8,99.5C176.2,77.2,214.6,64,256,64C361.9,64,448,150.1,448,256z M64,256c0-41.4,13.2-79.8,35.5-111.2l267.7,267.7
	C335.8,434.8,297.4,448,256,448C150.1,448,64,361.9,64,256z"/>
</svg>
