<!--
* SPDX-FileCopyrightText: © 2022 Liferay, Inc. <https://liferay.com>
* SPDX-FileCopyrightText: © 2022 Contributors to the project Clay <https://github.com/liferay/clay/graphs/contributors>
*
* SPDX-License-Identifier: BSD-3-Clause
-->
<svg xmlns="http://www.w3.org/2000/svg" viewBox="0 0 512 512">
	<path class="lexicon-icon-outline" d="M480,352V32c0-16.6-14.3-32-32-32H128C75,0,32,46.3,32,96v352c0,0,0,64,80.2,63.7c0.1,0,351.8,0.3,351.8,0.3c21.6-1.3,20.9-30.7,0-31.9L112,480c-64.1-0.1-63.9-96.1,0.2-96H448C465.7,383.9,480,368.6,480,352z M416,320H128V64h288V320z"/>
	<path class="lexicon-icon-outline" d="M111.8,416c-20.1,0.3-22.2,31,0,32H432c23.1-1.6,19.4-31.7,0-32H111.8z"/>
</svg>