<!--
* SPDX-FileCopyrightText: © 2022 Liferay, Inc. <https://liferay.com>
* SPDX-FileCopyrightText: © 2022 Contributors to the project Clay <https://github.com/liferay/clay/graphs/contributors>
*
* SPDX-License-Identifier: BSD-3-Clause
-->
<svg xmlns="http://www.w3.org/2000/svg" viewBox="0 0 512 512">
  <path class="lexicon-icon-outline border-style-rectangle-1" d="M64.0015 96C46.3284 96 32.0015 110.327 32.0015 128C32.0015 145.673 46.3284 160 64.0015 160H448.001C465.675 160 480.001 145.673 480.001 128C480.001 110.327 465.675 96 448.001 96H64.0015Z" />
  <path class="lexicon-icon-outline border-style-rectangle-2" d="M64.0015 224C46.3284 224 32.0015 238.327 32.0015 256C32.0015 273.673 46.3284 288 64.0015 288H192.001C209.675 288 224.001 273.673 224.001 256C224.001 238.327 209.675 224 192.001 224H64.0015Z" />
  <path class="lexicon-icon-outline border-style-rectangle-3" d="M32.0015 384C32.0015 366.327 46.3284 352 64.0015 352H128.001C145.675 352 160.001 366.327 160.001 384C160.001 401.673 145.675 416 128.001 416H64.0015C46.3284 416 32.0015 401.673 32.0015 384Z" />
  <path class="lexicon-icon-outline border-style-rectangle-4" d="M320.001 224C302.328 224 288.001 238.327 288.001 256C288.001 273.673 302.328 288 320.001 288H448.001C465.675 288 480.001 273.673 480.001 256C480.001 238.327 465.675 224 448.001 224H320.001Z" />
  <path class="lexicon-icon-outline border-style-rectangle-5" d="M192.001 384C192.001 366.327 206.328 352 224.001 352H288.001C305.675 352 320.001 366.327 320.001 384C320.001 401.673 305.675 416 288.001 416H224.001C206.328 416 192.001 401.673 192.001 384Z" />
  <path class="lexicon-icon-outline border-style-rectangle-6" d="M384.001 352C366.328 352 352.001 366.327 352.001 384C352.001 401.673 366.328 416 384.001 416H448.001C465.675 416 480.001 401.673 480.001 384C480.001 366.327 465.675 352 448.001 352H384.001Z" />
</svg>