<!--
* SPDX-FileCopyrightText: © 2022 Liferay, Inc. <https://liferay.com>
* SPDX-FileCopyrightText: © 2022 Contributors to the project Clay <https://github.com/liferay/clay/graphs/contributors>
*
* SPDX-License-Identifier: BSD-3-Clause
-->
<svg viewBox="0 0 16 16" xmlns="http://www.w3.org/2000/svg">
<rect class="lexicon-icon-outline"/>
<path class="lexicon-icon-outline" d="M15 2.5C15 2.22386 14.7761 2 14.5 2H1.5C1.22386 2 1 2.22386 1 2.5C1 2.77614 1.22386 3 1.5 3H14.5C14.7761 3 15 2.77614 15 2.5Z" />
<path class="lexicon-icon-outline" d="M1 7C1 6.44772 1.44772 6 2 6H14C14.5523 6 15 6.44772 15 7C15 7.55228 14.5523 8 14 8H2C1.44772 8 1 7.55228 1 7Z" />
<path class="lexicon-icon-outline" d="M1 12C1 11.4477 1.44772 11 2 11H14C14.5523 11 15 11.4477 15 12V13C15 13.5523 14.5523 14 14 14H2C1.44772 14 1 13.5523 1 13V12Z" />
</svg>