<!--
* SPDX-FileCopyrightText: © 2024 Liferay, Inc. <https://liferay.com>
* SPDX-FileCopyrightText: © 2024 Contributors to the project Clay <https://github.com/liferay/clay/graphs/contributors>
*
* SPDX-License-Identifier: BSD-3-Clause
-->
<svg viewBox="0 0 512 512" xmlns="http://www.w3.org/2000/svg"><path d="M156.564 31.936c-26.379 0-51.676 10.114-70.329 28.117-18.652 18.004-29.13 42.422-29.13 67.883v37.504c-.003 8.486-3.497 16.624-9.714 22.624l-9.78 9.44a1.14 1.14 0 0 1-.332.224c-49.664 24-49.664 92.448 0 116.416a1.1 1.1 0 0 1 .331.224l9.78 9.44c6.218 5.999 9.712 14.137 9.714 22.624v37.504c0 25.46 10.48 49.878 29.131 67.882 18.653 18.003 43.95 28.118 70.329 28.118 8.792 0 17.225-3.372 23.442-9.373 6.218-6.001 9.711-14.141 9.711-22.627 0-8.487-3.493-16.627-9.711-22.628-6.217-6.001-14.65-9.372-23.442-9.372-8.793 0-17.226-3.372-23.443-9.373-6.218-6.001-9.71-14.141-9.71-22.627v-37.504c-.015-25.448-10.497-49.849-29.142-67.84l-9.78-9.472a67.42 67.42 0 0 0-17.97-12.48l-.032-.032s-.166-.288-.166-.672c0-.384.166-.64.166-.64v-.064l.464-.288a67.203 67.203 0 0 0 17.538-12.16l9.78-9.472c9.242-8.91 16.576-19.49 21.582-31.135a93.126 93.126 0 0 0 7.593-36.737v-37.504c0-8.487 3.493-16.627 9.71-22.628 6.217-6.001 14.65-9.373 23.443-9.373 8.793 0 17.225-3.37 23.443-9.372 6.217-6.001 9.71-14.14 9.71-22.628 0-8.486-3.493-16.626-9.71-22.627-6.218-6.001-14.684-9.372-23.476-9.372Zm198.918 0c26.379 0 51.676 10.114 70.329 28.117 18.652 18.004 29.131 42.422 29.131 67.883v37.504c.001 8.486 3.496 16.624 9.713 22.624l9.814 9.44c.075.087.165.163.265.224 49.73 24 49.73 92.448 0 116.416-.1.06-.19.136-.265.224l-9.814 9.44c-6.217 5.999-9.712 14.137-9.713 22.624v37.504c0 25.46-10.479 49.878-29.131 67.882-18.653 18.003-43.95 28.118-70.329 28.118-8.792 0-17.225-3.372-23.442-9.373-6.218-6.001-9.711-14.141-9.711-22.627 0-8.487 3.493-16.627 9.711-22.628 6.217-6.001 14.65-9.372 23.442-9.372 8.793 0 17.226-3.372 23.443-9.373 6.217-6.001 9.71-14.141 9.71-22.627v-37.504c.015-25.448 10.497-49.849 29.142-67.84l9.78-9.472a67.443 67.443 0 0 1 18.002-12.48s.166-.32.166-.704c0-.384-.133-.64-.133-.64l-.066-.064s-.099-.128-.431-.288a67.436 67.436 0 0 1-17.538-12.16l-9.78-9.472c-18.654-18-29.136-42.414-29.142-67.872v-37.504c0-8.487-3.493-16.627-9.71-22.628-6.217-6.001-14.65-9.373-23.443-9.373-8.792 0-17.225-3.37-23.442-9.372-6.218-6.001-9.711-14.14-9.711-22.628 0-8.486 3.493-16.626 9.711-22.627 6.217-6.001 14.65-9.372 23.442-9.372Z"/></svg>