<!--
* SPDX-FileCopyrightText: © 2020 Liferay, Inc. <https://liferay.com>
* SPDX-FileCopyrightText: © 2020 Contributors to the project Clay <https://github.com/liferay/clay/graphs/contributors>
*
* SPDX-License-Identifier: BSD-3-Clause
-->
<svg viewBox="0 0 16 16" xmlns="http://www.w3.org/2000/svg"><path class="lexicon-icon-outline" d="M2.994 5.999h1.001v1H2.994v-1Zm3.003 0h-1v1h1v-1Zm2.003 0H6.998v1H8v-1Zm2.002 0H9.001v1h1.001v-1Zm2.002 0h-1v1h1v-1ZM3.995 7.998H2.994v1h1.001v-1Zm2.002 0h-1v1h1v-1Zm2.003 0H6.998v1H8v-1Zm2.002 0H9.001v1h1.001v-1Zm2.002 0h-1v1h1v-1Zm-8.009 2H2.994v1h1.001v-1Zm0 2H2.994v1h1.001v-1Zm2.002 0h-1v1h1v-1Zm0-2h-1v1h1v-1Zm2.003 0H6.998v1H8v-1Z" /><path class="lexicon-icon-outline" fill-rule="evenodd" clip-rule="evenodd" d="M14.001 0a2 2 0 0 1 2 2v9.757a3 3 0 0 1-.88 2.122l-1.246 1.244a3 3 0 0 1-2.12.877H1.984C.889 16 0 14.957 0 13.863V4.98l.001-.062V2a2 2 0 0 1 2-2h12ZM2.002 5v8.86c0 .04.032.1.063.137h8.928l.002-2a1 1 0 0 1 1-1l2.003.001V5H2.002Z" /></svg>