<!--
* SPDX-FileCopyrightText: © 2020 Liferay, Inc. <https://liferay.com>
* SPDX-FileCopyrightText: © 2020 Contributors to the project Clay <https://github.com/liferay/clay/graphs/contributors>
*
* SPDX-License-Identifier: BSD-3-Clause
-->
<svg xmlns="http://www.w3.org/2000/svg" viewBox="0 0 512 512">
	<path class="lexicon-icon-outline" d="M338.7,37.9L226.8,149.8c-23.1,23.1,11.9,58,35,34.9L373.6,72.8c43.6-43.6,109.2,21.9,65.6,65.6L327.3,250.3c-23.1,23.1,11.9,58,35,34.9l111.9-111.9C564.5,83,429.2-52.7,338.7,37.9z M173.3,474.1l111.9-111.9c23.1-23.1-11.9-58-35-34.9L138.4,439.2c-43.6,43.6-109.2-21.9-65.6-65.6l111.9-111.9c23.1-23.1-11.9-58-35-34.9L37.8,338.7C-52.5,429,82.8,564.7,173.3,474.1z"/>
</svg>