<!--
* SPDX-FileCopyrightText: © 2020 Liferay, Inc. <https://liferay.com>
* SPDX-FileCopyrightText: © 2020 Contributors to the project Clay <https://github.com/liferay/clay/graphs/contributors>
*
* SPDX-License-Identifier: BSD-3-Clause
-->
<svg xmlns="http://www.w3.org/2000/svg" viewBox="0 0 512 512">
	<path class="lexicon-icon-outline lx-chatbot-border" d="M480,32H32C12.8,32,0,44.8,0,64v319.7c0,19.2,12.8,32,32,32h64v32c0,25.6,32,44.8,54.4,22.5l54.4-54.4H480c19.2,0,32-12.8,32-32V64C512,44.8,499.2,32,480,32z M448,351.8H64V96h384V351.8z"/>
	<rect class="lexicon-icon-outline lx-chatbot-eye-1" x="128" y="160" width="64" height="64"/>
	<rect class="lexicon-icon-outline lx-chatbot-eye-2" x="320" y="160" width="64" height="64"/>
	<path class="lexicon-icon-outline lx-chatbot-mouth" d="M256,320c64,0,96-28.7,96-64H160C160,291.3,192,320,256,320z"/>
</svg>