<!--
* SPDX-FileCopyrightText: © 2020 Liferay, Inc. <https://liferay.com>
* SPDX-FileCopyrightText: © 2020 Contributors to the project Clay <https://github.com/liferay/clay/graphs/contributors>
*
* SPDX-License-Identifier: BSD-3-Clause
-->
<svg xmlns="http://www.w3.org/2000/svg" viewBox="0 0 512 512">
	<path class="lexicon-icon-outline check-square-border" d="M448,512H64c-35.3,0-64-28.7-64-64V64C0,28.7,28.7,0,64,0h224c42.7,0,42.7,64,0,64H64v384h384V288 c0-42.7,64-42.7,64,0v160C512,483.3,483.3,512,448,512z"/>
	<path class="lexicon-icon-outline check-square-check" d="M423.7,74.8L254.2,272.9l-71.6-71.7c-29.1-28.9-74.3,16.4-45.2,45.3l96,96.1c5.8,5.8,13.8,9.4,22.6,9.4 c9.7,0,18.4-4.4,24.3-11.2l192-224.4C498.9,85.4,450.3,44.1,423.7,74.8z"/>
</svg>