<!--
* SPDX-FileCopyrightText: © 2020 Liferay, Inc. <https://liferay.com>
* SPDX-FileCopyrightText: © 2020 Contributors to the project Clay <https://github.com/liferay/clay/graphs/contributors>
*
* SPDX-License-Identifier: BSD-3-Clause
-->
<svg viewBox="0 0 16 16" xmlns="http://www.w3.org/2000/svg">
	<path d="M14 .002H2c-1.103 0-2 .897-2 2v9c0 1.103.897 2 2 2h1.584l-1.28 1.282a1.002 1.002 0 0 0 .705 1.709.986.986 0 0 0 .707-.294l2.696-2.697H14c1.103 0 2-.897 2-2v-9c0-1.103-.897-2-2-2Zm0 11H2v-9h12v9Z"/>
	<path d="M12 3.502H4a.999.999 0 1 0 0 2h8a.999.999 0 1 0 0-2Zm-3.857 3.5H3.857c-.474 0-.857.447-.857 1 0 .553.383 1 .857 1h4.286c.474 0 .857-.447.857-1 0-.553-.383-1-.857-1Z"/>
</svg>