<!--
* SPDX-FileCopyrightText: © 2020 Liferay, Inc. <https://liferay.com>
* SPDX-FileCopyrightText: © 2020 Contributors to the project Clay <https://github.com/liferay/clay/graphs/contributors>
*
* SPDX-License-Identifier: BSD-3-Clause
-->
<svg viewBox="0 0 16 16" xmlns="http://www.w3.org/2000/svg"><path class="lexicon-icon-outline" d="M4.669 2.452c0-.61.5-1.11 1.11-1.11.61 0 1.11.5 1.11 1.11v3.33l-.003.084A.946.946 0 0 1 5.863 6.89l-.084.003H2.45c-.61 0-1.11-.5-1.11-1.11 0-.61.5-1.11 1.11-1.11h.88L.277 1.619a.95.95 0 0 1 0-1.34.95.95 0 0 1 1.339 0l3.053 3.053v-.88ZM2.45 11.333c-.611 0-1.111-.5-1.111-1.11 0-.61.5-1.11 1.11-1.11h3.33l.084.003a.945.945 0 0 1 1.023 1.023.796.796 0 0 1 .004.084v3.33c0 .61-.5 1.11-1.11 1.11-.611 0-1.111-.5-1.111-1.11v-.88l-3.053 3.053a.95.95 0 0 1-1.34 0 .95.95 0 0 1 0-1.34l3.053-3.053h-.88Zm7.77 3.33c.611 0 1.111-.5 1.111-1.11v-.88l3.053 3.053a.95.95 0 0 0 1.34 0 .95.95 0 0 0 0-1.34l-3.054-3.053h.88c.611 0 1.111-.5 1.111-1.11 0-.61-.5-1.11-1.11-1.11h-3.33l-.085.003a.945.945 0 0 0-1.022 1.023.798.798 0 0 0-.004.084v3.33c0 .61.5 1.11 1.11 1.11Zm3.33-9.991c.611 0 1.111.5 1.111 1.11 0 .61-.5 1.11-1.11 1.11h-3.33l-.085-.003a.945.945 0 0 1-1.022-1.023.798.798 0 0 1-.004-.084v-3.33c0-.61.5-1.11 1.11-1.11.611 0 1.111.5 1.111 1.11v.88L14.384.279a.95.95 0 0 1 1.34 0 .95.95 0 0 1 0 1.34L12.67 4.672h.88Z" /></svg>