<!--
* SPDX-FileCopyrightText: © 2024 Liferay, Inc. <https://liferay.com>
* SPDX-FileCopyrightText: © 2024 Contributors to the project Clay <https://github.com/liferay/clay/graphs/contributors>
*
* SPDX-License-Identifier: BSD-3-Clause
-->
<svg xmlns="http://www.w3.org/2000/svg" viewBox="0 0 512 512">
	<path fill-rule="evenodd" d="M0 52v312c0 28.681 23.309 52 52 52h172v-52H52V52h312v140h52V52c0-28.681-23.309-52-52-52H52C23.309 0 0 23.319 0 52Zm312 78c0 28.719-23.283 52-52 52s-52-23.281-52-52 23.283-52 52-52 52 23.281 52 52Zm-208 52 52-104 52 104H104Zm120.001 106v32H112.002c-22 0-21-32 0-32h111.999Zm0-32v-18.424a20.846 20.846 0 0 1 3.431-11.601c.45-.687.938-1.346 1.463-1.975H112c-21 0-22 32 0 32h112.001Z" clip-rule="evenodd"/>
	<path fill-rule="evenodd" d="M479.999 273.546c-30.389-11.859-62.899-17.831-95.711-17.536l-.288.003-.289-.003c-32.811-.295-65.321 5.677-95.71 17.536v87.149c-.041 24.41 7.462 48.324 21.614 68.606 14.155 20.285 34.327 36.018 57.951 45.02l13.615 5.167a8.057 8.057 0 0 0 5.626.005l13.605-5.164c23.623-9.002 43.818-24.744 57.973-45.028 14.152-20.282 21.655-44.196 21.614-68.606v-87.149Zm-68.198 230.688-13.657 5.183a40.016 40.016 0 0 1-28.288 0l-13.657-5.183c-29.558-11.257-54.944-30.995-72.826-56.621-17.882-25.626-27.424-55.944-27.372-86.971v-95.624a18.933 18.933 0 0 1 3.049-10.44 19.551 19.551 0 0 1 8.343-7.164C304.13 231.627 343.876 223.65 384 224.012c40.124-.362 79.87 7.615 116.607 23.402a19.551 19.551 0 0 1 8.343 7.164 18.933 18.933 0 0 1 3.049 10.44v95.624c.052 31.027-9.49 61.345-27.372 86.971-17.882 25.626-43.268 45.364-72.826 56.621Z" clip-rule="evenodd"/>
	<path d="M372.902 406.4c-3.265 0-6.449-1.352-8.775-3.76l-37.141-38.44c-11.469-11.871 6.041-29.993 17.509-18.122l27.836 28.809 57.058-66.405c10.775-12.673 29.386 4.266 18.611 16.939l-65.792 76.628a12.22 12.22 0 0 1-8.898 4.351h-.408Z"/>
</svg>

