<!--
* SPDX-FileCopyrightText: © 2022 Liferay, Inc. <https://liferay.com>
* SPDX-FileCopyrightText: © 2022 Contributors to the project Clay <https://github.com/liferay/clay/graphs/contributors>
*
* SPDX-License-Identifier: BSD-3-Clause
-->
<svg xmlns="http://www.w3.org/2000/svg" viewBox="0 0 512 512">
	<path class="lexicon-icon-outline" d="M416.6,221.8c-33.7-36.1-11.2-77.4-32.1-97.1c-22.9-21.6-72.1-13-96.3-32.4C226,29.3,266-12.5,192,3.4C-0.6,58.1-70.6,300.6,86.3,448.5c153.4,132.8,399.6,47.6,425-165.6C519.3,211.8,452.1,258.7,416.6,221.8z M95.7,351.3c0-43.7,64.2-42.7,64.2,0C159.9,393.9,95.7,394.9,95.7,351.3z M95.7,173.3c0-65.1,96.3-65.1,96.3,0C192,236.5,95.7,236.5,95.7,173.3z M288.3,416.1c0-42.3,64.2-43.3,64.2,0C352.4,458,288.3,459,288.3,416.1z M256.2,270.4c0-65,96.3-66,96.3,0C352.4,333.7,256.2,335.7,256.2,270.4z"/>
</svg>