<!--
* SPDX-FileCopyrightText: © 2020 Liferay, Inc. <https://liferay.com>
* SPDX-FileCopyrightText: © 2020 Contributors to the project Clay <https://github.com/liferay/clay/graphs/contributors>
*
* SPDX-License-Identifier: BSD-3-Clause
-->
<svg xmlns="http://www.w3.org/2000/svg" viewBox="0 0 512 512">
	<path class="lexicon-icon-outline corner-radius-bottom-right" d="M448,384c0,35.3-28.7,64-64,64h-64v64h64c70.7,0,128-57.3,128-128v-64h-64V384z"></path>
	<path class="lexicon-icon-outline corner-radius-top-right" d="M384,0h-64v64h64c35.3,0,64,28.7,64,64v64h64v-64C512,57.3,454.7,0,384,0z"></path>
	<path class="lexicon-icon-outline corner-radius-top-left" d="M64,128c0-35.3,28.7-64,64-64h64V0h-64C57.3,0,0,57.3,0,128v64h64V128z"></path>
	<path class="lexicon-icon-outline corner-radius-bottom-left" d="M64,384v-64H0v64c0,70.7,57.3,128,128,128h64v-64h-64C92.7,448,64,419.3,64,384z"></path>
</svg>
