<!--
* SPDX-FileCopyrightText: © 2020 Liferay, Inc. <https://liferay.com>
* SPDX-FileCopyrightText: © 2020 Contributors to the project Clay <https://github.com/liferay/clay/graphs/contributors>
*
* SPDX-License-Identifier: BSD-3-Clause
-->
<svg viewBox="0 0 16 16" xmlns="http://www.w3.org/2000/svg"><path class="lexicon-icon-outline" d="M4.991 7.001v-1h-2v1h2Zm0 0h1v1.97h-1V7Zm3 6h1v-7h-1v1h-1v1h1v5Zm-4.928-4h1.928v1H3.063v-1Zm1.928 1h1v1.97h-1V10Zm0 3v-1h-2v1h2Z" /><path class="lexicon-icon-outline" fill-rule="evenodd" clip-rule="evenodd" d="M2 0a2 2 0 0 0-2 2l.001 11.867c0 1.094.888 2.137 1.981 2.137h9.758a3 3 0 0 0 2.121-.878l1.243-1.243a3 3 0 0 0 .878-2.121V5H16V2a2 2 0 0 0-2-2H2Zm8.982 12.001a1 1 0 0 1 1-1h2v-6H2.001v8.863c0 .04.031.1.062.137h8.92v-2Z" /></svg>