<!--
* SPDX-FileCopyrightText: © 2020 Liferay, Inc. <https://liferay.com>
* SPDX-FileCopyrightText: © 2020 Contributors to the project Clay <https://github.com/liferay/clay/graphs/contributors>
*
* SPDX-License-Identifier: BSD-3-Clause
-->
<svg viewBox="0 0 16 16" xmlns="http://www.w3.org/2000/svg"><path class="lexicon-icon-outline" d="M2 .003a2 2 0 0 0-2 2v2l.001.009v8.018c0 1.107.897 2.003 2 2.003h3.81a5.91 5.91 0 0 1-.72-2.003h-3.09V4.012h10v1.093a5.942 5.942 0 0 1 2 .722V2.003a2 2 0 0 0-2-2H2Z" /><path class="lexicon-icon-outline" d="M11.001 11.027h1.5c.663 0 .666 1.003 0 1.003h-2.5V9.524c0-.656 1-.66 1 0v1.503Z" /><path class="lexicon-icon-outline" fill-rule="evenodd" clip-rule="evenodd" d="M6.001 11.027c0 6.59 10 6.685 10 0 0-6.715-10-6.565-10 0Zm2 0c0-4.006 6-4.01 6 0s-6 4.01-6 0Z" /><path class="lexicon-icon-outline" d="M4.001 7.018a1.002 1.002 0 0 0 0-2.006c-.552 0-1 .449-1 1.003 0 .554.448 1.003 1 1.003Z" /></svg>