<!--
* SPDX-FileCopyrightText: © 2020 Liferay, Inc. <https://liferay.com>
* SPDX-FileCopyrightText: © 2020 Contributors to the project Clay <https://github.com/liferay/clay/graphs/contributors>
*
* SPDX-License-Identifier: BSD-3-Clause
-->
<svg xmlns="http://www.w3.org/2000/svg" viewBox="0 0 512 512">
	<path class="lexicon-icon-outline" d="M416,0H64C28.8,0,0,28.8,0,64v384c0,35.2,28.8,64,64,64h384c35.2,0,64-28.8,64-64V96L416,0z M128,32h128v128h96V32h32v128c0,19.2-12.8,32-32,32H160c-19.2,0-32-12.8-32-32V32z M416,480H96V320c0-19.2,12.8-32,32-32h256c19.2,0,32,12.8,32,32V480z"/>
</svg>