<!--
* SPDX-FileCopyrightText: © 2020 Liferay, Inc. <https://liferay.com>
* SPDX-FileCopyrightText: © 2020 Contributors to the project Clay <https://github.com/liferay/clay/graphs/contributors>
*
* SPDX-License-Identifier: BSD-3-Clause
-->
<svg xmlns="http://www.w3.org/2000/svg" viewBox="0 0 512 512">
	<path class="lexicon-icon-outline lx-display-content-monitor" d="M64,0h384c35.2,0,64,28.8,64,64v289.2c0,35.2-28.8,64-64,64H64c-35.2,0-64-28.8-64-64V64C0,28.8,28.8,0,64,0z M64,320h384V64H64V320z"/>
	<path class="lexicon-icon-outline lx-display-content-content-circle" d="M160,256c-35.3,0-64-28.7-64-64s28.7-64,64-64s64,28.7,64,64S195.3,256,160,256z"/>
	<path class="lexicon-icon-outline lx-display-content-content-rectangle1" d="M288,128h128v32H288V128z"/>
	<path class="lexicon-icon-outline lx-display-content-content-rectangle2" d="M288,224h96v32h-96V224z"/>
	<path class="lexicon-icon-outline lx-display-content-stand" d="M320,448H192c-44.8,0-41.6,64,0,64h128C361.6,512,361.6,448,320,448z"/>
</svg>