<!--
* SPDX-FileCopyrightText: © 2020 Liferay, Inc. <https://liferay.com>
* SPDX-FileCopyrightText: © 2020 Contributors to the project Clay <https://github.com/liferay/clay/graphs/contributors>
*
* SPDX-License-Identifier: BSD-3-Clause
-->
<svg viewBox="0 0 16 16" xmlns="http://www.w3.org/2000/svg"><path class="lexicon-icon-outline" d="M10.25.003H3.5a1.5 1.5 0 0 0-1.5 1.5v13c0 .83.671 1.5 1.5 1.5h9c.83 0 1.5-.67 1.5-1.5V3.753L10.25.003Zm-4.5 6c.413 0 .75.337.75.75s-.337.75-.75.75a.751.751 0 0 1-.75-.75c0-.413.337-.75.75-.75Zm-1.5 5.25 2.25-3 1.5 1.5 1.5-2.25 2.25 3.75h-7.5Z" /></svg>