<!--
* SPDX-FileCopyrightText: © 2020 Liferay, Inc. <https://liferay.com>
* SPDX-FileCopyrightText: © 2020 Contributors to the project Clay <https://github.com/liferay/clay/graphs/contributors>
*
* SPDX-License-Identifier: BSD-3-Clause
-->
<svg viewBox="0 0 16 16" xmlns="http://www.w3.org/2000/svg"><path class="lexicon-icon-outline" fill-rule="evenodd" clip-rule="evenodd" d="M4 2.003v12h8v-9.5h-1.5c-.5 0-1-.5-1-1v-1.5H4Zm6.25-2H3.5a1.5 1.5 0 0 0-1.5 1.5v13c0 .83.671 1.5 1.5 1.5h9c.83 0 1.5-.67 1.5-1.5V3.753L10.25.003Z" /><path class="lexicon-icon-outline" d="M5.5 8.003h5c.688 0 .626-1 0-1h-5c-.656 0-.687 1 0 1Zm5 2h-5c-.687 0-.656-1 0-1h5c.626 0 .688 1 0 1Zm-5 2h3c.688 0 .626-1 0-1h-3c-.656 0-.687 1 0 1Z" /></svg>