<!--
* SPDX-FileCopyrightText: © 2020 Liferay, Inc. <https://liferay.com>
* SPDX-FileCopyrightText: © 2020 Contributors to the project Clay <https://github.com/liferay/clay/graphs/contributors>
*
* SPDX-License-Identifier: BSD-3-Clause
-->
<svg viewBox="0 0 16 16" xmlns="http://www.w3.org/2000/svg"><path class="lexicon-icon-outline" d="M4.345 7.843h-.569v1.298h.566c.448 0 .709-.228.709-.644 0-.428-.255-.654-.706-.654Zm3.557.024H7.34v2.396h.562c.689 0 1.078-.425 1.078-1.213 0-.753-.401-1.183-1.078-1.183Z" /><path class="lexicon-icon-outline" fill-rule="evenodd" clip-rule="evenodd" d="M3.5.003h6.75L14 3.753v10.75c0 .829-.67 1.5-1.5 1.5h-9a1.5 1.5 0 0 1-1.5-1.5v-13a1.5 1.5 0 0 1 1.5-1.5Zm.276 9.77h.735c.785 0 1.333-.515 1.333-1.282 0-.774-.524-1.29-1.292-1.29H2.996v3.73h.78V9.774Zm2.786 1.158H8.03c1.116 0 1.749-.68 1.749-1.892 0-1.17-.642-1.84-1.75-1.84H6.563v3.732Zm4.734-3.061h1.661v-.668h-2.44v3.73h.78V9.48h1.517v-.639h-1.518V7.87Z" /></svg>