<!--
* SPDX-FileCopyrightText: © 2020 Liferay, Inc. <https://liferay.com>
* SPDX-FileCopyrightText: © 2020 Contributors to the project Clay <https://github.com/liferay/clay/graphs/contributors>
*
* SPDX-License-Identifier: BSD-3-Clause
-->
<svg viewBox="0 0 16 16" xmlns="http://www.w3.org/2000/svg"><path class="lexicon-icon-outline" fill-rule="evenodd" clip-rule="evenodd" d="M10.25.002H3.5c-.83 0-1.5.671-1.5 1.5v13c0 .83.67 1.5 1.5 1.5h9c.83 0 1.5-.67 1.5-1.5V3.752L10.25.002Zm1.75 7.5a.5.5 0 0 1-.5.5h-7a.5.5 0 0 1 0-1h7a.5.5 0 0 1 .5.5Zm-.5 1.5h-7a.5.5 0 0 0 0 1h7a.5.5 0 1 0 0-1Zm-7 2h3a.5.5 0 0 1 0 1h-3a.5.5 0 1 1 0-1Z" /></svg>