<!--
* SPDX-FileCopyrightText: © 2022 Liferay, Inc. <https://liferay.com>
* SPDX-FileCopyrightText: © 2022 Contributors to the project Clay <https://github.com/liferay/clay/graphs/contributors>
*
* SPDX-License-Identifier: BSD-3-Clause
-->
<svg xmlns="http://www.w3.org/2000/svg" viewBox="0 0 512 512">
	<path class="lexicon-icon-outline" d="M223,31c0-41.4,63.7-41.4,63.7,0v35.6c26.9,6,51,19.7,68.7,39.4c26.1,29.3-19.5,73.7-47.4,42.9c-91-70.3-184.6,50.1-52.5,73.7h0.3c138.4,8.9,187.8,175.2,30.9,225.1V480c0,42.7-63.7,42.5-63.7,0v-32.2c-27.1-6-69.6-23.1-87.3-42.9c-25.6-28.8,20.2-73.5,47.6-42.7c91.6,77.6,235-48.8,44-81.7C74.7,252.4,118,85.1,223,66.7V31z"/>
</svg>