<!--
* SPDX-FileCopyrightText: © 2020 Liferay, Inc. <https://liferay.com>
* SPDX-FileCopyrightText: © 2020 Contributors to the project Clay <https://github.com/liferay/clay/graphs/contributors>
*
* SPDX-License-Identifier: BSD-3-Clause
-->
<svg xmlns="http://www.w3.org/2000/svg" viewBox="0 0 512 512">
	<path class="download-arrow-down lexicon-icon-outline" d="M256 384C251.745 384.002 247.531 383.164 243.6 381.533C239.669 379.903 236.099 377.513 233.094 374.5L161.5 302.9C148.781 290.301 148.781 269.801 161.5 257.1C174.094 244.4 194.594 244.4 207.281 257.1L224 273.801V32C224 14.3 238.281 0 256 0C273.688 0 288 14.3 288 32V273.801L304.688 257.1C307.694 254.088 311.264 251.698 315.195 250.068C319.125 248.438 323.339 247.599 327.594 247.6C331.849 247.6 336.063 248.438 339.993 250.068C343.924 251.699 347.494 254.088 350.5 257.1C363.188 269.699 363.188 290.199 350.5 302.9L278.906 374.5C272.781 380.6 264.594 384 256 384Z"></path>
  <path class="download-border lexicon-icon-outline" d="M384 384C384 366.301 398.312 352 416 352C433.688 352 448 366.301 448 384V448C448 483.346 419.346 512 384 512H128C92.654 512 64 483.346 64 448V384C64 366.301 78.313 352 96 352C113.688 352 128 366.301 128 384V448H384V384Z"></path>
</svg>
