<!--
* SPDX-FileCopyrightText: © 2020 Liferay, Inc. <https://liferay.com>
* SPDX-FileCopyrightText: © 2020 Contributors to the project Clay <https://github.com/liferay/clay/graphs/contributors>
*
* SPDX-License-Identifier: BSD-3-Clause
-->
<svg xmlns="http://www.w3.org/2000/svg" viewBox="0 0 512 512">
	<path class="lexicon-icon-outline lx-dropdown-border" d="M448,416H64c-32,0-64-31.9-64-64V160c0-31.9,32-64,64-64h384c32,0,64,31.9,64,64v192C512,384,480,416,448,416z M64,160v192h384V160H64z"/>
	<path class="lexicon-icon-outline lx-dropdown-chevron-down" d="M255,223c9.4-9.4,24.6-9.4,33.9,0l31,31l31-31c9.4-9.4,24.6-9.4,33.9,0c9.4,9.4,9.4,24.6,0,33.9l-48,48c-9.4,9.4-24.6,9.4-33.9,0l-48-48C245.7,247.6,245.7,232.4,255,223z"/>
</svg>