<!--
* SPDX-FileCopyrightText: © 2020 Liferay, Inc. <https://liferay.com>
* SPDX-FileCopyrightText: © 2020 Contributors to the project Clay <https://github.com/liferay/clay/graphs/contributors>
*
* SPDX-License-Identifier: BSD-3-Clause
-->
<svg xmlns="http://www.w3.org/2000/svg" viewBox="0 0 512 512">
	<path class="lexicon-icon-outline" d="M448,255.2c0,256.8-384,255.4-384,0C64-0.5,448-1.9,448,255.2z M0,255.2c0,340.3,512,344.6,512,0C512-85.6,0-84.5,0,255.2z M333.7,299.1c25.4-7,48.8,19.8,37.2,43.5c-20.8,42.6-64.5,71.9-115.1,71.9s-94.3-29.3-115.1-71.9c-11.6-23.7,14.2-52.2,37.2-43.5C232.7,322.3,276.5,325.3,333.7,299.1z M176,159c26.5,0,48,21.5,48,48s-21.5,48-48,48s-48-21.5-48-48S149.5,159,176,159z M336,159c26.5,0,48,21.5,48,48s-21.5,48-48,48s-48-21.5-48-48S309.5,159,336,159z"/>
</svg>