<!--
* SPDX-FileCopyrightText: © 2020 Liferay, Inc. <https://liferay.com>
* SPDX-FileCopyrightText: © 2020 Contributors to the project Clay <https://github.com/liferay/clay/graphs/contributors>
*
* SPDX-License-Identifier: BSD-3-Clause
-->
<svg viewBox="0 0 16 16" xmlns="http://www.w3.org/2000/svg"><path class="lexicon-icon-outline" d="M8.999 11.502A1 1 0 1 1 7 11.504a1 1 0 0 1 2-.002Zm-.999-8a1 1 0 0 0-1 1v4a1 1 0 0 0 2 0v-4a1 1 0 0 0-1-1Z" /><path class="lexicon-icon-outline" fill-rule="evenodd" clip-rule="evenodd" d="M15.368 4.89a7.954 7.954 0 0 0-1.715-2.542A7.96 7.96 0 0 0 7.998.004a7.992 7.992 0 0 0-3.114.629 7.973 7.973 0 0 0-2.54 1.715A7.953 7.953 0 0 0 0 8.006a7.953 7.953 0 0 0 2.343 5.657 7.966 7.966 0 0 0 2.544 1.713 7.922 7.922 0 0 0 3.115.628 7.98 7.98 0 0 0 5.658-2.34 7.975 7.975 0 0 0 1.712-2.545A7.929 7.929 0 0 0 16 8.003a7.97 7.97 0 0 0-.632-3.113ZM8 14.007A6.001 6.001 0 0 1 8 2.005a6.001 6.001 0 0 1 0 12.002Z" /></svg>