<!--
* SPDX-FileCopyrightText: © 2020 Liferay, Inc. <https://liferay.com>
* SPDX-FileCopyrightText: © 2020 Contributors to the project Clay <https://github.com/liferay/clay/graphs/contributors>
*
* SPDX-License-Identifier: BSD-3-Clause
-->
<svg viewBox="0 0 16 16" xmlns="http://www.w3.org/2000/svg"><path class="lexicon-icon-outline" fill-rule="evenodd" clip-rule="evenodd" d="M2.344 13.66A7.942 7.942 0 0 0 8 16.005a7.937 7.937 0 0 0 5.656-2.344A7.943 7.943 0 0 0 16 8.005a7.938 7.938 0 0 0-2.344-5.656A7.937 7.937 0 0 0 8 .004a7.936 7.936 0 0 0-5.656 2.344A7.938 7.938 0 0 0 0 8.004c0 2.138.831 4.147 2.344 5.657ZM7 4.005c0-.553.446-1 1-1s1 .447 1 1v5c0 .553-.446 1-1 1s-1-.447-1-1v-5Zm2 8c0-.553-.446-1-1-1s-1 .447-1 1c0 .553.446 1 1 1s1-.447 1-1Z" /></svg>