<!--
* SPDX-FileCopyrightText: © 2022 Liferay, Inc. <https://liferay.com>
* SPDX-FileCopyrightText: © 2022 Contributors to the project Clay <https://github.com/liferay/clay/graphs/contributors>
*
* SPDX-License-Identifier: BSD-3-Clause
-->
<svg xmlns="http://www.w3.org/2000/svg" viewBox="0 0 512 512">
	<path class="lexicon-icon-outline export-base" d="M448,256.3v191.8H64V256.3c0-41.6-64-41.6-64,0v191.8C0,483.2,28.8,512,64,512h384c35.2,0,64-28.8,64-63.9V256.3C512,211.5,448,214.7,448,256.3z"/>
	<path class="lexicon-icon-outline export-dash" d="M320,384.1H192c-41.6,0-41.6-63.9,0-63.9h128C361.6,320.2,364.8,384.1,320,384.1z"/>
	<path class="lexicon-icon-outline export-arrow-up" d="M233.6,10.1l-64,63.9c-28.8,28.8,12.8,67.1,38.4,44.8l16-16v121.5c0,41.6,64,41.6,64,0V102.8l16,16c28.8,22.4,64-19.2,38.4-44.8l-64-63.9C272,3.7,252.8-9,233.6,10.1z"/>
</svg>
