<!--
* SPDX-FileCopyrightText: © 2020 Liferay, Inc. <https://liferay.com>
* SPDX-FileCopyrightText: © 2020 Contributors to the project Clay <https://github.com/liferay/clay/graphs/contributors>
*
* SPDX-License-Identifier: BSD-3-Clause
-->
<svg xmlns="http://www.w3.org/2000/svg" viewBox="0 0 512 512">
	<path class="lexicon-icon-outline lx-fieldset-bracket-start" d="M128,64c0-17.7-14.3-32-32-32H64C28.7,32,0,60.7,0,96v320c0,35.3,28.7,64,64,64h32c17.7,0,32-14.3,32-32s-14.3-32-32-32H64V96h32C113.7,96,128,81.7,128,64z"/>
	<path class="lexicon-icon-outline lx-fieldset-bracket-end" d="M512,416c0,35.3-28.7,64-64,64h-32c-17.7,0-32-14.3-32-32s14.3-32,32-32h32V96h-32c-17.7,0-32-14.3-32-32s14.3-32,32-32h32c35.3,0,64,28.7,64,64V416z"/>
	<path class="lexicon-icon-outline lx-fieldset-line-1-dot" d="M128,224c17.7,0,32-14.3,32-32s-14.3-32-32-32s-32,14.3-32,32S110.3,224,128,224z"/>
	<path class="lexicon-icon-outline lx-fieldset-line-1-line" d="M224,160h160c17.7,0,32,14.3,32,32s-14.3,32-32,32H224c-17.7,0-32-14.3-32-32S206.3,160,224,160z"/>
	<path class="lexicon-icon-outline lx-fieldset-line-2-dot" d="M384,288H224c-17.7,0-32,14.3-32,32s14.3,32,32,32h160c17.7,0,32-14.3,32-32S401.7,288,384,288z"/>
	<path class="lexicon-icon-outline lx-fieldset-line-2-line" d="M128,352c17.7,0,32-14.3,32-32s-14.3-32-32-32s-32,14.3-32,32S110.3,352,128,352z"/>
</svg>