<!--
* SPDX-FileCopyrightText: © 2024 Liferay, Inc. <https://liferay.com>
* SPDX-FileCopyrightText: © 2024 Contributors to the project Clay <https://github.com/liferay/clay/graphs/contributors>
*
* SPDX-License-Identifier: BSD-3-Clause
-->
<svg viewBox="0 0 16 16" xmlns="http://www.w3.org/2000/svg">
	<path d="M16 2H0V14H16V2Z" fill="#C0CFD8"/>
	<path d="M15.5 2.5H0.5V13.5H15.5V2.5Z" fill="#CE2028"/>
	<path d="M7.5 10L7 13.5H8.99916L8.5 10H7.5Z" fill="#F9D616"/>
	<path d="M8.49915 6L8.99915 2.5L6.99999 2.5L7.49915 6L8.49915 6Z" fill="#F9D616"/>
	<path d="M10.0102 8.49958L15.5 8.99957L15.5 7.00042L10.0102 7.49958L10.0102 8.49958Z" fill="#F9D616"/>
	<path d="M5.98999 7.50042L0.500183 7.00043L0.500183 8.99958L5.98999 8.50042L5.98999 7.50042Z" fill="#F9D616"/>
	<path d="M6.64305 8.69337L0.503921 13.5L3.82123 13.5L7.35016 9.40048L6.64305 8.69337Z" fill="#F9D616"/>
	<path d="M9.36086 8.69337L15.5 13.5L12.1827 13.5L8.65375 9.40048L9.36086 8.69337Z" fill="#F9D616"/>
	<path d="M9.36086 7.30666L15.5 2.50002L12.1827 2.50003L8.65375 6.59955L9.36086 7.30666Z" fill="#F9D616"/>
	<path d="M6.63913 7.30666L0.5 2.50002L3.81731 2.50003L7.34623 6.59955L6.63913 7.30666Z" fill="#F9D616"/>
	<path d="M8 9.75C8.9665 9.75 9.75 8.9665 9.75 8C9.75 7.0335 8.9665 6.25 8 6.25C7.0335 6.25 6.25 7.0335 6.25 8C6.25 8.9665 7.0335 9.75 8 9.75Z" fill="#F9D616" stroke="#CE2028"/>
</svg>
