<!--
* SPDX-FileCopyrightText: © 2022 Liferay, Inc. <https://liferay.com>
* SPDX-FileCopyrightText: © 2022 Contributors to the project Clay <https://github.com/liferay/clay/graphs/contributors>
*
* SPDX-License-Identifier: BSD-3-Clause
-->
<svg xmlns="http://www.w3.org/2000/svg" viewBox="0 0 512 512">
	<path class="lexicon-icon-outline" d="M144 207.821c0-42.013 64-42.363 64 0v48.063h-64v-48.063Z" fill="currentColor"/>
	<path class="lexicon-icon-outline" fill-rule="evenodd" clip-rule="evenodd" d="M82.216 479.998c.014 11.039 5.74 21.782 16.004 27.709 15.14 8.744 34.494 3.713 43.463-11.298L409.336 48.431c9.162-15.336 4-35.205-11.467-44.138-15.14-8.744-34.494-3.713-43.463 11.299l-47.069 78.78L241.1 44.664C230 36.362 216.5 31.86 202.7 31.86H64c-35.3 0-64 28.709-64 64.02v320.099c0 35.31 28.7 64.019 64 64.019h18.216Zm52.096-96.029L224 233.855v-26.036c0-63.717-96-64.067-96 0v48.063h-9.594C104.297 255.882 96 267.386 96 281.49v76.871c0 14.104 8.297 25.608 22.406 25.608h15.906Z" fill="currentColor"/>
	<path class="lexicon-icon-outline" d="M448 479.998H220.847L430.373 127.89H448c35.3 0 64 28.709 64 64.02v224.069c0 35.31-28.7 64.019-64 64.019Z" fill="currentColor"/>
</svg>