<!--
* SPDX-FileCopyrightText: © 2022 Liferay, Inc. <https://liferay.com>
* SPDX-FileCopyrightText: © 2022 Contributors to the project Clay <https://github.com/liferay/clay/graphs/contributors>
*
* SPDX-License-Identifier: BSD-3-Clause
-->
<svg xmlns="http://www.w3.org/2000/svg" viewBox="0 0 512 512">
	<path class="lexicon-icon-outline" d="M208 175.906c0-42.35-64-42-64 0v48.049h64v-48.049Zm-16 144.096h-32v-48.049h32v48.049Z" fill="currentColor"/>
	<path class="lexicon-icon-outline" fill-rule="evenodd" clip-rule="evenodd" d="M352 96h96c35.3 0 64 28.7 64 64v224c0 35.3-28.7 64-64 64H64c-35.3 0-64-28.7-64-64V64C0 28.7 28.7 0 64 0h138.7c13.8 0 27.3 4.5 38.4 12.8L352 96ZM224 223.953h6.406c14.094 0 25.594 11.5 25.594 25.6V326.4c0 14.1-11.5 25.6-25.594 25.6h-112C104.297 352 96 340.5 96 326.4v-76.847c0-14.1 8.297-25.6 22.406-25.6H128v-48.049c0-64.047 96-63.697 96 0v48.049Z" fill="currentColor"/>
</svg>