<!--
* SPDX-FileCopyrightText: © 2020 Liferay, Inc. <https://liferay.com>
* SPDX-FileCopyrightText: © 2020 Contributors to the project Clay <https://github.com/liferay/clay/graphs/contributors>
*
* SPDX-License-Identifier: BSD-3-Clause
-->
<svg xmlns="http://www.w3.org/2000/svg" viewBox="0 0 512 512"> 
	<path class="lexicon-icon-outline font-family-capital-a" d="M264.4,375.1L175.6,126 c-15.3-40.4-69.5-39.4-84.8,0l-89,249.2c-11.7,34.4,38.6,53.1,52.1,17.8l20.5-62.7h117.4l20.5,62.6 C226.4,429.4,275.9,408.3,264.4,375.1z M88.6,286.7l43.9-134.4h1.1l43.9,134.4H88.6z"></path>
	<path class="lexicon-icon-outline font-family-lowercase-a" d="M316.1,229.9c-8.5,34.1,46.5,36.9,49.9,12.4 c5.8-37.3,100.5-52.5,90.3,25.1C176.5,251,345,517.6,456.4,374c-6.9,47.6,55.6,44.7,55.6,11.2c0-5.5,0-138.2,0-138.2 C512.1,150.1,341.5,138.2,316.1,229.9z M359.6,340.6c0.8-33.3,32-39.8,96.9-36.1C462,392.5,359.6,386.7,359.6,340.6z"></path>
</svg>
