<!--
* SPDX-FileCopyrightText: © 2020 Liferay, Inc. <https://liferay.com>
* SPDX-FileCopyrightText: © 2020 Contributors to the project Clay <https://github.com/liferay/clay/graphs/contributors>
*
* SPDX-License-Identifier: BSD-3-Clause
-->
<svg xmlns="http://www.w3.org/2000/svg" viewBox="0 0 512 512">
	<path class="lexicon-icon-outline font-size-ns-resize" d="M455.4,348.5L441,362.9V151l14.4,13.6c33.9,29.2,75.9-17.1,46.9-46.2l-62.9-61.1c-12.9-12.5-33.7-12.5-46.6,0L330,118.5 c-29.9,31.6,13.6,73.9,46.9,45l14.4-14.4V361l-14.4-13.6c-30.7-27.9-77.4,12.7-46.9,46.2l62.9,61.1c12.9,12.5,33.7,12.5,46.6,0 l62.9-61.1C531.7,363,487.6,318.4,455.4,348.5z"></path>
	<path class="lexicon-icon-outline font-size-lowercase-a" d="M14.8,183.6C4.9,223.4,69,226.7,73,198.1c6.8-43.5,117.2-61.3,105.4,29.3 c-326.5-19.2-129.9,291.8,0,124.3c-8,55.5,64.9,52.2,64.9,13.1c0-6.4,0-161.2,0-161.2C243.4,90.5,44.4,76.6,14.8,183.6z M65.5,312.7 c0.9-38.9,37.3-46.4,113-42.1C185,373.3,65.5,366.5,65.5,312.7z"></path>
</svg>
