<!--
* SPDX-FileCopyrightText: © 2020 Liferay, Inc. <https://liferay.com>
* SPDX-FileCopyrightText: © 2020 Contributors to the project Clay <https://github.com/liferay/clay/graphs/contributors>
*
* SPDX-License-Identifier: BSD-3-Clause
-->
<svg xmlns="http://www.w3.org/2000/svg" viewBox="0 0 16 16"><path class="lexicon-icon-outline" d="M0 14.7a.7.7 0 0 1 .7-.7h2.6a.7.7 0 0 1 .7.7v.6a.7.7 0 0 1-.7.7H.7a.7.7 0 0 1-.7-.7v-.6Zm6 0a.7.7 0 0 1 .7-.7h2.6a.7.7 0 0 1 .7.7v.6a.7.7 0 0 1-.7.7H6.7a.7.7 0 0 1-.7-.7v-.6Zm6 0a.7.7 0 0 1 .7-.7h2.6a.7.7 0 0 1 .7.7v.6a.7.7 0 0 1-.7.7h-2.6a.7.7 0 0 1-.7-.7v-.6Zm2-2.7H2c-1 0-2-1.197-2-2.4V2.4C0 1.206 1 0 2 0h12c1 0 2 1.197 2 2.4v7.2c0 1.201-1 2.4-2 2.4ZM2 2v8h12V2H2Z"/></svg>