<!--
* SPDX-FileCopyrightText: © 2022 Liferay, Inc. <https://liferay.com>
* SPDX-FileCopyrightText: © 2022 Contributors to the project Clay <https://github.com/liferay/clay/graphs/contributors>
*
* SPDX-License-Identifier: BSD-3-Clause
-->
<svg xmlns="http://www.w3.org/2000/svg" viewBox="0 0 512 512">
	<path class="lexicon-icon-outline" d="M0,256.9c0-343.6,512-341.4,512,0C512,594.6,0,599.5,0,256.9z M420.2,356.6H379c5.2-25.9,8.5-53.8,9.4-83.1h58.9C444.7,303.7,435.2,331.9,420.2,356.6z M447.3,240.3h-58.9c-0.9-29.2-4.2-57.2-9.4-83.1h41.2C435.2,181.8,444.7,210,447.3,240.3z M272.6,65.2c14.6,1.3,28.7,4.1,42.2,8.5c7.9,13.9,15.4,31.2,21.4,50.3h-63.7V65.2z M197.2,73.7c13.5-4.3,27.6-7.2,42.2-8.5V124h-63.7C181.8,104.9,189.3,87.7,197.2,73.7z M117.2,124c9.9-10.4,21-19.7,33.1-27.7c-3.3,8.8-6.4,18.1-9.2,27.7H117.2z M64.7,240.3c2.6-30.2,12.1-58.5,27.1-83.1H133c-5.2,25.9-8.5,53.8-9.4,83.1H64.7z M91.8,356.6c-14.9-24.6-24.5-52.8-27.1-83.1h58.9c0.9,29.2,4.2,57.2,9.4,83.1H91.8z M150.3,417.5c-12-8-23.1-17.3-33.1-27.7h23.9C143.9,399.4,146.9,408.6,150.3,417.5z M239.4,448.5c-14.6-1.3-28.7-4.1-42.2-8.5c-7.9-13.9-15.4-31.2-21.4-50.3h63.7V448.5z M314.8,440c-13.5,4.3-27.6,7.2-42.2,8.5v-58.7h63.7C330.2,408.8,322.7,426.1,314.8,440z M361.7,417.5c3.3-8.8,6.4-18.1,9.2-27.7h23.9C384.9,400.2,373.8,409.5,361.7,417.5z M361.7,96.3c12,8,23.1,17.3,33.1,27.7h-23.9C368.1,114.4,365.1,105.1,361.7,96.3z M355.2,273.5c-1,29.7-4.5,57.7-10.1,83.1h-72.5v-83.1H355.2z M345.1,157.2c5.6,25.4,9.1,53.4,10.1,83.1h-82.6v-83.1H345.1z M156.8,240.3c1-29.7,4.5-57.7,10.1-83.1h72.5v83.1H156.8z M166.9,356.6c-5.6-25.4-9.1-53.4-10.1-83.1h82.6v83.1H166.9z" clip-rule="evenodd" fill-rule="evenodd"/>
</svg>