<!--
* SPDX-FileCopyrightText: © 2022 Liferay, Inc. <https://liferay.com>
* SPDX-FileCopyrightText: © 2022 Contributors to the project Clay <https://github.com/liferay/clay/graphs/contributors>
*
* SPDX-License-Identifier: BSD-3-Clause
-->
<svg xmlns="http://www.w3.org/2000/svg" viewBox="0 0 512 512">
	<path class="lexicon-icon-outline lx-globe-pin-pin" d="M351.5,336c-60.3-63.1-120.5-140.7-120.5-210.4c0-166.1,241.1-168.7,241.1,0C472,195.3,411.7,272.9,351.5,336z M291.2,125.6c0-82.6,120.5-81.8,120.5,0C411.7,206.9,291.2,209,291.2,125.6z" clip-rule="evenodd" fill-rule="evenodd"/>
	<path class="lexicon-icon-outline lx-globe-pin-globe" d="M158.6,160H94.3v64H62.2c-26.4,117.1,128.6,33.2,128.6,192c0,86.8,99.7,68.9,154.3,44.8c0,0-12.9-67.2-25.7-76.8c-56.7-42.4-160.7,6.4-97.3-126.8c32.5,51.2,78.7,101.7,129.5,142.8c35.3-28.6,68.4-61.7,96.2-96.4c-3.4,36.3-22.3,99.6-22.3,99.6c42.8-49.6,54.8-104.6,55.6-146.1c10.4-16.4,19.4-32.9,26.6-49.1c29.6,153.9-93.8,304-252.6,304C-62.3,512-94.3,46.9,220.1,0C165,55.5,201.4,149.4,158.6,160z"/>
</svg>