<!--
* SPDX-FileCopyrightText: © 2022 Liferay, Inc. <https://liferay.com>
* SPDX-FileCopyrightText: © 2022 Contributors to the project Clay <https://github.com/liferay/clay/graphs/contributors>
*
* SPDX-License-Identifier: BSD-3-Clause
-->
<svg xmlns="http://www.w3.org/2000/svg" viewBox="0 0 512 512">
  <path class="lexicon-icon-outline lx-hierarchy-line-1" fill-rule="evenodd" clip-rule="evenodd" d="M0 64C0 28.654 28.654 0 64 0h320c35.346 0 64 28.654 64 64v64c0 35.346-28.654 64-64 64H64c-35.346 0-64-28.654-64-64V64Zm384 0H64v64h320V64Z" />
  <path class="lexicon-icon-outline lx-hierarchy-line-2" d="M128 304c0-26.51 21.49-48 48-48h288c26.51 0 48 21.49 48 48s-21.49 48-48 48H176c-26.51 0-48-21.49-48-48Zm0 160c0-26.51 21.49-48 48-48h288c26.51 0 48 21.49 48 48s-21.49 48-48 48H176c-26.51 0-48-21.49-48-48Z" />
</svg>