<!--
* SPDX-FileCopyrightText: © 2024 Liferay, Inc. <https://liferay.com>
* SPDX-FileCopyrightText: © 2024 Contributors to the project Clay <https://github.com/liferay/clay/graphs/contributors>
*
* SPDX-License-Identifier: BSD-3-Clause
-->
<svg xmlns="http://www.w3.org/2000/svg" viewBox="0 0 512 512">
    <path fill-rule="evenodd" clip-rule="evenodd" d="M287.954 94.965a30.445 30.445 0 0 0-4.844 6.301H182.548V55.629c0-16.803-13.621-30.424-30.424-30.424h-121.7C13.623 25.205 0 38.826 0 55.629v121.699c0 16.803 13.622 30.425 30.425 30.425h121.699c16.803 0 30.424-13.622 30.424-30.425v-45.637h68.574c-5.37 9.138-8.449 19.784-8.449 31.149v197.036c0 25.205-20.432 45.638-45.637 45.638h-14.488c-.422 0-.84.017-1.253.05-7.222-43.193-44.777-76.112-90.02-76.112C40.864 329.452 0 370.317 0 420.726S40.865 512 91.274 512c45.244 0 82.8-32.919 90.021-76.113.413.034.831.051 1.253.051h14.488c42.008 0 76.062-34.054 76.062-76.062V162.84c0-10.801 5.497-20.318 13.847-25.905.326.358.662.711 1.009 1.057l86.054 86.054c11.881 11.882 31.145 11.882 43.027 0l86.054-86.054c11.881-11.881 11.881-31.145 0-43.027L417.035 8.911c-11.882-11.881-31.146-11.881-43.027 0l-86.054 86.054ZM60.849 146.903h60.85V86.054h-60.85v60.849Zm30.425 304.248c-16.803 0-30.425-13.622-30.425-30.425s13.622-30.425 30.425-30.425 30.425 13.622 30.425 30.425-13.622 30.425-30.425 30.425Zm261.22-334.672 43.027 43.027 43.027-43.027-43.027-43.027-43.027 43.027Z" fill="#000"/>
</svg>