<!--
* SPDX-FileCopyrightText: © 2020 Liferay, Inc. <https://liferay.com>
* SPDX-FileCopyrightText: © 2020 Contributors to the project Clay <https://github.com/liferay/clay/graphs/contributors>
*
* SPDX-License-Identifier: BSD-3-Clause
-->
<svg xmlns="http://www.w3.org/2000/svg" viewBox="0 0 512 512">
	<path class="lexicon-icon-outline" d="M72.5,106.9H56.1V9.5c0-3.4-0.6-5.8-1.7-7.3S51.3,0,48.6,0c-0.9,0-2,0.1-3.3,0.4c-1.4,0.3-3.1,0.7-5.2,1.2L15.1,8.3c-3.5,0.8-6.1,2-7.8,3.7s-2.5,3.5-2.5,5.8c0,3.2,0.8,5.6,2.3,7.3s3.7,2.6,6.4,2.6c0.5,0,1.4-0.1,2.5-0.3c1.1-0.2,2.6-0.5,4.3-0.9l11.3-2.9v83.3H12.8c-4.6,0-7.8,0.8-9.8,2.5c-2,1.7-3,4.3-3,8.1c0,3.7,1,6.3,2.9,8s5.3,2.5,9.9,2.5h59.6c4.6,0,7.9-0.8,9.9-2.5c2-1.7,2.9-4.3,2.9-8c0-3.8-1-6.4-3-8.1C80.2,107.8,77,106.9,72.5,106.9L72.5,106.9L72.5,106.9z M80.4,288.4c-3.5,0-6.2,0.8-8,2.4c-1.8,1.6-2.7,4-2.7,7.2v0.6H35.1L65,273.6c8-6.6,13.8-13.3,17.6-20c3.8-6.6,5.7-13.6,5.7-21c0-10.9-3.6-19.6-10.9-26.1c-7.3-6.4-17.1-9.7-29.5-9.7c-6.6,0-12.8,0.8-18.5,2.4c-5.7,1.6-11.1,4-16.2,7.3c-3.2,2.1-5.3,4.2-6.3,6.3c-1,2.1-1.6,5.3-1.6,9.5c0,4.1,0.8,7.2,2.5,9.3c1.7,2.1,4.1,3.1,7.5,3.1c3.8,0,7.3-2.5,10.5-7.4c1.1-1.8,2.1-3.2,2.9-4.1c1.4-1.8,3.5-3.2,6.2-4.1c2.7-1,5.7-1.5,9.1-1.5c5.8,0,10.2,1.4,13.1,4.2s4.3,7.1,4.3,12.7c0,4-1.1,8.1-3.2,12.2c-2.1,4-5.4,8.1-9.7,12.2L8.2,296.3c-2.8,2.6-4.9,5.1-6.2,7.4c-1.3,2.4-2,4.8-2,7.2c0,2.9,1,5.2,3.1,6.7s5,2.4,8.8,2.4h70.9c2.1,0,3.6-0.4,4.4-1.1c0.8-0.8,1.3-2.6,1.4-5.5l0.8-14.7v-1.2c0-2.9-0.8-5.1-2.4-6.6C85.5,289.2,83.3,288.4,80.4,288.4L80.4,288.4L80.4,288.4z M63.2,442.5c6.5-3,11.4-6.6,14.4-10.9c3.1-4.3,4.6-9.7,4.6-15.9c0-9.6-3.4-17.3-10.1-23c-6.7-5.8-15.7-8.7-27-8.7c-11.2,0-20.7,2-28.3,5.8s-11.5,8.6-11.5,14c0,2.5,0.8,4.6,2.3,6.2c1.5,1.6,3.6,2.4,6.1,2.4c2.3,0,6.4-1.5,12.3-4.5s11.4-4.5,16.1-4.5c4.5,0,8,1.3,10.5,3.8c2.5,2.5,3.8,6.1,3.8,10.6c0,5.3-1,9.1-3.1,11.4s-6.6,4-13.6,5c-0.4,0-1,0.1-1.8,0.2c-5.6,0.8-8.4,3.7-8.4,8.9c0,3.7,0.7,6.3,2.1,7.8c1.4,1.5,4.1,2.2,8.2,2.3c7.8,0.3,13.1,1.9,15.8,4.6c2.8,2.8,4.1,7.4,4.1,13.8c0,6-1.7,10.7-4.9,13.9c-3.3,3.3-7.9,4.9-14,4.9c-5.1,0-10.9-1.5-17.5-4.3c-6.6-2.9-10.7-4.3-12.3-4.3c-3.4,0-6.1,1-8.1,2.9c-2,2.1-3,4.7-3,7.8c0,5.3,3.7,9.8,11.2,13.6c7.5,3.7,16.9,5.6,28.3,5.6c14.1,0,25.3-3.5,33.5-10.5s12.3-16.5,12.3-28.6c0-7.9-1.8-14.4-5.5-19.4C76.2,448.5,70.7,444.9,63.2,442.5L63.2,442.5L63.2,442.5z M189.2,31.6h293.5c39.1,0,39.1,64,0,64H189.2C150.3,95.6,150.3,31.6,189.2,31.6z M189.2,224h293.5c39.1,0,39.1,64,0,64H189.2C150.3,288,150.3,224,189.2,224z M189.2,416h293.5c39.1,0,39.1,64,0,64H189.2C150.3,480,150.3,416,189.2,416z"/>
</svg>