<!--
* SPDX-FileCopyrightText: © 2020 Liferay, Inc. <https://liferay.com>
* SPDX-FileCopyrightText: © 2020 Contributors to the project Clay <https://github.com/liferay/clay/graphs/contributors>
*
* SPDX-License-Identifier: BSD-3-Clause
-->
<svg xmlns="http://www.w3.org/2000/svg" viewBox="0 0 512 512">
	<path class="lexicon-icon-outline" d="M31.8,416H352c42.7,0,42.7,64,0,64H31.8C-10.6,480-10.6,416,31.8,416z M31.8,288H352c42.7,0,42.7-64,0-64H31.8C-10.6,224-10.6,288,31.8,288z M31.8,95.6H352c42.7,0,42.7-64,0-64H31.8C-10.6,31.6-10.6,95.6,31.8,95.6z M448,63.7c0,42.6,64,42.6,64,0C512,21,448,21,448,63.7z M448,256c0,42.6,64,42.6,64,0C512,213.3,448,213.3,448,256z M448,448c0,42.6,64,42.6,64,0C512,405.3,448,405.3,448,448z"/>
</svg>