<!--
* SPDX-FileCopyrightText: © 2020 Liferay, Inc. <https://liferay.com>
* SPDX-FileCopyrightText: © 2020 Contributors to the project Clay <https://github.com/liferay/clay/graphs/contributors>
*
* SPDX-License-Identifier: BSD-3-Clause
-->
<svg xmlns="http://www.w3.org/2000/svg" viewBox="0 0 512 512">
	<path class="lexicon-icon-outline" d="M159.8,416H480c42.7,0,42.7,64,0,64H159.8C117.4,480,117.4,416,159.8,416z M159.8,288H480c42.7,0,42.7-64,0-64H159.8C117.4,224,117.4,288,159.8,288z M159.8,95.6H480c42.7,0,42.7-64,0-64H159.8C117.4,31.6,117.4,95.6,159.8,95.6z M0,63.7c0,42.6,64,42.6,64,0C64,21,0,21,0,63.7z M0,256c0,42.6,64,42.6,64,0C64,213.3,0,213.3,0,256z M0,448c0,42.6,64,42.6,64,0C64,405.3,0,405.3,0,448z"/>
</svg>
