<!--
* SPDX-FileCopyrightText: © 2020 Liferay, Inc. <https://liferay.com>
* SPDX-FileCopyrightText: © 2020 Contributors to the project Clay <https://github.com/liferay/clay/graphs/contributors>
*
* SPDX-License-Identifier: BSD-3-Clause
-->
<svg xmlns="http://www.w3.org/2000/svg" viewBox="0 0 512 512">
	<path class="lexicon-icon-outline" d="M506.8,254c-32.7-49.2-73.2-85.3-117.3-108.9l-29.4,51c30.4,17.3,60.1,42.2,88.1,75.4c-58.9,68.7-124.7,102.7-190.8,102.7l-32.2,55.9c103.5,11.1,211.1-36.3,281.5-141.2C513.7,278.6,513.7,264.4,506.8,254z M297.9,64.3l-28.5,48.5c-98-4.2-197.4,43.1-264.1,141.4c-7,10.3-7.1,24.3-0.2,34.9c29.3,44.3,65.1,77.8,104.2,101.3l-14.1,25.5c-20,37.6,32.9,67.9,55.4,32.1L353.3,96.4C372.7,64.3,324.8,25.4,297.9,64.3z M261.1,367.4c97.2-10,100.7-104.1,80.2-139L261.1,367.4z"/>
</svg>