<!--
* SPDX-FileCopyrightText: © 2022 Liferay, Inc. <https://liferay.com>
* SPDX-FileCopyrightText: © 2022 Contributors to the project Clay <https://github.com/liferay/clay/graphs/contributors>
*
* SPDX-License-Identifier: BSD-3-Clause
-->
<svg viewBox="0 0 16 16" xmlns="http://www.w3.org/2000/svg"><path class="lexicon-icon-outline" d="M9.47 1.96a.655.655 0 0 0 1.307.001c.36 0 .654-.294.654-.654a.656.656 0 0 0-.654-.653.655.655 0 0 0-.653-.654.656.656 0 0 0-.654.657.653.653 0 1 0 0 1.304Zm4.682 1.199-.19-.191-.185.19a.649.649 0 0 1-.464.191.648.648 0 0 1-.462-.19.648.648 0 0 1 0-.923l.19-.19-.19-.191a.648.648 0 0 1 0-.923.65.65 0 0 1 .923 0l.19.19.19-.19a.65.65 0 0 1 .923 0 .648.648 0 0 1 0 .923l-.19.19.19.191a.648.648 0 0 1 0 .923.648.648 0 0 1-.462.19.649.649 0 0 1-.463-.19Z" /><path class="lexicon-icon-outline" fill-rule="evenodd" clip-rule="evenodd" d="M10.474 3.568a1.94 1.94 0 0 0-1.385.576L.572 12.66a1.936 1.936 0 0 0-.571 1.426A1.954 1.954 0 0 0 1.959 16c.521 0 1.016-.203 1.384-.575l8.517-8.516a1.963 1.963 0 0 0 0-2.771c-.37-.366-.86-.57-1.386-.57Zm.462 2.421L9.465 7.458l-.923-.923 1.469-1.469a.655.655 0 0 1 .925.923Z" /><path class="lexicon-icon-outline" d="M14.693 5.226c.36 0 .653.294.653.654a.653.653 0 1 1 0 1.307c0 .36-.293.653-.653.653a.656.656 0 0 1-.654-.653.655.655 0 0 1-.653-.654c0-.36.294-.653.653-.653 0-.36.295-.654.654-.654Z" /></svg>