<!--
* SPDX-FileCopyrightText: © 2020 Liferay, Inc. <https://liferay.com>
* SPDX-FileCopyrightText: © 2020 Contributors to the project Clay <https://github.com/liferay/clay/graphs/contributors>
*
* SPDX-License-Identifier: BSD-3-Clause
-->
<svg xmlns="http://www.w3.org/2000/svg" viewBox="0 0 512 512">
	<path class="lexicon-icon-outline maps-pin" d="M132.2,162.9c0,73.7,61.9,153.7,123.7,221c61.9-67.3,123.7-147.3,123.7-221C379.7-13.2,132.2-10,132.2,162.9z M194.1,162.9 c0-86.5,123.7-86.5,123.7,0S194.1,249.4,194.1,162.9z"/>
	<path class="lexicon-icon-outline maps-item" d="M475.6,432l-46.4-80.1c-12.4-19.2-30.9-32-52.6-32h-27.8c-9.3,12.8-18.6,25.6-30.9,41.6c65,19.2,18.6,54.4-61.9,54.4 c-83.5,0-126.8-35.2-61.9-54.4c-12.4-12.8-21.7-28.8-30.9-41.6h-27.8c-21.7,0-43.3,12.8-52.6,32L36.4,432c-12.4,22.4,3.1,48,27.8,48 h386.7C472.5,480,488,454.4,475.6,432z"/>
</svg>
