<!--
* SPDX-FileCopyrightText: © 2020 Liferay, Inc. <https://liferay.com>
* SPDX-FileCopyrightText: © 2020 Contributors to the project Clay <https://github.com/liferay/clay/graphs/contributors>
*
* SPDX-License-Identifier: BSD-3-Clause
-->

<svg xmlns="http://www.w3.org/2000/svg" viewBox="0 0 16 16"><path class="lexicon-icon-outline" fill-rule="evenodd" clip-rule="evenodd" d="M2 .017c-.35 0-.67.23-.77.57C1.23.587 0 4.724 0 4.794c0 .92.38 1.749 1 2.339v8.015c0 .47.39.859.86.859H7.2v-3.998c0-1.259 1.6-1.259 1.6 0v3.998h5.36c.47 0 .84-.38.84-.84V7.133a3.16 3.16 0 0 0 1-2.339c0-.06-.9-3.088-1.23-4.217a.795.795 0 0 0-.77-.57H2v.01Zm11.31 7.955a3.23 3.23 0 0 1-2.91-1.04c-1.26 1.44-3.54 1.44-4.8 0-.72.82-1.84 1.22-2.91 1.04v5.816c0 .28.23.5.5.5H5.6v-2.289c0-3.517 4.8-3.467 4.8 0v2.289h2.42c.27 0 .5-.22.5-.5V7.962l-.01.01ZM4.8 4.804c0 2.129-3.07 2.109-3.2.12l.86-2.878a.61.61 0 0 1 .57-.43h9.91c.27 0 .5.17.58.43l.86 2.878c-.13 1.989-3.18 2.009-3.18-.12 0-1.07-1.6-1.07-1.6 0 0 2.129-3.2 2.129-3.2 0 0-1.07-1.6-1.07-1.6 0Z"/></svg>