<!--
* SPDX-FileCopyrightText: © 2022 Liferay, Inc. <https://liferay.com>
* SPDX-FileCopyrightText: © 2022 Contributors to the project Clay <https://github.com/liferay/clay/graphs/contributors>
*
* SPDX-License-Identifier: BSD-3-Clause
-->
<svg xmlns="http://www.w3.org/2000/svg" viewBox="0 0 512 512">
	<path class="lexicon-icon-outline lx-no-bot-1" fill-rule="evenodd" clip-rule="evenodd" d="M471.463 54.627c12.497-12.496 12.497-32.758 0-45.254-12.496-12.497-32.758-12.497-45.254 0L371.581 64h-82.745V32c0-17.673-14.327-32-32-32-17.673 0-32 14.327-32 32v32h-96c-35.346 0-64 28.654-64 64v64c-35.346 0-64 28.654-64 64 0 35.346 28.654 64 64 64v50.745l-54.627 54.628c-12.497 12.496-12.497 32.758 0 45.254 11.457 11.458 29.443 12.411 41.986 2.858l257.731-257.732c-12.727-8.632-21.09-23.216-21.09-39.753 0-26.51 21.49-48 48-48 16.537 0 31.121 8.363 39.753 21.09l94.874-94.463ZM224.835 176c0 26.51-21.49 48-48 48-26.509 0-48-21.49-48-48s21.491-48 48-48c26.51 0 48 21.49 48 48Z"/>
	<path class="lexicon-icon-outline lx-no-bot-2" d="M448.836 167.353 296.189 320h24.647c17.673 0 32 14.327 32 32 0 17.673-14.327 32-32 32l-87.85-.797L168.189 448h216.647c35.346 0 64-28.654 64-64v-64c35.346 0 64-28.654 64-64 0-35.346-28.654-64-64-64v-24.647Z"/>
</svg>