<!--
* SPDX-FileCopyrightText: © 2022 Liferay, Inc. <https://liferay.com>
* SPDX-FileCopyrightText: © 2022 Contributors to the project Clay <https://github.com/liferay/clay/graphs/contributors>
*
* SPDX-License-Identifier: BSD-3-Clause
-->
<svg xmlns="http://www.w3.org/2000/svg" viewBox="0 0 512 512">
	<path class="lexicon-icon-outline" d="M387.9,365.3l-31.2-31.2c36-44,36.9-104.5,3.9-151.7l32.9-32.9C422.9,172.6,512,159.8,512,79.7c0-106.5-160-106.1-160,0c0,18.5,6.5,35.3,17.1,48.9l-30.3,30.3c-50.5-40.4-112.3-41.8-160.9-3.9l-31.2-31.2C155.1,111.2,160,96,160,79.7c0-103-160-108.3-160,0c0,62.9,71.7,102.4,124.1,66.8l31.2,31.2c-28.3,30.3-45.4,108.9,3.9,161.1l-30.3,30.3C80,329.3,0,359.8,0,432c0,106.6,160,106.6,160,0c0-14.1-3.9-27.1-10.3-38.5l32.9-32.9c43.9,31.8,106.6,31.8,151.5-3.9l31.2,31.2c-8.4,12.7-13.3,27.8-13.3,44.1c0,103.3,160,109.5,160,0C512,360.2,430.3,332.2,387.9,365.3z M448,79.7c0,20.4-32,21.4-32,0C416,58.6,448,58.8,448,79.7z M64,79.7c0-21.9,32-21.1,32,0C96,100.2,64,100.7,64,79.7z M64,432c0-20.7,32-21.7,32,0C96,452.9,64,452.7,64,432z M192,255.9c0-84.5,128-85,128,0C320,339.9,192,341.4,192,255.9z M416.2,433c0-23.1,31.8-20.8,31.8-0.9C448,453,416.2,451.8,416.2,433z"/>
</svg>