<!--
* SPDX-FileCopyrightText: © 2022 Liferay, Inc. <https://liferay.com>
* SPDX-FileCopyrightText: © 2022 Contributors to the project Clay <https://github.com/liferay/clay/graphs/contributors>
*
* SPDX-License-Identifier: BSD-3-Clause
-->
<svg xmlns="http://www.w3.org/2000/svg" viewBox="0 0 512 512">
	<path class="lexicon-icon-outline lx-order-form-pencil-border" d="M64,64h336c0,41.3,64,41.3,64,0c0-35.3-28.7-64-64-64H64C28.7,0,0,28.7,0,64v384c0,35.3,28.7,64,64,64h192c41.3,0,41.3-64,0-64H64V64z"/>
	<path class="lexicon-icon-outline lx-order-form-pencil-line-1" d="M160,128h144c41.3,0,41.3,64,0,64H160C118.7,192,118.7,128,160,128z"/>
	<path class="lexicon-icon-outline lx-order-form-pencil-line-2" d="M160,224h96c41.3,0,41.3,64,0,64h-96C118.7,288,118.7,224,160,224z"/>
	<path class="lexicon-icon-outline lx-order-form-pencil-line-3" d="M160,320c-41.3,0-41.3,64,0,64h96c41.3,0,41.3-64,0-64H160z"/>
	<path class="lexicon-icon-outline lx-order-form-pencil-pencil" d="M339,425.5l0.1-219.1l86.4-84.1L512,208v217.6C512,540,339,541.6,339,425.5z M425.4,206.4l-28.8,28.5l0.1,117.1l57.6,0l-0.1-117.1L425.4,206.4z M454.2,416l-57.6,0C389.7,467,460.6,467.7,454.2,416z" clip-rule="evenodd" fill-rule="evenodd"/>
</svg>