<!--
* SPDX-FileCopyrightText: © 2020 Liferay, Inc. <https://liferay.com>
* SPDX-FileCopyrightText: © 2020 Contributors to the project Clay <https://github.com/liferay/clay/graphs/contributors>
*
* SPDX-License-Identifier: BSD-3-Clause
-->
<svg xmlns="http://www.w3.org/2000/svg" viewBox="0 0 512 512">
	<path class="lexicon-icon-outline order-ascending-item-1" d="M464,480H306.3c-16.9,0-19.6-18.6-11.2-27.4l130.8-133H306.3c-21.1,0-20.8-32.1,0-32.1H464c12.8,0,21.9,16.1,11.2,27.4 l-130.8,133H464C485,447.9,485.1,480,464,480z"/>
	<path class="lexicon-icon-outline order-ascending-item-2" d="M478.6,233.3L399.7,40.9c-4.9-11.9-24.2-11.9-29.1,0l-78.9,192.4c-7.5,19.8,20.8,31.4,29.1,12.3l15.9-38.8L434,208 l15.4,37.6C458.2,265.9,486.6,251.6,478.6,233.3z M349.8,174.9l35.3-86.2l35.7,87L349.8,174.9z"/>
	<path class="lexicon-icon-outline order-ascending-item-3" d="M220.1,138.6l-66.9-68c-12.3-12.5-32.3-12.5-44.6,0c-0.2,0.2-0.2,0.4-0.4,0.6l-66.5,67.6c-29.2,29.7,14.4,76.1,44.6,45.3 l14.9-15.2v246.9c0,42.7,63.1,43,63.1,0V172.6l11.2,11.3C204.8,213.8,249.7,168.7,220.1,138.6z"/>
</svg>
