<!--
* SPDX-FileCopyrightText: © 2022 Liferay, Inc. <https://liferay.com>
* SPDX-FileCopyrightText: © 2022 Contributors to the project Clay <https://github.com/liferay/clay/graphs/contributors>
*
* SPDX-License-Identifier: BSD-3-Clause
-->
<svg xmlns="http://www.w3.org/2000/svg" viewBox="0 0 512 512">
	<path class="lexicon-icon-outline lx-order-form-line-1" d="M176,128c-40.9,0-43.8,64,0,64h160c42.8,0,42.5-64,0-64H176z"/>
	<path class="lexicon-icon-outline lx-order-form-line-2" d="M176,224c-40.9,0-43.8,64,0,64h160c42.8,0,42.5-64,0-64H176z"/>
	<path class="lexicon-icon-outline lx-order-form-line-3" d="M176,320c-40.9,0-43.8,64,0,64h160c42.8,0,42.5-64,0-64H176z"/>
	<path class="lexicon-icon-outline lx-order-form-border" d="M48,64c0-35.3,28.7-64,64-64h288c35.3,0,64,28.7,64,64v384c0,35.3-28.7,64-64,64H112c-35.3,0-64-28.7-64-64V64z M112,64h288v384H112V64z" clip-rule="evenodd" fill-rule="evenodd"/>
</svg>