<!--
* SPDX-FileCopyrightText: © 2022 Liferay, Inc. <https://liferay.com>
* SPDX-FileCopyrightText: © 2022 Contributors to the project Clay <https://github.com/liferay/clay/graphs/contributors>
*
* SPDX-License-Identifier: BSD-3-Clause
-->
<svg xmlns="http://www.w3.org/2000/svg" viewBox="0 0 512 512">
	<path class="lexicon-icon-outline" d="M352,64H64v384h160c41.3,0,41.3,64,0,64H64c-35.3,0-64-28.7-64-64V64C0,28.7,28.7,0,64,0h288c35.3,0,64,28.7,64,64v128c0,41.3-64,41.3-64,0V64z M288,128H128c-41.3,0-41.3,64,0,64h160C329.3,192,329.3,128,288,128z M128,224c-41.3,0-41.3,64,0,64h96c41.3,0,41.3-64,0-64H128z M160,320h-32c-41.3,0-41.3,64,0,64h32C201.3,384,201.3,320,160,320z M448,320v45.3l-69.5,69.5l-45.3-45.3l69.5-69.5H448z M366.9,265.4c6-6,14.1-9.4,22.6-9.4H480c17.7,0,32,14.3,32,32v90.5c0,8.5-3.4,16.6-9.4,22.6L401.1,502.6c-12.5,12.5-32.8,12.5-45.3,0l-90.5-90.5c-12.5-12.5-12.5-32.8,0-45.3L366.9,265.4z" clip-rule="evenodd" fill-rule="evenodd"/>
</svg>