<!--
* SPDX-FileCopyrightText: © 2022 Liferay, Inc. <https://liferay.com>
* SPDX-FileCopyrightText: © 2022 Contributors to the project Clay <https://github.com/liferay/clay/graphs/contributors>
*
* SPDX-License-Identifier: BSD-3-Clause
-->
<svg xmlns="http://www.w3.org/2000/svg" viewBox="0 0 512 512">
	<path class="lexicon-icon-outline" d="M352,64H64v384h144c41.3,0,41.3,64,0,64H64c-35.3,0-64-28.7-64-64V64C0,28.7,28.7,0,64,0h288c35.3,0,64,28.7,64,64v128c0,41.3-64,41.3-64,0V64z M288,128H128c-41.3,0-41.3,64,0,64h160C329.2,192,329.2,128,288,128z M128,224c-41.3,0-41.3,64,0,64h96c41.3,0,41.3-64,0-64H128z M160,320h-32c-41.3,0-41.3,64,0,64h32C201.3,384,201.3,320,160,320z M481.4,396.4c1.1-7.7-0.3-19.6-1-25c1.9-1.3,40.8-16.5,29.2-36.8l-17.8-31.5c-11.3-20.2-44.1,3.7-46.1,4.6c-6.4-5.2-17.1-10.9-24.9-14c-0.3-2,1-37.7-19.2-37.7h-35c-21.2,0-18.9,35.3-19.1,37.3c-9.2,3.8-18.4,9.5-25.1,14.5c-1.8-0.9-33.3-24.2-44.2-7.5l-19.9,30.5c-11.6,18.8,26.7,38.9,28.6,40.4c-0.8,5.8-1.5,17.6-0.3,25.4c-1.9,1.3-39.2,18.1-28.4,37.3l19.4,32.2c12,19.7,42.9-5.2,44.7-6.1c6.6,5.1,17.2,11.6,25.1,14.6c0.2,2-1.6,37.2,18.7,37.2l36,0.1c20.6,0,18.4-35.6,18.6-37.5c9.3-3.7,18.6-8.7,25.2-13.9c2.1,0.9,36.6,23.1,47.3,4l16.8-30C520.8,416.9,483.3,397.8,481.4,396.4z M384.1,427.6c-51.8,0-55.2-80,0-80C438.4,347.7,435.9,427.6,384.1,427.6z" clip-rule="evenodd" fill-rule="evenodd"/>
</svg>