<!--
* SPDX-FileCopyrightText: © 2020 Liferay, Inc. <https://liferay.com>
* SPDX-FileCopyrightText: © 2020 Contributors to the project Clay <https://github.com/liferay/clay/graphs/contributors>
*
* SPDX-License-Identifier: BSD-3-Clause
-->
<svg xmlns="http://www.w3.org/2000/svg" viewBox="0 0 512 512">
	<path class="lexicon-icon-outline order-list-down-arrow-down" d="M183.3,375.9c-8.6,0-17.2,3.2-23.8,9.5L142.2,402V31.9C142.2,14.3,127.4,0,109,0S75.8,14.3,75.8,31.9V402l-17.3-16.7c-13.2-12.7-34.5-12.7-47.6,0c-13.2,12.7-13.2,33.2,0,45.8l74.3,71.5c6.3,6.1,14.8,9.5,23.8,9.5c8.9,0,17.4-3.4,23.8-9.5l74.3-71.5c13.2-12.7,13.2-33.1,0-45.7C200.6,379.1,191.9,375.9,183.3,375.9z"/>
	<path class="lexicon-icon-outline order-list-down-line-3" d="M352.9,352h-64c-17.6,0-31.9,14.3-31.9,32c0.1,17.7,14.4,32,32.1,32h64c17.6,0,31.9-14.3,31.9-32S370.6,352,352.9,352z"/>
	<path class="lexicon-icon-outline order-list-down-line-2" d="M417,224H289c-17.7,0-32,14.3-32,32s14.3,32,32,32h128c17.7,0,32-14.3,32-32S434.7,224,417,224z"/>
	<path class="lexicon-icon-outline order-list-down-line-1" d="M481,96H289c-17.7,0-32,14.3-32,32s14.3,32,32,32h192c17.7,0,32-14.3,32-32S498.7,96,481,96z"/>
</svg>