<!--
* SPDX-FileCopyrightText: © 2020 Liferay, Inc. <https://liferay.com>
* SPDX-FileCopyrightText: © 2020 Contributors to the project Clay <https://github.com/liferay/clay/graphs/contributors>
*
* SPDX-License-Identifier: BSD-3-Clause
-->
<svg viewBox="0 0 16 16" xmlns="http://www.w3.org/2000/svg"><path class="lexicon-icon-outline" fill-rule="evenodd" clip-rule="evenodd" d="M13.88.884a3 3 0 0 0-2.123-.88H1.982A1.983 1.983 0 0 0 0 1.988V14.02c0 1.095.888 1.983 1.982 1.983h11.88c1.094 0 2.138-.888 2.138-1.983V4.25a3 3 0 0 0-.877-2.12L13.879.883ZM14 13.94a.258.258 0 0 1-.137.062H2V2.007h8V5.01a1 1 0 0 0 1 1h3v7.929Z" /></svg>