<!--
* SPDX-FileCopyrightText: © 2020 Liferay, Inc. <https://liferay.com>
* SPDX-FileCopyrightText: © 2020 Contributors to the project Clay <https://github.com/liferay/clay/graphs/contributors>
*
* SPDX-License-Identifier: BSD-3-Clause
-->
<svg viewBox="0 0 16 16" xmlns="http://www.w3.org/2000/svg"><path class="lexicon-icon-outline" fill-rule="evenodd" clip-rule="evenodd" d="M7.5.252a.5.5 0 0 1 .5.5h1.129C10.162.752 11 1.59 11 2.623v3.13h2a2 2 0 0 1 2 2v6a2 2 0 0 1-2 2H7a2 2 0 0 1-2-2v-1H2.871A1.871 1.871 0 0 1 1 10.88V2.623A1.87 1.87 0 0 1 2.871.753H4a.5.5 0 0 1 .5-.5h3Zm.563 12.5h1.12l.88-2.601.855 2.601h1.146l1-4h-1l-.647 2.677-.839-2.677H9.524l-.856 2.677-.605-2.677h-1l1 4Zm-5.063-2h2v-3a2 2 0 0 1 2-2h2v-3H8a.5.5 0 0 1-.5.5h-3a.5.5 0 0 1-.5-.5H3v8Z"/></svg>