<!--
* SPDX-FileCopyrightText: © 2020 Liferay, Inc. <https://liferay.com>
* SPDX-FileCopyrightText: © 2020 Contributors to the project Clay <https://github.com/liferay/clay/graphs/contributors>
*
* SPDX-License-Identifier: BSD-3-Clause
-->
<svg viewBox="0 0 16 16" xmlns="http://www.w3.org/2000/svg"><path class="lexicon-icon-outline" fill-rule="evenodd" clip-rule="evenodd" d="M15.21.798a2.689 2.689 0 0 0-1.913-.794 2.7 2.7 0 0 0-1.912.79L1.173 11.005A4 4 0 0 0 0 13.834v1.168a1 1 0 0 0 1 1h1.327a4 4 0 0 0 2.85-1.193L15.209 4.62a2.705 2.705 0 0 0 0-3.822ZM3.897 13.595a2 2 0 0 1-.948.545l-.64.16a.5.5 0 0 1-.607-.606l.16-.64a2 2 0 0 1 .545-.948l8.135-7.92 1.274 1.272-7.919 8.137Zm9.2-9.413.838-.838a.905.905 0 0 0 0-1.273.924.924 0 0 0-1.274 0l-.838.838 1.274 1.273Z" /></svg>