<!--
* SPDX-FileCopyrightText: © 2022 Liferay, Inc. <https://liferay.com>
* SPDX-FileCopyrightText: © 2022 Contributors to the project Clay <https://github.com/liferay/clay/graphs/contributors>
*
* SPDX-License-Identifier: BSD-3-Clause
-->
<svg xmlns="http://www.w3.org/2000/svg" viewBox="0 0 512 512">
	<path class="lexicon-icon-outline lx-percentage-banner-line" d="M164.7,292.7c-14.6,14.6,8,37.2,22.6,22.6l160-160c14.6-14.6-8-37.2-22.6-22.6L164.7,292.7z"/>
	<path class="lexicon-icon-outline lx-percentage-banner-border" d="M0,64c0,0,0,221.6,0,372.5c0,28.3,34.7,42.8,59,28.5c96.4-56.9,119.5,47,197,47c76,0,106.1-102.2,194.4-51.5c25.1,14.4,61.6,0.1,61.6-28.9V64c0-35.3-28.7-64-64-64H64C28.7,0,0,28.7,0,64z M256,448c-64,0-69.1-83.3-192-62.5V64h384v321.5C326.8,367.1,324.7,448,256,448z" clip-rule="evenodd" fill-rule="evenodd"/>
	<circle class="lexicon-icon-outline lx-percentage-banner-dot-1" cx="192" cy="160" r="32"/>
	<circle class="lexicon-icon-outline lx-percentage-banner-dot-2" cx="320" cy="288" r="32"/>
</svg>