<!--
* SPDX-FileCopyrightText: © 2022 Liferay, Inc. <https://liferay.com>
* SPDX-FileCopyrightText: © 2022 Contributors to the project Clay <https://github.com/liferay/clay/graphs/contributors>
*
* SPDX-License-Identifier: BSD-3-Clause
-->
<svg xmlns="http://www.w3.org/2000/svg" viewBox="0 0 512 512">
	<path class="lexicon-icon-outline lx-price-tag-border" d="M272.7,423.7c-12.7,12.7-33.4,12.7-46.1,0L88.3,285.4c-12.7-12.7-12.7-33.4,0-46.1L245.7,81.9c5.8-5.8,13.6-9.2,21.8-9.5l144.1-5.8c19-0.8,34.6,14.9,33.9,33.9l-5.8,144.1c-0.3,8.2-3.7,16-9.5,21.8L272.7,423.7z M208.6,26.8c11.6-11.6,27.1-18.4,43.5-19l192.1-7.7c38-1.5,69.3,29.7,67.8,67.8l-7.7,192.1c-0.7,16.4-7.5,31.9-19,43.5L295.8,492.9c-25.5,25.5-66.8,25.5-92.2,0L19.1,308.5c-25.5-25.5-25.5-66.8,0-92.2L208.6,26.8z" clip-rule="evenodd" fill-rule="evenodd"/>
	<path class="lexicon-icon-outline lx-price-tag-dollar" d="M341.8,146.4c14.9-14.9,37.9,8,22.9,22.9L352,182.2c7.5,11.9,11.3,25.5,10.6,38.9c-1.2,20-33.6,19.5-32.5-1.6c-7.5-58.1-84.5-48.5-45.5,7.6l0.1,0.1c46.6,53.1,4.5,130.8-70,92.2L203,331.1c-15.4,15.4-38.3-7.6-22.9-22.9l11.6-11.6c-7.6-11.9-16.8-33.4-16-46.9c1.2-19.6,33.8-19.2,32.5,1.8c5,61,102.2,67.1,45.3-13.6c-44.8-65.1,31-109.8,75.5-78.6L341.8,146.4z"/>
</svg>