<!--
* SPDX-FileCopyrightText: © 2020 Liferay, Inc. <https://liferay.com>
* SPDX-FileCopyrightText: © 2020 Contributors to the project Clay <https://github.com/liferay/clay/graphs/contributors>
*
* SPDX-License-Identifier: BSD-3-Clause
-->
<svg xmlns="http://www.w3.org/2000/svg" viewBox="0 0 512 512">
	<path class="lexicon-icon-outline" d="M512,259.8c0-33.9-42.5-66-107.6-85.9c15-66.3,8.3-119.1-21.1-136c-6.8-4-14.6-5.8-23.3-5.8V32c-28.7,0-66.3,20.4-104.3,55.9c-38-35.2-75.6-55.5-104.3-55.5v0.1c-8.8,0-16.7,1.9-23.6,5.8C98.6,55.3,92,107.9,107.2,174C42.3,194,0,226.1,0,259.8c0,33.9,42.5,66,107.6,85.9c-15,66.3-8.3,119.1,21.1,136c6.8,4,14.7,5.8,23.5,5.8c28.7,0,66.3-20.4,104.3-55.9c38,35.2,75.6,55.5,104.3,55.5c8.8,0,16.7-1.9,23.6-5.8c29.3-16.9,35.9-69.6,20.8-135.7C469.7,325.7,512,293.6,512,259.8z M359.9,55.3c4.8,0.1,8.7,1,11.9,2.8c14.2,8.1,20.3,39.1,15.5,78.9c-1.1,9.8-3,20.1-5.3,30.7c-20.5-5-42.8-8.9-66.3-11.4c-14.1-19.3-28.7-36.8-43.4-52.1C306.3,72.6,338.2,55.4,359.9,55.3z M163.5,313.2c4.9,8.3,9.9,16.5,15,24.4c-14.8-2.2-29.1-4.9-42.8-8.2c3.9-13.5,8.7-27.3,14.1-41.2C154.1,296.5,158.6,304.9,163.5,313.2z M135.5,190.3c13.7-3.2,28.1-6,43-8.2c-5.1,8-10.2,16.3-15,24.7c-4.8,8.3-9.3,16.7-13.6,25C144.2,217.8,139.4,203.8,135.5,190.3z M162.1,260.2c6.5-14,13.8-27.9,21.6-41.6c8.1-14.1,16.5-27.4,25.2-39.8c15.6-1.4,31.3-2.1,47.2-2.1c15.8,0,31.5,0.7,47,2c8.7,12.4,17.1,25.7,25.3,39.6c7.9,13.7,15.1,27.5,21.7,41.5c-6.6,14-13.8,27.9-21.6,41.6c-8.1,14.1-16.5,27.4-25.2,39.8c-15.5,1.4-31.3,2.1-47.2,2.1c-15.8,0-31.5-0.7-47-2c-8.7-12.4-17.1-25.7-25.3-39.6C175.9,288,168.6,274.1,162.1,260.2z M348.5,312.9c4.8-8.3,9.3-16.8,13.6-25.1c5.6,14,10.4,27.9,14.4,41.5c-13.7,3.3-28.1,6.2-43,8.3C338.5,329.6,343.7,321.4,348.5,312.9z M348.4,206.5c-4.8-8.3-9.9-16.5-15-24.4c14.8,2.2,29.1,4.9,42.8,8.2c-3.9,13.5-8.7,27.3-14.1,41.2C357.8,223.1,353.3,214.8,348.4,206.5z M284.7,154c-9.4-0.4-19-0.7-28.7-0.7c-9.8,0-19.5,0.2-29,0.7c9.4-12.2,19.1-23.4,28.7-33.4C265.4,130.6,275.1,141.8,284.7,154z M139.5,58.5c3.1-1.9,7.2-2.7,12-2.7v-0.1c21.6,0,53.6,17.2,87.7,48.6c-14.6,15.3-29.2,32.7-43.1,52c-23.6,2.5-45.9,6.4-66.4,11.5c-2.4-10.4-4.2-20.5-5.4-30.2C119.4,97.7,125.4,66.7,139.5,58.5z M113.2,323.2c-10.3-3.2-20.1-6.8-29.2-10.6c-36.9-15.7-60.8-36.4-60.8-52.8s23.9-37.1,60.8-52.8c9-3.9,18.8-7.3,28.9-10.5c5.9,20.4,13.8,41.7,23.5,63.5C126.8,281.7,119.1,302.9,113.2,323.2z M152,464.4c-4.7-0.1-8.7-1-11.8-2.8c-14.2-8.1-20.4-39.1-15.6-78.9c1.1-9.8,3-20.1,5.3-30.7c20.5,5,42.8,8.9,66.3,11.4c14.1,19.3,28.7,36.8,43.4,52.1C205.6,447.1,173.7,464.4,152,464.4z M256.2,399c-9.7-10-19.4-21.2-29-33.4c9.4,0.4,19,0.7,28.7,0.7c9.8,0,19.5-0.2,29-0.7C275.5,377.9,265.8,389,256.2,399z M372.5,461.2c-3.1,1.9-7.2,2.7-12,2.7c-21.6,0-53.6-17.2-87.7-48.6c14.6-15.3,29.2-32.7,43.1-52c23.6-2.5,45.9-6.4,66.4-11.5c2.4,10.5,4.3,20.6,5.4,30.3C392.6,422,386.6,453,372.5,461.2z M427.9,312.6c-9,3.9-18.8,7.3-28.9,10.5c-5.9-20.4-13.8-41.7-23.5-63.5c9.6-21.7,17.3-42.9,23.2-63.2c10.3,3.2,20.1,6.8,29.3,10.6c36.9,15.7,60.8,36.4,60.8,52.8C488.7,276.2,464.8,297,427.9,312.6z"/>
	<path class="lexicon-icon-outline" d="M255.9,307.5c26.3,0,47.7-21.3,47.7-47.7s-21.4-47.7-47.7-47.7c-26.3,0-47.7,21.3-47.7,47.7S229.6,307.5,255.9,307.5z"/>
</svg>