<svg xmlns="http://www.w3.org/2000/svg" viewBox="0 0 512 512">
	<path class="lexicon-icon-outline" d="M332.8,76.8c-27.5,0-53.5,6.2-76.8,17.2c-23.3-11.1-49.3-17.2-76.8-17.2C80.2,76.8,0,157,0,256c0,99,80.2,179.2,179.2,179.2c27.5,0,53.5-6.2,76.8-17.2c23.3,11.1,49.3,17.2,76.8,17.2c99,0,179.2-80.2,179.2-179.2S431.8,76.8,332.8,76.8z M204.8,381.4c-8.3,1.7-16.8,2.6-25.6,2.6c-70.7,0-128-57.3-128-128c0-70.7,57.3-128,128-128c8.8,0,17.3,0.9,25.6,2.6c-31.7,32.3-51.2,76.6-51.2,125.4S173.1,349.1,204.8,381.4z M332.8,384c-8.8,0-17.3-0.9-25.6-2.6c31.7-32.3,51.2-76.6,51.2-125.4s-19.5-93.1-51.2-125.4c8.3-1.7,16.8-2.6,25.6-2.6c70.7,0,128,57.3,128,128S403.5,384,332.8,384z"/>
</svg>