<!--
* SPDX-FileCopyrightText: © 2022 Liferay, Inc. <https://liferay.com>
* SPDX-FileCopyrightText: © 2022 Contributors to the project Clay <https://github.com/liferay/clay/graphs/contributors>
*
* SPDX-License-Identifier: BSD-3-Clause
-->
<svg viewBox="0 0 16 16" xmlns="http://www.w3.org/2000/svg"><path class="lexicon-icon-outline" d="M14.4 4.5H5.655l.47-.514c.62-.684.62-1.8 0-2.478a1.513 1.513 0 0 0-1.934-.277c-.118.075-.23.167-.331.277L.465 5.222c-.62.683-.62 1.799 0 2.477l3.395 3.713c.102.11.214.203.334.277a1.507 1.507 0 0 0 1.931-.277c.62-.683.62-1.799 0-2.477L5.27 8h7.53v5.25c0 .963.72 1.75 1.6 1.75.88 0 1.6-.787 1.6-1.75v-7c0-.963-.72-1.75-1.6-1.75Z" /></svg>