<!--
* SPDX-FileCopyrightText: © 2020 Liferay, Inc. <https://liferay.com>
* SPDX-FileCopyrightText: © 2020 Contributors to the project Clay <https://github.com/liferay/clay/graphs/contributors>
*
* SPDX-License-Identifier: BSD-3-Clause
-->
<svg viewBox="0 0 16 16" xmlns="http://www.w3.org/2000/svg">
	<path d="M8 .002a7.973 7.973 0 0 0-6 2.71v-.71c0-.55-.45-1-1-1s-1 .45-1 1v3a1.005 1.005 0 0 0 1 1h3c.55 0 1-.45 1-1s-.45-1-1-1h-.472a6.002 6.002 0 0 1 10.472 4 6 6 0 0 1-11.916 1H.063A8 8 0 1 0 8 .002Z"/>
</svg>