<!--
* SPDX-FileCopyrightText: © 2021 Liferay, Inc. <https://liferay.com>
* SPDX-FileCopyrightText: © 2021 Contributors to the project Clay <https://github.com/liferay/clay/graphs/contributors>
*
* SPDX-License-Identifier: BSD-3-Clause
-->
<svg xmlns="http://www.w3.org/2000/svg" viewBox="0 0 512 512">
	<path class="lexicon-icon-outline rotate-arrow " d="M285.8,0c-13.7-0.1-38.2,1.4-56.1,8c-39.1,14.8-20.2,73.7,21.3,60.4c17.1-5.2,34-4.4,34.8-4.4c186.4,2.2,232.1,265.8,36.3,316l5.1-5.1c31.2-35.4-17.9-72.2-45.2-45.4l-61.4,61.2c-14.1,14-14.1,36.9,0,51l61.3,61.2c33.1,28.2,73.7-16.9,45.2-45.4l-11.5-11.5C612.4,390.2,548,0,285.8,0z"/>
	<path class="lexicon-icon-outline rotate-box" d="M145.5,156.3l67.9,67.9l-67.9,67.9l-67.9-67.9L145.5,156.3 M122.9,88.3L9.7,201.6c-12.5,12.5-12.5,32.8,0,45.3l113.2,113.2c12.5,12.5,33.1,12.2,45.3,0l113.2-113.2c12.5-12.5,12.5-32.8,0-45.3L168.2,88.3C155.6,75.8,135.5,75.7,122.9,88.3z"/>
</svg>
