<!--
* SPDX-FileCopyrightText: © 2024 Liferay, Inc. <https://liferay.com>
* SPDX-FileCopyrightText: © 2024 Contributors to the project Clay <https://github.com/liferay/clay/graphs/contributors>
*
* SPDX-License-Identifier: BSD-3-Clause
-->
<svg xmlns="http://www.w3.org/2000/svg" viewBox="0 0 512 512">
	<path fill-rule="evenodd" d="M256.573 64.019a434.728 434.728 0 0 1 159.405 28.703v35.279h63.997V72.922a34.054 34.054 0 0 0-5.337-18.561 34.358 34.358 0 0 0-14.598-12.736A498.63 498.63 0 0 0 255.987.02 498.634 498.634 0 0 0 51.934 41.625 34.361 34.361 0 0 0 37.337 54.36a34.056 34.056 0 0 0-5.338 18.561V128h63.997V92.722A434.732 434.732 0 0 1 255.401 64.02l.586.005.586-.005ZM126.618 352.004H54.644a272.965 272.965 0 0 0 25.254 45.534c31.292 45.559 75.716 80.648 127.439 100.66l23.9 9.216a69.005 69.005 0 0 0 49.501 0l23.9-9.216c51.722-20.012 96.147-55.101 127.439-100.66a272.964 272.964 0 0 0 25.254-45.534h-71.975a209.168 209.168 0 0 1-6.03 9.298c-23.962 34.886-58.045 61.828-97.78 77.207l-23.783 9.171a5.054 5.054 0 0 1-3.565-.006l-23.769-9.165-.031-.012c-39.731-15.379-73.789-42.311-97.749-77.195a210.09 210.09 0 0 1-6.031-9.298Z" clip-rule="evenodd"/>
	<path d="M58.24 315.16c-34.828 0-56.692-15.867-58.143-41.797L0 271.622h33.86l.098.871c.967 8.61 10.545 14.803 24.863 14.803 13.835 0 22.928-6.289 22.928-15.19v-.097c0-7.837-6.191-11.513-22.541-14.706l-14.415-2.806c-29.507-5.708-42.278-19.64-42.278-41.409v-.097c.097-27.381 23.316-44.989 55.435-44.989 35.022 0 54.081 17.705 56.209 42.377l.097 1.161H81.363l-.194-1.161c-1.451-8.708-10.158-14.513-23.025-14.513-12.77 0-20.317 5.708-20.317 14.029v.097c0 7.933 6.386 12.287 21.478 15.286l14.415 2.806c29.7 5.805 43.245 17.705 43.245 40.248v.097c0 28.542-21.961 46.731-58.725 46.731Zm146.562 0c-41.793 0-67.528-28.058-67.528-73.531v-.193c0-45.473 25.638-73.434 67.528-73.434 35.119 0 60.756 22.543 62.788 53.406v1.742h-34.151l-.097-.871c-2.031-14.609-13.254-24.865-28.54-24.865-19.445 0-31.345 16.641-31.345 43.925v.193c0 27.478 11.9 44.216 31.442 44.216 15.286 0 26.025-9.579 28.443-23.995l.194-1.064h34.151v1.548c-2.322 31.154-27.089 52.923-62.885 52.923Zm88.621-3.766V171.783h35.505v139.611h-35.505Zm68.497 0V171.783h40.439l33.764 94.719h1.838l33.667-94.719h40.343v139.611h-31.152V222.48h-2.031l-31.733 88.914h-20.219l-31.733-88.914h-1.935v88.914H361.92Z"/>
</svg>
