<!--
* SPDX-FileCopyrightText: © 2020 Liferay, Inc. <https://liferay.com>
* SPDX-FileCopyrightText: © 2020 Contributors to the project Clay <https://github.com/liferay/clay/graphs/contributors>
*
* SPDX-License-Identifier: BSD-3-Clause
-->
<svg xmlns="http://www.w3.org/2000/svg" viewBox="0 0 512 512">
	<path class="lexicon-icon-outline search-experiences-line-1" d="M24,48h368c13.3,0,24-10.7,24-24S405.3,0,392,0H24C10.7,0,0,10.7,0,24S10.7,48,24,48z"/>
	<path class="lexicon-icon-outline search-experiences-line-2" d="M24,164h80c13.3,0,24-10.7,24-24s-10.7-24-24-24H24c-13.3,0-24,10.7-24,24S10.7,164,24,164z"/>
	<path class="lexicon-icon-outline search-experiences-line-3" d="M24,280h48c13.3,0,24-10.7,24-24s-10.7-24-24-24H24c-13.3,0-24,10.7-24,24C0,269.3,10.7,280,24,280z"/>
	<path class="lexicon-icon-outline search-experiences-line-4" d="M24,396h80c13.3,0,24-10.7,24-24s-10.7-24-24-24H24c-13.3,0-24,10.7-24,24S10.7,396,24,396z"/>
	<path class="lexicon-icon-outline search-experiences-line-5" d="M360,464H24c-13.3,0-24,10.7-24,24s10.7,24,24,24h336c13.3,0,24-10.7,24-24S373.3,464,360,464z"/>
	<path class="lexicon-icon-outline search-experiences-lens" d="M502.6,425.4l-81.5-81.5c16.6-25.2,26.3-55.4,26.3-87.9c0-88.4-71.6-160-160-160s-160,71.6-160,160s71.6,160,160,160c32.8,0,63.2-9.9,88.6-26.8l81.4,81.4c12.5,12.5,32.8,12.5,45.3,0C515.1,458.1,515.1,437.9,502.6,425.4z M287.4,352c-53,0-96-43-96-96s43-96,96-96s96,43,96,96S340.4,352,287.4,352z"/>
</svg>