<!--
* SPDX-FileCopyrightText: © 2022 Liferay, Inc. <https://liferay.com>
* SPDX-FileCopyrightText: © 2022 Contributors to the project Clay <https://github.com/liferay/clay/graphs/contributors>
*
* SPDX-License-Identifier: BSD-3-Clause
-->
<svg viewBox="0 0 16 16" xmlns="http://www.w3.org/2000/svg"><path class="lexicon-icon-outline" fill-rule="evenodd" clip-rule="evenodd" d="M8.49 6.007H7.01V4.526c0-.7-1.002-.7-1.002 0v1.481H4.506c-.669 0-.669 1.001 0 1.001h1.502V8.51c0 .673 1.001.669 1.001 0V7.008h1.48c.702 0 .702-1 0-1Z" /><path class="lexicon-icon-outline" fill-rule="evenodd" clip-rule="evenodd" d="m15.6 14.237-3.806-3.804C16.4 2.924 7.188-3.183 1.881 1.823-3.326 7.63 3.183 16.24 10.392 11.835l3.805 3.704c1.102 1.201 2.504-.2 1.402-1.302ZM6.428 2.023c6.008 0 6.208 9.01 0 9.01-6.008 0-5.808-9.01 0-9.01Z" /></svg>