<!--
* SPDX-FileCopyrightText: © 2020 Liferay, Inc. <https://liferay.com>
* SPDX-FileCopyrightText: © 2020 Contributors to the project Clay <https://github.com/liferay/clay/graphs/contributors>
*
* SPDX-License-Identifier: BSD-3-Clause
-->
<svg viewBox="0 0 16 16" xmlns="http://www.w3.org/2000/svg"><path class="lexicon-icon-outline" d="M4.002.004h2v1h-2v-1Zm-1 4h7c1.354 0 1.303-2 0-2h-7c-1.29 0-1.354 2 0 2Zm-.5 2h8c.675 0 .662-1 0-1h-8c-.65 0-.662 1 0 1Zm8 2h-8c-.662 0-.65-1 0-1h8c.662 0 .675 1 0 1Zm-8 2h3c.675 0 .663-1 0-1h-3c-.65 0-.662 1 0 1Zm7.5 0 1 5 1-1 2 2 2-2-2-2 1-1-5-1Zm-1-10h-2v1h2v-1Zm-5 12h2v1h-2v-1Zm5 0h-2v1h2v-1Zm-9-8h1v2h-1v-2Zm1 3h-1v2h1v-2Zm11-3h1v2h-1v-2Zm1 3h-1v2h1v-2Zm-12-7h2v1h-2v2h-1v-2a1 1 0 0 1 1-1Zm-1 10v2a1 1 0 0 0 1 1h2v-1h-2v-2h-1Zm13-9v2h-1v-2h-2v-1h2a1 1 0 0 1 1 1Z" /></svg>