<!--
* SPDX-FileCopyrightText: © 2025 Liferay, Inc. <https://liferay.com>
* SPDX-FileCopyrightText: © 2025 Contributors to the project Clay <https://github.com/liferay/clay/graphs/contributors>
*
* SPDX-License-Identifier: BSD-3-Clause
-->
<svg viewBox="0 0 16 16" xmlns="http://www.w3.org/2000/svg">
	<path class="lexicon-icon-outline" d="M3.5.704a.427.427 0 0 0-.418.343l-.365 1.824a.7.7 0 0 1-.55.55l-1.823.364a.427.427 0 0 0 0 .838l1.824.365a.7.7 0 0 1 .55.549l.364 1.824a.427.427 0 0 0 .837 0l.365-1.824a.7.7 0 0 1 .55-.55l1.823-.364a.427.427 0 0 0 0-.838l-1.824-.364a.7.7 0 0 1-.549-.55L3.92 1.047a.427.427 0 0 0-.418-.343Z"/>
	<path class="lexicon-icon-outline" d="M6.99.01a6.494 6.494 0 0 1 4.23 10.295c.1.048.194.113.276.196l3.72 3.72a1 1 0 0 1-1.413 1.415l-3.722-3.721a.997.997 0 0 1-.194-.276A6.491 6.491 0 0 1 .07 9.045c-.218-.496.099-1.039.621-1.18.523-.14 1.052.176 1.302.656a4.534 4.534 0 0 0 5.62 2.147 4.532 4.532 0 0 0-.627-8.665c-.529-.117-.973-.545-.973-1.086 0-.542.442-.989.977-.907Z"/>
</svg>
