<!--
* SPDX-FileCopyrightText: © 2025 Liferay, Inc. <https://liferay.com>
* SPDX-FileCopyrightText: © 2025 Contributors to the project Clay <https://github.com/liferay/clay/graphs/contributors>
*
* SPDX-License-Identifier: BSD-3-Clause
-->
<!-- third-party is deprecated as of v3.136.0 with no replacement -->
<svg class="lexicon-icon" viewBox="0 0 16 16" xmlns="http://www.w3.org/2000/svg">
	<path class="lexicon-icon-outline" fill-rule="evenodd" clip-rule="evenodd" d="M15.3427 9.14808C16.2191 8.72084 16.2191 7.27915 15.3427 6.85192L1.48786 0.098408C0.780993 -0.246152 9.40251e-07 0.356486 9.0674e-07 1.24648L7.79595e-07 4.62324C7.43789e-07 5.57418 0.735637 6.36309 1.68426 6.42945L6.3347 6.7548L6.97193 6.7548C7.56431 6.7548 8.04453 7.31229 8.04453 7.99998C8.04453 8.68767 7.56431 9.24516 6.97193 9.24516L6.33543 9.24516L1.68426 9.57055C0.735639 9.63691 5.61109e-07 10.4258 5.25303e-07 11.3768L3.98158e-07 14.7535C3.64646e-07 15.6435 0.780996 16.2461 1.48786 15.9016L15.3427 9.14808Z"/>
</svg>
