<!--
* SPDX-FileCopyrightText: © 2022 Liferay, Inc. <https://liferay.com>
* SPDX-FileCopyrightText: © 2022 Contributors to the project Clay <https://github.com/liferay/clay/graphs/contributors>
*
* SPDX-License-Identifier: BSD-3-Clause
-->
<svg viewBox="0 0 512 512" xmlns="http://www.w3.org/2000/svg"><path class="lexicon-icon-outline" d="M111.994 152.002c0-13.276 10.734-24.001 23.999-24.001 13.265 0 23.999 10.725 23.999 24.001v128.001c0 13.275-10.734 24-23.999 24-13.265 0-23.999-10.725-23.999-24V152.002Zm143.993 96.001c0-13.276 10.734-24.001 23.999-24.001 13.265 0 23.999 10.725 23.999 24.001v32c0 13.275-10.734 24-23.999 24-13.265 0-23.999-10.725-23.999-24v-32Z"/><path class="lexicon-icon-outline" clip-rule="evenodd" d="M499.207 455.48 377.713 333.378C523.706 92.276 229.62-102.426 59.529 59.375-105.563 245.277 101.127 519.98 332.915 378.38l121.494 118.8c35.098 38.6 79.996-6.4 44.798-41.7ZM206.221 63.575c191.891 0 198.091 289.003 0 289.003-192.89 0-187.39-289.003 0-289.003Z"/><path class="lexicon-icon-outline" d="M183.991 200.002c0-13.275 10.734-24 23.999-24 13.265 0 23.999 10.725 23.999 24v80.001c0 13.275-10.734 24-23.999 24-13.265 0-23.999-10.725-23.999-24v-80.001Z"/></svg>