<!--
* SPDX-FileCopyrightText: © 2020 Liferay, Inc. <https://liferay.com>
* SPDX-FileCopyrightText: © 2020 Contributors to the project Clay <https://github.com/liferay/clay/graphs/contributors>
*
* SPDX-License-Identifier: BSD-3-Clause
-->
<svg xmlns="http://www.w3.org/2000/svg" viewBox="0 0 512 512">
	<path class="lexicon-icon-outline" d="M467.2 44.9c-62.5-62.5-161.7-64.8-252.3 25.7-78.6 78.5-61 60.9-85.8 85.7-60.5 60.4-70.4 150.8-63.6 211.2l178.4-178.2c6.3-6.2 16.4-6.2 22.7 0 6.3 6.2 6.2 16.4 0 22.6L7.1 471.1c-9.4 9.4-9.4 24.6 0 33.9 9.4 9.4 24.6 9.4 34 0l66.1-66c52.2 15.7 171.8 18.2 246.8-54.9h-98.2L403.4 335c50-49.9 36.4-36.2 46.3-46.9h-97.8l131.5-43.8c45.4-74.5 34.3-148.8-16.2-199.4z"/>
</svg>