<!--
* SPDX-FileCopyrightText: © 2025 Liferay, Inc. <https://liferay.com>
* SPDX-FileCopyrightText: © 2025 Contributors to the project Clay <https://github.com/liferay/clay/graphs/contributors>
*
* SPDX-License-Identifier: BSD-3-Clause
-->
<svg class="lexicon-icon" viewBox="0 0 16 16" xmlns="http://www.w3.org/2000/svg">
	<path class="lexicon-icon-outline lx-speed-outline" d="M12.985 6.67A5.962 5.962 0 0 1 14 10.003c0 .702-.121 1.375-.343 2H2.342a5.973 5.973 0 0 1-.342-2c0-3.308 2.694-6 6-6 .604 0 1.188.09 1.738.257l1.55-1.55A7.951 7.951 0 0 0 8 2.004c-4.41 0-8 3.587-8 8 0 .97.174 1.902.492 2.765.297.803 1.065 1.235 1.815 1.235h11.385c.75 0 1.518-.432 1.815-1.235A7.961 7.961 0 0 0 16 10.004a7.958 7.958 0 0 0-1.58-4.768L12.985 6.67Z"/>
	<path class="lexicon-icon-outline lx-speed-dial" d="M6.92 10.162a1.316 1.316 0 0 1 .076-2.078l5.908-4.243a.206.206 0 0 1 .285.291L8.815 9.944a1.316 1.316 0 0 1-1.896.218Z"/>
</svg>