<!--
* SPDX-FileCopyrightText: © 2020 Liferay, Inc. <https://liferay.com>
* SPDX-FileCopyrightText: © 2020 Contributors to the project Clay <https://github.com/liferay/clay/graphs/contributors>
*
* SPDX-License-Identifier: BSD-3-Clause
-->
<svg xmlns="http://www.w3.org/2000/svg" viewBox="0 0 512 512">
	<path class="lexicon-icon-outline lx-square-hole-multi-square-1" d="M460,0H148c-28.6,0-52,23.4-52,52v12h320c17.7,0,32,14.3,32,32v320h12c28.6,0,52-23.4,52-52V52C512,23.4,488.6,0,460,0z"/>
	<path class="lexicon-icon-outline lx-square-hole-multi-square-2" d="M364,96H52c-28.6,0-52,23.4-52,52v312c0,28.6,23.4,52,52,52h312c28.6,0,52-23.4,52-52V148C416,119.4,392.6,96,364,96z M286,382H130V226h156V382z"/>
</svg>