<!--
* SPDX-FileCopyrightText: © 2023 Liferay, Inc. <https://liferay.com>
* SPDX-FileCopyrightText: © 2023 Contributors to the project Clay <https://github.com/liferay/clay/graphs/contributors>
*
* SPDX-License-Identifier: BSD-3-Clause
-->
<svg xmlns="http://www.w3.org/2000/svg" viewBox="0 0 512 512">
	<path class="lexicon-icon-outline" d="M352 96a19.518 19.518 0 0 0-19.138 15.689l-16.678 83.392a32 32 0 0 1-25.103 25.103l-83.392 16.678a19.518 19.518 0 0 0 0 38.276l83.392 16.678a32 32 0 0 1 25.103 25.103l16.678 83.392a19.518 19.518 0 0 0 38.276 0l16.678-83.392a32 32 0 0 1 25.103-25.103l83.392-16.678a19.518 19.518 0 0 0 0-38.276l-83.392-16.678a32 32 0 0 1-25.103-25.103l-16.678-83.392A19.518 19.518 0 0 0 352 96ZM96 0c-9.233 0-17.112 6.675-18.63 15.782l-5.04 30.243A32 32 0 0 1 46.024 72.33l-30.243 5.04C6.675 78.889 0 86.768 0 96s6.675 17.113 15.782 18.63l30.243 5.041a32 32 0 0 1 26.304 26.304l5.04 30.243C78.889 185.325 86.768 192 96 192s17.113-6.675 18.63-15.782l5.041-30.243a32.001 32.001 0 0 1 26.304-26.304l30.243-5.041C185.325 113.112 192 105.233 192 96c0-9.233-6.675-17.112-15.782-18.63l-30.243-5.04a32 32 0 0 1-26.304-26.305l-5.041-30.243C113.113 6.675 105.233 0 96 0Zm44.119 399.522c-3.877 15.511-13.422 24.804-28.597 28.597-20.185 5.047-20.185 34.715 0 39.762 15.175 3.793 24.72 13.086 28.597 28.597 5.047 20.185 34.715 20.185 39.762 0 3.793-15.175 13.086-24.72 28.597-28.597 20.185-5.047 20.185-34.715 0-39.762-15.175-3.793-24.72-13.086-28.597-28.597-5.047-20.185-34.715-20.185-39.762 0Z"/>
</svg>