<!--
* SPDX-FileCopyrightText: © 2020 Liferay, Inc. <https://liferay.com>
* SPDX-FileCopyrightText: © 2020 Contributors to the project Clay <https://github.com/liferay/clay/graphs/contributors>
*
* SPDX-License-Identifier: BSD-3-Clause
-->
<svg viewBox="0 0 16 16" xmlns="http://www.w3.org/2000/svg"><path class="lexicon-icon-outline" d="M14.24 7.223H9.979a5.542 5.542 0 0 0-.783-.208l-1.668-.32c-.438-.091-.764-.257-.978-.5a1.248 1.248 0 0 1-.32-.851c0-.204.045-.394.134-.574.091-.18.217-.341.38-.482a1.84 1.84 0 0 1 .59-.338 2.2 2.2 0 0 1 .767-.126c.381 0 .705.056.968.17.265.11.481.252.649.42.168.17.296.353.38.549.083.196.142.38.176.548l2.09-.642a4.149 4.149 0 0 0-.38-1.055 3.463 3.463 0 0 0-.783-1.005c-.337-.304-.761-.553-1.273-.75-.51-.197-1.125-.296-1.843-.296-.563 0-1.096.096-1.602.287a4.29 4.29 0 0 0-1.332.794 3.735 3.735 0 0 0-.9 1.19 3.36 3.36 0 0 0-.33 1.477c0 .654.153 1.222.444 1.71H1.76v1.56h4.702c.19.061.385.116.594.158l1.668.338c.473.09.832.261 1.08.514.246.255.37.556.37.904 0 .427-.167.78-.497 1.056-.332.276-.812.413-1.442.413-.427 0-.797-.061-1.112-.185a2.335 2.335 0 0 1-.792-.5 2.227 2.227 0 0 1-.497-.717 2.57 2.57 0 0 1-.21-.844l-2.157.573c.044.429.169.865.37 1.31.202.443.497.846.885 1.206.387.361.868.657 1.44.886.574.233 1.259.349 2.056.349.697 0 1.312-.107 1.845-.32a4.243 4.243 0 0 0 1.347-.835c.367-.343.644-.738.835-1.183.191-.444.288-.898.288-1.36a3.34 3.34 0 0 0-.22-1.197 3.256 3.256 0 0 0-.281-.564h2.207v-1.56Z" /></svg>