<!--
* SPDX-FileCopyrightText: © 2020 Liferay, Inc. <https://liferay.com>
* SPDX-FileCopyrightText: © 2020 Contributors to the project Clay <https://github.com/liferay/clay/graphs/contributors>
*
* SPDX-License-Identifier: BSD-3-Clause
-->
<svg xmlns="http://www.w3.org/2000/svg" viewBox="0 0 512 512">
	<path class="lexicon-icon-outline" d="M448,0H64C32,0,0,32,0,64v384c0,32,32,64,64,64h384c32,0,64-32,64-64V64C512,32,480,0,448,0z M160,448H64v-96h96V448z M160,288H64v-64h96V288z M160,160H64V64h96V160z M288,448h-64v-96h64V448z M288,288h-64v-64h64V288z M288,160h-64V64h64V160z M448,448h-96v-96h96V448z M448,288h-96v-64h96V288z M448,160h-96V64h96V160z"/>
</svg>