<!--
* SPDX-FileCopyrightText: © 2020 Liferay, Inc. <https://liferay.com>
* SPDX-FileCopyrightText: © 2020 Contributors to the project Clay <https://github.com/liferay/clay/graphs/contributors>
*
* SPDX-License-Identifier: BSD-3-Clause
-->
<svg viewBox="0 0 16 16" xmlns="http://www.w3.org/2000/svg"><path class="lexicon-icon-outline" fill-rule="evenodd" clip-rule="evenodd" d="m9.083.714 5.822 13.692a1.154 1.154 0 0 1-1.075 1.596c-.49 0-.904-.292-1.079-.71l-1.156-2.718H4.4l-1.155 2.718a1.16 1.16 0 0 1-1.079.71c-.646 0-1.167-.51-1.167-1.142 0-.16.033-.314.095-.454L6.92.714A1.16 1.16 0 0 1 8 .003c.488 0 .908.293 1.083.71ZM8 4.117 5.375 10.29h5.25L8 4.117Z" /></svg>