<!--
* SPDX-FileCopyrightText: © 2022 Liferay, Inc. <https://liferay.com>
* SPDX-FileCopyrightText: © 2022 Contributors to the project Clay <https://github.com/liferay/clay/graphs/contributors>
*
* SPDX-License-Identifier: BSD-3-Clause
-->
<svg viewBox="0 0 16 16" xmlns="http://www.w3.org/2000/svg"><path class="lexicon-icon-outline" d="M0 8.638c-.004 2.442 1.997 2.327 1.997 2.327l3.382.006c-1.45 3.32-.097 4.458.679 4.788 3.96 1.678 3.661-5.785 6.943-5.785V1.005a1 1 0 0 0-1-1H6.255c-3.01 0-6.256.997-6.256 8.633Zm6.286-6.64H11v6.976c-1.1 0-3 5.383-4 4.991-.63-.246-.22-1.59 1.07-3.99.43-.8-.57-.998-1.07-.999l-3.984-.001a.97.97 0 0 1-.98-1.002C2.25 2.884 4.134 2 6.286 2Zm9.713 6.979V1.002c0-1.327-2-1.327-2 0v7.975c.002 1.355 2 1.302 2 0Z" /></svg>