<!--
* SPDX-FileCopyrightText: © 2020 Liferay, Inc. <https://liferay.com>
* SPDX-FileCopyrightText: © 2020 Contributors to the project Clay <https://github.com/liferay/clay/graphs/contributors>
*
* SPDX-License-Identifier: BSD-3-Clause
-->
<svg viewBox="0 0 16 16" xmlns="http://www.w3.org/2000/svg"><path class="lexicon-icon-outline" fill-rule="evenodd" clip-rule="evenodd" d="M9.626 3.468s1.375-.08 1.373 1.6c0 5.25-2.232 5.935-4.3 5.935H3.06a1 1 0 0 1-1-1V4.149c1.022 0 1.54-1.053 2.052-2.097C4.732.79 5.345-.46 6.834.172c.533.227 1.464 1.009.466 3.292l2.326.004Zm-6.19 6.164h3.241c1.435 0 2.696-.572 2.906-3.795.035-.55-.417-1-.97-1l-2.426-.002c-.344 0-1.031-.137-.736-.686.887-1.65 1.17-2.574.736-2.744-.353-.138-.868.769-1.39 1.685-.493.87-.992 1.747-1.361 1.747v4.795Z" /><path class="lexicon-icon-outline" d="M0 10.318V4.835c0-.896 1.373-.932 1.375 0v5.483c0 .912-1.376.912-1.376 0Zm3.792 5.379a1 1 0 0 0 1.36.07L6.9 14.305l1.4 1.4c.4.401 1 .401 1.4 0l4.399-4.402.6.6c.3.3.8.1.8-.3l.5-3.003c0-.4-.3-.6-.7-.6l-3 .5c-.4 0-.6.5-.3.801l.6.6-3.7 3.703-1.3-1.3c-.4-.401-.9-.401-1.3-.1l-2.448 1.995a1 1 0 0 0-.087 1.471l.028.028Z" /></svg>