<!--
* SPDX-FileCopyrightText: © 2020 Liferay, Inc. <https://liferay.com>
* SPDX-FileCopyrightText: © 2020 Contributors to the project Clay <https://github.com/liferay/clay/graphs/contributors>
*
* SPDX-License-Identifier: BSD-3-Clause
-->
<svg viewBox="0 0 16 16" xmlns="http://www.w3.org/2000/svg"><path class="lexicon-icon-outline" fill-rule="evenodd" clip-rule="evenodd" d="M5 3.005h6c1.103 0 2 .897 2 2v10a1 1 0 1 1-2 0v-2H5c-1.104 0-2-.897-2-2v-10a1 1 0 0 1 2 0v2Zm0 2v6h6v-6H5Zm9 6h1a1 1 0 1 1 0 2h-1v-2Zm-12-8H1a1 1 0 0 0 0 2h1v-2Z" /></svg>