<!--
* SPDX-FileCopyrightText: © 2020 Liferay, Inc. <https://liferay.com>
* SPDX-FileCopyrightText: © 2020 Contributors to the project Clay <https://github.com/liferay/clay/graphs/contributors>
*
* SPDX-License-Identifier: BSD-3-Clause
-->
<svg viewBox="0 0 16 16" xmlns="http://www.w3.org/2000/svg"><path class="lexicon-icon-outline" d="M1.365 4.058 5.115.366a1.266 1.266 0 0 1 1.77 0 1.22 1.22 0 0 1 0 1.742l-1.61 1.584h4.473c3.446 0 6.25 2.762 6.25 6.154 0 3.393-2.804 6.154-6.25 6.154a1.24 1.24 0 0 1-1.25-1.23 1.24 1.24 0 0 1 1.25-1.231c2.067 0 3.75-1.658 3.75-3.693 0-2.034-1.683-3.692-3.75-3.692H5.256l1.617 1.592a1.22 1.22 0 0 1 0 1.743 1.259 1.259 0 0 1-1.765 0L1.365 5.796a1.215 1.215 0 0 1 0-1.738Z" /></svg>