<!--
* SPDX-FileCopyrightText: © 2020 Liferay, Inc. <https://liferay.com>
* SPDX-FileCopyrightText: © 2020 Contributors to the project Clay <https://github.com/liferay/clay/graphs/contributors>
*
* SPDX-License-Identifier: BSD-3-Clause
-->
<svg viewBox="0 0 16 16" xmlns="http://www.w3.org/2000/svg"><path class="lexicon-icon-outline" fill-rule="evenodd" clip-rule="evenodd" d="M9.41 3.587A2 2 0 0 0 5.997 5v1.53l.002.47h1.996v.003h3.408c.88 0 1.598.718 1.595 1.598v4.8c0 .883-.718 1.6-1.6 1.6h-7c-.882 0-1.4-.72-1.4-1.6v-4.8c0-.737.364-1.36 1-1.544V5.001a3.999 3.999 0 0 1 6.705-2.942.999.999 0 0 1-.6 1.8c-.29 0-.466-.118-.695-.272ZM7 13.005h2v-3H6.999v3Z"/></svg>