<!--
* SPDX-FileCopyrightText: © 2020 Liferay, Inc. <https://liferay.com>
* SPDX-FileCopyrightText: © 2020 Contributors to the project Clay <https://github.com/liferay/clay/graphs/contributors>
*
* SPDX-License-Identifier: BSD-3-Clause
-->
<svg xmlns="http://www.w3.org/2000/svg" viewBox="0 0 512 512">
	<path class="lexicon-icon-outline" fill-rule="evenodd" clip-rule="evenodd" d="M233.094 10.48C246.281 -2.29501 264 -2.99501 278.875 10.48L350.5 81.939C381.281 114.078 332.688 156.693 304.688 127.65L288 110.984V352.312C288 394.23 224 394.529 224 352.312V110.984L207.281 127.65C172.281 158.99 132.688 108.488 161.5 81.939L233.094 10.48ZM384 448.125V384.25C384 342.031 448 342.332 448 384.25V448C448 483.346 419.346 512 384 512H128C92.654 512 64 483.346 64 448V384.25C64 342.63 128 341.334 128 384.25V448.125H384Z" />
</svg>