<!--
* SPDX-FileCopyrightText: © 2020 Liferay, Inc. <https://liferay.com>
* SPDX-FileCopyrightText: © 2020 Contributors to the project Clay <https://github.com/liferay/clay/graphs/contributors>
*
* SPDX-License-Identifier: BSD-3-Clause
-->
<svg xmlns="http://www.w3.org/2000/svg" viewBox="0 0 512 512">
	<path class="lexicon-icon-outline upload-multiple-arrow-up" d="M278.914 9.9C264.014 -3.6 246.314 -2.9 233.114 9.9L161.614 81.4C132.814 107.999 172.414 158.499 207.414 127.199L224.114 110.499V224.099C224.114 266.399 288.114 266.099 288.114 224.099V110.499L304.814 127.199C332.814 156.299 381.314 113.599 350.614 81.399L278.914 9.9Z" />
	<path class="lexicon-icon-outline upload-multiple-bracket" d="M383.925 256.098V320.098H128.125V256.098C128.125 213.098 64.125 214.398 64.125 256.098V319.998C64.125 355.345 92.779 383.998 128.125 383.998H383.825C419.171 383.998 447.825 355.345 447.825 319.998V256.098C447.925 214.098 383.925 213.798 383.925 256.098ZM64 480C64 462.327 78.327 448 96 448H416C433.673 448 448 462.327 448 480C448 497.673 433.673 512 416 512H96C78.327 512 64 497.673 64 480Z" />
</svg>