<!--
* SPDX-FileCopyrightText: © 2024 Liferay, Inc. <https://liferay.com>
* SPDX-FileCopyrightText: © 2024 Contributors to the project Clay <https://github.com/liferay/clay/graphs/contributors>
*
* SPDX-License-Identifier: BSD-3-Clause
-->
<svg viewBox="0 0 512 512" xmlns="http://www.w3.org/2000/svg">
	<path class="lexicon-icon-outline" d="M423.616 115.2c11.2-7.264 14.464-22.336 6.048-32.672a223.999 223.999 0 0 0-347.296-.032c-8.448 10.336-5.152 25.408 6.016 32.64 11.2 7.296 26.048 3.968 34.784-6.112A175.675 175.675 0 0 1 256.016 48.3a175.679 175.679 0 0 1 132.848 60.724c8.736 10.112 23.552 13.44 34.752 6.176Z"/>
	<path class="lexicon-icon-outline" d="M351.008 138.24c5.888 6.496 4.064 16.512-3.136 21.536-7.232 5.056-17.056 3.2-23.232-3.104a96.167 96.167 0 0 0-70.315-28.801 96.163 96.163 0 0 0-69.269 31.233c-5.952 6.496-15.712 8.704-23.104 3.936-7.36-4.8-9.536-14.72-3.872-21.44a128.006 128.006 0 0 1 95.693-45.571 128 128 0 0 1 97.235 42.179v.032Z"/>
	<path class="lexicon-icon-outline" fill-rule="evenodd" clip-rule="evenodd" d="M64 192h160a31.996 31.996 0 0 1 9.373-22.627 31.996 31.996 0 0 1 45.254 0A31.996 31.996 0 0 1 288 192h160c35.328 0 64 28.704 64 64v192c0 35.296-28.672 64-64 64H64c-35.328 0-64-28.704-64-64V256c0-35.296 28.672-64 64-64Zm272 160-128-80v160l128-80Z"/>
</svg>