<!--
* SPDX-FileCopyrightText: © 2022 Liferay, Inc. <https://liferay.com>
* SPDX-FileCopyrightText: © 2022 Contributors to the project Clay <https://github.com/liferay/clay/graphs/contributors>
*
* SPDX-License-Identifier: BSD-3-Clause
-->
<svg xmlns="http://www.w3.org/2000/svg" viewBox="0 0 512 512">
	<path class="lexicon-icon-outline lx-warehouse-square-1" d="M176,215c0-18.2,14.3-33,32-33h32c17.7,0,32,14.8,32,33v33c0,18.2-14.3,33-32,33h-32c-17.7,0-32-14.8-32-33V215z"/>
	<path class="lexicon-icon-outline lx-warehouse-square-2" d="M240,347.1c0-18.2-14.3-33-32-33h-32c-17.7,0-32,14.8-32,33v33c0,18.2,14.3,33,32,33h32c17.7,0,32-14.8,32-33V347.1z"/>
	<path class="lexicon-icon-outline lx-warehouse-square-3" d="M336,314.1c17.7,0,32,14.8,32,33v33c0,18.2-14.3,33-32,33h-32c-17.7,0-32-14.8-32-33v-33c0-18.2,14.3-33,32-33H336z"/>
	<path class="lexicon-icon-outline lx-warehouse-border" d="M217.6,13.5c22.8-17.6,54-17.6,76.8,0l192,148.6c16.1,12.5,25.6,32.1,25.6,52.9v297.3H0V215c0-20.8,9.5-40.4,25.6-52.9L217.6,13.5z M448,215L256,66.3L64,215v231.2h384V215z" clip-rule="evenodd" fill-rule="evenodd"/>
</svg>