<?xml version="1.0" encoding="utf-8"?>
<!-- Generator: Adobe Illustrator 19.0.0, SVG Export Plug-In . SVG Version: 6.00 Build 0)  -->
<svg version="1.1" id="download" xmlns="http://www.w3.org/2000/svg" xmlns:xlink="http://www.w3.org/1999/xlink" width="512" height="512" x="0px" y="0px"
	 viewBox="0 0 384 512" enable-background="new 0 0 384 512" xml:space="preserve">
<g>
	<path class="lexicon-icon-outline" d="M169.1,374.4999c6.1,6.1,14.3,9.5,22.9,9.5c8.6,0,16.8-3.4,22.9-9.5l71.6-71.6c12.7-12.7,12.7-33.2,0-45.8
		c-6.3-6.3-14.6-9.5-22.9-9.5s-16.6,3.2-22.9,9.5L224,273.8V32c0-17.7-14.3-32-32-32s-32,14.3-32,32v241.8l-16.7-16.7
		c-12.7-12.7-33.2-12.7-45.8,0c-12.7,12.7-12.7,33.2,0,45.8L169.1,374.4999z"/>
	<path class="lexicon-icon-outline" d="M352,352c-17.7,0-32,14.3-32,32v64H64v-64c0-17.7-14.3-32-32-32c-17.7,0-32,14.3-32,32v128h32h32h289h31v-31v-33v-64
		C384,366.3,369.7,352,352,352z"/>
</g>
</svg>