<?xml version="1.0" encoding="iso-8859-1"?>
<!-- Generator: Adobe Illustrator 18.0.0, SVG Export Plug-In . SVG Version: 6.00 Build 0)  -->
<!DOCTYPE svg PUBLIC "-//W3C//DTD SVG 1.1//EN" "http://www.w3.org/Graphics/SVG/1.1/DTD/svg11.dtd">
<svg version="1.1" xmlns="http://www.w3.org/2000/svg" xmlns:xlink="http://www.w3.org/1999/xlink" x="0px" y="0px"
	 viewBox="0 0 28 28" style="enable-background:new 0 0 28 28;" xml:space="preserve">
<g id="cards">
	<g>
		<path d="M12.25,7H7.875C7.392,7,7,7.392,7,7.875v4.375c0,0.483,0.392,0.875,0.875,0.875h4.375c0.483,0,0.875-0.392,0.875-0.875
			V7.875C13.125,7.392,12.733,7,12.25,7z"/>
		<path d="M12.25,14.875H7.875C7.392,14.875,7,15.267,7,15.75v4.375C7,20.608,7.392,21,7.875,21h4.375
			c0.483,0,0.875-0.392,0.875-0.875V15.75C13.125,15.267,12.733,14.875,12.25,14.875z"/>
		<path d="M20.125,7H15.75c-0.483,0-0.875,0.392-0.875,0.875v4.375c0,0.483,0.392,0.875,0.875,0.875h4.375
			c0.483,0,0.875-0.392,0.875-0.875V7.875C21,7.392,20.608,7,20.125,7z"/>
		<path d="M20.125,14.875H15.75c-0.483,0-0.875,0.392-0.875,0.875v4.375c0,0.483,0.392,0.875,0.875,0.875h4.375
			C20.608,21,21,20.608,21,20.125V15.75C21,15.267,20.608,14.875,20.125,14.875z"/>
	</g>
</g>
<g id="Layer_1">
</g>
</svg>
