<?xml version="1.0" encoding="iso-8859-1"?>
<!-- Generator: Adobe Illustrator 18.0.0, SVG Export Plug-In . SVG Version: 6.00 Build 0)  -->
<!DOCTYPE svg PUBLIC "-//W3C//DTD SVG 1.1//EN" "http://www.w3.org/Graphics/SVG/1.1/DTD/svg11.dtd">
<svg version="1.1" xmlns="http://www.w3.org/2000/svg" xmlns:xlink="http://www.w3.org/1999/xlink" x="0px" y="0px"
	 viewBox="0 0 28 28" style="enable-background:new 0 0 28 28;" xml:space="preserve">
<g id="folder">
	<path d="M20.125,10.062h-3.489c-0.243-0.091-0.665-0.969-0.869-1.392c-0.476-0.988-1.015-2.108-2.103-2.108H7.846
		c-0.949,0-1.721,0.826-1.721,1.841v1.659v1.75v7.875c0,0.965,0.785,1.75,1.75,1.75h12.25c0.965,0,1.75-0.785,1.75-1.75v-7.875
		C21.875,10.848,21.09,10.062,20.125,10.062z M7.875,8.403c0-0.043,0.011-0.073,0.021-0.091h5.666
		c0.177,0.18,0.457,0.76,0.629,1.117c0.099,0.205,0.202,0.42,0.314,0.633H7.875V8.403z M7.875,19.688v-7.875h8.75h3.5l0.001,7.875
		H7.875z"/>
</g>
<g id="Layer_1">
</g>
</svg>
