<?xml version="1.0" encoding="iso-8859-1"?>
<!-- Generator: Adobe Illustrator 18.0.0, SVG Export Plug-In . SVG Version: 6.00 Build 0)  -->
<!DOCTYPE svg PUBLIC "-//W3C//DTD SVG 1.1//EN" "http://www.w3.org/Graphics/SVG/1.1/DTD/svg11.dtd">
<svg version="1.1" xmlns="http://www.w3.org/2000/svg" xmlns:xlink="http://www.w3.org/1999/xlink" x="0px" y="0px"
	 viewBox="0 0 28 28" style="enable-background:new 0 0 28 28;" xml:space="preserve">
<g id="grid">
	<g>
		<g>
			<path d="M20.562,7h-2.625C17.696,7,17.5,7.196,17.5,7.438v2.625c0,0.242,0.196,0.438,0.438,0.438h2.625
				c0.242,0,0.438-0.196,0.438-0.438V7.438C21,7.196,20.804,7,20.562,7z"/>
			<path d="M10.063,12.25H7.438C7.196,12.25,7,12.446,7,12.688v2.625c0,0.242,0.196,0.438,0.438,0.438h2.625
				c0.242,0,0.437-0.196,0.437-0.438v-2.625C10.5,12.446,10.304,12.25,10.063,12.25z"/>
			<path d="M15.312,12.25h-2.625c-0.242,0-0.438,0.196-0.438,0.438v2.625c0,0.242,0.196,0.438,0.438,0.438h2.625
				c0.242,0,0.438-0.196,0.438-0.438v-2.625C15.75,12.446,15.554,12.25,15.312,12.25z"/>
			<path d="M20.562,12.25h-2.625c-0.242,0-0.438,0.196-0.438,0.438v2.625c0,0.242,0.196,0.438,0.438,0.438h2.625
				c0.242,0,0.438-0.196,0.438-0.438v-2.625C21,12.446,20.804,12.25,20.562,12.25z"/>
			<path d="M10.063,17.5H7.438C7.196,17.5,7,17.696,7,17.938v2.625C7,20.804,7.196,21,7.438,21h2.625
				c0.242,0,0.437-0.196,0.437-0.438v-2.625C10.5,17.696,10.304,17.5,10.063,17.5z"/>
			<path d="M15.312,17.5h-2.625c-0.242,0-0.438,0.196-0.438,0.438v2.625c0,0.242,0.196,0.438,0.438,0.438h2.625
				c0.242,0,0.438-0.196,0.438-0.438v-2.625C15.75,17.696,15.554,17.5,15.312,17.5z"/>
			<path d="M20.562,17.5h-2.625c-0.242,0-0.438,0.196-0.438,0.438v2.625c0,0.242,0.196,0.438,0.438,0.438h2.625
				C20.804,21,21,20.804,21,20.562v-2.625C21,17.696,20.804,17.5,20.562,17.5z"/>
			<path d="M10.063,7H7.438C7.196,7,7,7.196,7,7.438v2.625C7,10.304,7.196,10.5,7.438,10.5h2.625c0.242,0,0.437-0.196,0.437-0.438
				V7.438C10.5,7.196,10.304,7,10.063,7z"/>
			<path d="M15.312,7h-2.625c-0.242,0-0.438,0.196-0.438,0.438v2.625c0,0.242,0.196,0.438,0.438,0.438h2.625
				c0.242,0,0.438-0.196,0.438-0.438V7.438C15.75,7.196,15.554,7,15.312,7z"/>
		</g>
	</g>
</g>
<g id="Layer_1">
</g>
</svg>
