<?xml version="1.0" encoding="iso-8859-1"?>
<!-- Generator: Adobe Illustrator 18.0.0, SVG Export Plug-In . SVG Version: 6.00 Build 0)  -->
<!DOCTYPE svg PUBLIC "-//W3C//DTD SVG 1.1//EN" "http://www.w3.org/Graphics/SVG/1.1/DTD/svg11.dtd">
<svg version="1.1" xmlns="http://www.w3.org/2000/svg" xmlns:xlink="http://www.w3.org/1999/xlink" x="0px" y="0px"
	 viewBox="0 0 28 28" style="enable-background:new 0 0 28 28;" xml:space="preserve">
<g id="moon">
	<g>
		<path d="M12.086,9.188c0-0.699,0.104-1.373,0.294-2.01C9.268,7.889,6.945,10.672,6.945,14c0,3.866,3.134,7,7,7
			c3.167,0,5.842-2.104,6.706-4.99c-0.503,0.115-1.027,0.178-1.565,0.178C15.22,16.188,12.086,13.053,12.086,9.188z"/>
		<path d="M20.18,8.75h-0.875V7.875C19.305,7.392,18.913,7,18.43,7s-0.875,0.392-0.875,0.875V8.75H16.68
			c-0.483,0-0.875,0.392-0.875,0.875S16.196,10.5,16.68,10.5h0.875v0.875c0,0.483,0.392,0.875,0.875,0.875s0.875-0.392,0.875-0.875
			V10.5h0.875c0.483,0,0.875-0.392,0.875-0.875S20.663,8.75,20.18,8.75z"/>
	</g>
</g>
<g id="Layer_1">
</g>
</svg>
