<?xml version="1.0" encoding="iso-8859-1"?>
<!-- Generator: Adobe Illustrator 18.0.0, SVG Export Plug-In . SVG Version: 6.00 Build 0)  -->
<!DOCTYPE svg PUBLIC "-//W3C//DTD SVG 1.1//EN" "http://www.w3.org/Graphics/SVG/1.1/DTD/svg11.dtd">
<svg version="1.1" xmlns="http://www.w3.org/2000/svg" xmlns:xlink="http://www.w3.org/1999/xlink" x="0px" y="0px"
	 viewBox="0 0 28 28" style="enable-background:new 0 0 28 28;" xml:space="preserve">
<g id="paperclip">
	<g>
		<g>
			<path d="M21.953,7.014c-0.651-0.651-1.516-1.009-2.436-1.009c-0.92,0-1.785,0.358-2.436,1.009l-7.425,7.424
				c-0.461,0.461-0.704,1.043-0.687,1.641c0.017,0.561,0.261,1.104,0.686,1.53c0.423,0.423,0.987,0.657,1.586,0.657
				c0.599,0,1.163-0.234,1.586-0.657l3.983-3.983c0.342-0.342,0.342-0.896,0-1.237s-0.896-0.342-1.237,0l-3.984,3.983
				c-0.185,0.186-0.509,0.187-0.696,0c-0.109-0.109-0.171-0.231-0.175-0.343c-0.003-0.115,0.056-0.233,0.175-0.352l7.425-7.425
				c0.641-0.64,1.757-0.64,2.398,0c0.661,0.661,0.661,1.737,0,2.398l-8.701,8.701c-1.194,1.193-3.137,1.194-4.331,0
				c-1.194-1.194-1.194-3.137,0-4.331l6.187-6.187c0.342-0.342,0.342-0.896,0-1.237c-0.342-0.342-0.896-0.342-1.237,0l-6.187,6.187
				c-1.876,1.876-1.876,4.93,0,6.806c0.938,0.938,2.171,1.407,3.403,1.407c1.233,0,2.465-0.469,3.403-1.407l8.701-8.701
				C23.297,10.543,23.297,8.358,21.953,7.014z"/>
		</g>
	</g>
</g>
<g id="Layer_1">
</g>
</svg>
