<?xml version="1.0" encoding="iso-8859-1"?>
<!-- Generator: Adobe Illustrator 18.0.0, SVG Export Plug-In . SVG Version: 6.00 Build 0)  -->
<!DOCTYPE svg PUBLIC "-//W3C//DTD SVG 1.1//EN" "http://www.w3.org/Graphics/SVG/1.1/DTD/svg11.dtd">
<svg version="1.1" xmlns="http://www.w3.org/2000/svg" xmlns:xlink="http://www.w3.org/1999/xlink" x="0px" y="0px"
	 viewBox="0 0 28 28" style="enable-background:new 0 0 28 28;" xml:space="preserve">
<g id="phone">
	<g>
		<g>
			<path d="M21.087,17.241l-0.084-0.153c-0.598-1.084-3.868-1.64-3.899-1.641l-0.071-0.002l-0.325,0.046
				c-0.51,0.117-0.935,0.475-1.524,1.021c-0.759-0.443-1.581-1.134-2.072-1.639c-0.505-0.515-1.205-1.44-1.58-2.162
				c0.665-0.653,1.128-1.168,1.159-1.862c0.001-0.031-0.415-3.321-1.475-3.975l0,0l-0.153-0.093
				c-0.29-0.173-0.831-0.496-1.487-0.496c-0.163,0-0.325,0.02-0.512,0.068C8.856,6.414,8.664,6.498,8.46,6.627
				C7.963,6.97,7.065,7.685,6.629,8.628c-0.406,0.928-0.134,5.669,3.421,9.384c3.369,3.525,7.279,3.703,8.029,3.703
				c0.194,0,0.457-0.009,0.677-0.049l0.085-0.004l0.201-0.076c0.971-0.398,1.716-1.259,2.065-1.726
				C21.919,18.814,21.298,17.639,21.087,17.241z M19.714,18.801c-0.317,0.424-0.824,0.945-1.286,1.146
				c-0.046,0.007-0.162,0.018-0.349,0.018c-0.625,0-3.887-0.153-6.764-3.163c-3.019-3.156-3.151-6.935-3.063-7.511
				C8.45,8.907,8.893,8.455,9.421,8.089c0.015-0.009,0.058-0.034,0.103-0.047C9.691,8,9.995,8.181,10.159,8.278l0.072,0.044
				c0.244,0.407,0.621,1.918,0.702,2.449c-0.114,0.194-0.579,0.647-0.837,0.898l-0.031,0.032c-0.359,0.387-0.467,0.941-0.268,1.428
				c0.428,0.994,1.384,2.271,2.064,2.966c0.667,0.687,1.794,1.611,2.813,2.131c0.492,0.244,1.095,0.145,1.483-0.226
				c0.304-0.284,0.755-0.706,0.922-0.793c0.532,0.104,2.043,0.548,2.438,0.805l0.032,0.059
				C19.761,18.476,19.81,18.677,19.714,18.801z"/>
		</g>
	</g>
</g>
<g id="Layer_1">
</g>
</svg>
