<?xml version="1.0" encoding="iso-8859-1"?>
<!-- Generator: Adobe Illustrator 18.0.0, SVG Export Plug-In . SVG Version: 6.00 Build 0)  -->
<!DOCTYPE svg PUBLIC "-//W3C//DTD SVG 1.1//EN" "http://www.w3.org/Graphics/SVG/1.1/DTD/svg11.dtd">
<svg version="1.1" xmlns="http://www.w3.org/2000/svg" xmlns:xlink="http://www.w3.org/1999/xlink" x="0px" y="0px"
	 viewBox="0 0 28 28" style="enable-background:new 0 0 28 28;" xml:space="preserve">
<g id="question-circle-full">
	<g>
		<path d="M14,5.25c-4.832,0-8.75,3.917-8.75,8.75c0,4.832,3.918,8.75,8.75,8.75s8.75-3.918,8.75-8.75
			C22.75,9.167,18.832,5.25,14,5.25z M14.465,17.581c-0.17,0.165-0.373,0.247-0.611,0.247c-0.238,0-0.44-0.083-0.606-0.247
			c-0.166-0.165-0.249-0.366-0.249-0.602c0-0.237,0.083-0.439,0.249-0.608c0.166-0.168,0.368-0.253,0.606-0.253
			c0.238,0,0.442,0.084,0.611,0.253c0.169,0.169,0.254,0.371,0.254,0.608C14.719,17.215,14.635,17.416,14.465,17.581z
			 M16.223,13.197c-0.195,0.305-0.454,0.572-0.779,0.802l-0.444,0.312c-0.188,0.136-0.332,0.289-0.433,0.457
			c-0.101,0.169-0.152,0.364-0.152,0.586v0.065h-1.169c-0.015-0.072-0.025-0.143-0.032-0.215c-0.007-0.072-0.011-0.147-0.011-0.226
			c0-0.287,0.065-0.561,0.195-0.823c0.13-0.262,0.35-0.507,0.66-0.737l0.519-0.387c0.31-0.229,0.465-0.513,0.465-0.85
			c0-0.122-0.022-0.242-0.065-0.36c-0.043-0.118-0.11-0.222-0.2-0.312c-0.09-0.09-0.204-0.161-0.341-0.215
			c-0.137-0.054-0.296-0.081-0.476-0.081c-0.195,0-0.361,0.036-0.498,0.108c-0.137,0.072-0.251,0.163-0.341,0.274
			c-0.09,0.111-0.157,0.24-0.2,0.387c-0.043,0.147-0.065,0.296-0.065,0.446c0,0.144,0.014,0.258,0.043,0.344l-1.363-0.054
			c-0.022-0.079-0.036-0.159-0.043-0.242c-0.007-0.082-0.011-0.163-0.011-0.242c0-0.287,0.054-0.568,0.162-0.844
			c0.108-0.276,0.267-0.52,0.476-0.732c0.209-0.211,0.467-0.382,0.774-0.511c0.307-0.129,0.662-0.194,1.066-0.194
			c0.418,0,0.786,0.061,1.104,0.183c0.317,0.122,0.584,0.282,0.801,0.479c0.216,0.197,0.379,0.425,0.487,0.683
			c0.108,0.258,0.162,0.524,0.162,0.796C16.516,12.524,16.418,12.892,16.223,13.197z"/>
	</g>
</g>
<g id="Layer_1">
</g>
</svg>
