<?xml version="1.0" encoding="iso-8859-1"?>
<!-- Generator: Adobe Illustrator 18.0.0, SVG Export Plug-In . SVG Version: 6.00 Build 0)  -->
<!DOCTYPE svg PUBLIC "-//W3C//DTD SVG 1.1//EN" "http://www.w3.org/Graphics/SVG/1.1/DTD/svg11.dtd">
<svg version="1.1" xmlns="http://www.w3.org/2000/svg" xmlns:xlink="http://www.w3.org/1999/xlink" x="0px" y="0px"
	 viewBox="0 0 28 28" style="enable-background:new 0 0 28 28;" xml:space="preserve">
<g id="repository">
	<path d="M21,21h-6.125v-1.75h5.25c0.965,0,1.75-0.785,1.75-1.75v-7.438c0-0.965-0.785-1.75-1.75-1.75h-3.5
		c-0.22,0-0.682-0.84-0.879-1.198c-0.481-0.874-1.026-1.865-2.082-1.865H7.846c-0.949,0-1.721,0.772-1.721,1.72v1.343v1.75V17.5
		c0,0.965,0.785,1.75,1.75,1.75h5.25V21H7c-0.483,0-0.875,0.392-0.875,0.875c0,0.483,0.392,0.875,0.875,0.875h14
		c0.483,0,0.875-0.392,0.875-0.875C21.875,21.392,21.483,21,21,21z M7.846,7h5.749c0.166,0.138,0.446,0.647,0.617,0.958
		c0.063,0.116,0.129,0.235,0.197,0.354H7.863L7.846,7z M7.875,10.062h8.75h3.5l0.001,7.438H7.875V10.062z"/>
</g>
<g id="Layer_1">
</g>
</svg>
