<?xml version="1.0" encoding="iso-8859-1"?>
<!-- Generator: Adobe Illustrator 18.0.0, SVG Export Plug-In . SVG Version: 6.00 Build 0)  -->
<!DOCTYPE svg PUBLIC "-//W3C//DTD SVG 1.1//EN" "http://www.w3.org/Graphics/SVG/1.1/DTD/svg11.dtd">
<svg version="1.1" xmlns="http://www.w3.org/2000/svg" xmlns:xlink="http://www.w3.org/1999/xlink" x="0px" y="0px"
	 viewBox="0 0 28 28" style="enable-background:new 0 0 28 28;" xml:space="preserve">
<g id="search">
	<path d="M22.453,21.243l-4.569-4.569c0.946-1.201,1.516-2.712,1.516-4.356c0-3.89-3.165-7.055-7.055-7.055
		s-7.055,3.165-7.055,7.055s3.165,7.055,7.055,7.055c1.616,0,3.102-0.552,4.293-1.469l4.576,4.576
		c0.171,0.171,0.395,0.256,0.619,0.256s0.448-0.085,0.619-0.256C22.794,22.138,22.794,21.584,22.453,21.243z M7.041,12.318
		c0-2.925,2.38-5.305,5.305-5.305s5.305,2.38,5.305,5.305s-2.38,5.305-5.305,5.305S7.041,15.243,7.041,12.318z"/>
</g>
<g id="Layer_1">
</g>
</svg>
