<?xml version="1.0" encoding="iso-8859-1"?>
<!-- Generator: Adobe Illustrator 18.0.0, SVG Export Plug-In . SVG Version: 6.00 Build 0)  -->
<!DOCTYPE svg PUBLIC "-//W3C//DTD SVG 1.1//EN" "http://www.w3.org/Graphics/SVG/1.1/DTD/svg11.dtd">
<svg version="1.1" xmlns="http://www.w3.org/2000/svg" xmlns:xlink="http://www.w3.org/1999/xlink" x="0px" y="0px"
	 viewBox="0 0 28 28" style="enable-background:new 0 0 28 28;" xml:space="preserve">
<g id="staging">
	<g>
		<circle cx="14" cy="14.027" r="4"/>
		<path d="M6.224,10.586L5.31,10.182c-0.269,0.606-0.474,1.243-0.609,1.89l0.979,0.205C5.801,11.698,5.985,11.129,6.224,10.586z"/>
		<path d="M5.5,14.045l-1,0.002c0.001,0.664,0.071,1.328,0.209,1.973l0.978-0.209C5.564,15.234,5.501,14.64,5.5,14.045z"/>
		<path d="M8.296,7.725L7.625,6.983C7.134,7.428,6.689,7.925,6.301,8.461l0.81,0.587C7.458,8.568,7.857,8.123,8.296,7.725z"/>
		<path d="M11.349,5.948l-0.312-0.95c-0.629,0.207-1.238,0.48-1.811,0.813l0.503,0.864C10.241,6.377,10.786,6.133,11.349,5.948z"/>
		<path d="M23.286,12.015c-0.14-0.647-0.349-1.282-0.62-1.886l-0.912,0.41c0.243,0.54,0.43,1.108,0.556,1.688L23.286,12.015z"/>
		<path d="M13.987,5.527c0.298,0.007,0.587,0.014,0.875,0.043l0.099-0.995c-0.321-0.032-0.684-0.063-0.975-0.048
			c-0.341,0-0.677,0.019-1.008,0.054l0.106,0.994C13.382,5.543,13.682,5.527,13.987,5.527z"/>
		<path d="M5.326,17.908c0.27,0.604,0.605,1.181,0.996,1.716l0.808-0.59c-0.35-0.479-0.649-0.995-0.892-1.534L5.326,17.908z"/>
		<path d="M20.88,19.02l0.809,0.588c0.392-0.539,0.726-1.117,0.993-1.719l-0.914-0.406C21.528,18.021,21.229,18.539,20.88,19.02z"/>
		<path d="M7.653,21.096c0.494,0.443,1.034,0.835,1.606,1.165l0.5-0.865c-0.513-0.296-0.997-0.647-1.438-1.044L7.653,21.096z"/>
		<path d="M22.5,14.027c0,0.593-0.062,1.188-0.184,1.768L23.295,16c0.136-0.646,0.205-1.31,0.205-1.973v-0.038L22.5,14.027z"/>
		<path d="M18.256,21.387l0.5,0.865c0.571-0.33,1.111-0.723,1.604-1.169l-0.67-0.742C19.249,20.741,18.765,21.092,18.256,21.387z"/>
		<path d="M20.331,6.945L19.665,7.69c0.441,0.396,0.843,0.838,1.193,1.316l0.807-0.592C21.273,7.88,20.825,7.386,20.331,6.945z"/>
		<path d="M16.907,4.98L16.6,5.932c0.564,0.181,1.11,0.422,1.625,0.718l0.498-0.867C18.148,5.452,17.537,5.182,16.907,4.98z"/>
		<path d="M11.074,23.068c0.631,0.204,1.285,0.342,1.943,0.409l0.103-0.994c-0.589-0.061-1.174-0.185-1.738-0.366L11.074,23.068z"/>
		<path d="M14.895,22.482l0.105,0.994c0.66-0.069,1.313-0.209,1.941-0.413l-0.309-0.951C16.071,22.294,15.486,22.419,14.895,22.482z
			"/>
	</g>
</g>
<g id="Layer_1">
</g>
</svg>
