<?xml version="1.0" encoding="iso-8859-1"?>
<!-- Generator: Adobe Illustrator 18.0.0, SVG Export Plug-In . SVG Version: 6.00 Build 0)  -->
<!DOCTYPE svg PUBLIC "-//W3C//DTD SVG 1.1//EN" "http://www.w3.org/Graphics/SVG/1.1/DTD/svg11.dtd">
<svg version="1.1" xmlns="http://www.w3.org/2000/svg" xmlns:xlink="http://www.w3.org/1999/xlink" x="0px" y="0px"
	 viewBox="0 0 28 28" style="enable-background:new 0 0 28 28;" xml:space="preserve">
<g id="strikethrough">
	<path d="M21,13.125h-4.78c-0.275-0.095-0.566-0.174-0.878-0.233l-1.872-0.359c-0.491-0.102-0.857-0.288-1.097-0.56
		c-0.239-0.271-0.359-0.59-0.359-0.956c0-0.228,0.051-0.442,0.151-0.644c0.102-0.202,0.243-0.382,0.426-0.54
		c0.182-0.159,0.403-0.285,0.662-0.379c0.258-0.096,0.545-0.142,0.86-0.142c0.428,0,0.791,0.063,1.086,0.19
		c0.297,0.125,0.54,0.284,0.728,0.473c0.189,0.19,0.332,0.395,0.426,0.615s0.16,0.427,0.198,0.615l2.345-0.72
		c-0.075-0.378-0.218-0.772-0.426-1.184c-0.208-0.41-0.5-0.785-0.879-1.127c-0.378-0.341-0.854-0.621-1.428-0.842
		C15.59,7.111,14.901,7,14.095,7c-0.631,0-1.229,0.108-1.797,0.322c-0.566,0.216-1.065,0.512-1.494,0.891
		c-0.428,0.379-0.765,0.823-1.011,1.335c-0.246,0.512-0.369,1.064-0.369,1.657c0,0.734,0.171,1.371,0.498,1.919H7v1.75h5.275
		c0.213,0.068,0.432,0.13,0.666,0.177l1.871,0.379c0.531,0.1,0.934,0.293,1.211,0.577c0.277,0.285,0.415,0.623,0.415,1.014
		c0,0.479-0.186,0.874-0.557,1.184c-0.372,0.31-0.911,0.464-1.617,0.464c-0.479,0-0.895-0.069-1.248-0.208
		c-0.352-0.139-0.649-0.325-0.888-0.56c-0.24-0.233-0.426-0.501-0.558-0.805s-0.211-0.618-0.235-0.947l-2.42,0.643
		c0.049,0.481,0.189,0.97,0.415,1.469c0.226,0.498,0.557,0.95,0.992,1.354c0.435,0.405,0.974,0.737,1.617,0.994
		C12.582,20.87,13.35,21,14.245,21c0.782,0,1.471-0.12,2.069-0.359c0.599-0.24,1.103-0.552,1.512-0.937
		c0.411-0.385,0.722-0.828,0.937-1.327c0.214-0.498,0.322-1.007,0.322-1.525c0-0.467-0.083-0.916-0.246-1.344
		c-0.085-0.222-0.191-0.432-0.316-0.632H21V13.125z"/>
</g>
<g id="Layer_1">
</g>
</svg>
