<?xml version="1.0" encoding="iso-8859-1"?>
<!-- Generator: Adobe Illustrator 18.0.0, SVG Export Plug-In . SVG Version: 6.00 Build 0)  -->
<!DOCTYPE svg PUBLIC "-//W3C//DTD SVG 1.1//EN" "http://www.w3.org/Graphics/SVG/1.1/DTD/svg11.dtd">
<svg version="1.1" xmlns="http://www.w3.org/2000/svg" xmlns:xlink="http://www.w3.org/1999/xlink" x="0px" y="0px"
	 viewBox="0 0 28 28" style="enable-background:new 0 0 28 28;" xml:space="preserve">
<g id="sun">
	<g>
		<path d="M13.964,9.381c-2.564,0-4.643,2.068-4.643,4.619c0,2.551,2.079,4.619,4.643,4.619s4.642-2.068,4.642-4.619
			C18.606,11.449,16.528,9.381,13.964,9.381z M13.964,16.869c-1.595,0-2.893-1.287-2.893-2.869s1.298-2.869,2.893-2.869
			s2.892,1.287,2.892,2.869S15.559,16.869,13.964,16.869z"/>
		<path d="M13.891,9.03c0.483,0,0.875-0.392,0.875-0.875V7c0-0.483-0.392-0.875-0.875-0.875S13.016,6.517,13.016,7v1.155
			C13.016,8.638,13.408,9.03,13.891,9.03z"/>
		<path d="M13.891,18.97c-0.483,0-0.875,0.392-0.875,0.875V21c0,0.483,0.392,0.875,0.875,0.875s0.875-0.392,0.875-0.875v-1.155
			C14.766,19.362,14.374,18.97,13.891,18.97z"/>
		<path d="M9.036,14c0-0.483-0.392-0.875-0.875-0.875H7c-0.483,0-0.875,0.392-0.875,0.875S6.517,14.875,7,14.875h1.161
			C8.644,14.875,9.036,14.483,9.036,14z"/>
		<path d="M21,13.125h-1.161c-0.483,0-0.875,0.392-0.875,0.875s0.392,0.875,0.875,0.875H21c0.483,0,0.875-0.392,0.875-0.875
			S21.483,13.125,21,13.125z"/>
		<path d="M18.123,10.737c0.223,0,0.446-0.085,0.617-0.255l0.821-0.816c0.343-0.341,0.344-0.895,0.003-1.237
			c-0.341-0.342-0.895-0.345-1.237-0.003l-0.821,0.816c-0.343,0.341-0.344,0.895-0.003,1.238
			C17.674,10.651,17.899,10.737,18.123,10.737z"/>
		<path d="M18.741,17.59c-0.343-0.341-0.897-0.339-1.238,0.003c-0.341,0.342-0.339,0.897,0.003,1.237l0.821,0.817
			c0.171,0.17,0.394,0.255,0.617,0.255c0.225,0,0.449-0.086,0.62-0.258c0.341-0.343,0.339-0.897-0.003-1.238L18.741,17.59z"/>
		<path d="M9.187,10.482c0.171,0.17,0.394,0.255,0.617,0.255c0.225,0,0.449-0.086,0.62-0.258c0.341-0.343,0.339-0.897-0.003-1.238
			L9.601,8.425C9.258,8.085,8.704,8.086,8.363,8.428C8.022,8.771,8.024,9.325,8.366,9.666L9.187,10.482z"/>
		<path d="M9.187,17.543l-0.821,0.817c-0.343,0.341-0.344,0.895-0.003,1.238c0.171,0.172,0.395,0.258,0.62,0.258
			c0.223,0,0.446-0.085,0.617-0.255l0.821-0.817c0.343-0.341,0.344-0.895,0.003-1.237C10.084,17.203,9.53,17.202,9.187,17.543z"/>
	</g>
</g>
<g id="Layer_1">
</g>
</svg>
