<?xml version="1.0" encoding="iso-8859-1"?>
<!-- Generator: Adobe Illustrator 18.0.0, SVG Export Plug-In . SVG Version: 6.00 Build 0)  -->
<!DOCTYPE svg PUBLIC "-//W3C//DTD SVG 1.1//EN" "http://www.w3.org/Graphics/SVG/1.1/DTD/svg11.dtd">
<svg version="1.1" xmlns="http://www.w3.org/2000/svg" xmlns:xlink="http://www.w3.org/1999/xlink" x="0px" y="0px"
	 viewBox="0 0 28 28" style="enable-background:new 0 0 28 28;" xml:space="preserve">
<g id="times-circle">
	<g>
		<path d="M14,4.375c-5.307,0-9.625,4.318-9.625,9.625S8.693,23.625,14,23.625s9.625-4.318,9.625-9.625S19.307,4.375,14,4.375z
			 M14,21.875c-4.342,0-7.875-3.533-7.875-7.875c0-4.342,3.533-7.875,7.875-7.875c4.342,0,7.875,3.533,7.875,7.875
			C21.875,18.342,18.342,21.875,14,21.875z"/>
		<path d="M15.171,13.914l2.709-2.708c0.342-0.342,0.342-0.896,0-1.237c-0.342-0.342-0.896-0.342-1.237,0l-2.709,2.708l-2.795-2.795
			c-0.341-0.342-0.896-0.342-1.237,0c-0.342,0.342-0.342,0.896,0,1.237l2.795,2.795l-2.968,2.968c-0.342,0.342-0.342,0.896,0,1.237
			c0.171,0.171,0.395,0.256,0.619,0.256s0.448-0.085,0.619-0.256l2.968-2.968l2.881,2.881c0.171,0.171,0.395,0.256,0.619,0.256
			s0.448-0.085,0.619-0.256c0.342-0.342,0.342-0.896,0-1.237L15.171,13.914z"/>
	</g>
</g>
<g id="Layer_1">
</g>
</svg>
