<?xml version="1.0" encoding="iso-8859-1"?>
<!-- Generator: Adobe Illustrator 18.0.0, SVG Export Plug-In . SVG Version: 6.00 Build 0)  -->
<!DOCTYPE svg PUBLIC "-//W3C//DTD SVG 1.1//EN" "http://www.w3.org/Graphics/SVG/1.1/DTD/svg11.dtd">
<svg version="1.1" xmlns="http://www.w3.org/2000/svg" xmlns:xlink="http://www.w3.org/1999/xlink" x="0px" y="0px"
	 viewBox="0 0 28 28" style="enable-background:new 0 0 28 28;" xml:space="preserve">
<g id="user">
	<path d="M16.955,12.83c0.867-0.8,1.42-1.935,1.42-3.205c0-2.412-1.963-4.375-4.375-4.375c-2.412,0-4.375,1.963-4.375,4.375
		c0,1.27,0.553,2.405,1.42,3.205c-2.881,1.172-4.92,3.997-4.92,7.295v1.75c0,0.483,0.392,0.875,0.875,0.875s0.875-0.392,0.875-0.875
		v-1.75C7.875,16.748,10.623,14,14,14s6.125,2.748,6.125,6.125v1.75c0,0.483,0.392,0.875,0.875,0.875s0.875-0.392,0.875-0.875v-1.75
		C21.875,16.828,19.836,14.002,16.955,12.83z M11.375,9.625C11.375,8.177,12.552,7,14,7s2.625,1.177,2.625,2.625
		S15.448,12.25,14,12.25S11.375,11.073,11.375,9.625z"/>
</g>
<g id="Layer_1">
</g>
</svg>
