<svg width="24" height="24" viewBox="0 0 24 24" fill="none" xmlns="http://www.w3.org/2000/svg">
<g clip-path="url(#clip0)">
<path d="M22.3901 6.27012C21.3171 4.43155 19.8615 2.97595 18.0231 1.90299C16.1844 0.829978 14.1771 0.29361 11.9998 0.29361C9.82276 0.29361 7.81481 0.830143 5.97651 1.90299C4.13794 2.97589 2.68245 4.43155 1.60938 6.27012C0.536478 8.10864 0 10.1163 0 12.2931C0 14.9079 0.762879 17.2592 2.28902 19.3476C3.815 21.4362 5.78634 22.8814 8.20287 23.6834C8.48416 23.7356 8.69239 23.6989 8.82778 23.5741C8.96323 23.4492 9.03087 23.2928 9.03087 23.1056C9.03087 23.0743 9.02819 22.7932 9.02299 22.2619C9.01806 21.7984 9.01543 21.335 9.01511 20.8715L8.65573 20.9337C8.42659 20.9756 8.13753 20.9934 7.78854 20.9884C7.43972 20.9835 7.07759 20.947 6.70267 20.879C6.32758 20.8116 5.9787 20.6554 5.65576 20.4106C5.33299 20.1658 5.10385 19.8454 4.9684 19.4498L4.81216 19.0903C4.70802 18.8509 4.54406 18.585 4.32006 18.2935C4.09607 18.0018 3.86956 17.804 3.64042 17.6998L3.53103 17.6215C3.45813 17.5695 3.39049 17.5067 3.32794 17.4339C3.26544 17.361 3.21865 17.2881 3.1874 17.2151C3.1561 17.1421 3.18204 17.0822 3.2655 17.0351C3.34895 16.9881 3.49978 16.9653 3.71863 16.9653L4.031 17.012C4.23934 17.0538 4.49705 17.1785 4.80444 17.3869C5.11168 17.5952 5.36424 17.866 5.56218 18.1992C5.80188 18.6264 6.09067 18.9519 6.42937 19.1759C6.76779 19.3999 7.10901 19.5117 7.45269 19.5117C7.79637 19.5117 8.0932 19.4856 8.3433 19.4338C8.59312 19.3817 8.82751 19.3034 9.04636 19.1993C9.1401 18.5011 9.39535 17.9647 9.81187 17.5898C9.2182 17.5274 8.68446 17.4334 8.21037 17.3085C7.73655 17.1834 7.24692 16.9804 6.7418 16.6989C6.2364 16.4177 5.81715 16.0686 5.48392 15.6522C5.15064 15.2355 4.87712 14.6884 4.66374 14.0115C4.45026 13.3344 4.34349 12.5532 4.34349 11.6678C4.34349 10.4072 4.75503 9.3345 5.57794 8.44903C5.19245 7.50129 5.22884 6.43884 5.68723 5.26179C5.98931 5.16794 6.4373 5.23837 7.03097 5.47265C7.62474 5.70704 8.05949 5.90783 8.33563 6.07431C8.61178 6.24073 8.83304 6.38176 8.99973 6.49614C9.96866 6.22541 10.9686 6.09002 11.9997 6.09002C13.0308 6.09002 14.031 6.22541 14.9999 6.49614L15.5937 6.12132C15.9997 5.87122 16.4791 5.64203 17.0309 5.43369C17.5829 5.22546 18.0051 5.1681 18.2969 5.26196C18.7655 6.43906 18.8072 7.50145 18.4216 8.4492C19.2445 9.33466 19.6562 10.4077 19.6562 11.668C19.6562 12.5534 19.549 13.337 19.3359 14.0194C19.1224 14.7019 18.8466 15.2483 18.5081 15.66C18.1693 16.0716 17.7474 16.4179 17.2423 16.699C16.737 16.9803 16.2473 17.1833 15.7734 17.3084C15.2994 17.4336 14.7657 17.5276 14.172 17.5901C14.7134 18.0586 14.9842 18.7983 14.9842 19.8086V23.1051C14.9842 23.2924 15.0494 23.4488 15.1797 23.5737C15.3099 23.6984 15.5155 23.7351 15.7968 23.6829C18.2137 22.881 20.185 21.4357 21.7109 19.3472C23.2367 17.2588 23.9998 14.9075 23.9998 12.2927C23.9993 10.1161 23.4625 8.10864 22.3901 6.27012V6.27012Z" fill="#272833"/>
</g>
<defs>
<clipPath id="clip0">
<rect width="24" height="24" fill="white"/>
</clipPath>
</defs>
</svg>
