<svg xmlns="http://www.w3.org/2000/svg">
  <defs>
    <pattern id="circles" patternUnits="userSpaceOnUse" width="16" height="16" style="fill:rgba(0,0,0,0.3)">
      <circle cx="4" cy="4" r="2"/>
      <circle cx="12" cy="12" r="2"/>
    </pattern>

    <pattern id="diagonal-left-large" patternUnits="userSpaceOnUse" width="10" height="10" style="fill:rgba(0,0,0,0.3)">
      <polygon points="9.3,0 10,0.7 10,0 "/>
      <polygon points="0,0 0,0.7 9.3,10 10,10 10,9.3 0.7,0 "/>
      <polygon points="0,9.3 0,10 0.7,10 "/>
    </pattern>

    <pattern id="diagonal-left-small" patternUnits="userSpaceOnUse" width="5" height="5" style="fill:rgba(0,0,0,0.3)">
      <polygon points="5,0 4.3,0 5,0.7 "/>
      <polygon points="0.7,0 0,0 0,0.7 4.3,5 5,5 5,4.3 "/>
      <polygon points="0,4.3 0,5 0.7,5 "/>
    </pattern>

    <pattern id="diagonal-right-large" patternUnits="userSpaceOnUse" width="10" height="10" style="fill:rgba(0,0,0,0.3)">
      <polygon points="10,9.3 9.3,10 10,10 "/>
      <polygon points="10,0 9.3,0 0,9.3 0,10 0.7,10 10,0.7 "/>
      <polygon points="0.7,0 0,0 0,0.7 "/>
    </pattern>

    <pattern id="diagonal-right-small" patternUnits="userSpaceOnUse" width="5" height="5" style="fill:rgba(0,0,0,0.3)">
      <polygon points="5,4.3 4.3,5 5,5 "/>
      <polygon points="5,0 4.3,0 0,4.3 0,5 0.7,5 5,0.7 "/>
      <polygon points="0.7,0 0,0 0,0.7 "/>
    </pattern>

    <pattern id="horizontal-large" patternUnits="userSpaceOnUse" width="8" height="8" style="fill:rgba(0,0,0,0.3)">
      <rect y="7" width="8" height="1"/>
    </pattern>

    <pattern id="horizontal-small" patternUnits="userSpaceOnUse" width="4" height="4" style="fill:rgba(0,0,0,0.3)">
      <rect y="3" width="4" height="1"/>
    </pattern>

    <pattern id="vertical-large" patternUnits="userSpaceOnUse" width="8" height="8" style="fill:rgba(0,0,0,0.3)">
      <rect x="7" y="0" width="1" height="8"/>
    </pattern>

    <pattern id="vertical-small" patternUnits="userSpaceOnUse" width="4" height="4" style="fill:rgba(0,0,0,0.3)">
      <rect x="3" width="1" height="4"/>
    </pattern>
  </defs>
</svg>