<svg style="display:none" xmlns="http://www.w3.org/2000/svg">
	<defs>
		<pattern height="16" id="circles" patternUnits="userSpaceOnUse" style="fill:rgba(0,0,0,0.3)" width="16">
			<circle cx="4" cy="4" r="2" />
			<circle cx="12" cy="12" r="2" />
		</pattern>
		<pattern height="10" id="diagonal-left-large" patternUnits="userSpaceOnUse" style="fill:rgba(0,0,0,0.3)" width="10">
			<polygon points="9.3,0 10,0.7 10,0 " />
			<polygon points="0,0 0,0.7 9.3,10 10,10 10,9.3 0.7,0 " />
			<polygon points="0,9.3 0,10 0.7,10 " />
		</pattern>
		<pattern height="5" id="diagonal-left-small" patternUnits="userSpaceOnUse" style="fill:rgba(0,0,0,0.3)" width="5">
			<polygon points="5,0 4.3,0 5,0.7 " />
			<polygon points="0.7,0 0,0 0,0.7 4.3,5 5,5 5,4.3 " />
			<polygon points="0,4.3 0,5 0.7,5 " />
		</pattern>
		<pattern height="10" id="diagonal-right-large" patternUnits="userSpaceOnUse" style="fill:rgba(0,0,0,0.3)" width="10">
			<polygon points="10,9.3 9.3,10 10,10 " />
			<polygon points="10,0 9.3,0 0,9.3 0,10 0.7,10 10,0.7 " />
			<polygon points="0.7,0 0,0 0,0.7 " />
		</pattern>
		<pattern height="5" id="diagonal-right-small" patternUnits="userSpaceOnUse" style="fill:rgba(0,0,0,0.3)" width="5">
			<polygon points="5,4.3 4.3,5 5,5 " />
			<polygon points="5,0 4.3,0 0,4.3 0,5 0.7,5 5,0.7 " />
			<polygon points="0.7,0 0,0 0,0.7 " />
		</pattern>
		<pattern height="8" id="horizontal-large" patternUnits="userSpaceOnUse" style="fill:rgba(0,0,0,0.3)" width="8">
			<rect height="1" width="8" y="7" />
		</pattern>
		<pattern height="4" id="horizontal-small" patternUnits="userSpaceOnUse" style="fill:rgba(0,0,0,0.3)" width="4">
			<rect height="1" width="4" y="3" />
		</pattern>
		<pattern height="8" id="vertical-large" patternUnits="userSpaceOnUse" style="fill:rgba(0,0,0,0.3)" width="8">
			<rect height="8" width="1" x="7" y="0" />
		</pattern>
		<pattern height="4" id="vertical-small" patternUnits="userSpaceOnUse" style="fill:rgba(0,0,0,0.3)" width="4">
			<rect height="4" width="1" x="3" />
		</pattern>
	</defs>
</svg>