<svg fill="none" height="271" viewBox="0 0 366 271" width="366" xmlns="http://www.w3.org/2000/svg">
	<path d="M147.5 124H76.5C74.2909 124 72.5 122.209 72.5 120V46.5" stroke="#B3CDFF" stroke-dasharray="4 4" stroke-width="2" />
	<path d="M241.5 84.5L312.5 84.5C314.709 84.5 316.5 82.7091 316.5 80.5V7" stroke="#B3CDFF" stroke-dasharray="4 4" stroke-width="2" />
	<path d="M205 134L205 205C205 207.209 203.209 209 201 209L127.5 209" stroke="#B3CDFF" stroke-dasharray="4 4" stroke-width="2" />
	<rect fill="white" height="162" rx="3.5" width="129" x="128.5" y="28.5" />
	<rect height="162" rx="3.5" stroke="#B3CDFF" stroke-width="3" width="129" x="128.5" y="28.5" />
	<rect fill="white" height="17" rx="3.5" stroke="#5791FF" width="84.6689" x="150.229" y="68.5" />
	<rect fill="#80ACFF" height="2" width="44.5828" x="154.099" y="76" />
	<rect fill="#0B5FFF" height="3" width="40.2119" x="149.729" y="63" />
	<rect fill="white" height="72" rx="4" stroke="#0B5FFF" stroke-opacity="0.4" stroke-width="6" width="85.6689" x="149.729" y="103" />
	<rect fill="white" height="71" rx="3.5" stroke="#0B5FFF" width="84.6689" x="150.229" y="103.5" />
	<rect fill="#80ACFF" height="3" width="60.3179" x="156.722" y="111" />
	<rect fill="#80ACFF" height="3" width="27.9735" x="156.722" y="120" />
	<rect fill="#80ACFF" height="3" width="48.0795" x="156.722" y="129" />
	<rect fill="#0B5FFF" height="3" width="44.5828" x="149.729" y="95" />
	<rect fill="#0B5FFF" height="24" rx="4" width="24" x="225" y="125" />
	<path d="M239.113 133.25H232.556C232.195 133.25 231.901 132.914 231.901 132.5C231.901 132.086 232.195 131.75 232.556 131.75H239.113C239.474 131.75 239.768 132.086 239.768 132.5C239.768 132.914 239.474 133.25 239.113 133.25Z" fill="white" />
	<path d="M241.735 136.25H232.556C232.195 136.25 231.901 135.915 231.901 135.5C231.901 135.086 232.195 134.75 232.556 134.75H241.735C242.097 134.75 242.391 135.086 242.391 135.5C242.391 135.914 242.097 136.25 241.735 136.25Z" fill="white" />
	<path d="M232.556 139.25H239.113C239.474 139.25 239.768 138.914 239.768 138.5C239.768 138.086 239.474 137.75 239.113 137.75H232.556C232.195 137.75 231.901 138.085 231.901 138.5C231.901 138.914 232.195 139.25 232.556 139.25Z" fill="white" />
	<path d="M232.556 140.75H241.735C242.097 140.75 242.391 141.086 242.391 141.5C242.391 141.914 242.097 142.25 241.735 142.25H232.556C232.195 142.25 231.901 141.914 231.901 141.5C231.901 141.086 232.195 140.75 232.556 140.75Z" fill="white" />
	<rect fill="#B3CDFF" height="1" width="9.61589" x="175.702" y="44" />
	<circle cx="168" cy="44" fill="#B3CDFF" r="5" />
	<circle cx="194" cy="44" fill="#B3CDFF" r="5" />
	<rect fill="#B3CDFF" height="1" width="9.61589" x="201.556" y="44" />
	<circle cx="219" cy="44" fill="#B3CDFF" r="5" />
	<g filter="url(#filter0_d_908_117010)">
		<rect fill="white" height="32" rx="4" width="115" x="239.25" y="7" />
		<rect height="32" rx="4" stroke="#0B5FFF" stroke-opacity="0.4" stroke-width="6" width="115" x="239.25" y="7" />
	</g>
	<rect fill="white" height="32" rx="4" width="115" x="239.25" y="7" />
	<rect fill="#F0F5FF" height="16" rx="4" width="16" x="247.25" y="15" />
	<rect fill="#80ACFF" height="4" width="35" x="271.25" y="18" />
	<rect fill="#80ACFF" height="2" opacity="0.5" width="60" x="271.25" y="26" />
	<rect fill="#0B5FFF" height="24" rx="4" width="24" x="243.25" y="11" />
	<g filter="url(#filter1_d_908_117010)">
		<rect fill="white" height="79" rx="4" width="83" x="11.5" y="27" />
		<rect height="79" rx="4" stroke="#0B5FFF" stroke-opacity="0.4" stroke-width="6" width="83" x="11.5" y="27" />
	</g>
	<rect fill="white" height="79" rx="4" width="83" x="11.5" y="27" />
	<rect fill="#80ACFF" height="5" width="37" x="34.5" y="68" />
	<rect fill="#80ACFF" height="3" opacity="0.5" width="64" x="20.5" y="78" />
	<rect fill="#80ACFF" height="3" opacity="0.5" width="49" x="28.5" y="86" />
	<rect fill="#80ACFF" height="3" opacity="0.5" width="58" x="23.5" y="94" />
	<g filter="url(#filter2_d_908_117010)">
		<rect fill="white" height="79" rx="4" width="83" x="58.5" y="177" />
		<rect height="79" rx="4" stroke="#0B5FFF" stroke-opacity="0.4" stroke-width="6" width="83" x="58.5" y="177" />
	</g>
	<rect fill="white" height="79" rx="4" width="83" x="58.5" y="177" />
	<rect fill="#80ACFF" height="5" width="37" x="81.5" y="218" />
	<rect fill="#80ACFF" height="3" opacity="0.5" width="64" x="67.5" y="228" />
	<rect fill="#80ACFF" height="3" opacity="0.5" width="49" x="75.5" y="236" />
	<rect fill="#80ACFF" height="3" opacity="0.5" width="58" x="70.5" y="244" />
	<defs>
		<filter color-interpolation-filters="sRGB" filterUnits="userSpaceOnUse" height="54" id="filter0_d_908_117010" width="137" x="228.25" y="0">
			<feFlood flood-opacity="0" result="BackgroundImageFix" />
			<feColorMatrix in="SourceAlpha" result="hardAlpha" type="matrix" values="0 0 0 0 0 0 0 0 0 0 0 0 0 0 0 0 0 0 127 0" />
			<feOffset dy="4" />
			<feGaussianBlur stdDeviation="4" />
			<feColorMatrix type="matrix" values="0 0 0 0 0.152941 0 0 0 0 0.156863 0 0 0 0 0.2 0 0 0 0.12 0" />
			<feBlend in2="BackgroundImageFix" mode="normal" result="effect1_dropShadow_908_117010" />
			<feBlend in="SourceGraphic" in2="effect1_dropShadow_908_117010" mode="normal" result="shape" />
		</filter>
		<filter color-interpolation-filters="sRGB" filterUnits="userSpaceOnUse" height="101" id="filter1_d_908_117010" width="105" x="0.5" y="20">
			<feFlood flood-opacity="0" result="BackgroundImageFix" />
			<feColorMatrix in="SourceAlpha" result="hardAlpha" type="matrix" values="0 0 0 0 0 0 0 0 0 0 0 0 0 0 0 0 0 0 127 0" />
			<feOffset dy="4" />
			<feGaussianBlur stdDeviation="4" />
			<feColorMatrix type="matrix" values="0 0 0 0 0.152941 0 0 0 0 0.156863 0 0 0 0 0.2 0 0 0 0.12 0" />
			<feBlend in2="BackgroundImageFix" mode="normal" result="effect1_dropShadow_908_117010" />
			<feBlend in="SourceGraphic" in2="effect1_dropShadow_908_117010" mode="normal" result="shape" />
		</filter>
		<filter color-interpolation-filters="sRGB" filterUnits="userSpaceOnUse" height="101" id="filter2_d_908_117010" width="105" x="47.5" y="170">
			<feFlood flood-opacity="0" result="BackgroundImageFix" />
			<feColorMatrix in="SourceAlpha" result="hardAlpha" type="matrix" values="0 0 0 0 0 0 0 0 0 0 0 0 0 0 0 0 0 0 127 0" />
			<feOffset dy="4" />
			<feGaussianBlur stdDeviation="4" />
			<feColorMatrix type="matrix" values="0 0 0 0 0.152941 0 0 0 0 0.156863 0 0 0 0 0.2 0 0 0 0.12 0" />
			<feBlend in2="BackgroundImageFix" mode="normal" result="effect1_dropShadow_908_117010" />
			<feBlend in="SourceGraphic" in2="effect1_dropShadow_908_117010" mode="normal" result="shape" />
		</filter>
	</defs>
</svg>