<svg xmlns="http://www.w3.org/2000/svg" viewBox="0 0 512 512">
	<path class="lexicon-icon-body" fill="none" d="M0,56.9v398.2C0,486.5,25.5,512,56.9,512h398.2c31.4,0,56.9-25.5,56.9-56.9V56.9C512,25.5,486.5,0,455.1,0H56.9C25.5,0,0,25.5,0,56.9z"></path>
	<path class="lexicon-icon-outline" d="M0,56.9v398.2C0,486.5,25.5,512,56.9,512h398.2c31.4,0,56.9-25.5,56.9-56.9V56.9C512,25.5,486.5,0,455.1,0H56.9C25.5,0,0,25.5,0,56.9z M448,352v96h-96v-96H448z M160,352v96H64v-96H160z M448,192v128h-96V192H448z M160,192v128H64V192H160z M448,64v96h-96V64H448z M160,64v96H64V64H160z"></path>
</svg>