<!--
* SPDX-FileCopyrightText: © 2020 Liferay, Inc. <https://liferay.com>
* SPDX-FileCopyrightText: © 2020 Contributors to the project Clay <https://github.com/liferay/clay/graphs/contributors>
*
* SPDX-License-Identifier: BSD-3-Clause
-->
<svg xmlns="http://www.w3.org/2000/svg" viewBox="0 0 512 512">
	<path class="lexicon-icon-outline" d="M32.1,224H192c44.8-3.4,40.4-62.3,0-64H32C-13.4,163.3-7.9,221.9,32.1,224z M32.1,352H192c44.8-3.4,40.4-62.3,0-64H32C-13.4,291.3-7.9,349.9,32.1,352z M320,160h160c17.7,0,32,14.3,32,32v128c0,17.7-14.3,32-32,32H320c-17.7,0-32-14.3-32-32V192C288,174.3,302.3,160,320,160z M32.1,96H480c43.7-2,41.5-62.2,0-64H32C-12.5,34.1-8.8,94.7,32.1,96z M32.1,480H480c43.7-2,41.5-62.2,0-64H32C-12.5,418.1-8.8,478.7,32.1,480z"/>
</svg>