<svg xmlns="http://www.w3.org/2000/svg" viewBox="0 0 512 512">
	<path class="lexicon-icon-outline" d="M419.986 96h-327.973c-17.664 0-32-14.336-32-32v0c0-17.664 14.299-32 32-32h328.009c17.664 0 32 14.336 32 32v0c-0.037 17.664-14.336 32-32.037 32h0.001z"></path>
	<path class="lexicon-icon-outline" d="M480 224h-448c-17.664 0-32-14.299-32-32v0c0-17.664 14.336-32 32-32h448c17.664 0 32 14.336 32 32v0c0 17.701-14.336 32-32 32z"></path>
	<path class="lexicon-icon-outline" d="M419.986 352h-327.973c-17.664 0-32-14.336-32-32v0c0-17.664 14.336-32 32-32h328.009c17.664 0 32 14.336 32 32v0c-0.037 17.664-14.336 32-32.037 32h0.001z"></path>
	<path class="lexicon-icon-outline" d="M480 480h-448c-17.664 0-32-14.336-32-32v0c0-17.664 14.336-32 32-32h448c17.664 0 32 14.336 32 32v0c0 17.664-14.336 32-32 32z"></path>
</svg>