<!--
* SPDX-FileCopyrightText: © 2020 Liferay, Inc. <https://liferay.com>
* SPDX-FileCopyrightText: © 2020 Contributors to the project Clay <https://github.com/liferay/clay/graphs/contributors>
*
* SPDX-License-Identifier: BSD-3-Clause
-->
<svg xmlns="http://www.w3.org/2000/svg" viewBox="0 0 512 512">
	<path class="lexicon-icon-outline" d="M480.1,32H32.3c-43,0-43.2,64,0,64h447.8C522.6,96,522.6,32,480.1,32z M480.1,416H32.3c-43,0-43.2,64,0,64h447.8C522.6,480,522.6,416,480.1,416z M480,160H32c-17.7,0-32,14.3-32,32v128c0,17.7,14.3,32,32,32h448c17.7,0,32-14.3,32-32V192C512,174.3,497.7,160,480,160z"/>
</svg>