<svg xmlns="http://www.w3.org/2000/svg" viewBox="0 0 512 512">
	<path class="lexicon-icon-outline" d="M512 64c0-17.664-14.336-32-32-32h-320c-17.664 0-32 14.336-32 32s14.336 32 32 32h320c17.664 0 32-14.336 32-32z"></path>
	<path class="lexicon-icon-outline" d="M512 192c0-17.664-14.336-32-32-32h-448c-17.664 0-32 14.336-32 32s14.336 32 32 32h448c17.664 0 32-14.299 32-32z"></path>
	<path class="lexicon-icon-outline" d="M512 320c0-17.701-14.336-32-32-32h-320c-17.664 0-32 14.336-32 32s14.336 32 32 32h320c17.664 0 32-14.336 32-32z"></path>
	<path class="lexicon-icon-outline" d="M0 448c0 17.664 14.336 32 32 32h448c17.664 0 32-14.336 32-32s-14.336-32-32-32h-448c-17.664 0-32 14.336-32 32z"></path>
</svg>