<?xml version="1.0" encoding="utf-8"?>
<!-- Generator: Adobe Illustrator 23.0.1, SVG Export Plug-In . SVG Version: 6.00 Build 0)  -->
<svg version="1.1" id="arrow-join" xmlns="http://www.w3.org/2000/svg" xmlns:xlink="http://www.w3.org/1999/xlink" x="0px"
	 y="0px" viewBox="0 0 512 512" style="enable-background:new 0 0 512 512;" xml:space="preserve">
<path class="lexicon-icon-outline" d="M493.5,210.8L301.3,18.7c-18-18-57.2-30.8-90.6-0.1l-192,192.3c-31,33.3-17.9,74.4,0,90.5
	c50.4,45.5,143.9,144.3,192.2,192.2c31.5,31.2,74.3,17,90.5,0l192.3-192C509.9,284.2,525.2,245,493.5,210.8z M347.9,343.7l-82,100.4
	c-5.4,5.4-14.3,5.4-19.7,0l-82-100.4c-8.8-8.7-2.6-23.6,9.9-23.6h50c0.2-64.1,1.1-67.8-18.7-92.1L141,163.7l22.6-22.6l60.3,60.3V96
	h64v224h50C350.5,320.1,356.7,335,347.9,343.7z"/>
</svg>