<?xml version="1.0" encoding="utf-8"?>
<!-- Generator: Adobe Illustrator 23.0.1, SVG Export Plug-In . SVG Version: 6.00 Build 0)  -->
<svg version="1.1" id="arrow_start" xmlns="http://www.w3.org/2000/svg" xmlns:xlink="http://www.w3.org/1999/xlink" x="0px"
	 y="0px" viewBox="0 0 512 512" style="enable-background:new 0 0 512 512;" xml:space="preserve">
<path class="lexicon-icon-outline" d="M256,0C114.62,0,0,114.62,0,256s114.62,256,256,256s256-114.62,256-256S397.38,0,256,0z M343.59,347.88
	c-8.72,8.8-23.59,2.59-23.59-9.88V288H183.12C136.62,353.63,64,307.14,64,256c0-50.21,71.1-98.22,119.12-32H320v-49.99
	c0-12.48,14.87-18.68,23.59-9.88l100.38,82.02c5.37,5.42,5.37,14.28,0,19.71L343.59,347.88z"/>
</svg>