<svg xmlns="http://www.w3.org/2000/svg" viewBox="0 0 512 512">
	<path class="lexicon-icon-outline bars-line-top" d="M480 64h-448c-17.664 0-32-14.336-32-32v0c0-17.664 14.336-32 32-32h448c17.664 0 32 14.336 32 32v0c0 17.664-14.336 32-32 32z"></path>
	<path class="lexicon-icon-outline bars-line-middle" d="M480 288h-448c-17.664 0-32-14.336-32-32v0c0-17.664 14.336-32 32-32h448c17.664 0 32 14.336 32 32v0c0 17.664-14.336 32-32 32z"></path>
	<path class="lexicon-icon-outline bars-line-bottom" d="M480 512h-448c-17.664 0-32-14.336-32-32v0c0-17.664 14.336-32 32-32h448c17.664 0 32 14.336 32 32v0c0 17.664-14.336 32-32 32z"></path>
</svg>