<svg xmlns="http://www.w3.org/2000/svg" viewBox="0 0 512 512">
	<path class="lexicon-icon-outline lx-briefcase-bottom" d="M504.42,337.42L288,378v22c0,8.84-7.16,16-16,16h-32c-8.84,0-16-7.16-16-16v-22L7.58,337.42C3.64,336.68,0,339.7,0,343.71V448c0,17.67,14.33,32,32,32h448c17.67,0,32-14.33,32-32V343.71C512,339.7,508.36,336.68,504.42,337.42z"/>
	<path class="lexicon-icon-outline lx-briefcase-top" d="M480,128h-96V96c0-35.35-28.65-64-64-64H192c-35.35,0-64,28.65-64,64v32H32c-17.67,0-32,14.33-32,32v117.44c0,15.4,10.97,28.62,26.1,31.45L224,346v-10c0-8.84,7.16-16,16-16h32c8.84,0,16,7.16,16,16v10l197.9-37.11c15.14-2.84,26.1-16.05,26.1-31.45V160C512,142.33,497.67,128,480,128z M320,128H192V96h128V128z"/>
</svg>
