<svg xmlns="http://www.w3.org/2000/svg" viewBox="0 0 512 512">
	<path class="lexicon-icon-body cards-bg-top" fill="none" d="M465.1,0H46.9C21.1,0,0,21.1,0,46.9v130.8c0,25.8,21.1,46.9,46.9,46.9h418.1c25.8,0,46.9-21.1,46.9-46.9V46.9C512,21.1,490.9,0,465.1,0z"></path>
	<path class="lexicon-icon-body cards-bg-bottom" fill="none" d="M465.1,287.3H46.9C21.1,287.3,0,308.4,0,334.3v130.8C0,490.9,21.1,512,46.9,512h418.1c25.8,0,46.9-21.1,46.9-46.9V334.3C512,308.4,490.9,287.3,465.1,287.3L465.1,287.3z"></path>
	<path class="lexicon-icon-outline cards-border-top" d="M465.1,0H46.9C21.1,0,0,21.1,0,46.9v130.8c0,25.8,21.1,46.9,46.9,46.9h418.1c25.8,0,46.9-21.1,46.9-46.9V46.9C512,21.1,490.9,0,465.1,0z M448,160.7H64v-96h384V160.7z"></path>
	<path class="lexicon-icon-outline cards-border-bottom" d="M465.1,287.3H46.9C21.1,287.3,0,308.4,0,334.3v130.8C0,490.9,21.1,512,46.9,512h418.1c25.8,0,46.9-21.1,46.9-46.9V334.3C512,308.4,490.9,287.3,465.1,287.3L465.1,287.3z M448,448H64v-96h384V448z"></path>
</svg>