<!--
* SPDX-FileCopyrightText: © 2020 Liferay, Inc. <https://liferay.com>
* SPDX-FileCopyrightText: © 2020 Contributors to the project Clay <https://github.com/liferay/clay/graphs/contributors>
*
* SPDX-License-Identifier: BSD-3-Clause
-->
<svg xmlns="http://www.w3.org/2000/svg" viewBox="0 0 512 512">
	<path class="lexicon-icon-outline check-circle-arc" d="M256,512C114.8,512,0,397.2,0,256S114.8,0,256,0c27.3,0,54.2,4.3,79.9,12.7 c40.7,13.3,20,73.9-19.9,60.8c-19.3-6.3-39.5-9.5-60-9.5C150.1,64,64,150.1,64,256s86.1,192,192,192s192-86.1,192-192 c0-7.3-0.4-14.4-1.2-21.4c-2.5-43.4,58.4-47.8,63.6-7c1,9.3,1.6,18.8,1.6,28.5C512,397.2,397.2,512,256,512z"/>
	<path class="lexicon-icon-outline check-circle-check" d="M423.7,74.8L254.2,272.9l-71.6-71.7c-29.1-28.9-74.3,16.4-45.2,45.3l96,96.1c5.8,5.8,13.8,9.4,22.6,9.4 c9.7,0,18.4-4.4,24.3-11.2l192-224.4C498.9,85.4,450.3,44.1,423.7,74.8z"/>
</svg>