<!--
* SPDX-FileCopyrightText: © 2020 Liferay, Inc. <https://liferay.com>
* SPDX-FileCopyrightText: © 2020 Contributors to the project Clay <https://github.com/liferay/clay/graphs/contributors>
*
* SPDX-License-Identifier: BSD-3-Clause
-->
<svg xmlns="http://www.w3.org/2000/svg" viewBox="0 0 512 512">
	<path class="lexicon-icon-outline" d="M471.2,117.7L280.3,340.8c-5.9,6.8-14.6,11.2-24.3,11.2c-8.8,0-16.8-3.6-22.6-9.4l-96-96.1 c-29.1-28.9,16.1-74.2,45.2-45.3l71.6,71.7L423.7,74.8c2.2-2.5,4.7-3.9,7.1-5.5C385,26.5,323.7,0,256,0C114.6,0,0,114.6,0,256 s114.6,256,256,256s256-114.6,256-256C512,205,496.9,157.6,471.2,117.7z"/>
</svg>
