<svg xmlns="http://www.w3.org/2000/svg" viewBox="0 0 512 512">
	<path class="lexicon-icon-body columns-bg-left" fill="none" d="M0,46.9v418.1C0,490.9,21.1,512,46.9,512h130.8c25.8,0,46.9-21.1,46.9-46.9V46.9c0-25.8-21.1-46.9-46.9-46.9H46.9C21.1,0,0,21.1,0,46.9z"></path>
	<path class="lexicon-icon-body columns-bg-right" fill="none" d="M287.3,46.9v418.1c0,25.8,21.1,46.9,46.9,46.9h130.8c25.8,0,46.9-21.1,46.9-46.9V46.9C512,21.1,490.9,0,465.1,0H334.3C308.4,0,287.3,21.1,287.3,46.9L287.3,46.9z"></path>
	<path class="lexicon-icon-outline columns-border-left" d="M0,46.9v418.1C0,490.9,21.1,512,46.9,512h130.8c25.8,0,46.9-21.1,46.9-46.9V46.9c0-25.8-21.1-46.9-46.9-46.9H46.9C21.1,0,0,21.1,0,46.9z M160.7,64v384h-96V64H160.7z"></path>
	<path class="lexicon-icon-outline columns-border-right" d="M287.3,46.9v418.1c0,25.8,21.1,46.9,46.9,46.9h130.8c25.8,0,46.9-21.1,46.9-46.9V46.9C512,21.1,490.9,0,465.1,0H334.3C308.4,0,287.3,21.1,287.3,46.9L287.3,46.9z M448,64v384h-96V64H448z"></path>
</svg>