<svg xmlns="http://www.w3.org/2000/svg" viewBox="0 0 512 512">
	<path class="lexicon-icon-outline control-panel-top" d="M32,128h296.6c11.1,19.1,31.7,32,55.4,32s44.3-12.9,55.4-32H480c17.7,0,32-14.3,32-32s-14.3-32-32-32h-40.6c-11.1-19.1-31.7-32-55.4-32s-44.3,12.9-55.4,32H32C14.3,64,0,78.3,0,96S14.3,128,32,128z"></path>
	<path class="lexicon-icon-outline control-panel-bottom" d="M480,384h-40.6c-11.1-19.1-31.7-32-55.4-32s-44.3,12.9-55.4,32H32c-17.7,0-32,14.3-32,32s14.3,32,32,32h296.6c11.1,19.1,31.7,32,55.4,32s44.3-12.9,55.4-32H480c17.7,0,32-14.3,32-32S497.7,384,480,384z"></path>
	<path class="lexicon-icon-outline control-panel-middle" d="M480,224H183.4c-11.1-19.1-31.7-32-55.4-32s-44.3,12.9-55.4,32H32c-17.7,0-32,14.3-32,32s14.3,32,32,32h40.5c11.1,19.1,31.7,32,55.4,32s44.3-12.9,55.4-32H480c17.7,0,32-14.3,32-32S497.7,224,480,224z"></path>
</svg>
