<svg xmlns="http://www.w3.org/2000/svg" viewBox="0 0 512 512">
	<path class="lexicon-icon-outline lx-device-check-check" d="M329.6,131.2l-99.2,112l-48-44.8c-32-28.8-76.8,16-41.6,48l70.4,64c12.8,12.8,32,9.6,44.8-3.2l118.4-134.4C403.2,144,355.2,102.4,329.6,131.2z"/>
	<path class="lexicon-icon-outline lx-device-check-device" d="M416,0H96C60.8,0,32,28.8,32,64v384c0,35.2,28.8,64,64,64h320c35.2,0,64-28.8,64-64V64C480,28.8,451.2,0,416,0z M224,448c0-41.6,64-41.6,64,0C288,492.8,224,489.6,224,448z M416,384H96V64h320V384z"/>
</svg>