<svg xmlns="http://www.w3.org/2000/svg" viewBox="0 0 512 512">
	<path class="lexicon-icon-outline ellipsis-h-dot-2" d="M320 256c0 35.346-28.654 64-64 64s-64-28.654-64-64c0-35.346 28.654-64 64-64s64 28.654 64 64z"></path>
	<path class="lexicon-icon-outline ellipsis-h-dot-1" d="M128 256c0 35.346-28.654 64-64 64s-64-28.654-64-64c0-35.346 28.654-64 64-64s64 28.654 64 64z"></path>
	<path class="lexicon-icon-outline ellipsis-h-dot-3" d="M512 256c0 35.346-28.654 64-64 64s-64-28.654-64-64c0-35.346 28.654-64 64-64s64 28.654 64 64z"></path>
</svg>