<!--
* SPDX-FileCopyrightText: © 2020 Liferay, Inc. <https://liferay.com>
* SPDX-FileCopyrightText: © 2020 Contributors to the project Clay <https://github.com/liferay/clay/graphs/contributors>
*
* SPDX-License-Identifier: BSD-3-Clause
-->
<svg xmlns="http://www.w3.org/2000/svg" viewBox="0 0 512 512">
	<path class="lexicon-icon-outline" d="M64,128v-25.4l88,88c25.5,25.5,64.5-12.8,38.6-38.6l-88-88H128c42.6,0,42.6-64,0-64H32C16.4,0,0,14.4,0,32v96C0,170.7,64,170.6,64,128z M448,128v-25.4l-88,88c-25.5,25.5-64.5-12.8-38.6-38.6l88-88H384c-42.6,0-42.6-64,0-64h96c15.6,0,32,14.4,32,32v96C512,170.7,448,170.6,448,128z M64,384v25.4l88-88c25.5-25.5,64.5,12.8,38.6,38.6l-88,88H128c42.6,0,42.6,64,0,64H32c-15.6,0-32-14.4-32-32v-96C0,341.3,64,341.4,64,384z M448,384v25.4l-88-88c-25.5-25.5-64.5,12.8-38.6,38.6l88,88H384c-42.6,0-42.6,64,0,64h96c15.6,0,32-14.4,32-32v-96C512,341.3,448,341.4,448,384z"/>
</svg>
