<svg xmlns="http://www.w3.org/2000/svg" viewBox="0 0 512 512">
	<rect y="64" fill="#C0CFD8" width="512" height="384"></rect>
	<rect x="16" y="80" fill="#E03232" width="480" height="352"></rect>
	<polygon fill="#FCD638" points="152.7,238.7 112.7,209.3 73.6,240 88,191.1 48,161.7 96.9,160.9 111.3,112 127.1,160.4 176,159.6 
	136.9,190.3"></polygon>
	<polygon fill="#FFDD00" points="236.6,154.2 226.6,140.1 210.3,145.9 220.5,131.4 210.5,117.3 226.7,122.4 236.9,107.9 236.7,125.6 252.9,130.7 236.7,136.5"></polygon>
	<polygon fill="#FFDD00" points="275.6,203.8 276.2,186.5 259.7,181.4 276.5,175.9 277,158.6 286.9,172.4 303.7,166.9 293,181 302.9,194.8 286.4,189.7"></polygon>
	<polygon fill="#FFDD00" points="267,276.9 272.2,260.4 257.7,251 275.4,250.2 280.5,233.8 286.3,249.7 304,249 289.9,259.6 295.6,275.6 281.1,266.2"></polygon>
	<polygon fill="#FFDD00" points="207.9,319.2 219.8,306.8 211.1,291.9 227.2,299.1 239.2,286.7 237.2,303.6 253.4,310.8 236,314 234.1,330.9 225.3,316"></polygon>
</svg>
