<svg xmlns="http://www.w3.org/2000/svg" viewBox="0 0 512 512">
	<rect y="64" fill="#C0CFD8" width="512" height="384"></rect>
	<rect x="16" y="80" fill="#E03232" width="480" height="352"></rect>
	<path fill="#FFFFFF" d="M240,336c-44.2,0-80-35.8-80-80s35.8-80,80-80c2,0,4,0.4,6,0.6c-15.4-10.5-34-16.6-54-16.6c-53,0-96,43-96,96s43,96,96,96c20,0,38.6-6.1,54-16.6C244,335.6,242,336,240,336z"></path>
	<polygon fill="#FFFFFF" points="253.2,202 273.8,227.7 304.5,216.1 286.5,243.5 307,269.2 275.3,260.5 257.2,288 255.7,255.2 224,246.5 254.8,234.9"></polygon>
</svg>
