<svg xmlns="http://www.w3.org/2000/svg" viewBox="0 0 512 512">
	<path class="lexicon-icon-body" d="M415,32H160c0-17.7-14.3-32-32-32S96,14.3,96,32v33v190.2V480c0,17.7,14.3,32,32,32s32-14.3,32-32V288h255c18.2,0,33-14.8,33-33V65C448,46.8,433.2,32,415,32z"></path>
	<path class="lexicon-icon-outline" d="M415,32H160c0-17.7-14.3-32-32-32S96,14.3,96,32v33v190.2V480c0,17.7,14.3,32,32,32s32-14.3,32-32V288h255c18.2,0,33-14.8,33-33V65C448,46.8,433.2,32,415,32z M384,224H160V96h224V224L384,224z"></path>
</svg>