<svg xmlns="http://www.w3.org/2000/svg" viewBox="0 0 512 512">
	<rect y="64" fill="#B0BEC9" width="512" height="384"></rect>
	<rect x="16" y="80" fill="#75BD4A" width="480" height="96"></rect>
	<rect x="16" y="336" fill="#E03232" width="480" height="96"></rect>
	<rect x="16" y="176" fill="#FFFFFF" width="480" height="160"></rect>
	<rect x="32" y="143.4" opacity="0.5" fill="#FFFFFF" width="16.6" height="16.6"></rect>
	<rect x="65.2" y="143.4" opacity="0.5" fill="#FFFFFF" width="16.6" height="16.6"></rect>
	<rect x="98.4" y="143.4" opacity="0.5" fill="#FFFFFF" width="16.6" height="16.6"></rect>
	<rect x="131.6" y="143.4" opacity="0.5" fill="#FFFFFF" width="16.6" height="16.6"></rect>
	<rect x="164.7" y="143.4" opacity="0.5" fill="#FFFFFF" width="16.6" height="16.6"></rect>
	<rect x="197.9" y="143.4" opacity="0.5" fill="#FFFFFF" width="16.6" height="16.6"></rect>
	<rect x="231.1" y="143.4" opacity="0.5" fill="#FFFFFF" width="16.6" height="16.6"></rect>
	<rect x="264.3" y="143.4" opacity="0.5" fill="#FFFFFF" width="16.6" height="16.6"></rect>
	<rect x="297.5" y="143.4" opacity="0.5" fill="#FFFFFF" width="16.6" height="16.6"></rect>
	<rect x="330.7" y="143.4" opacity="0.5" fill="#FFFFFF" width="16.6" height="16.6"></rect>
	<rect x="363.9" y="143.4" opacity="0.5" fill="#FFFFFF" width="16.6" height="16.6"></rect>
	<rect x="397" y="143.4" opacity="0.5" fill="#FFFFFF" width="16.6" height="16.6"></rect>
	<rect x="430.2" y="143.4" opacity="0.5" fill="#FFFFFF" width="16.6" height="16.6"></rect>
	<rect x="463.4" y="143.4" opacity="0.5" fill="#FFFFFF" width="16.6" height="16.6"></rect>
	<rect x="32" y="352" opacity="0.5" fill="#FFFFFF" width="16.6" height="16.6"></rect>
	<rect x="65.2" y="352" opacity="0.5" fill="#FFFFFF" width="16.6" height="16.6"></rect>
	<rect x="98.4" y="352" opacity="0.5" fill="#FFFFFF" width="16.6" height="16.6"></rect>
	<rect x="131.6" y="352" opacity="0.5" fill="#FFFFFF" width="16.6" height="16.6"></rect>
	<rect x="164.7" y="352" opacity="0.5" fill="#FFFFFF" width="16.6" height="16.6"></rect>
	<rect x="197.9" y="352" opacity="0.5" fill="#FFFFFF" width="16.6" height="16.6"></rect>
	<rect x="231.1" y="352" opacity="0.5" fill="#FFFFFF" width="16.6" height="16.6"></rect>
	<rect x="264.3" y="352" opacity="0.5" fill="#FFFFFF" width="16.6" height="16.6"></rect>
	<rect x="297.5" y="352" opacity="0.5" fill="#FFFFFF" width="16.6" height="16.6"></rect>
	<rect x="330.7" y="352" opacity="0.5" fill="#FFFFFF" width="16.6" height="16.6"></rect>
	<rect x="363.9" y="352" opacity="0.5" fill="#FFFFFF" width="16.6" height="16.6"></rect>
	<rect x="397" y="352" opacity="0.5" fill="#FFFFFF" width="16.6" height="16.6"></rect>
	<rect x="430.2" y="352" opacity="0.5" fill="#FFFFFF" width="16.6" height="16.6"></rect>
	<rect x="463.4" y="352" opacity="0.5" fill="#FFFFFF" width="16.6" height="16.6"></rect>
	<circle fill="#E03232" cx="254" cy="252" r="40"></circle>
</svg>
