<svg xmlns="http://www.w3.org/2000/svg" viewBox="0 0 512 512">
	<rect y="64" fill="#B0BEC9" width="512" height="384"></rect>
	<rect x="16" y="80" fill="#E03232" width="112" height="352"></rect>
	<rect x="384" y="80" fill="#E03232" width="112" height="352"></rect>
	<rect x="128" y="80" fill="#FFFFFF" width="256" height="352"></rect>
	<path fill="#E03232" d="M301.9,300.3c0,3.6,4.1,13.4,4.1,13.4s-34.2-5.7-37.1-6.2s-5.5-0.5-5.4,5.5l2.4,18.2h-8.4l1.9-18.2c0-6-2.6-6-5.5-5.5s-37.1,6.4-37.1,6.4s4-9.7,4-13.4c0-4.7-10.1-11.4-21.1-21c-11-9.7-18.6-14.6-18.6-15.7c0-1,7.8-0.8,7.8-6.6c0-5.7-7.4-27.3-7.4-27.3s15.4,6,19.6,5.9c4.2,0,10.7-8.4,10.7-14.4c0,0,20.1,25.4,24.3,23.5c4.2-1.8-7.7-51.8-7.7-51.8s12,10.9,16.1,9.6c4.2-1.3,15.9-31.3,15.9-31.3s0.1-0.4,0.4-0.4c0.2,0,0.4,0.4,0.4,0.4s11.8,29.9,16,31.1c4.2,1.3,16.1-9.7,16.1-9.7s-11.6,50-7.4,51.9c4.2,1.8,24.2-23.8,24.2-23.8c0,6,6.6,14.4,10.7,14.4c4.2-0.1,19.5-6.1,19.5-6.1s-7.3,21.6-7.2,27.4c0,5.8,7.8,5.5,7.8,6.5s-7.6,6-18.5,15.8C311.9,288.9,301.9,295.5,301.9,300.3L301.9,300.3z"></path>
</svg>
