<!--
* SPDX-FileCopyrightText: © 2020 Liferay, Inc. <https://liferay.com>
* SPDX-FileCopyrightText: © 2020 Contributors to the project Clay <https://github.com/liferay/clay/graphs/contributors>
*
* SPDX-License-Identifier: BSD-3-Clause
-->
<svg xmlns="http://www.w3.org/2000/svg" viewBox="0 0 32 24">
	<path class="st0" fill="#B0BEC9" d="M0,0h32v24H0V0z"/>
	<path class="st1" fill="#E03232" d="M1,16h30v7H1V16z"/>
	<path class="st2" fill="#0035A0" d="M1,8h30v8H1V8z"/>
	<path class="st3" fill="#FFFFFF" d="M31,1H1v7h4v4.9c0,3.9,5,5.1,5,5.1s5-1.2,5-5.1V8h16V1z"/>
	<path class="st2" fill="#0035A0" d="M6.1,13c0.5,3.1,3.9,4,3.9,4s3.4-0.9,3.9-4H6.1z"/>
	<path class="st4" fill="#D80027" d="M14,6H6c0,0.4-0.1,6.9,0.1,7h3.4v-2h-2v-1h2V9h-1V8h1V7h1v1h1v1h-1v1h2v1h-2v2h3.4C14.1,12.9,14,6.4,14,6z"/>
</svg>

