<svg xmlns="http://www.w3.org/2000/svg" viewBox="0 0 512 512">
	<path class="lexicon-icon-outline grid-square-3" d="M495.965 0.018h-95.993c-8.813 0-15.981 7.168-15.981 16.017v95.993c0 8.85 7.168 16.017 16.017 16.017h95.993c8.849 0 16.017-7.168 16.017-16.017v-95.993c-0.037-8.85-7.204-16.017-16.054-16.017z"></path>
	<path class="lexicon-icon-outline grid-square-4" d="M112.028 192.005h-95.993c-8.85 0-16.017 7.167-16.017 16.017v95.993c0 8.849 7.168 16.017 16.017 16.017h95.993c8.85 0 15.981-7.168 15.981-16.017v-95.993c0-8.85-7.168-16.017-15.981-16.017z"></path>
	<path class="lexicon-icon-outline grid-square-5" d="M303.978 192.005h-95.993c-8.85 0-16.017 7.167-16.017 16.017v95.993c0 8.849 7.167 16.017 16.017 16.017h95.993c8.849 0 16.017-7.168 16.017-16.017v-95.993c0-8.85-7.168-16.017-16.017-16.017z"></path>
	<path class="lexicon-icon-outline grid-square-6" d="M495.965 192.005h-95.993c-8.849 0-16.017 7.167-16.017 16.017v95.993c0 8.849 7.168 16.017 16.017 16.017h95.993c8.849 0 16.017-7.168 16.017-16.017v-95.993c0-8.85-7.168-16.017-16.017-16.017z"></path>
	<path class="lexicon-icon-outline grid-square-7" d="M112.028 383.991h-95.993c-8.85 0-16.017 7.168-16.017 16.017v95.993c0 8.813 7.168 15.981 16.017 15.981h95.993c8.85 0 15.981-7.168 15.981-16.017v-95.993c0-8.813-7.168-15.981-15.981-15.981z"></path>
	<path class="lexicon-icon-outline grid-square-8" d="M303.978 383.991h-95.993c-8.85 0-16.017 7.168-16.017 16.017v95.993c0 8.849 7.167 16.017 16.017 16.017h95.993c8.849 0 16.017-7.168 16.017-16.017v-95.993c0-8.849-7.168-16.017-16.017-16.017z"></path>
	<path class="lexicon-icon-outline grid-square-9" d="M495.965 383.991h-95.993c-8.849 0-16.017 7.168-16.017 16.017v95.993c0 8.849 7.168 16.017 16.017 16.017h95.993c8.849-0.037 16.017-7.204 16.017-16.054v-95.993c0-8.813-7.168-15.981-16.017-15.981z"></path>
	<path class="lexicon-icon-outline grid-square-1" d="M112.028 0.018h-95.993c-8.85 0-16.017 7.168-16.017 16.017v95.993c0 8.814 7.168 15.981 16.017 15.981h95.993c8.85 0 15.981-7.168 15.981-16.017v-95.956c0-8.85-7.168-16.017-15.981-16.017z"></path>
	<path class="lexicon-icon-outline grid-square-2" d="M303.978 0.018h-95.993c-8.85 0-16.017 7.168-16.017 16.017v95.993c0 8.85 7.167 16.017 16.017 16.017h95.993c8.849 0 16.017-7.168 16.017-16.017v-95.993c0-8.85-7.168-16.017-16.017-16.017z"></path>
</svg>