<!--
* SPDX-FileCopyrightText: © 2020 Liferay, Inc. <https://liferay.com>
* SPDX-FileCopyrightText: © 2020 Contributors to the project Clay <https://github.com/liferay/clay/graphs/contributors>
*
* SPDX-License-Identifier: BSD-3-Clause
-->
<svg xmlns="http://www.w3.org/2000/svg" viewBox="0 0 512 512">
	<path class="lexicon-icon-outline lx-hdd-bottom" d="M480,352c17.7,0,32-14.3,32-32v-96c0-17.7-14.3-32-32-32H32c-17.7,0-32,14.3-32,32v96c0,17.7,14.3,32,32,32h192v96H32c-42,0-42.3,64,0,64h448c42,0,42.7-64,0-64H288v-96H480z M448,272c0,20.8-32,21.5-32,0C416,251.5,448,250.2,448,272z M384,272c0,21-32,21.5-32,0S384,250.8,384,272z"/>
	<path class="lexicon-icon-outline lx-hdd-top" d="M480,0H32C14.3,0,0,14.3,0,32v96c0,17.7,14.3,32,32,32h448c17.7,0,32-14.3,32-32V32C512,14.3,497.7,0,480,0z M352,80c0-21.5,32-20.8,32,0C384,102,352,100.5,352,80z M416,80c0-21.2,32-21.3,32,0C448,101.7,416,101.8,416,80z"/>
</svg>
