<svg xmlns="http://www.w3.org/2000/svg" viewBox="0 0 512 512">
	<path class="lexicon-icon-outline lx-home-building" d="M500.8113,199.6915l-224.2705-192C264.5535-2.5712,246.8733-2.5634,234.8952,7.712L11.1658,199.632c-13.4141,11.5068-14.96,31.709-3.4531,45.123c11.5073,13.4141,31.709,14.96,45.123,3.4531l11.165-9.5776v241.3696c0,17.6729,14.3271,32,32,32s32-14.3271,32-32V183.7299L255.7512,74.1427l130.09,111.3713l-1.8405,294.4861c0,17.6729,14.3271,32,32,32s32-14.3271,32-32V238.7293l11.1895,9.5794c6.0322,5.1646,13.4316,7.6924,20.7959,7.6919c9.0244,0,17.9941-3.7969,24.3232-11.1895C515.8025,231.3859,514.2371,211.1852,500.8113,199.6915z"></path>
	<path class="lexicon-icon-outline lx-home-door" d="M256.0007,256.0001c-52.9346,0-96,43.0654-96,96c0,35.124,1.3525,123.2646,1.4102,128.3613c0.1982,17.5488,14.4863,31.6387,31.9907,31.6387c0.1226,0,0.2456-0.001,0.3687-0.002c17.6724-0.2002,31.8364-14.6875,31.6367-32.3594c-0.0142-1.2451-1.4062-92.875-1.4062-127.6387c0-17.6445,14.355-32,32-32c17.6445,0,32,14.3555,32,32v128c0,17.6729,14.3271,32,32,32s32-14.3271,32-32v-128C352.0007,299.0656,308.9353,256.0001,256.0007,256.0001z"></path>
</svg>
