<svg xmlns="http://www.w3.org/2000/svg" viewBox="0 0 512 512">
	<path class="lexicon-icon-body" fill="none" d="M437,75C388.7,26.6,324.4,0,256,0C187.6,0,123.3,26.6,75,75C26.6,123.3,0,187.6,0,256c0,68.4,26.6,132.7,75,181c48.4,48.4,112.6,75,181,75c68.4,0,132.7-26.6,181-75c48.4-48.4,75-112.6,75-181C512,187.6,485.4,123.3,437,75z"></path>
	<path class="lexicon-icon-outline info-circle-open-border" d="M437,75C388.7,26.6,324.4,0,256,0C187.6,0,123.3,26.6,75,75C26.6,123.3,0,187.6,0,256c0,68.4,26.6,132.7,75,181c48.4,48.4,112.6,75,181,75c68.4,0,132.7-26.6,181-75c48.4-48.4,75-112.6,75-181C512,187.6,485.4,123.3,437,75z M256,448c-105.9,0-192-86.1-192-192S150.1,64,256,64s192,86.1,192,192S361.9,448,256,448z"></path>
	<path class="lexicon-icon-outline info-circle-open-i-stem" d="M256,192c-17.7,0-32,14.3-32,32v160c0,17.7,14.3,32,32,32c17.7,0,32-14.3,32-32V224C288,206.3,273.7,192,256,192z"></path>
	<circle class="lexicon-icon-outline info-circle-open-i-dot" cx="256" cy="128" r="32"></circle>
</svg>