<svg xmlns="http://www.w3.org/2000/svg" viewBox="0 0 512 512">
	<path class="lexicon-icon-body" fill="none" d="M335.1,114.2c-16.7,0-32.5,6.5-44.3,18.4L18.5,404.9C6.3,417.1-0.2,433.3,0.2,450.5c0.4,17.3,7.6,33.2,20.3,44.8c11.6,10.6,26.6,16.4,42.3,16.4c16.7,0,32.5-6.5,44.3-18.4l272.3-272.3c24.4-24.4,24.4-64.2,0-88.6C367.6,120.7,351.9,114.2,335.1,114.2L335.1,114.2z"></path>
	<path class="lexicon-icon-outline magic-wand" d="M335.1,114.2c-16.7,0-32.5,6.5-44.3,18.4L18.5,404.9C6.3,417.1-0.2,433.3,0.2,450.5c0.4,17.3,7.6,33.2,20.3,44.8c11.6,10.6,26.6,16.4,42.3,16.4c16.7,0,32.5-6.5,44.3-18.4l272.3-272.3c24.4-24.4,24.4-64.2,0-88.6C367.6,120.7,351.9,114.2,335.1,114.2L335.1,114.2z M278.7,203.8l29.5,29.5L115.8,425.7l-29.5-29.5L278.7,203.8L278.7,203.8z M48.7,464.6c-4.2-3.9-6.7-9.2-6.8-14.9s2.1-11.1,6.1-15.2l8.7-8.7l29.5,29.5l-8.7,8.7C70,471.6,56.7,471.9,48.7,464.6L48.7,464.6z M349.9,191.6l-12.2,12.1l-29.5-29.5l12.1-12.1c3.9-3.9,9.2-6.1,14.8-6.1s10.8,2.2,14.8,6.1C358,170.2,358,183.5,349.9,191.6L349.9,191.6z"></path>
	<path class="lexicon-icon-outline magic-sparkle-2" d="M446.6,95l6.1,6.1c4.1,4.1,9.4,6.1,14.8,6.1s10.7-2,14.8-6.1c8.2-8.2,8.2-21.4,0-29.5l-6.1-6.1l6.1-6.1c8.2-8.2,8.2-21.4,0-29.5c-8.2-8.2-21.4-8.2-29.5,0l-6.1,6.1l-6.1-6.1c-8.2-8.2-21.4-8.2-29.5,0c-8.2,8.2-8.2,21.4,0,29.5l6.1,6.1l-6.1,6.1c-8.2,8.2-8.2,21.4,0,29.5c4.1,4.1,9.4,6.1,14.8,6.1s10.7-2,14.8-6.1L446.6,95z"></path>
	<path class="lexicon-icon-outline magic-sparkle-1" d="M303,62.8c0,11.5,9.4,20.9,20.9,20.9s20.9-9.4,20.9-20.9c11.5,0,20.9-9.4,20.9-20.9s-9.4-20.9-20.9-20.9c0-11.5-9.4-20.9-20.9-20.9S303,9.5,303,21.1c-11.5,0-20.9,9.4-20.9,20.9S291.5,62.8,303,62.8z"></path>
	<path class="lexicon-icon-outline magic-sparkle-3" d="M490.9,188.1c0-11.5-9.4-20.9-20.9-20.9s-20.9,9.4-20.9,20.9c-11.5,0-20.9,9.4-20.9,20.9s9.4,20.9,20.9,20.9c0,11.5,9.4,20.9,20.9,20.9s20.9-9.4,20.9-20.9c11.5,0,20.9-9.4,20.9-20.9S502.5,188.1,490.9,188.1z"></path>
</svg>