<svg xmlns="http://www.w3.org/2000/svg" viewBox="0 0 512 512">
	<path class="lexicon-icon-outline mobile-device-rules-phone" d="M192,0H64C28.8,0,0,28.8,0,64v0.1588v255.5755v0.4245v64c0,35.2,28.8,64,64,64h128c35.2,0,64-28.8,64-64v-64v-256V64C256,28.8,227.2,0,192,0z M129,416.1588c-8.8365,0-16-7.1635-16-16s7.1635-16,16-16s16,7.1635,16,16S137.8365,416.1588,129,416.1588z M192,320.1588v30.8041H64v-30.8041v-256V64h128v0.1588V320.1588z"></path>
	<circle class="lexicon-icon-outline mobile-device-rules-bullet-1" cx="320" cy="96" r="32"></circle>
	<circle class="lexicon-icon-outline mobile-device-rules-bullet-3" cx="320" cy="352" r="32"></circle>
	<circle class="lexicon-icon-outline mobile-device-rules-bullet-2" cx="320" cy="224" r="32"></circle>
	<path class="lexicon-icon-outline mobile-device-rules-item-1" d="M416,128h64c17.6729,0,32-14.3271,32-32s-14.3271-32-32-32h-64c-17.6729,0-32,14.3271-32,32S398.3271,128,416,128z"></path>
	<path class="lexicon-icon-outline mobile-device-rules-item-2" d="M480,192h-64c-17.6729,0-32,14.3271-32,32s14.3271,32,32,32h64c17.6729,0,32-14.3271,32-32S497.6729,192,480,192z"></path>
	<path class="lexicon-icon-outline mobile-device-rules-item-3" d="M480,320h-64c-17.6729,0-32,14.3271-32,32s14.3271,32,32,32h64c17.6729,0,32-14.3271,32-32S497.6729,320,480,320z"></path>
</svg>