<svg xmlns="http://www.w3.org/2000/svg" viewBox="0 0 512 512">
	<circle class="lexicon-icon-outline password-policies-head" cx="192" cy="96" r="96"></circle>
	<path class="lexicon-icon password-policies-body" d="M288,245.9C30,132-174,475.5,224,446.8V352c0-35.5,28.7-64.2,64-64.2V245.9z"></path>
	<path class="lexicon-icon password-policies-unlock" d="M480,320H352v-64c0-43.5,64-43.5,64,0v32h32v-32c0-84-128-86.5-128,0v64h-32c-17.7,0-32,14.3-32,32v128c0,17.7,14.3,32,32,32h192c17.7,0,32-14.3,32-32V352C512,334.3,497.7,320,480,320z M416,448h-64v-64h64V448z"></path>
</svg>