<!--
* SPDX-FileCopyrightText: © 2020 Liferay, Inc. <https://liferay.com>
* SPDX-FileCopyrightText: © 2020 Contributors to the project Clay <https://github.com/liferay/clay/graphs/contributors>
*
* SPDX-License-Identifier: BSD-3-Clause
-->
<svg xmlns="http://www.w3.org/2000/svg" viewBox="0 0 512 512">
	<path class="lexicon-icon-outline" d="M388.1,32H123.9C90.8,32,64,58.8,64,91.9v328.3c0,33.1,26.8,59.9,59.9,59.9h264.3c33.1,0,59.9-26.8,59.9-59.9V91.9C448,58.8,421.2,32,388.1,32L388.1,32z M192,128h128c17.7,0,32-14.3,32-32h32v320H128V96h32C160,113.7,174.3,128,192,128L192,128z M304,192h-96c-21,0-21,32,0,32h96C325,224,325,192,304,192L304,192z M304,256h-96c-21,0-21,32,0,32h96C325,288,325,256,304,256L304,256z M240,320h-32c-21,0-21,32,0,32h32C261,352,261,320,240,320L240,320z"/>
</svg>