<!--
* SPDX-FileCopyrightText: © 2020 Liferay, Inc. <https://liferay.com>
* SPDX-FileCopyrightText: © 2020 Contributors to the project Clay <https://github.com/liferay/clay/graphs/contributors>
*
* SPDX-License-Identifier: BSD-3-Clause
-->
<svg xmlns="http://www.w3.org/2000/svg" viewBox="0 0 512 512">
	<path class="lexicon-icon-outline" d="M124,32h264.2c33.1,0,59.9,26.8,59.9,59.9v328.3c0,33.1-26.8,59.9-59.9,59.9H123.9c-33.1,0-59.9-26.8-59.9-59.9V91.9C64.1,58.8,90.9,32,124,32L124,32z M320.1,128h-128c-17.7,0-32-14.3-32-32h-32v320h256V96h-32C352.1,113.7,337.8,128,320.1,128L320.1,128z M208.1,192h96c21,0,21,32,0,32h-96C187.1,224,187.1,192,208.1,192L208.1,192z M208.1,256h96c21,0,21,32,0,32h-96C187.1,288,187.1,256,208.1,256L208.1,256z M272.1,320h32c21,0,21,32,0,32h-32C251.1,352,251.1,320,272.1,320L272.1,320z"/>
</svg>