<!--
* SPDX-FileCopyrightText: © 2020 Liferay, Inc. <https://liferay.com>
* SPDX-FileCopyrightText: © 2020 Contributors to the project Clay <https://github.com/liferay/clay/graphs/contributors>
*
* SPDX-License-Identifier: BSD-3-Clause
-->
<svg xmlns="http://www.w3.org/2000/svg" viewBox="0 0 512 512">
	<path class="lexicon-icon-outline" d="M96,192h64V91.9c0-33.1,26.8-59.9,59.9-59.9h200.3c33.1,0,59.9,26.8,59.9,59.9v264.3c0,33.1-26.8,59.9-59.9,59.9H352v32c0,35.4-28.6,64-64,64H96c-35.4,0-64-28.6-64-64V256C32,220.6,60.6,192,96,192z M352,256v96h64V96h-32c0,17.7-14.3,32-32,32h-64c-17.7,0-32-14.3-32-32h-32v96h64C323.4,192,352,220.6,352,256z M126,416h36.6l27.4-83.2l28.2,83.2H254l32-128h-32l-19.4,85.7L207.2,288h-33.7l-26.8,85.7L126,288H94L126,416z"/>
</svg>