<!--
* SPDX-FileCopyrightText: © 2020 Liferay, Inc. <https://liferay.com>
* SPDX-FileCopyrightText: © 2020 Contributors to the project Clay <https://github.com/liferay/clay/graphs/contributors>
*
* SPDX-License-Identifier: BSD-3-Clause
-->
<svg xmlns="http://www.w3.org/2000/svg" viewBox="0 0 512 512">
	<path class="lexicon-icon-outline" d="M416,192h-64V91.87C352,58.8,325.2,32,292.13,32H91.87C58.8,32,32,58.8,32,91.87v264.27C32,389.2,58.8,416,91.87,416H160v32c0,35.35,28.65,64,64,64h192c35.35,0,64-28.65,64-64V256C480,220.65,451.35,192,416,192z M160,256v96H96V96h32c0,17.67,14.33,32,32,32h64c17.67,0,32-14.33,32-32h32v96h-64C188.65,192,160,220.65,160,256z M386.03,416h-36.64l-27.36-83.24L293.85,416h-35.82l-32-128h32l19.35,85.66L304.79,288h33.7l26.84,85.66l20.7-85.66h32L386.03,416z"/>
</svg>