<svg xmlns="http://www.w3.org/2000/svg" viewBox="0 0 512 512">
	<path class="lexicon-icon-outline lx-product-menu-left-bg" fill="none" d="M176,512H48c-26.5,0-48-21.5-48-48V48C0,21.5,21.5,0,48,0h128c26.5,0,48,21.5,48,48v416C224,490.5,202.5,512,176,512L176,512z"></path>
	<path class="lexicon-icon-outline lx-product-menu-left-border" d="M176,512H48c-26.5,0-48-21.5-48-48V48C0,21.5,21.5,0,48,0h128c26.5,0,48,21.5,48,48v416C224,490.5,202.5,512,176,512L176,512z M64,448h96V64H64C64,64,64,448,64,448z"></path>
	<path class="lexicon-icon-outline lx-product-menu-line-1" d="M480,64H320c-17.7,0-32-14.3-32-32l0,0c0-17.7,14.3-32,32-32h160c17.7,0,32,14.3,32,32l0,0C512,49.7,497.7,64,480,64z"></path>
	<path class="lexicon-icon-outline lx-product-menu-line-2" d="M480,288H320c-17.7,0-32-14.3-32-32l0,0c0-17.7,14.3-32,32-32h160c17.7,0,32,14.3,32,32l0,0C512,273.7,497.7,288,480,288z"></path>
	<path class="lexicon-icon-outline lx-product-menu-line-3" d="M480,512H320c-17.7,0-32-14.3-32-32l0,0c0-17.7,14.3-32,32-32h160c17.7,0,32,14.3,32,32l0,0C512,497.7,497.7,512,480,512z"></path>
</svg>