<!--
* SPDX-FileCopyrightText: © 2020 Liferay, Inc. <https://liferay.com>
* SPDX-FileCopyrightText: © 2020 Contributors to the project Clay <https://github.com/liferay/clay/graphs/contributors>
*
* SPDX-License-Identifier: BSD-3-Clause
-->
<svg xmlns="http://www.w3.org/2000/svg" viewBox="0 0 512 512">
	<path class="lexicon-icon-outline lx-search-plus-zoom" d="M272.6,193.1L272.6,193.1H225v-47.5l0,0c0-22.2-31.7-22.2-31.7,0l0,0v47.5h-47.5l0,0c-22.2,0-22.2,31.7,0,31.7l0,0h47.5v47.5l0,0c0,22.2,31.7,22.2,31.7,0l0,0v-47.5h47.5l0,0C294.7,224.7,294.7,193.1,272.6,193.1z"/>
	<path class="lexicon-icon-outline lx-search-plus-lens" d="M499.2,455.6L378.1,333.8C521.5,48.7,202.8-85.8,59.4,58.3C-100,237.7,84.9,519.6,333.5,378.7l121.1,118.5C489.6,535.7,534.3,490.8,499.2,455.6z M209.2,64.7c191.2,0,188,288.3,0,288.3S27.5,64.7,209.2,64.7z"/>
</svg>