<!--
* SPDX-FileCopyrightText: © 2020 Liferay, Inc. <https://liferay.com>
* SPDX-FileCopyrightText: © 2020 Contributors to the project Clay <https://github.com/liferay/clay/graphs/contributors>
*
* SPDX-License-Identifier: BSD-3-Clause
-->
<svg xmlns="http://www.w3.org/2000/svg" viewBox="0 0 512 512">
	<path class="lexicon-icon-body lx-select-all-body" d="M416,448H64c-17.7,0-32-14.3-32-32V64c0-17.7,14.3-32,32-32h352c17.7,0,32,14.3,32,32v352C448,433.7,433.7,448,416,448z" fill="none"/>
	<path class="lexicon-icon-outline lx-select-all-outline" d="M352.1,160H127.8c-43.4,0-41.4-64,0-64h224.3C393.8,96,395.5,160,352.1,160z M367.9,224H111.8c-21.2,0-20.8-32,0-32H368C389.1,192,389.6,224,367.9,224z M367.9,288H111.8c-21.2,0-20.8-32,0-32H368C389.1,256,389.6,288,367.9,288z M207.9,352h-96.1c-21.2,0-20.8-32,0-32h96.1C229.2,320,229.6,352,207.9,352z M320,320l32,160l32-32l64,64l64-64l-64-64l32-32L320,320z M160,32h64v32h-64V32z M256,32h64v32h-64V32z M160,416h64v32h-64V416z M256,416h32v32h-32V416z M32,160h32v64H32V160z M32,256h32v64H32V256z M416,160h32v64h-32V160z M416,256h32v32h-32V256z M128,32H64c-17.7,0-32,14.3-32,32v64h32V64h64V32z M32,352v64c0,17.7,14.3,32,32,32h64v-32H64v-64H32z M448,128V64c0-17.7-14.3-32-32-32h-64v32h64v64H448z"/>
</svg>