<!--
* SPDX-FileCopyrightText: © 2020 Liferay, Inc. <https://liferay.com>
* SPDX-FileCopyrightText: © 2020 Contributors to the project Clay <https://github.com/liferay/clay/graphs/contributors>
*
* SPDX-License-Identifier: BSD-3-Clause
-->
<svg xmlns="http://www.w3.org/2000/svg" viewBox="0 0 512 512">
	<path class="lexicon-icon-outline lx-sign-in-border" d="M416,0H96C60.7,0,32,28.6,32,64v64h64V64h320v384H96v-64H32v64c0,35.4,28.7,64,64,64h320c35.4,0,64-28.6,64-64V64C480,28.6,451.4,0,416,0z"/>
	<path class="lexicon-icon-outline lx-sign-in-arrow-right" d="M310.4,233.1l-71.6-71.6c-27.2-27.4-76.2,9.4-45.8,45.8l16.7,16.7l-145.8,0.1c-43,0-42,64,0,64l145.8-0.1L193,304.7c-30.4,36.2,18.8,72.6,45.8,45.8l71.6-71.6C316.5,272.8,327.7,253.3,310.4,233.1z"/>
</svg>
