<svg xmlns="http://www.w3.org/2000/svg" viewBox="0 0 512 512">
	<path class="lexicon-icon-body" fill="none" d="M455.1,0H56.9C25.5,0,0,25.5,0,56.9v398.2C0,486.5,25.5,512,56.9,512h398.2c31.4,0,56.9-25.5,56.9-56.9V56.9C512,25.5,486.5,0,455.1,0z"></path>
	<path class="lexicon-icon-outline" d="M455.1,0H56.9C25.5,0,0,25.5,0,56.9v398.2C0,486.5,25.5,512,56.9,512h398.2c31.4,0,56.9-25.5,56.9-56.9V56.9C512,25.5,486.5,0,455.1,0z M224,448H64V288h160V448z M224,224H64V64h160V224z M448,448H288V288h160V448z M448,224H288V64h160V224z"></path>
</svg>