<!--
* SPDX-FileCopyrightText: © 2020 Liferay, Inc. <https://liferay.com>
* SPDX-FileCopyrightText: © 2020 Contributors to the project Clay <https://github.com/liferay/clay/graphs/contributors>
*
* SPDX-License-Identifier: BSD-3-Clause
-->
<svg xmlns="http://www.w3.org/2000/svg" viewBox="0 0 512 512">
	<path class="lexicon-icon-outline" d="M448,0H64C31.75,0,0,31.25,0,64c0,127.89,0,384,0,384c0,32.19,32.19,64,64,64h384c32,0,64-31.88,64-64V64C512,32,480.25,0,448,0z M256,64h64v32h-64V64z M448,448H64V64h128v96h256V448z M448,96h-64V64h64V96z M160,288h192c17.67,0,32-14.33,32-32v0c0-17.67-14.33-32-32-32H160c-17.67,0-32,14.33-32,32v0C128,273.67,142.33,288,160,288z M160,384h192c17.67,0,32-14.33,32-32v0c0-17.67-14.33-32-32-32H160c-17.67,0-32,14.33-32,32v0C128,369.67,142.33,384,160,384z"/>
</svg>
