<!--
* SPDX-FileCopyrightText: © 2020 Liferay, Inc. <https://liferay.com>
* SPDX-FileCopyrightText: © 2020 Contributors to the project Clay <https://github.com/liferay/clay/graphs/contributors>
*
* SPDX-License-Identifier: BSD-3-Clause
-->
<svg xmlns="http://www.w3.org/2000/svg" viewBox="0 0 512 512">
	<path class="lexicon-icon-outline thumbs-down-thumb-border" d="M0.2,277.1c-0.1,78.4,63.9,74.7,63.9,74.7l108.2,0.2c-46.4,106.6-3.1,143.1,21.7,153.7c91.5,38.9,134.4-110.3,180-185.7h42.1V0H200.3C143.9,0,64.2,59.7,64.2,128v36C5.8,183.5,0,225.1,0.2,277.1z M128,224v-96c0-37.4,58.5-64,73.3-64h150.8v192h-17c-25.5,44.1-97.7,209-116.9,190.8c-10.1-9.6,2.9-61.6,57.8-158.8l-211.3-0.1C60.2,216.4,70.6,223.9,128,224z"/>
	<path class="lexicon-icon-outline thumbs-down-cuff" d="M512,288V32c0-42.6-64-42.6-64,0v256C448.1,331.5,512,329.8,512,288z"/>
</svg>