<svg xmlns="http://www.w3.org/2000/svg" viewBox="0 0 512 512">
	<path class="lexicon-icon-body" fill="none" d="M437,75C388.7,26.6,324.4,0,256,0S123.3,26.6,75,75C26.6,123.3,0,187.6,0,256s26.6,132.7,75,181c48.4,48.4,112.6,75,181,75s132.7-26.6,181-75c48.4-48.4,75-112.6,75-181S485.4,123.3,437,75z"></path>
	<path class="lexicon-icon-outline lx-time-border" d="M437,75C388.7,26.6,324.4,0,256,0S123.3,26.6,75,75C26.6,123.3,0,187.6,0,256s26.6,132.7,75,181c48.4,48.4,112.6,75,181,75s132.7-26.6,181-75c48.4-48.4,75-112.6,75-181S485.4,123.3,437,75z M256,448c-105.9,0-192-86.1-192-192S150.1,64,256,64s192,86.1,192,192S361.9,448,256,448z"></path>
	<path class="lexicon-icon-outline lx-time-hands" d="M180.7,347.3c3.1,3.1,7.2,4.7,11.3,4.7s8.2-1.6,11.3-4.7l48-48c6.3,3,13.3,4.7,20.7,4.7c26.5,0,48-21.5,48-48c0-20.9-13.4-38.7-32-45.3V112c0-8.8-7.2-16-16-16s-16,7.2-16,16v98.7c-18.6,6.6-32,24.4-32,45.3c0,7.4,1.7,14.4,4.7,20.7l-48,48C174.4,330.9,174.4,341.1,180.7,347.3z"></path>
</svg>