<svg xmlns="http://www.w3.org/2000/svg" viewBox="0 0 512 512">
	<path class="lexicon-icon-outline lx-trash-body-border" d="M64.4,440.7c0,39.3,31.9,71.3,71.3,71.3h240.6c39.3,0,71.3-31.9,71.3-71.3v-312H64.4V440.7z M128.2,192.6h255.5v231.7c0,13.1-10.7,23.8-23.8,23.8H152c-13.1,0-23.8-10.7-23.8-23.8V192.6z"></path>
	<polygon class="lexicon-icon-outline lx-trash-lid" points="351.8,32.9 351.8,0 160.2,0 160.2,32.9 64.4,32.9 64.4,96.1 447.6,96.1 447.6,32.9 "></polygon>
	<rect class="lexicon-icon-outline lx-trash-line-2" x="287.9" y="223.6" width="63.9" height="191.6"></rect>
	<rect class="lexicon-icon-outline lx-trash-line-1" x="160.2" y="223.6" width="63.9" height="191.6"></rect>
</svg>
