<!--
* SPDX-FileCopyrightText: © 2020 Liferay, Inc. <https://liferay.com>
* SPDX-FileCopyrightText: © 2020 Contributors to the project Clay <https://github.com/liferay/clay/graphs/contributors>
*
* SPDX-License-Identifier: BSD-3-Clause
-->
<svg xmlns="http://www.w3.org/2000/svg" viewBox="0 0 512 512">
	<path class="lexicon-icon-outline" d="M5.1,273.3c127.1,192,374.7,188.6,501.6-0.1c7-10.4,7-24.5,0.1-34.9C378.6,45.8,132.4,51.3,5.3,238.5C-1.7,248.8-1.8,262.8,5.1,273.3z M63.7,255.8c120.8-137.8,266.3-139.6,384.5,0C330,393.5,183.9,391.7,63.7,255.8z M283.9,164.4c-91.6-26-160.9,74.5-102.8,151.5c57.4,75.2,195.5,24.2,166.5-87.9C301.4,304.3,208.7,209.5,283.9,164.4z"/>
</svg>