<!--
* SPDX-FileCopyrightText: © 2023 Liferay, Inc. <https://liferay.com>
* SPDX-FileCopyrightText: © 2023 Contributors to the project Clay <https://github.com/liferay/clay/graphs/contributors>
*
* SPDX-License-Identifier: BSD-3-Clause
-->
<svg xmlns="http://www.w3.org/2000/svg" viewBox="0 0 512 512">
	<path class="lexicon-icon-outline" fill-rule="evenodd" clip-rule="evenodd" d="M473.6 256c0 120.177-97.423 217.6-217.6 217.6-120.177 0-217.6-97.423-217.6-217.6 0-120.177 97.423-217.6 217.6-217.6 120.177 0 217.6 97.423 217.6 217.6Zm38.4 0c0 141.385-114.615 256-256 256S0 397.385 0 256 114.615 0 256 0s256 114.615 256 256Zm-76.8 0c0 98.969-80.231 179.2-179.2 179.2S76.8 354.969 76.8 256 157.031 76.8 256 76.8 435.2 157.031 435.2 256ZM291.371 148.48c0 19.794-16.046 35.84-35.84 35.84-19.795 0-35.84-16.046-35.84-35.84 0-19.794 16.045-35.84 35.84-35.84 19.794 0 35.84 16.046 35.84 35.84Zm-120.984 43.299c55.881 18.626 114.501 18.594 170.287 0 21.039-7.013 31.249 25.424 10.752 32.256-14.59 4.863-29.364 8.898-44.433 11.704-8.882 1.654-15.67 9.218-16.011 18.247l-.051 1.346c-.706 18.598-1.444 38.031 4.763 55.083l23.491 64.541c7.905 21.717-25.774 33.975-33.679 12.258l-29.975-82.358-29.975 82.358c-7.905 21.717-41.584 9.459-33.679-12.258l23.491-64.541c6.207-17.052 5.469-36.485 4.763-55.083l-.051-1.346c-.341-9.028-7.129-16.592-16.011-18.247-15.069-2.806-29.843-6.841-44.434-11.704-20.497-6.832-10.287-39.269 10.752-32.256Z"/>
</svg>