<!--
* SPDX-FileCopyrightText: © 2023 Liferay, Inc. <https://liferay.com>
* SPDX-FileCopyrightText: © 2023 Contributors to the project Clay <https://github.com/liferay/clay/graphs/contributors>
*
* SPDX-License-Identifier: BSD-3-Clause
-->
<svg viewBox="0 0 16 16" xmlns="http://www.w3.org/2000/svg"><path fill-rule="evenodd" clip-rule="evenodd" d="M14.8 8A6.8 6.8 0 1 1 1.2 8a6.8 6.8 0 0 1 13.6 0ZM16 8A8 8 0 1 1 0 8a8 8 0 0 1 16 0Zm-2.4 0A5.6 5.6 0 1 1 2.4 8a5.6 5.6 0 0 1 11.2 0ZM9.105 4.64a1.12 1.12 0 1 1-2.24 0 1.12 1.12 0 0 1 2.24 0Zm-3.78 1.353a8.334 8.334 0 0 0 5.321 0c.657-.22.977.795.336 1.008-.456.152-.918.278-1.388.366a.61.61 0 0 0-.5.57l-.002.042c-.022.581-.046 1.189.148 1.721l.735 2.017c.247.679-.806 1.062-1.053.383l-.937-2.573L7.05 12.1c-.247.68-1.3.296-1.053-.383L6.73 9.7c.194-.532.171-1.14.15-1.72l-.002-.043a.61.61 0 0 0-.5-.57A10.43 10.43 0 0 1 4.987 7c-.64-.213-.32-1.227.337-1.008Z"/></svg>
