<!--
* SPDX-FileCopyrightText: © 2023 Liferay, Inc. <https://liferay.com>
* SPDX-FileCopyrightText: © 2023 Contributors to the project Clay <https://github.com/liferay/clay/graphs/contributors>
*
* SPDX-License-Identifier: BSD-3-Clause
-->
<svg  viewBox="0 0 16 16" xmlns="http://www.w3.org/2000/svg">
<path class="lexicon-icon-outline" fill-rule="evenodd" clip-rule="evenodd" d="M14.8 8C14.8 11.7555 11.7555 14.8 8 14.8C4.24447 14.8 1.2 11.7555 1.2 8C1.2 4.24447 4.24447 1.2 8 1.2C11.7555 1.2 14.8 4.24447 14.8 8ZM16 8C16 12.4183 12.4183 16 8 16C3.58172 16 0 12.4183 0 8C0 3.58172 3.58172 0 8 0C12.4183 0 16 3.58172 16 8ZM13.6 8C13.6 11.0928 11.0928 13.6 8 13.6C4.90722 13.6 2.4 11.0928 2.4 8C2.4 4.90722 4.90722 2.4 8 2.4C11.0928 2.4 13.6 4.90722 13.6 8ZM9.10534 4.64C9.10534 5.25856 8.60391 5.76 7.98534 5.76C7.36675 5.76 6.86534 5.25856 6.86534 4.64C6.86534 4.02144 7.36675 3.52 7.98534 3.52C8.60391 3.52 9.10534 4.02144 9.10534 4.64ZM5.32459 5.99309C7.07087 6.57516 8.90275 6.57416 10.6461 5.99309C11.3035 5.77394 11.6226 6.78759 10.9821 7.00109C10.5261 7.15306 10.0644 7.27916 9.59353 7.36684C9.31597 7.41853 9.10384 7.65491 9.09319 7.93706L9.09159 7.97913C9.06953 8.56031 9.04647 9.16759 9.24044 9.70047L9.97453 11.7174C10.2216 12.396 9.16909 12.7791 8.92206 12.1004L7.98534 9.52675L7.04862 12.1004C6.80159 12.7791 5.74913 12.396 5.99616 11.7174L6.73025 9.70047C6.92422 9.16759 6.90116 8.56031 6.87909 7.97913L6.8775 7.93706C6.86684 7.65494 6.65472 7.41856 6.37716 7.36684C5.90625 7.27916 5.44456 7.15306 4.98859 7.00109C4.34806 6.78759 4.66712 5.77394 5.32459 5.99309Z" />
<rect class="lexicon-icon-outline" />
</svg>
