<!--
* SPDX-FileCopyrightText: © 2020 Liferay, Inc. <https://liferay.com>
* SPDX-FileCopyrightText: © 2020 Contributors to the project Clay <https://github.com/liferay/clay/graphs/contributors>
*
* SPDX-License-Identifier: BSD-3-Clause
-->
<svg viewBox="0 0 16 16" xmlns="http://www.w3.org/2000/svg"><path fill-rule="evenodd" clip-rule="evenodd" d="M0 1.778v12.444A1.78 1.78 0 0 0 1.778 16h12.444A1.78 1.78 0 0 0 16 14.222V1.778A1.78 1.78 0 0 0 14.222 0H1.778A1.78 1.78 0 0 0 0 1.778ZM14 11v3h-3v-3h3Zm-9 3v-3H2v3h3Zm9-8v4h-3V6h3Zm-9 4V6H2v4h3Zm9-8v3h-3V2h3ZM5 5V2H2v3h3Z"/></svg>
