<!--
* SPDX-FileCopyrightText: © 2020 Liferay, Inc. <https://liferay.com>
* SPDX-FileCopyrightText: © 2020 Contributors to the project Clay <https://github.com/liferay/clay/graphs/contributors>
*
* SPDX-License-Identifier: BSD-3-Clause
-->
<svg  viewBox="0 0 16 16" xmlns="http://www.w3.org/2000/svg">
<path class="lexicon-icon-outline" fill-rule="evenodd" clip-rule="evenodd" d="M0 1.77812V14.2219C0 15.2031 0.796875 16 1.77832 16H14.2217C15.2031 16 16 15.2031 16 14.2219V1.77812C16 0.796875 15.2031 0 14.2217 0H1.77832C0.796875 0 0 0.796875 0 1.77812ZM14 11V14H11V11H14ZM5 14V11H2V14H5ZM14 6V10H11V6H14ZM5 10V6H2V10H5ZM14 2V5H11V2H14ZM5 5V2H2V5H5Z" />
</svg>
