<!--
* SPDX-FileCopyrightText: © 2020 Liferay, Inc. <https://liferay.com>
* SPDX-FileCopyrightText: © 2020 Contributors to the project Clay <https://github.com/liferay/clay/graphs/contributors>
*
* SPDX-License-Identifier: BSD-3-Clause
-->
<svg  viewBox="0 0 16 16" xmlns="http://www.w3.org/2000/svg">
<path class="lexicon-icon-outline" fill-rule="evenodd" clip-rule="evenodd" d="M14.2217 0H1.77832C0.796875 0 0 0.796875 0 1.77812V14.2219C0 15.2031 0.796875 16 1.77832 16H14.2217C15.2031 16 16 15.2031 16 14.2219V1.77812C16 0.796875 15.2031 0 14.2217 0ZM5 14H2V11H5V14ZM2 5H5V2H2V5ZM10 14H6V11H10V14ZM6 5H10V2H6V5ZM14 14H11V11H14V14ZM11 5H14V2H11V5Z" />
</svg>
