<!--
* SPDX-FileCopyrightText: © 2020 Liferay, Inc. <https://liferay.com>
* SPDX-FileCopyrightText: © 2020 Contributors to the project Clay <https://github.com/liferay/clay/graphs/contributors>
*
* SPDX-License-Identifier: BSD-3-Clause
-->
<svg viewBox="0 0 16 16" xmlns="http://www.w3.org/2000/svg"><path fill-rule="evenodd" clip-rule="evenodd" d="M14.222 0H1.778A1.78 1.78 0 0 0 0 1.778v12.444A1.78 1.78 0 0 0 1.778 16h12.444A1.78 1.78 0 0 0 16 14.222V1.778A1.78 1.78 0 0 0 14.222 0ZM5 14H2v-3h3v3ZM2 5h3V2H2v3Zm8 9H6v-3h4v3ZM6 5h4V2H6v3Zm8 9h-3v-3h3v3Zm-3-9h3V2h-3v3Z"/></svg>
