<!--
* SPDX-FileCopyrightText: © 2020 Liferay, Inc. <https://liferay.com>
* SPDX-FileCopyrightText: © 2020 Contributors to the project Clay <https://github.com/liferay/clay/graphs/contributors>
*
* SPDX-License-Identifier: BSD-3-Clause
-->
<svg  viewBox="0 0 16 16" xmlns="http://www.w3.org/2000/svg">
<path class="lexicon-icon-outline" fill-rule="evenodd" clip-rule="evenodd" d="M14.2219 0H1.77813C0.796875 0 0 0.796875 0 1.77813V14.2219C0 15.2031 0.796875 16 1.77813 16H14.2219C15.2031 16 16 15.2031 16 14.2219V1.77813C16 0.796875 15.2031 0 14.2219 0ZM5 14H2V11H5V14ZM5 10H2V6H5V10ZM5 5H2V2H5V5ZM10 14H6V11H10V14ZM10 5H6V2H10V5ZM14 14H11V11H14V14ZM14 10H11V6H14V10ZM14 5H11V2H14V5Z" />
</svg>
