<!--
* SPDX-FileCopyrightText: © 2020 Liferay, Inc. <https://liferay.com>
* SPDX-FileCopyrightText: © 2020 Contributors to the project Clay <https://github.com/liferay/clay/graphs/contributors>
*
* SPDX-License-Identifier: BSD-3-Clause
-->
<svg viewBox="0 0 16 16" xmlns="http://www.w3.org/2000/svg"><path fill-rule="evenodd" clip-rule="evenodd" d="M14.222 0H1.778A1.78 1.78 0 0 0 0 1.778v12.444A1.78 1.78 0 0 0 1.778 16h12.444A1.78 1.78 0 0 0 16 14.222V1.778A1.78 1.78 0 0 0 14.222 0ZM5 14H2v-3h3v3Zm0-4H2V6h3v4Zm0-5H2V2h3v3Zm5 9H6v-3h4v3Zm0-9H6V2h4v3Zm4 9h-3v-3h3v3Zm0-4h-3V6h3v4Zm0-5h-3V2h3v3Z"/></svg>
