<!--
* SPDX-FileCopyrightText: © 2022 Liferay, Inc. <https://liferay.com>
* SPDX-FileCopyrightText: © 2022 Contributors to the project Clay <https://github.com/liferay/clay/graphs/contributors>
*
* SPDX-License-Identifier: BSD-3-Clause
-->
<svg viewBox="0 0 16 16" xmlns="http://www.w3.org/2000/svg"><path class="lexicon-icon-outline" d="M1.004 7h4.997c1.4-.106 1.263-1.947 0-2h-5c-1.418.103-1.247 1.934.003 2Zm0 4h4.997c1.4-.106 1.263-1.947 0-2h-5c-1.418.103-1.247 1.934.003 2Zm8.997-6h5a1 1 0 0 1 1 1v4a1 1 0 0 1-1 1h-5a1 1 0 0 1-1-1V6a1 1 0 0 1 1-1ZM1.004 3h13.997c1.366-.063 1.297-1.944 0-2h-14c-1.39.066-1.275 1.96.003 2Zm0 12h13.997c1.366-.063 1.297-1.944 0-2h-14c-1.39.066-1.275 1.96.003 2Z"/></svg>