<!--
* SPDX-FileCopyrightText: © 2020 Liferay, Inc. <https://liferay.com>
* SPDX-FileCopyrightText: © 2020 Contributors to the project Clay <https://github.com/liferay/clay/graphs/contributors>
*
* SPDX-License-Identifier: BSD-3-Clause
-->
<svg  viewBox="0 0 16 16" xmlns="http://www.w3.org/2000/svg">
<path class="lexicon-icon-outline" d="M1.00293 7H5.9998C7.3998 6.89375 7.2623 5.05312 5.9998 5H0.999804C-0.418946 5.10313 -0.247071 6.93437 1.00293 7ZM1.00293 11H5.9998C7.3998 10.8938 7.2623 9.05313 5.9998 9H0.999804C-0.418946 9.10312 -0.247071 10.9344 1.00293 11ZM9.9998 5H14.9998C15.5529 5 15.9998 5.44688 15.9998 6V10C15.9998 10.5531 15.5529 11 14.9998 11H9.9998C9.44668 11 8.9998 10.5531 8.9998 10V6C8.9998 5.44688 9.44668 5 9.9998 5ZM1.00293 3H14.9998C16.3654 2.9375 16.2967 1.05625 14.9998 1H0.999804C-0.390821 1.06562 -0.275196 2.95938 1.00293 3ZM1.00293 15H14.9998C16.3654 14.9375 16.2967 13.0562 14.9998 13H0.999804C-0.390821 13.0656 -0.275196 14.9594 1.00293 15Z" />
</svg>
