<!--
* SPDX-FileCopyrightText: © 2020 Liferay, Inc. <https://liferay.com>
* SPDX-FileCopyrightText: © 2020 Contributors to the project Clay <https://github.com/liferay/clay/graphs/contributors>
*
* SPDX-License-Identifier: BSD-3-Clause
-->
<svg viewBox="0 0 16 16" xmlns="http://www.w3.org/2000/svg"><path d="M2.875 3h10.249a1 1 0 0 0 .001-2H2.875a1 1 0 1 0 0 2ZM1 7h14a1 1 0 1 0 0-2H1a1 1 0 0 0 0 2Zm12.124 4H2.875a1 1 0 0 1 0-2h10.25a1 1 0 1 1-.001 2ZM1 15h14a1 1 0 0 0 0-2H1a1 1 0 0 0 0 2Z"/></svg>
