<!--
* SPDX-FileCopyrightText: © 2022 Liferay, Inc. <https://liferay.com>
* SPDX-FileCopyrightText: © 2022 Contributors to the project Clay <https://github.com/liferay/clay/graphs/contributors>
*
* SPDX-License-Identifier: BSD-3-Clause
-->
<svg viewBox="0 0 16 16" xmlns="http://www.w3.org/2000/svg"><path class="lexicon-icon-outline" d="M14.995 3H1C-.366 2.937-.297 1.056 1 1h14c1.39.066 1.275 1.96-.004 2Zm0 12H1c-1.366-.063-1.297-1.944 0-2h14c1.39.066 1.275 1.96-.004 2ZM11 5H5c-.554 0-1 .447-1 1v4c0 .553.446 1 1 1h6a1 1 0 0 0 1-1V6a1 1 0 0 0-1-1Z"/></svg>