<!--
* SPDX-FileCopyrightText: © 2020 Liferay, Inc. <https://liferay.com>
* SPDX-FileCopyrightText: © 2020 Contributors to the project Clay <https://github.com/liferay/clay/graphs/contributors>
*
* SPDX-License-Identifier: BSD-3-Clause
-->
<svg  viewBox="0 0 16 16" xmlns="http://www.w3.org/2000/svg">
<path class="lexicon-icon-outline" d="M14.9969 7H10C8.6 6.89375 8.7375 5.05312 10 5H15C16.4188 5.10313 16.2469 6.93437 14.9969 7ZM14.9969 11H10C8.6 10.8938 8.7375 9.05313 10 9H15C16.4188 9.10312 16.2469 10.9344 14.9969 11ZM6 5H1C0.446875 5 0 5.44688 0 6V10C0 10.5531 0.446875 11 1 11H6C6.55312 11 7 10.5531 7 10V6C7 5.44688 6.55312 5 6 5ZM14.9969 3H1C-0.365625 2.9375 -0.296875 1.05625 1 1H15C16.3906 1.06562 16.275 2.95938 14.9969 3ZM14.9969 15H1C-0.365625 14.9375 -0.296875 13.0562 1 13H15C16.3906 13.0656 16.275 14.9594 14.9969 15Z" />
</svg>
