<!--
* SPDX-FileCopyrightText: © 2020 Liferay, Inc. <https://liferay.com>
* SPDX-FileCopyrightText: © 2020 Contributors to the project Clay <https://github.com/liferay/clay/graphs/contributors>
*
* SPDX-License-Identifier: BSD-3-Clause
-->
<svg viewBox="0 0 16 16" xmlns="http://www.w3.org/2000/svg"><path d="M15.003 1H1.01c-1.343 0-1.35 2 0 2h13.994c1.328 0 1.328-2 0-2Zm0 12H1.01c-1.343 0-1.35 2 0 2h13.994c1.328 0 1.328-2 0-2ZM15 5H1a1 1 0 0 0-1 1v4a1 1 0 0 0 1 1h14a1 1 0 0 0 1-1V6a1 1 0 0 0-1-1Z"/></svg>
