<!--
* SPDX-FileCopyrightText: © 2020 Liferay, Inc. <https://liferay.com>
* SPDX-FileCopyrightText: © 2020 Contributors to the project Clay <https://github.com/liferay/clay/graphs/contributors>
*
* SPDX-License-Identifier: BSD-3-Clause
-->
<svg viewBox="0 0 16 16" xmlns="http://www.w3.org/2000/svg"><path d="M14.997 3H1C-.366 2.937-.297 1.056 1 1h14c1.39.066 1.275 1.96-.003 2Zm0 12H1c-1.366-.063-1.297-1.944 0-2h14c1.39.066 1.275 1.96-.003 2ZM11 5H5a1 1 0 0 0-1 1v4a1 1 0 0 0 1 1h6a1 1 0 0 0 1-1V6a1 1 0 0 0-1-1Z"/></svg>
