<!--
* SPDX-FileCopyrightText: © 2020 Liferay, Inc. <https://liferay.com>
* SPDX-FileCopyrightText: © 2020 Contributors to the project Clay <https://github.com/liferay/clay/graphs/contributors>
*
* SPDX-License-Identifier: BSD-3-Clause
-->
<svg  viewBox="0 0 16 16" xmlns="http://www.w3.org/2000/svg">
<path class="lexicon-icon-outline" d="M14.9968 3H0.999947C-0.365678 2.9375 -0.296928 1.05625 0.999947 1H14.9999C16.3906 1.06562 16.2749 2.95938 14.9968 3ZM14.9968 15H0.999947C-0.365678 14.9375 -0.296928 13.0562 0.999947 13H14.9999C16.3906 13.0656 16.2749 14.9594 14.9968 15ZM10.9999 5H4.99995C4.44682 5 3.99995 5.44688 3.99995 6V10C3.99995 10.5531 4.44682 11 4.99995 11H10.9999C11.5531 11 11.9999 10.5531 11.9999 10V6C11.9999 5.44688 11.5531 5 10.9999 5Z" />
</svg>
