<!--
* SPDX-FileCopyrightText: © 2020 Liferay, Inc. <https://liferay.com>
* SPDX-FileCopyrightText: © 2020 Contributors to the project Clay <https://github.com/liferay/clay/graphs/contributors>
*
* SPDX-License-Identifier: BSD-3-Clause
-->
<svg  viewBox="0 0 16 16" xmlns="http://www.w3.org/2000/svg">
<path class="lexicon-icon-outline" d="M11 3H1C0.448242 3 0 2.552 0 2C0 1.448 0.448242 1 1 1H11C11.5518 1 12 1.448 12 2C12 2.552 11.5518 3 11 3Z" />
<path class="lexicon-icon-outline" d="M15 7H1C0.448242 7 0 6.55316 0 6C0 5.448 0.448242 5 1 5H15C15.5518 5 16 5.448 16 6C16 6.552 15.5518 7 15 7Z" />
<path class="lexicon-icon-outline" d="M1 11H11C11.5518 11 12 10.552 12 10C12 9.448 11.5518 9 11 9H1C0.448242 9 0 9.44684 0 10C0 10.552 0.448242 11 1 11Z" />
<path class="lexicon-icon-outline" d="M1 13H15C15.5518 13 16 13.448 16 14C16 14.552 15.5518 15 15 15H1C0.448242 15 0 14.552 0 14C0 13.448 0.448242 13 1 13Z" />
</svg>
