<!--
* SPDX-FileCopyrightText: © 2020 Liferay, Inc. <https://liferay.com>
* SPDX-FileCopyrightText: © 2020 Contributors to the project Clay <https://github.com/liferay/clay/graphs/contributors>
*
* SPDX-License-Identifier: BSD-3-Clause
-->
<svg  viewBox="0 0 16 16" xmlns="http://www.w3.org/2000/svg">
<path class="lexicon-icon-outline" d="M15.0032 1H1.00943C-0.334325 1 -0.340575 3 1.00943 3H15.0032C16.3313 3 16.3313 1 15.0032 1ZM15.0032 13H1.00943C-0.334325 13 -0.340575 15 1.00943 15H15.0032C16.3313 15 16.3313 13 15.0032 13ZM15.0001 5H1.00005C0.446925 5 5.02204e-05 5.44688 5.02204e-05 6V10C5.02204e-05 10.5531 0.446925 11 1.00005 11H15.0001C15.5532 11 16 10.5531 16 10V6C16 5.44688 15.5532 5 15.0001 5Z" />
<rect class="lexicon-icon-outline" />
</svg>
