<!--
* SPDX-FileCopyrightText: © 2020 Liferay, Inc. <https://liferay.com>
* SPDX-FileCopyrightText: © 2020 Contributors to the project Clay <https://github.com/liferay/clay/graphs/contributors>
*
* SPDX-License-Identifier: BSD-3-Clause
-->
<svg  viewBox="0 0 16 16" xmlns="http://www.w3.org/2000/svg">
<path class="lexicon-icon-outline" d="M15 1C15.5518 1 16 1.448 16 2C16 2.552 15.5518 3 15 3H5C4.44824 3 4 2.552 4 2C4 1.448 4.44824 1 5 1H15Z" />
<path class="lexicon-icon-outline" d="M15 5C15.5518 5 16 5.448 16 6C16 6.55316 15.5518 7 15 7H1C0.448242 7 0 6.552 0 6C0 5.448 0.448242 5 1 5H15Z" />
<path class="lexicon-icon-outline" d="M16 10C16 9.44684 15.5518 9 15 9H5C4.44824 9 4 9.448 4 10C4 10.552 4.44824 11 5 11H15C15.5518 11 16 10.552 16 10Z" />
<path class="lexicon-icon-outline" d="M1 15C0.448242 15 0 14.552 0 14C0 13.448 0.448242 13 1 13H15C15.5518 13 16 13.448 16 14C16 14.552 15.5518 15 15 15H1Z" />
</svg>
