<!--
* SPDX-FileCopyrightText: © 2020 Liferay, Inc. <https://liferay.com>
* SPDX-FileCopyrightText: © 2020 Contributors to the project Clay <https://github.com/liferay/clay/graphs/contributors>
*
* SPDX-License-Identifier: BSD-3-Clause
-->
<svg  viewBox="0 0 16 16" xmlns="http://www.w3.org/2000/svg">
<path class="lexicon-icon-outline" d="M2.875 3H13.124C13.6777 3 14.124 2.552 14.125 2C14.125 1.448 13.6777 1 13.125 1H2.875C2.32227 1 1.875 1.448 1.875 2C1.875 2.552 2.32324 3 2.875 3Z" />
<path class="lexicon-icon-outline" d="M1 7H15C15.5518 7 16 6.55316 16 6C16 5.448 15.5518 5 15 5H1C0.448242 5 0 5.448 0 6C0 6.55316 0.448242 7 1 7Z" />
<path class="lexicon-icon-outline" d="M13.124 11H2.875C2.32324 11 1.875 10.552 1.875 10C1.875 9.448 2.32324 9 2.875 9H13.125C13.6777 9 14.125 9.448 14.125 10C14.124 10.552 13.6777 11 13.124 11Z" />
<path class="lexicon-icon-outline" d="M1 15H15C15.5518 15 16 14.552 16 14C16 13.448 15.5518 13 15 13H1C0.448242 13 0 13.448 0 14C0 14.552 0.448242 15 1 15Z" />
</svg>
