<!--
* SPDX-FileCopyrightText: © 2020 Liferay, Inc. <https://liferay.com>
* SPDX-FileCopyrightText: © 2020 Contributors to the project Clay <https://github.com/liferay/clay/graphs/contributors>
*
* SPDX-License-Identifier: BSD-3-Clause
-->
<svg viewBox="0 0 16 16" xmlns="http://www.w3.org/2000/svg"><path fill-rule="evenodd" clip-rule="evenodd" d="M12.969 4.181v-.737l-3.27 3.26c-.187.184-.44.29-.705.29H8.99l-3.482-.006-2.703 3.596C2 11.6.45 10.492 1.206 9.385l2.997-3.993c.19-.253.484-.4.8-.4h.003l3.569.006 2.978-2.966h-.738c-1.35-.09-1.337-1.953 0-2.025h3.166c.6 0 1.013.453 1.013 1.013v3.16c-.007 1.291-1.928 1.382-2.025 0ZM15 6.994h-2a1 1 0 0 0-1 1v7a1 1 0 0 0 1 1h2a1 1 0 0 0 1-1v-7a1 1 0 0 0-1-1Zm-8 3h2a1 1 0 0 1 1 1v4a1 1 0 0 1-1 1H7a1 1 0 0 1-1-1v-4a1 1 0 0 1 1-1Zm-6 3h2a1 1 0 0 1 1 1v1a1 1 0 0 1-1 1H1a1 1 0 0 1-1-1v-1a1 1 0 0 1 1-1Z"/></svg>
