<!--
* SPDX-FileCopyrightText: © 2022 Liferay, Inc. <https://liferay.com>
* SPDX-FileCopyrightText: © 2022 Contributors to the project Clay <https://github.com/liferay/clay/graphs/contributors>
*
* SPDX-License-Identifier: BSD-3-Clause
-->
<svg viewBox="0 0 16 16" xmlns="http://www.w3.org/2000/svg"><path class="lexicon-icon-outline" d="M12.97 4.178V3.44L9.701 6.702c-.187.185-.44.291-.706.291h-.003l-3.481-.006-2.703 3.6C2 11.602.45 10.492 1.208 9.385l2.997-3.997c.19-.254.484-.4.8-.4h.003l3.568.006 2.979-2.968h-.738c-1.35-.09-1.337-1.954 0-2.026h3.166c.6 0 1.012.453 1.012 1.013v3.165c-.006 1.292-1.928 1.383-2.025 0Zm2.032 2.815h-2a1 1 0 0 0-1 1V15a1 1 0 0 0 1 1.001h2a1 1 0 0 0 1-1V7.993a1 1 0 0 0-1-1.001ZM7.001 9.995h2a1 1 0 0 1 1 1.001v4.003a1 1 0 0 1-1 1.001h-2a1 1 0 0 1-1-1v-4.004a1 1 0 0 1 1-1Zm-6 3.003h2a1 1 0 0 1 1 1V15a1 1 0 0 1-1 1.001h-2a1 1 0 0 1-1-1v-1.002a1 1 0 0 1 1-1Z"/></svg>