<!--
* SPDX-FileCopyrightText: © 2020 Liferay, Inc. <https://liferay.com>
* SPDX-FileCopyrightText: © 2020 Contributors to the project Clay <https://github.com/liferay/clay/graphs/contributors>
*
* SPDX-License-Identifier: BSD-3-Clause
-->
<svg  viewBox="0 0 16 16" xmlns="http://www.w3.org/2000/svg">
<path class="lexicon-icon-outline" fill-rule="evenodd" clip-rule="evenodd" d="M12.9687 4.18135V3.44385L9.69991 6.70322C9.51241 6.8876 9.25929 6.99385 8.99367 6.99385H8.99054L5.50929 6.9876L2.80617 10.5845C1.99992 11.6001 0.449915 10.4907 1.20617 9.38447L4.20304 5.39072C4.39367 5.1376 4.68742 4.99072 5.00304 4.99072H5.00617L8.57491 4.99697L11.553 2.03135H10.8155C9.46554 1.94072 9.47804 0.0782227 10.8155 0.00634766H13.9812C14.5812 0.00634766 14.9937 0.459473 14.9937 1.01885V4.18135C14.9874 5.47197 13.0655 5.5626 12.9687 4.18135ZM15 6.99365H13C12.4469 6.99365 12 7.44053 12 7.99365V14.9937C12 15.5468 12.4469 15.9937 13 15.9937H15C15.5531 15.9937 16 15.5468 16 14.9937V7.99365C16 7.44053 15.5531 6.99365 15 6.99365ZM7 9.99365H9C9.55313 9.99365 10 10.4405 10 10.9937V14.9937C10 15.5468 9.55313 15.9937 9 15.9937H7C6.44688 15.9937 6 15.5468 6 14.9937V10.9937C6 10.4405 6.44688 9.99365 7 9.99365ZM1 12.9937H3C3.55312 12.9937 4 13.4405 4 13.9937V14.9937C4 15.5468 3.55312 15.9937 3 15.9937H1C0.446875 15.9937 0 15.5468 0 14.9937V13.9937C0 13.4405 0.446875 12.9937 1 12.9937Z" />
</svg>
