<!--
* SPDX-FileCopyrightText: © 2022 Liferay, Inc. <https://liferay.com>
* SPDX-FileCopyrightText: © 2022 Contributors to the project Clay <https://github.com/liferay/clay/graphs/contributors>
*
* SPDX-License-Identifier: BSD-3-Clause
-->
<svg viewBox="0 0 16 16" xmlns="http://www.w3.org/2000/svg"><path class="lexicon-icon-outline" d="M8.001 0a8 8 0 0 0-8 8 8 8 0 0 0 8 8 8 8 0 0 0 8-8 8 8 0 0 0-8-8ZM2.998 7.506c.007-.897.325-1.069.757-1.168l2.24-.213v2.76s-1.687-.094-2.247-.17c-.362-.053-.756-.274-.75-1.209Zm3.003 4.997c-.021.653-.968.675-1 0V9.816l1 .075v2.612Zm6.004-1.987a.498.498 0 0 1-.857.347c-.668-.67-2.69-1.913-4.15-1.913v-2.9c1.441 0 3.475-1.222 4.144-1.89a.497.497 0 0 1 .856.346l.007 6.01Z"/></svg>