<!--
* SPDX-FileCopyrightText: © 2026 Liferay, Inc. <https://liferay.com>
* SPDX-FileCopyrightText: © 2026 Contributors to the project Clay <https://github.com/liferay/clay/graphs/contributors>
*
* SPDX-License-Identifier: BSD-3-Clause
-->
<svg viewBox="0 0 16 16" xmlns="http://www.w3.org/2000/svg">
	<path class="lexicon-icon-outline" clip-rule="evenodd" d="M12.5 9a3.5 3.5 0 1 1-3.435 4.176 1.396 1.396 0 0 0-2.131 0 3.5 3.5 0 1 1-.134-1.843 2.997 2.997 0 0 1 2.4 0A3.502 3.502 0 0 1 12.5 9Zm-9 2a1.5 1.5 0 1 0 0 3 1.5 1.5 0 0 0 0-3Zm9 0a1.5 1.5 0 1 0 0 3 1.5 1.5 0 0 0 0-3Z" fill-rule="evenodd" />
	<path class="lexicon-icon-outline" d="M11 0a2 2 0 0 1 2 2v4h2a1 1 0 1 1 0 2H1a1 1 0 0 1 0-2h2V2a2 2 0 0 1 2-2c.255 0 .49.127.683.295C6.233.775 7.065 1 8 1c.935 0 1.768-.226 2.317-.705C10.51.127 10.745 0 11 0Z" />
</svg>