<!--
* SPDX-FileCopyrightText: © 2020 Liferay, Inc. <https://liferay.com>
* SPDX-FileCopyrightText: © 2020 Contributors to the project Clay <https://github.com/liferay/clay/graphs/contributors>
*
* SPDX-License-Identifier: BSD-3-Clause
-->
<svg  viewBox="0 0 16 16" xmlns="http://www.w3.org/2000/svg">
<path class="lexicon-icon-outline" fill-rule="evenodd" clip-rule="evenodd" d="M7.99805 7.14236C7.00195 7.14236 5.87695 7.29545 4.99902 7.55165L4.99609 8.01406L3.9834 8.00468C3.9834 8.00468 2.87402 8.30775 1.99902 9.01386C1.29199 9.00509 1.06348 9.00617 1 9.0088V7.51103C1 3.35872 4.39551 0 8.49805 0C12.6006 0 15.9971 3.33685 16 7.51416C16 9.81995 15.0029 11.0072 15.0029 11.0072V10.0168C14.3691 9.26069 13.0039 8.50771 13.0039 8.50771L12.9941 9.01699L11.9971 9.00137V8.02031C11.9971 8.02031 10.5537 7.2892 8.99805 7.20172V8.01093H7.99805V7.14236ZM12.585 3.99297C13.2812 4.31478 13.916 4.70846 14.4756 5.16149C13.9531 3.83363 13.0039 2.72446 11.7979 1.99648C12.1191 2.61511 12.3877 3.28061 12.585 3.99297ZM5.87988 3.20563C6.55762 3.07752 7.27051 3.00254 8.00098 3.00254V1.09666C7.66113 1.12166 7.33008 1.17477 7.00781 1.25288C6.55469 1.81527 6.17969 2.48077 5.87988 3.20563ZM9.99121 1.256C9.66992 1.18102 9.33887 1.12478 8.99805 1.09978V3.05878C9.7793 3.12752 10.5225 3.27436 11.2285 3.48682C10.9131 2.64948 10.498 1.89026 9.99121 1.256ZM4.5459 3.55243C4.72363 3.00254 4.94238 2.48389 5.19922 1.99648C4.29297 2.54013 3.53613 3.29935 2.99316 4.20855C3.48047 3.95235 3.99902 3.73052 4.5459 3.55243ZM4.20215 4.88654C3.47754 5.18649 2.81445 5.56454 2.25293 6.01445C1.99121 6.81449 2.06152 7.51365 2.08008 7.70403L2.08398 7.74849C2.66797 7.35169 3.31152 7.008 4.01172 6.73618C4.02441 6.10194 4.08984 5.48331 4.20215 4.88654ZM5.46094 4.46788C5.30469 5.07088 5.20801 5.70826 5.16797 6.36751C6.05762 6.13943 7.00781 6.0082 7.99805 6.0082V4.13982C7.10742 4.13982 6.26074 4.26167 5.46094 4.46788ZM11.6318 4.81156C10.8262 4.49599 9.93848 4.28354 8.99805 4.19293V6.06132C10.0107 6.1488 10.9668 6.37063 11.8477 6.69869C11.8291 6.04882 11.7627 5.41145 11.6318 4.81156ZM12.9844 7.20484C13.6787 7.56728 14.3037 8.00156 14.8408 8.49522C14.9629 7.97657 14.916 7.32044 14.9092 7.22672C14.4004 6.52685 13.7031 5.91447 12.875 5.42081C12.9502 5.93634 13.0312 6.53934 12.9844 7.20484Z" />
<path class="lexicon-icon-outline" d="M1 9.01386C1 9.01386 0.950195 9.01086 1 9.0088V9.01386Z" />
<path class="lexicon-icon-outline" fill-rule="evenodd" clip-rule="evenodd" d="M1.70898 14.6003H3.50195L3.86133 15.9969H5.26465L3.43066 10.0137H1.83691L0 15.9969H1.34961L1.70898 14.6003ZM2.61816 11.1291L3.23047 13.563H1.97754C1.97754 13.563 2.50879 11.4415 2.58105 11.1291H2.61816Z" />
<path class="lexicon-icon-outline" fill-rule="evenodd" clip-rule="evenodd" d="M8.0459 10.0137H5.99902V15.9969H7.22656V14.0066H8.0459C8.35449 14.0066 10.3389 14.0191 10.3389 12.0133C10.3389 10.0137 8.36426 10.0137 8.0459 10.0137ZM9.04492 12.0164C9.04492 12.4757 8.68262 12.81 7.96387 12.81H7.26758V11.1634H7.96387C8.32031 11.1634 9.04492 11.2259 9.04492 12.0164Z" />
<path class="lexicon-icon-outline" d="M11.5381 10.0137H12.9971V15.9969H11.5381V10.0137Z" />
</svg>
