<!--
* SPDX-FileCopyrightText: © 2022 Liferay, Inc. <https://liferay.com>
* SPDX-FileCopyrightText: © 2022 Contributors to the project Clay <https://github.com/liferay/clay/graphs/contributors>
*
* SPDX-License-Identifier: BSD-3-Clause
-->
<svg viewBox="0 0 16 16" xmlns="http://www.w3.org/2000/svg"><path class="lexicon-icon-outline" d="M9.001 6.01h5.4c.882 0 1.6.718 1.6 1.603v3.8c0 .643 0 1.603-1 1.603h-1V8.009h-8v-.4c0-.884.519-1.603 1.4-1.603h.6V3.003a3.001 3.001 0 0 1 3-3.003c1.657 0 3 1.344 3 3.003v.984h-1v-.984a2.004 2.004 0 0 0-2-2.003c-1.103 0-2 .9-2 2.003V6.01Z"/><path class="lexicon-icon-outline" fill-rule="evenodd" clip-rule="evenodd" d="M1.71 14.603h1.794L3.864 16h1.403l-1.834-5.984H1.84L.001 16h1.35l.36-1.397Zm.91-3.472.613 2.435H1.98s.531-2.122.603-2.435h.038Zm3.381-1.115h2.047c.319 0 2.294 0 2.294 2 0 2.006-1.984 1.993-2.294 1.993H7.23V16H6.001v-5.984Zm3.047 2.003c0 .46-.362.793-1.08.793H7.27v-1.646h.697c.356 0 1.081.062 1.081.853Z"/><path class="lexicon-icon-outline" d="M11.543 10.016h1.459V16h-1.46v-5.984Z"/></svg>