<!--
* SPDX-FileCopyrightText: © 2020 Liferay, Inc. <https://liferay.com>
* SPDX-FileCopyrightText: © 2020 Contributors to the project Clay <https://github.com/liferay/clay/graphs/contributors>
*
* SPDX-License-Identifier: BSD-3-Clause
-->
<svg viewBox="0 0 16 16" xmlns="http://www.w3.org/2000/svg"><path d="M9 6.01h5.4c.881 0 1.6.718 1.6 1.603v3.8c0 .643 0 1.603-1 1.603h-1V8.009H6v-.4c0-.884.519-1.603 1.4-1.603H8V3.003A3.001 3.001 0 0 1 11 0c1.656 0 3 1.344 3 3.003v.984h-1v-.984A2.004 2.004 0 0 0 11 1c-1.104 0-2 .9-2 2.003V6.01Z"/><path fill-rule="evenodd" clip-rule="evenodd" d="M1.709 14.603h1.794L3.863 16h1.403l-1.834-5.984H1.838L0 16h1.35l.359-1.397Zm.91-3.472.612 2.435H1.98s.53-2.122.603-2.435h.037ZM6 10.016h2.047c.318 0 2.294 0 2.294 2 0 2.006-1.985 1.993-2.294 1.993h-.818V16H6v-5.984Zm3.047 2.003c0 .46-.362.793-1.081.793h-.697v-1.646h.697c.355 0 1.08.062 1.08.853Z"/><path d="M11.541 10.016H13V16h-1.459v-5.984Z"/></svg>
