<!--
* SPDX-FileCopyrightText: © 2020 Liferay, Inc. <https://liferay.com>
* SPDX-FileCopyrightText: © 2020 Contributors to the project Clay <https://github.com/liferay/clay/graphs/contributors>
*
* SPDX-License-Identifier: BSD-3-Clause
-->
<svg  viewBox="0 0 16 16" xmlns="http://www.w3.org/2000/svg">
<path class="lexicon-icon-outline" d="M9 6.00938H14.4004C15.2812 6.00938 16 6.72813 16 7.6125V11.4125C16 12.0563 16 13.0156 15 13.0156H14V8.00937H6V7.60938C6 6.725 6.51855 6.00625 7.40039 6.00625H8V3.00312C8 1.34375 9.34375 0 11 0C12.6562 0 14 1.34375 14 3.00312V3.9875H13V3.00312C13 1.9 12.1035 1 11 1C9.89648 1 9 1.9 9 3.00312V6.00938Z" />
<path class="lexicon-icon-outline" fill-rule="evenodd" clip-rule="evenodd" d="M1.70898 14.6031H3.50293L3.8623 16H5.26562L3.43164 10.0156H1.83789L0 16H1.34961L1.70898 14.6031ZM2.61914 11.1313L3.23145 13.5656H1.97852C1.97852 13.5656 2.50977 11.4438 2.58203 11.1313H2.61914Z" />
<path class="lexicon-icon-outline" fill-rule="evenodd" clip-rule="evenodd" d="M6 10.0156H8.04688C8.36523 10.0156 10.3408 10.0156 10.3408 12.0156C10.3408 14.0219 8.35645 14.0094 8.04688 14.0094H7.22852V16H6V10.0156ZM9.04688 12.0187C9.04688 12.4781 8.68457 12.8125 7.96582 12.8125H7.26855V11.1656H7.96582C8.32129 11.1656 9.04688 11.2281 9.04688 12.0187Z" />
<path class="lexicon-icon-outline" d="M11.541 10.0156H13V16H11.541V10.0156Z" />
</svg>
