<!--
* SPDX-FileCopyrightText: © 2022 Liferay, Inc. <https://liferay.com>
* SPDX-FileCopyrightText: © 2022 Contributors to the project Clay <https://github.com/liferay/clay/graphs/contributors>
*
* SPDX-License-Identifier: BSD-3-Clause
-->
<svg viewBox="0 0 16 16" xmlns="http://www.w3.org/2000/svg"><path class="lexicon-icon-outline" fill-rule="evenodd" clip-rule="evenodd" d="M8 7.142c-.997 0-2.122.153-3 .41l-.002.462-1.013-.01S2.875 8.309 2 9.015a31.331 31.331 0 0 0-.999-.005v-1.5C1.001 3.359 4.397 0 8.5 0c4.102 0 7.498 3.337 7.502 7.514 0 2.306-.998 3.493-.998 3.493v-.99c-.633-.756-1.999-1.51-1.999-1.51l-.01.51L12 9.001v-.98s-1.444-.732-3-.82v.81H8v-.869Zm4.586-3.149a9.007 9.007 0 0 1 1.891 1.168A6.471 6.471 0 0 0 11.8 1.996c.322.62.59 1.285.787 1.997Zm-6.705-.787a11.44 11.44 0 0 1 2.121-.203V1.097c-.34.025-.67.078-.993.156a7.957 7.957 0 0 0-1.128 1.953Zm4.112-1.95A6.438 6.438 0 0 0 9 1.1v1.959c.78.069 1.524.215 2.23.428-.315-.838-.73-1.597-1.237-2.231ZM4.547 3.552c.178-.55.397-1.068.654-1.556A6.41 6.41 0 0 0 2.995 4.21a9.972 9.972 0 0 1 1.552-.657Zm-.343 1.335a8.03 8.03 0 0 0-1.95 1.127c-.261.8-.191 1.5-.172 1.69l.003.044a9.625 9.625 0 0 1 1.928-1.012c.013-.634.078-1.253.19-1.85Zm1.258-.42a9.998 9.998 0 0 0-.293 1.9c.89-.228 1.84-.359 2.83-.359V4.14c-.89 0-1.737.122-2.537.328Zm6.171.345A9.809 9.809 0 0 0 9 4.192v1.87c1.012.087 1.968.309 2.85.637a10.268 10.268 0 0 0-.217-1.887Zm1.353 2.393a8.66 8.66 0 0 1 1.856 1.29c.122-.518.075-1.175.069-1.268-.51-.7-1.206-1.313-2.034-1.806.075.515.156 1.118.109 1.784Z"/><path class="lexicon-icon-outline" d="M1.001 9.014s-.05-.003 0-.005v.005Z"/><path class="lexicon-icon-outline" fill-rule="evenodd" clip-rule="evenodd" d="M1.71 14.6h1.793l.36 1.397h1.403l-1.834-5.983H1.838L.001 15.997h1.35l.36-1.397Zm.91-3.47.612 2.433H1.979s.531-2.122.604-2.434h.037Zm5.427-1.116H6v5.983h1.228v-1.99h.82c.308 0 2.292.012 2.292-1.994 0-2-1.974-2-2.293-2Zm1 2.002c0 .46-.363.794-1.082.794H7.27v-1.647h.696c.357 0 1.081.063 1.081.853Z"/><path class="lexicon-icon-outline" d="M11.54 10.014h1.459v5.983h-1.46v-5.983Z"/></svg>