<!--
* SPDX-FileCopyrightText: © 2020 Liferay, Inc. <https://liferay.com>
* SPDX-FileCopyrightText: © 2020 Contributors to the project Clay <https://github.com/liferay/clay/graphs/contributors>
*
* SPDX-License-Identifier: BSD-3-Clause
-->
<svg viewBox="0 0 16 16" xmlns="http://www.w3.org/2000/svg"><path d="M15 3H1c-.55 0-1-.45-1-1s.45-1 1-1h14c.55 0 1 .45 1 1s-.45 1-1 1Zm-9 7h4c.55 0 1-.45 1-1s-.45-1-1-1H6c-.55 0-1 .45-1 1s.45 1 1 1Z"/><path fill-rule="evenodd" clip-rule="evenodd" d="M0 13.222V4h16v9.222A1.78 1.78 0 0 1 14.222 15H1.778A1.78 1.78 0 0 1 0 13.222ZM2 6v7h12V6H2Z"/></svg>
