<!--
* SPDX-FileCopyrightText: © 2020 Liferay, Inc. <https://liferay.com>
* SPDX-FileCopyrightText: © 2020 Contributors to the project Clay <https://github.com/liferay/clay/graphs/contributors>
*
* SPDX-License-Identifier: BSD-3-Clause
-->
<svg  viewBox="0 0 16 16" xmlns="http://www.w3.org/2000/svg">
<path class="lexicon-icon-outline" d="M15 3H1C0.450195 3 0 2.55 0 2C0 1.45 0.450195 1 1 1H15C15.5498 1 16 1.45 16 2C16 2.55 15.5498 3 15 3Z" />
<path class="lexicon-icon-outline" d="M6 10H10C10.5498 10 11 9.55 11 9C11 8.45 10.5498 8 10 8H6C5.4502 8 5 8.45 5 9C5 9.55 5.4502 10 6 10Z" />
<path class="lexicon-icon-outline" fill-rule="evenodd" clip-rule="evenodd" d="M0 13.2219V4H16V13.2219C16 14.2031 15.2031 15 14.2217 15H1.77832C0.796875 15 0 14.2031 0 13.2219ZM2 6V13H14V6H2Z" />
</svg>
