<!--
* SPDX-FileCopyrightText: © 2022 Liferay, Inc. <https://liferay.com>
* SPDX-FileCopyrightText: © 2022 Contributors to the project Clay <https://github.com/liferay/clay/graphs/contributors>
*
* SPDX-License-Identifier: BSD-3-Clause
-->
<svg viewBox="0 0 16 16" xmlns="http://www.w3.org/2000/svg"><path class="lexicon-icon-outline" d="M15.425 6.586 9.418.582C8.855.02 7.63-.38 6.586.58L.585 6.589c-.97 1.041-.56 2.326 0 2.83 1.575 1.421 4.497 4.51 6.007 6.007.985.975 2.322.53 2.829 0l6.01-6.002c.507-.543.985-1.769-.006-2.838Zm-4.55 4.154L8.31 13.878a.438.438 0 0 1-.616 0L5.132 10.74a.431.431 0 0 1 .31-.737h1.563c.006-2.004.034-2.12-.585-2.879l-2.013-2.01.707-.706 1.884 1.885V3.998a1 1 0 0 1 2 0V10h1.564c.393.003.587.468.312.74Z"/></svg>