<!--
* SPDX-FileCopyrightText: © 2020 Liferay, Inc. <https://liferay.com>
* SPDX-FileCopyrightText: © 2020 Contributors to the project Clay <https://github.com/liferay/clay/graphs/contributors>
*
* SPDX-License-Identifier: BSD-3-Clause
-->
<svg  viewBox="0 0 16 16" xmlns="http://www.w3.org/2000/svg">
<path class="lexicon-icon-outline" d="M15.4187 6.58906L9.41553 0.585938C8.63428 -0.195312 7.37178 -0.195312 6.59365 0.585938L0.587402 6.58906C-0.193848 7.36719 -0.193848 8.63281 0.587402 9.41094L6.59053 15.4141C7.36865 16.1953 8.63428 16.1953 9.4124 15.4141L15.4155 9.41094C16.1968 8.63281 16.1968 7.37031 15.4187 6.58906ZM11.778 10.9953L9.76553 10.7922C9.57178 10.7922 9.47803 10.5609 9.61553 10.4234L10.1655 9.87344L8.00303 7.70781L5.84053 9.87031L6.39053 10.4203C6.52803 10.5578 6.43115 10.7891 6.24053 10.7891L4.22803 10.9922C4.10928 10.9922 4.0124 10.8953 4.0124 10.7734L4.21553 8.76094C4.21553 8.56719 4.44678 8.47344 4.58428 8.61094L5.13428 9.16094C6.64053 7.60469 6.97803 7.51719 7.00615 6.87656V5.00313C7.00615 4.4517 7.45317 4.00469 8.00459 4.00469C8.55601 4.00469 9.00303 4.4517 9.00303 5.00313V6.87656C8.98115 7.49844 9.50303 7.72656 10.8749 9.16094L11.4249 8.61094C11.5624 8.47344 11.7937 8.56719 11.7937 8.76094L11.9968 10.7734C11.9937 10.8984 11.8968 10.9953 11.778 10.9953Z" />
</svg>
