<svg xmlns="http://www.w3.org/2000/svg" viewBox="0 0 512 512">
	<path class="lexicon-icon-outline" d="M493.5,210.8L301.3,18.6c-18-18.1-57.2-30.8-90.6-0.1l-192,192.3c-31,33.3-17.9,74.4,0,90.5l192.2,192.2c31.5,31.2,74.3,17,90.5,0l192.3-192.1C509.9,284.2,525.2,245,493.5,210.8z M352,187.1V224c0,17.7-14.3,32-32,32h-48v106.7h38.7c8.3,0,12.5,9.9,6.6,15.7l-54.7,66.9c-3.6,3.6-9.5,3.6-13.1,0l-54.7-66.9c-5.9-5.8-1.7-15.7,6.6-15.7H240V256h-48c-17.7,0-32-14.3-32-32v-36.9c-25.6-12.6-19.1-59.1,16-59.1c33.9,0,43.3,44.2,16,59.1V224h128v-36.9c-26.1-14.9-19-59.1,16-59.1C370.2,128,379.1,172,352,187.1z"></path>
</svg>
