<!--
* SPDX-FileCopyrightText: © 2022 Liferay, Inc. <https://liferay.com>
* SPDX-FileCopyrightText: © 2022 Contributors to the project Clay <https://github.com/liferay/clay/graphs/contributors>
*
* SPDX-License-Identifier: BSD-3-Clause
-->
<svg viewBox="0 0 16 16" xmlns="http://www.w3.org/2000/svg"><path class="lexicon-icon-outline" d="M11.177 2.532 8.768.298a1.132 1.132 0 0 0-.77-.296c-.29 0-.566.106-.77.296l-2.41 2.234a.956.956 0 0 0 0 1.428c.212.196.491.296.77.296.28 0 .559-.1.771-.296l.562-.52v11.564c0 .552.481.998 1.077.998.595 0 1.076-.446 1.076-.998V3.439l.562.521a1.148 1.148 0 0 0 1.541 0 .956.956 0 0 0 0-1.428Z"/></svg>