<!--
* SPDX-FileCopyrightText: © 2020 Liferay, Inc. <https://liferay.com>
* SPDX-FileCopyrightText: © 2020 Contributors to the project Clay <https://github.com/liferay/clay/graphs/contributors>
*
* SPDX-License-Identifier: BSD-3-Clause
-->
<svg viewBox="0 0 16 16" xmlns="http://www.w3.org/2000/svg"><path d="M15.422 6.59 9.416.582C8.854.017 7.63-.38 6.585.58l-6 6.01c-.969 1.04-.56 2.324 0 2.827l6.006 6.007c.985.975 2.322.53 2.828 0l6.01-6.004c.506-.537.984-1.762-.007-2.83Zm-4.421-.741v1.153a1 1 0 0 1-1 1H8.5v3.334h1.21c.26 0 .39.31.206.49l-1.71 2.091a.29.29 0 0 1-.409 0l-1.709-2.09c-.184-.181-.053-.49.206-.49h1.207V8.001H6c-.554 0-1-.447-1-1V5.849c-.8-.394-.597-1.847.5-1.847 1.059 0 1.353 1.381.5 1.847v1.153h4V5.849c-.816-.466-.594-1.847.5-1.847 1.068 0 1.347 1.375.5 1.847Z"/></svg>
