<!--
* SPDX-FileCopyrightText: © 2020 Liferay, Inc. <https://liferay.com>
* SPDX-FileCopyrightText: © 2020 Contributors to the project Clay <https://github.com/liferay/clay/graphs/contributors>
*
* SPDX-License-Identifier: BSD-3-Clause
-->
<svg viewBox="0 0 16 16" xmlns="http://www.w3.org/2000/svg"><path d="M15.424 6.586 9.416.582C8.853.02 7.628-.38 6.584.58l-6 6.01c-.97 1.041-.56 2.326 0 2.83 1.574 1.421 4.497 4.51 6.007 6.007.984.975 2.322.53 2.828 0l6.01-6.002c.507-.543.985-1.769-.005-2.838Zm-4.551 4.154L8.31 13.878a.438.438 0 0 1-.616 0L5.13 10.74a.431.431 0 0 1 .31-.737h1.562c.006-2.004.034-2.12-.584-2.879l-2.013-2.01.706-.706 1.885 1.885V3.998a1 1 0 0 1 2 0V10h1.563c.394.003.588.468.313.74Z"/></svg>
