<!--
* SPDX-FileCopyrightText: © 2020 Liferay, Inc. <https://liferay.com>
* SPDX-FileCopyrightText: © 2020 Contributors to the project Clay <https://github.com/liferay/clay/graphs/contributors>
*
* SPDX-License-Identifier: BSD-3-Clause
-->
<svg  viewBox="0 0 16 16" xmlns="http://www.w3.org/2000/svg">
<path class="lexicon-icon-outline" d="M8 0.00231934C3.58125 0.00231934 0 3.58357 0 8.00232C0 12.4211 3.58125 16.0023 8 16.0023C12.4187 16.0023 16 12.4211 16 8.00232C16 3.58357 12.4187 0.00231934 8 0.00231934ZM10.7375 10.8742C10.4656 11.1492 10 10.9554 10 10.5648V9.00232H5.72188C4.26875 11.0523 2 9.59919 2 8.00232C2 6.43357 4.22188 4.93357 5.72188 7.00232H10V5.43982C10 5.04919 10.4656 4.85544 10.7375 5.13044L13.875 7.69294C14.0437 7.86169 14.0437 8.13982 13.875 8.30857L10.7375 10.8742Z" />
</svg>
