<!--
* SPDX-FileCopyrightText: © 2020 Liferay, Inc. <https://liferay.com>
* SPDX-FileCopyrightText: © 2020 Contributors to the project Clay <https://github.com/liferay/clay/graphs/contributors>
*
* SPDX-License-Identifier: BSD-3-Clause
-->
<svg  viewBox="0 0 16 16" xmlns="http://www.w3.org/2000/svg">
<path class="lexicon-icon-outline" d="M15.4205 6.59153L9.41425 0.585281C8.85175 0.0196564 7.62675 -0.377219 6.583 0.582156L0.582987 6.59153C-0.385764 7.63216 0.0236114 8.91653 0.582987 9.41966L6.58925 15.4259C7.57363 16.4009 8.91113 15.9572 9.41738 15.4259L15.4268 9.42278C15.933 8.88528 16.4111 7.66028 15.4205 6.59153ZM10.9986 5.85091V7.00403C10.9986 7.55716 10.5518 8.00403 9.99863 8.00403H8.49863V11.3384H9.708C9.96738 11.3384 10.0986 11.6478 9.91426 11.829L8.20488 13.9197C8.09238 14.0322 7.908 14.0322 7.7955 13.9197L6.08612 11.829C5.90175 11.6478 6.033 11.3384 6.29237 11.3384H7.49863V8.00403H5.99862C5.4455 8.00403 4.99862 7.55716 4.99862 7.00403V5.85091C4.19862 5.45716 4.40174 4.00403 5.49862 4.00403C6.558 4.00403 6.85175 5.38528 5.99862 5.85091V7.00403H9.99863V5.85091C9.183 5.38528 9.40488 4.00403 10.4986 4.00403C11.5674 4.00403 11.8455 5.37903 10.9986 5.85091Z" />
</svg>
