<!--
* SPDX-FileCopyrightText: © 2022 Liferay, Inc. <https://liferay.com>
* SPDX-FileCopyrightText: © 2022 Contributors to the project Clay <https://github.com/liferay/clay/graphs/contributors>
*
* SPDX-License-Identifier: BSD-3-Clause
-->
<svg viewBox="0 0 16 16" xmlns="http://www.w3.org/2000/svg"><path class="lexicon-icon-outline" d="M15.42 6.59 9.415.582C8.852.017 7.627-.38 6.583.58l-6 6.01c-.969 1.04-.56 2.324 0 2.827l6.006 6.007c.985.975 2.322.53 2.828 0l6.01-6.004c.506-.537.984-1.762-.006-2.83ZM11 5.848v1.153a1 1 0 0 1-1 1H8.5v3.334h1.209c.26 0 .39.31.206.49l-1.71 2.091a.29.29 0 0 1-.409 0l-1.709-2.09c-.184-.181-.053-.49.206-.49H7.5V8.001H6a1 1 0 0 1-1-1V5.849c-.8-.394-.597-1.847.5-1.847 1.059 0 1.353 1.381.5 1.847v1.153h4V5.849c-.816-.466-.594-1.847.5-1.847 1.068 0 1.346 1.375.5 1.847Z"/></svg>