<!--
* SPDX-FileCopyrightText: © 2020 Liferay, Inc. <https://liferay.com>
* SPDX-FileCopyrightText: © 2020 Contributors to the project Clay <https://github.com/liferay/clay/graphs/contributors>
*
* SPDX-License-Identifier: BSD-3-Clause
-->
<svg viewBox="0 0 16 16" xmlns="http://www.w3.org/2000/svg"><path d="M15.419 6.59 9.416.585a1.992 1.992 0 0 0-2.822 0L.587 6.589a1.992 1.992 0 0 0 0 2.822l6.004 6.003a1.992 1.992 0 0 0 2.821 0l6.003-6.003c.782-.778.782-2.04.004-2.822Zm-3.641 4.405-2.012-.203a.215.215 0 0 1-.15-.369l.55-.55-2.163-2.165L5.841 9.87l.55.55a.215.215 0 0 1-.15.37l-2.013.202a.217.217 0 0 1-.216-.219l.204-2.012c0-.194.23-.288.368-.15l.55.55c1.507-1.556 1.844-1.644 1.872-2.284V5.003a.998.998 0 0 1 1.997 0v1.874c-.022.621.5.85 1.872 2.284l.55-.55a.215.215 0 0 1 .369.15l.203 2.012a.222.222 0 0 1-.219.222Z"/></svg>
