<!--
* SPDX-FileCopyrightText: © 2026 Liferay, Inc. <https://liferay.com>
* SPDX-FileCopyrightText: © 2026 Contributors to the project Clay <https://github.com/liferay/clay/graphs/contributors>
*
* SPDX-License-Identifier: BSD-3-Clause
-->
<svg viewBox="0 0 46 34" xmlns="http://www.w3.org/2000/svg">
	<path class="lexicon-icon-outline lx-arrows-all-keycap lx-arrows-all-keycap-right" d="M32.083 28A2.083 2.083 0 0 1 30 25.917v-5.834c0-1.15.933-2.083 2.083-2.083h5.834c1.15 0 2.083.933 2.083 2.083v5.834c0 1.15-.933 2.083-2.083 2.083h-5.834Z" />
	<path class="lx-arrows-all-chevron" d="m34.685 20.72 2.388 2.052a.317.317 0 0 1 0 .493l-2.388 2.051c-.256.22-.694.063-.694-.246v-4.102c.003-.31.438-.466.694-.247Z" />
	<path class="lexicon-icon-outline lx-arrows-all-keycap lx-arrows-all-keycap-left" d="M13.917 28c1.15 0 2.083-.933 2.083-2.083v-5.834c0-1.15-.933-2.083-2.083-2.083H8.083C6.933 18 6 18.933 6 20.083v5.834C6 27.067 6.933 28 8.083 28h5.834Z" />
	<path class="lx-arrows-all-chevron" d="m11.422 25.298-2.388-2.051a.317.317 0 0 1 0-.494l2.388-2.05c.255-.22.694-.064.694.246v4.102c-.003.31-.439.466-.694.247Z" />
	<path class="lexicon-icon-outline lx-arrows-all-keycap lx-arrows-all-keycap-down" d="M25.917 28c1.15 0 2.083-.933 2.083-2.083v-5.834c0-1.15-.933-2.083-2.083-2.083h-5.834c-1.15 0-2.083.933-2.083 2.083v5.834c0 1.15.933 2.083 2.083 2.083h5.834Z" />
	<path class="lx-arrows-all-chevron" d="m25.298 22.494-2.051 2.388a.317.317 0 0 1-.494 0l-2.05-2.388c-.22-.256-.064-.694.246-.694h4.102c.31.003.466.438.247.694Z" />
	<path class="lexicon-icon-outline lx-arrows-all-keycap lx-arrows-all-keycap-up" d="M18 13.917c0 1.15.933 2.083 2.083 2.083h5.834c1.15 0 2.083-.933 2.083-2.083V8.083C28 6.933 27.067 6 25.917 6h-5.834C18.933 6 18 6.933 18 8.083v5.834Z" />
	<path class="lx-arrows-all-chevron" d="m20.702 11.485 2.051-2.388a.317.317 0 0 1 .494 0l2.05 2.388c.22.256.064.694-.246.694H20.95c-.31-.003-.466-.438-.247-.694Z" />
</svg>