<!--
* SPDX-FileCopyrightText: © 2020 Liferay, Inc. <https://liferay.com>
* SPDX-FileCopyrightText: © 2020 Contributors to the project Clay <https://github.com/liferay/clay/graphs/contributors>
*
* SPDX-License-Identifier: BSD-3-Clause
-->
<svg viewBox="0 0 16 16" xmlns="http://www.w3.org/2000/svg"><path d="M8 0a8 8 0 0 0-8 8 8 8 0 0 0 8 8 8 8 0 0 0 8-8 8 8 0 0 0-8-8Zm1.875 8.31-3.137 2.562c-.313.26-.738.081-.738-.31V9H4a1 1 0 1 1 0-2h2V5.437c0-.39.466-.584.738-.309l3.137 2.563a.447.447 0 0 1 0 .618ZM13.001 10a1 1 0 1 1-2 0V6a1 1 0 1 1 2 0v4Z"/></svg>
