<!--
* SPDX-FileCopyrightText: © 2020 Liferay, Inc. <https://liferay.com>
* SPDX-FileCopyrightText: © 2020 Contributors to the project Clay <https://github.com/liferay/clay/graphs/contributors>
*
* SPDX-License-Identifier: BSD-3-Clause
-->
<svg  viewBox="0 0 16 16" xmlns="http://www.w3.org/2000/svg">
<path class="lexicon-icon-outline" d="M15.4235 6.58636L9.41609 0.582067C8.85348 0.0194573 7.62824 -0.380621 6.58429 0.578942L0.583101 6.58949C-0.38584 7.63032 0.023616 8.91494 0.583101 9.41817C2.15841 10.8403 5.08086 13.9284 6.59054 15.4256C7.57511 16.4008 8.91287 15.9569 9.41922 15.4256L15.4298 9.42442C15.9361 8.88056 16.4143 7.65532 15.4235 6.58636ZM10.8726 10.7403L8.30963 13.8784C8.14084 14.0472 7.86266 14.0472 7.69388 13.8784L5.13087 10.7403C4.85582 10.4684 5.04961 10.0027 5.44031 10.0027H7.00312C7.00937 7.99914 7.0375 7.88349 6.41863 7.12397L4.40573 5.1142L5.11212 4.40781L6.99687 6.29256V3.99816C6.99687 3.44588 7.44478 2.99816 7.99706 2.99816C8.54935 2.99816 8.99726 3.44588 8.99726 3.99816V9.99953H10.5601C10.9539 10.0027 11.1477 10.4684 10.8726 10.7403Z" />
</svg>
