<!--
* SPDX-FileCopyrightText: © 2020 Liferay, Inc. <https://liferay.com>
* SPDX-FileCopyrightText: © 2020 Contributors to the project Clay <https://github.com/liferay/clay/graphs/contributors>
*
* SPDX-License-Identifier: BSD-3-Clause
-->
<svg  viewBox="0 0 16 16" xmlns="http://www.w3.org/2000/svg">
<path class="lexicon-icon-outline" d="M8.00049 0C3.58174 0 0.000488281 3.58125 0.000488281 8C0.000488281 12.4187 3.58174 16 8.00049 16C12.4192 16 16.0005 12.4187 16.0005 8C16.0005 3.58125 12.4192 0 8.00049 0ZM9.87549 8.30937L6.73799 10.8719C6.42549 11.1312 6.00049 10.9531 6.00049 10.5625V9H4.00049C3.4482 9 3.00049 8.55229 3.00049 8C3.00049 7.44772 3.4482 7 4.00049 7H6.00049V5.4375C6.00049 5.04688 6.46611 4.85313 6.73799 5.12813L9.87549 7.69063C10.0411 7.8625 10.0411 8.1375 9.87549 8.30937ZM13.0005 10C13.0005 10.5523 12.5528 11 12.0005 11C11.4482 11 11.0005 10.5523 11.0005 10V6C11.0005 5.44772 11.4482 5 12.0005 5C12.5528 5 13.0005 5.44772 13.0005 6V10Z" />
</svg>
