<!--
* SPDX-FileCopyrightText: © 2020 Liferay, Inc. <https://liferay.com>
* SPDX-FileCopyrightText: © 2020 Contributors to the project Clay <https://github.com/liferay/clay/graphs/contributors>
*
* SPDX-License-Identifier: BSD-3-Clause
-->
<svg viewBox="0 0 16 16" xmlns="http://www.w3.org/2000/svg"><path d="M8.002 0a8 8 0 0 0-8 8 8 8 0 0 0 8 8 8 8 0 0 0 8-8 8 8 0 0 0-8-8Zm2.737 10.872a.431.431 0 0 1-.737-.31V9H5.724c-1.453 2.05-3.722.597-3.722-1 0-1.569 2.222-3.069 3.722-1h4.278V5.437c0-.39.466-.584.737-.309l3.138 2.563a.438.438 0 0 1 0 .615l-3.138 2.566Z"/></svg>
