<!--
* SPDX-FileCopyrightText: © 2022 Liferay, Inc. <https://liferay.com>
* SPDX-FileCopyrightText: © 2022 Contributors to the project Clay <https://github.com/liferay/clay/graphs/contributors>
*
* SPDX-License-Identifier: BSD-3-Clause
-->
<svg viewBox="0 0 16 16" xmlns="http://www.w3.org/2000/svg"><path class="lexicon-icon-outline" d="M11.177 12.044a1.133 1.133 0 0 0-.77-.296c-.28 0-.559.1-.77.296l-.563.521V1c0-.552-.48-.998-1.076-.998C7.402.002 6.92.448 6.92 1v11.565l-.562-.52a1.148 1.148 0 0 0-1.54 0 .956.956 0 0 0 0 1.428l2.408 2.233c.205.19.481.296.77.296.29 0 .566-.106.771-.296l2.41-2.233a.956.956 0 0 0 0-1.429Z"/></svg>