<!--
* SPDX-FileCopyrightText: © 2020 Liferay, Inc. <https://liferay.com>
* SPDX-FileCopyrightText: © 2020 Contributors to the project Clay <https://github.com/liferay/clay/graphs/contributors>
*
* SPDX-License-Identifier: BSD-3-Clause
-->
<svg  viewBox="0 0 16 16" xmlns="http://www.w3.org/2000/svg">
<path class="lexicon-icon-outline" d="M12.3077 2.00256H6.23077C5.3 2.00256 4.53846 2.77399 4.53846 3.71685V9.75971C4.40096 9.73292 4.26082 9.71685 4.11538 9.71685C2.94663 9.71685 2 10.6758 2 11.8597C2 13.0436 2.94663 14.0026 4.11538 14.0026C5.28413 14.0026 6.23077 13.0436 6.23077 11.8597C6.23077 11.7874 6.23077 6.28828 6.23077 6.28828H12.3077V8.90256C12.1702 8.87578 12.03 8.85971 11.8846 8.85971C10.7159 8.85971 9.76923 9.81863 9.76923 11.0026C9.76923 12.1865 10.7159 13.1454 11.8846 13.1454C13.0534 13.1454 14 12.1865 14 11.0026C14 10.9302 14 3.71685 14 3.71685C14 2.77399 13.2385 2.00256 12.3077 2.00256Z" />
</svg>
