<!--
* SPDX-FileCopyrightText: © 2022 Liferay, Inc. <https://liferay.com>
* SPDX-FileCopyrightText: © 2022 Contributors to the project Clay <https://github.com/liferay/clay/graphs/contributors>
*
* SPDX-License-Identifier: BSD-3-Clause
-->
<svg viewBox="0 0 16 16" xmlns="http://www.w3.org/2000/svg"><path class="lexicon-icon-outline" d="M12.308 2H6.23c-.931 0-1.693.771-1.693 1.714v6.043a2.201 2.201 0 0 0-.423-.043c-1.168 0-2.115.96-2.115 2.143C2 13.041 2.947 14 4.115 14c1.17 0 2.116-.959 2.116-2.143V6.286h6.077V8.9a2.201 2.201 0 0 0-.423-.043c-1.17 0-2.116.96-2.116 2.143 0 1.184.947 2.143 2.116 2.143 1.168 0 2.115-.96 2.115-2.143V3.714C14 2.771 13.239 2 12.308 2Z"/></svg>