<!--
* SPDX-FileCopyrightText: © 2020 Liferay, Inc. <https://liferay.com>
* SPDX-FileCopyrightText: © 2020 Contributors to the project Clay <https://github.com/liferay/clay/graphs/contributors>
*
* SPDX-License-Identifier: BSD-3-Clause
-->
<svg viewBox="0 0 16 16" xmlns="http://www.w3.org/2000/svg"><path d="M12.31 2.003H6.231c-.93 0-1.692.771-1.692 1.714V9.76a2.2 2.2 0 0 0-.423-.043c-1.169 0-2.115.959-2.115 2.143 0 1.184.946 2.143 2.115 2.143 1.169 0 2.115-.96 2.115-2.143V6.288h6.077v2.615a2.201 2.201 0 0 0-.423-.043c-1.168 0-2.115.959-2.115 2.143 0 1.184.947 2.142 2.115 2.142 1.17 0 2.116-.958 2.116-2.142V3.717c0-.943-.762-1.714-1.693-1.714Z"/></svg>
