<!--
* SPDX-FileCopyrightText: © 2022 Liferay, Inc. <https://liferay.com>
* SPDX-FileCopyrightText: © 2022 Contributors to the project Clay <https://github.com/liferay/clay/graphs/contributors>
*
* SPDX-License-Identifier: BSD-3-Clause
-->
<svg viewBox="0 0 16 16" xmlns="http://www.w3.org/2000/svg"><path class="lexicon-icon-outline" d="M4 12.8h2.16c.718 0 1.04-.881.559-1.36l-.482-.48L7.68 9.518c.687-.682-.273-1.888-1.12-1.119L5.12 9.84l-.481-.48c-.482-.482-1.36-.16-1.36.559v2.16c-.078.402.24.721.722.721Zm5.84-9.6H12a.61.61 0 0 1 .722.722v2.16c0 .718-.878 1.04-1.36.559l-.48-.482L9.44 7.6c-.743.722-1.852-.344-1.118-1.119l1.44-1.44-.48-.482C8.8 4.081 9.121 3.2 9.84 3.2Z"/><path class="lexicon-icon-outline" fill-rule="evenodd" clip-rule="evenodd" d="M1.6 0h12.8c.881 0 1.6.719 1.6 1.6v12.8c0 .881-.719 1.6-1.6 1.6H1.6C.719 16 0 15.281 0 14.4V1.6C0 .719.719 0 1.6 0Zm12.8 14.4V1.6H1.6v12.8h12.8Z"/></svg>