<!--
* SPDX-FileCopyrightText: © 2020 Liferay, Inc. <https://liferay.com>
* SPDX-FileCopyrightText: © 2020 Contributors to the project Clay <https://github.com/liferay/clay/graphs/contributors>
*
* SPDX-License-Identifier: BSD-3-Clause
-->
<svg  viewBox="0 0 16 16" xmlns="http://www.w3.org/2000/svg">
<path class="lexicon-icon-outline" d="M3.99829 12.8023H6.15747C6.87622 12.8023 7.19849 11.921 6.71704 11.4429L6.2356 10.9617L7.677 9.52106C8.3645 8.83978 7.40454 7.63354 6.55786 8.40228L5.11743 9.8429L4.63599 9.36169C4.15454 8.88043 3.27661 9.20227 3.27661 9.92102V12.0804C3.19849 12.4835 3.51685 12.8023 3.99829 12.8023Z" />
<path class="lexicon-icon-outline" d="M9.83911 3.20233H11.9983C12.4797 3.12103 12.7981 3.52106 12.72 3.92419V6.08356C12.72 6.80231 11.842 7.12421 11.3606 6.64294L10.8801 6.16168L9.43872 7.60229C8.69556 8.32416 7.58618 7.25854 8.32056 6.48358L9.76099 5.04291L9.27954 4.56171C8.7981 4.08356 9.12036 3.20233 9.83911 3.20233Z" />
<path class="lexicon-icon-outline" fill-rule="evenodd" clip-rule="evenodd" d="M1.5979 0.00231934H14.3987C15.2795 0.00231934 15.9983 0.721069 15.9983 1.60229V14.4023C15.9983 15.2836 15.2795 16.0023 14.3987 16.0023H1.5979C0.717041 16.0023 -0.00170898 15.2836 -0.00170898 14.4023V1.60229C-0.00170898 0.721069 0.717041 0.00231934 1.5979 0.00231934ZM14.3977 14.4023V1.60229H1.5979V14.4023H14.3977Z" />
</svg>
