<!--
* SPDX-FileCopyrightText: © 2020 Liferay, Inc. <https://liferay.com>
* SPDX-FileCopyrightText: © 2020 Contributors to the project Clay <https://github.com/liferay/clay/graphs/contributors>
*
* SPDX-License-Identifier: BSD-3-Clause
-->
<svg  viewBox="0 0 16 16" xmlns="http://www.w3.org/2000/svg">
<path class="lexicon-icon-outline" d="M4.99748 0.00231934C5.41145 0.00231934 5.74704 0.338252 5.74704 0.75265L5.74705 2.01025L9.25253 2.02574C9.66649 2.02757 10.0006 2.36498 9.99877 2.77937C9.99694 3.19377 9.65987 3.52822 9.24591 3.52639L8.43061 3.52279C8.29019 4.83666 7.94664 5.78847 7.43127 6.54972C7.07603 7.07446 6.65471 7.48348 6.22118 7.84215C6.66623 8.18832 7.50879 8.7965 8.06452 9.19432C8.37609 9.41735 8.47701 9.83557 8.30047 10.1759C8.09194 10.5778 7.58263 10.7127 7.21171 10.4534C6.42383 9.90243 5.68114 9.32354 5.08854 8.86205L4.99744 8.79112L4.90634 8.86206C4.14054 9.45843 3.17399 10.2111 2.13328 10.8859C1.78583 11.1112 1.32173 11.0119 1.09667 10.6641C0.871615 10.3163 0.970836 9.85169 1.31829 9.6264C2.22855 9.03618 3.05499 8.4012 3.77377 7.8421C3.43191 7.55923 3.09758 7.24517 2.79885 6.86974C2.49533 6.48831 2.23664 6.0547 2.03164 5.53871C1.84744 5.0751 2.22007 4.60714 2.71849 4.60714C3.06004 4.60714 3.35357 4.83498 3.49335 5.14694C3.6319 5.45617 3.79358 5.71124 3.97143 5.93475C4.25319 6.28884 4.58966 6.58291 4.99742 6.89989C5.49017 6.51672 5.88026 6.16578 6.19028 5.70784C6.52368 5.21537 6.79387 4.55211 6.92236 3.51612L4.99749 3.50761H0.745653C0.331683 3.50761 -0.00390625 3.17168 -0.00390625 2.75728C-0.00390625 2.34288 0.331683 2.00694 0.745653 2.00694H4.24793L4.24792 0.752656C4.24792 0.338258 4.58351 0.00231934 4.99748 0.00231934Z" />
<path class="lexicon-icon-outline" fill-rule="evenodd" clip-rule="evenodd" d="M11.8198 6.4979C12.1196 6.4979 12.3906 6.67677 12.5087 6.95266L15.9353 14.9562C16.0984 15.3371 15.9221 15.7782 15.5416 15.9415C15.1611 16.1047 14.7205 15.9283 14.5574 15.5474L13.9007 14.0136H9.73885L9.08219 15.5474C8.91912 15.9283 8.47847 16.1047 8.09797 15.9415C7.71747 15.7782 7.54121 15.3371 7.70428 14.9562L8.51405 13.0648C8.53236 12.9978 8.5597 12.9346 8.5947 12.8764L11.1308 6.95266C11.2489 6.67677 11.5199 6.4979 11.8198 6.4979ZM13.2582 12.5129L11.8198 9.15302L10.3813 12.5129H13.2582Z" />
</svg>
