<!--
* SPDX-FileCopyrightText: © 2020 Liferay, Inc. <https://liferay.com>
* SPDX-FileCopyrightText: © 2020 Contributors to the project Clay <https://github.com/liferay/clay/graphs/contributors>
*
* SPDX-License-Identifier: BSD-3-Clause
-->
<svg viewBox="0 0 16 16" xmlns="http://www.w3.org/2000/svg"><path d="M4 12.802h2.16c.718 0 1.04-.881.559-1.36l-.482-.48 1.442-1.44c.687-.682-.273-1.888-1.12-1.12l-1.44 1.44-.481-.48c-.482-.482-1.36-.16-1.36.559v2.16c-.078.402.24.721.722.721Zm5.84-9.6H12a.61.61 0 0 1 .722.722v2.16c0 .718-.878 1.04-1.36.559l-.48-.481-1.442 1.44c-.743.722-1.852-.343-1.118-1.118l1.44-1.441-.48-.481c-.482-.478-.16-1.36.559-1.36Z"/><path fill-rule="evenodd" clip-rule="evenodd" d="M1.6.002h12.8c.881 0 1.6.72 1.6 1.6v12.8c0 .882-.719 1.6-1.6 1.6H1.6c-.881 0-1.6-.718-1.6-1.6v-12.8c0-.88.719-1.6 1.6-1.6Zm12.8 14.4v-12.8H1.6v12.8h12.8Z"/></svg>
