<!--
* SPDX-FileCopyrightText: © 2020 Liferay, Inc. <https://liferay.com>
* SPDX-FileCopyrightText: © 2020 Contributors to the project Clay <https://github.com/liferay/clay/graphs/contributors>
*
* SPDX-License-Identifier: BSD-3-Clause
-->
<svg viewBox="0 0 16 16" xmlns="http://www.w3.org/2000/svg"><path d="M5 .002a.75.75 0 0 1 .749.75V2.01l3.505.016a.75.75 0 0 1-.006 1.5l-.816-.003c-.14 1.314-.484 2.265-.999 3.027-.355.524-.777.933-1.21 1.292a72.63 72.63 0 0 0 1.843 1.352.77.77 0 0 1 .236.982.746.746 0 0 1-1.089.277c-.787-.55-1.53-1.13-2.123-1.59L5 8.79l-.092.071c-.766.596-1.732 1.35-2.773 2.024a.75.75 0 1 1-.815-1.26c.91-.59 1.737-1.225 2.455-1.784a6.6 6.6 0 0 1-.974-.972 5.18 5.18 0 0 1-.768-1.331c-.184-.464.189-.932.687-.932.342 0 .635.228.775.54.139.31.3.564.478.788.282.354.618.648 1.026.965.493-.383.883-.734 1.193-1.192.333-.493.604-1.156.732-2.192L5 3.508H.747a.75.75 0 0 1 0-1.501H4.25V.753A.75.75 0 0 1 5 .003Z"/><path fill-rule="evenodd" clip-rule="evenodd" d="M11.822 6.498c.3 0 .57.179.689.455l3.426 8.003a.75.75 0 0 1-1.378.591l-.657-1.533H9.741l-.657 1.533a.75.75 0 1 1-1.378-.59l.81-1.892a.748.748 0 0 1 .08-.189l2.537-5.923a.75.75 0 0 1 .689-.455Zm1.438 6.015-1.438-3.36-1.439 3.36h2.877Z"/></svg>
