<!--
* SPDX-FileCopyrightText: © 2020 Liferay, Inc. <https://liferay.com>
* SPDX-FileCopyrightText: © 2020 Contributors to the project Clay <https://github.com/liferay/clay/graphs/contributors>
*
* SPDX-License-Identifier: BSD-3-Clause
-->
<svg viewBox="0 0 16 16" xmlns="http://www.w3.org/2000/svg"><path fill-rule="evenodd" clip-rule="evenodd" d="m6.684.314 5.112 5.122c.58.58.58 1.523 0 2.104L7.91 11.449c-.807.808-2.085.742-2.825 0l-2.5-2.505a2.004 2.004 0 0 1 0-2.83l3.531-3.538-.844-.846C4.316.772 5.745-.627 6.684.314ZM3.997 7.53 4 7.532v-.006l-.002.003Zm.532-.533h5l.5-.5-2.5-2.505h-.002L4.529 6.996Zm6.463 3.502c0-.829 1.498-2.502 1.498-2.502s1.498 1.673 1.498 2.502c0 2.013-2.996 1.992-2.996 0Zm1.498 5.504H3.501c-1.973 0-2.014-3.002 0-3.002h8.989c1.952 0 2.074 3.002 0 3.002Z"/></svg>
