<!--
* SPDX-FileCopyrightText: © 2022 Liferay, Inc. <https://liferay.com>
* SPDX-FileCopyrightText: © 2022 Contributors to the project Clay <https://github.com/liferay/clay/graphs/contributors>
*
* SPDX-License-Identifier: BSD-3-Clause
-->
<svg viewBox="0 0 16 16" xmlns="http://www.w3.org/2000/svg"><path class="lexicon-icon-outline" fill-rule="evenodd" clip-rule="evenodd" d="m6.684.312 5.112 5.121a1.49 1.49 0 0 1 0 2.104l-3.886 3.91c-.807.807-2.085.742-2.825 0l-2.5-2.505a2.004 2.004 0 0 1 0-2.83l3.531-3.539-.844-.846C4.316.77 5.745-.629 6.684.312ZM3.997 7.527 4 7.529v-.005l-.002.003Zm.532-.534h5l.5-.5-2.5-2.505h-.002L4.529 6.994Z"/><path class="lexicon-icon-outline" d="M10.992 10.496c0-.83 1.498-2.502 1.498-2.502s1.498 1.673 1.498 2.502c0 2.012-2.996 1.992-2.996 0ZM12.49 16H3.501c-1.973 0-2.014-3.002 0-3.002h8.989c1.952 0 2.074 3.002 0 3.002Z"/></svg>