<!--
* SPDX-FileCopyrightText: © 2020 Liferay, Inc. <https://liferay.com>
* SPDX-FileCopyrightText: © 2020 Contributors to the project Clay <https://github.com/liferay/clay/graphs/contributors>
*
* SPDX-License-Identifier: BSD-3-Clause
-->
<svg  viewBox="0 0 16 16" xmlns="http://www.w3.org/2000/svg">
<path class="lexicon-icon-outline" fill-rule="evenodd" clip-rule="evenodd" d="M6.68267 0.314451L11.7942 5.4357C12.3739 6.01664 12.3739 6.95883 11.7942 7.53976L7.90798 11.4488C7.10173 12.2566 5.8236 12.191 5.08298 11.4488L2.58329 8.94414C1.80329 8.16258 1.80329 6.89539 2.58329 6.11383L6.11454 2.5757L5.27017 1.72976C4.31423 0.771951 5.74298 -0.627111 6.68267 0.314451ZM3.99579 7.52883L3.9986 7.53164V7.52601L3.99579 7.52883ZM4.52767 6.9957H9.52735L10.0267 6.49539L7.52704 3.9907C7.5261 3.9907 7.52548 3.99101 7.52517 3.99101L4.52767 6.9957ZM10.9905 10.4982C10.9905 9.66915 12.4886 7.99634 12.4886 7.99634C12.4886 7.99634 13.9867 9.66946 13.9867 10.4982C13.9867 12.5107 10.9905 12.4904 10.9905 10.4982ZM12.4883 16.0022H3.49926C1.52582 16.0022 1.4852 13.0001 3.49926 13.0001H12.4883C14.4402 13.0001 14.5621 16.0022 12.4883 16.0022Z" />
</svg>
