<!--
* SPDX-FileCopyrightText: © 2020 Liferay, Inc. <https://liferay.com>
* SPDX-FileCopyrightText: © 2020 Contributors to the project Clay <https://github.com/liferay/clay/graphs/contributors>
*
* SPDX-License-Identifier: BSD-3-Clause
-->
<svg  viewBox="0 0 16 16" xmlns="http://www.w3.org/2000/svg">
<path class="lexicon-icon-outline" d="M14.9983 3.00232H0.998291C0.446533 3.00232 -0.00170898 2.55432 -0.00170898 2.00232C-0.00170898 1.45032 0.446533 1.00232 0.998291 1.00232H14.9983C15.55 1.00232 15.9983 1.45032 15.9983 2.00232C15.9983 2.55432 15.55 3.00232 14.9983 3.00232Z" />
<path class="lexicon-icon-outline" d="M14.9983 9.00232H0.998291C0.446533 9.00232 -0.00170898 8.55432 -0.00170898 8.00232C-0.00170898 7.45032 0.446533 7.00232 0.998291 7.00232H14.9983C15.55 7.00232 15.9983 7.45032 15.9983 8.00232C15.9983 8.55432 15.55 9.00232 14.9983 9.00232Z" />
<path class="lexicon-icon-outline" d="M0.998291 15.0023H14.9983C15.55 15.0023 15.9983 14.5543 15.9983 14.0023C15.9983 13.4503 15.55 13.0023 14.9983 13.0023H0.998291C0.446533 13.0023 -0.00170898 13.4503 -0.00170898 14.0023C-0.00170898 14.5543 0.446533 15.0023 0.998291 15.0023Z" />
</svg>
