<!--
* SPDX-FileCopyrightText: © 2020 Liferay, Inc. <https://liferay.com>
* SPDX-FileCopyrightText: © 2020 Contributors to the project Clay <https://github.com/liferay/clay/graphs/contributors>
*
* SPDX-License-Identifier: BSD-3-Clause
-->
<svg  viewBox="0 0 16 16" xmlns="http://www.w3.org/2000/svg">
<path class="lexicon-icon-outline" fill-rule="evenodd" clip-rule="evenodd" d="M6.99829 0.975835C6.99829 0.975835 1.99829 0.975835 1.99829 9.98328L0.998291 10.9841C0.998291 13.6738 14.9983 13.7363 14.9983 10.9841L13.9983 9.98328C13.9983 0.975835 8.99829 0.975835 8.99829 0.975835C8.99829 -0.306514 6.99829 -0.337764 6.99829 0.975835ZM3.99829 10.6588C3.99829 10.6588 3.99829 2.97742 7.99829 2.97742C11.9983 2.97742 11.9983 10.6588 11.9983 10.6588C8.99829 10.984 6.99829 10.984 3.99829 10.6588Z" />
<path class="lexicon-icon-outline" d="M5.10767 13.7457C6.06079 16.7701 9.93579 16.7388 10.8889 13.7457C8.99829 13.9866 6.99829 13.9866 5.10767 13.7457Z" />
</svg>
