<!--
* SPDX-FileCopyrightText: © 2020 Liferay, Inc. <https://liferay.com>
* SPDX-FileCopyrightText: © 2020 Contributors to the project Clay <https://github.com/liferay/clay/graphs/contributors>
*
* SPDX-License-Identifier: BSD-3-Clause
-->
<svg viewBox="0 0 16 16" xmlns="http://www.w3.org/2000/svg"><path d="m14.286 9.846-2.392-2.34c-.46-2.455-1.792-5.092-4.523-4.428l-1.73-1.692c.84-.41 1.49-.41 1.49-.41 0-1.314 2.045-1.283 2.045 0 0 0 5.058 0 5.11 8.87Z"/><path fill-rule="evenodd" clip-rule="evenodd" d="m3.223 1.489 11.5 11.256c.862.888-.496 2.014-1.258 1.232l-1.29-1.263C7.965 13.458 1 12.86 1 10.984l1.021-1c0-2.8.493-4.73 1.173-6.059l-1.23-1.204c-.849-.885.429-1.995 1.259-1.232Zm.842 9.17s0-2.79.895-5.004l5.292 5.179c-2.076.131-3.83.075-6.187-.175Z"/><path d="M5.2 13.746c.973 3.024 4.934 2.993 5.907 0a24.24 24.24 0 0 1-5.908 0Z"/></svg>
