<!--
* SPDX-FileCopyrightText: © 2020 Liferay, Inc. <https://liferay.com>
* SPDX-FileCopyrightText: © 2020 Contributors to the project Clay <https://github.com/liferay/clay/graphs/contributors>
*
* SPDX-License-Identifier: BSD-3-Clause
-->
<svg  viewBox="0 0 16 16" xmlns="http://www.w3.org/2000/svg">
<path class="lexicon-icon-outline" d="M14.2844 9.84565L11.8918 7.50623C11.4319 5.05109 10.1008 2.41449 7.36938 3.07758L5.63892 1.38556C6.47876 0.975835 7.13013 0.975835 7.13013 0.975835C7.13013 -0.337764 9.17407 -0.306514 9.17407 0.975835C9.17407 0.975835 14.2327 0.975835 14.2844 9.84565Z" />
<path class="lexicon-icon-outline" fill-rule="evenodd" clip-rule="evenodd" d="M3.22095 1.48877L14.7209 12.7449C15.5833 13.6332 14.2258 14.7591 13.4631 13.9772L12.1731 12.7137C7.96313 13.458 0.998291 12.8607 0.998291 10.9841L2.01978 9.98328C2.01978 7.18409 2.51196 5.2544 3.19263 3.92518L1.96313 2.72101C1.11353 1.83594 2.39087 0.725652 3.22095 1.48877ZM4.06372 10.6588C4.06372 10.6588 4.06372 7.86902 4.95825 5.65467L10.2502 10.8339C8.17407 10.9653 6.42017 10.909 4.06372 10.6588Z" />
<path class="lexicon-icon-outline" d="M5.19751 13.7457C6.17114 16.7701 10.1321 16.7388 11.1057 13.7457C9.1731 13.9866 7.13013 13.9866 5.19751 13.7457Z" />
</svg>
