<!--
* SPDX-FileCopyrightText: © 2022 Liferay, Inc. <https://liferay.com>
* SPDX-FileCopyrightText: © 2022 Contributors to the project Clay <https://github.com/liferay/clay/graphs/contributors>
*
* SPDX-License-Identifier: BSD-3-Clause
-->
<svg viewBox="0 0 16 16" xmlns="http://www.w3.org/2000/svg"><path class="lexicon-icon-outline" d="m14.286 9.843-2.392-2.34c-.46-2.454-1.792-5.09-4.523-4.428l-1.73-1.692c.84-.41 1.49-.41 1.49-.41 0-1.313 2.045-1.282 2.045 0 0 0 5.058 0 5.11 8.87Z"/><path class="lexicon-icon-outline" fill-rule="evenodd" clip-rule="evenodd" d="m3.223 1.486 11.5 11.257c.862.888-.496 2.014-1.258 1.232l-1.29-1.264C7.965 13.456 1 12.858 1 10.981l1.021-1c0-2.8.493-4.729 1.173-6.058l-1.23-1.204c-.849-.885.429-1.996 1.259-1.233Zm.842 9.17s0-2.79.895-5.004l5.292 5.18c-2.076.131-3.83.075-6.187-.176Z"/><path class="lexicon-icon-outline" d="M5.2 13.743c.973 3.025 4.934 2.993 5.907 0a24.24 24.24 0 0 1-5.908 0Z"/></svg>