<!--
* SPDX-FileCopyrightText: © 2020 Liferay, Inc. <https://liferay.com>
* SPDX-FileCopyrightText: © 2020 Contributors to the project Clay <https://github.com/liferay/clay/graphs/contributors>
*
* SPDX-License-Identifier: BSD-3-Clause
-->
<svg viewBox="0 0 16 16" xmlns="http://www.w3.org/2000/svg"><path d="M13.656 2.346A7.937 7.937 0 0 0 8 .002a7.937 7.937 0 0 0-5.656 2.344A7.937 7.937 0 0 0 0 8.002c0 2.138.831 4.147 2.344 5.657A7.942 7.942 0 0 0 8 16.002a7.936 7.936 0 0 0 5.656-2.343A7.942 7.942 0 0 0 16 8.002a7.936 7.936 0 0 0-2.344-5.656ZM14 8.002a5.985 5.985 0 0 1-1.11 3.475L4.526 3.112A5.985 5.985 0 0 1 8 2.002c3.31 0 6 2.69 6 6Zm-12 0c0-1.293.413-2.493 1.11-3.475l8.365 8.366A5.985 5.985 0 0 1 8 14.003c-3.31 0-6-2.691-6-6Z"/></svg>
