<!--
* SPDX-FileCopyrightText: © 2022 Liferay, Inc. <https://liferay.com>
* SPDX-FileCopyrightText: © 2022 Contributors to the project Clay <https://github.com/liferay/clay/graphs/contributors>
*
* SPDX-License-Identifier: BSD-3-Clause
-->
<svg viewBox="0 0 16 16" xmlns="http://www.w3.org/2000/svg"><path class="lexicon-icon-outline" d="M13.656 2.344A7.937 7.937 0 0 0 8 0a7.937 7.937 0 0 0-5.656 2.344A7.937 7.937 0 0 0 0 8c0 2.137.831 4.147 2.344 5.656A7.942 7.942 0 0 0 8 16a7.937 7.937 0 0 0 5.656-2.344A7.942 7.942 0 0 0 16 8a7.937 7.937 0 0 0-2.344-5.656ZM14 8a5.985 5.985 0 0 1-1.11 3.475L4.526 3.109A5.985 5.985 0 0 1 8 2c3.31 0 6 2.69 6 6ZM2 8c0-1.294.413-2.494 1.11-3.475l8.365 8.366A5.985 5.985 0 0 1 8 14c-3.31 0-6-2.69-6-6Z"/></svg>