<!--
* SPDX-FileCopyrightText: © 2020 Liferay, Inc. <https://liferay.com>
* SPDX-FileCopyrightText: © 2020 Contributors to the project Clay <https://github.com/liferay/clay/graphs/contributors>
*
* SPDX-License-Identifier: BSD-3-Clause
-->
<svg viewBox="0 0 16 16" xmlns="http://www.w3.org/2000/svg">
<path class="lexicon-icon-outline" d="M13.6545 2.34607C12.1452 0.833569 10.1358 0.00231934 7.99829 0.00231934C5.86079 0.00231934 3.85142 0.833569 2.34204 2.34607C0.829541 3.85544 -0.00170898 5.86482 -0.00170898 8.00232C-0.00170898 10.1398 0.829541 12.1492 2.34204 13.6586C3.85454 15.1711 5.86079 16.0023 7.99829 16.0023C10.1358 16.0023 12.1452 15.1711 13.6545 13.6586C15.167 12.1461 15.9983 10.1398 15.9983 8.00232C15.9983 5.86482 15.167 3.85544 13.6545 2.34607ZM13.9983 8.00232C13.9983 9.29607 13.5858 10.4961 12.8889 11.4773L4.52329 3.11169C5.50454 2.41482 6.70454 2.00232 7.99829 2.00232C11.3077 2.00232 13.9983 4.69294 13.9983 8.00232ZM1.99829 8.00232C1.99829 6.70857 2.41079 5.50857 3.10767 4.52732L11.4733 12.8929C10.492 13.5898 9.29204 14.0023 7.99829 14.0023C4.68892 14.0023 1.99829 11.3117 1.99829 8.00232Z" />
<rect class="lexicon-icon-outline" transform="translate(-0.00170898 0.00231934)"/>
</svg>
