<!--
* SPDX-FileCopyrightText: © 2020 Liferay, Inc. <https://liferay.com>
* SPDX-FileCopyrightText: © 2020 Contributors to the project Clay <https://github.com/liferay/clay/graphs/contributors>
*
* SPDX-License-Identifier: BSD-3-Clause
-->
<svg  viewBox="0 0 16 16" xmlns="http://www.w3.org/2000/svg">
<path class="lexicon-icon-outline" d="M3.99829 8.00232H11.9983C12.551 8.00232 12.9983 8.44922 12.9983 9.00232C12.9983 9.55542 12.551 10.0023 11.9983 10.0023H3.99829C3.44556 10.0023 2.99829 9.55542 2.99829 9.00232C2.99829 8.44922 3.44556 8.00232 3.99829 8.00232Z" />
<path class="lexicon-icon-outline" d="M8.99829 11.0023H3.99829C3.44556 11.0023 2.99829 11.4492 2.99829 12.0023C2.99829 12.5554 3.44556 13.0023 3.99829 13.0023H8.99829C9.55103 13.0023 9.99829 12.5554 9.99829 12.0023C9.99829 11.4492 9.55103 11.0023 8.99829 11.0023Z" />
<path class="lexicon-icon-outline" d="M3.99829 3.00232H11.9983C12.5481 3.00232 12.9983 3.45227 12.9983 4.00232V6.00232C12.9983 6.55237 12.5481 7.00232 11.9983 7.00232H3.99829C3.44849 7.00232 2.99829 6.55237 2.99829 6.00232V4.00232C2.99829 3.45227 3.44849 3.00232 3.99829 3.00232Z" />
<path class="lexicon-icon-outline" fill-rule="evenodd" clip-rule="evenodd" d="M13.9983 0.00231934H1.99829C0.894775 0.00231934 -0.00170898 0.89917 -0.00170898 2.00232V14.0023C-0.00170898 15.1055 0.894775 16.0023 1.99829 16.0023H13.9983C15.1018 16.0023 15.9983 15.1055 15.9983 14.0023V2.00232C15.9983 0.89917 15.1018 0.00231934 13.9983 0.00231934ZM13.9983 14.0023H1.99829V2.00232H13.9983V14.0023Z" />
</svg>
