<!--
* SPDX-FileCopyrightText: © 2022 Liferay, Inc. <https://liferay.com>
* SPDX-FileCopyrightText: © 2022 Contributors to the project Clay <https://github.com/liferay/clay/graphs/contributors>
*
* SPDX-License-Identifier: BSD-3-Clause
-->
<svg viewBox="0 0 16 16" xmlns="http://www.w3.org/2000/svg"><path class="lexicon-icon-outline" d="M4 8h8a1 1 0 1 1 0 2H4a1 1 0 1 1 0-2Zm5 3H4a1 1 0 1 0 0 2h5a1 1 0 1 0 0-2ZM4 3h8c.55 0 1 .45 1 1v2c0 .55-.45 1-1 1H4c-.55 0-1-.45-1-1V4c0-.55.45-1 1-1Z"/><path class="lexicon-icon-outline" fill-rule="evenodd" clip-rule="evenodd" d="M14 0H2C.896 0 0 .897 0 2v12c0 1.103.896 2 2 2h12c1.104 0 2-.897 2-2V2c0-1.103-.896-2-2-2Zm0 14H2V2h12v12Z"/></svg>