<!--
* SPDX-FileCopyrightText: © 2020 Liferay, Inc. <https://liferay.com>
* SPDX-FileCopyrightText: © 2020 Contributors to the project Clay <https://github.com/liferay/clay/graphs/contributors>
*
* SPDX-License-Identifier: BSD-3-Clause
-->
<svg viewBox="0 0 16 16" xmlns="http://www.w3.org/2000/svg"><path d="M4 8.002h8a1 1 0 1 1 0 2H4a1 1 0 1 1 0-2Zm5 3H4a1 1 0 1 0 0 2h5a1 1 0 1 0 0-2Zm-5-8h8c.55 0 1 .45 1 1v2c0 .55-.45 1-1 1H4c-.55 0-1-.45-1-1v-2c0-.55.45-1 1-1Z"/><path fill-rule="evenodd" clip-rule="evenodd" d="M14 .002H2c-1.104 0-2 .897-2 2v12c0 1.103.896 2 2 2h12a2 2 0 0 0 2-2v-12c0-1.103-.896-2-2-2Zm0 14H2v-12h12v12Z"/></svg>
