<!--
* SPDX-FileCopyrightText: © 2026 Liferay, Inc. <https://liferay.com>
* SPDX-FileCopyrightText: © 2026 Contributors to the project Clay <https://github.com/liferay/clay/graphs/contributors>
*
* SPDX-License-Identifier: BSD-3-Clause
-->
<svg viewBox="0 0 16 16" xmlns="http://www.w3.org/2000/svg">
	<path class="lexicon-icon-outline" clip-rule="evenodd" d="M14 .01c1 0 2 .99 2 1.99v12c0 1-1 2-2 2l-11.606-.01C1 16 0 15.035 0 14V2C0 1 1 0 2.394.01H14ZM2 14h4v-3H2v3ZM2 2v2h5v2H2v3h6v5h2v-4h2v4h2V8H9V6h5V2h-3v2H9V2H2Z" fill-rule="evenodd" />
</svg>