<!--
* SPDX-FileCopyrightText: © 2022 Liferay, Inc. <https://liferay.com>
* SPDX-FileCopyrightText: © 2022 Contributors to the project Clay <https://github.com/liferay/clay/graphs/contributors>
*
* SPDX-License-Identifier: BSD-3-Clause
-->
<svg viewBox="0 0 16 16" xmlns="http://www.w3.org/2000/svg"><path fill-rule="evenodd" clip-rule="evenodd" d="M15 1.002v10c0 .52-.447.997-1 1H3.506C1.503 12 1.496 15 3.5 15.002l11 .003c.653.038.675.957 0 .997l-10.994-.01C1 16.003 1 14.003 1 14.003v-11c0-1.553 1.344-3 3-3h10c.553 0 1 .482 1 1Zm-11 9h9v-8H4v8Zm-.506 4c-.694-.03-.628-.99 0-1H13.5c.606.01.722.95 0 1H3.494Z"/></svg>
