<!--
* SPDX-FileCopyrightText: © 2022 Liferay, Inc. <https://liferay.com>
* SPDX-FileCopyrightText: © 2022 Contributors to the project Clay <https://github.com/liferay/clay/graphs/contributors>
*
* SPDX-License-Identifier: BSD-3-Clause
-->
<svg viewBox="0 0 16 16" xmlns="http://www.w3.org/2000/svg"><path class="lexicon-icon-outline" fill-rule="evenodd" clip-rule="evenodd" d="M15 1v10c0 .519-.447.997-1 1H3.506c-2.003-.003-2.01 2.997-.006 3l11 .003c.653.038.675.956 0 .997l-10.994-.01C1 16 1 14 1 14V3c0-1.553 1.344-3 3-3h10c.553 0 1 .481 1 1ZM4 10h9V2H4v8Z"/><path class="lexicon-icon-outline" d="M3.494 14c-.694-.031-.628-.99 0-1H13.5c.606.01.722.95 0 1H3.494Z"/></svg>