<!--
* SPDX-FileCopyrightText: © 2020 Liferay, Inc. <https://liferay.com>
* SPDX-FileCopyrightText: © 2020 Contributors to the project Clay <https://github.com/liferay/clay/graphs/contributors>
*
* SPDX-License-Identifier: BSD-3-Clause
-->
<svg  viewBox="0 0 16 16" xmlns="http://www.w3.org/2000/svg">
<path class="lexicon-icon-outline" fill-rule="evenodd" clip-rule="evenodd" d="M14.9983 1.00232V11.0023C14.9983 11.5211 14.5514 11.9992 13.9983 12.0023H3.50454C1.50142 11.9992 1.49517 14.9992 3.49829 15.0023L14.4983 15.0054C15.1514 15.0429 15.1733 15.9617 14.4983 16.0023L3.50454 15.9929C0.998291 16.0023 0.998291 14.0023 0.998291 14.0023V3.00232C0.998291 1.44919 2.34204 0.00231934 3.99829 0.00231934H13.9983C14.5514 0.00231934 14.9983 0.483569 14.9983 1.00232ZM3.99829 10.0023H12.9983V2.00232H3.99829V10.0023ZM3.4921 14.0023C2.79835 13.9711 2.86398 13.0117 3.4921 13.0023H13.4984C14.1046 13.0117 14.2202 13.9523 13.4984 14.0023H3.4921Z" />
</svg>
