<!--
* SPDX-FileCopyrightText: © 2022 Liferay, Inc. <https://liferay.com>
* SPDX-FileCopyrightText: © 2022 Contributors to the project Clay <https://github.com/liferay/clay/graphs/contributors>
*
* SPDX-License-Identifier: BSD-3-Clause
-->
<svg viewBox="0 0 16 16" xmlns="http://www.w3.org/2000/svg"><path class="lexicon-icon-outline" d="M2.994 1H.998A.998.998 0 0 0 0 2v1h3.992V2c0-.553-.446-1-.998-1ZM0 14c0 .553.446 1 .998 1h1.996a.998.998 0 0 0 .998-1v-1H0v1ZM3.992 4H0v8h3.992V4Zm3.992-3H5.988a.998.998 0 0 0-.998 1v1h3.99V2c0-.553-.445-1-.997-1ZM4.99 14c0 .553.446 1 .998 1h1.996a.998.998 0 0 0 .997-1v-1H4.99v1ZM8.981 4H4.99v8h3.99V4Zm2.754-2.9-.966.253a.999.999 0 0 0-.715 1.219l.253.969 2.897-.757-.253-.968a.996.996 0 0 0-1.216-.716Zm1.721 2.651-2.897.756 2.01 7.742 2.897-.755-2.01-7.743Zm-.386 10.433a.996.996 0 0 0 1.216.716l.967-.253a.999.999 0 0 0 .714-1.219l-.253-.969-2.897.757.253.968Z"/></svg>