<!--
* SPDX-FileCopyrightText: © 2026 Liferay, Inc. <https://liferay.com>
* SPDX-FileCopyrightText: © 2026 Contributors to the project Clay <https://github.com/liferay/clay/graphs/contributors>
*
* SPDX-License-Identifier: BSD-3-Clause
-->
<svg viewBox="0 0 16 16" xmlns="http://www.w3.org/2000/svg">
	<path class="lexicon-icon-outline" d="M3.992 14c0 .553-.446 1-.998 1H.998A.998.998 0 0 1 0 14v-1h3.992v1Zm4.989 0c0 .553-.446 1-.998 1H5.987a.998.998 0 0 1-.998-1v-1h3.992v1Zm4.523-8.549c.63.887 1.287 2.19 1.81 3.695 1.034 2.967.694 5.73.301 5.85-.393.118-2.409-1.931-3.442-4.898-.524-1.504-.816-2.918-.864-3.982a1.75 1.75 0 0 0 1.244.086c.427-.13.758-.407.95-.75ZM3.992 12H0V4h3.992v8Zm4.989 0H4.99V4h3.992v8Zm2.887-10.85c-.188.937.703.892 1.215 1.717.067.108.13.245.19.417.282.81-.193 1.679-1.06 1.942-.868.263-1.8-.18-2.082-.99a1.46 1.46 0 0 1-.048-.173 2.408 2.408 0 0 1 .214-1.787A2.708 2.708 0 0 1 11.898 1l-.03.15ZM2.994 1c.552 0 .998.447.998 1v1H0V2c0-.553.446-1 .998-1h1.996Zm4.989 0c.552 0 .998.447.998 1v1H4.99V2c0-.553.446-1 .998-1h1.996Z" />
</svg>