<!--
* SPDX-FileCopyrightText: © 2020 Liferay, Inc. <https://liferay.com>
* SPDX-FileCopyrightText: © 2020 Contributors to the project Clay <https://github.com/liferay/clay/graphs/contributors>
*
* SPDX-License-Identifier: BSD-3-Clause
-->
<svg viewBox="0 0 16 16" xmlns="http://www.w3.org/2000/svg"><path d="M2.994 1.002H.998a.998.998 0 0 0-.998 1v1h3.992v-1c0-.553-.446-1-.998-1ZM0 14.002c0 .553.446 1 .998 1h1.996a.998.998 0 0 0 .998-1v-1H0v1Zm3.992-10H0v8h3.992v-8Zm3.992-3H5.988a.998.998 0 0 0-.998 1v1h3.99v-1c0-.553-.445-1-.997-1Zm-2.994 13c0 .553.446 1 .998 1h1.996a.998.998 0 0 0 .997-1v-1H4.99v1Zm3.991-10H4.99v8h3.99v-8Zm2.754-2.9-.966.253a.999.999 0 0 0-.715 1.22l.253.968 2.897-.756-.253-.969a.996.996 0 0 0-1.216-.716Zm1.721 2.651-2.897.756 2.01 7.742 2.897-.755-2.01-7.743Zm-.386 10.434a.996.996 0 0 0 1.216.715l.967-.253a.999.999 0 0 0 .714-1.218l-.253-.97-2.897.757.253.969Z"/></svg>
