<!--
* SPDX-FileCopyrightText: © 2022 Liferay, Inc. <https://liferay.com>
* SPDX-FileCopyrightText: © 2022 Contributors to the project Clay <https://github.com/liferay/clay/graphs/contributors>
*
* SPDX-License-Identifier: BSD-3-Clause
-->
<svg viewBox="0 0 16 16" xmlns="http://www.w3.org/2000/svg"><path class="lexicon-icon-outline" d="M15 2.5a.5.5 0 0 0-.5-.5h-13a.5.5 0 0 0 0 1h13a.5.5 0 0 0 .5-.5ZM1 7a1 1 0 0 1 1-1h12a1 1 0 1 1 0 2H2a1 1 0 0 1-1-1Zm0 5a1 1 0 0 1 1-1h12a1 1 0 0 1 1 1v1a1 1 0 0 1-1 1H2a1 1 0 0 1-1-1v-1Z"/></svg>