<!--
* SPDX-FileCopyrightText: © 2020 Liferay, Inc. <https://liferay.com>
* SPDX-FileCopyrightText: © 2020 Contributors to the project Clay <https://github.com/liferay/clay/graphs/contributors>
*
* SPDX-License-Identifier: BSD-3-Clause
-->
<svg  viewBox="0 0 16 16" xmlns="http://www.w3.org/2000/svg">
<rect class="lexicon-icon-outline"  transform="translate(-0.00170898 0.00231934)" />
<path class="lexicon-icon-outline" d="M14.9983 2.50232C14.9983 2.22618 14.7744 2.00232 14.4983 2.00232H1.49829C1.22215 2.00232 0.998291 2.22618 0.998291 2.50232C0.998291 2.77846 1.22215 3.00232 1.49829 3.00232H14.4983C14.7744 3.00232 14.9983 2.77846 14.9983 2.50232Z" />
<path class="lexicon-icon-outline" d="M0.998291 7.00232C0.998291 6.45003 1.44601 6.00232 1.99829 6.00232H13.9983C14.5506 6.00232 14.9983 6.45003 14.9983 7.00232C14.9983 7.5546 14.5506 8.00232 13.9983 8.00232H1.99829C1.44601 8.00232 0.998291 7.5546 0.998291 7.00232Z" />
<path class="lexicon-icon-outline" d="M0.998291 12.0023C0.998291 11.45 1.44601 11.0023 1.99829 11.0023H13.9983C14.5506 11.0023 14.9983 11.45 14.9983 12.0023V13.0023C14.9983 13.5546 14.5506 14.0023 13.9983 14.0023H1.99829C1.44601 14.0023 0.998291 13.5546 0.998291 13.0023V12.0023Z" />
</svg>
