<!--
* SPDX-FileCopyrightText: © 2020 Liferay, Inc. <https://liferay.com>
* SPDX-FileCopyrightText: © 2020 Contributors to the project Clay <https://github.com/liferay/clay/graphs/contributors>
*
* SPDX-License-Identifier: BSD-3-Clause
-->
<svg  viewBox="0 0 16 16" xmlns="http://www.w3.org/2000/svg">
<rect class="lexicon-icon-outline"  transform="translate(-0.00170898 0.00231934)" />
<path class="lexicon-icon-outline" d="M1.99829 3.00232C1.44601 3.00232 0.998291 3.45003 0.998291 4.00232C0.998291 4.5546 1.44601 5.00232 1.99829 5.00232H13.9983C14.5506 5.00232 14.9983 4.5546 14.9983 4.00232C14.9983 3.45003 14.5506 3.00232 13.9983 3.00232H1.99829Z" />
<path class="lexicon-icon-outline" d="M1.99829 7.00232C1.44601 7.00232 0.998291 7.45003 0.998291 8.00232C0.998291 8.5546 1.44601 9.00232 1.99829 9.00232H5.99829C6.55058 9.00232 6.99829 8.5546 6.99829 8.00232C6.99829 7.45003 6.55058 7.00232 5.99829 7.00232H1.99829Z" />
<path class="lexicon-icon-outline" d="M0.998291 12.0023C0.998291 11.45 1.44601 11.0023 1.99829 11.0023H3.99829C4.55058 11.0023 4.99829 11.45 4.99829 12.0023C4.99829 12.5546 4.55058 13.0023 3.99829 13.0023H1.99829C1.44601 13.0023 0.998291 12.5546 0.998291 12.0023Z" />
<path class="lexicon-icon-outline" d="M9.99829 7.00232C9.44601 7.00232 8.99829 7.45003 8.99829 8.00232C8.99829 8.5546 9.44601 9.00232 9.99829 9.00232H13.9983C14.5506 9.00232 14.9983 8.5546 14.9983 8.00232C14.9983 7.45003 14.5506 7.00232 13.9983 7.00232H9.99829Z" />
<path class="lexicon-icon-outline" d="M5.99829 12.0023C5.99829 11.45 6.44601 11.0023 6.99829 11.0023H8.99829C9.55058 11.0023 9.99829 11.45 9.99829 12.0023C9.99829 12.5546 9.55058 13.0023 8.99829 13.0023H6.99829C6.44601 13.0023 5.99829 12.5546 5.99829 12.0023Z" />
<path class="lexicon-icon-outline" d="M11.9983 11.0023C11.446 11.0023 10.9983 11.45 10.9983 12.0023C10.9983 12.5546 11.446 13.0023 11.9983 13.0023H13.9983C14.5506 13.0023 14.9983 12.5546 14.9983 12.0023C14.9983 11.45 14.5506 11.0023 13.9983 11.0023H11.9983Z" />
</svg>
