<!--
* SPDX-FileCopyrightText: © 2022 Liferay, Inc. <https://liferay.com>
* SPDX-FileCopyrightText: © 2022 Contributors to the project Clay <https://github.com/liferay/clay/graphs/contributors>
*
* SPDX-License-Identifier: BSD-3-Clause
-->
<svg viewBox="0 0 16 16" xmlns="http://www.w3.org/2000/svg"><path fill="#fff" d="M0 .002h16v16H0z"/><path d="M2 3.002a1 1 0 1 0 0 2h12a1 1 0 1 0 0-2H2Zm0 4a1 1 0 1 0 0 2h4a1 1 0 0 0 0-2H2Zm-1 5a1 1 0 0 1 1-1h2a1 1 0 1 1 0 2H2a1 1 0 0 1-1-1Zm9-5a1 1 0 1 0 0 2h4a1 1 0 1 0 0-2h-4Zm-4 5a1 1 0 0 1 1-1h2a1 1 0 1 1 0 2H7a1 1 0 0 1-1-1Zm6-1a1 1 0 1 0 0 2h2a1 1 0 1 0 0-2h-2Z"/></svg>
