<!--
* SPDX-FileCopyrightText: © 2020 Liferay, Inc. <https://liferay.com>
* SPDX-FileCopyrightText: © 2020 Contributors to the project Clay <https://github.com/liferay/clay/graphs/contributors>
*
* SPDX-License-Identifier: BSD-3-Clause
-->
<svg  viewBox="0 0 16 16" xmlns="http://www.w3.org/2000/svg">
<path class="lexicon-icon-outline" d="M9.99976 8.00232H11.9998C12.5525 8.00232 12.9998 7.55545 12.9998 7.00232V5.00232C12.9998 4.44919 12.5525 4.00232 11.9998 4.00232H9.99976C9.44702 4.00232 8.99976 4.44919 8.99976 5.00232V7.00232C8.99976 7.55545 9.44702 8.00232 9.99976 8.00232Z" />
<path class="lexicon-icon-outline" d="M11.9998 13.0023H9.99976C9.44702 13.0023 8.99976 12.5555 8.99976 12.0023V10.0023C8.99976 9.44919 9.44702 9.00232 9.99976 9.00232H11.9998C12.5525 9.00232 12.9998 9.44919 12.9998 10.0023V12.0023C12.9998 12.5555 12.5525 13.0023 11.9998 13.0023Z" />
<path class="lexicon-icon-outline" d="M4.99976 13.0023H6.99976C7.55249 13.0023 7.99976 12.5555 7.99976 12.0023V10.0023C7.99976 9.44919 7.55249 9.00232 6.99976 9.00232H4.99976C4.44702 9.00232 3.99976 9.44919 3.99976 10.0023V12.0023C3.99976 12.5555 4.44702 13.0023 4.99976 13.0023Z" />
<path class="lexicon-icon-outline" fill-rule="evenodd" clip-rule="evenodd" d="M13.9998 0.00231934H1.99976C0.89624 0.00231934 -0.000244141 0.8992 -0.000244141 2.00232V14.0023C-0.000244141 15.1054 0.89624 16.0023 1.99976 16.0023H13.9998C15.1033 16.0023 15.9998 15.1054 15.9998 14.0023V2.00232C15.9998 0.8992 15.1033 0.00231934 13.9998 0.00231934ZM1.99976 2.00232H13.9998V14.0023H1.99976V2.00232Z" />
</svg>
