<!--
* SPDX-FileCopyrightText: © 2022 Liferay, Inc. <https://liferay.com>
* SPDX-FileCopyrightText: © 2022 Contributors to the project Clay <https://github.com/liferay/clay/graphs/contributors>
*
* SPDX-License-Identifier: BSD-3-Clause
-->
<svg viewBox="0 0 16 16" xmlns="http://www.w3.org/2000/svg"><path class="lexicon-icon-outline" d="M10 8h2a1 1 0 0 0 1-1V5a1 1 0 0 0-1-1h-2a1 1 0 0 0-1 1v2a1 1 0 0 0 1 1Zm2 5h-2a1 1 0 0 1-1-1v-2a1 1 0 0 1 1-1h2a1 1 0 0 1 1 1v2a1 1 0 0 1-1 1Zm-7 0h2a1 1 0 0 0 1-1v-2a1 1 0 0 0-1-1H5a1 1 0 0 0-1 1v2a1 1 0 0 0 1 1Z"/><path class="lexicon-icon-outline" fill-rule="evenodd" clip-rule="evenodd" d="M14 0H2C.896 0 0 .897 0 2v12c0 1.103.896 2 2 2h12c1.104 0 2-.897 2-2V2c0-1.103-.896-2-2-2ZM2 2h12v12H2V2Z"/></svg>