<!--
* SPDX-FileCopyrightText: © 2024 Liferay, Inc. <https://liferay.com>
* SPDX-FileCopyrightText: © 2024 Contributors to the project Clay <https://github.com/liferay/clay/graphs/contributors>
*
* SPDX-License-Identifier: BSD-3-Clause
-->
<svg viewBox="0 0 512 512" xmlns="http://www.w3.org/2000/svg"><path d="M160.03 64.991c0-17.674-14.327-32.001-32.001-32.001H96.027c-35.314 0-64.003 28.701-64.003 64.003v320.014c0 35.302 28.69 64.003 64.003 64.003h32.002c17.674 0 32.001-14.327 32.001-32.001s-14.327-32.002-32.001-32.002H96.027V96.993h32.002c17.674 0 32.001-14.328 32.001-32.002Zm320.015 352.016c0 35.302-28.689 64.003-64.003 64.003h-32.001c-17.674 0-32.002-14.327-32.002-32.001s14.328-32.002 32.002-32.002h32.001V96.993h-32.001c-17.674 0-32.002-14.328-32.002-32.002 0-17.674 14.328-32.001 32.002-32.001h32.001c35.314 0 64.003 28.701 64.003 64.003v320.014Z"/></svg>