<!--
* SPDX-FileCopyrightText: © 2020 Liferay, Inc. <https://liferay.com>
* SPDX-FileCopyrightText: © 2020 Contributors to the project Clay <https://github.com/liferay/clay/graphs/contributors>
*
* SPDX-License-Identifier: BSD-3-Clause
-->
<svg  viewBox="0 0 16 16" xmlns="http://www.w3.org/2000/svg">
<path class="lexicon-icon-outline" d="M4.88993 1.00232C4.06561 1.00232 3.27505 1.31839 2.69217 1.881C2.10928 2.44361 1.78182 3.20667 1.78182 4.00232V5.17432C1.78177 5.43951 1.67257 5.69383 1.47827 5.88132L1.17264 6.17632C1.16965 6.17924 1.16614 6.18161 1.16228 6.18332C-0.389704 6.93332 -0.389704 9.07232 1.16228 9.82132C1.16614 9.82303 1.16965 9.8254 1.17264 9.82832L1.47827 10.1233C1.67257 10.3108 1.78177 10.5651 1.78182 10.8303V12.0023C1.78182 12.798 2.10928 13.561 2.69217 14.1236C3.27505 14.6862 4.06561 15.0023 4.88993 15.0023C5.1647 15.0023 5.42822 14.897 5.62252 14.7094C5.81681 14.5219 5.92596 14.2675 5.92596 14.0023C5.92596 13.7371 5.81681 13.4827 5.62252 13.2952C5.42822 13.1077 5.1647 13.0023 4.88993 13.0023C4.61515 13.0023 4.35164 12.897 4.15734 12.7094C3.96305 12.5219 3.85389 12.2675 3.85389 12.0023V10.8303C3.85344 10.0351 3.52589 9.27255 2.94322 8.71032L2.63759 8.41432C2.47395 8.25535 2.28422 8.12357 2.07606 8.02432L2.07502 8.02332C2.07502 8.02332 2.06984 8.01432 2.06984 8.00232C2.06984 7.99032 2.07502 7.98232 2.07502 7.98232V7.98032L2.08953 7.97132C2.29259 7.87432 2.477 7.74532 2.63759 7.59132L2.94322 7.29532C3.23204 7.01689 3.46121 6.68627 3.61764 6.32235C3.77408 5.95843 3.85471 5.56832 3.85493 5.17432V4.00232C3.85493 3.7371 3.96408 3.48275 4.15838 3.29521C4.35267 3.10768 4.61619 3.00232 4.89096 3.00232C5.16574 3.00232 5.42926 2.89696 5.62355 2.70943C5.81785 2.52189 5.927 2.26754 5.927 2.00232C5.927 1.7371 5.81785 1.48275 5.62355 1.29521C5.42926 1.10768 5.1647 1.00232 4.88993 1.00232ZM11.1061 1.00232C11.9305 1.00232 12.721 1.31839 13.3039 1.881C13.8868 2.44361 14.2142 3.20667 14.2142 4.00232V5.17432C14.2143 5.43951 14.3235 5.69383 14.5178 5.88132L14.8245 6.17632C14.8268 6.17906 14.8296 6.18142 14.8328 6.18332C16.3868 6.93332 16.3868 9.07232 14.8328 9.82132C14.8296 9.82322 14.8268 9.82558 14.8245 9.82832L14.5178 10.1233C14.3235 10.3108 14.2143 10.5651 14.2142 10.8303V12.0023C14.2142 12.798 13.8868 13.561 13.3039 14.1236C12.721 14.6862 11.9305 15.0023 11.1061 15.0023C10.8314 15.0023 10.5678 14.897 10.3735 14.7094C10.1793 14.5219 10.0701 14.2675 10.0701 14.0023C10.0701 13.7371 10.1793 13.4827 10.3735 13.2952C10.5678 13.1077 10.8314 13.0023 11.1061 13.0023C11.3809 13.0023 11.6444 12.897 11.8387 12.7094C12.033 12.5219 12.1422 12.2675 12.1422 12.0023V10.8303C12.1426 10.0351 12.4702 9.27255 13.0528 8.71032L13.3585 8.41432C13.5224 8.25526 13.7125 8.12348 13.921 8.02432C13.921 8.02432 13.9262 8.01432 13.9262 8.00232C13.9262 7.99032 13.9221 7.98232 13.9221 7.98232L13.92 7.98032C13.92 7.98032 13.9169 7.97632 13.9065 7.97132C13.7039 7.87389 13.5188 7.74558 13.3585 7.59132L13.0528 7.29532C12.4699 6.73284 12.1423 5.9699 12.1422 5.17432V4.00232C12.1422 3.7371 12.033 3.48275 11.8387 3.29521C11.6444 3.10768 11.3809 3.00232 11.1061 3.00232C10.8314 3.00232 10.5678 2.89696 10.3735 2.70943C10.1793 2.52189 10.0701 2.26754 10.0701 2.00232C10.0701 1.7371 10.1793 1.48275 10.3735 1.29521C10.5678 1.10768 10.8314 1.00232 11.1061 1.00232Z" />
</svg>
