<!--
* SPDX-FileCopyrightText: © 2024 Liferay, Inc. <https://liferay.com>
* SPDX-FileCopyrightText: © 2024 Contributors to the project Clay <https://github.com/liferay/clay/graphs/contributors>
*
* SPDX-License-Identifier: BSD-3-Clause
-->
<svg viewBox="0 0 16 16" xmlns="http://www.w3.org/2000/svg"><path d="M4.892 1.002c-.825 0-1.615.316-2.198.879a2.948 2.948 0 0 0-.91 2.121v1.172c0 .266-.11.52-.304.707l-.306.295a2.003 2.003 0 0 0 0 3.652l.306.295a.983.983 0 0 1 .304.707v1.172c0 .796.327 1.559.91 2.122a3.166 3.166 0 0 0 2.198.878c.274 0 .538-.105.732-.293a.983.983 0 0 0 .304-.707c0-.265-.11-.52-.304-.707a1.055 1.055 0 0 0-.732-.293c-.275 0-.539-.105-.733-.293a.983.983 0 0 1-.303-.707V10.83c0-.795-.328-1.557-.911-2.12l-.306-.296a2.107 2.107 0 0 0-.561-.39h-.001s-.005-.01-.005-.022c0-.012.005-.02.005-.02V7.98l.014-.009a2.1 2.1 0 0 0 .548-.38l.306-.296a2.98 2.98 0 0 0 .674-.973 2.91 2.91 0 0 0 .238-1.148V4.002c0-.265.109-.52.303-.707.194-.187.458-.293.733-.293.274 0 .538-.105.732-.293a.983.983 0 0 0 .304-.707c0-.265-.11-.52-.304-.707a1.058 1.058 0 0 0-.733-.293Zm6.216 0c.824 0 1.615.316 2.198.879s.91 1.326.91 2.121v1.172c0 .266.11.52.304.707l.306.295a.032.032 0 0 0 .008.007 2.002 2.002 0 0 1 0 3.638.032.032 0 0 0-.008.007l-.306.295a.983.983 0 0 0-.304.707v1.172c0 .796-.327 1.559-.91 2.122a3.166 3.166 0 0 1-2.198.878c-.275 0-.538-.105-.733-.293a.983.983 0 0 1-.303-.707c0-.265.109-.52.303-.707a1.06 1.06 0 0 1 .733-.293c.275 0 .538-.105.732-.293a.983.983 0 0 0 .304-.707V10.83c0-.795.328-1.557.91-2.12l.306-.296c.164-.159.354-.29.563-.39 0 0 .005-.01.005-.022a.048.048 0 0 0-.004-.02l-.002-.002s-.003-.004-.014-.009a2.107 2.107 0 0 1-.548-.38l-.305-.296a2.948 2.948 0 0 1-.911-2.12V4.001c0-.265-.11-.52-.304-.707a1.055 1.055 0 0 0-.732-.293c-.275 0-.538-.105-.733-.293a.983.983 0 0 1-.303-.707c0-.265.109-.52.303-.707a1.06 1.06 0 0 1 .733-.293Z"/></svg>
