<!--
* SPDX-FileCopyrightText: © 2020 Liferay, Inc. <https://liferay.com>
* SPDX-FileCopyrightText: © 2020 Contributors to the project Clay <https://github.com/liferay/clay/graphs/contributors>
*
* SPDX-License-Identifier: BSD-3-Clause
-->
<svg  viewBox="0 0 16 16" xmlns="http://www.w3.org/2000/svg">
<path class="lexicon-icon-outline" d="M4.99829 2.00232C4.99829 1.45003 4.55058 1.00232 3.99829 1.00232H2.99829C1.89478 1.00232 0.998291 1.8992 0.998291 3.00232V13.0023C0.998291 14.1054 1.89478 15.0023 2.99829 15.0023H3.99829C4.55058 15.0023 4.99829 14.5546 4.99829 14.0023C4.99829 13.45 4.55058 13.0023 3.99829 13.0023H2.99829V3.00232H3.99829C4.55058 3.00232 4.99829 2.5546 4.99829 2.00232Z" />
<path class="lexicon-icon-outline" d="M14.9983 13.0023C14.9983 14.1054 14.1018 15.0023 12.9983 15.0023H11.9983C11.446 15.0023 10.9983 14.5546 10.9983 14.0023C10.9983 13.45 11.446 13.0023 11.9983 13.0023H12.9983V3.00232H11.9983C11.446 3.00232 10.9983 2.5546 10.9983 2.00232C10.9983 1.45003 11.446 1.00232 11.9983 1.00232H12.9983C14.1018 1.00232 14.9983 1.8992 14.9983 3.00232V13.0023Z" />
</svg>
