<!--
* SPDX-FileCopyrightText: © 2024 Liferay, Inc. <https://liferay.com>
* SPDX-FileCopyrightText: © 2024 Contributors to the project Clay <https://github.com/liferay/clay/graphs/contributors>
*
* SPDX-License-Identifier: BSD-3-Clause
-->
<svg viewBox="0 0 16 16" xmlns="http://www.w3.org/2000/svg"><path d="M5 2.002a1 1 0 0 0-1-1H3c-1.104 0-2 .897-2 2v10c0 1.103.896 2 2 2h1a1 1 0 1 0 0-2H3v-10h1a1 1 0 0 0 1-1Zm10 11c0 1.103-.896 2-2 2h-1a1 1 0 1 1 0-2h1v-10h-1a1 1 0 1 1 0-2h1c1.104 0 2 .897 2 2v10Z"/></svg>
