<!--
* SPDX-FileCopyrightText: © 2020 Liferay, Inc. <https://liferay.com>
* SPDX-FileCopyrightText: © 2020 Contributors to the project Clay <https://github.com/liferay/clay/graphs/contributors>
*
* SPDX-License-Identifier: BSD-3-Clause
-->
<svg viewBox="0 0 16 16" xmlns="http://www.w3.org/2000/svg"><path fill-rule="evenodd" clip-rule="evenodd" d="M3.494 3.002H1c-.6 0-1 .4-1 1.002V12c0 .6.4 1.001 1 1.001h2.497c.3 0 .6-.1.8-.4L7.49 8.603c.301-.4.301-.901 0-1.198L4.294 3.403c-.2-.3-.5-.4-.8-.4Zm0 1.002 3.193 3.998-3.193 4H1V4.003h2.494Z"/><path d="M8.087 13h3.694c.3 0 .6-.1.8-.401l3.193-3.996c.3-.297.3-.798 0-1.198l-3.193-3.999c-.2-.3-.5-.4-.8-.4H8.087c-.8 0-1.3.998-.8 1.598l2.697 3.398L7.287 11.4c-.497.598 0 1.6.8 1.6Z"/></svg>
