<!--
* SPDX-FileCopyrightText: © 2020 Liferay, Inc. <https://liferay.com>
* SPDX-FileCopyrightText: © 2020 Contributors to the project Clay <https://github.com/liferay/clay/graphs/contributors>
*
* SPDX-License-Identifier: BSD-3-Clause
-->
<svg  viewBox="0 0 16 16" xmlns="http://www.w3.org/2000/svg">
<path class="lexicon-icon-outline" fill-rule="evenodd" clip-rule="evenodd" d="M3.49243 3.00232H0.998291C0.398682 3.00232 -0.00170898 3.40283 -0.00170898 4.00357V12.0011C-0.00170898 12.6018 0.398682 13.0023 0.998291 13.0023H3.49536C3.79517 13.0023 4.09497 12.9022 4.29517 12.6018L7.48853 8.60306C7.78931 8.20258 7.78931 7.70193 7.48853 7.40469L4.29224 3.40283C4.09204 3.10245 3.79224 3.00232 3.49243 3.00232ZM3.49243 4.00357L6.68579 8.00232L3.49243 12.0011H0.998291V4.00357H3.49243Z" />
<path class="lexicon-icon-outline" d="M8.08521 12.9992H11.7795C12.0793 12.9992 12.3792 12.8991 12.5793 12.5987L15.7727 8.60309C16.0725 8.30585 16.0725 7.80521 15.7727 7.40472L12.5793 3.40598C12.3792 3.10559 12.0793 3.00546 11.7795 3.00546H8.08521C7.2854 3.00546 6.7854 4.00357 7.2854 4.60434L9.98267 8.00232L7.2854 11.4003C6.78833 11.998 7.2854 12.9992 8.08521 12.9992Z" />
</svg>
