<!--
* SPDX-FileCopyrightText: © 2022 Liferay, Inc. <https://liferay.com>
* SPDX-FileCopyrightText: © 2022 Contributors to the project Clay <https://github.com/liferay/clay/graphs/contributors>
*
* SPDX-License-Identifier: BSD-3-Clause
-->
<svg viewBox="0 0 16 16" xmlns="http://www.w3.org/2000/svg"><path class="lexicon-icon-outline" fill-rule="evenodd" clip-rule="evenodd" d="M3.494 3H1c-.6 0-1 .4-1 1.001V12c0 .599.4 1 1 1h2.497c.3 0 .6-.1.8-.4l3.193-4c.301-.4.301-.9 0-1.198L4.294 3.401c-.2-.3-.5-.401-.8-.401Zm0 2.001L5.687 8l-2.193 2.999H2V5h1.494Z"/><path class="lexicon-icon-outline" d="M8.087 12.997h3.694c.3 0 .6-.1.8-.4L15.774 8.6c.3-.297.3-.798 0-1.199l-3.193-3.998c-.2-.3-.5-.4-.8-.4H8.087c-.8 0-1.3.997-.8 1.598L9.984 8l-2.697 3.398c-.497.598 0 1.599.8 1.599Z"/></svg>