<!--
* SPDX-FileCopyrightText: © 2020 Liferay, Inc. <https://liferay.com>
* SPDX-FileCopyrightText: © 2020 Contributors to the project Clay <https://github.com/liferay/clay/graphs/contributors>
*
* SPDX-License-Identifier: BSD-3-Clause
-->
<svg  viewBox="0 0 16 16" xmlns="http://www.w3.org/2000/svg">
<path class="lexicon-icon-outline" fill-rule="evenodd" clip-rule="evenodd" d="M11.9983 4.00232H14.9983C15.5505 4.00232 15.9983 4.45013 15.9983 5.00232V8.67232C15.9983 9.15357 15.6558 9.56638 15.1827 9.65513L8.99829 10.8148V10.5023C8.99829 10.2261 8.77454 10.0023 8.49829 10.0023H7.49829C7.22204 10.0023 6.99829 10.2261 6.99829 10.5023V10.8148L0.813916 9.65513C0.341104 9.5667 -0.00170898 9.15357 -0.00170898 8.67232V5.00232C-0.00170898 4.45013 0.446104 4.00232 0.998291 4.00232H3.99829V3.00232C3.99829 1.89763 4.8936 1.00232 5.99829 1.00232H9.99829C11.103 1.00232 11.9983 1.89763 11.9983 3.00232V4.00232ZM5.99829 4.00232H9.99829V3.00232H5.99829V4.00232Z" />
<path class="lexicon-icon-outline" d="M8.99829 11.8148L15.7614 10.5467C15.8845 10.5236 15.9983 10.618 15.9983 10.7433V14.0023C15.9983 14.5545 15.5505 15.0023 14.9983 15.0023H0.998291C0.446104 15.0023 -0.00170898 14.5545 -0.00170898 14.0023V10.7433C-0.00170898 10.618 0.112041 10.5236 0.235166 10.5467L6.99829 11.8148V12.5023C6.99829 12.7786 7.22204 13.0023 7.49829 13.0023H8.49829C8.77454 13.0023 8.99829 12.7786 8.99829 12.5023V11.8148Z" />
<rect class="lexicon-icon-outline" transform="translate(-0.00170898 0.00231934)"/>
</svg>
