<!--
* SPDX-FileCopyrightText: © 2022 Liferay, Inc. <https://liferay.com>
* SPDX-FileCopyrightText: © 2022 Contributors to the project Clay <https://github.com/liferay/clay/graphs/contributors>
*
* SPDX-License-Identifier: BSD-3-Clause
-->
<svg viewBox="0 0 16 16" xmlns="http://www.w3.org/2000/svg"><path class="lexicon-icon-outline" fill-rule="evenodd" clip-rule="evenodd" d="M12 4h3a1 1 0 0 1 1 1v3.67a1 1 0 0 1-.816.983l-6.185 1.16V10.5a.5.5 0 0 0-.5-.5h-1a.5.5 0 0 0-.5.5v.313L.815 9.652a1 1 0 0 1-.816-.983V5a1 1 0 0 1 1-1h3V3a2 2 0 0 1 2-2h4a2 2 0 0 1 2 2v1ZM6 4h4V3H6v1Z"/><path class="lexicon-icon-outline" d="m9 11.813 6.762-1.269a.2.2 0 0 1 .237.197V14a1 1 0 0 1-1 1H1a1 1 0 0 1-1-1v-3.259a.2.2 0 0 1 .237-.197L7 11.812v.688a.5.5 0 0 0 .5.5h1a.5.5 0 0 0 .5-.5v-.688Z"/></svg>