<!--
* SPDX-FileCopyrightText: © 2020 Liferay, Inc. <https://liferay.com>
* SPDX-FileCopyrightText: © 2020 Contributors to the project Clay <https://github.com/liferay/clay/graphs/contributors>
*
* SPDX-License-Identifier: BSD-3-Clause
-->
<svg viewBox="0 0 16 16" xmlns="http://www.w3.org/2000/svg"><path fill-rule="evenodd" clip-rule="evenodd" d="M12 4.002h3a1 1 0 0 1 1 1v3.67a1 1 0 0 1-.816.983L9 10.815v-.313a.5.5 0 0 0-.5-.5h-1a.5.5 0 0 0-.5.5v.313L.816 9.655A1 1 0 0 1 0 8.672v-3.67a1 1 0 0 1 1-1h3v-1a2 2 0 0 1 2-2h4a2 2 0 0 1 2 2v1Zm-6 0h4v-1H6v1Z"/><path d="m9 11.815 6.763-1.268a.2.2 0 0 1 .237.196v3.26a1 1 0 0 1-1 1H1a1 1 0 0 1-1-1v-3.26a.2.2 0 0 1 .237-.196L7 11.815v.687a.5.5 0 0 0 .5.5h1a.5.5 0 0 0 .5-.5v-.687Z"/></svg>
