<!--
* SPDX-FileCopyrightText: © 2020 Liferay, Inc. <https://liferay.com>
* SPDX-FileCopyrightText: © 2020 Contributors to the project Clay <https://github.com/liferay/clay/graphs/contributors>
*
* SPDX-License-Identifier: BSD-3-Clause
-->
<svg viewBox="0 0 16 16" xmlns="http://www.w3.org/2000/svg"><path d="M2.994 6.001h1v1h-1v-1Zm3.003 0H4.996v1h1.001v-1Zm2.003 0H6.998v1H8v-1Zm2.002 0H9v1h1v-1Zm2.002 0h-1.001v1h1.001v-1ZM3.995 8H2.994v1h1V8Zm2.002 0H4.996v1h1.001V8ZM8 8H6.998v1H8V8Zm2.002 0H9v1h1V8Zm2.002 0h-1.001v1h1.001V8Zm-8.009 2H2.994v1h1v-1Zm0 2H2.994v1h1v-1Zm2.002 0H4.996v1h1.001v-1Zm0-2H4.996v1h1.001v-1ZM8 10H6.998v1H8v-1Z"/><path fill-rule="evenodd" clip-rule="evenodd" d="M14.001.002a2 2 0 0 1 2 2v9.757a3 3 0 0 1-.881 2.123l-1.245 1.243a3 3 0 0 1-2.12.877H1.984C.889 16.002 0 14.96 0 13.865V4.983l.001-.063V2.002a2 2 0 0 1 2-2h12Zm-11.999 5v8.86c0 .04.032.1.063.138h8.928l.002-2a1 1 0 0 1 1-1h2.003V5.002H2.002Z"/></svg>
