<!--
* SPDX-FileCopyrightText: © 2022 Liferay, Inc. <https://liferay.com>
* SPDX-FileCopyrightText: © 2022 Contributors to the project Clay <https://github.com/liferay/clay/graphs/contributors>
*
* SPDX-License-Identifier: BSD-3-Clause
-->
<svg viewBox="0 0 16 16" xmlns="http://www.w3.org/2000/svg"><path class="lexicon-icon-outline" d="M9.88 12.213c1.3 0 2.352-1.04 2.352-2.324 0-1.284-1.053-2.324-2.353-2.324-1.3 0-2.353 1.04-2.353 2.324 0 1.284 1.053 2.324 2.353 2.324Z"/><path class="lexicon-icon-outline" fill-rule="evenodd" clip-rule="evenodd" d="M14.203 3.904h-1.031V2.506c0-.827-.688-1.506-1.525-1.506H7.56c-.837 0-1.525.679-1.525 1.506v1.398H1.792C.802 3.904 0 4.698 0 5.673v7.555C0 14.204.802 15 1.792 15h12.414c.987 0 1.793-.793 1.793-1.772V5.673a1.787 1.787 0 0 0-1.796-1.769ZM1.883 6.636c0 .512.422.929.94.929a.936.936 0 0 0 .942-.93.936.936 0 0 0-.941-.928.936.936 0 0 0-.94.929ZM9.88 14.07c-2.337 0-4.234-1.873-4.234-4.182S7.543 5.706 9.88 5.706c2.336 0 4.233 1.873 4.233 4.182S12.22 14.07 9.88 14.07Z"/><path class="lexicon-icon-outline" d="M5.645 2.562c0-.482-.4-.877-.887-.877H2.37a.886.886 0 0 0-.888.877v.697h4.162v-.697Z"/></svg>