<!--
* SPDX-FileCopyrightText: © 2020 Liferay, Inc. <https://liferay.com>
* SPDX-FileCopyrightText: © 2020 Contributors to the project Clay <https://github.com/liferay/clay/graphs/contributors>
*
* SPDX-License-Identifier: BSD-3-Clause
-->
<svg viewBox="0 0 16 16" xmlns="http://www.w3.org/2000/svg"><path d="M9.878 12.215c1.3 0 2.353-1.04 2.353-2.324 0-1.284-1.053-2.324-2.353-2.324-1.3 0-2.352 1.04-2.352 2.324 0 1.284 1.052 2.324 2.352 2.324Z"/><path fill-rule="evenodd" clip-rule="evenodd" d="M14.202 3.907h-1.03V2.509c0-.828-.689-1.507-1.526-1.507H7.56c-.838 0-1.525.68-1.525 1.507v1.398H1.792c-.99 0-1.793.793-1.793 1.768v7.556c0 .975.803 1.771 1.793 1.771h12.413c.987 0 1.793-.793 1.793-1.771V5.675a1.787 1.787 0 0 0-1.796-1.768ZM1.882 6.638c0 .513.422.93.94.93a.936.936 0 0 0 .942-.93.936.936 0 0 0-.941-.929.936.936 0 0 0-.94.93Zm7.996 7.435c-2.337 0-4.234-1.873-4.234-4.182 0-2.308 1.897-4.182 4.234-4.182 2.336 0 4.233 1.874 4.233 4.182 0 2.309-1.893 4.182-4.233 4.182Z"/><path d="M5.644 2.564c0-.481-.4-.877-.887-.877H2.37a.886.886 0 0 0-.887.877v.698h4.161v-.698Z"/></svg>
