<!--
* SPDX-FileCopyrightText: © 2020 Liferay, Inc. <https://liferay.com>
* SPDX-FileCopyrightText: © 2020 Contributors to the project Clay <https://github.com/liferay/clay/graphs/contributors>
*
* SPDX-License-Identifier: BSD-3-Clause
-->
<svg  viewBox="0 0 16 16" xmlns="http://www.w3.org/2000/svg">
<path class="lexicon-icon-outline" d="M9.87662 12.2153C11.1768 12.2153 12.2294 11.1752 12.2294 9.89119C12.2294 8.60728 11.1768 7.56714 9.87662 7.56714C8.57646 7.56714 7.52382 8.60728 7.52382 9.89119C7.52382 11.1752 8.57646 12.2153 9.87662 12.2153Z" />
<path class="lexicon-icon-outline" fill-rule="evenodd" clip-rule="evenodd" d="M14.2007 3.90663H13.1696V2.5085C13.1696 1.68133 12.4818 1.00232 11.6444 1.00232H7.55806C6.72064 1.00232 6.0329 1.68133 6.0329 2.5085V3.90663H1.79004C0.800006 3.90663 -0.00317383 4.69986 -0.00317383 5.67519V13.2307C-0.00317383 14.2061 0.800006 15.0023 1.79004 15.0023H14.2036C15.1907 15.0023 15.9968 14.2092 15.9968 13.2307V5.67519C15.9939 4.69986 15.1907 3.90663 14.2007 3.90663ZM1.88102 6.63814C1.88102 7.15051 2.30267 7.56714 2.82116 7.56714C3.33966 7.56714 3.76228 7.15051 3.76228 6.63814C3.76228 6.12583 3.33966 5.70913 2.82116 5.70913C2.30267 5.70913 1.88102 6.12583 1.88102 6.63814ZM9.87662 14.0734C7.53947 14.0734 5.64256 12.1999 5.64256 9.89125C5.64256 7.5826 7.53947 5.70913 9.87662 5.70913C12.2128 5.70913 14.1097 7.5826 14.1097 9.89125C14.1097 12.1999 12.2167 14.0734 9.87662 14.0734Z" />
<path class="lexicon-icon-outline" d="M5.64256 2.56401C5.64256 2.08256 5.24244 1.68749 4.75525 1.68749H2.36821C1.88102 1.68749 1.4809 2.08256 1.4809 2.56401V3.26156H5.64256V2.56401Z" />
</svg>
