<!--
* SPDX-FileCopyrightText: © 2020 Liferay, Inc. <https://liferay.com>
* SPDX-FileCopyrightText: © 2020 Contributors to the project Clay <https://github.com/liferay/clay/graphs/contributors>
*
* SPDX-License-Identifier: BSD-3-Clause
-->
<svg  viewBox="0 0 16 16" xmlns="http://www.w3.org/2000/svg">
<path class="lexicon-icon-outline" fill-rule="evenodd" clip-rule="evenodd" d="M1.46411 0.00231934H14.5325C15.3391 0.00231934 15.9983 0.661682 15.9954 1.46796V5.55542C15.9954 6.36169 15.3362 7.02106 14.5295 7.02106H1.46411C0.657471 7.02106 -0.00170898 6.36169 -0.00170898 5.55542V1.46796C-0.00170898 0.661682 0.657471 0.00231934 1.46411 0.00231934Z" />
<path class="lexicon-icon-outline" fill-rule="evenodd" clip-rule="evenodd" d="M14.5325 8.98047H1.46411C0.657471 8.98047 -0.00170898 9.63983 -0.00170898 10.4492V14.5367C-0.00170898 15.343 0.657471 16.0023 1.46411 16.0023H14.5295C15.3362 16.0023 15.9954 15.343 15.9954 14.5367V10.4492C15.9983 9.63983 15.3391 8.98047 14.5325 8.98047Z" />
</svg>
