<!--
* SPDX-FileCopyrightText: © 2022 Liferay, Inc. <https://liferay.com>
* SPDX-FileCopyrightText: © 2022 Contributors to the project Clay <https://github.com/liferay/clay/graphs/contributors>
*
* SPDX-License-Identifier: BSD-3-Clause
-->
<svg viewBox="0 0 16 16" xmlns="http://www.w3.org/2000/svg"><path class="lexicon-icon-outline" fill-rule="evenodd" clip-rule="evenodd" d="M1.465 0h13.068c.807 0 1.466.66 1.463 1.466v4.087A1.47 1.47 0 0 1 14.53 7.02H1.466A1.47 1.47 0 0 1 0 5.553V1.466C0 .659.66 0 1.465 0ZM2 5.022h12v-3H2v3Zm12.533 3.956H1.465A1.47 1.47 0 0 0 0 10.447v4.087C0 15.341.66 16 1.465 16h13.066a1.47 1.47 0 0 0 1.465-1.466v-4.087a1.466 1.466 0 0 0-1.463-1.469ZM2 14h12v-3H2v3Z"/></svg>