<svg xmlns:xlink="http://www.w3.org/1999/xlink" viewBox="0 0 512 512">
	<path class="lexicon-icon-outline cards2-box-top-left" d="M192 0h-160c-17.664 0-32 14.336-32 32v160c0 17.664 14.336 32 32 32h160c17.664 0 32-14.336 32-32v-160c0-17.664-14.336-32-32-32z"></path>
	<path class="lexicon-icon-outline cards2-box-bottom-left" d="M192 288h-160c-17.664 0-32 14.336-32 32v160c0 17.664 14.336 32 32 32h160c17.664 0 32-14.336 32-32v-160c0-17.664-14.336-32-32-32z"></path>
	<path class="lexicon-icon-outline cards2-box-top-right" d="M480 0h-160c-17.664 0-32 14.336-32 32v160c0 17.664 14.336 32 32 32h160c17.664 0 32-14.336 32-32v-160c0-17.664-14.336-32-32-32z"></path>
	<path class="lexicon-icon-outline cards2-box-bottom-right" d="M480 288h-160c-17.664 0-32 14.336-32 32v160c0 17.664 14.336 32 32 32h160c17.664 0 32-14.336 32-32v-160c0-17.664-14.336-32-32-32z"></path>
</svg>