<!--
* SPDX-FileCopyrightText: © 2020 Liferay, Inc. <https://liferay.com>
* SPDX-FileCopyrightText: © 2020 Contributors to the project Clay <https://github.com/liferay/clay/graphs/contributors>
*
* SPDX-License-Identifier: BSD-3-Clause
-->
<svg  viewBox="0 0 16 16" xmlns="http://www.w3.org/2000/svg">
<path class="lexicon-icon-outline" d="M0.998291 0.00231934H5.99829C6.55005 0.00231934 6.99829 0.450317 6.99829 1.00232V6.00232C6.99829 6.55432 6.55005 7.00232 5.99829 7.00232H0.998291C0.446533 7.00232 -0.00170898 6.55432 -0.00170898 6.00232V1.00232C-0.00170898 0.450317 0.446533 0.00231934 0.998291 0.00231934Z" />
<path class="lexicon-icon-outline" d="M0.998291 9.00232H5.99829C6.55005 9.00232 6.99829 9.45032 6.99829 10.0023V15.0023C6.99829 15.5543 6.55005 16.0023 5.99829 16.0023H0.998291C0.446533 16.0023 -0.00170898 15.5543 -0.00170898 15.0023V10.0023C-0.00170898 9.45032 0.446533 9.00232 0.998291 9.00232Z" />
<path class="lexicon-icon-outline" d="M14.9983 0.00231934H9.99829C9.44653 0.00231934 8.99829 0.450317 8.99829 1.00232V6.00232C8.99829 6.55432 9.44653 7.00232 9.99829 7.00232H14.9983C15.55 7.00232 15.9983 6.55432 15.9983 6.00232V1.00232C15.9983 0.450317 15.55 0.00231934 14.9983 0.00231934Z" />
<path class="lexicon-icon-outline" d="M9.99829 9.00232H14.9983C15.55 9.00232 15.9983 9.45032 15.9983 10.0023V15.0023C15.9983 15.5543 15.55 16.0023 14.9983 16.0023H9.99829C9.44653 16.0023 8.99829 15.5543 8.99829 15.0023V10.0023C8.99829 9.45032 9.44653 9.00232 9.99829 9.00232Z" />
</svg>
