<!--
* SPDX-FileCopyrightText: © 2022 Liferay, Inc. <https://liferay.com>
* SPDX-FileCopyrightText: © 2022 Contributors to the project Clay <https://github.com/liferay/clay/graphs/contributors>
*
* SPDX-License-Identifier: BSD-3-Clause
-->
<svg viewBox="0 0 16 16" xmlns="http://www.w3.org/2000/svg"><path class="lexicon-icon-outline" d="M13.9 1H2.2C1 1 0 2 0 3.2v9.7C0 14 1 15 2.2 15h11.7c1.2 0 2.1-1 2.1-2.1V3.2C16 2 15 1 13.9 1ZM2 3h2v10H2V3Zm12 10H6V3h8v10Z"/><path class="lexicon-icon-outline" d="M12 5H8v1h4V5Zm0 2H8v1h4V7Zm0 2H8v1h4V9Z"/></svg>