<!--
* SPDX-FileCopyrightText: © 2020 Liferay, Inc. <https://liferay.com>
* SPDX-FileCopyrightText: © 2020 Contributors to the project Clay <https://github.com/liferay/clay/graphs/contributors>
*
* SPDX-License-Identifier: BSD-3-Clause
-->
<svg viewBox="0 0 16 16" xmlns="http://www.w3.org/2000/svg"><path d="M13.9 1.002H2.2c-1.2 0-2.2 1-2.2 2.2v9.7c0 1.1 1 2.1 2.2 2.1h11.7c1.2 0 2.1-1 2.1-2.1v-9.7c0-1.2-1-2.2-2.1-2.2Zm-11.9 2h2v10H2v-10Zm12 10H6v-10h8v10Z"/><path d="M12 5.002H8v1h4v-1Zm0 2H8v1h4v-1Zm0 2H8v1h4v-1Z"/></svg>
