<!--
* SPDX-FileCopyrightText: © 2020 Liferay, Inc. <https://liferay.com>
* SPDX-FileCopyrightText: © 2020 Contributors to the project Clay <https://github.com/liferay/clay/graphs/contributors>
*
* SPDX-License-Identifier: BSD-3-Clause
-->
<svg  viewBox="0 0 16 16" xmlns="http://www.w3.org/2000/svg">
<path class="lexicon-icon-outline" d="M13.8983 1.00232H2.19829C0.998291 1.00232 -0.00170898 2.00232 -0.00170898 3.20232V12.9023C-0.00170898 14.0023 0.998291 15.0023 2.19829 15.0023H13.8983C15.0983 15.0023 15.9983 14.0023 15.9983 12.9023V3.20232C15.9983 2.00232 14.9983 1.00232 13.8983 1.00232ZM1.99829 3.00232H3.99829V13.0023H1.99829V3.00232ZM13.9983 13.0023H5.99829V3.00232H13.9983V13.0023Z" />
<path class="lexicon-icon-outline" d="M11.9983 5.00232H7.99829V6.00232H11.9983V5.00232Z" />
<path class="lexicon-icon-outline" d="M11.9983 7.00232H7.99829V8.00232H11.9983V7.00232Z" />
<path class="lexicon-icon-outline" d="M11.9983 9.00232H7.99829V10.0023H11.9983V9.00232Z" />
</svg>
