<!--
* SPDX-FileCopyrightText: © 2020 Liferay, Inc. <https://liferay.com>
* SPDX-FileCopyrightText: © 2020 Contributors to the project Clay <https://github.com/liferay/clay/graphs/contributors>
*
* SPDX-License-Identifier: BSD-3-Clause
-->
<svg viewBox="0 0 16 16" xmlns="http://www.w3.org/2000/svg"><path fill-rule="evenodd" clip-rule="evenodd" d="M11.415 7.418a1.989 1.989 0 0 1-1.416.584 1.989 1.989 0 0 1-1.416-.584A2.002 2.002 0 0 1 10 4.002c1.069 0 2 .935 2 2a1.99 1.99 0 0 1-.584 1.416Zm-.775-2.056a.905.905 0 0 0-1.547.64c0 .485.422.907.906.907.24 0 .469-.094.64-.266a.894.894 0 0 0 .266-.64.899.899 0 0 0-.265-.641Z"/><path fill-rule="evenodd" clip-rule="evenodd" d="m15.333 8.171.031.038c.916 1.11.831 2.71-.196 3.8l-.023.022-2.73 2.73c-.932.97-2.088 1.188-2.694 1.235L9.683 16l-7.008.003a2.656 2.656 0 0 1-1.884-.787A2.66 2.66 0 0 1 0 13.325V2.69C0 1.987.278 1.315.788.802a2.64 2.64 0 0 1 1.887-.8h7.193l.034.004c.51.037 1.5.237 2.413 1.146l3.018 3.02.031.037c.916 1.109.834 2.706-.193 3.8l.162.162ZM2.203 9.8a.655.655 0 0 0 .472.203h6.934c.33-.028.918-.153 1.371-.628l.016-.015 2.725-2.725c.315-.344.365-.797.125-1.119L10.9 2.568c-.434-.434-.871-.54-1.112-.566H2.675c-.353 0-.675.329-.675.691v6.631c0 .178.068.34.203.475Zm.472 4.203a.655.655 0 0 1-.472-.203.656.656 0 0 1-.203-.475v-1.41c.219.057.444.088.675.088L9.683 12l.038-.003c.606-.047 1.762-.265 2.694-1.234l1.34-1.34.091.09c.24.322.19.775-.125 1.119l-2.74 2.74c-.454.475-1.042.6-1.372.628l-6.934.003Z"/></svg>
