<!--
* SPDX-FileCopyrightText: © 2022 Liferay, Inc. <https://liferay.com>
* SPDX-FileCopyrightText: © 2022 Contributors to the project Clay <https://github.com/liferay/clay/graphs/contributors>
*
* SPDX-License-Identifier: BSD-3-Clause
-->
<svg viewBox="0 0 16 16" xmlns="http://www.w3.org/2000/svg"><path class="lexicon-icon-outline" fill-rule="evenodd" clip-rule="evenodd" d="M11.415 7.416A1.989 1.989 0 0 1 9.999 8a1.989 1.989 0 0 1-1.416-.584A2.002 2.002 0 0 1 10 4c1.069 0 2 .935 2 2a1.99 1.99 0 0 1-.584 1.416ZM10.64 5.36A.905.905 0 0 0 9.093 6c0 .485.422.906.906.906.24 0 .469-.093.64-.265a.894.894 0 0 0 .266-.64.899.899 0 0 0-.265-.641Z"/><path class="lexicon-icon-outline" fill-rule="evenodd" clip-rule="evenodd" d="m15.333 8.169.031.037c.916 1.11.831 2.71-.196 3.8l-.023.022-2.73 2.731c-.932.97-2.088 1.188-2.694 1.235l-.038.003L2.675 16a2.656 2.656 0 0 1-1.884-.787A2.66 2.66 0 0 1 0 13.323V2.687C0 1.985.278 1.313.788.8A2.64 2.64 0 0 1 2.675 0h7.193l.034.003c.51.038 1.5.238 2.413 1.147l3.018 3.019.031.037c.916 1.11.834 2.707-.193 3.8l.162.163ZM2.203 9.797a.655.655 0 0 0 .472.203h6.934c.33-.028.918-.153 1.371-.628l.016-.016 2.725-2.725c.315-.343.365-.796.125-1.118L10.9 2.566c-.434-.435-.871-.54-1.112-.566H2.675C2.322 2 2 2.328 2 2.69v6.632c0 .178.068.34.203.475ZM2.675 14a.655.655 0 0 1-.472-.203.656.656 0 0 1-.203-.475v-1.41c.219.057.444.088.675.088l7.008-.003.038-.003c.606-.047 1.762-.266 2.694-1.234l1.34-1.341.091.09c.24.322.19.776-.125 1.12l-2.74 2.74c-.454.475-1.042.6-1.372.628L2.675 14Z"/></svg>