<!--
* SPDX-FileCopyrightText: © 2020 Liferay, Inc. <https://liferay.com>
* SPDX-FileCopyrightText: © 2020 Contributors to the project Clay <https://github.com/liferay/clay/graphs/contributors>
*
* SPDX-License-Identifier: BSD-3-Clause
-->
<svg  viewBox="0 0 16 16" xmlns="http://www.w3.org/2000/svg">
<path class="lexicon-icon-outline" fill-rule="evenodd" clip-rule="evenodd" d="M11.4131 7.41808C11.0345 7.7962 10.5316 8.00241 9.99737 8.00241C9.46317 8.00241 8.96029 7.7962 8.58165 7.41808C8.20693 7.0399 7.99756 6.53679 7.99756 6.00242C7.99756 4.89932 8.89473 4.00243 9.99737 4.00243C11.0658 4.00243 11.9972 4.9368 11.9972 6.00242C11.9972 6.53679 11.7907 7.0399 11.4131 7.41808ZM10.6382 5.36183C10.466 5.18992 10.241 5.09617 9.99737 5.09617C9.49742 5.09617 9.08845 5.50242 9.09139 6.00242C9.09139 6.48682 9.51307 6.90867 9.99737 6.90867C10.2381 6.90867 10.466 6.81492 10.6382 6.64307C10.8104 6.47117 10.9034 6.24618 10.9034 6.00242C10.9034 5.76178 10.8104 5.53367 10.6382 5.36183Z" />
<path class="lexicon-icon-outline" fill-rule="evenodd" clip-rule="evenodd" d="M15.3315 8.1712L15.3628 8.20868C16.2786 9.31809 16.1935 10.9181 15.1662 12.0087L15.1437 12.0306L12.413 14.7618C11.4816 15.7305 10.3251 15.9493 9.71951 15.9962L9.68135 15.9993L2.67319 16.0024C1.9668 16.0024 1.29465 15.7212 0.788825 15.215C0.279087 14.7055 -0.00170898 14.0337 -0.00170898 13.3243V2.68993C-0.00170898 1.98684 0.276152 1.31494 0.78589 0.802463C1.29465 0.286809 1.9668 0.00244141 2.67319 0.00244141H9.86627L9.90051 0.00556028C10.4103 0.0430479 11.4004 0.243084 12.3132 1.15245L15.3315 4.17121L15.3628 4.2087C16.2786 5.31804 16.1964 6.91496 15.1691 8.00871L15.3315 8.1712ZM2.20161 9.79931C2.33565 9.93367 2.49806 10.0024 2.67319 10.0024H9.607C9.93769 9.97433 10.5257 9.84933 10.9787 9.37429L10.9943 9.35869L13.7191 6.63365C14.0342 6.28991 14.0841 5.83681 13.8444 5.51496L10.8975 2.56805C10.4631 2.13367 10.0257 2.02745 9.78506 2.00243H2.67319C2.32 2.00243 1.99811 2.33059 1.99811 2.69305V9.32432C1.99811 9.50241 2.06659 9.66495 2.20161 9.79931ZM2.67319 14.0024C2.49806 14.0024 2.33565 13.9337 2.20161 13.7993C2.06659 13.6649 1.99811 13.5025 1.99811 13.3243V11.9149C2.21727 11.9712 2.44229 12.0025 2.67319 12.0025L9.68135 11.9993L9.71951 11.9962C10.3251 11.9493 11.4816 11.7306 12.413 10.7618L13.7534 9.42119L13.8444 9.51182C14.0841 9.83368 14.0342 10.2868 13.7191 10.6306L10.9787 13.3712C10.5257 13.8462 9.93769 13.9712 9.607 13.9993L2.67319 14.0024Z" />
</svg>
