<!--
* SPDX-FileCopyrightText: © 2020 Liferay, Inc. <https://liferay.com>
* SPDX-FileCopyrightText: © 2020 Contributors to the project Clay <https://github.com/liferay/clay/graphs/contributors>
*
* SPDX-License-Identifier: BSD-3-Clause
-->
<svg  viewBox="0 0 16 16" xmlns="http://www.w3.org/2000/svg">
<path class="lexicon-icon-outline" d="M10.6678 0.96747L7.05805 4.57701C6.31289 5.32214 7.44193 6.44791 8.1871 5.70277L11.7936 2.09323C13.2001 0.686836 15.3162 2.79966 13.9097 4.20928L10.3 7.81882C9.55485 8.56395 10.6839 9.68972 11.4291 8.94458L15.0388 5.33505C17.9517 2.42225 13.5872 -1.955 10.6678 0.96747ZM5.33223 15.0379L8.94195 11.4284C9.68711 10.6832 8.55807 9.55746 7.8129 10.3026L4.20641 13.9121C2.79995 15.3185 0.683794 13.2057 2.09026 11.7961L5.69998 8.18655C6.44514 7.44142 5.3161 6.31565 4.57093 7.06079L0.961216 10.6703C-1.95172 13.5831 2.41284 17.9604 5.33223 15.0379Z" />
</svg>
