<!--
* SPDX-FileCopyrightText: © 2020 Liferay, Inc. <https://liferay.com>
* SPDX-FileCopyrightText: © 2020 Contributors to the project Clay <https://github.com/liferay/clay/graphs/contributors>
*
* SPDX-License-Identifier: BSD-3-Clause
-->
<svg viewBox="0 0 16 16" xmlns="http://www.w3.org/2000/svg"><path d="m10.668.967-3.61 3.61c-.745.745.384 1.87 1.13 1.126l3.606-3.61c1.406-1.406 3.522.706 2.116 2.116l-3.61 3.61c-.745.745.384 1.87 1.13 1.125l3.609-3.61c2.913-2.912-1.452-7.29-4.371-4.367Zm-5.336 14.07 3.61-3.609c.745-.745-.384-1.87-1.13-1.126l-3.606 3.61C2.8 15.318.684 13.205 2.09 11.796l3.61-3.61c.745-.745-.384-1.87-1.13-1.125L.962 10.67c-2.913 2.912 1.452 7.29 4.371 4.367Z"/></svg>
