<!--
* SPDX-FileCopyrightText: © 2020 Liferay, Inc. <https://liferay.com>
* SPDX-FileCopyrightText: © 2020 Contributors to the project Clay <https://github.com/liferay/clay/graphs/contributors>
*
* SPDX-License-Identifier: BSD-3-Clause
-->
<svg  viewBox="0 0 16 16" xmlns="http://www.w3.org/2000/svg">
<path class="lexicon-icon-outline" d="M2 7.00255C2 7.55254 1.5498 8.00255 1 8.00255C0.450195 8.00255 0 7.55254 0 7.00255V3.00255C0 2.45256 0.450195 2.00255 1 2.00255H12.4658L12.1719 1.70879C11.7842 1.31816 11.7842 0.680649 12.1719 0.293198C12.5625 -0.0943146 13.2002 -0.0943146 13.5879 0.293198L15.709 2.41502C16.0967 2.80565 16.0967 3.44316 15.709 3.83067L13.5879 5.95256C13.1973 6.34007 12.5596 6.34007 12.1719 5.95256C11.7842 5.56194 11.7842 4.92442 12.1719 4.53691L12.7061 4.00255H2V7.00255Z" />
<path class="lexicon-icon-outline" d="M14 9.00255C14 8.45256 14.4502 8.00255 15 8.00255C15.5498 8.00255 16 8.45256 16 9.00255V13.0025C16 13.5525 15.5498 14.0025 15 14.0025H3.53418L3.82812 14.2963C4.21582 14.6869 4.21582 15.3244 3.82812 15.7119C3.4375 16.0994 2.7998 16.0994 2.41211 15.7119L0.291016 13.5901C-0.0966797 13.1994 -0.0966797 12.5619 0.291016 12.1744L2.41211 10.0525C2.80273 9.66502 3.44043 9.66502 3.82812 10.0525C4.21582 10.4432 4.21582 11.0807 3.82812 11.4682L3.29395 12.0025H14V9.00255Z" />
</svg>
