<!--
* SPDX-FileCopyrightText: © 2020 Liferay, Inc. <https://liferay.com>
* SPDX-FileCopyrightText: © 2020 Contributors to the project Clay <https://github.com/liferay/clay/graphs/contributors>
*
* SPDX-License-Identifier: BSD-3-Clause
-->
<svg viewBox="0 0 16 16" xmlns="http://www.w3.org/2000/svg"><path fill-rule="evenodd" clip-rule="evenodd" d="M1 .002h4a1 1 0 0 1 1 1v7a1 1 0 0 1-1 1H1a1 1 0 0 1-1-1v-7a1 1 0 0 1 1-1Zm3 7v-5H2v5h2Z"/><path d="M11 16.002h4a1 1 0 0 0 1-1v-7a1 1 0 0 0-1-1h-4a1 1 0 0 0-1 1v7a1 1 0 0 0 1 1ZM7.314 2.29c-.422.466-.4 1.019 0 1.431l1.953 1.953c.832.9 2.41-.337 1.431-1.431l-.24-.24h4.55c1.322 0 1.312-2 0-2h-4.55l.256-.257c.91-.875-.425-2.39-1.431-1.431L7.314 2.29Zm1.389 9.994c.4.412.422.965 0 1.43L6.734 15.69c-1.006.96-2.34-.556-1.43-1.431l.255-.257H1.01c-1.312 0-1.321-2 0-2h4.55l-.24-.24c-.978-1.094.6-2.332 1.431-1.432l1.953 1.954Z"/></svg>
