<!--
* SPDX-FileCopyrightText: © 2020 Liferay, Inc. <https://liferay.com>
* SPDX-FileCopyrightText: © 2020 Contributors to the project Clay <https://github.com/liferay/clay/graphs/contributors>
*
* SPDX-License-Identifier: BSD-3-Clause
-->
<svg  viewBox="0 0 16 16" xmlns="http://www.w3.org/2000/svg">
<path class="lexicon-icon-outline" fill-rule="evenodd" clip-rule="evenodd" d="M1 0.00256348H5C5.55312 0.00256348 6 0.449438 6 1.00256V8.00256C6 8.55569 5.55312 9.00256 5 9.00256H1C0.446875 9.00256 0 8.55569 0 8.00256V1.00256C0 0.449438 0.446875 0.00256348 1 0.00256348ZM4 7.00256V2.00256H2V7.00256H4Z" />
<path class="lexicon-icon-outline" d="M11 16.0026H15C15.5531 16.0026 16 15.5557 16 15.0026V8.00256C16 7.44944 15.5531 7.00256 15 7.00256H11C10.4469 7.00256 10 7.44944 10 8.00256V15.0026C10 15.5557 10.4469 16.0026 11 16.0026Z" />
<path class="lexicon-icon-outline" d="M7.31412 2.29012C6.89224 2.75574 6.91412 3.30887 7.31412 3.72137L9.26724 5.67449C10.0985 6.57449 11.6766 5.33699 10.6985 4.24324L10.4579 4.00262H15.0079C16.3297 4.00262 16.3204 2.00262 15.0079 2.00262H10.4579L10.7141 1.74637C11.6235 0.871366 10.2891 -0.644259 9.28287 0.315116L7.31412 2.29012Z" />
<path class="lexicon-icon-outline" d="M8.70313 12.2837C9.10313 12.6962 9.125 13.2493 8.70313 13.715L6.73438 15.69C5.72813 16.6493 4.39375 15.1337 5.30313 14.2587L5.55938 14.0025H1.00938C-0.303122 14.0025 -0.312497 12.0025 1.00938 12.0025H5.55938L5.31875 11.7618C4.34063 10.6681 5.91875 9.43057 6.75 10.3306L8.70313 12.2837Z" />
</svg>
