<!--
* SPDX-FileCopyrightText: © 2022 Liferay, Inc. <https://liferay.com>
* SPDX-FileCopyrightText: © 2022 Contributors to the project Clay <https://github.com/liferay/clay/graphs/contributors>
*
* SPDX-License-Identifier: BSD-3-Clause
-->
<svg viewBox="0 0 16 16" xmlns="http://www.w3.org/2000/svg"><path class="lexicon-icon-outline" d="M2 7c0 .55-.45 1-1 1s-1-.45-1-1V3c0-.55.45-1 1-1h11.466l-.294-.294a1.007 1.007 0 0 1 0-1.415 1.008 1.008 0 0 1 1.416 0l2.121 2.122c.388.39.388 1.028 0 1.415L13.588 5.95a1.008 1.008 0 0 1-1.416 0 1.007 1.007 0 0 1 0-1.415L12.706 4H2v3Zm12 2c0-.55.45-1 1-1s1 .45 1 1v4c0 .55-.45 1-1 1H3.534l.294.294c.388.39.388 1.028 0 1.415a1.008 1.008 0 0 1-1.416 0L.291 13.588a1.007 1.007 0 0 1 0-1.416l2.121-2.122a1.008 1.008 0 0 1 1.416 0c.388.39.388 1.028 0 1.416L3.294 12H14V9Z"/></svg>