<!--
* SPDX-FileCopyrightText: © 2026 Liferay, Inc. <https://liferay.com>
* SPDX-FileCopyrightText: © 2026 Contributors to the project Clay <https://github.com/liferay/clay/graphs/contributors>
*
* SPDX-License-Identifier: BSD-3-Clause
-->
<svg viewBox="0 0 16 16" xmlns="http://www.w3.org/2000/svg">
	<path class="lexicon-icon-outline" d="M1 0a1 1 0 0 1 1 1v13h13a1 1 0 0 1 0 2H1a1 1 0 0 1-1-1V1a1 1 0 0 1 1-1Z" />
	<path class="lexicon-icon-outline" d="M10.483 4a.94.94 0 0 1 .68.31l2.99 3.355v-.488c0-.487.414-.883.923-.883.51 0 .924.396.924.883v2.94c0 .457-.364.834-.83.88a1.43 1.43 0 0 1-.094.003h-2.768c-.51 0-.924-.396-.924-.883V10c0-.487.414-.882.924-.882h.717l-2.597-2.912L8.366 8.31a.945.945 0 0 1-.674.278.95.95 0 0 1-.605-.215L7.02 8.31 4.25 5.486a.855.855 0 0 1 .043-1.247.953.953 0 0 1 1.304.04l2.096 2.138 2.096-2.139A.945.945 0 0 1 10.483 4Z" />
</svg>