<!--
* SPDX-FileCopyrightText: © 2026 Liferay, Inc. <https://liferay.com>
* SPDX-FileCopyrightText: © 2026 Contributors to the project Clay <https://github.com/liferay/clay/graphs/contributors>
*
* SPDX-License-Identifier: BSD-3-Clause
-->
<svg viewBox="0 0 16 16" xmlns="http://www.w3.org/2000/svg">
	<path class="lexicon-icon-outline" d="M7.25 4.07A4.001 4.001 0 0 0 8 12a3.98 3.98 0 0 0 2.247-.692l2.854 2.853A8 8 0 1 1 7.25.035V4.07Z" />
	<path class="lexicon-icon-outline" d="M15.964 8.75a7.96 7.96 0 0 1-1.803 4.35l-2.853-2.853c.302-.443.517-.95.62-1.497h4.036ZM8.75.035a8 8 0 0 1 7.214 7.215h-4.035A4.003 4.003 0 0 0 8.75 4.07V.035Z" />
</svg>