<!--
* SPDX-FileCopyrightText: © 2026 Liferay, Inc. <https://liferay.com>
* SPDX-FileCopyrightText: © 2026 Contributors to the project Clay <https://github.com/liferay/clay/graphs/contributors>
*
* SPDX-License-Identifier: BSD-3-Clause
-->
<svg viewBox="0 0 16 16" xmlns="http://www.w3.org/2000/svg">
	<path class="lexicon-icon-outline" clip-rule="evenodd" d="M8 0a8 8 0 1 1 0 16A8 8 0 0 1 8 0ZM7 2.084A6 6 0 0 0 8 14a5.97 5.97 0 0 0 3.475-1.111L7.293 8.707A1 1 0 0 1 7 8V2.084Zm2.628 6.13 3.26 3.26A5.97 5.97 0 0 0 14 8a5.98 5.98 0 0 0-.376-2.093L9.628 8.214ZM9 6.268l3.623-2.092A5.993 5.993 0 0 0 9 2.084v4.184Z" fill-rule="evenodd" />
</svg>