<!--
* SPDX-FileCopyrightText: © 2026 Liferay, Inc. <https://liferay.com>
* SPDX-FileCopyrightText: © 2026 Contributors to the project Clay <https://github.com/liferay/clay/graphs/contributors>
*
* SPDX-License-Identifier: BSD-3-Clause
-->
<svg viewBox="0 0 16 16" xmlns="http://www.w3.org/2000/svg">
	<path class="lexicon-icon-outline" d="M1 0a1 1 0 0 1 1 1v13h13a1 1 0 0 1 0 2H1a1 1 0 0 1-1-1V1a1 1 0 0 1 1-1Z" />
	<path class="lexicon-icon-outline" d="M6.559 2.313a.971.971 0 0 1 1.428 0l2.558 2.723 2.096-1.784a.968.968 0 0 1 1.264 0l1.727 1.47c.233.199.368.496.368.81v5.423c0 .577-.448 1.045-1 1.045H5c-.552 0-1-.468-1-1.045V5.463c0-.274.103-.537.286-.733L6.56 2.312Z" />
</svg>