<!--
* SPDX-FileCopyrightText: © 2026 Liferay, Inc. <https://liferay.com>
* SPDX-FileCopyrightText: © 2026 Contributors to the project Clay <https://github.com/liferay/clay/graphs/contributors>
*
* SPDX-License-Identifier: BSD-3-Clause
-->
<svg viewBox="0 0 16 16" xmlns="http://www.w3.org/2000/svg">
	<path class="lexicon-icon-outline" d="M1 0a1 1 0 0 1 1 1v13h13a1 1 0 0 1 0 2H1a1 1 0 0 1-1-1V1a1 1 0 0 1 1-1Z" />
	<path class="lexicon-icon-outline" d="M15.096 3.001a.931.931 0 0 1 .153.016l.022.004a.925.925 0 0 1 .143.043l.034.014a.918.918 0 0 1 .133.074l.016.011a.9.9 0 0 1 .06.045l.013.01.029.024.021.023.018.017a.925.925 0 0 1 .119.153l.021.037a1.06 1.06 0 0 1 .063.135l.01.028.017.055.007.034a.91.91 0 0 1 .017.09c.002.016.002.033.003.05a.455.455 0 0 1 .004.053l.001.017v2.8a.928.928 0 0 1-.922.932.928.928 0 0 1-.923-.933v-.385l-3.01 3.346a.921.921 0 0 1-.661.306.92.92 0 0 1-.675-.273L7.693 7.586l-2.117 2.14a.916.916 0 0 1-1.305 0 .941.941 0 0 1 0-1.32l2.77-2.8.07-.063a.915.915 0 0 1 1.234.063l2.084 2.108 2.56-2.848h-.681a.928.928 0 0 1-.923-.932c0-.516.413-.934.923-.934h2.77l.018.001Z" />
</svg>