<!--
* SPDX-FileCopyrightText: © 2026 Liferay, Inc. <https://liferay.com>
* SPDX-FileCopyrightText: © 2026 Contributors to the project Clay <https://github.com/liferay/clay/graphs/contributors>
*
* SPDX-License-Identifier: BSD-3-Clause
-->
<svg viewBox="0 0 16 16" xmlns="http://www.w3.org/2000/svg">
	<path class="lexicon-icon-outline" d="M1 0a1 1 0 0 1 1 1v13h13a1 1 0 1 1 0 2H1a1 1 0 0 1-1-1V1a1 1 0 0 1 1-1Z" />
	<path class="lexicon-icon-outline" d="M14.241 4.35a.999.999 0 1 1 1.518 1.3l-4.285 5a1.001 1.001 0 0 1-1.519 0L7.856 8.202 5.76 10.65a.999.999 0 1 1-1.518-1.3l2.857-3.334a1 1 0 0 1 1.518 0l2.098 2.447L14.24 4.35Z" />
</svg>