<!--
* SPDX-FileCopyrightText: © 2020 Liferay, Inc. <https://liferay.com>
* SPDX-FileCopyrightText: © 2020 Contributors to the project Clay <https://github.com/liferay/clay/graphs/contributors>
*
* SPDX-License-Identifier: BSD-3-Clause
-->
<svg  viewBox="0 0 16 16" xmlns="http://www.w3.org/2000/svg">
<path class="lexicon-icon-outline" fill-rule="evenodd" clip-rule="evenodd" d="M1 1.00256H15C15.5996 1.00256 16 1.40228 16 2.00189V11.9955C16 12.5952 15.5996 12.9949 15 12.9949H6.40039L4.7002 14.6938C4 15.3933 3 14.7937 3 13.9942V12.9949H1C0.400391 12.9949 0 12.5952 0 11.9955V2.00189C0 1.40228 0.400391 1.00256 1 1.00256ZM2 10.9962H14V3.00128H2V10.9962Z" />
<path class="lexicon-icon-outline" d="M4 5.00256H6V7.00256H4V5.00256Z" />
<path class="lexicon-icon-outline" d="M10 5.00256H12V7.00256H10V5.00256Z" />
<path class="lexicon-icon-outline" d="M5 8.00256H11C11 9.10713 10 10.0026 8 10.0026C6 10.0026 5 9.10713 5 8.00256Z" />
</svg>
