<!--
* SPDX-FileCopyrightText: © 2020 Liferay, Inc. <https://liferay.com>
* SPDX-FileCopyrightText: © 2020 Contributors to the project Clay <https://github.com/liferay/clay/graphs/contributors>
*
* SPDX-License-Identifier: BSD-3-Clause
-->
<svg viewBox="0 0 16 16" xmlns="http://www.w3.org/2000/svg"><path fill-rule="evenodd" clip-rule="evenodd" d="M1 1.002h14c.6 0 1 .4 1 1v9.993c0 .6-.4 1-1 1H6.4l-1.7 1.699c-.7.7-1.7.1-1.7-.7v-1H1c-.6 0-1-.4-1-.999V2.002c0-.6.4-1 1-1Zm1 9.994h12V3H2v7.995Z"/><path d="M4 5.002h2v2H4v-2Zm6 0h2v2h-2v-2Zm-5 3h6c0 1.105-1 2-3 2s-3-.895-3-2Z"/></svg>
