<!--
* SPDX-FileCopyrightText: © 2020 Liferay, Inc. <https://liferay.com>
* SPDX-FileCopyrightText: © 2020 Contributors to the project Clay <https://github.com/liferay/clay/graphs/contributors>
*
* SPDX-License-Identifier: BSD-3-Clause
-->
<svg viewBox="0 0 16 16" xmlns="http://www.w3.org/2000/svg"><path d="m14.725 3.68-5.966 6.972a.997.997 0 0 1-1.466.056l-3-3.003c-.909-.903.504-2.318 1.413-1.415l2.238 2.24 5.297-6.19c.068-.078.146-.122.222-.172A7.974 7.974 0 0 0 8 .002a8 8 0 0 0-8 8 8 8 0 0 0 8 8 8 8 0 0 0 8-8 7.954 7.954 0 0 0-1.275-4.322Z"/></svg>
