<!--
* SPDX-FileCopyrightText: © 2020 Liferay, Inc. <https://liferay.com>
* SPDX-FileCopyrightText: © 2020 Contributors to the project Clay <https://github.com/liferay/clay/graphs/contributors>
*
* SPDX-License-Identifier: BSD-3-Clause
-->
<svg  viewBox="0 0 16 16" xmlns="http://www.w3.org/2000/svg">
<path class="lexicon-icon-outline" d="M14 16.0026H2C0.896875 16.0026 0 15.1057 0 14.0026V2.00256C0 0.899439 0.896875 0.00256348 2 0.00256348H9C10.3344 0.00256348 10.3344 2.00256 9 2.00256H2V14.0026H14V9.00256C14 7.66819 16 7.66819 16 9.00256V14.0026C16 15.1057 15.1031 16.0026 14 16.0026Z" />
<path class="lexicon-icon-outline" d="M13.2407 2.34006L7.94379 8.53069L5.70629 6.29006C4.79692 5.38694 3.38442 6.80256 4.29379 7.70569L7.29379 10.7088C7.47504 10.8901 7.72504 11.0026 8.00004 11.0026C8.30317 11.0026 8.57504 10.8651 8.75942 10.6526L14.7594 3.64006C15.5907 2.67131 14.0719 1.38069 13.2407 2.34006Z" />
</svg>
