<!--
* SPDX-FileCopyrightText: © 2022 Liferay, Inc. <https://liferay.com>
* SPDX-FileCopyrightText: © 2022 Contributors to the project Clay <https://github.com/liferay/clay/graphs/contributors>
*
* SPDX-License-Identifier: BSD-3-Clause
-->
<svg viewBox="0 0 16 16" xmlns="http://www.w3.org/2000/svg"><path class="lexicon-icon-outline" d="m13.24 2.338-5.296 6.19-2.238-2.24c-.91-.903-2.322.512-1.412 1.415l3 3.003a.997.997 0 0 0 1.465-.056l6-7.012c.832-.97-.687-2.26-1.518-1.3Z"/><path class="lexicon-icon-outline" d="M8 16c-4.412 0-8-3.587-8-8 0-4.412 3.587-8 8-8 .853 0 1.694.135 2.497.397 1.272.416.625 2.31-.622 1.9A6.006 6.006 0 0 0 2 8c0 3.31 2.69 6 6 6a6.006 6.006 0 0 0 5.963-6.669c-.079-1.356 1.825-1.493 1.987-.218.031.29.05.587.05.89C16 12.413 12.412 16 8 16Z"/></svg>