<!--
* SPDX-FileCopyrightText: © 2020 Liferay, Inc. <https://liferay.com>
* SPDX-FileCopyrightText: © 2020 Contributors to the project Clay <https://github.com/liferay/clay/graphs/contributors>
*
* SPDX-License-Identifier: BSD-3-Clause
-->
<svg viewBox="0 0 16 16" xmlns="http://www.w3.org/2000/svg"><path d="M13.24 2.34 7.945 8.53 5.706 6.29c-.91-.903-2.322.512-1.412 1.415l3 3.004a.997.997 0 0 0 1.465-.057l6-7.012c.832-.969-.687-2.26-1.518-1.3Z"/><path d="M8 16.002c-4.412 0-8-3.587-8-8 0-4.412 3.587-8 8-8 .853 0 1.694.135 2.497.397 1.272.416.625 2.31-.622 1.9A6.006 6.006 0 0 0 2 8.002c0 3.31 2.69 6 6 6a6.006 6.006 0 0 0 5.963-6.668c-.079-1.357 1.825-1.494 1.987-.22a8.4 8.4 0 0 1 .05.891c0 4.41-3.588 7.997-8 7.997Z"/></svg>
