<!--
* SPDX-FileCopyrightText: © 2022 Liferay, Inc. <https://liferay.com>
* SPDX-FileCopyrightText: © 2022 Contributors to the project Clay <https://github.com/liferay/clay/graphs/contributors>
*
* SPDX-License-Identifier: BSD-3-Clause
-->
<svg viewBox="0 0 16 16" xmlns="http://www.w3.org/2000/svg"><path class="lexicon-icon-outline" d="M14 16H2c-1.103 0-2-.897-2-2V2C0 .897.897 0 2 0h7c1.334 0 1.334 2 0 2H2v12h12V9c0-1.334 2-1.334 2 0v5c0 1.103-.897 2-2 2Z"/><path class="lexicon-icon-outline" d="m13.24 2.338-5.296 6.19-2.238-2.24c-.91-.903-2.322.512-1.412 1.415l3 3.003a.997.997 0 0 0 1.465-.056l6-7.012c.832-.97-.687-2.26-1.518-1.3Z"/></svg>