<!--
* SPDX-FileCopyrightText: © 2020 Liferay, Inc. <https://liferay.com>
* SPDX-FileCopyrightText: © 2020 Contributors to the project Clay <https://github.com/liferay/clay/graphs/contributors>
*
* SPDX-License-Identifier: BSD-3-Clause
-->
<svg  viewBox="0 0 16 16" xmlns="http://www.w3.org/2000/svg">
<path class="lexicon-icon-outline" d="M14.725 3.68069L8.75937 10.6526C8.575 10.8651 8.30313 11.0026 8 11.0026C7.725 11.0026 7.475 10.8901 7.29375 10.7088L4.29375 7.70569C3.38437 6.80256 4.79688 5.38694 5.70625 6.29006L7.94375 8.53069L13.2406 2.34006C13.3094 2.26194 13.3875 2.21819 13.4625 2.16819C12.0312 0.830689 10.1156 0.00256348 8 0.00256348C3.58125 0.00256348 0 3.58381 0 8.00256C0 12.4213 3.58125 16.0026 8 16.0026C12.4187 16.0026 16 12.4213 16 8.00256C16 6.40881 15.5281 4.92756 14.725 3.68069Z" />
</svg>
