<!--
* SPDX-FileCopyrightText: © 2020 Liferay, Inc. <https://liferay.com>
* SPDX-FileCopyrightText: © 2020 Contributors to the project Clay <https://github.com/liferay/clay/graphs/contributors>
*
* SPDX-License-Identifier: BSD-3-Clause
-->
<svg viewBox="0 0 16 16" xmlns="http://www.w3.org/2000/svg"><path d="M14 16.002H2c-1.103 0-2-.897-2-2v-12c0-1.103.897-2 2-2h7c1.334 0 1.334 2 0 2H2v12h12v-5c0-1.334 2-1.334 2 0v5c0 1.103-.897 2-2 2Z"/><path d="M13.24 2.34 7.945 8.53 5.706 6.29c-.91-.903-2.322.512-1.412 1.415l3 3.004a.997.997 0 0 0 1.465-.057l6-7.012c.832-.969-.687-2.26-1.518-1.3Z"/></svg>
