<!--
* SPDX-FileCopyrightText: © 2020 Liferay, Inc. <https://liferay.com>
* SPDX-FileCopyrightText: © 2020 Contributors to the project Clay <https://github.com/liferay/clay/graphs/contributors>
*
* SPDX-License-Identifier: BSD-3-Clause
-->
<svg  viewBox="0 0 16 16" xmlns="http://www.w3.org/2000/svg">
<path class="lexicon-icon-outline" d="M13.2406 2.34006L7.94375 8.53069L5.70625 6.29006C4.79688 5.38694 3.38437 6.80256 4.29375 7.70569L7.29375 10.7088C7.475 10.8901 7.725 11.0026 8 11.0026C8.30313 11.0026 8.57501 10.8651 8.75938 10.6526L14.7594 3.64006C15.5906 2.67131 14.0719 1.38069 13.2406 2.34006Z" />
<path class="lexicon-icon-outline" d="M8 16.0026C3.5875 16.0026 0 12.4151 0 8.00256C0 3.59006 3.5875 0.00256348 8 0.00256348C8.85312 0.00256348 9.69375 0.136938 10.4969 0.399438C11.7688 0.815063 11.1219 2.70881 9.875 2.29944C9.27188 2.10256 8.64062 2.00256 8 2.00256C4.69063 2.00256 2 4.69319 2 8.00256C2 11.3119 4.69063 14.0026 8 14.0026C11.3094 14.0026 14 11.3119 14 8.00256C14 7.77444 13.9875 7.55256 13.9625 7.33381C13.8844 5.97756 15.7875 5.84006 15.95 7.11506C15.9812 7.40569 16 7.70256 16 8.00569C16 12.4151 12.4125 16.0026 8 16.0026Z" />
</svg>
