<!--
* SPDX-FileCopyrightText: © 2022 Liferay, Inc. <https://liferay.com>
* SPDX-FileCopyrightText: © 2022 Contributors to the project Clay <https://github.com/liferay/clay/graphs/contributors>
*
* SPDX-License-Identifier: BSD-3-Clause
-->
<svg viewBox="0 0 16 16" xmlns="http://www.w3.org/2000/svg"><path class="lexicon-icon-outline" d="M6.497 11.005h3.005c.83 0 1.503-.673 1.503-1.502V6.498c0-.83-.673-1.503-1.503-1.503H6.497c-.83 0-1.502.673-1.502 1.503v3.005c0 .829.673 1.502 1.502 1.502Z"/><path class="lexicon-icon-outline" fill-rule="evenodd" clip-rule="evenodd" d="M14.01 5.997h1.294c.927 0 .927-2.003 0-2.003H14.01a2.005 2.005 0 0 0-2.003-2.003V.695c0-.926-2.003-.926-2.003 0v1.296H9.002V.695c0-.926-2.004-.926-2.004 0v1.296H5.997V.695c0-.926-2.003-.926-2.003 0v1.296A2.005 2.005 0 0 0 1.99 3.994H.695c-.927 0-.927 2.003 0 2.003H1.99v1.002H.695c-.927 0-.927 2.003 0 2.003H1.99v1.001H.695c-.927 0-.927 2.003 0 2.003H1.99c0 1.105.898 2.004 2.004 2.004v1.295c0 .927 2.003.927 2.003 0V14.01h1v1.295c0 .927 2.005.927 2.005 0V14.01h1v1.295c0 .927 2.004.927 2.004 0V14.01a2.005 2.005 0 0 0 2.003-2.004h1.295c.927 0 .927-2.003 0-2.003H14.01V9.002h1.295c.927 0 .927-2.003 0-2.003H14.01V5.997Zm-2.003 6.01H3.994V3.993h8.013v8.012Z"/></svg>