<!--
* SPDX-FileCopyrightText: © 2020 Liferay, Inc. <https://liferay.com>
* SPDX-FileCopyrightText: © 2020 Contributors to the project Clay <https://github.com/liferay/clay/graphs/contributors>
*
* SPDX-License-Identifier: BSD-3-Clause
-->
<svg  viewBox="0 0 16 16" xmlns="http://www.w3.org/2000/svg">
<path class="lexicon-icon-outline" d="M6.49683 11.0073H9.50171C10.3318 11.0073 11.0046 10.3343 11.0046 9.50491V6.50022C11.0046 5.67079 10.3318 4.99787 9.50171 4.99787H6.49683C5.66772 4.99787 4.99487 5.67079 4.99487 6.50022V9.50491C4.99487 10.3343 5.66772 11.0073 6.49683 11.0073Z" />
<path class="lexicon-icon-outline" fill-rule="evenodd" clip-rule="evenodd" d="M14.0095 5.99943H15.3044C16.2312 5.99943 16.2312 3.9963 15.3044 3.9963H14.0095C14.0095 2.89145 13.1111 1.99317 12.0056 1.99317V0.697399C12.0056 -0.229048 10.0027 -0.229048 10.0027 0.697399V1.99317H9.00171V0.697399C9.00171 -0.229048 6.9978 -0.229048 6.9978 0.697399V1.99317H5.99683V0.697399C5.99683 -0.229048 3.9939 -0.229048 3.9939 0.697399V1.99317C2.88843 1.99317 1.98999 2.89145 1.98999 3.9963H0.695068C-0.231689 3.9963 -0.231689 5.99943 0.695068 5.99943H1.98999V7.001H0.695068C-0.231689 7.001 -0.231689 9.00413 0.695068 9.00413H1.98999V10.0057H0.695068C-0.231689 10.0057 -0.231689 12.0088 0.695068 12.0088H1.98999C1.98999 13.1137 2.88843 14.012 3.9939 14.012V15.3077C3.9939 16.2342 5.99683 16.2342 5.99683 15.3077V14.012H6.9978V15.3077C6.9978 16.2342 9.00171 16.2342 9.00171 15.3077V14.012H10.0027V15.3077C10.0027 16.2342 12.0056 16.2342 12.0056 15.3077V14.012C13.1111 14.012 14.0095 13.1137 14.0095 12.0088H15.3044C16.2312 12.0088 16.2312 10.0057 15.3044 10.0057H14.0095V9.00413H15.3044C16.2312 9.00413 16.2312 7.001 15.3044 7.001H14.0095V5.99943ZM12.0066 12.0088H3.9939V3.9963H12.0066V12.0088Z" />
</svg>
