<!--
* SPDX-FileCopyrightText: © 2020 Liferay, Inc. <https://liferay.com>
* SPDX-FileCopyrightText: © 2020 Contributors to the project Clay <https://github.com/liferay/clay/graphs/contributors>
*
* SPDX-License-Identifier: BSD-3-Clause
-->
<svg viewBox="0 0 16 16" xmlns="http://www.w3.org/2000/svg"><path d="M6.497 11.007h3.005c.83 0 1.503-.673 1.503-1.502V6.5c0-.83-.673-1.502-1.503-1.502H6.497c-.83 0-1.502.673-1.502 1.502v3.005c0 .83.673 1.502 1.502 1.502Z"/><path fill-rule="evenodd" clip-rule="evenodd" d="M14.01 6h1.294c.927 0 .927-2.004 0-2.004H14.01a2.005 2.005 0 0 0-2.003-2.003V.697c0-.926-2.003-.926-2.003 0v1.296H9.002V.697c0-.926-2.004-.926-2.004 0v1.296H5.997V.697c0-.926-2.003-.926-2.003 0v1.296A2.005 2.005 0 0 0 1.99 3.996H.695C-.232 3.996-.232 6 .695 6H1.99v1.002H.695c-.927 0-.927 2.003 0 2.003H1.99v1.001H.695c-.927 0-.927 2.004 0 2.004H1.99c0 1.104.898 2.003 2.004 2.003v1.295c0 .927 2.003.927 2.003 0v-1.295h1v1.295c0 .927 2.005.927 2.005 0v-1.295h1v1.295c0 .927 2.004.927 2.004 0v-1.295a2.005 2.005 0 0 0 2.003-2.003h1.295c.927 0 .927-2.004 0-2.004H14.01V9.004h1.295c.927 0 .927-2.003 0-2.003H14.01V5.999Zm-2.003 6.009H3.994V3.996h8.013v8.013Z"/></svg>
