<!--
* SPDX-FileCopyrightText: © 2025 Liferay, Inc. <https://liferay.com>
* SPDX-FileCopyrightText: © 2025 Contributors to the project Clay <https://github.com/liferay/clay/graphs/contributors>
*
* SPDX-License-Identifier: BSD-3-Clause
-->
<svg viewBox="0 0 16 16" xmlns="http://www.w3.org/2000/svg">
	<path class="lexicon-icon-outline" d="M6.894 7.687c-.246-.55.241-1.036.79-.79l7.848 3.516c.59.264.634 1.078.067 1.236l-2.798.775a.536.536 0 0 0-.379.38l-.776 2.797c-.157.567-.972.523-1.236-.066L6.894 7.687ZM2.109 3.101c-.286-.285-.295-.738-.022-1.011.274-.274.727-.264 1.012.021l2.067 2.067c.285.285.295.738.021 1.011-.273.274-.726.264-1.012-.021L2.11 3.1ZM6.652.703a.68.68 0 0 1 .7-.7.753.753 0 0 1 .73.73l.062 2.862a.68.68 0 0 1-.7.7.753.753 0 0 1-.731-.73L6.652.702Zm5.047 1.591c.273-.273.726-.264 1.011.022.286.285.295.738.022 1.011l-1.98 1.98c-.274.274-.727.265-1.012-.02-.285-.286-.295-.739-.022-1.012l1.98-1.98Zm-8.374 10.44c-.273.274-.726.264-1.012-.021-.285-.285-.295-.738-.021-1.012l1.98-1.98c.274-.274.727-.264 1.012.021.285.285.295.738.021 1.012l-1.98 1.98ZM.73 8.085a.753.753 0 0 1-.73-.73.68.68 0 0 1 .7-.7l2.862.06a.753.753 0 0 1 .73.73.68.68 0 0 1-.7.7l-2.861-.06Z"/>
</svg>