<!--
* SPDX-FileCopyrightText: © 2020 Liferay, Inc. <https://liferay.com>
* SPDX-FileCopyrightText: © 2020 Contributors to the project Clay <https://github.com/liferay/clay/graphs/contributors>
*
* SPDX-License-Identifier: BSD-3-Clause
-->
<svg xmlns="http://www.w3.org/2000/svg" viewBox="0 0 512 512">
	<rect class="lexicon-icon-outline lx-closed-book-cover" fill="none" x="160" y="64" width="224" height="224"/>
	<path class="lexicon-icon-outline lx-closed-book-case" d="M416,0H160c-53,0-96,46.3-96,96v320c0,0,0,64,80.2,63.7c0.1,0,4.7,0.3,15.8,0.3v-32h-16 c-64.1-0.1-63.9-96.1,0.2-96H416c17.7-0.1,32-15.4,32-32V32C448,15.4,433.7,0,416,0z M384,288H160V64h224V288z M192,512l48-32l48,32 v-96h112c23.1-1.6,19.4-31.7,0-32H143.8c-20.1,0.3-22.2,31,0,32H192V512z M432,480c0,0-52,0-112,0v-32l112,0.1 C452.9,449.3,453.6,478.7,432,480z"/>
</svg>
