<!--
* SPDX-FileCopyrightText: © 2022 Liferay, Inc. <https://liferay.com>
* SPDX-FileCopyrightText: © 2022 Contributors to the project Clay <https://github.com/liferay/clay/graphs/contributors>
*
* SPDX-License-Identifier: BSD-3-Clause
-->
<svg viewBox="0 0 16 16" xmlns="http://www.w3.org/2000/svg"><path class="lexicon-icon-outline" fill-rule="evenodd" clip-rule="evenodd" d="M13 0H5C3.344 0 2 1.447 2 3v10s0 2 2.506 1.99c.003 0 .147.01.494.01v-1h-.5c-2.003-.003-1.997-3.003.006-3H13c.553-.003 1-.481 1-1V1c0-.519-.447-1-1-1Zm-1 9H5V2h7v7Zm-6 7 1.5-1L9 16v-3h3.5c.722-.05.606-.99 0-1H4.494c-.628.01-.694.969 0 1H6v3Zm7.5-1H10v-1l3.5.003c.653.038.675.957 0 .997Z"/></svg>