<!--
* SPDX-FileCopyrightText: © 2020 Liferay, Inc. <https://liferay.com>
* SPDX-FileCopyrightText: © 2020 Contributors to the project Clay <https://github.com/liferay/clay/graphs/contributors>
*
* SPDX-License-Identifier: BSD-3-Clause
-->
<svg  viewBox="0 0 16 16" xmlns="http://www.w3.org/2000/svg">
<path class="lexicon-icon-outline" fill-rule="evenodd" clip-rule="evenodd" d="M13 0.00256348H5C3.34375 0.00256348 2 1.44944 2 3.00256V13.0026C2 13.0026 2 15.0026 4.50625 14.9932C4.50937 14.9932 4.65313 15.0026 5 15.0026V14.0026H4.5C2.49688 13.9994 2.50312 10.9994 4.50625 11.0026H13C13.5531 10.9994 14 10.5213 14 10.0026V1.00256C14 0.483813 13.5531 0.00256348 13 0.00256348ZM12 9.00256H5V2.00256H12V9.00256ZM6 16.0026L7.5 15.0026L9 16.0026V13.0026H12.5C13.2219 12.9526 13.1062 12.0119 12.5 12.0026H4.49375C3.86563 12.0119 3.8 12.9713 4.49375 13.0026H6V16.0026ZM13.5 15.0026C13.5 15.0026 11.875 15.0026 10 15.0026V14.0026L13.5 14.0057C14.1531 14.0432 14.175 14.9619 13.5 15.0026Z" />
<rect class="lexicon-icon-outline"   transform="translate(0 0.00256348)"/>
</svg>
