<!--
* SPDX-FileCopyrightText: © 2020 Liferay, Inc. <https://liferay.com>
* SPDX-FileCopyrightText: © 2020 Contributors to the project Clay <https://github.com/liferay/clay/graphs/contributors>
*
* SPDX-License-Identifier: BSD-3-Clause
-->
<svg viewBox="0 0 16 16" xmlns="http://www.w3.org/2000/svg"><path d="M14.092 8.777c.072-.484-.016-1.228-.06-1.565l1.516-1.006a.997.997 0 0 0 .31-1.293l-1.116-1.968a1.002 1.002 0 0 0-1.281-.444l-1.6.734c-.403-.324-1.072-.684-1.56-.874L10.093.864A1.003 1.003 0 0 0 9.1.002H6.912c-.503 0-.925.372-.994.866l-.203 1.465a7.753 7.753 0 0 0-1.572.909l-1.562-.756c-.46-.181-.95-.14-1.2.287L.137 4.68a.998.998 0 0 0 .219 1.268l1.572 1.256c-.05.365-.094 1.1-.019 1.59L.428 9.81c-.422.297-.55.865-.297 1.312l1.216 2.015a1.01 1.01 0 0 0 1.284.418l1.512-.802c.413.318 1.078.724 1.569.915l.178 1.443c.06.503.484.88.993.884l2.253.006a1 1 0 0 0 .997-.88l.166-1.466c.584-.234 1.162-.543 1.575-.868l1.646.678a1.006 1.006 0 0 0 1.31-.428l1.05-1.877a.995.995 0 0 0-.291-1.281l-1.497-1.103Zm-6.084 1.952c-3.24 0-3.45-4.998 0-4.998 3.397 0 3.24 4.998 0 4.998Z"/></svg>
