<!--
* SPDX-FileCopyrightText: © 2020 Liferay, Inc. <https://liferay.com>
* SPDX-FileCopyrightText: © 2020 Contributors to the project Clay <https://github.com/liferay/clay/graphs/contributors>
*
* SPDX-License-Identifier: BSD-3-Clause
-->
<svg  viewBox="0 0 16 16" xmlns="http://www.w3.org/2000/svg">
<path class="lexicon-icon-outline" d="M14.0921 8.77726C14.164 8.29307 14.0765 7.54962 14.0328 7.21225L15.5482 6.20639C15.9669 5.91588 16.0982 5.35985 15.8576 4.91315L14.7421 2.94516C14.4952 2.48597 13.939 2.29542 13.4609 2.50159L11.8611 3.23568C11.458 2.9108 10.7893 2.55157 10.3019 2.36102L10.0925 0.864727C10.0238 0.37117 9.59884 0.00256348 9.09889 0.00256348H6.91161C6.40854 0.00256348 5.98671 0.374293 5.91797 0.86785L5.71486 2.3329C5.1368 2.57343 4.56186 2.92954 4.14315 3.24192L2.58081 2.48597C2.12148 2.30479 1.63091 2.3454 1.38094 2.77336L0.137315 4.67886C-0.109534 5.09745 -0.0157942 5.63161 0.356042 5.94712L1.92775 7.20288C1.87776 7.56836 1.83401 8.30245 1.90901 8.79288L0.42791 9.81123C0.00607857 10.108 -0.122033 10.6765 0.131066 11.1232L1.34656 13.1381C1.60279 13.5848 2.15898 13.7659 2.63081 13.5566L4.14315 12.7538C4.55561 13.0725 5.22116 13.4785 5.71174 13.6691L5.88985 15.1123C5.94921 15.6152 6.37417 15.9932 6.88349 15.9963L9.13638 16.0026C9.64571 16.0026 10.0738 15.6246 10.1332 15.1217L10.2988 13.6566C10.8831 13.4223 11.4611 13.1131 11.8736 12.7882L13.5203 13.4661C14.0015 13.691 14.5764 13.5035 14.8295 13.0381L15.8794 11.1607C16.1169 10.7203 15.9951 10.1736 15.5888 9.87996L14.0921 8.77726ZM8.00838 10.7296C4.76809 10.7296 4.55873 5.73158 8.00838 5.73158C11.4049 5.73158 11.2487 10.7296 8.00838 10.7296Z" />
</svg>
