<!--
* SPDX-FileCopyrightText: © 2022 Liferay, Inc. <https://liferay.com>
* SPDX-FileCopyrightText: © 2022 Contributors to the project Clay <https://github.com/liferay/clay/graphs/contributors>
*
* SPDX-License-Identifier: BSD-3-Clause
-->
<svg viewBox="0 0 16 16" xmlns="http://www.w3.org/2000/svg"><path d="M8.481 4.497c0-.647-.997-.647-.997 0v.56c-1.64.287-2.315 2.906.07 3.346 2.983.516.743 2.494-.688 1.279-.429-.482-1.144.218-.744.668.278.31.94.579 1.365.672v.503c0 .666.997.67.997 0v-.506c2.45-.781 1.678-3.384-.484-3.525h-.006c-2.063-.369-.6-2.253.822-1.153.434.481 1.15-.213.74-.672a2.047 2.047 0 0 0-1.075-.616v-.556Z"/><path fill-rule="evenodd" clip-rule="evenodd" d="M0 8.019c0 10.626 16 10.663 16 0 0-10.516-16-10.86-16 0Zm14 0c0 7.841-12 7.788-12 0 0-8.013 12-8.013 12 0Z"/></svg>
