<!--
* SPDX-FileCopyrightText: © 2020 Liferay, Inc. <https://liferay.com>
* SPDX-FileCopyrightText: © 2020 Contributors to the project Clay <https://github.com/liferay/clay/graphs/contributors>
*
* SPDX-License-Identifier: BSD-3-Clause
-->
<svg  viewBox="0 0 16 16" xmlns="http://www.w3.org/2000/svg">
<path class="lexicon-icon-outline" d="M8.48124 4.49711C8.48124 3.8502 7.48437 3.8502 7.48437 4.49711V5.05652C5.84374 5.34404 5.16874 7.96296 7.55312 8.40362C10.5375 8.91928 8.29687 10.8975 6.86562 9.68183C6.43749 9.20054 5.72187 9.90059 6.12187 10.3506C6.39999 10.66 7.06249 10.9288 7.48749 11.0225V11.5257C7.48749 12.1914 8.48437 12.1945 8.48437 11.5257V11.0194C10.9344 10.2381 10.1625 7.63482 7.99999 7.49418H7.99374C5.93124 7.12541 7.39374 5.24091 8.81562 6.34098C9.24999 6.82226 9.96562 6.12847 9.55624 5.66906C9.27812 5.36279 8.90312 5.14716 8.48124 5.0534V4.49711Z" />
<path class="lexicon-icon-outline" fill-rule="evenodd" clip-rule="evenodd" d="M-6.10352e-05 8.01923C-6.10352e-05 18.6449 15.9999 18.6824 15.9999 8.01923C15.9999 -2.49708 -6.10352e-05 -2.84085 -6.10352e-05 8.01923ZM13.9999 8.01923C13.9999 15.8604 1.99994 15.8072 1.99994 8.01923C1.99994 0.00620747 13.9999 0.00620747 13.9999 8.01923Z" />
</svg>
