<!--
* SPDX-FileCopyrightText: © 2022 Liferay, Inc. <https://liferay.com>
* SPDX-FileCopyrightText: © 2022 Contributors to the project Clay <https://github.com/liferay/clay/graphs/contributors>
*
* SPDX-License-Identifier: BSD-3-Clause
-->
<svg xmlns="http://www.w3.org/2000/svg" viewBox="0 0 512 512">
	<path class="lexicon-icon-outline lx-coin-dollar" d="M239.5,143.8c0-20.7,31.9-20.7,31.9,0v17.8c13.5,3,25.5,9.9,34.4,19.7c13.1,14.7-9.8,36.9-23.7,21.5c-45.5-35.2-92.3,25.1-26.3,36.9h0.2c69.2,4.5,93.9,87.8,15.5,112.8v16.2c0,21.4-31.9,21.3-31.9,0v-16.1c-13.6-3-34.8-11.6-43.7-21.5c-12.8-14.4,10.1-36.8,23.8-21.4c45.8,38.9,117.5-24.4,22-40.9c-76.3-14.1-54.7-97.9-2.2-107.1V143.8z"/>
	<path class="lexicon-icon-outline lx-coin-border" d="M448,256.5c0,250.9-384,249.2-384,0C64,0.1,448,0.1,448,256.5z M0,256.5c0,340,512,341.2,512,0C512-80,0-91,0,256.5z"/>
</svg>