<!--
* SPDX-FileCopyrightText: © 2020 Liferay, Inc. <https://liferay.com>
* SPDX-FileCopyrightText: © 2020 Contributors to the project Clay <https://github.com/liferay/clay/graphs/contributors>
*
* SPDX-License-Identifier: BSD-3-Clause
-->
<svg  viewBox="0 0 16 16" xmlns="http://www.w3.org/2000/svg">
<path class="lexicon-icon-outline" fill-rule="evenodd" clip-rule="evenodd" d="M7.02711 0.311518L13.4613 6.78213C14.2487 7.57567 14.2487 8.86164 13.4613 9.65831L7.74237 15.4075C6.95182 16.2011 5.67188 16.2011 4.88133 15.4075L0.592912 11.0948C-0.197637 10.3013 -0.197637 9.01219 0.592912 8.21866L6.31185 2.4663L5.59659 1.74804C4.64605 0.791403 6.09225 -0.629435 7.02711 0.311518ZM11.8237 8.00851L7.74237 3.90596L3.661 8.00851H11.8237Z" />
<path class="lexicon-icon-outline" d="M11.9563 13.9804C11.9563 16.6809 16 16.6652 16 13.9804C16 12.8575 13.9797 10.9317 13.9797 10.9317C13.9797 10.9317 11.9563 12.8575 11.9563 13.9804Z" />
</svg>
