<!--
* SPDX-FileCopyrightText: © 2020 Liferay, Inc. <https://liferay.com>
* SPDX-FileCopyrightText: © 2020 Contributors to the project Clay <https://github.com/liferay/clay/graphs/contributors>
*
* SPDX-License-Identifier: BSD-3-Clause
-->
<svg viewBox="0 0 16 16" xmlns="http://www.w3.org/2000/svg"><path fill-rule="evenodd" clip-rule="evenodd" d="m7.027.311 6.434 6.47c.788.794.788 2.08 0 2.877l-5.719 5.75c-.79.793-2.07.793-2.86 0l-4.29-4.313a2.04 2.04 0 0 1 0-2.877l5.72-5.752-.715-.718C4.646.79 6.092-.63 7.027.31Zm4.797 7.697L7.742 3.906 3.661 8.008h8.163Z"/><path d="M11.956 13.98c0 2.7 4.044 2.685 4.044 0 0-1.123-2.02-3.049-2.02-3.049s-2.024 1.926-2.024 3.05Z"/></svg>
