<!--
* SPDX-FileCopyrightText: © 2020 Liferay, Inc. <https://liferay.com>
* SPDX-FileCopyrightText: © 2020 Contributors to the project Clay <https://github.com/liferay/clay/graphs/contributors>
*
* SPDX-License-Identifier: BSD-3-Clause
-->
<svg viewBox="0 0 16 16" xmlns="http://www.w3.org/2000/svg"><path fill-rule="evenodd" clip-rule="evenodd" d="M0 14.534V1.468C0 .662.66.002 1.466.002h4.087c.806 0 1.466.66 1.466 1.466v13.069a1.47 1.47 0 0 1-1.466 1.465H1.466A1.47 1.47 0 0 1 0 14.534Zm5.021-.532v-12h-3v12h3ZM8.979 1.468v13.066c0 .806.659 1.465 1.465 1.465h4.087a1.47 1.47 0 0 0 1.466-1.465V1.468A1.465 1.465 0 0 0 14.535.002h-4.088c-.81 0-1.468.66-1.468 1.466ZM14 14.002v-12h-3v12h3Z"/></svg>
