<!--
* SPDX-FileCopyrightText: © 2020 Liferay, Inc. <https://liferay.com>
* SPDX-FileCopyrightText: © 2020 Contributors to the project Clay <https://github.com/liferay/clay/graphs/contributors>
*
* SPDX-License-Identifier: BSD-3-Clause
-->
<svg  viewBox="0 0 16 16" xmlns="http://www.w3.org/2000/svg">
<path class="lexicon-icon-outline" fill-rule="evenodd" clip-rule="evenodd" d="M0 14.5338V1.4682C0 0.661926 0.65918 0.00256348 1.46582 0.00256348H5.55273C6.35938 0.00256348 7.01855 0.661926 7.01855 1.4682V14.5369C7.01855 15.3432 6.35938 16.0026 5.55273 16.0026H1.46582C0.65918 16.0026 0 15.3432 0 14.5338ZM5.02148 14.0026V2.00256H2.02148V14.0026H5.02148Z" />
<path class="lexicon-icon-outline" fill-rule="evenodd" clip-rule="evenodd" d="M8.97852 1.4682V14.5338C8.97852 15.3401 9.6377 15.9995 10.4443 15.9995H14.5312C15.3379 15.9995 15.9971 15.3401 15.9971 14.5338V1.4682C16 0.661926 15.3408 0.00256348 14.5352 0.00256348H10.4473C9.6377 0.00256348 8.97852 0.661926 8.97852 1.4682ZM14 14.0026V2.00256H11V14.0026H14Z" />
</svg>
