<!--
* SPDX-FileCopyrightText: © 2022 Liferay, Inc. <https://liferay.com>
* SPDX-FileCopyrightText: © 2022 Contributors to the project Clay <https://github.com/liferay/clay/graphs/contributors>
*
* SPDX-License-Identifier: BSD-3-Clause
-->
<svg viewBox="0 0 16 16" xmlns="http://www.w3.org/2000/svg"><path class="lexicon-icon-outline" fill-rule="evenodd" clip-rule="evenodd" d="M0 14.531V1.466C0 .66.66 0 1.466 0h4.087c.806 0 1.466.66 1.466 1.466v13.069A1.47 1.47 0 0 1 5.553 16H1.466A1.47 1.47 0 0 1 0 14.531Zm5.021-.53V2h-3v12h3ZM8.979 1.466V14.53a1.47 1.47 0 0 0 1.465 1.466h4.087a1.47 1.47 0 0 0 1.466-1.466V1.466A1.465 1.465 0 0 0 14.535 0h-4.088C9.637 0 8.98.66 8.98 1.466ZM14 14V2h-3v12h3Z"/></svg>