<!--
* SPDX-FileCopyrightText: © 2020 Liferay, Inc. <https://liferay.com>
* SPDX-FileCopyrightText: © 2020 Contributors to the project Clay <https://github.com/liferay/clay/graphs/contributors>
*
* SPDX-License-Identifier: BSD-3-Clause
-->
<svg viewBox="0 0 16 16" xmlns="http://www.w3.org/2000/svg"><path fill-rule="evenodd" clip-rule="evenodd" d="M0 8.002a8 8 0 0 1 8-8 8 8 0 0 1 8 8 8 8 0 0 1-8 8 8 8 0 0 1-8-8Zm15 0c0-3.86-3.14-7-7-7s-7 3.14-7 7c0 .949.383 2.196.47 2.482l.01.03A4.538 4.538 0 0 1 3.817 8.34 2.478 2.478 0 0 1 3 6.502c0-3.312 5-3.375 5 0 0 .732-.322 1.388-.825 1.844.419.178.815.406 1.163.69.34-.302.73-.55 1.16-.727A1.979 1.979 0 0 1 9 7.002c0-2.75 4-2.625 4 0a2 2 0 0 1-.494 1.307 4.035 4.035 0 0 1 2.1 1.99A6.99 6.99 0 0 0 15 8.002Zm-8-1.5c0 1.97-3 2-3 0s3-2.062 3 0Zm1.875 6c0-4.062-5.844-4.687-6.688-.606a6.992 6.992 0 0 0 5.576 3.094 3.36 3.36 0 0 0 1.112-2.488Z"/></svg>
