<!--
* SPDX-FileCopyrightText: © 2020 Liferay, Inc. <https://liferay.com>
* SPDX-FileCopyrightText: © 2020 Contributors to the project Clay <https://github.com/liferay/clay/graphs/contributors>
*
* SPDX-License-Identifier: BSD-3-Clause
-->
<svg  viewBox="0 0 16 16" xmlns="http://www.w3.org/2000/svg">
<path class="lexicon-icon-outline" fill-rule="evenodd" clip-rule="evenodd" d="M0 8.00256C0 3.5838 3.58105 0.00256348 8 0.00256348C12.4189 0.00256348 16 3.5838 16 8.00256C16 12.4213 12.4189 16.0026 8 16.0026C3.58105 16.0026 0 12.4213 0 8.00256ZM15 8.00256C15 4.14319 11.8594 1.00256 8 1.00256C4.14062 1.00256 1 4.14319 1 8.00256C1 8.95114 1.38281 10.1984 1.4707 10.4847L1.47949 10.5149C1.96289 9.53693 2.7998 8.75882 3.81836 8.34006C3.31836 7.88382 3 7.23383 3 6.50256C3 3.19006 8 3.12756 8 6.50256C8 7.23383 7.67773 7.89008 7.1748 8.34631C7.59375 8.52444 7.99023 8.75256 8.33789 9.03693C8.67773 8.73383 9.06836 8.48694 9.49707 8.30881C9.19043 7.95569 9 7.50568 9 7.00256C9 4.25256 13 4.37756 13 7.00256C13 7.50256 12.8096 7.95569 12.5059 8.30881C13.4277 8.69006 14.1777 9.39944 14.6064 10.2994C14.8564 9.57758 15 8.80881 15 8.00256ZM7 6.50256C7 8.47131 4 8.50256 4 6.50256C4 4.50256 7 4.44006 7 6.50256ZM8.875 12.5026C8.875 8.44006 3.03125 7.81506 2.1875 11.8963C3.40332 13.7057 5.44043 14.9119 7.7627 14.9901C8.44043 14.3713 8.875 13.4901 8.875 12.5026Z" />
</svg>
