<!--
* SPDX-FileCopyrightText: © 2022 Liferay, Inc. <https://liferay.com>
* SPDX-FileCopyrightText: © 2022 Contributors to the project Clay <https://github.com/liferay/clay/graphs/contributors>
*
* SPDX-License-Identifier: BSD-3-Clause
-->
<svg viewBox="0 0 16 16" xmlns="http://www.w3.org/2000/svg"><path class="lexicon-icon-outline" fill-rule="evenodd" clip-rule="evenodd" d="M0 8a8 8 0 0 1 8-8 8 8 0 0 1 8 8 8 8 0 0 1-8 8 8 8 0 0 1-8-8Zm15 0c0-3.86-3.14-7-7-7S1 4.14 1 8c0 .949.383 2.196.47 2.482l.01.03a4.538 4.538 0 0 1 2.338-2.174A2.478 2.478 0 0 1 3 6.5c0-3.312 5-3.375 5 0 0 .731-.322 1.388-.825 1.844.419.178.815.406 1.163.69.34-.303.73-.55 1.16-.728A1.979 1.979 0 0 1 9 7c0-2.75 4-2.625 4 0 0 .5-.19.953-.494 1.306a4.035 4.035 0 0 1 2.1 1.991A6.99 6.99 0 0 0 15 8ZM7 6.5c0 1.969-3 2-3 0s3-2.062 3 0Zm1.875 6c0-4.062-5.844-4.687-6.688-.606a6.992 6.992 0 0 0 5.576 3.094A3.361 3.361 0 0 0 8.875 12.5Z"/></svg>