<!--
* SPDX-FileCopyrightText: © 2020 Liferay, Inc. <https://liferay.com>
* SPDX-FileCopyrightText: © 2020 Contributors to the project Clay <https://github.com/liferay/clay/graphs/contributors>
*
* SPDX-License-Identifier: BSD-3-Clause
-->
<svg  viewBox="0 0 16 16" xmlns="http://www.w3.org/2000/svg">
<path class="lexicon-icon-outline" d="M4.66901 2.45194C4.66901 1.84132 5.1689 1.3418 5.77934 1.3418C6.38978 1.3418 6.88967 1.84139 6.88967 2.45194V5.78243L6.88576 5.86631C6.90826 6.13509 6.81728 6.41175 6.61282 6.61615C6.40836 6.82066 6.13249 6.91146 5.86347 6.88902L5.77934 6.89251H2.44933C1.83889 6.89251 1.339 6.39298 1.339 5.78236C1.339 5.17181 1.83889 4.67222 2.44933 4.67222H3.32879L0.276604 1.61914C-0.0922014 1.25064 -0.0922014 0.647603 0.276604 0.279105C0.644432 -0.0894543 1.24802 -0.0894543 1.61585 0.279105L4.66901 3.33219V2.45194Z" />
<path class="lexicon-icon-outline" d="M2.44933 11.3331C1.83889 11.3331 1.339 10.8335 1.339 10.223C1.339 9.61243 1.83889 9.11285 2.44933 9.11285H5.77934L5.86347 9.11633C6.13249 9.0939 6.40836 9.18475 6.61282 9.38921C6.81728 9.59366 6.90826 9.87027 6.88576 10.139C6.88869 10.1667 6.88967 10.1947 6.88967 10.223V13.5534C6.88967 14.164 6.38978 14.6636 5.77934 14.6636C5.1689 14.6636 4.66901 14.164 4.66901 13.5534V12.6732L1.61585 15.7263C1.24802 16.0948 0.644432 16.0948 0.276604 15.7263C-0.0922014 15.3578 -0.0922014 14.7547 0.276604 14.3862L3.32879 11.3331H2.44933Z" />
<path class="lexicon-icon-outline" d="M10.2207 14.6636C10.8311 14.6636 11.331 14.164 11.331 13.5535V12.6732L14.3842 15.7263C14.752 16.0948 15.3556 16.0948 15.7234 15.7263C16.0922 15.3578 16.0922 14.7547 15.7234 14.3862L12.6702 11.3331H13.5507C14.1611 11.3331 14.661 10.8336 14.661 10.223C14.661 9.61243 14.1611 9.11285 13.5507 9.11285H10.2207L10.1365 9.11633C9.86751 9.09396 9.59066 9.18475 9.3862 9.38921C9.18174 9.59366 9.09174 9.87033 9.11424 10.139C9.11131 10.1668 9.11033 10.1947 9.11033 10.223V13.5534C9.11033 14.164 9.61022 14.6636 10.2207 14.6636Z" />
<path class="lexicon-icon-outline" d="M13.5507 4.67222C14.1611 4.67222 14.661 5.17181 14.661 5.78236C14.661 6.39292 14.1611 6.89251 13.5507 6.89251H10.2207L10.1365 6.88902C9.86751 6.91146 9.59164 6.8206 9.3862 6.61615C9.18174 6.41169 9.09174 6.13503 9.11424 5.86631C9.11131 5.83855 9.11033 5.81067 9.11033 5.78236V2.45194C9.11033 1.84132 9.61022 1.3418 10.2207 1.3418C10.8311 1.3418 11.331 1.84132 11.331 2.45194V3.33219L14.3842 0.279105C14.752 -0.0894543 15.3556 -0.0894543 15.7234 0.279105C16.0922 0.647603 16.0922 1.25058 15.7234 1.61914L12.6702 4.67222H13.5507Z" />
</svg>
