<!--
* SPDX-FileCopyrightText: © 2024 Liferay, Inc. <https://liferay.com>
* SPDX-FileCopyrightText: © 2024 Contributors to the project Clay <https://github.com/liferay/clay/graphs/contributors>
*
* SPDX-License-Identifier: BSD-3-Clause
-->
<svg xmlns="http://www.w3.org/2000/svg" viewBox="0 0 16 16"><path fill-rule="evenodd" d="M0 1.625v9.75C0 12.271.728 13 1.625 13H7v-1.625H1.625v-9.75h9.75V6H13V1.625C13 .729 12.272 0 11.375 0h-9.75C.728 0 0 .729 0 1.625Zm9.75 2.438a1.625 1.625 0 1 1-3.25 0 1.625 1.625 0 0 1 3.25 0Zm-6.5 1.625 1.625-3.25L6.5 5.688H3.25ZM7 9v1H3.5c-.687 0-.656-1 0-1H7Zm0-1v-.576A.652.652 0 0 1 7.153 7H3.5c-.656 0-.688 1 0 1H7Z" clip-rule="evenodd"/><path fill-rule="evenodd" d="M15 8.548A8.031 8.031 0 0 0 12.009 8h-.018A8.03 8.03 0 0 0 9 8.548v2.724a3.74 3.74 0 0 0 .675 2.144 3.897 3.897 0 0 0 1.811 1.406l.426.162c.056.021.12.021.176 0l.425-.161a3.9 3.9 0 0 0 1.812-1.407A3.733 3.733 0 0 0 15 11.272V8.548Zm-2.131 7.21-.427.161a1.25 1.25 0 0 1-.884 0l-.427-.162a4.897 4.897 0 0 1-2.276-1.77A4.733 4.733 0 0 1 8 11.27V8.282c0-.116.032-.229.095-.326a.61.61 0 0 1 .261-.224A9.027 9.027 0 0 1 12 7a9.027 9.027 0 0 1 3.644.732.612.612 0 0 1 .26.224c.064.097.097.21.096.326v2.988a4.734 4.734 0 0 1-.855 2.718 4.897 4.897 0 0 1-2.276 1.77Z" clip-rule="evenodd"/><path d="M11.653 12.7a.382.382 0 0 1-.274-.117l-1.16-1.202c-.36-.37.188-.937.546-.566l.87.9 1.783-2.075c.337-.396.919.133.582.53l-2.056 2.394a.382.382 0 0 1-.278.136h-.013Z"/></svg>
