<!--
* SPDX-FileCopyrightText: © 2020 Liferay, Inc. <https://liferay.com>
* SPDX-FileCopyrightText: © 2020 Contributors to the project Clay <https://github.com/liferay/clay/graphs/contributors>
*
* SPDX-License-Identifier: BSD-3-Clause
-->
<svg viewBox="0 0 16 16" xmlns="http://www.w3.org/2000/svg"><path d="M1 4.002h9.269a2 2 0 0 0 3.462 0H15a1 1 0 1 0 0-2h-1.269a2 2 0 0 0-3.462 0H1a1 1 0 1 0 0 2Zm14 8h-1.269a2 2 0 0 0-3.462 0H1a1 1 0 1 0 0 2h9.269a2 2 0 0 0 3.462 0H15a1 1 0 1 0 0-2Zm-9.269-5H15a1 1 0 1 1 0 2H5.729a2 2 0 0 1-3.463 0H1a1 1 0 1 1 0-2h1.269a2 2 0 0 1 3.462 0Z"/></svg>
