<!--
* SPDX-FileCopyrightText: © 2020 Liferay, Inc. <https://liferay.com>
* SPDX-FileCopyrightText: © 2020 Contributors to the project Clay <https://github.com/liferay/clay/graphs/contributors>
*
* SPDX-License-Identifier: BSD-3-Clause
-->
<svg  viewBox="0 0 16 16" xmlns="http://www.w3.org/2000/svg">
<path class="lexicon-icon-outline" d="M1 4.00256H10.2686C10.6152 4.59943 11.2598 5.00256 12 5.00256C12.7402 5.00256 13.3848 4.59943 13.7314 4.00256H15C15.5527 4.00256 16 3.55566 16 3.00256C16 2.44946 15.5527 2.00256 15 2.00256H13.7314C13.3848 1.4057 12.7402 1.00256 12 1.00256C11.2598 1.00256 10.6152 1.4057 10.2686 2.00256H1C0.447266 2.00256 0 2.44946 0 3.00256C0 3.55566 0.447266 4.00256 1 4.00256Z" />
<path class="lexicon-icon-outline" d="M15 12.0026H13.7314C13.3848 11.4057 12.7402 11.0026 12 11.0026C11.2598 11.0026 10.6152 11.4057 10.2686 12.0026H1C0.447266 12.0026 0 12.4495 0 13.0026C0 13.5557 0.447266 14.0026 1 14.0026H10.2686C10.6152 14.5994 11.2598 15.0026 12 15.0026C12.7402 15.0026 13.3848 14.5994 13.7314 14.0026H15C15.5527 14.0026 16 13.5557 16 13.0026C16 12.4495 15.5527 12.0026 15 12.0026Z" />
<path class="lexicon-icon-outline" d="M5.73145 7.00256H15C15.5527 7.00256 16 7.44946 16 8.00256C16 8.55566 15.5527 9.00256 15 9.00256H5.72852C5.38086 9.59943 4.7373 10.0026 3.99707 10.0026C3.25586 10.0026 2.6123 9.59943 2.26562 9.00256H1C0.447266 9.00256 0 8.55566 0 8.00256C0 7.44946 0.447266 7.00256 1 7.00256H2.26855C2.61523 6.4057 3.25977 6.00256 4 6.00256C4.74023 6.00256 5.38477 6.4057 5.73145 7.00256Z" />
</svg>
