<!--
* SPDX-FileCopyrightText: © 2022 Liferay, Inc. <https://liferay.com>
* SPDX-FileCopyrightText: © 2022 Contributors to the project Clay <https://github.com/liferay/clay/graphs/contributors>
*
* SPDX-License-Identifier: BSD-3-Clause
-->
<svg viewBox="0 0 16 16" xmlns="http://www.w3.org/2000/svg"><path d="M13.021 6.934c-1.053-1.128-.35-2.42-1.003-3.035-.716-.675-2.253-.406-3.01-1.012C7.065.917 8.315-.39 6.002.108c-6.02 1.71-8.207 9.289-3.303 13.91 4.794 4.151 12.488 1.489 13.282-5.175.25-2.222-1.85-.756-2.96-1.91ZM2.992 10.98c0-1.366 2.007-1.334 2.007 0 0 1.332-2.007 1.363-2.007 0Zm0-5.563c0-2.034 3.01-2.034 3.01 0 0 1.975-3.01 1.975-3.01 0Zm6.02 7.588c0-1.322 2.006-1.353 2.006 0-.003 1.31-2.006 1.341-2.006 0ZM8.008 8.453c0-2.032 3.01-2.063 3.01 0-.003 1.978-3.01 2.04-3.01 0Z"/></svg>
