<!--
* SPDX-FileCopyrightText: © 2020 Liferay, Inc. <https://liferay.com>
* SPDX-FileCopyrightText: © 2020 Contributors to the project Clay <https://github.com/liferay/clay/graphs/contributors>
*
* SPDX-License-Identifier: BSD-3-Clause
-->
<svg  viewBox="0 0 16 16" xmlns="http://www.w3.org/2000/svg">
<path class="lexicon-icon-outline" d="M13.0213 6.9341C11.9681 5.80587 12.6713 4.51512 12.0181 3.89944C11.3024 3.22438 9.76478 3.49315 9.00846 2.88684C7.06453 0.917912 8.31464 -0.38846 6.00193 0.108461C-0.017381 1.818 -2.20508 9.39683 2.6985 14.0191C7.49269 18.1695 15.1872 15.5068 15.981 8.84365C16.231 6.62157 14.1308 8.08733 13.0213 6.9341ZM2.99227 10.9813C2.99227 9.6156 4.99871 9.64685 4.99871 10.9813C4.99871 12.3127 2.99227 12.344 2.99227 10.9813ZM2.99227 5.41833C2.99227 3.38377 6.00193 3.38377 6.00193 5.41833C6.00193 7.39351 2.99227 7.39351 2.99227 5.41833ZM9.01159 13.0065C9.01159 11.6845 11.018 11.6533 11.018 13.0065C11.0149 14.316 9.01159 14.3473 9.01159 13.0065ZM8.00837 8.45299C8.00837 6.42155 11.018 6.3903 11.018 8.45299C11.0149 10.4313 8.00837 10.4938 8.00837 8.45299Z" />
</svg>
