<!--
* SPDX-FileCopyrightText: © 2022 Liferay, Inc. <https://liferay.com>
* SPDX-FileCopyrightText: © 2022 Contributors to the project Clay <https://github.com/liferay/clay/graphs/contributors>
*
* SPDX-License-Identifier: BSD-3-Clause
-->
<svg viewBox="0 0 16 16" xmlns="http://www.w3.org/2000/svg"><path class="lexicon-icon-outline" d="M13.02 6.932c-1.053-1.129-.35-2.42-1.003-3.035-.716-.675-2.254-.406-3.01-1.013C7.063.916 8.313-.39 6 .106c-6.019 1.71-8.207 9.288-3.303 13.91 4.794 4.151 12.489 1.488 13.282-5.175.25-2.222-1.85-.756-2.96-1.91ZM2.99 10.979c0-1.366 2.007-1.335 2.007 0 0 1.331-2.006 1.363-2.006 0Zm0-5.563C2.99 3.38 6 3.38 6 5.416c0 1.975-3.01 1.975-3.01 0Zm6.02 7.588c0-1.322 2.007-1.353 2.007 0-.004 1.31-2.007 1.34-2.007 0ZM8.007 8.451c0-2.032 3.01-2.063 3.01 0-.004 1.978-3.01 2.04-3.01 0Z"/></svg>