<!--
* SPDX-FileCopyrightText: © 2020 Liferay, Inc. <https://liferay.com>
* SPDX-FileCopyrightText: © 2020 Contributors to the project Clay <https://github.com/liferay/clay/graphs/contributors>
*
* SPDX-License-Identifier: BSD-3-Clause
-->
<svg xmlns="http://www.w3.org/2000/svg" viewBox="0 0 512 512">
	<path class="lexicon-icon-body" d="M100,128h60V68c0-37.4,30.6-68,68-68h184c37.4,0,68,30.6,68,68v248c0,37.4-30.6,68-68,68h-60v60c0,37.4-30.6,68-68,68H100c-37.4,0-68-30.6-68-68V196C32,158.6,62.6,128,100,128z" fill="none"/>
	<path class="lexicon-icon-outline" d="M100,128h60V68c0-37.4,30.6-68,68-68h184c37.4,0,68,30.6,68,68v248c0,37.4-30.6,68-68,68h-60v60c0,37.4-30.6,68-68,68H100c-37.4,0-68-30.6-68-68V196C32,158.6,62.6,128,100,128z M352,196v124h64V64H224v64h60C321.4,128,352,158.6,352,196z M96,448h192V192H96V448z"/>
</svg>