<!--
* SPDX-FileCopyrightText: © 2022 Liferay, Inc. <https://liferay.com>
* SPDX-FileCopyrightText: © 2022 Contributors to the project Clay <https://github.com/liferay/clay/graphs/contributors>
*
* SPDX-License-Identifier: BSD-3-Clause
-->
<svg viewBox="0 0 16 16" xmlns="http://www.w3.org/2000/svg"><path class="lexicon-icon-outline" fill-rule="evenodd" clip-rule="evenodd" d="M12.875 4H11V2.125A2.131 2.131 0 0 0 8.875 0h-5.75A2.131 2.131 0 0 0 1 2.125v7.75A2.13 2.13 0 0 0 3.125 12H5v1.875A2.13 2.13 0 0 0 7.125 16h5.75A2.131 2.131 0 0 0 15 13.875v-7.75A2.131 2.131 0 0 0 12.875 4ZM5 6.125V10H3V2h6v2H7.125A2.131 2.131 0 0 0 5 6.125ZM7 14h6V6H7v8Z"/></svg>