<!--
* SPDX-FileCopyrightText: © 2020 Liferay, Inc. <https://liferay.com>
* SPDX-FileCopyrightText: © 2020 Contributors to the project Clay <https://github.com/liferay/clay/graphs/contributors>
*
* SPDX-License-Identifier: BSD-3-Clause
-->
<svg viewBox="0 0 16 16" xmlns="http://www.w3.org/2000/svg"><path fill-rule="evenodd" clip-rule="evenodd" d="M12.875 4.002H11V2.127A2.131 2.131 0 0 0 8.875.002h-5.75A2.131 2.131 0 0 0 1 2.127v7.75a2.13 2.13 0 0 0 2.125 2.125H5v1.875a2.13 2.13 0 0 0 2.125 2.125h5.75A2.131 2.131 0 0 0 15 13.877v-7.75a2.131 2.131 0 0 0-2.125-2.125ZM5 6.127v3.875H3v-8h6v2H7.125A2.131 2.131 0 0 0 5 6.127Zm2 7.875h6v-8H7v8Z"/></svg>
