<!--
* SPDX-FileCopyrightText: © 2020 Liferay, Inc. <https://liferay.com>
* SPDX-FileCopyrightText: © 2020 Contributors to the project Clay <https://github.com/liferay/clay/graphs/contributors>
*
* SPDX-License-Identifier: BSD-3-Clause
-->
<svg  viewBox="0 0 16 16" xmlns="http://www.w3.org/2000/svg">
<path class="lexicon-icon-outline" fill-rule="evenodd" clip-rule="evenodd" d="M12.875 4.00256H11V2.12756C11 0.958801 10.0439 0.00256348 8.875 0.00256348H3.125C1.95605 0.00256348 1 0.958801 1 2.12756V9.87756C1 11.0463 1.95605 12.0026 3.125 12.0026H5V13.8776C5 15.0463 5.95605 16.0026 7.125 16.0026H12.875C14.0439 16.0026 15 15.0463 15 13.8776V6.12756C15 4.9588 14.0439 4.00256 12.875 4.00256ZM5 6.12756V10.0026H3V2.00256H9V4.00256H7.125C5.95605 4.00256 5 4.9588 5 6.12756ZM7 14.0026H13V6.00256H7V14.0026Z" />
</svg>
