<!--
* SPDX-FileCopyrightText: © 2020 Liferay, Inc. <https://liferay.com>
* SPDX-FileCopyrightText: © 2020 Contributors to the project Clay <https://github.com/liferay/clay/graphs/contributors>
*
* SPDX-License-Identifier: BSD-3-Clause
-->
<svg viewBox="0 0 16 16" xmlns="http://www.w3.org/2000/svg"><path fill-rule="evenodd" clip-rule="evenodd" d="M2 4.002c0-1.103.897-2 2-2h2v-2H4a4 4 0 0 0-4 4v2h2v-2Zm8-4h2a4 4 0 0 1 4 4v2h-2v-2c0-1.103-.897-2-2-2h-2v-2Zm2 14c1.103 0 2-.897 2-2v-2h2v2a4 4 0 0 1-4 4h-2v-2h2Zm-10-4v2c0 1.103.897 2 2 2h2v2H4a4 4 0 0 1-4-4v-2h2Z"/></svg>
