<!--
* SPDX-FileCopyrightText: © 2025 Liferay, Inc. <https://liferay.com>
* SPDX-FileCopyrightText: © 2025 Contributors to the project Clay <https://github.com/liferay/clay/graphs/contributors>
*
* SPDX-License-Identifier: BSD-3-Clause
-->
<svg viewBox="0 0 16 16" xmlns="http://www.w3.org/2000/svg">
	<path class="lexicon-icon-outline" d="M15 14.125a.875.875 0 0 1-.875.875H1.875a.875.875 0 0 1 0-1.75h12.25c.483 0 .875.392.875.875Z"/>
	<path class="lexicon-icon-outline" fill-rule="evenodd" d="m11.5 4.938 2.02-1.104A1 1 0 0 1 15 4.71v6.79H1V4.71a1 1 0 0 1 1.48-.877L4.5 4.938 7.253 1.84a1 1 0 0 1 1.494 0L11.5 4.938ZM4.846 7.12 2.75 5.975V9.75h10.5V5.975l-2.172 1.188L8 3.5 4.846 7.12Z" clip-rule="evenodd"/>
</svg>
