<!--
* SPDX-FileCopyrightText: © 2022 Liferay, Inc. <https://liferay.com>
* SPDX-FileCopyrightText: © 2022 Contributors to the project Clay <https://github.com/liferay/clay/graphs/contributors>
*
* SPDX-License-Identifier: BSD-3-Clause
-->
<svg viewBox="0 0 16 16" xmlns="http://www.w3.org/2000/svg"><path class="lexicon-icon-outline" d="M3.922 1.842 5.44.242a.77.77 0 0 1 1.12 0l1.518 1.6c.482.478.16 1.36-.56 1.36H6.8v3.2c0 1.078-1.6 1.065-1.6 0v-3.2h-.719c-.718 0-1.04-.878-.56-1.36Z"/><path class="lexicon-icon-outline" d="M10.4 14.401v-1.6h1.599v1.6c0 .881-.719 1.6-1.6 1.6H1.6c-.88 0-1.599-.719-1.599-1.6v-8.8c0-.88.719-1.6 1.6-1.6h1.6v1.6H1.6v8.8h8.8ZM12 7.202h-1.6v-1.6H8.8v-1.6h1.6c.881 0 1.6.718 1.6 1.6v1.6Z"/><path class="lexicon-icon-outline" d="m15.759 9.442-1.6-1.519c-.481-.48-1.36-.159-1.36.56V9.2H9.6c-1.05 0-1.065 1.6 0 1.6h3.2v.72c0 .718.882 1.04 1.36.558l1.6-1.518a.768.768 0 0 0 0-1.119Z"/></svg>