<!--
* SPDX-FileCopyrightText: © 2020 Liferay, Inc. <https://liferay.com>
* SPDX-FileCopyrightText: © 2020 Contributors to the project Clay <https://github.com/liferay/clay/graphs/contributors>
*
* SPDX-License-Identifier: BSD-3-Clause
-->
<svg viewBox="0 0 16 16" xmlns="http://www.w3.org/2000/svg"><path d="M3.922 1.844 5.44.244a.77.77 0 0 1 1.12 0l1.518 1.6c.482.478.16 1.359-.56 1.359H6.8v3.2c0 1.078-1.6 1.065-1.6 0v-3.2h-.719c-.718 0-1.04-.878-.56-1.36Z"/><path d="M10.4 14.402v-1.6h1.599v1.6c0 .882-.719 1.6-1.6 1.6H1.6c-.88 0-1.599-.718-1.599-1.6v-8.8c0-.88.719-1.6 1.6-1.6h1.6v1.6H1.6v8.8h8.8ZM12 7.203h-1.6v-1.6H8.8v-1.6h1.6c.881 0 1.6.719 1.6 1.6v1.6Z"/><path d="m15.759 9.443-1.6-1.518c-.481-.482-1.36-.16-1.36.559v.719H9.6c-1.05 0-1.065 1.6 0 1.6h3.2v.718c0 .719.882 1.04 1.36.56l1.6-1.52a.768.768 0 0 0 0-1.118Z"/></svg>
