<!--
* SPDX-FileCopyrightText: © 2020 Liferay, Inc. <https://liferay.com>
* SPDX-FileCopyrightText: © 2020 Contributors to the project Clay <https://github.com/liferay/clay/graphs/contributors>
*
* SPDX-License-Identifier: BSD-3-Clause
-->
<svg  viewBox="0 0 16 16" xmlns="http://www.w3.org/2000/svg">
<path class="lexicon-icon-outline" d="M3.92188 1.84386L5.44043 0.243942C5.75977 -0.0778961 6.24023 -0.0778961 6.55957 0.243942L8.07812 1.84386C8.55957 2.32195 8.2373 3.20317 7.51855 3.20317H6.7998V6.403C6.7998 7.48106 5.2002 7.46861 5.2002 6.403V3.20317H4.48145C3.7627 3.20317 3.44043 2.32512 3.92188 1.84386Z" />
<path class="lexicon-icon-outline" d="M10.3994 14.4026V12.8027H11.999V14.4026C11.999 15.2839 11.2803 16.0025 10.3994 16.0025H1.59961C0.71875 16.0025 0 15.2839 0 14.4026V5.60307C0 4.72185 0.71875 4.00316 1.59961 4.00316H3.2002V5.60307H1.59961V14.4026H10.3994Z" />
<path class="lexicon-icon-outline" d="M12 7.20299H10.3994V5.60307H8.7998V4.00316H10.3994C11.2812 4.00316 12 4.72185 12 5.60307V7.20299Z" />
<path class="lexicon-icon-outline" d="M15.7588 9.44347L14.1592 7.92479C13.6777 7.44359 12.7998 7.76543 12.7998 8.48418V9.20287H9.59961C8.5498 9.20287 8.53418 10.8028 9.59961 10.8028H12.7998V11.5215C12.7998 12.2402 13.6807 12.5621 14.1592 12.0809L15.7588 10.5622C16.0811 10.2435 16.0811 9.76225 15.7588 9.44347Z" />
</svg>
