<!--
* SPDX-FileCopyrightText: © 2020 Liferay, Inc. <https://liferay.com>
* SPDX-FileCopyrightText: © 2020 Contributors to the project Clay <https://github.com/liferay/clay/graphs/contributors>
*
* SPDX-License-Identifier: BSD-3-Clause
-->
<svg  viewBox="0 0 16 16" xmlns="http://www.w3.org/2000/svg">
<path class="lexicon-icon-outline" fill-rule="evenodd" clip-rule="evenodd" d="M11.8928 10.7753L9.12041 8.00721L9.13412 8.00011L7.42389 6.29294L7.41605 6.3001L6.34802 5.23584C6.67303 4.7108 6.86295 4.09297 6.86295 3.43226C6.86295 1.53937 5.32697 0.00366211 3.43367 0.00366211C1.54038 0.00366211 0.00440409 1.53937 0.00440409 3.43226C0.00440409 5.32509 1.54038 6.8608 3.43367 6.8608C3.77239 6.8608 4.10524 6.81082 4.41556 6.71796L5.70876 8.01082L5.29173 8.42679L4.42633 9.29297C4.10817 9.19651 3.77631 9.14653 3.42976 9.14653C1.53646 9.14653 0.000488281 10.6822 0.000488281 12.5751C0.000488281 14.468 1.53646 16.0037 3.42976 16.0037C5.32305 16.0037 6.85903 14.468 6.85903 12.5751C6.85903 11.918 6.67009 11.3001 6.34802 10.7786L7.06853 10.0574L7.41312 9.71438L11.3961 13.6914C12.1461 14.4402 13.1626 14.8608 14.2224 14.8608H14.7788C15.2238 14.8608 15.4471 14.324 15.1324 14.0094C14.3089 13.1861 13.1558 12.0354 11.8928 10.7753ZM10.8355 6.29655L15.1439 2.00059C15.4596 1.68582 15.2367 1.14653 14.7909 1.14653H14.2145C13.153 1.14653 12.135 1.56846 11.3847 2.31941L9.12041 4.58583L10.8355 6.29655ZM3.42682 4.57513C4.05923 4.57513 4.56926 4.06441 4.56926 3.43226C4.56926 2.80011 4.05923 2.28939 3.42682 2.28939C2.79442 2.28939 2.28341 2.80011 2.28341 3.43226C2.28341 4.06441 2.79442 4.57513 3.42682 4.57513ZM3.42682 11.4323C4.05923 11.4323 4.56926 11.943 4.56926 12.5751C4.56926 13.2073 4.05923 13.718 3.42682 13.718C2.79442 13.718 2.28341 13.2073 2.28341 12.5751C2.28341 11.943 2.79442 11.4323 3.42682 11.4323Z" />
</svg>
