<!--
* SPDX-FileCopyrightText: © 2022 Liferay, Inc. <https://liferay.com>
* SPDX-FileCopyrightText: © 2022 Contributors to the project Clay <https://github.com/liferay/clay/graphs/contributors>
*
* SPDX-License-Identifier: BSD-3-Clause
-->
<svg viewBox="0 0 16 16" xmlns="http://www.w3.org/2000/svg"><path class="lexicon-icon-outline" fill-rule="evenodd" clip-rule="evenodd" d="M11.893 10.773 9.12 8.005l.014-.007-1.71-1.708-.008.008-1.068-1.065a3.417 3.417 0 0 0 .515-1.803 3.43 3.43 0 1 0-2.447 3.285l1.293 1.293-.417.416-.866.866a3.43 3.43 0 1 0 2.433 3.282c0-.657-.189-1.274-.511-1.796l.72-.721.345-.343 3.983 3.977a4 4 0 0 0 2.826 1.17h.557a.499.499 0 0 0 .353-.852c-.823-.823-1.976-1.974-3.24-3.234Zm-1.058-4.479 4.309-4.296a.5.5 0 0 0-.353-.854h-.577a4 4 0 0 0-2.83 1.173L9.12 4.583l1.716 1.711ZM3.427 4.573c.632 0 1.142-.511 1.142-1.143s-.51-1.143-1.142-1.143a1.142 1.142 0 1 0 0 2.286Zm0 6.857c.632 0 1.142.51 1.142 1.143a1.142 1.142 0 1 1-1.142-1.143Z"/></svg>