<!--
* SPDX-FileCopyrightText: © 2025 Liferay, Inc. <https://liferay.com>
* SPDX-FileCopyrightText: © 2025 Contributors to the project Clay <https://github.com/liferay/clay/graphs/contributors>
*
* SPDX-License-Identifier: BSD-3-Clause
-->
<svg viewBox="0 0 16 16" xmlns="http://www.w3.org/2000/svg">
	<path class="lexicon-icon-outline" fill-rule="evenodd" d="M8 .002c4.418 0 8 1.791 8 4v8c0 .703-.363 1.365-1 1.939l-.27.225c-1.424 1.105-3.906 1.836-6.73 1.836-2.824 0-5.306-.731-6.73-1.836L1 13.941c-.637-.574-1-1.236-1-1.939v-8c0-2.209 3.582-4 8-4Zm6.5 10.33c-1.452 1.01-3.822 1.67-6.5 1.67s-5.048-.66-6.5-1.67v1.67c0 .148.07.433.504.824.982.885 3.18 1.676 5.996 1.676 2.816 0 5.014-.791 5.996-1.676.433-.39.504-.676.504-.824v-1.67Zm0-4c-1.452 1.01-3.822 1.67-6.5 1.67s-5.048-.66-6.5-1.67v1.67c0 .148.07.433.504.824.982.885 3.18 1.676 5.996 1.676 2.816 0 5.014-.791 5.996-1.676.433-.39.504-.676.504-.824v-1.67ZM8 1.502c-2.027 0-3.788.415-4.986 1.014C1.726 3.16 1.5 3.772 1.5 4.002c0 .148.07.433.504.824.982.885 3.18 1.676 5.996 1.676 2.816 0 5.014-.791 5.996-1.676.433-.39.504-.676.504-.824 0-.23-.226-.842-1.514-1.486-1.198-.6-2.96-1.014-4.986-1.014Z" clip-rule="evenodd"/>
</svg>
