<!--
* SPDX-FileCopyrightText: © 2025 Liferay, Inc. <https://liferay.com>
* SPDX-FileCopyrightText: © 2025 Contributors to the project Clay <https://github.com/liferay/clay/graphs/contributors>
*
* SPDX-License-Identifier: BSD-3-Clause
-->
<svg viewBox="0 0 16 16" xmlns="http://www.w3.org/2000/svg">
	<path class="lexicon-icon-outline" clip-rule="evenodd" d="M13.345 8.564c1.173 0 2.124.951 2.124 2.124v1.063l-.002.06A.852.852 0 0 1 16 12.6v2.55c0 .468-.382.85-.85.85h-3.716c-.469 0-.744-.382-.744-.85V12.6c0-.392.193-.723.53-.82v-1.091c0-1.174.952-2.125 2.125-2.125Zm-.532 4.779v1.595h1.063v-1.595h-1.063Zm.532-3.717c-.587 0-1.063.476-1.063 1.063v1.061h2.125v-1.062c0-.586-.476-1.062-1.062-1.062Z" fill-rule="evenodd" />
	<path class="lexicon-icon-outline" clip-rule="evenodd" d="M8 0c4.418 0 8 1.79 8 4s-3.582 4-8 4c-.216 0-.539 0-.75-.009-2.368-.11-4.435-.738-5.75-1.654v1.67c0 .149.07.434.504.825.893.806 2.791 1.535 5.246 1.66.414.021.75.355.75.77a.724.724 0 0 1-.75.733c-2.368-.11-4.435-.738-5.75-1.654v1.672c0 .148.07.433.504.824.893.806 2.792 1.534 5.246 1.66a.78.78 0 0 1 .75.769.724.724 0 0 1-.75.733c-2.51-.117-4.683-.814-5.98-1.82L1 13.953c-.637-.574-1-1.236-1-1.94v-8.01c0-.034.004-.068.006-.103C.112 1.737 3.648 0 8 0Zm0 1.502c-2.027 0-3.788.415-4.986 1.015C1.887 3.08 1.574 3.62 1.513 3.9A.498.498 0 0 0 1.5 4c0 .23.226.842 1.514 1.486C4.212 6.086 5.974 6.5 8 6.5c2.027 0 3.788-.414 4.986-1.014C14.274 4.842 14.5 4.23 14.5 4c0-.23-.226-.842-1.514-1.486C11.788 1.914 10.026 1.5 8 1.5v.002Z" fill-rule="evenodd" />
</svg>