<!--
* SPDX-FileCopyrightText: © 2020 Liferay, Inc. <https://liferay.com>
* SPDX-FileCopyrightText: © 2020 Contributors to the project Clay <https://github.com/liferay/clay/graphs/contributors>
*
* SPDX-License-Identifier: BSD-3-Clause
-->
<svg  viewBox="0 0 16 16" xmlns="http://www.w3.org/2000/svg">
<path class="lexicon-icon-outline" d="M2.00049 0.00366211C0.895919 0.00366211 0.000488453 0.899093 0.000488453 2.00366V4.00366C0.000477686 4.00637 0.000976734 4.00908 0.000976734 4.01179V12.0305C0.000976734 13.1368 0.897852 14.0337 2.00098 14.0337H5.81035C5.45723 13.4243 5.21035 12.7493 5.0916 12.0305H2.00098V4.01179H12.001V5.10554C12.7197 5.22742 13.3947 5.47429 14.001 5.82742V4.01492C14.001 3.99999 14.0008 3.9851 14.0005 3.97025V2.00366C14.0005 0.899093 13.1051 0.00366211 12.0005 0.00366211H2.00049Z" />
<path class="lexicon-icon-outline" d="M11.001 11.0274H12.501C13.1635 11.0274 13.1666 12.0305 12.501 12.0305H10.001V9.52429C10.001 8.86804 11.001 8.86492 11.001 9.52429V11.0274Z" />
<path class="lexicon-icon-outline" fill-rule="evenodd" clip-rule="evenodd" d="M6.00098 11.0274C6.00098 17.618 16.001 17.7118 16.001 11.0274C16.001 4.31179 6.00098 4.46179 6.00098 11.0274ZM8.00098 11.0274C8.00098 7.02117 14.001 7.01804 14.001 11.0274C14.001 15.0368 8.00098 15.0368 8.00098 11.0274Z" />
<path class="lexicon-icon-outline" d="M4.00098 7.01804C4.55326 7.01804 5.00098 6.56893 5.00098 6.01492C5.00098 5.46091 4.55326 5.01179 4.00098 5.01179C3.44869 5.01179 3.00098 5.46091 3.00098 6.01492C3.00098 6.56893 3.44869 7.01804 4.00098 7.01804Z" />
</svg>
