<!--
* SPDX-FileCopyrightText: © 2022 Liferay, Inc. <https://liferay.com>
* SPDX-FileCopyrightText: © 2022 Contributors to the project Clay <https://github.com/liferay/clay/graphs/contributors>
*
* SPDX-License-Identifier: BSD-3-Clause
-->
<svg viewBox="0 0 16 16" xmlns="http://www.w3.org/2000/svg"><path class="lexicon-icon-outline" d="M2.763.795a2 2 0 0 0-2 2v10.027c0 1.106.898 2.003 2 2.003h3.81a5.91 5.91 0 0 1-.719-2.003h-3.09V4.803h10v1.094a5.942 5.942 0 0 1 2 .722V2.795a2 2 0 0 0-2-2h-10Z"/><path class="lexicon-icon-outline" d="M11.764 11.819h1.5c.662 0 .665 1.003 0 1.003h-2.5v-2.506c0-.656 1-.66 1 0v1.503Z"/><path class="lexicon-icon-outline" fill-rule="evenodd" clip-rule="evenodd" d="M6.764 11.819c0 6.59 10 6.684 10 0 0-6.716-10-6.566-10 0Zm2 0c0-4.006 6-4.01 6 0s-6 4.01-6 0Z"/><path class="lexicon-icon-outline" d="M4.764 7.81c.552 0 1-.45 1-1.004s-.448-1.003-1-1.003c-.553 0-1 .45-1 1.003 0 .554.447 1.004 1 1.004Z"/></svg>