<!--
* SPDX-FileCopyrightText: © 2020 Liferay, Inc. <https://liferay.com>
* SPDX-FileCopyrightText: © 2020 Contributors to the project Clay <https://github.com/liferay/clay/graphs/contributors>
*
* SPDX-License-Identifier: BSD-3-Clause
-->
<svg xmlns="http://www.w3.org/2000/svg" viewBox="0 0 512 512">
	<path class="lexicon-icon-outline date-time-calendar-border" d="M162.9,384.8H64V128.2h320v35c23,3.9,44.6,11.8,64,23.1v-58c0-35.4-28.7-64.1-64-64.1V32c0-42.6-64-42.7-64,0v32.1h-64V32c0-42.8-64-42.6-64,0v32.1h-64V32c0-42.3-64-42.8-64,0v32.1c-35.3,0-64,28.7-64,64.1v256.6c0,35.4,28.7,64.1,64,64.1h121.9C174.6,429.4,166.7,407.8,162.9,384.8z"/>
	<path class="lexicon-icon-outline date-time-clock-border" d="M448,352.7c0,128.3-192,128.3-192,0C256,224.5,448,224.4,448,352.7z M192,352.7c0,210.9,320,213.9,320,0C512,137.8,192,142.6,192,352.7z"/>
	<path class="lexicon-icon-outline date-time-clock-hands" d="M400,352.7h-48v-48.1c0-21.1-32-21-32,0v80.2h80C421.3,384.8,421.2,352.7,400,352.7z"/>
	<ellipse class="lexicon-icon-outline date-time-date" cx="128" cy="192.3" rx="32" ry="32.1"/>
</svg>