<!--
* SPDX-FileCopyrightText: © 2020 Liferay, Inc. <https://liferay.com>
* SPDX-FileCopyrightText: © 2020 Contributors to the project Clay <https://github.com/liferay/clay/graphs/contributors>
*
* SPDX-License-Identifier: BSD-3-Clause
-->
<svg  viewBox="0 0 16 16" xmlns="http://www.w3.org/2000/svg">
<path class="lexicon-icon-outline" d="M4.99121 7.00159V6.00159H2.99121V7.00159H4.99121Z" />
<path class="lexicon-icon-outline" d="M4.99121 7.00159H5.99121V8.97034H4.99121V7.00159Z" />
<path class="lexicon-icon-outline" d="M7.99121 13.0016H8.99121V6.00159H7.99121V7.00159H6.99121V8.00159H7.99121V13.0016Z" />
<path class="lexicon-icon-outline" d="M3.06348 9.00159H4.99121V10.0016H3.06348V9.00159Z" />
<path class="lexicon-icon-outline" d="M4.99121 10.0016H5.99121V11.9703H4.99121V10.0016Z" />
<path class="lexicon-icon-outline" d="M4.99121 13.0016V12.0016H2.99121V13.0016H4.99121Z" />
<path class="lexicon-icon-outline" fill-rule="evenodd" clip-rule="evenodd" d="M2.00049 0.000488281C0.895919 0.000488281 0.000488281 0.895919 0.000488281 2.00049L0.000976562 13.8672C0.000976562 14.9609 0.888672 16.0048 1.98242 16.0048H11.7398C12.5354 16.0048 13.2985 15.6887 13.8611 15.1261L15.1037 13.8834C15.6664 13.3208 15.9824 12.5578 15.9824 11.7621V5.00049H16.0005V2.00049C16.0005 0.895919 15.1051 0.000488281 14.0005 0.000488281H2.00049ZM10.9824 12.0016C10.9824 11.4493 11.4301 11.0016 11.9824 11.0016H13.9824V5.00159H2.00098V13.8641C2.00098 13.9047 2.03223 13.9641 2.06348 14.0016H10.9824V12.0016Z" />
</svg>
