<!--
* SPDX-FileCopyrightText: © 2022 Liferay, Inc. <https://liferay.com>
* SPDX-FileCopyrightText: © 2022 Contributors to the project Clay <https://github.com/liferay/clay/graphs/contributors>
*
* SPDX-License-Identifier: BSD-3-Clause
-->
<svg viewBox="0 0 16 16" xmlns="http://www.w3.org/2000/svg"><path class="lexicon-icon-outline" d="M5.754 6.999v-1h-2v1h2Zm0 0h1v1.969h-1V6.999Zm3 6h1v-7h-1v1h-1v1h1v5Zm-4.928-4h1.928v1H3.826v-1Zm1.928 1h1v1.969h-1V9.999Zm0 3v-1h-2v1h2Z"/><path class="lexicon-icon-outline" fill-rule="evenodd" clip-rule="evenodd" d="M2.763-.002a2 2 0 0 0-2 2v11.867c0 1.093.888 2.137 1.982 2.137h9.758a3 3 0 0 0 2.12-.878l1.243-1.243a3 3 0 0 0 .88-2.122V4.998h.017v-3a2 2 0 0 0-2-2h-12Zm8.982 12.001a1 1 0 0 1 1-1h2v-6H2.764v8.863c0 .04.03.1.062.137h8.92v-2Z"/></svg>