<!--
* SPDX-FileCopyrightText: © 2020 Liferay, Inc. <https://liferay.com>
* SPDX-FileCopyrightText: © 2020 Contributors to the project Clay <https://github.com/liferay/clay/graphs/contributors>
*
* SPDX-License-Identifier: BSD-3-Clause
-->
<svg viewBox="0 0 16 16" xmlns="http://www.w3.org/2000/svg"><path fill-rule="evenodd" clip-rule="evenodd" d="M6.226 4.002c-2.313 0-2.591 2.654-2.591 3.964s.325 4.036 2.59 4.036c2.297 0 2.591-2.726 2.591-4.036 0-1.303-.294-3.964-2.59-3.964Zm1.083 2.19c-.168-.602-.478-1.114-1.084-1.1-1.297-.026-1.307 2.126-1.26 3.467l2.344-2.367ZM6.225 10.91c-.59-.025-.9-.527-1.069-1.114l2.331-2.354-.002.194c-.012 1.335-.03 3.274-1.26 3.274Zm6.185-6.908c-2.313 0-2.592 2.654-2.592 3.964s.326 4.036 2.591 4.036c2.297 0 2.591-2.726 2.591-4.036 0-1.303-.294-3.964-2.59-3.964Zm0 1.09c.606-.014.915.498 1.084 1.1L11.15 8.56c-.05-1.341-.038-3.493 1.26-3.468Zm-1.07 4.704c.17.587.48 1.09 1.07 1.114 1.229 0 1.247-1.946 1.26-3.281l.002-.187-2.331 2.354Z"/><path d="M3 10.93c0 .557-.447 1.01-1 1.01-.553 0-1-.453-1-1.01 0-.558.447-1.01 1-1.01.553 0 1 .452 1 1.01Z"/></svg>
