<!--
* SPDX-FileCopyrightText: © 2020 Liferay, Inc. <https://liferay.com>
* SPDX-FileCopyrightText: © 2020 Contributors to the project Clay <https://github.com/liferay/clay/graphs/contributors>
*
* SPDX-License-Identifier: BSD-3-Clause
-->
<svg  viewBox="0 0 16 16" xmlns="http://www.w3.org/2000/svg">
<path class="lexicon-icon-outline" fill-rule="evenodd" clip-rule="evenodd" d="M6.22559 4.00256C3.91309 4.00256 3.63477 6.65662 3.63477 7.96631C3.63477 9.27588 3.95996 12.0026 6.22559 12.0026C8.52246 12.0026 8.81641 9.27588 8.81641 7.96631C8.81641 6.66296 8.52246 4.00256 6.22559 4.00256ZM7.30859 6.19263C7.14062 5.58997 6.83105 5.07861 6.22461 5.09131C4.92773 5.06604 4.91797 7.21826 4.96484 8.55957L7.30859 6.19263ZM6.22461 10.9106C5.63477 10.8854 5.3252 10.3835 5.15625 9.79663L7.4873 7.44238L7.48535 7.63599C7.47266 8.97107 7.45508 10.9106 6.22461 10.9106Z" />
<path class="lexicon-icon-outline" fill-rule="evenodd" clip-rule="evenodd" d="M12.4092 4.00256C10.0967 4.00256 9.81836 6.65662 9.81836 7.96631C9.81836 9.27588 10.1436 12.0026 12.4092 12.0026C14.7061 12.0026 15 9.27588 15 7.96631C15 6.66296 14.7061 4.00256 12.4092 4.00256ZM12.4092 5.09131C13.0156 5.07861 13.3252 5.58997 13.4941 6.19263L11.1504 8.55957C11.0996 7.21826 11.1123 5.06604 12.4092 5.09131ZM11.3408 9.79663C11.5098 10.3835 11.8193 10.8854 12.4092 10.9106C13.6387 10.9106 13.6572 8.96411 13.6699 7.62891L13.6719 7.44238L11.3408 9.79663Z" />
<path class="lexicon-icon-outline" d="M3 10.9296C3 11.4873 2.55273 11.9395 2 11.9395C1.44727 11.9395 1 11.4873 1 10.9296C1 10.3718 1.44727 9.91968 2 9.91968C2.55273 9.91968 3 10.3718 3 10.9296Z" />
</svg>
