<!--
* SPDX-FileCopyrightText: © 2022 Liferay, Inc. <https://liferay.com>
* SPDX-FileCopyrightText: © 2022 Contributors to the project Clay <https://github.com/liferay/clay/graphs/contributors>
*
* SPDX-License-Identifier: BSD-3-Clause
-->
<svg viewBox="0 0 16 16" xmlns="http://www.w3.org/2000/svg"><path class="lexicon-icon-outline" fill-rule="evenodd" clip-rule="evenodd" d="M6.226 4.001c-2.312 0-2.59 2.654-2.59 3.964S3.96 12 6.225 12c2.297 0 2.59-2.727 2.59-4.036C8.817 6.662 8.524 4 6.227 4Zm1.083 2.19c-.168-.603-.477-1.114-1.084-1.101-1.297-.025-1.307 2.127-1.26 3.468L7.31 6.191ZM6.225 10.91c-.59-.025-.9-.527-1.068-1.114l2.33-2.354-.001.194c-.013 1.335-.03 3.274-1.26 3.274Zm6.185-6.909c-2.313 0-2.591 2.654-2.591 3.964S10.144 12 12.409 12C14.706 12 15 9.273 15 7.964 15 6.662 14.708 4 12.41 4Zm0 1.089c.606-.013.916.498 1.085 1.101L11.15 8.558c-.05-1.341-.038-3.493 1.259-3.468Zm-1.07 4.705c.17.587.479 1.089 1.069 1.114 1.23 0 1.248-1.946 1.26-3.282l.002-.186-2.33 2.354Z"/><path class="lexicon-icon-outline" d="M3 10.928c0 .558-.447 1.01-1 1.01-.552 0-1-.452-1-1.01s.448-1.01 1-1.01c.553 0 1 .452 1 1.01Z"/></svg>