<!--
* SPDX-FileCopyrightText: © 2020 Liferay, Inc. <https://liferay.com>
* SPDX-FileCopyrightText: © 2020 Contributors to the project Clay <https://github.com/liferay/clay/graphs/contributors>
*
* SPDX-License-Identifier: BSD-3-Clause
-->
<!-- desktop is deprecated as of v3.10.0 use display-content instead -->
<svg viewBox="0 0 16 16" xmlns="http://www.w3.org/2000/svg"><path fill-rule="evenodd" clip-rule="evenodd" d="M2 .002h12c1.1 0 2 .9 2 2v9.038c0 1.1-.9 2-2 2H2c-1.1 0-2-.9-2-2V2.002c0-1.1.9-2 2-2Zm0 10h12v-8H2v8Z"/><path d="M5 8.002c-1.103 0-2-.897-2-2s.897-2 2-2 2 .897 2 2-.897 2-2 2Zm4-4h4v1H9v-1Zm0 3h3v1H9v-1Zm1 7H6c-1.4 0-1.3 2 0 2h4c1.3 0 1.3-2 0-2Z"/></svg>
