<!--
* SPDX-FileCopyrightText: © 2020 Liferay, Inc. <https://liferay.com>
* SPDX-FileCopyrightText: © 2020 Contributors to the project Clay <https://github.com/liferay/clay/graphs/contributors>
*
* SPDX-License-Identifier: BSD-3-Clause
-->
<svg viewBox="0 0 16 16" xmlns="http://www.w3.org/2000/svg"><path fill-rule="evenodd" clip-rule="evenodd" d="m10.3 4.102-3.1 3.5-1.5-1.4c-1-.9-2.4.5-1.3 1.5l2.2 2c.4.4 1 .3 1.4-.1l3.7-4.2c.9-.9-.6-2.2-1.4-1.3Z"/><path fill-rule="evenodd" clip-rule="evenodd" d="M13 .002H3c-1.1 0-2 .9-2 2v12c0 1.1.9 2 2 2h10c1.1 0 2-.9 2-2v-12c0-1.1-.9-2-2-2Zm-6 14c0-1.3 2-1.3 2 0 0 1.4-2 1.3-2 0Zm6-2H3v-10h10v10Z"/></svg>
