<!--
* SPDX-FileCopyrightText: © 2020 Liferay, Inc. <https://liferay.com>
* SPDX-FileCopyrightText: © 2020 Contributors to the project Clay <https://github.com/liferay/clay/graphs/contributors>
*
* SPDX-License-Identifier: BSD-3-Clause
-->
<svg  viewBox="0 0 16 16" xmlns="http://www.w3.org/2000/svg">
<path class="lexicon-icon-outline" fill-rule="evenodd" clip-rule="evenodd" d="M10.3 4.10251L7.20002 7.60251L5.70002 6.20251C4.70002 5.30251 3.30002 6.70251 4.40002 7.70251L6.60002 9.70251C7.00002 10.1025 7.60002 10.0025 8.00002 9.60251L11.7 5.40251C12.6 4.50251 11.1 3.20251 10.3 4.10251Z" />
<path class="lexicon-icon-outline" fill-rule="evenodd" clip-rule="evenodd" d="M13 0.00256348H3C1.9 0.00256348 1 0.902563 1 2.00256V14.0026C1 15.1026 1.9 16.0026 3 16.0026H13C14.1 16.0026 15 15.1026 15 14.0026V2.00256C15 0.902563 14.1 0.00256348 13 0.00256348ZM7 14.0026C7 12.7026 9 12.7026 9 14.0026C9 15.4026 7 15.3026 7 14.0026ZM13 12.0026H3V2.00256H13V12.0026Z" />
</svg>
