<!--
* SPDX-FileCopyrightText: © 2020 Liferay, Inc. <https://liferay.com>
* SPDX-FileCopyrightText: © 2020 Contributors to the project Clay <https://github.com/liferay/clay/graphs/contributors>
*
* SPDX-License-Identifier: BSD-3-Clause
-->
<svg  viewBox="0 0 16 16" xmlns="http://www.w3.org/2000/svg">
<path class="lexicon-icon-outline" d="M15 0.00256348H13C12.3994 0.00256348 12 0.402565 12 1.00256H11.5C10.7998 1.00256 10.7998 2.00256 11.5 2.00256H12V3.00256C12 3.60256 12.3994 4.00256 13 4.00256H15C15.5996 4.00256 16 3.60256 16 3.00256V1.00256C16 0.402565 15.5996 0.00256348 15 0.00256348Z" />
<path class="lexicon-icon-outline" d="M8.5 1.00256H9.5C10.1992 1.00256 10.1992 2.00256 9.5 2.00256H8.5C7.7998 2.00256 7.7998 1.00256 8.5 1.00256Z" />
<path class="lexicon-icon-outline" d="M8 8.50256V6.50256C8 5.80256 9 5.80256 9 6.50256V8.50256C9 9.20256 8 9.20256 8 8.50256Z" />
<path class="lexicon-icon-outline" d="M8.5 13.0026C7.7998 13.0026 7.7998 14.0026 8.5 14.0026H9.5C10.1992 14.0026 10.1992 13.0026 9.5 13.0026H8.5Z" />
<path class="lexicon-icon-outline" fill-rule="evenodd" clip-rule="evenodd" d="M6 7.00256H6.5C7.2002 7.00256 7.09961 8.00256 6.5 8.00256H6V11.0026C6 11.6026 5.59961 12.0026 5 12.0026H1C0.400391 12.0026 0 11.6026 0 11.0026V5.00256C0 4.40257 0.400391 4.00256 1 4.00256H5C5.59961 4.00256 6 4.40257 6 5.00256V7.00256ZM4 10.0026H2V6.00256H4V10.0026Z" />
<path class="lexicon-icon-outline" d="M13 12.0026H15C15.5996 12.0026 16 12.4026 16 13.0026V15.0026C16 15.6026 15.5996 16.0026 15 16.0026H13C12.3994 16.0026 12 15.6026 12 15.0026V14.0026H11.5C10.7998 14.0026 10.7998 13.0026 11.5 13.0026H12C12 12.4026 12.3994 12.0026 13 12.0026Z" />
<path class="lexicon-icon-outline" d="M9 3.50256C9 2.80256 8 2.80256 8 3.50256V4.50256C8 5.20256 9 5.20256 9 4.50256V3.50256Z" />
<path class="lexicon-icon-outline" d="M13 6.00256H15C15.5996 6.00256 16 6.40257 16 7.00256V9.00256C16 9.60256 15.5996 10.0026 15 10.0026H13C12.3994 10.0026 12 9.60256 12 9.00256V8.00256H11.5C10.7998 8.00256 10.7998 7.00256 11.5 7.00256H12C12 6.40257 12.3994 6.00256 13 6.00256Z" />
<path class="lexicon-icon-outline" d="M9 10.5026C9 9.80256 8 9.80256 8 10.5026V11.5026C8 12.2026 9 12.2026 9 11.5026V10.5026Z" />
</svg>
