<!--
* SPDX-FileCopyrightText: © 2022 Liferay, Inc. <https://liferay.com>
* SPDX-FileCopyrightText: © 2022 Contributors to the project Clay <https://github.com/liferay/clay/graphs/contributors>
*
* SPDX-License-Identifier: BSD-3-Clause
-->
<svg viewBox="0 0 16 16" xmlns="http://www.w3.org/2000/svg"><path class="lexicon-icon-outline" d="M15 .001h-2c-.6 0-1 .4-1 1h-.5c-.7 0-.7 1 0 1h.5v1c0 .6.4 1 1 1h2c.6 0 1-.4 1-1v-2c0-.6-.4-1-1-1Zm-6.5 1h1c.7 0 .7 1 0 1h-1c-.7 0-.7-1 0-1Zm-.5 7.5v-2c0-.7 1-.7 1 0v2c0 .7-1 .7-1 0Zm.5 4.5c-.7 0-.7 1 0 1h1c.7 0 .7-1 0-1h-1Z"/><path class="lexicon-icon-outline" fill-rule="evenodd" clip-rule="evenodd" d="M6 7.001h.5c.7 0 .6 1 0 1H6v3c0 .6-.4 1-1 1H1c-.6 0-1-.4-1-1v-6c0-.6.4-1 1-1h4c.6 0 1 .4 1 1v2Zm-2 3H2v-4h2v4Z"/><path class="lexicon-icon-outline" d="M13 12.001h2c.6 0 1 .4 1 1v2c0 .6-.4 1-1 1h-2c-.6 0-1-.4-1-1v-1h-.5c-.7 0-.7-1 0-1h.5c0-.6.4-1 1-1Zm-4-8.5c0-.7-1-.7-1 0v1c0 .7 1 .7 1 0v-1Zm4 2.5h2c.6 0 1 .4 1 1v2c0 .6-.4 1-1 1h-2c-.6 0-1-.4-1-1v-1h-.5c-.7 0-.7-1 0-1h.5c0-.6.4-1 1-1Zm-4 4.5c0-.7-1-.7-1 0v1c0 .7 1 .7 1 0v-1Z"/></svg>