<!--
* SPDX-FileCopyrightText: © 2020 Liferay, Inc. <https://liferay.com>
* SPDX-FileCopyrightText: © 2020 Contributors to the project Clay <https://github.com/liferay/clay/graphs/contributors>
*
* SPDX-License-Identifier: BSD-3-Clause
-->
<svg viewBox="0 0 16 16" xmlns="http://www.w3.org/2000/svg"><path d="M9.563 4.003h-3.11c-.604 0-.604 1 0 1h3.11c.603 0 .603-1 0-1Zm-3.109 2h3.109c.603 0 .603 1 0 1h-3.11c-.604 0-.604-1 0-1Z"/><path fill-rule="evenodd" clip-rule="evenodd" d="M1.79.003h10.222c1.105 0 2.002.897 2.002 2v1h1.001c1.314 0 1.314 2 0 2h-1v1h1c1.314 0 1.314 2 0 2h-1v1h1c1.314 0 1.314 2 0 2h-1v3c0 1.104-.898 2-2.003 2H1.79c-.989 0-1.79-.8-1.79-1.79V1.79C0 .803.801.003 1.79.003Zm2.214 2v12h8.008v-12H4.004Z"/></svg>
