<!--
* SPDX-FileCopyrightText: © 2020 Liferay, Inc. <https://liferay.com>
* SPDX-FileCopyrightText: © 2020 Contributors to the project Clay <https://github.com/liferay/clay/graphs/contributors>
*
* SPDX-License-Identifier: BSD-3-Clause
-->
<svg  viewBox="0 0 16 16" xmlns="http://www.w3.org/2000/svg">
<path class="lexicon-icon-outline" d="M9.56299 4.00366H6.45361C5.84912 4.00366 5.84912 5.00366 6.45361 5.00366H9.56299C10.1665 5.00366 10.1665 4.00366 9.56299 4.00366Z" />
<path class="lexicon-icon-outline" d="M6.45361 6.00366H9.56299C10.1665 6.00366 10.1665 7.00366 9.56299 7.00366H6.45361C5.84912 7.00366 5.84912 6.00366 6.45361 6.00366Z" />
<path class="lexicon-icon-outline" fill-rule="evenodd" clip-rule="evenodd" d="M1.78955 0.00366211H12.0122C13.1167 0.00366211 14.0142 0.900543 14.0142 2.00366V3.00366H15.0151C16.3286 3.00366 16.3286 5.00366 15.0151 5.00366H14.0142V6.00366H15.0151C16.3286 6.00366 16.3286 8.00366 15.0151 8.00366H14.0142V9.00366H15.0151C16.3286 9.00366 16.3286 11.0037 15.0151 11.0037H14.0142V14.0037C14.0142 15.1068 13.1167 16.0037 12.0122 16.0037H1.78955C0.80127 16.0037 0.000488281 15.2037 0.000488281 14.213V1.79117C0.000488281 0.803665 0.80127 0.00366211 1.78955 0.00366211ZM4.00439 2.00366V14.0037H12.0122V2.00366H4.00439Z" />
</svg>
