<!--
* SPDX-FileCopyrightText: © 2020 Liferay, Inc. <https://liferay.com>
* SPDX-FileCopyrightText: © 2020 Contributors to the project Clay <https://github.com/liferay/clay/graphs/contributors>
*
* SPDX-License-Identifier: BSD-3-Clause
-->
<svg  viewBox="0 0 16 16" xmlns="http://www.w3.org/2000/svg">
<path class="lexicon-icon-outline" d="M13 0.00256348H2C0.9 0.00256348 0 0.902563 0 2.00256V14.0026C0 15.1026 0.9 16.0026 2 16.0026H14C15.1 16.0026 16 15.1026 16 14.0026V3.00256L13 0.00256348ZM4 1.00256H8V5.00256H11V1.00256H12V5.00256C12 5.60256 11.6 6.00256 11 6.00256H5C4.4 6.00256 4 5.60256 4 5.00256V1.00256ZM13 15.0026H3V10.0026C3 9.40256 3.4 9.00256 4 9.00256H12C12.6 9.00256 13 9.40256 13 10.0026V15.0026Z" />
</svg>
