<!--
* SPDX-FileCopyrightText: © 2020 Liferay, Inc. <https://liferay.com>
* SPDX-FileCopyrightText: © 2020 Contributors to the project Clay <https://github.com/liferay/clay/graphs/contributors>
*
* SPDX-License-Identifier: BSD-3-Clause
-->
<svg  viewBox="0 0 16 16" xmlns="http://www.w3.org/2000/svg">
<path class="lexicon-icon-outline" fill-rule="evenodd" clip-rule="evenodd" d="M2 0.00256348H14C15.0996 0.00256348 16 0.902588 16 2.00256V11.04C16 12.14 15.0996 13.04 14 13.04H2C0.900391 13.04 0 12.14 0 11.04V2.00256C0 0.902588 0.900391 0.00256348 2 0.00256348ZM2 10.0026H14V2.00256H2V10.0026Z" />
<path class="lexicon-icon-outline" d="M5 8.00256C3.89687 8.00256 3 7.10569 3 6.00256C3 4.89944 3.89687 4.00256 5 4.00256C6.10313 4.00256 7 4.89944 7 6.00256C7 7.10569 6.10313 8.00256 5 8.00256Z" />
<path class="lexicon-icon-outline" d="M9 4.00256H13V5.00256H9V4.00256Z" />
<path class="lexicon-icon-outline" d="M9 7.00256H12V8.00256H9V7.00256Z" />
<path class="lexicon-icon-outline" d="M9.99991 14.0026H5.99991C4.59991 14.0026 4.69991 16.0026 5.99991 16.0026H9.99991C11.2999 16.0026 11.2999 14.0026 9.99991 14.0026Z" />
</svg>
