<!--
* SPDX-FileCopyrightText: © 2020 Liferay, Inc. <https://liferay.com>
* SPDX-FileCopyrightText: © 2020 Contributors to the project Clay <https://github.com/liferay/clay/graphs/contributors>
*
* SPDX-License-Identifier: BSD-3-Clause
-->
<svg  viewBox="0 0 16 16" xmlns="http://www.w3.org/2000/svg">
<path class="lexicon-icon-outline" fill-rule="evenodd" clip-rule="evenodd" d="M2 0.00256348H14C15.1 0.00256348 16 0.902563 16 2.00256V11.0026C16 12.1026 15.1 13.0026 14 13.0026H2C0.9 13.0026 0 12.1026 0 11.0026V2.00256C0 0.902563 0.9 0.00256348 2 0.00256348ZM2 10.0026H14V2.00256H2V10.0026ZM6 14.0026H10C11.3 14.0026 11.3 16.0026 10 16.0026H6C4.7 16.0026 4.6 14.0026 6 14.0026ZM13.5 12.0026C13.7761 12.0026 14 11.7787 14 11.5026C14 11.2264 13.7761 11.0026 13.5 11.0026C13.2239 11.0026 13 11.2264 13 11.5026C13 11.7787 13.2239 12.0026 13.5 12.0026Z" />
</svg>
