<!--
* SPDX-FileCopyrightText: © 2020 Liferay, Inc. <https://liferay.com>
* SPDX-FileCopyrightText: © 2020 Contributors to the project Clay <https://github.com/liferay/clay/graphs/contributors>
*
* SPDX-License-Identifier: BSD-3-Clause
-->
<svg viewBox="0 0 16 16" xmlns="http://www.w3.org/2000/svg"><path fill-rule="evenodd" clip-rule="evenodd" d="M2 .002h12c1.1 0 2 .9 2 2v9c0 1.1-.9 2-2 2H2c-1.1 0-2-.9-2-2v-9c0-1.1.9-2 2-2Zm0 10h12v-8H2v8Zm4 4h4c1.3 0 1.3 2 0 2H6c-1.3 0-1.4-2 0-2Zm7.5-2a.5.5 0 1 0 0-1 .5.5 0 0 0 0 1Z"/></svg>
