<!--
* SPDX-FileCopyrightText: © 2020 Liferay, Inc. <https://liferay.com>
* SPDX-FileCopyrightText: © 2020 Contributors to the project Clay <https://github.com/liferay/clay/graphs/contributors>
*
* SPDX-License-Identifier: BSD-3-Clause
-->
<svg  viewBox="0 0 16 16" xmlns="http://www.w3.org/2000/svg">
<path class="lexicon-icon-outline" fill-rule="evenodd" clip-rule="evenodd" d="M4.89771 6.00354C4.79712 6.00354 4.70337 5.97229 4.62524 5.90353C4.52271 5.81293 4.50024 5.71603 4.49438 5.65042C4.49438 5.6004 4.50024 5.55042 4.51978 5.50043C4.5354 5.45667 4.55688 5.40042 4.59106 5.32855L5.35669 3.58167L5.43481 3.40042C5.46606 3.3223 5.50415 3.25665 5.54419 3.20355C5.58813 3.14417 5.64771 3.09729 5.71899 3.05978C5.79126 3.02228 5.87915 3.00354 5.97876 3.00354C6.08228 3.00354 6.16919 3.02228 6.24146 3.05978C6.31274 3.09418 6.37231 3.14105 6.41626 3.20041C6.45337 3.25043 6.48853 3.30667 6.51587 3.36603L6.60669 3.57541L7.39087 5.30978C7.46313 5.45978 7.49438 5.56604 7.49438 5.64417C7.49438 5.73792 7.45337 5.82541 7.37231 5.89728C7.29419 5.96918 7.20044 6.00354 7.09106 6.00354C7.02563 6.00354 6.96899 5.99417 6.92212 5.97229C6.87524 5.95041 6.83521 5.91916 6.80103 5.88165C6.76978 5.8504 6.74146 5.80042 6.71021 5.73792L6.67896 5.67172L6.64087 5.58792L6.52563 5.31604H5.45044L5.33521 5.59418C5.27563 5.74103 5.2229 5.83792 5.17603 5.89417C5.11353 5.96603 5.01978 6.00354 4.89771 6.00354ZM5.98462 3.97855L6.27563 4.69104H5.70044L5.98462 3.97855Z" />
<path class="lexicon-icon-outline" d="M8.00024 9.00354H4.00024C3.44751 9.00354 3.00024 8.55667 3.00024 8.00354C3.00024 7.45041 3.44751 7.00354 4.00024 7.00354H8.00024C8.55298 7.00354 9.00024 7.45041 9.00024 8.00354C9.00024 8.55667 8.55298 9.00354 8.00024 9.00354Z" />
<path class="lexicon-icon-outline" fill-rule="evenodd" clip-rule="evenodd" d="M12.0002 3.00354H14.0002C15.1038 3.00354 16.0002 3.90042 16.0002 5.00354V14.0035C16.0002 15.1067 15.1038 16.0035 14.0002 16.0035H5.00024C3.89673 16.0035 3.00024 15.1067 3.00024 14.0035V12.0035H2.00024C0.896729 12.0035 0.000244141 11.1067 0.000244141 10.0035V2.00354C0.000244141 0.900421 0.896729 0.00354004 2.00024 0.00354004H10.0002C11.1038 0.00354004 12.0002 0.900421 12.0002 2.00354V3.00354ZM2.00024 2.00354V10.0035H10.0002V2.00354H2.00024ZM14.0002 14.0035H5.00024V12.0035H10.0002C11.1038 12.0035 12.0002 11.1067 12.0002 10.0035V5.00354H14.0002V14.0035Z" />
</svg>
