<!--
* SPDX-FileCopyrightText: © 2022 Liferay, Inc. <https://liferay.com>
* SPDX-FileCopyrightText: © 2022 Contributors to the project Clay <https://github.com/liferay/clay/graphs/contributors>
*
* SPDX-License-Identifier: BSD-3-Clause
-->
<svg viewBox="0 0 16 16" xmlns="http://www.w3.org/2000/svg"><path class="lexicon-icon-outline" d="M13 8.998v4.004a1 1 0 0 1-1 1H4a1 1 0 0 1-1-1V4.995a1 1 0 0 1 1-1h7.788l-.406.406c-.86.916.428 2.172 1.318 1.32l2.06-2.06c.309-.344.322-.947 0-1.319L12.7.28c-.965-.857-2.153.456-1.318 1.318l.396.397H4a3 3 0 0 0-3 3v8.006a3 3 0 0 0 3 3h8a3 3 0 0 0 3-3V8.998c0-1.334-2-1.312-2 0Z"/><path class="lexicon-icon-outline" d="M8.54 12.008H5.47c-.647 0-.666-1 0-1h3.072c.669 0 .625 1 0 1Zm2.054-2.01H5.469c-.647 0-.666-1 0-1h5.125c.666 0 .625 1 0 1Zm.023-1.996H5.492c-.646 0-.665-1 0-1h5.125c.666 0 .625 1 0 1Z"/></svg>