<!--
* SPDX-FileCopyrightText: © 2022 Liferay, Inc. <https://liferay.com>
* SPDX-FileCopyrightText: © 2022 Contributors to the project Clay <https://github.com/liferay/clay/graphs/contributors>
*
* SPDX-License-Identifier: BSD-3-Clause
-->
<svg viewBox="0 0 16 16" xmlns="http://www.w3.org/2000/svg"><path class="lexicon-icon-outline" d="M4.345 7.841h-.569v1.298h.566c.448 0 .709-.229.709-.645 0-.427-.255-.653-.706-.653Zm3.557.023H7.34v2.397h.562c.689 0 1.078-.425 1.078-1.213 0-.753-.401-1.184-1.078-1.184Z"/><path class="lexicon-icon-outline" fill-rule="evenodd" clip-rule="evenodd" d="M3.5.001h6.75L14 3.751v9.75c0 .83-.67 1.5-1.5 1.5h-9a1.5 1.5 0 0 1-1.5-1.5v-12a1.5 1.5 0 0 1 1.5-1.5Zm.276 9.77h.735c.785 0 1.333-.515 1.333-1.283 0-.773-.524-1.289-1.292-1.289H2.996v3.73h.78V9.772Zm2.786 1.158H8.03c1.116 0 1.749-.68 1.749-1.893 0-1.169-.642-1.84-1.75-1.84H6.563v3.733Zm4.734-3.062h1.661V7.2h-2.44v3.73h.78V9.48h1.517v-.64h-1.518v-.973Z"/></svg>