<!--
* SPDX-FileCopyrightText: © 2022 Liferay, Inc. <https://liferay.com>
* SPDX-FileCopyrightText: © 2022 Contributors to the project Clay <https://github.com/liferay/clay/graphs/contributors>
*
* SPDX-License-Identifier: BSD-3-Clause
-->
<svg viewBox="0 0 16 16" xmlns="http://www.w3.org/2000/svg"><path class="lexicon-icon-outline" d="M5.5 8.001h5c.688 0 .625-1 0-1h-5c-.656 0-.687 1 0 1Zm5 2h-5c-.687 0-.656-1 0-1h5c.625 0 .688 1 0 1Zm-5 2h3c.688 0 .625-1 0-1h-3c-.656 0-.687 1 0 1Z"/><path class="lexicon-icon-outline" fill-rule="evenodd" clip-rule="evenodd" d="M10.172.001H3c-1.103 0-2 .897-2 2v12c0 1.103.897 2 2 2h10c1.104 0 2-.897 2-2V4.83c0-.877-.394-1.26-1.358-2.197l-.013-.012-.086-.083-.01-.01c-.157-.154-.33-.323-.517-.51a45.11 45.11 0 0 1-.605-.618l-.054-.056C11.45.405 11.06.001 10.172.001Zm-.172 2v2a1 1 0 0 0 1 1h2v9H3v-12h7Z"/></svg>