<!--
* SPDX-FileCopyrightText: © 2022 Liferay, Inc. <https://liferay.com>
* SPDX-FileCopyrightText: © 2022 Contributors to the project Clay <https://github.com/liferay/clay/graphs/contributors>
*
* SPDX-License-Identifier: BSD-3-Clause
-->
<svg viewBox="0 0 16 16" xmlns="http://www.w3.org/2000/svg"><path class="lexicon-icon-outline" fill-rule="evenodd" clip-rule="evenodd" d="M4.898 6.001a.402.402 0 0 1-.273-.1.367.367 0 0 1-.13-.253c0-.05.005-.1.025-.15.015-.044.037-.1.071-.172l.766-1.747.078-.181a.853.853 0 0 1 .11-.197.504.504 0 0 1 .174-.144.561.561 0 0 1 .26-.056c.103 0 .19.019.262.056a.47.47 0 0 1 .175.141c.037.05.073.106.1.166l.09.209.785 1.734c.072.15.103.257.103.335a.334.334 0 0 1-.122.253.4.4 0 0 1-.28.106.398.398 0 0 1-.17-.031.383.383 0 0 1-.121-.09.573.573 0 0 1-.09-.145l-.032-.066-.038-.084-.115-.271H5.45l-.115.278c-.06.147-.112.243-.159.3-.062.072-.156.11-.278.11Zm1.087-2.025.29.713H5.7l.285-.713Z"/><path class="lexicon-icon-outline" d="M8 9.001H4a1 1 0 1 1 0-2h4a1 1 0 1 1 0 2Z"/><path class="lexicon-icon-outline" fill-rule="evenodd" clip-rule="evenodd" d="M12 3.001h2c1.104 0 2 .897 2 2v9c0 1.103-.896 2-2 2H5c-1.103 0-2-.897-2-2v-2H2c-1.103 0-2-.897-2-2v-8c0-1.103.897-2 2-2h8c1.104 0 2 .897 2 2v1Zm-10-1v8h8v-8H2Zm12 12H5v-2h5c1.104 0 2-.897 2-2v-5h2v9Z"/></svg>