<!--
* SPDX-FileCopyrightText: © 2020 Liferay, Inc. <https://liferay.com>
* SPDX-FileCopyrightText: © 2020 Contributors to the project Clay <https://github.com/liferay/clay/graphs/contributors>
*
* SPDX-License-Identifier: BSD-3-Clause
-->
<svg  viewBox="0 0 16 16" xmlns="http://www.w3.org/2000/svg">
<path class="lexicon-icon-outline" fill-rule="evenodd" clip-rule="evenodd" d="M4.00024 2.00366V14.0037H12.0002V4.50366H10.5002C10.0002 4.50366 9.50024 4.00366 9.50024 3.50366V2.00366H4.00024ZM10.2502 0.00366211H3.50024C2.67114 0.00366211 2.00024 0.674561 2.00024 1.50366V14.5037C2.00024 15.3328 2.67114 16.0037 3.50024 16.0037H12.5002C13.3293 16.0037 14.0002 15.3328 14.0002 14.5037V3.75366L10.2502 0.00366211Z" />
<path class="lexicon-icon-outline" d="M5.50056 8.00366H10.5006C11.1881 8.00366 11.1256 7.00366 10.5006 7.00366H5.50056C4.84431 7.00366 4.81306 8.00366 5.50056 8.00366Z" />
<path class="lexicon-icon-outline" d="M10.5006 10.0037H5.50056C4.81306 10.0037 4.84431 9.00366 5.50056 9.00366H10.5006C11.1256 9.00366 11.1881 10.0037 10.5006 10.0037Z" />
<path class="lexicon-icon-outline" d="M5.50056 12.0037H8.50056C9.18806 12.0037 9.12556 11.0037 8.50056 11.0037H5.50056C4.84431 11.0037 4.81306 12.0037 5.50056 12.0037Z" />
</svg>
