<!--
* SPDX-FileCopyrightText: © 2020 Liferay, Inc. <https://liferay.com>
* SPDX-FileCopyrightText: © 2020 Contributors to the project Clay <https://github.com/liferay/clay/graphs/contributors>
*
* SPDX-License-Identifier: BSD-3-Clause
-->
<svg  viewBox="0 0 16 16" xmlns="http://www.w3.org/2000/svg">
<path class="lexicon-icon-outline" d="M13.0002 9.00091V13.004C13.0002 13.5572 12.5534 14.004 12.0002 14.004H4.00024C3.44712 14.004 3.00024 13.5572 3.00024 13.004V4.99779C3.00024 4.44466 3.44712 3.99779 4.00024 3.99779H11.7877L11.3815 4.40404C10.5221 5.31966 11.8096 6.57591 12.7002 5.72278L14.7596 3.66341C15.069 3.31966 15.0815 2.71654 14.7596 2.34466L12.7002 0.28216C11.7346 -0.57409 10.5471 0.73841 11.3815 1.60091L11.7784 1.99779H4.00024C2.34399 1.99779 1.00024 3.34154 1.00024 4.99779V13.004C1.00024 14.6603 2.34399 16.004 4.00024 16.004H12.0002C13.6565 16.004 15.0002 14.6603 15.0002 13.004V9.00091C15.0002 7.66653 13.0002 7.68841 13.0002 9.00091Z" />
<path class="lexicon-icon-outline" d="M8.54088 12.0105H5.46902C4.82214 12.0105 4.80339 11.0105 5.46902 11.0105H8.54088C9.20963 11.0105 9.16588 12.0105 8.54088 12.0105Z" />
<path class="lexicon-icon-outline" d="M10.594 10.001H5.46902C4.82214 10.001 4.80339 9.00098 5.46902 9.00098H10.594C11.2597 9.00098 11.219 10.001 10.594 10.001Z" />
<path class="lexicon-icon-outline" d="M10.6175 8.00415H5.49246C4.84558 8.00415 4.82683 7.00415 5.49246 7.00415H10.6175C11.2831 7.00415 11.2425 8.00415 10.6175 8.00415Z" />
</svg>
