<!--
* SPDX-FileCopyrightText: © 2020 Liferay, Inc. <https://liferay.com>
* SPDX-FileCopyrightText: © 2020 Contributors to the project Clay <https://github.com/liferay/clay/graphs/contributors>
*
* SPDX-License-Identifier: BSD-3-Clause
-->
<svg  viewBox="0 0 16 16" xmlns="http://www.w3.org/2000/svg">
<path class="lexicon-icon-outline" fill-rule="evenodd" clip-rule="evenodd" d="M10.25 0.00256348H3.5C2.6709 0.00256348 2 0.673462 2 1.50256V14.5026C2 15.3317 2.6709 16.0026 3.5 16.0026H12.5C13.3291 16.0026 14 15.3317 14 14.5026V3.75256L10.25 0.00256348ZM12 7.50256C12 7.77871 11.7761 8.00256 11.5 8.00256H4.5C4.22386 8.00256 4 7.77871 4 7.50256C4 7.22642 4.22386 7.00256 4.5 7.00256H11.5C11.7761 7.00256 12 7.22642 12 7.50256ZM11.5 9.00256H4.5C4.22386 9.00256 4 9.22642 4 9.50256C4 9.77871 4.22386 10.0026 4.5 10.0026H11.5C11.7761 10.0026 12 9.77871 12 9.50256C12 9.22642 11.7761 9.00256 11.5 9.00256ZM4.5 11.0026H7.5C7.77614 11.0026 8 11.2264 8 11.5026C8 11.7787 7.77614 12.0026 7.5 12.0026H4.5C4.22386 12.0026 4 11.7787 4 11.5026C4 11.2264 4.22386 11.0026 4.5 11.0026Z" />
</svg>
