<!--
* SPDX-FileCopyrightText: © 2020 Liferay, Inc. <https://liferay.com>
* SPDX-FileCopyrightText: © 2020 Contributors to the project Clay <https://github.com/liferay/clay/graphs/contributors>
*
* SPDX-License-Identifier: BSD-3-Clause
-->
<svg  viewBox="0 0 16 16" xmlns="http://www.w3.org/2000/svg">
<path class="lexicon-icon-outline" fill-rule="evenodd" clip-rule="evenodd" d="M3.50024 0.00268555H10.2502L14.0002 3.75269V14.5027C14.0002 15.3318 13.3293 16.0027 12.5002 16.0027H3.50024C2.67114 16.0027 2.00024 15.3318 2.00024 14.5027V1.50269C2.00024 0.673584 2.67114 0.00268555 3.50024 0.00268555ZM5.75024 12.5027H10.2502V9.50269H6.50024V8.00269H5.75024V6.50269H6.50024V5.00269H5.75024V3.50269H6.50024V2.00269H5.75024V3.50269H5.00024V5.00269H5.75024V6.50269H5.00024V8.00269H5.75024V9.50269H5.00024V11.0027H5.75024V12.5027ZM5.75024 12.5027H5.00024V14.0027H5.75024V12.5027ZM7.99878 10.2526H9.49878V11.7526H7.99878V10.2526Z" />
</svg>
