<!--
* SPDX-FileCopyrightText: © 2022 Liferay, Inc. <https://liferay.com>
* SPDX-FileCopyrightText: © 2022 Contributors to the project Clay <https://github.com/liferay/clay/graphs/contributors>
*
* SPDX-License-Identifier: BSD-3-Clause
-->
<svg viewBox="0 0 16 16" xmlns="http://www.w3.org/2000/svg"><path class="lexicon-icon-outline" d="M7.999 9.751h1.5v1.5h-1.5v-1.5Z"/><path class="lexicon-icon-outline" fill-rule="evenodd" clip-rule="evenodd" d="M3.5.001h6.75L14 3.751v9.75c0 .83-.67 1.5-1.5 1.5h-9a1.5 1.5 0 0 1-1.5-1.5v-12a1.5 1.5 0 0 1 1.5-1.5Zm2.25 12h4.5v-3H6.5v-1.5h-.75v-1.5h.75v-1.5h-.75v-1.5h.75v-1.5h-.75v1.5H5v1.5h.75v1.5H5v1.5h.75v1.5H5v1.5h.75v1.5Zm0 0H5v1.5h.75v-1.5Z"/></svg>