<svg xmlns="http://www.w3.org/2000/svg" viewBox="0 0 512 512">
	<path class="lexicon-icon-outline" d="M131.2,267.6h-19.4v44.3h19.3c15.3,0,24.2-7.8,24.2-22C155.3,275.3,146.6,267.6,131.2,267.6z"></path>
	<path class="lexicon-icon-outline" d="M252.7,268.4h-19.2v81.8h19.2c23.5,0,36.8-14.5,36.8-41.4C289.5,283.1,275.8,268.4,252.7,268.4z"></path>
	<path class="lexicon-icon-outline" d="M332.8,0H102.4C74.1,0,51.2,22.9,51.2,51.2v409.6c0,28.3,22.9,51.2,51.2,51.2h307.2c28.3,0,51.2-22.9,51.2-51.2V128L332.8,0z M136.9,333.5h-25.1V373H85.2V245.7h53.1c26.2,0,44.1,17.6,44.1,44C182.4,315.9,163.7,333.5,136.9,333.5z M257,373h-50.1V245.6H257c37.8,0,59.7,22.9,59.7,62.8C316.7,349.8,295.1,373,257,373z M425.2,268.5h-56.7v33.2h51.8v21.8h-51.8V373h-26.6V245.7h83.3V268.5z"></path>
</svg>