<!--
* SPDX-FileCopyrightText: © 2020 Liferay, Inc. <https://liferay.com>
* SPDX-FileCopyrightText: © 2020 Contributors to the project Clay <https://github.com/liferay/clay/graphs/contributors>
*
* SPDX-License-Identifier: BSD-3-Clause
-->
<svg viewBox="0 0 16 16" xmlns="http://www.w3.org/2000/svg"><path d="M13 9v4.004a1 1 0 0 1-1 1H4a1 1 0 0 1-1-1V4.998c0-.554.447-1 1-1h7.788l-.406.406c-.86.915.428 2.172 1.318 1.319l2.06-2.06c.309-.344.322-.947 0-1.319L12.7.282c-.965-.856-2.153.456-1.318 1.319l.396.397H4a3 3 0 0 0-3 3v8.006a3 3 0 0 0 3 3h8a3 3 0 0 0 3-3V9c0-1.335-2-1.313-2 0Z"/><path d="M8.54 12.01H5.47c-.647 0-.666-1 0-1h3.072c.669 0 .625 1 0 1ZM10.594 10H5.469c-.647 0-.666-1 0-1h5.125c.666 0 .625 1 0 1Zm.023-1.996H5.492c-.646 0-.665-1 0-1h5.125c.666 0 .625 1 0 1Z"/></svg>
