<!--
* SPDX-FileCopyrightText: © 2020 Liferay, Inc. <https://liferay.com>
* SPDX-FileCopyrightText: © 2020 Contributors to the project Clay <https://github.com/liferay/clay/graphs/contributors>
*
* SPDX-License-Identifier: BSD-3-Clause
-->
<svg viewBox="0 0 16 16" xmlns="http://www.w3.org/2000/svg"><path fill-rule="evenodd" clip-rule="evenodd" d="M4.898 6.003a.402.402 0 0 1-.273-.1.367.367 0 0 1-.13-.253c0-.05.005-.1.025-.15.015-.043.037-.1.071-.172l.766-1.746.078-.182a.853.853 0 0 1 .11-.197.504.504 0 0 1 .174-.143.561.561 0 0 1 .26-.057c.103 0 .19.02.262.057a.45.45 0 0 1 .175.14.95.95 0 0 1 .1.166l.09.21.785 1.734c.072.15.103.256.103.334a.334.334 0 0 1-.122.253.4.4 0 0 1-.28.106.398.398 0 0 1-.17-.03.383.383 0 0 1-.121-.091.573.573 0 0 1-.09-.144l-.032-.066-.038-.084-.115-.272H5.45l-.115.278c-.06.147-.112.244-.159.3-.062.072-.156.11-.278.11Zm1.087-2.025.29.713H5.7l.285-.713Z"/><path d="M8 9.003H4a1 1 0 1 1 0-2h4a1 1 0 1 1 0 2Z"/><path fill-rule="evenodd" clip-rule="evenodd" d="M12 3.003h2c1.104 0 2 .897 2 2v9a2 2 0 0 1-2 2H5c-1.103 0-2-.896-2-2v-2H2c-1.103 0-2-.896-2-2v-8c0-1.103.897-2 2-2h8c1.104 0 2 .897 2 2v1Zm-10-1v8h8v-8H2Zm12 12H5v-2h5a2 2 0 0 0 2-2v-5h2v9Z"/></svg>
