<!--
* SPDX-FileCopyrightText: © 2020 Liferay, Inc. <https://liferay.com>
* SPDX-FileCopyrightText: © 2020 Contributors to the project Clay <https://github.com/liferay/clay/graphs/contributors>
*
* SPDX-License-Identifier: BSD-3-Clause
-->
<svg  viewBox="0 0 16 16" xmlns="http://www.w3.org/2000/svg">
<path class="lexicon-icon-outline" d="M4.34473 7.84343H3.77637V9.14128H4.3418C4.79004 9.14128 5.05078 8.91277 5.05078 8.49675C5.05078 8.06902 4.7959 7.84343 4.34473 7.84343Z" />
<path class="lexicon-icon-outline" d="M7.9021 7.86678H7.3396V10.2633H7.9021C8.59058 10.2633 8.98023 9.83846 8.98023 9.05037C8.98023 8.29744 8.57886 7.86678 7.9021 7.86678Z" />
<path class="lexicon-icon-outline" fill-rule="evenodd" clip-rule="evenodd" d="M3.50024 0.00354004H10.2502L14.0002 3.75354V14.5026C14.0002 15.3317 13.3293 16.0026 12.5002 16.0026H3.50024C2.67114 16.0026 2.00024 15.3317 2.00024 14.5026V1.50354C2.00024 0.674439 2.67114 0.00354004 3.50024 0.00354004ZM3.77564 9.77405H4.51099C5.29614 9.77405 5.84399 9.25842 5.84399 8.49085C5.84399 7.71741 5.31958 7.20178 4.552 7.20178H2.99634V10.9313H3.77564V9.77405ZM6.56177 10.9313H8.02954C9.14575 10.9313 9.77856 10.2516 9.77856 9.0387C9.77856 7.86975 9.13696 7.19885 8.02954 7.19885H6.56177V10.9313ZM11.2961 7.86975H12.9573V7.20178H10.5168V10.9313H11.2961V9.48108H12.8137V8.84241H11.2961V7.86975Z" />
</svg>
