<!--
* SPDX-FileCopyrightText: © 2022 Liferay, Inc. <https://liferay.com>
* SPDX-FileCopyrightText: © 2022 Contributors to the project Clay <https://github.com/liferay/clay/graphs/contributors>
*
* SPDX-License-Identifier: BSD-3-Clause
-->
<svg viewBox="0 0 16 16" xmlns="http://www.w3.org/2000/svg"><path d="M6.969.974c0-1.294 1.99-1.294 1.99 0v1.112a4.077 4.077 0 0 1 2.148 1.231c.815.916-.61 2.304-1.482 1.341-2.844-2.197-5.769 1.566-1.64 2.303h.009c4.325.278 5.869 5.475.966 7.035v1.009c0 1.334-1.991 1.328-1.991 0v-1.006c-.847-.188-2.175-.722-2.728-1.34-.8-.9.631-2.298 1.487-1.335 2.863 2.425 7.344-1.525 1.375-2.553-4.769-.879-3.415-6.107-.134-6.682V.974Z"/></svg>
