<!--
* SPDX-FileCopyrightText: © 2020 Liferay, Inc. <https://liferay.com>
* SPDX-FileCopyrightText: © 2020 Contributors to the project Clay <https://github.com/liferay/clay/graphs/contributors>
*
* SPDX-License-Identifier: BSD-3-Clause
-->
<svg  viewBox="0 0 16 16" xmlns="http://www.w3.org/2000/svg">
<path class="lexicon-icon-outline" d="M6.96893 0.973852C6.96893 -0.319897 8.95959 -0.319897 8.95959 0.973852V2.08635C9.80023 2.27385 10.5534 2.70198 11.1065 3.3176C11.9221 4.23323 10.4971 5.62073 9.62523 4.65823C6.78143 2.46135 3.85638 6.22385 7.98458 6.96135H7.99395C12.319 7.23948 13.8628 12.4364 8.95959 13.9957V15.0051C8.95959 16.3395 6.96893 16.3332 6.96893 15.0051V13.9988C6.12205 13.8113 4.7939 13.277 4.24076 12.6582C3.44075 11.7582 4.87202 10.3614 5.72829 11.3239C8.59084 13.7489 13.0722 9.79885 7.10331 8.77073C2.33448 7.8926 3.68763 2.66448 6.96893 2.08948V0.973852Z" />
</svg>
