<!--
* SPDX-FileCopyrightText: © 2022 Liferay, Inc. <https://liferay.com>
* SPDX-FileCopyrightText: © 2022 Contributors to the project Clay <https://github.com/liferay/clay/graphs/contributors>
*
* SPDX-License-Identifier: BSD-3-Clause
-->
<svg viewBox="0 0 16 16" xmlns="http://www.w3.org/2000/svg"><path class="lexicon-icon-outline" d="M6.969.971c0-1.293 1.99-1.293 1.99 0v1.113a4.07 4.07 0 0 1 2.148 1.231c.815.916-.61 2.303-1.482 1.34C6.781 2.46 3.856 6.222 7.985 6.96h.009c4.325.278 5.869 5.475.966 7.034v1.01c0 1.334-1.991 1.328-1.991 0v-1.007c-.847-.187-2.175-.722-2.728-1.34-.8-.9.631-2.297 1.487-1.335 2.863 2.425 7.344-1.525 1.375-2.553-4.769-.878-3.415-6.106-.134-6.681V.971Z"/></svg>