<!--
* SPDX-FileCopyrightText: © 2022 Liferay, Inc. <https://liferay.com>
* SPDX-FileCopyrightText: © 2022 Contributors to the project Clay <https://github.com/liferay/clay/graphs/contributors>
*
* SPDX-License-Identifier: BSD-3-Clause
-->
<svg viewBox="0 0 16 16" xmlns="http://www.w3.org/2000/svg"><path class="lexicon-icon-outline" d="M8 12.001a1.01 1.01 0 0 1-.716-.297L5.047 9.467a1.008 1.008 0 0 1 0-1.432 1.008 1.008 0 0 1 1.43 0L7 8.557V1.001a1 1 0 1 1 2 0v7.556l.522-.522a1.011 1.011 0 1 1 1.431 1.432l-2.237 2.237c-.191.19-.447.297-.716.297Z"/><path class="lexicon-icon-outline" d="M12 12.001a1 1 0 1 1 2 0v2a2 2 0 0 1-2 2H4a2 2 0 0 1-2-2v-2a1 1 0 1 1 2 0v2h8v-2Z"/></svg>