<!--
* SPDX-FileCopyrightText: © 2020 Liferay, Inc. <https://liferay.com>
* SPDX-FileCopyrightText: © 2020 Contributors to the project Clay <https://github.com/liferay/clay/graphs/contributors>
*
* SPDX-License-Identifier: BSD-3-Clause
-->
<svg viewBox="0 0 16 16" xmlns="http://www.w3.org/2000/svg"><path d="M8 12.003a1.01 1.01 0 0 1-.716-.296L5.047 9.469a1.008 1.008 0 0 1 0-1.431 1.008 1.008 0 0 1 1.43 0L7 8.56V1.003a1 1 0 1 1 2 0V8.56l.522-.522a1.011 1.011 0 1 1 1.431 1.431l-2.237 2.238c-.191.19-.447.296-.716.296Z"/><path d="M12 12.003a1 1 0 1 1 2 0v2a2 2 0 0 1-2 2H4a2 2 0 0 1-2-2v-2a1 1 0 1 1 2 0v2h8v-2Z"/></svg>
