<!--
* SPDX-FileCopyrightText: © 2020 Liferay, Inc. <https://liferay.com>
* SPDX-FileCopyrightText: © 2020 Contributors to the project Clay <https://github.com/liferay/clay/graphs/contributors>
*
* SPDX-License-Identifier: BSD-3-Clause
-->
<svg  viewBox="0 0 16 16" xmlns="http://www.w3.org/2000/svg">
<path class="lexicon-icon-outline" d="M8.00024 12.0035C7.73169 12.0035 7.47485 11.8973 7.28442 11.7067L5.04712 9.46918C4.64966 9.07544 4.64966 8.43481 5.04712 8.0379C5.44067 7.64105 6.0813 7.64105 6.47778 8.0379L7.00024 8.55981V1.00354C7.00024 0.450439 7.44653 0.00354004 8.00024 0.00354004C8.55298 0.00354004 9.00024 0.450439 9.00024 1.00354V8.55981L9.52173 8.0379C9.71899 7.84106 9.97778 7.74103 10.2375 7.74103C10.4973 7.74103 10.7561 7.84106 10.9534 8.0379C11.3499 8.43164 11.3499 9.07227 10.9534 9.46918L8.71606 11.7067C8.52466 11.8973 8.2688 12.0035 8.00024 12.0035Z" />
<path class="lexicon-icon-outline" d="M12.0002 12.0035C12.0002 11.4504 12.4475 11.0035 13.0002 11.0035C13.553 11.0035 14.0002 11.4504 14.0002 12.0035V14.0035C14.0002 15.1081 13.1048 16.0035 12.0002 16.0035H4.00024C2.89567 16.0035 2.00024 15.1081 2.00024 14.0035V12.0035C2.00024 11.4504 2.44751 11.0035 3.00024 11.0035C3.55298 11.0035 4.00024 11.4504 4.00024 12.0035V14.0035H12.0002V12.0035Z" />
</svg>
