<!--
* SPDX-FileCopyrightText: © 2020 Liferay, Inc. <https://liferay.com>
* SPDX-FileCopyrightText: © 2020 Contributors to the project Clay <https://github.com/liferay/clay/graphs/contributors>
*
* SPDX-License-Identifier: BSD-3-Clause
-->
<svg viewBox="0 0 16 16" xmlns="http://www.w3.org/2000/svg"><path d="M7 4.003a1 1 0 1 1-2 .001 1 1 0 0 1 2 0Zm0 4a1 1 0 1 1-2 .001 1 1 0 0 1 2 0Zm-1 5a1 1 0 1 0 0-1.999 1 1 0 0 0 0 2Zm5-9a1 1 0 1 1-2 .001 1 1 0 0 1 2 0Zm-1 5a1 1 0 1 0 0-1.999 1 1 0 0 0 0 2Zm1 3a1 1 0 1 1-2 .001 1 1 0 0 1 2 0Z"/></svg>
