<!--
* SPDX-FileCopyrightText: © 2020 Liferay, Inc. <https://liferay.com>
* SPDX-FileCopyrightText: © 2020 Contributors to the project Clay <https://github.com/liferay/clay/graphs/contributors>
*
* SPDX-License-Identifier: BSD-3-Clause
-->
<svg  viewBox="0 0 16 16" xmlns="http://www.w3.org/2000/svg">
<path class="lexicon-icon-outline" d="M7.00024 4.00354C7.00024 4.55585 6.55298 5.00354 6.00024 5.00354C5.44751 5.00354 5.00024 4.55585 5.00024 4.00354C5.00024 3.45123 5.44751 3.00354 6.00024 3.00354C6.55298 3.00354 7.00024 3.45123 7.00024 4.00354Z" />
<path class="lexicon-icon-outline" d="M7.00024 8.00354C7.00024 8.55585 6.55298 9.00354 6.00024 9.00354C5.44751 9.00354 5.00024 8.55585 5.00024 8.00354C5.00024 7.45123 5.44751 7.00354 6.00024 7.00354C6.55298 7.00354 7.00024 7.45123 7.00024 8.00354Z" />
<path class="lexicon-icon-outline" d="M6.00024 13.0035C6.55298 13.0035 7.00024 12.5558 7.00024 12.0035C7.00024 11.4512 6.55298 11.0035 6.00024 11.0035C5.44751 11.0035 5.00024 11.4512 5.00024 12.0035C5.00024 12.5558 5.44751 13.0035 6.00024 13.0035Z" />
<path class="lexicon-icon-outline" d="M11.0002 4.00354C11.0002 4.55585 10.553 5.00354 10.0002 5.00354C9.44751 5.00354 9.00024 4.55585 9.00024 4.00354C9.00024 3.45123 9.44751 3.00354 10.0002 3.00354C10.553 3.00354 11.0002 3.45123 11.0002 4.00354Z" />
<path class="lexicon-icon-outline" d="M10.0002 9.00354C10.553 9.00354 11.0002 8.55585 11.0002 8.00354C11.0002 7.45123 10.553 7.00354 10.0002 7.00354C9.44751 7.00354 9.00024 7.45123 9.00024 8.00354C9.00024 8.55585 9.44751 9.00354 10.0002 9.00354Z" />
<path class="lexicon-icon-outline" d="M11.0002 12.0035C11.0002 12.5558 10.553 13.0035 10.0002 13.0035C9.44751 13.0035 9.00024 12.5558 9.00024 12.0035C9.00024 11.4512 9.44751 11.0035 10.0002 11.0035C10.553 11.0035 11.0002 11.4512 11.0002 12.0035Z" />
</svg>
