<!--
* SPDX-FileCopyrightText: © 2020 Liferay, Inc. <https://liferay.com>
* SPDX-FileCopyrightText: © 2020 Contributors to the project Clay <https://github.com/liferay/clay/graphs/contributors>
*
* SPDX-License-Identifier: BSD-3-Clause
-->
<svg  viewBox="0 0 16 16" xmlns="http://www.w3.org/2000/svg">
<path class="lexicon-icon-outline" d="M14.0002 13.0035H2.00024C1.00024 13.0035 0.000244141 12.0057 0.000244141 11.0035V5.00354C0.000869141 4.00823 1.00087 3.00354 2.00024 3.00354H14.0002C15.0002 3.00417 16.0002 4.00135 16.0002 5.00354V11.0035C16.0002 12.0045 15.0009 13.0035 14.0002 13.0035ZM2.00024 5.00354V11.0035H14.0002V5.00354H2.00024Z" />
<path class="lexicon-icon-outline" fill-rule="evenodd" clip-rule="evenodd" d="M7.96991 6.97321C8.26281 6.68032 8.73768 6.68032 9.03057 6.97321L10.0002 7.94288L10.9699 6.97321C11.2628 6.68032 11.7377 6.68032 12.0306 6.97321C12.3235 7.2661 12.3235 7.74098 12.0306 8.03387L10.5306 9.53387C10.2377 9.82676 9.76281 9.82676 9.46991 9.53387L7.96991 8.03387C7.67702 7.74098 7.67702 7.2661 7.96991 6.97321Z" />
</svg>
