<!--
* SPDX-FileCopyrightText: © 2022 Liferay, Inc. <https://liferay.com>
* SPDX-FileCopyrightText: © 2022 Contributors to the project Clay <https://github.com/liferay/clay/graphs/contributors>
*
* SPDX-License-Identifier: BSD-3-Clause
-->
<svg viewBox="0 0 16 16" xmlns="http://www.w3.org/2000/svg"><path class="lexicon-icon-outline" d="M14 13.001H2c-1 0-2-.998-2-2v-6c0-.995 1-2 2-2h12c1 0 2 .998 2 2v6c0 1.001-1 2-2 2Zm-12-8v6h12v-6H2Z"/><path class="lexicon-icon-outline" fill-rule="evenodd" clip-rule="evenodd" d="M7.97 6.97a.75.75 0 0 1 1.06 0l.97.97.97-.97a.75.75 0 0 1 1.06 1.061l-1.5 1.5a.75.75 0 0 1-1.06 0l-1.5-1.5a.75.75 0 0 1 0-1.06Z"/></svg>