<!--
* SPDX-FileCopyrightText: © 2022 Liferay, Inc. <https://liferay.com>
* SPDX-FileCopyrightText: © 2022 Contributors to the project Clay <https://github.com/liferay/clay/graphs/contributors>
*
* SPDX-License-Identifier: BSD-3-Clause
-->
<svg viewBox="0 0 16 16" xmlns="http://www.w3.org/2000/svg"><path class="lexicon-icon-outline" fill-rule="evenodd" clip-rule="evenodd" d="M2.997.001h9.991c1.11 0 2.01.9 2.01 2.01v5.995l-2-.006V6h-2v4H7v1.999h2l.003 2H2.997c-1.1 0-1.997-.897-1.997-2V1.998C1 .895 1.893 0 2.997 0ZM5 12H3v-2h2v2ZM3 8h2V6H3v2Zm2-4H3V2h2v2Zm2 4h1.999V6h-2v2Zm1.999-4h-2V2h2v2Zm2 0h2V2h-2v2Z"/><path class="lexicon-icon-outline" d="m13.42 12.193 1.412.818a.337.337 0 0 1 .066.534l-2.5 2.366a.336.336 0 0 1-.419.031.33.33 0 0 1-.118-.403l.722-1.731-1.415-.822a.33.33 0 0 1-.166-.25.337.337 0 0 1 .103-.281l2.5-2.365.008-.009.013-.01a.354.354 0 0 1 .21-.072.332.332 0 0 1 .297.481l-.712 1.713Z"/></svg>