<!--
* SPDX-FileCopyrightText: © 2020 Liferay, Inc. <https://liferay.com>
* SPDX-FileCopyrightText: © 2020 Contributors to the project Clay <https://github.com/liferay/clay/graphs/contributors>
*
* SPDX-License-Identifier: BSD-3-Clause
-->
<svg  viewBox="0 0 16 16" xmlns="http://www.w3.org/2000/svg">
<path class="lexicon-icon-outline" fill-rule="evenodd" clip-rule="evenodd" d="M2.99696 0.00354004H12.9884C14.0977 0.00354004 14.9978 0.903373 14.9978 2.0125V8.00825L12.9981 8.00195V6.00235H10.9985V10.0016H6.99919V12.0012H8.99884L9.00177 14.0008H2.99696C1.89735 14.0008 1.00024 13.1041 1.00024 12.0012V2.00002C1.00024 0.897137 1.89343 0.00354004 2.99696 0.00354004ZM4.99954 12.0012H2.99989V10.0016H4.99954V12.0012ZM2.99989 8.00195H4.99954V6.00235H2.99989V8.00195ZM4.99954 4.00275H2.99989V2.00314H4.99954V4.00275ZM6.99919 8.00195H8.99884V6.00235H6.99919V8.00195ZM8.99884 4.00275H6.99919V2.00314H8.99884V4.00275ZM10.9985 4.00275H12.9981V2.00314H10.9985V4.00275Z" />
<path class="lexicon-icon-outline" d="M13.4208 12.1949L14.8325 13.0136C14.9234 13.0635 14.9821 13.1572 14.9978 13.2666C15.0105 13.3697 14.9733 13.4759 14.898 13.5478L12.3984 15.913C12.3358 15.9723 12.2546 16.0035 12.1705 16.0035C12.1049 16.0035 12.0394 15.9848 11.9797 15.9442C11.8486 15.8536 11.7987 15.6849 11.8614 15.5412L12.5833 13.8102L11.1677 12.9885C11.0738 12.9354 11.0141 12.8417 11.0024 12.7386C10.9926 12.6354 11.0269 12.5292 11.1051 12.4574L13.6047 10.0922L13.6135 10.0835L13.6262 10.0735C13.6829 10.0297 13.7514 10.0047 13.8356 10.0016C14.0205 10.0016 14.1672 10.1516 14.1672 10.3359C14.1672 10.3859 14.1545 10.4359 14.133 10.4827L13.4208 12.1949Z" />
</svg>
