<!--
* SPDX-FileCopyrightText: © 2020 Liferay, Inc. <https://liferay.com>
* SPDX-FileCopyrightText: © 2020 Contributors to the project Clay <https://github.com/liferay/clay/graphs/contributors>
*
* SPDX-License-Identifier: BSD-3-Clause
-->
<svg  viewBox="0 0 16 16" xmlns="http://www.w3.org/2000/svg">
<path class="lexicon-icon-outline" d="M6.00024 2.93744H2.00024V9.70612H4.30005C3.90063 10.2863 3.70044 10.9631 3.59985 11.64H1.00024C0.400635 11.64 0.000244141 11.2532 0.000244141 10.6731V1.97052C0.000244141 1.39032 0.400635 1.00354 1.00024 1.00354H6.00024C6.59985 1.00354 7.00024 1.39032 7.00024 1.97052V3.90442H6.00024V2.93744Z" />
<path class="lexicon-icon-outline" d="M10.0002 1.00354H15.0002C15.5999 1.00354 16.0002 1.39032 16.0002 1.97052V10.6731C16.0002 11.2532 15.5999 11.64 15.0002 11.64H12.4006C12.3 10.9631 12.0999 10.2863 11.7004 9.70612H14.0002V2.93744H10.0002V3.90442H9.00024V1.97052C9.00024 1.39032 9.40063 1.00354 10.0002 1.00354Z" />
<path class="lexicon-icon-outline" d="M8.40063 11.3499L9.10083 9.70612C9.30103 9.31934 8.80103 9.12598 8.60083 9.31934L6.10083 11.64C5.90063 11.8334 5.90063 12.0268 6.20044 12.1235L7.60083 12.8971L6.90063 14.5409C6.80103 14.9277 7.20044 15.121 7.40063 14.9277L9.90063 12.607C10.0002 12.5103 10.0002 12.2202 9.80103 12.1235L8.40063 11.3499Z" />
<path class="lexicon-icon-outline" d="M10.0999 5.83832C10.3 5.25812 10.8 4.87134 11.5002 4.87134C13.5002 4.87134 13.5002 7.77222 11.5002 7.77222C10.9006 7.77222 10.3 7.38544 10.0999 6.80524H5.90063C5.70044 7.38544 5.20044 7.77222 4.50024 7.77222C2.50024 7.77222 2.50024 4.87134 4.50024 4.87134C5.20044 4.87134 5.70044 5.25812 5.90063 5.83832H10.0999Z" />
</svg>
