<!--
* SPDX-FileCopyrightText: © 2022 Liferay, Inc. <https://liferay.com>
* SPDX-FileCopyrightText: © 2022 Contributors to the project Clay <https://github.com/liferay/clay/graphs/contributors>
*
* SPDX-License-Identifier: BSD-3-Clause
-->
<svg viewBox="0 0 16 16" xmlns="http://www.w3.org/2000/svg"><path class="lexicon-icon-outline" d="M6 2.935H2v6.769h2.3c-.4.58-.6 1.257-.7 1.934H1c-.6 0-1-.387-1-.967V1.968c0-.58.4-.967 1-.967h5c.6 0 1 .387 1 .967v1.934H6v-.967Zm4-1.934h5c.6 0 1 .387 1 .967v8.703c0 .58-.4.967-1 .967h-2.6c-.1-.677-.3-1.354-.7-1.934H14V2.935h-4v.967H9V1.968c0-.58.4-.967 1-.967ZM8.4 11.348l.7-1.644c.201-.387-.299-.58-.5-.387l-2.5 2.32c-.2.194-.2.387.1.484l1.4.774-.7 1.644c-.099.386.3.58.5.386l2.5-2.32c.1-.097.1-.387-.099-.484l-1.4-.774Z"/><path class="lexicon-icon-outline" d="M10.1 5.836c.2-.58.7-.967 1.4-.967 2 0 2 2.9 0 2.9-.6 0-1.2-.386-1.4-.966H5.9c-.2.58-.7.967-1.4.967-2 0-2-2.901 0-2.901.7 0 1.2.387 1.4.967h4.2Z"/></svg>