<!--
* SPDX-FileCopyrightText: © 2020 Liferay, Inc. <https://liferay.com>
* SPDX-FileCopyrightText: © 2020 Contributors to the project Clay <https://github.com/liferay/clay/graphs/contributors>
*
* SPDX-License-Identifier: BSD-3-Clause
-->
<svg viewBox="0 0 16 16" xmlns="http://www.w3.org/2000/svg"><path fill-rule="evenodd" clip-rule="evenodd" d="M2.997.003h9.991c1.11 0 2.01.9 2.01 2.01v5.995l-2-.006v-2h-2v4H7v2h2L9.002 14H2.997A2 2 0 0 1 1 12V2C1 .897 1.893.003 2.997.003ZM5 12.001H3v-2h2v2Zm-2-4h2V6.003H3v2Zm2-3.998H3v-2h2v2Zm2 3.999h1.999v-2h-2v2Zm1.999-4h-2V2.004h2v2Zm2 0h2V2.004h-2v2Z"/><path d="m13.42 12.195 1.412.818a.337.337 0 0 1 .066.535l-2.5 2.365a.336.336 0 0 1-.419.031.33.33 0 0 1-.118-.403l.722-1.73-1.415-.823a.33.33 0 0 1-.166-.25.337.337 0 0 1 .103-.28l2.5-2.366.008-.009.013-.01a.353.353 0 0 1 .21-.072.332.332 0 0 1 .297.482l-.712 1.712Z"/></svg>
