<!--
* SPDX-FileCopyrightText: © 2020 Liferay, Inc. <https://liferay.com>
* SPDX-FileCopyrightText: © 2020 Contributors to the project Clay <https://github.com/liferay/clay/graphs/contributors>
*
* SPDX-License-Identifier: BSD-3-Clause
-->
<svg  viewBox="0 0 16 16" xmlns="http://www.w3.org/2000/svg">
<path class="lexicon-icon-outline" d="M11.4287 3.43103C11.4287 5.32458 9.89355 6.85962 8 6.85962C6.10645 6.85962 4.57129 5.32458 4.57129 3.43103C4.57129 1.53748 6.10645 0.00244141 8 0.00244141C9.89355 0.00244141 11.4287 1.53748 11.4287 3.43103Z" />
<path class="lexicon-icon-outline" d="M16 12.5739C16 14.4674 14.4648 16.0024 12.5713 16.0024C10.6777 16.0024 9.14258 14.4674 9.14258 12.5739C9.14258 10.6803 10.6777 9.14526 12.5713 9.14526C14.4648 9.14526 16 10.6803 16 12.5739Z" />
<path class="lexicon-icon-outline" d="M3.42871 16.0024C5.32227 16.0024 6.85742 14.4674 6.85742 12.5739C6.85742 10.6803 5.32227 9.14526 3.42871 9.14526C1.53516 9.14526 0 10.6803 0 12.5739C0 14.4674 1.53516 16.0024 3.42871 16.0024Z" />
</svg>
