<!--
* SPDX-FileCopyrightText: © 2020 Liferay, Inc. <https://liferay.com>
* SPDX-FileCopyrightText: © 2020 Contributors to the project Clay <https://github.com/liferay/clay/graphs/contributors>
*
* SPDX-License-Identifier: BSD-3-Clause
-->
<svg  viewBox="0 0 16 16" xmlns="http://www.w3.org/2000/svg">
<path class="lexicon-icon-outline" d="M8 4.00244C9.10449 4.00244 10 3.107 10 2.00244C10 0.897879 9.10449 0.00244141 8 0.00244141C6.89551 0.00244141 6 0.897879 6 2.00244C6 3.107 6.89551 4.00244 8 4.00244Z" />
<path class="lexicon-icon-outline" d="M10 7.98682C10 9.09138 9.10449 9.98682 8 9.98682C6.89551 9.98682 6 9.09138 6 7.98682C6 6.88225 6.89551 5.98682 8 5.98682C9.10449 5.98682 10 6.88225 10 7.98682Z" />
<path class="lexicon-icon-outline" d="M10 14.0024C10 15.107 9.10449 16.0024 8 16.0024C6.89551 16.0024 6 15.107 6 14.0024C6 12.8979 6.89551 12.0024 8 12.0024C9.10449 12.0024 10 12.8979 10 14.0024Z" />
</svg>
