<!--
* SPDX-FileCopyrightText: © 2020 Liferay, Inc. <https://liferay.com>
* SPDX-FileCopyrightText: © 2020 Contributors to the project Clay <https://github.com/liferay/clay/graphs/contributors>
*
* SPDX-License-Identifier: BSD-3-Clause
-->
<svg  viewBox="0 0 16 16" xmlns="http://www.w3.org/2000/svg">
<path class="lexicon-icon-outline" d="M4 8.00244C4 9.10706 3.10449 10.0024 2 10.0024C0.895508 10.0024 0 9.10706 0 8.00244C0 6.89783 0.895508 6.00244 2 6.00244C3.10449 6.00244 4 6.89783 4 8.00244Z" />
<path class="lexicon-icon-outline" d="M10 8.00244C10 9.10706 9.10449 10.0024 8 10.0024C6.89551 10.0024 6 9.10706 6 8.00244C6 6.89783 6.89551 6.00244 8 6.00244C9.10449 6.00244 10 6.89783 10 8.00244Z" />
<path class="lexicon-icon-outline" d="M14 10.0024C15.1045 10.0024 16 9.10706 16 8.00244C16 6.89783 15.1045 6.00244 14 6.00244C12.8955 6.00244 12 6.89783 12 8.00244C12 9.10706 12.8955 10.0024 14 10.0024Z" />
</svg>
