<!--
* SPDX-FileCopyrightText: © 2020 Liferay, Inc. <https://liferay.com>
* SPDX-FileCopyrightText: © 2020 Contributors to the project Clay <https://github.com/liferay/clay/graphs/contributors>
*
* SPDX-License-Identifier: BSD-3-Clause
-->
<svg viewBox="0 0 16 16" xmlns="http://www.w3.org/2000/svg"><path d="M14 7.976c0 8.026-12 7.983-12 0 0-7.989 12-8.032 12 0Zm-14 0c0 10.634 16 10.77 16 0 0-10.649-16-10.615-16 0Z"/><path d="M10.429 9.35c.793-.22 1.525.618 1.163 1.358a3.998 3.998 0 0 1-7.19 0c-.362-.74.444-1.632 1.163-1.359 1.707.726 3.076.818 4.864 0ZM5.5 7.971a1.5 1.5 0 1 0 0-3 1.5 1.5 0 0 0 0 3Zm5 0a1.5 1.5 0 1 0 0-3 1.5 1.5 0 0 0 0 3Z"/></svg>
