<!--
* SPDX-FileCopyrightText: © 2020 Liferay, Inc. <https://liferay.com>
* SPDX-FileCopyrightText: © 2020 Contributors to the project Clay <https://github.com/liferay/clay/graphs/contributors>
*
* SPDX-License-Identifier: BSD-3-Clause
-->
<svg  viewBox="0 0 16 16" xmlns="http://www.w3.org/2000/svg">
<path class="lexicon-icon-outline" d="M14 7.97647C14 16.0024 2 15.959 2 7.97647C2 -0.0129056 14 -0.0563426 14 7.97647ZM0 7.97647C0 18.6096 16 18.7458 16 7.97647C16 -2.67259 0 -2.63853 0 7.97647Z" />
<path class="lexicon-icon-outline" d="M10.429 9.34961C11.2218 9.13023 11.954 9.96773 11.5924 10.7084C10.9434 12.0387 9.57713 12.9552 7.99713 12.9552C6.41713 12.9552 5.05088 12.0387 4.40182 10.7084C4.04025 9.96773 4.8465 9.07648 5.56525 9.34961C7.27244 10.0746 8.64057 10.1674 10.429 9.34961Z" />
<path class="lexicon-icon-outline" d="M5.5 7.97116C6.32843 7.97116 7 7.29959 7 6.47116C7 5.64273 6.32843 4.97116 5.5 4.97116C4.67157 4.97116 4 5.64273 4 6.47116C4 7.29959 4.67157 7.97116 5.5 7.97116Z" />
<path class="lexicon-icon-outline" d="M10.5 7.97116C11.3284 7.97116 12 7.29959 12 6.47116C12 5.64273 11.3284 4.97116 10.5 4.97116C9.67157 4.97116 9 5.64273 9 6.47116C9 7.29959 9.67157 7.97116 10.5 7.97116Z" />
</svg>
