<!--
* SPDX-FileCopyrightText: © 2020 Liferay, Inc. <https://liferay.com>
* SPDX-FileCopyrightText: © 2020 Contributors to the project Clay <https://github.com/liferay/clay/graphs/contributors>
*
* SPDX-License-Identifier: BSD-3-Clause
-->
<svg  viewBox="0 0 16 16" xmlns="http://www.w3.org/2000/svg">
<path class="lexicon-icon-outline" fill-rule="evenodd" clip-rule="evenodd" d="M9.79785 0.59943C8.68555 -0.24728 7.27051 -0.144161 6.19824 0.59943C6.19824 0.59943 0.74707 4.38614 0.458984 4.7298C0.177734 4.97977 0 5.52027 0 6.00455V14.0029C0 15.1057 0.893555 16.0024 2 16.0024H13.9971C15.0996 16.0024 15.9971 15.1089 15.9971 14.0029V6.00141C15.9971 5.52652 15.8184 5.01099 15.5527 4.74857C15.2656 4.39237 9.79785 0.59943 9.79785 0.59943ZM7.39844 2.1991C7.75195 1.93351 8.24512 1.93351 8.59863 2.1991L13.335 5.75147L8.59863 9.30072C8.24512 9.56629 7.75195 9.56629 7.39844 9.30072L2.66211 5.74836L7.39844 2.1991ZM2 7.75104V13.9997H13.9971V7.75104L9.79883 10.9004C8.70801 11.7096 7.24902 11.7096 6.19922 10.9004L2 7.75104Z" />
</svg>
