<!--
* SPDX-FileCopyrightText: © 2022 Liferay, Inc. <https://liferay.com>
* SPDX-FileCopyrightText: © 2022 Contributors to the project Clay <https://github.com/liferay/clay/graphs/contributors>
*
* SPDX-License-Identifier: BSD-3-Clause
-->
<svg viewBox="0 0 16 16" xmlns="http://www.w3.org/2000/svg"><path class="lexicon-icon-outline" fill-rule="evenodd" clip-rule="evenodd" d="M9.798.599c-1.112-.847-2.527-.744-3.6 0 0 0-5.45 3.787-5.739 4.13C.178 4.98 0 5.52 0 6.004v7.998a2 2 0 0 0 2 2h11.997a2 2 0 0 0 2-2V6.001c0-.475-.179-.99-.444-1.253-.287-.356-5.755-4.15-5.755-4.15Zm-2.4 1.6a1.004 1.004 0 0 1 1.2 0l4.737 3.552-4.736 3.55a1.004 1.004 0 0 1-1.2 0L2.661 5.747l4.736-3.55ZM2 7.75v6.248h11.997V7.751L9.8 10.9c-1.091.81-2.55.81-3.6 0L2 7.75Z"/></svg>