<!--
* SPDX-FileCopyrightText: © 2020 Liferay, Inc. <https://liferay.com>
* SPDX-FileCopyrightText: © 2020 Contributors to the project Clay <https://github.com/liferay/clay/graphs/contributors>
*
* SPDX-License-Identifier: BSD-3-Clause
-->
<svg viewBox="0 0 16 16" xmlns="http://www.w3.org/2000/svg"><path fill-rule="evenodd" clip-rule="evenodd" d="M9.798.6c-1.112-.847-2.527-.744-3.6 0 0 0-5.45 3.786-5.739 4.13C.178 4.98 0 5.52 0 6.004v7.999a2 2 0 0 0 2 2h11.997a2 2 0 0 0 2-2V6c0-.475-.179-.99-.444-1.253C15.266 4.392 9.798.6 9.798.6Zm-2.4 1.599a1.004 1.004 0 0 1 1.2 0l4.737 3.552-4.736 3.55a1.004 1.004 0 0 1-1.2 0L2.661 5.748 7.398 2.2ZM2 7.751V14h11.997V7.75L9.8 10.9c-1.091.81-2.55.81-3.6 0L2 7.75Z"/></svg>
