<!--
* SPDX-FileCopyrightText: © 2020 Liferay, Inc. <https://liferay.com>
* SPDX-FileCopyrightText: © 2020 Contributors to the project Clay <https://github.com/liferay/clay/graphs/contributors>
*
* SPDX-License-Identifier: BSD-3-Clause
-->
<svg  viewBox="0 0 16 16" xmlns="http://www.w3.org/2000/svg">
<path class="lexicon-icon-outline" fill-rule="evenodd" clip-rule="evenodd" d="M2.34375 13.6606C3.85603 15.1731 5.86272 16.0044 8 16.0044C10.1373 16.0044 12.1473 15.1731 13.6563 13.6606C15.1685 12.1482 16 10.1419 16 8.00439C16 5.86691 15.1685 3.85749 13.6563 2.34814C12.1473 0.835658 10.1373 0.00439453 8 0.00439453C5.86272 0.00439453 3.85268 0.835658 2.34375 2.34814C0.831473 3.85749 0 5.86691 0 8.00439C0 10.1419 0.831473 12.1513 2.34375 13.6606ZM7 4.00439C7 3.45124 7.44643 3.00439 8 3.00439C8.55357 3.00439 9 3.45124 9 4.00439V9.00439C9 9.55755 8.55357 10.0044 8 10.0044C7.44643 10.0044 7 9.55755 7 9.00439V4.00439ZM9 12.0044C9 11.4512 8.55357 11.0044 8 11.0044C7.44643 11.0044 7 11.4512 7 12.0044C7 12.5575 7.44643 13.0044 8 13.0044C8.55357 13.0044 9 12.5575 9 12.0044Z" />
</svg>
