<!--
* SPDX-FileCopyrightText: © 2022 Liferay, Inc. <https://liferay.com>
* SPDX-FileCopyrightText: © 2022 Contributors to the project Clay <https://github.com/liferay/clay/graphs/contributors>
*
* SPDX-License-Identifier: BSD-3-Clause
-->
<svg viewBox="0 0 16 16" xmlns="http://www.w3.org/2000/svg"><path class="lexicon-icon-outline" d="M8.999 11.004A1 1 0 1 1 7 11.006a1 1 0 0 1 2-.002ZM8 3a1 1 0 0 0-1 1v4a1 1 0 0 0 2 0V4a1 1 0 0 0-1-1Z"/><path class="lexicon-icon-outline" fill-rule="evenodd" clip-rule="evenodd" d="M15.368 4.887a7.954 7.954 0 0 0-1.715-2.54A7.96 7.96 0 0 0 7.998.001 7.992 7.992 0 0 0 4.884.63a7.973 7.973 0 0 0-2.54 1.716A7.953 7.953 0 0 0 0 8.004a7.953 7.953 0 0 0 2.343 5.657 7.966 7.966 0 0 0 2.544 1.713 7.922 7.922 0 0 0 3.115.628 7.98 7.98 0 0 0 5.658-2.341 7.976 7.976 0 0 0 1.712-2.544A7.948 7.948 0 0 0 16 8a7.97 7.97 0 0 0-.632-3.113ZM8 14.005A6.001 6.001 0 0 1 8 2.002a6.001 6.001 0 0 1 0 12.003Z"/></svg>