<svg xmlns="http://www.w3.org/2000/svg" viewBox="0 0 512 512">
	<path class="lexicon-icon-body" fill="none" d="M491.9,156.3C479,125.8,460.5,98.5,437,75S386.2,33,355.7,20.1C324.1,6.8,290.5,0,256,0s-68.1,6.8-99.7,20.1C125.8,33,98.5,51.5,75,75S33,125.8,20.1,156.3C6.8,187.9,0,221.5,0,256s6.8,68.1,20.1,99.7C33,386.2,51.5,413.5,75,437s50.9,41.9,81.4,54.8c31.6,13.4,65.1,20.1,99.7,20.1s68.1-6.8,99.7-20.1c30.5-12.9,57.9-31.3,81.4-54.8s41.9-50.9,54.8-81.4c13.4-31.6,20.1-65.1,20.1-99.7S505.2,187.9,491.9,156.3L491.9,156.3z"></path>
	<path class="lexicon-icon-outline exclamation-circle-stem" d="M240,288h32l16-160h-64L240,288z"></path>
	<path class="lexicon-icon-outline exclamation-circle-dot" d="M288,352c0,17.7-14.3,32-32,32s-32-14.3-32-32s14.3-32,32-32S288,334.3,288,352z"></path>
	<path class="lexicon-icon-outline exclamation-circle-border" d="M491.9,156.3C479,125.8,460.5,98.5,437,75S386.2,33,355.7,20.1C324.1,6.8,290.5,0,256,0s-68.1,6.8-99.7,20.1C125.8,33,98.5,51.5,75,75S33,125.8,20.1,156.3C6.8,187.9,0,221.5,0,256s6.8,68.1,20.1,99.7C33,386.2,51.5,413.5,75,437s50.9,41.9,81.4,54.8c31.6,13.4,65.1,20.1,99.7,20.1s68.1-6.8,99.7-20.1c30.5-12.9,57.9-31.3,81.4-54.8s41.9-50.9,54.8-81.4c13.4-31.6,20.1-65.1,20.1-99.7S505.2,187.9,491.9,156.3L491.9,156.3z M256,448c-106,0-192-86-192-192S150,64,256,64s192,86,192,192S362,448,256,448z"></path>
</svg>