<!--
* SPDX-FileCopyrightText: © 2020 Liferay, Inc. <https://liferay.com>
* SPDX-FileCopyrightText: © 2020 Contributors to the project Clay <https://github.com/liferay/clay/graphs/contributors>
*
* SPDX-License-Identifier: BSD-3-Clause
-->
<svg  viewBox="0 0 16 16" xmlns="http://www.w3.org/2000/svg">
<path class="lexicon-icon-outline" d="M8.99895 11.5022C8.99895 12.0555 8.55174 12.5024 7.99832 12.5024C7.44602 12.5024 6.99881 12.0555 6.99881 11.5022C6.99881 10.949 7.44602 10.5021 7.99832 10.5021C8.55174 10.5021 8.99895 10.949 8.99895 11.5022Z" />
<path class="lexicon-icon-outline" d="M8 3.50244C7.44772 3.50244 7 3.95016 7 4.50244V8.50244C7 9.05473 7.44772 9.50244 8 9.50244C8.55229 9.50244 9 9.05473 9 8.50244V4.50244C9 3.95016 8.55229 3.50244 8 3.50244Z" />
<path class="lexicon-icon-outline" fill-rule="evenodd" clip-rule="evenodd" d="M15.3683 4.88973C14.9658 3.93641 14.3878 3.08312 13.6533 2.3486C12.9187 1.61408 12.0668 1.03583 11.1131 0.632625C10.1259 0.216939 9.0761 0.00439453 7.99832 0.00439453C6.92055 0.00439453 5.87073 0.216939 4.88352 0.632625C3.93096 1.03583 3.07791 1.61408 2.34337 2.3486C1.60883 3.08312 1.03082 3.93641 0.628328 4.88973C0.212424 5.87741 0 6.92762 0 8.00597C0 9.08431 0.212424 10.1345 0.628328 11.1222C1.03082 12.0755 1.60883 12.9288 2.34337 13.6633C3.07791 14.3979 3.9332 14.973 4.88687 15.3762C5.87408 15.795 6.92055 16.0044 8.00168 16.0044C9.0828 16.0044 10.1293 15.7919 11.1165 15.3762C12.069 14.973 12.9254 14.3979 13.66 13.6633C14.3934 12.9288 14.9692 12.0724 15.3717 11.1191C15.7909 10.1314 16 9.08431 16 8.00282C16 6.92137 15.7842 5.87741 15.3683 4.88973ZM7.99944 14.0071C4.68674 14.0071 2.00014 11.3191 2.00014 8.00597C2.00014 4.69281 4.68674 2.00478 7.99944 2.00478C11.311 2.00478 13.9976 4.69281 13.9976 8.00597C13.9976 11.3191 11.311 14.0071 7.99944 14.0071Z" />
</svg>
