<!--
* SPDX-FileCopyrightText: © 2020 Liferay, Inc. <https://liferay.com>
* SPDX-FileCopyrightText: © 2020 Contributors to the project Clay <https://github.com/liferay/clay/graphs/contributors>
*
* SPDX-License-Identifier: BSD-3-Clause
-->
<svg viewBox="0 0 16 16" xmlns="http://www.w3.org/2000/svg"><path d="M2 4.002V3.21l2.75 2.75c.797.796 2.016-.4 1.206-1.207l-2.75-2.75H4c1.331 0 1.331-2 0-2H1c-.488 0-1 .45-1 1v3c0 1.335 2 1.332 2 0Zm12 0V3.21l-2.75 2.75c-.797.796-2.016-.4-1.206-1.207l2.75-2.75H12c-1.331 0-1.331-2 0-2h3c.488 0 1 .45 1 1v3c0 1.335-2 1.332-2 0Zm-12 8v.794l2.75-2.75c.797-.797 2.016.4 1.206 1.206l-2.75 2.75H4c1.331 0 1.331 2 0 2H1c-.488 0-1-.45-1-1v-3c0-1.334 2-1.33 2 0Zm12 0v.794l-2.75-2.75c-.797-.797-2.016.4-1.206 1.206l2.75 2.75H12c-1.331 0-1.331 2 0 2h3c.488 0 1-.45 1-1v-3c0-1.334-2-1.33-2 0Z"/></svg>
