<!--
* SPDX-FileCopyrightText: © 2020 Liferay, Inc. <https://liferay.com>
* SPDX-FileCopyrightText: © 2020 Contributors to the project Clay <https://github.com/liferay/clay/graphs/contributors>
*
* SPDX-License-Identifier: BSD-3-Clause
-->
<svg  viewBox="0 0 16 16" xmlns="http://www.w3.org/2000/svg">
<path class="lexicon-icon-outline" d="M2 4.00244V3.20869L4.75 5.95869C5.54688 6.75557 6.76562 5.55869 5.95625 4.75244L3.20625 2.00244H4C5.33125 2.00244 5.33125 0.00244141 4 0.00244141H1C0.5125 0.00244141 0 0.452441 0 1.00244V4.00244C0 5.33682 2 5.33369 2 4.00244ZM14 4.00244V3.20869L11.25 5.95869C10.4531 6.75557 9.23438 5.55869 10.0437 4.75244L12.7937 2.00244H12C10.6687 2.00244 10.6687 0.00244141 12 0.00244141H15C15.4875 0.00244141 16 0.452441 16 1.00244V4.00244C16 5.33682 14 5.33369 14 4.00244ZM2 12.0024V12.7962L4.75 10.0462C5.54688 9.24932 6.76562 10.4462 5.95625 11.2524L3.20625 14.0024H4C5.33125 14.0024 5.33125 16.0024 4 16.0024H1C0.5125 16.0024 0 15.5524 0 15.0024V12.0024C0 10.6681 2 10.6712 2 12.0024ZM14 12.0024V12.7962L11.25 10.0462C10.4531 9.24932 9.23438 10.4462 10.0437 11.2524L12.7937 14.0024H12C10.6687 14.0024 10.6687 16.0024 12 16.0024H15C15.4875 16.0024 16 15.5524 16 15.0024V12.0024C16 10.6681 14 10.6712 14 12.0024Z" />
</svg>
