<!--
* SPDX-FileCopyrightText: © 2022 Liferay, Inc. <https://liferay.com>
* SPDX-FileCopyrightText: © 2022 Contributors to the project Clay <https://github.com/liferay/clay/graphs/contributors>
*
* SPDX-License-Identifier: BSD-3-Clause
-->
<svg viewBox="0 0 16 16" xmlns="http://www.w3.org/2000/svg"><path fill-rule="evenodd" clip-rule="evenodd" d="m5.3 2.315 2-1.997c.6-.597 1.2-.2 1.4 0l2 1.997c.8.8-.3 2.1-1.2 1.4l-.5-.5v3.797c0 1.3-2 1.3-2 0V3.215l-.5.5c-.8.697-2.1-.5-1.2-1.4ZM14 8.012v5.993H2V8.012c0-1.3-2-1.3-2 0v5.993c0 1.097.9 1.997 2 1.997h12c1.1 0 2-.9 2-1.997V8.012c0-1.4-2-1.3-2 0Zm-4 3.993H6c-1.3 0-1.3-1.997 0-1.997h4c1.3 0 1.4 1.997 0 1.997Z"/></svg>
