<!--
* SPDX-FileCopyrightText: © 2022 Liferay, Inc. <https://liferay.com>
* SPDX-FileCopyrightText: © 2022 Contributors to the project Clay <https://github.com/liferay/clay/graphs/contributors>
*
* SPDX-License-Identifier: BSD-3-Clause
-->
<svg viewBox="0 0 16 16" xmlns="http://www.w3.org/2000/svg"><path class="lexicon-icon-outline" d="m5.3 2.314 2-1.997c.6-.596 1.2-.2 1.4 0l2 1.997c.8.8-.3 2.1-1.2 1.4l-.5-.5v3.797c0 1.3-2 1.3-2 0V3.214l-.5.5c-.8.697-2.1-.5-1.2-1.4Z"/><path class="lexicon-icon-outline" d="M14 8.011v5.994H2V8.011c0-1.3-2-1.3-2 0v5.994c0 1.097.9 1.997 2 1.997h12c1.1 0 2-.9 2-1.997V8.011c0-1.4-2-1.3-2 0Z"/><path class="lexicon-icon-outline" d="M10 12.005H6c-1.3 0-1.3-1.997 0-1.997h4c1.3 0 1.4 1.997 0 1.997Z"/></svg>