<!--
* SPDX-FileCopyrightText: © 2020 Liferay, Inc. <https://liferay.com>
* SPDX-FileCopyrightText: © 2020 Contributors to the project Clay <https://github.com/liferay/clay/graphs/contributors>
*
* SPDX-License-Identifier: BSD-3-Clause
-->
<svg  viewBox="0 0 16 16" xmlns="http://www.w3.org/2000/svg">
<path class="lexicon-icon-outline" fill-rule="evenodd" clip-rule="evenodd" d="M5.30004 2.31485L7.30004 0.317975C7.90005 -0.2789 8.50005 0.117975 8.70005 0.317975L10.7001 2.31485C11.5001 3.11485 10.4001 4.41485 9.50005 3.71485L9.00005 3.21485V7.01173C9.00005 8.31173 7.00004 8.31173 7.00004 7.01173V3.21485L6.50004 3.71485C5.70004 4.41173 4.40004 3.21485 5.30004 2.31485ZM14 8.01175V14.0055H2V8.01175C2 6.71175 0 6.71175 0 8.01175V14.0055C0 15.1024 0.9 16.0024 2 16.0024H14C15.1 16.0024 16 15.1024 16 14.0055V8.01175C16 6.61175 14 6.71175 14 8.01175ZM9.9999 12.0055H5.9999C4.6999 12.0055 4.6999 10.0086 5.9999 10.0086H9.9999C11.2999 10.0086 11.3999 12.0055 9.9999 12.0055Z" />
</svg>
