<!--
* SPDX-FileCopyrightText: © 2023 Liferay, Inc. <https://liferay.com>
* SPDX-FileCopyrightText: © 2023 Contributors to the project Clay <https://github.com/liferay/clay/graphs/contributors>
*
* SPDX-License-Identifier: BSD-3-Clause
-->
<svg xmlns="http://www.w3.org/2000/svg" viewBox="0 0 512 512">
	<path class="lexicon-icon-outline lx-field-area-line" d="M416 0v32h-32v448h32v32H288v-32h32V32h-32V0h128ZM128 160h96c41.625 0 41.625 64 0 64h-96c-41.594-3.199-41.594-64 0-64Z"></path>
	<path class="lexicon-icon-outline lx-field-area-border" d="M288 384H64V128h224V64H32C12.812 64 0 76.8 0 96v320c0 19.199 12.813 32 32 32h256v-64ZM416 64h64c19.188 0 32 12.8 32 32v320c0 19.199-12.812 32-32 32h-64v-64h32V128h-32V64Z"></path>
</svg>