<!--
* SPDX-FileCopyrightText: © 2020 Liferay, Inc. <https://liferay.com>
* SPDX-FileCopyrightText: © 2020 Contributors to the project Clay <https://github.com/liferay/clay/graphs/contributors>
*
* SPDX-License-Identifier: BSD-3-Clause
-->
<svg  viewBox="0 0 16 16" xmlns="http://www.w3.org/2000/svg">
<path class="lexicon-icon-outline" d="M13 0.00244141V1.00244H12V15.0024H13V16.0024H9V15.0024H10V1.00244H9V0.00244141H13Z" />
<path class="lexicon-icon-outline" d="M4 7.00244H7C8.30078 7.00244 8.30078 9.00244 7 9.00244H4C2.7002 8.90247 2.7002 7.00244 4 7.00244Z" />
<path class="lexicon-icon-outline" d="M9 11.0024H2V5.00244H9V3.00244H1C0.400391 3.00244 0 3.40247 0 4.00244V12.0024C0 12.6024 0.400391 13.0024 1 13.0024H9V11.0024Z" />
<path class="lexicon-icon-outline" d="M13 3.00244H15C15.5996 3.00244 16 3.40247 16 4.00244V12.0024C16 12.6024 15.5996 13.0024 15 13.0024H13V11.0024H14V5.00244H13V3.00244Z" />
</svg>
