<!--
* SPDX-FileCopyrightText: © 2020 Liferay, Inc. <https://liferay.com>
* SPDX-FileCopyrightText: © 2020 Contributors to the project Clay <https://github.com/liferay/clay/graphs/contributors>
*
* SPDX-License-Identifier: BSD-3-Clause
-->
<svg viewBox="0 0 16 16" xmlns="http://www.w3.org/2000/svg"><path d="M4 2.002a1 1 0 0 0-1-1H2c-1.104 0-2 .897-2 2v10c0 1.103.896 2 2 2h1a1 1 0 1 0 0-2H2v-10h1a1 1 0 0 0 1-1Zm12 11c0 1.103-.896 2-2 2h-1a1 1 0 1 1 0-2h1v-10h-1a1 1 0 1 1 0-2h1c1.104 0 2 .897 2 2v10Z"/><path d="M4 7.002a1 1 0 1 0 0-2 1 1 0 0 0 0 2Zm3-2h5a1 1 0 1 1 0 2H7a1 1 0 1 1 0-2Zm5 4H7a1 1 0 1 0 0 2h5a1 1 0 1 0 0-2Zm-8 2a1 1 0 1 0 0-2 1 1 0 0 0 0 2Z"/></svg>
