<!--
* SPDX-FileCopyrightText: © 2020 Liferay, Inc. <https://liferay.com>
* SPDX-FileCopyrightText: © 2020 Contributors to the project Clay <https://github.com/liferay/clay/graphs/contributors>
*
* SPDX-License-Identifier: BSD-3-Clause
-->
<svg viewBox="0 0 16 16" xmlns="http://www.w3.org/2000/svg"><path d="M13 .002v1h-1v14h1v1H9v-1h1v-14H9v-1h4Zm-9 7h3c1.3 0 1.3 2 0 2H4c-1.3-.1-1.3-2 0-2Z"/><path d="M9 11.002H2v-6h7v-2H1c-.6 0-1 .4-1 1v8c0 .6.4 1 1 1h8v-2Zm4-8h2c.6 0 1 .4 1 1v8c0 .6-.4 1-1 1h-2v-2h1v-6h-1v-2Z"/></svg>
