<!--
* SPDX-FileCopyrightText: © 2023 Liferay, Inc. <https://liferay.com>
* SPDX-FileCopyrightText: © 2023 Contributors to the project Clay <https://github.com/liferay/clay/graphs/contributors>
*
* SPDX-License-Identifier: BSD-3-Clause
-->
<svg viewBox="0 0 16 16" xmlns="http://www.w3.org/2000/svg"><path fill-rule="evenodd" clip-rule="evenodd" d="M13 1.002v-1H9v1h1v14H9v1h4v-1h-1v-14h1Zm-6 4H4c-1.3 0-1.3 1.9 0 2h3c1.3 0 1.3-2 0-2Zm-5 7h7v2H1c-.6 0-1-.4-1-1v-10c0-.6.4-1 1-1h8v2H2v8Zm13-10h-2v2h1v8h-1v2h2c.6 0 1-.4 1-1v-10c0-.6-.4-1-1-1Z"/></svg>
