<!--
* SPDX-FileCopyrightText: © 2020 Liferay, Inc. <https://liferay.com>
* SPDX-FileCopyrightText: © 2020 Contributors to the project Clay <https://github.com/liferay/clay/graphs/contributors>
*
* SPDX-License-Identifier: BSD-3-Clause
-->
<svg  viewBox="0 0 16 16" xmlns="http://www.w3.org/2000/svg">
<path class="lexicon-icon-outline" d="M8.79102 6.93054L6.63086 12.7899C6.40625 13.3774 7.3125 13.7524 7.57227 13.1306L9.73145 7.27118C9.96875 6.68994 9.03125 6.28369 8.79102 6.93054Z" />
<path class="lexicon-icon-outline" d="M5 10.0024L6.12207 8.88055L5.41602 8.17432L4.29395 9.2962C3.90332 9.68683 3.90332 10.3212 4.29395 10.7118L5.41602 11.8337L6.12207 11.1274L5 10.0024Z" />
<path class="lexicon-icon-outline" d="M10 8.88055L11.1221 10.0024L10 11.1243L10.7061 11.8337L11.8281 10.7118C12.2188 10.3212 12.2188 9.68683 11.8281 9.2962L10.7061 8.17432L10 8.88055Z" />
<path class="lexicon-icon-outline" fill-rule="evenodd" clip-rule="evenodd" d="M10.1719 0.00244141H3C1.89648 0.00244141 1 0.899292 1 2.00244V14.0024C1 15.1056 1.89648 16.0024 3 16.0024H13C14.1035 16.0024 15 15.1056 15 14.0024V4.83057C15 3.95386 14.6055 3.57025 13.6416 2.63354L13.6357 2.62756C13.4502 2.44733 13.2441 2.24664 13.0156 2.01807C12.8271 1.82965 12.6582 1.65576 12.5029 1.49591L12.4141 1.40393L12.3564 1.34448C11.4502 0.406006 11.0605 0.00244141 10.1719 0.00244141ZM10 2.00244V4.00244C10 4.55554 10.4473 5.00244 11 5.00244H13V14.0024H3V2.00244H10Z" />
</svg>
