<!--
* SPDX-FileCopyrightText: © 2022 Liferay, Inc. <https://liferay.com>
* SPDX-FileCopyrightText: © 2022 Contributors to the project Clay <https://github.com/liferay/clay/graphs/contributors>
*
* SPDX-License-Identifier: BSD-3-Clause
-->
<svg viewBox="0 0 16 16" xmlns="http://www.w3.org/2000/svg"><path class="lexicon-icon-outline" d="M3 6.002v-4h7v2c0 .6.4 1 1 1h2v1h2v-1.2c0-.844-.427-1.26-1.402-2.212a64.18 64.18 0 0 1-1.02-1.015l-.101-.104-.068-.07C11.46.43 11.043.003 10.2.003H3c-1.1 0-2 .9-2 2v4h2Zm-2 8c0 1.1.9 2 2 2h10c1.1 0 2-.9 2-2H1Zm.1-6.4 1.4 2.6-1.5 2.8h1.3l.9-2 .9 2h1.4l-1.5-2.8 1.396-2.6h-1.3L3.319 9.23 2.5 7.602H1.1Zm5.1 4.7.7-.8c.4.4 2 .9 2.1 0 .04-.274-.349-.425-.836-.615-.76-.297-1.764-.688-1.764-1.785 0-1.5 2.3-2.3 3.6-.9l-.5.8c-.8-.6-1.9-.5-1.9.1 0 .315.419.46.925.634.782.27 1.775.614 1.775 1.766 0 1.8-2.2 2.3-4.1.8Zm6.7-4.7h-1.2v5.4H15v-1h-2.1v-4.4Z"/></svg>