<!--
* SPDX-FileCopyrightText: © 2020 Liferay, Inc. <https://liferay.com>
* SPDX-FileCopyrightText: © 2020 Contributors to the project Clay <https://github.com/liferay/clay/graphs/contributors>
*
* SPDX-License-Identifier: BSD-3-Clause
-->
<svg  viewBox="0 0 16 16" xmlns="http://www.w3.org/2000/svg">
<path class="lexicon-icon-outline" d="M3 6.00244V2.00244H10V4.00244C10 4.60242 10.4004 5.00244 11 5.00244H13V6.00244H15V4.80249C15 3.9585 14.5732 3.54187 13.5977 2.5907C13.417 2.41492 13.2188 2.22083 13 2.00244C12.8477 1.85071 12.708 1.70825 12.5781 1.57507L12.4766 1.47168L12.4092 1.40222C11.46 0.429077 11.043 0.00244141 10.2002 0.00244141H3C1.90039 0.00244141 1 0.902466 1 2.00244V6.00244H3Z" />
<path class="lexicon-icon-outline" d="M1 14.0024C1 15.1024 1.90039 16.0024 3 16.0024H13C14.0996 16.0024 15 15.1024 15 14.0024H1Z" />
<path class="lexicon-icon-outline" d="M1.09961 7.60242L2.5 10.2024L1 13.0024H2.2998L3.2002 11.0024L4.09961 13.0024H5.5L4 10.2024L5.39648 7.60242H4.09668L3.31836 9.23059L2.5 7.60242H1.09961Z" />
<path class="lexicon-icon-outline" d="M6.2002 12.3024L6.90039 11.5024C7.2998 11.9023 8.90039 12.4023 9 11.5024C9.03906 11.229 8.65137 11.0776 8.16406 10.8875C7.40332 10.5906 6.40039 10.1993 6.40039 9.10242C6.40039 7.60242 8.7002 6.80237 10 8.20239L9.5 9.00244C8.7002 8.40234 7.60059 8.50244 7.60059 9.10242C7.60059 9.41724 8.01855 9.56165 8.52539 9.73694C9.30664 10.007 10.2998 10.3501 10.2998 11.5024C10.2998 13.3024 8.10059 13.8024 6.2002 12.3024Z" />
<path class="lexicon-icon-outline" d="M12.9004 7.60242H11.7002V13.0024H15V12.0024H12.9004V7.60242Z" />
</svg>
