<!--
* SPDX-FileCopyrightText: © 2022 Liferay, Inc. <https://liferay.com>
* SPDX-FileCopyrightText: © 2022 Contributors to the project Clay <https://github.com/liferay/clay/graphs/contributors>
*
* SPDX-License-Identifier: BSD-3-Clause
-->
<svg viewBox="0 0 16 16" xmlns="http://www.w3.org/2000/svg"><path class="lexicon-icon-outline" fill-rule="evenodd" clip-rule="evenodd" d="M5 9.002h6a1 1 0 0 1 1 1v2a1 1 0 0 1-1 1H5a1 1 0 0 1-1-1v-2a1 1 0 0 1 1-1Zm6 3v-2H5v2h6Z"/><path class="lexicon-icon-outline" d="M5 8.002h6c1.313 0 1.313-2 0-2H5c-1.344 0-1.313 2 0 2Z"/><path class="lexicon-icon-outline" fill-rule="evenodd" clip-rule="evenodd" d="M3 .002h7.172c.888 0 1.278.404 2.184 1.342l.058.06.036.037a48.376 48.376 0 0 0 1.186 1.186l.006.006C14.605 3.57 15 3.953 15 4.83v9.172c0 1.103-.896 2-2 2H3c-1.104 0-2-.897-2-2v-12c0-1.103.896-2 2-2Zm7 4v-2H3v12h10v-9h-2a1 1 0 0 1-1-1Z"/></svg>