<!--
* SPDX-FileCopyrightText: © 2020 Liferay, Inc. <https://liferay.com>
* SPDX-FileCopyrightText: © 2020 Contributors to the project Clay <https://github.com/liferay/clay/graphs/contributors>
*
* SPDX-License-Identifier: BSD-3-Clause
-->
<svg  viewBox="0 0 16 16" xmlns="http://www.w3.org/2000/svg">
<path class="lexicon-icon-outline" fill-rule="evenodd" clip-rule="evenodd" d="M5 9.00244H11C11.5527 9.00244 12 9.44934 12 10.0024V12.0024C12 12.5555 11.5527 13.0024 11 13.0024H5C4.44727 13.0024 4 12.5555 4 12.0024V10.0024C4 9.44934 4.44727 9.00244 5 9.00244ZM11 12.0024V10.0024H5V12.0024H11Z" />
<path class="lexicon-icon-outline" d="M5 8.00244H11C12.3125 8.00244 12.3125 6.00244 11 6.00244H5C3.65625 6.00244 3.6875 8.00244 5 8.00244Z" />
<path class="lexicon-icon-outline" fill-rule="evenodd" clip-rule="evenodd" d="M3 0.00244141H10.1719C11.0605 0.00244141 11.4502 0.406006 12.3564 1.34448L12.4141 1.40393L12.4502 1.44165C12.6191 1.61621 12.8057 1.80811 13.0156 2.01807C13.2441 2.24658 13.4502 2.44739 13.6357 2.62756L13.6416 2.63354C14.6055 3.57019 15 3.95386 15 4.83057V14.0024C15 15.1056 14.1035 16.0024 13 16.0024H3C1.89648 16.0024 1 15.1056 1 14.0024V2.00244C1 0.899292 1.89648 0.00244141 3 0.00244141ZM10 4.00244V2.00244H3V14.0024H13V5.00244H11C10.4473 5.00244 10 4.55554 10 4.00244Z" />
</svg>
