<!--
* SPDX-FileCopyrightText: © 2020 Liferay, Inc. <https://liferay.com>
* SPDX-FileCopyrightText: © 2020 Contributors to the project Clay <https://github.com/liferay/clay/graphs/contributors>
*
* SPDX-License-Identifier: BSD-3-Clause
-->
<svg viewBox="0 0 16 16" xmlns="http://www.w3.org/2000/svg"><path d="m8.791 6.93-2.16 5.86c-.225.587.681.962.941.34l2.16-5.859c.237-.581-.7-.987-.941-.34ZM5 10.002 6.122 8.88l-.706-.706-1.122 1.122c-.39.39-.39 1.025 0 1.416l1.122 1.122.706-.707L5 10.002Zm5-1.122 1.122 1.122L10 11.124l.706.71 1.122-1.122c.39-.391.39-1.025 0-1.416l-1.122-1.122L10 8.88Z"/><path fill-rule="evenodd" clip-rule="evenodd" d="M10.172.002H3c-1.104 0-2 .897-2 2v12c0 1.103.896 2 2 2h10a2 2 0 0 0 2-2V4.83c0-.876-.395-1.26-1.358-2.197l-.006-.006a40.64 40.64 0 0 1-.62-.61 33.665 33.665 0 0 1-.513-.521l-.089-.092-.058-.06C11.45.406 11.06.002 10.172.002Zm-.172 2v2a1 1 0 0 0 1 1h2v9H3v-12h7Z"/></svg>
