<!--
* SPDX-FileCopyrightText: © 2020 Liferay, Inc. <https://liferay.com>
* SPDX-FileCopyrightText: © 2020 Contributors to the project Clay <https://github.com/liferay/clay/graphs/contributors>
*
* SPDX-License-Identifier: BSD-3-Clause
-->
<svg viewBox="0 0 16 16" xmlns="http://www.w3.org/2000/svg"><path d="M16 2H0v12h16V2Z" fill="#B0BEC9"/><path d="M15.5 2.5H.5v11h15v-11Z" fill="#0035A0"/><path d="M9.5 2.5h-3v11h3v-11Z" fill="#fff"/><path d="M15.5 6.5H.5v3h15v-3Z" fill="#fff"/><path d="m8 9.86 4.963 3.64H15.5v-1.86L10.537 8 15.5 4.36V2.5h-2.537L8 6.14 3.037 2.5H.5v1.86L5.463 8 .5 11.64v1.86h2.538L8 9.86Z" fill="#fff"/><path d="m8 9.24 5.81 4.26h1.69v-1.24L9.69 8l5.81-4.26V2.5h-1.69L8 6.76 2.19 2.5H.5v1.24L6.31 8 .5 12.26v1.24h1.69L8 9.24Z" fill="#E03232"/><path d="M15.5 7H9V2.5H7V7H.5v2H7v4.5h2V9h6.5V7Z" fill="#E03232"/></svg>
