<svg xmlns="http://www.w3.org/2000/svg" viewBox="0 0 512 512">
	<rect y="64" fill="#C0CFD8" width="512" height="384"></rect>
	<rect x="16" y="80" fill="#75BD4A" width="480" height="352"></rect>
	<path fill="#FFFFFF" d="M200.6,108.3c-0.4,0-1.1,0.2-2,0.8c-2,1.4-6.1,5.6-6.2,10.4c-0.1,2.7-0.6,2.7,1.2,4.5c1.3,1.9,2.6,1.7,5.2,0.3c1.5-1.1,2-1.8,2.5-3.6c0.6-3.1-3.3,1.5-3.8-2c-0.9-3.2,1.6-4.5,4-7.6C201.5,109.5,201.6,108.3,200.6,108.3L200.6,108.3z M238.6,108.5c-0.7,0.1-1.6,1-2.8,3.3c-0.9,2.4-4.7,5.9-2,13.2c2.3,4.6,3.2,12.2,2.2,20.6c-1.6,2.4-1.9,3.2-4,5.6c-2.9,3.1-6,2.3-8.4,1.2c-2.2-1.5-4-2.3-5-7.1c0.2-7.6,0.6-20.1-0.8-22.8c-2.1-4.1-5.4-2.6-6.9-1.4c-7,6.4-10.4,17.1-12.5,25.7c-1.9,6.2-4,4.4-5.4,1.9c-3.5-3.3-3.8-29.1-8-24.8c-6.8,19.4,3.9,40.7,11.3,38.6c5.3,2.2,8.7-8,10.9-19.1c1.5-3.1,2.6-3.5,3.4-1.9c-0.2,14.8,1.1,18.1,4.9,22.6c8.5,6.6,15.5,0.8,16.1,0.3c0.5-0.5,6.6-6.6,6.6-6.6c1.5-1.6,3.4-1.6,5.5-0.3c2,1.8,1.8,5,6.1,7.2c3.6,1.5,11.4,0.4,13.2-2.8c2.4-4.2,3-5.6,4.1-7.2c1.7-2.3,4.7-1.3,4.7-0.6c-0.3,1.3-2,2.6-0.8,4.9c2.1,1.6,2.5,0.6,3.8,0.2c4.3-2.1,7.6-11.4,7.6-11.4c0.2-3.5-1.8-3.2-3.1-2.5c-1.6,1-1.8,1.4-3.4,2.4c-2.1,0.3-6.2,1.7-8.2-1.4c-2.1-3.8-2.1-9-3.6-12.8c0-0.3-2.8-6-0.2-6.3c1.3,0.2,4,1,4.5-1.4c1.3-2.3-2.9-8.6-5.8-11.9c-2.5-2.8-6-3.1-9.4-0.3c-2.4,2.2-2,4.6-2.5,6.9c-0.6,2.6-0.5,5.9,2.2,9.4c2.4,4.6,6.6,10.6,5.2,19c0,0-2.5,4-6.9,3.5c-1.8-0.4-4.8-1.2-6.4-12.8c-1.2-8.8,0.3-21.2-3.4-27C240.5,110.4,239.8,108.3,238.6,108.5L238.6,108.5z M226.6,109.4c-1.1,0.1-2.4,1.4-3.4,4c-0.9,1.9-2,12.1-1.8,12.1c-0.7,3,3.2,4.3,4.9,0.4c2.6-7.1,2.6-10.1,2.8-13.2C228.7,110.4,227.7,109.3,226.6,109.4L226.6,109.4z M270.9,110.2c-1.2,0.1-2.1,0.8-2.4,2.5c-0.5,4-0.2,6.2,0.4,9.6c0.5,2.2,3.8,6,5.4,8.2c7.7,10.3,15.1,20.7,22.2,31.4c1.1,8,2,15.8,2.5,23.5c1.2,17,1.5,38.2,0.4,56.2c3.2,0.1,8.3-5.2,10.1-12.9c1.2-10.7-0.4-32.5-0.5-38.8c0-2.6-0.2-5.8-0.4-9c8.3,13.6,16.4,28,24.3,43.7c2.9-1.4,2.2-17.6,0.6-19.9c-6.3-13.6-15.1-27.1-17.9-32.2c-1-1.9-4.4-7.1-8.5-13.1c-0.8-8.6-1.6-15.8-2.1-18c-1.3-9.1,3.7,1,3-4.2c-1.6-9.1-6.6-15.2-12.5-23.5c-1.9-2.7-1.9-3.2-4.8,0.7c-1.8,4-1.7,7.3-1.2,10.4c-0.8-1.1-1.7-2.4-3.1-4.1c-5.1-4.4-5.4-4.6-9.6-8.2C275.4,111.5,272.8,110,270.9,110.2L270.9,110.2z M402.4,111.6c-0.6-0.1-1.2,0.2-1.9,1.2c-1.3,1.2-2.8,3.3-2.7,6c0.3,4.8,1.2,9.7,1.5,14.4c0.1,0.6,0.2,1.3,0.4,1.9c-0.5-0.7-1-1.2-1.2-1.4c-9.3-9.8,4.3-1.6-1.8-9.2c-5.1-5.6-6.6-7.4-11-10.8c-2.2-1.4-3.5-4.1-4.2,0.5c-0.3,4.1-0.6,8.8-0.3,12.2c0,1.9,2,5.5,3.6,7.6c6.2,7.6,12.6,15.8,18.9,24.2c1.3,17.3,1.7,33.1,3.1,50.4c-0.2,7.4-2.5,17.2-4.6,18.2c0,0-3.3,1.9-5.5-0.2c-1.6-0.6-8-10.7-8-10.7c-3.3-3-5.5-2.1-7.8,0c-6.4,6.2-9.3,17.9-13.7,25.9c-1.1,1.8-4.3,3.3-7.8-0.1c-9-12.3-3.7-29.7-4.8-25.2c-8,9-4.4,23.9-2.6,27.1c2.6,5.3,4.8,8.6,9.9,11.2c4.7,3.4,8.3,1.3,10.3-1.1c4.7-4.9,4.8-17.3,7-19.8c1.6-4.5,5.4-3.7,7.3-1.7c1.8,2.6,4,4.4,6.7,5.8c4.4,3.9,9.6,4.6,14.8,1c3.5-2,5.8-4.5,7.9-9.6c2.2-5.9,1.1-36.9,0.6-54.2c3.3,4.7,6.6,9.4,9.8,14.2c1.4,15.1,2.1,30,1.6,44.4c-0.3,2.8,9.9-8.5,9.9-13.9c0-4.7,0-9,0-12.9c5,8,9.8,16,14.4,24.2c2.8-1.5,1.9-17.5,0.1-19.7c-4.8-8-10.9-16.6-15.6-23.3c-0.9-8.4-2.2-18.4-2.8-21.4c-0.9-4.8-1.8-11.9-3.2-17.6c-0.4-2.2-1.5-9.2-1.2-9.9c0.6-1.6,2.7,0,3.7-1.8c1.6-1.7-5.4-19.6-8.9-24.7c-1.3-2.3-3.6-1.5-6.4,2.2c-2.6,2.4-1.7,8-0.7,13.4c2.6,13.6,4.9,27.4,6.8,41.2c-3.4-5.1-7.6-11.2-11.6-17.1c-0.1-0.6-0.5-2.7-0.5-2.7c0-0.2-0.6-11.1-1-13.7c-0.1-1.1-0.3-1.4,0.8-1.2c1.2,1,1.3,1,2,1.4c1.2,0.2,2.2-1.8,1.5-3.6c-3.6-6.7-7.3-13.5-10.9-20.2C403.4,112.1,402.9,111.7,402.4,111.6L402.4,111.6z M63.1,111.9c-2-0.1-4.3,1.2-3.4,3.6c-0.5,1.3,4,5.8,4.7,8.3c0.7,1.7-0.7,7.4,0.8,7.9c1.3,0.6,3.2-3.9,3.9-8c0.4-2.3,0.1-10-5.2-11.6C63.7,112,63.4,111.9,63.1,111.9L63.1,111.9z M449.6,112c-0.5,0-1,0.8-1.9,2.6c-2.1,3.4-2.8,9.4-2,14.8c5,33.6,8.7,66.2,9.4,96.1c-0.4,2.8-0.6,4.3-1.9,7.9c-2.9,3.8-6.2,8.5-9.2,10.8s-9.5,4.4-11.7,6.1c-6.7,3.9-6.8,8.4-1.3,8.5c9.4-1.1,20.5-1.9,28.1-13.4c2-3.2,4.4-12,4.6-17.4c0.7-31.5-0.4-62.2-5.1-85c-0.3-2.2-1.3-7.3-0.9-8c0.6-1.6,3.7,0.2,4.8-1.6c1.6-1.6-7.9-13.9-11.3-19.1C450.6,113,450.2,111.9,449.6,112L449.6,112z M351.2,112.5c-0.4,0.1-1,0.7-2,2c-2.6,8.6-3.5,15.6-2.5,20.9c6.7,35.1,13.6,67.1,12.5,100.6c3.2,0,6.9-7.3,8.5-14.6c0.9-10-0.6-16.1-0.8-21.9c-0.3-5.9-6.6-53.5-7.9-57.9c-1.6-8.4,6.2-1.1,5.4-6c-2.7-6.2-9.4-15.1-11.5-20.5C352,113.7,351.9,112.4,351.2,112.5L351.2,112.5z M111.6,113.2c-0.8,0.1-1.6,0.8-1.9,2c-0.2,0.7,0.3,2-0.3,2.3c-0.4,0.4-1.8,0.1-1.8-1.9c0-0.7-0.5-1.3-0.8-1.7c-0.3-0.2-0.5-0.2-1-0.2c-0.6,0-0.6,0.2-1,0.7c-0.2,0.5-0.4,1.1-0.4,1.7c-0.1,0.7-0.4,1-0.9,1.1c-0.6,0-0.4,0.1-0.9-0.2c-0.3-0.3-0.6-0.4-0.6-1s-0.1-1.4-0.3-1.8c-0.3-0.3-0.7-0.5-1.1-0.6c-2.5,0-2.7,2.9-2.5,4c-0.2,0.2-0.3,5.3,3.1,6.7c4.6,2.2,13.2,1.3,12.8-6.1c0-0.7-0.1-2.8-0.2-3.4C113.3,113.4,112.4,113,111.6,113.2L111.6,113.2z M173.1,113.2c-1.6,0.1-3,0.5-4.2,1.2c-3,2.9-3.7,7.6-1.4,10.5c2.3,1.1,4.7,3.4,3.1,4.7c-6.6,7-23.7,18.8-24.6,20.9c0,0,0,0,0,0.1c0,0,0,0,0,0.1l0,0v0.1l0,0l0,0l0,0l0,0l0,0c0.9,0.6,11.6,0.6,12.8,0l0,0l0,0l0,0c3.7-1.4,21.2-21.3,21.2-21.3c-0.9-0.8-1.7-1.3-2.6-2.1c-1-0.8-0.9-1.7,0-2.5c4.3-2.5,3-8.1,0.7-10.6C176.5,113.4,174.7,113.2,173.1,113.2L173.1,113.2z M333.8,113.3c-0.5,0-1,0.8-1.9,2.6c-2.1,3.4-3.5,9.3-3.3,14.8c4.5,31,5.9,58.1,8.8,89.1c0.2,3-0.2,7.3-2.2,9.1c-7.4,7.7-18,17.2-29.6,21.6c-1.2,1.4,3.1,7.3,8.7,7.3c9.4-1.1,17.6-6.4,25.3-20.2c2-3.2,5.6-10.2,5.7-15.5c0.7-31.5-1.6-55.9-6.3-78.7c-0.3-2.2-0.1-4.8,0.3-5.5c0.6-0.7,2.7,0,3.8-1.8c1.6-1.6-4.3-15.2-7.6-20.4C334.8,114.3,334.4,113.2,333.8,113.3L333.8,113.3z M84.9,114.2c-1.3,0.2-2.5,1.2-3.1,2.6c-0.2,5-0.2,9.9,0.3,14.5c2.3,8,3,15.1,4.1,23.3c0.3,11-6.4,4.8-6.1-0.7c1.5-7.1,1.1-18.3-0.2-21.1c-1.1-2.8-2.4-3.5-5-3.1c-2.1-0.1-7.5,5.8-9,15.5c0,0-1.3,5-1.8,9.5c-0.7,5-4.1,8.6-6.4-0.7c-2-6.8-3.3-23.4-6.6-19.5c-1,13-2.1,35.9,8.9,38.3c13.4,1.3,6-22.6,10.8-26.9c0.9-2.1,2.6-2.2,2.8,0.5v20.3c-0.1,6.6,4.2,8.5,7.6,9.9c3.5-0.3,5.8-0.2,7.2,3.2c0.5,11.7,1.1,23.4,1.7,35.1c0,0,8.1,2.3,8.5-19.7c0.4-13-2.6-23.8-0.8-26.4c0.1-2.5,3.2-2.6,5.4-1.4c3.5,2.5,5.1,5.5,10.5,4.3c8.3-2.3,13.2-6.3,13.4-12.6c-0.5-6-1.2-12.1-3.8-18.1c0.4-1.1-1.6-4-1.2-5c1.5,2.3,3.7,2.1,4.2,0c-1.4-4.6-3.6-9.1-7.1-11c-2.9-2.6-7.2-2-8.8,3.3c-0.7,6.2,2.3,13.5,6.8,19.5c1,2.3,2.3,6.2,1.7,9.7c-2.4,1.4-4.8,0.8-6.8-1.3c0,0-6.6-4.9-6.6-6c1.7-11.2,0.4-12.5-0.6-15.6c-0.7-4.3-2.7-5.6-4.4-8.6c-1.6-1.7-3.9-1.7-4.9,0c-2.9,5-1.6,15.9,0.5,20.7c1.5,4.5,3.8,7.2,2.8,7.2c-0.9,2.5-2.8,1.9-4.1-1c-1.9-6-2.3-15-2.3-19c-0.6-5-1.2-15.7-4.5-18.4C86.9,114.5,85.9,114.1,84.9,114.2L84.9,114.2z M131.8,114.3c-0.7,0.1-1.4,0.5-2.3,0.7c-2.8,0.9-5.5,3.4-4.7,8.1c3.4,20.4,5.6,36,8.9,56.4c0.5,2.4-1.5,5.6-4.1,5.2c-4.4-3-5.5-9-13-8.7c-5.4,0.1-11.6,6-12.4,11.7c-0.9,4.5-1.2,9.4,0,13.4c3.8,4.6,8.4,4.1,12.4,3.1c3.3-1.4,6-4.6,7.2-3.8l0,0l0,0c0.7,1.2-0.1,11.9-15.5,20.1c-9.5,4.3-17.1,5.3-21.1-2.5c-2.5-4.8,0.2-23.3-6-19c-18.4,47.3,43,53.9,49.9,2c0.4-1.5,1.8-2.9,2.8-2.6c0.4,0.2,0.8,0.8,0.9,1.8c-1.4,47.1-47.5,50.3-55.3,35.5c-1.9-3.5-2.5-11.3-2.7-15.9c-0.4-2.8-1.1-4.4-1.9-5.1c-1.9-1.4-4.4,2.3-4.9,8.6c-0.8,5.1-0.6,6.5-0.6,11.4c2.5,37.2,61.7,21.2,71.3-9.5c4.8-15.9-0.1-27.8,1.5-29.3c0,0,0,0,0.1,0c0,0,0,0,0.1,0c0,0,0,0,0.1,0s0.1,0,0.2,0c5.9,6.3,14.1,0.8,16-1.4c0.8-1.1,2.7-1.8,4.1-0.4c4.6,3.3,12.6,1.7,14.3-4.1c1-5.7,1.8-11.5,2-17.6c-3,0.9-5.4,1.6-6.4,2.6c-0.2,0.3-0.4,0.5-0.4,0.8c-0.3,1.7-0.5,3.4-0.8,5.1c0,0.1-0.1,0.3-0.1,0.4c-0.1,0.2-0.3,0.4-0.6,0.5c-1.1,0.6-2.9,0.2-3-1.3c-1.4-6.5-7.3-7.3-10.8,2.7c-2.4,1.9-6.8,2.3-7.2-0.6c0.6-6.7-2.1-7.6-7.6-4.5c-1.8-13.3-3.5-26-5.2-39.3c2.3-0.1,4.3,1.6,6.4-1c-2.2-7-7-21.1-9.6-22.5c0,0,0,0-0.1,0c-0.1-0.1-0.3-0.3-0.4-0.4c0,0-0.1-0.1-0.2-0.1c0,0-0.1-0.1-0.2-0.1c-0.1-0.1-0.2-0.1-0.4-0.1C132.3,114.3,132.1,114.3,131.8,114.3L131.8,114.3z M314.9,114.4c-2.4-0.1-4.9,1.4-3.9,4.4c-0.6,1.6,5,7.1,6,10c1.6,4.6-1.2,8.9,0.4,9.6c1.6,0.7,3.7-4.7,4.6-9.7c0.9-4.1-2-12.4-6-14.1C315.6,114.4,315.3,114.4,314.9,114.4L314.9,114.4z M172.3,119.4c1.1-0.1,2.4,0.9,3,2.3c0.7,1.5,0.3,2.9-0.8,3.2s-2.5-0.7-3.2-2.2s-0.3-2.9,0.8-3.2C172.1,119.5,172.2,119.4,172.3,119.4z M436.9,126.3c-2.1-0.1-4.5,1.6-3.6,4.7c-0.5,1.7,4.6,7.6,5.4,10.9c0.8,2.3-1.1,9.7,0.4,10.4c1.4,0.8,3.4-5.1,4.2-10.5c0.4-3-1.8-13.4-5.5-15.3C437.5,126.4,437.2,126.3,436.9,126.3L436.9,126.3z M290.6,129.9c0.2,0.9,0.4,1.7,0.5,2.6c0.4,1.9,0.8,3.8,1.2,5.7c-1.7-2.3-3.1-4.2-3.7-4.9C284.8,128.9,288.7,130.4,290.6,129.9L290.6,129.9z M324.3,146.5c-0.8,0.1-1.6,0.9-1.9,2c-0.2,0.7,0.4,1.9-0.3,2.3c-0.4,0.4-1.9,0.2-1.8-1.9c0-0.7-0.5-1.4-0.8-1.8c-0.3-0.2-0.5-0.2-1-0.2c-0.6,0-0.6,0.2-1,0.7c-0.1,0.5-0.4,1.1-0.4,1.7c-0.1,0.7-0.3,1-0.9,1.1c-0.6,0-0.5,0.1-1-0.2c-0.3-0.3-0.6-0.4-0.6-1s-0.1-1.4-0.3-1.8c-0.3-0.3-0.7-0.5-1.1-0.6c-2.5,0-2.7,2.8-2.5,3.9c-0.2,0.2-0.3,5.3,3.1,6.8c4.6,2.2,13.2,1.2,12.8-6.2c0-0.7-0.2-2.8-0.2-3.4C326,146.8,325.1,146.4,324.3,146.5L324.3,146.5z M170.4,148c-0.6-0.1-1.3,0.1-2.2,0.7c-4,2.2-5.6,8.7-3.1,12.5c2.4,3.3,6.1,2.1,6.6,2.1c4,0.5,6.3-7.5,6.3-7.5s0.1-2.2-4.6,2c-2,0.4-2.3-0.4-2.8-1.5c-0.4-2.1-0.3-4.2,0.6-6.2C171.8,148.9,171.4,148.1,170.4,148L170.4,148z M388,149c-2.3-0.1-4.6,1.3-5.3,4.4c0,1.8,0.8,2.8,0.7,4.5c-0.2,0.9-1.2,1.6-3.5,0.4c0.4-0.3-1.5-3-1.5-3c-1.8-1.1-4.2,0.1-5.8,1.1c-0.9,1.6-1.5,4.3-0.5,7c2.6,4.8,11.5,12.9,15.7,13c0.1-4.3,0.5-10,0.7-13.6c0.1-1.3,0.4-2.8,1.7-3.2c1.3-0.3,3.5,1.3,3.6-0.1c-0.2-2.7-0.8-6.8-2.3-8.7C390.6,149.7,389.3,149.1,388,149L388,149z M207.9,164c-0.1,0-0.1,0.1-0.2,0.1c0,0-0.1,0-0.1,0.1c-0.4,0.3-1,1.1-2.2,2c-2,2.3-2.4,3.8-2.2,8.4c0.1,0.5,3.8,10.7,6.9,17.9c2.1,7.5,4,16,2.6,24.1c-4.9,10.7-14.8,20.2-24.3,25.4c-4.8,1.6-9,1-10.2,0l0,0c-2.8-1.9-2.8-5.2-2.7-5.8l0,0l0,0c8-5.6,17.2-10.1,24.4-25.2c2.1-5.8,2.8-9.2,0.7-18.2c-0.8-3.3-1.8-6.1-4.1-8.4l0,0c1.4-0.7,4.9,2,5.5,0.3c-0.8-4.3-3.7-10-7-12.9c-2.9-2.6-6-2.9-8.6-0.5c-3,1.6-3.6,7.6-2.2,12.7c1.6,3.9,5.8,4.6,8.9,12.4l0,0c0.1,0.5,1,5.8-0.5,8c-1.2,3.9-17.2,16.4-18.3,17.2l-0.1,0.1l0,0l0,0l0,0l0,0l0,0l0,0l0,0v-0.1c0-0.3,0-1.1,0-2.4c-0.1-2.4,0.9-7.7,0.8-8.6l0,0l0,0l0,0l0,0c-5.3,3.4-7,13.8-8,16.9c-13.3,9.2-28.5,16.1-37.2,25.4c-4.5,7.1,31.3-8.1,35.5-10l0.1,0.1c0.8,0.9,0.9,3.9,3.2,6.7c3.7,5.1,11.6,8.2,19.4,6.2c12.9-4.7,20.4-13.5,28-23.3c1.1-1.6,2.8-2.8,4.4-1.6c5.2,11.7,20.2,20,39.6,20.8c4.5-5.5,2.4-8.2,0.5-9.3c-0.6-0.4-9.7-3.9-11.1-7.5c-0.9-3.3,1.3-6.2,5.6-8.4c12.5-1.5,24.7-3.2,36.6-7c0.1-4,2.5-10,4-12.5c1.1-1.8,1.8-2,2-2.2l0,0l0,0l0,0v-0.1c0-0.1,0-0.2,0-0.4l-2-1.2l-39.8-0.2c-0.5-0.2-0.9-0.4-1.1-0.6c0,0,0,0-0.1-0.1l0,0l0,0v-0.1l0,0l0,0l0,0l0,0l0,0l0,0l0,0l0,0l0,0l0,0l0,0l0,0c0,0,0,0,0-0.1c0.2-0.3,0.7-0.5,1.2-0.7c9.5-1.3,26.4-4.1,27.5-20.3c-0.2-8.5-3.6-14-14-15.5c-7.6,0.6-13.1,8-12.2,16.1c-0.4,2.2,0.7,6.5-1.5,7c-14.6,1.3-30.6,10.5-31.1,17.1l0,0l0,0c0,0,0,0-0.1,0h-0.1h-0.1l0,0h-0.1l0,0H224h-0.1c-0.9-0.3-2.2-1.8-2-4c-0.6-11.3-4.2-24.2-10-34c-2.1-2.1-3-2.9-3.6-3c0,0,0,0-0.1,0C208.1,164,208,164,207.9,164L207.9,164L207.9,164L207.9,164L207.9,164z M246,170c-0.8,0.1-1.6,0.8-1.9,2c-0.2,0.7,0.4,2-0.3,2.3c-0.4,0.4-1.9,0.2-1.8-1.9c0-0.7-0.5-1.4-0.8-1.8c-0.3-0.2-0.4-0.2-1-0.2s-0.7,0.2-1,0.7c-0.1,0.5-0.4,1.1-0.4,1.7c-0.1,0.7-0.3,1-0.9,1.1c-0.6,0-0.4,0.1-0.9-0.2c-0.3-0.3-0.7-0.4-0.7-1s-0.1-1.4-0.3-1.8c-0.3-0.3-0.7-0.5-1.2-0.6c-2.5,0-2.7,2.8-2.5,3.9c-0.2,0.2-0.3,5.3,3.1,6.8c4.6,2.2,15.5,0.9,12.8-6.2c0-0.7-0.2-2.8-0.2-3.4C247.7,170.3,246.8,169.9,246,170L246,170z M399.7,176.3c-0.1,0-0.2,0-0.4,0c0,0-21.2,15.1-21.8,15.6c-2.1,1.9-1.1,8.4,0,7.7c1.5,0.6,22.9-13.9,22.5-15.6C401,184.1,401.4,176.6,399.7,176.3L399.7,176.3z M266,178.6c0.9-0.1,2,0.2,3.1,0.8c1.6,0.9,2.6,2.3,2.4,3.3v0.1l-0.1,0.1v0.1c0,0,0,0,0,0.1c0,0,0,0,0,0.1s-0.1,0.2-0.2,0.2c-0.8,0.7-2.5,0.6-4.2-0.4c-1.6-0.9-2.5-2.3-2.4-3.3v-0.1c0-0.1,0.1-0.2,0.1-0.4c0,0,0-0.1,0.1-0.1l0,0c0,0,0.1-0.1,0.2-0.2C265.3,178.8,265.6,178.6,266,178.6L266,178.6z M80.1,182.4c-11,0.2-27.1,14.4-27.6,22.3c11.6-5.6,23-10.9,34.8-16.7C85.4,185.2,87.2,182.6,80.1,182.4L80.1,182.4z M115.7,187.3c1.1,0,2.2,0.5,2.8,2c0.5,1.4,0,2.8-0.6,3.6l0,0v0.1c-0.5,0.6-2.1,0.4-3.2,0.4c-1.4-0.1-2.1-0.3-2.9-1.4c-0.4-1.3,0.8-2.5,1.4-3.5l0,0c0.1-0.1,0.2-0.2,0.2-0.3c0.4-0.4,1.1-0.7,1.9-0.8C115.4,187.4,115.6,187.3,115.7,187.3L115.7,187.3z M395.6,191.7c-2,0.2-3.8,2.1-3,5.1c-0.5,1.7,2.7,7.8,3.5,11c0.8,2.3-1,8.8,0.6,9.5c1.4,0.8,5.2-3.9,5.1-9.6c0.4-3-1.1-14-4.8-15.8C396.5,191.7,396,191.7,395.6,191.7L395.6,191.7z M157.9,202.4c-1.7,0.1-3.3,1-2.6,3.5c-0.1,1.8,4.9,3.9,5.2,8c0.7,1.7-1.1,7.1,0.4,7.6c1.4,0.6,3.2-3.7,4-7.7c0.4-2.2-1.7-9.8-5.3-11.2C159.1,202.5,158.5,202.4,157.9,202.4L157.9,202.4z M229,212.2c0.1,0,0.2,0,0.4,0c0,0,0,0,0.1,0c4.4,1.2,11,1.3,16.6,1.9c4.6,0.3,6.9,3.9,2.6,5.4c-4.3,1.5-8.4,2.6-8.4,8.8c0.6,3.1,0.4,4.7,0,5.4c0,0-0.1,0.1-0.1,0.2l0,0l0,0l0,0l0,0h-0.1c-0.1,0-0.1,0.1-0.2,0.1c-0.1,0-0.1,0-0.2,0c-1,0.1-2.5-0.8-3.6-1.4c-2.6-1.9-10-6.5-11.1-16.3C224.7,214.3,226.4,212.3,229,212.2L229,212.2z M55.3,219.7c-0.3,0-0.8,0.8-1.6,1.8c-6.5,10.4-7.1,26-3.5,30.6c1.9,2.2,5.1,3.2,7.4,2.5c4.1-1.8,5.9-10.1,4.9-13.2c-1.4-2.1-2.5-2.5-3.8-0.7c-2.9,5.9-4.1,1.9-4.4-1.4c-0.4-6.2,0.2-12,0.8-16.5C55.6,220.5,55.6,219.7,55.3,219.7L55.3,219.7z M278.3,233.4c-0.5,0-1,0-1.5,0.3c-0.1,0-4.7,3.1-6.2,5.3c-0.9,0.7-0.8,1.3-0.5,2.5c0.7,1.6,1.9,1.1,3.3,0.4c1.9-0.3,2.8,1,2.6,3.2c-0.9,2.8,0.4,3.8,0.4,4s1.8,1.7,3.9,0.5c4.4-1.7,7.2-3.3,13.4-4.7c1.6,0,1.5-4.4-1-4.6c-3.4,0.2-6.5,0.3-9.9,3c-2.1,0.5-2.4-0.8-2.9-1.9c-0.5-2.8,1.2-4.8,0.8-6.9C280.9,234.5,279.8,233.5,278.3,233.4L278.3,233.4z M421.1,238.7c-0.8,0-1.7,0.1-3,0.2c-1.4,0.3-1.8,0.9-2.1,2.5c0.1,2.5,1.6,2.4,3.2,3.4c0.9,1.2,1.5,2.2-0.1,4.1c-1.5,1.4-2.5,2.1-4,3.5c-0.7,1.2-1.1,3,1,3.6c4,1.1,13.2-4.8,13.2-5c1.5-1.1,1-3.2,0.9-3.2c-0.9-1-2.8-0.4-4.1-0.6c-0.6,0-2.7-0.3-1.7-2.1c0.8-1.1,1.1-1.8,1.7-3.2s0.1-2.3-2.2-3C422.7,238.8,421.9,238.7,421.1,238.7L421.1,238.7z M361.4,359.5L361.4,359.5c-6.6,1.7-6.4,8.6-2.2,11.6c-69.7,0-176.8-1.2-199.7-1.2c-12.8,0-53.5-1.5-54.2-1.5c8.7,12.7,21.3,15.3,37.8,15.6c31,0,174.5-0.4,215.3-0.4c-2.9,5.2,0.3,13.5,2.5,15c0,0,0.1,0.1,0.2,0.1s0.2,0.1,0.3,0.1h0.1c2.7,0.6,3.9-1.3,4.8-2.8c4.4,0.4,29.1,0.8,31.3,0l0,0c1.5,2.3,3,4.4,6,4c5.1-1.1,9.1-1.6,9.2-12c0,0-0.5-17.6-12.1-16.5c-2.7,0.4-10.4,1.2-10.4,1.2c-8.9-1.1-15.4-1.2-25.4-1.5c0.9-1.2,2.5-5.9,0.6-7.6c-0.5-0.4-1.3-0.7-2.4-0.6l0,0c0,0,0,0-0.1,0l0,0h-0.1c0,0-0.1-0.1-0.2-0.2c0,0-0.1,0-0.1-0.1c-0.5-0.7-0.8-2.5-1.1-3l0,0l0,0C361.6,359.5,361.5,359.5,361.4,359.5C361.5,359.5,361.5,359.5,361.4,359.5C361.5,359.5,361.4,359.5,361.4,359.5L361.4,359.5z M366.2,384.7L366.2,384.7c10.2,0.5,19.8,0.1,29.9,0.6c1.6,1.4,0.8,4.5-0.2,5.1c0,0-0.1,0.1-0.2,0.1h-0.1h-0.1c-3.3-0.1-5.2-0.2-8.5-0.2c0-0.2,0-0.3-0.1-0.5c-0.8-2.3-6.5-2.2-7.8-0.4c0,0,0,0.1-0.1,0.1s0,0.1-0.1,0.1s0,0.1-0.1,0.2c0,0.1,0,0.2,0,0.2c0,0.1,0,0.2,0,0.3c-4.5,0.5-8.5-0.1-12.9-0.3C364.5,388.3,364.6,385.4,366.2,384.7L366.2,384.7z"></path>
</svg>
