<!--
* SPDX-FileCopyrightText: © 2020 Liferay, Inc. <https://liferay.com>
* SPDX-FileCopyrightText: © 2020 Contributors to the project Clay <https://github.com/liferay/clay/graphs/contributors>
*
* SPDX-License-Identifier: BSD-3-Clause
-->
<svg width="16" height="16" viewBox="0 0 16 16" fill="none" xmlns="http://www.w3.org/2000/svg">
<path d="M16 2H0V14H16V2Z" fill="#C0CFD8"/>
<path d="M15.5 2.5H0.5V13.5H15.5V2.5Z" fill="#E03232"/>
<path d="M4.77187 7.45937L3.52187 6.54063L2.3 7.5L2.75 5.97188L1.5 5.05312L3.02813 5.02812L3.47813 3.5L3.97187 5.0125L5.5 4.9875L4.27812 5.94688L4.77187 7.45937Z" fill="#FCD638"/>
<path d="M7.39377 4.8187L7.08127 4.37808L6.5719 4.55933L6.89065 4.1062L6.57815 3.66558L7.0844 3.82495L7.40315 3.37183L7.3969 3.92495L7.90315 4.08433L7.3969 4.26558L7.39377 4.8187Z" fill="#FFDD00"/>
<path d="M8.61248 6.3688L8.63123 5.82817L8.1156 5.6688L8.6406 5.49692L8.65623 4.9563L8.9656 5.38755L9.4906 5.21567L9.15623 5.6563L9.4656 6.08755L8.94998 5.92817L8.61248 6.3688Z" fill="#FFDD00"/>
<path d="M8.34373 8.65315L8.50623 8.13752L8.0531 7.84377L8.60623 7.81877L8.7656 7.30627L8.94685 7.80315L9.49998 7.78127L9.05935 8.11252L9.23748 8.61252L8.78435 8.31877L8.34373 8.65315Z" fill="#FFDD00"/>
<path d="M6.49689 9.97498L6.86876 9.58747L6.59689 9.12185L7.10001 9.34685L7.47501 8.95935L7.41251 9.48748L7.91876 9.71247L7.37501 9.81248L7.31564 10.3406L7.04064 9.87498L6.49689 9.97498Z" fill="#FFDD00"/>
</svg>
