<!--
* SPDX-FileCopyrightText: © 2020 Liferay, Inc. <https://liferay.com>
* SPDX-FileCopyrightText: © 2020 Contributors to the project Clay <https://github.com/liferay/clay/graphs/contributors>
*
* SPDX-License-Identifier: BSD-3-Clause
-->
<svg viewBox="0 0 16 16" xmlns="http://www.w3.org/2000/svg"><path d="M16 2H0v12h16V2Z" fill="#B0BEC9"/><path d="M15.5 2.51H.5v3.5h15v-3.5Z" fill="#0094CE"/><path d="M15.5 10H.5v3.5h15V10Z" fill="#fff"/><path d="M15.5 6H.5v4h15V6Z" fill="#4C4C4E"/><path d="M16 2H0v12h16V2Z" fill="#B0BEC9"/><path d="M15.5 2.5H.5v11h15v-11Z" fill="#E03232"/><path d="m8 9.24 5.81 4.26h1.69v-1.24L9.69 8l5.81-4.26V2.5h-1.69L8 6.76 2.19 2.5H.5v1.24L6.31 8 .5 12.26v1.24h1.69L8 9.24Z" fill="#75BD4A"/><path d="M15.5 7H9V2.5H7V7H.5v2H7v4.5h2V9h6.5V7Z" fill="#fff"/></svg>
