<!--
* SPDX-FileCopyrightText: © 2020 Liferay, Inc. <https://liferay.com>
* SPDX-FileCopyrightText: © 2020 Contributors to the project Clay <https://github.com/liferay/clay/graphs/contributors>
*
* SPDX-License-Identifier: BSD-3-Clause
-->
<svg viewBox="0 0 16 16" xmlns="http://www.w3.org/2000/svg"><path d="M16 2H0v12h16V2Z" fill="#C0CFD8"/><path d="M15.5 2.5H.5v11h15v-11Z" fill="#75BD4A"/><path d="M6.269 3.384a.125.125 0 0 0-.063.025c-.062.044-.19.175-.193.325-.004.085-.02.085.037.141.04.06.081.053.163.01a.171.171 0 0 0 .078-.113c.018-.097-.103.047-.119-.063-.028-.1.05-.14.125-.237 0-.05.003-.088-.028-.088Zm1.187.007c-.022.003-.05.03-.087.103-.028.075-.147.184-.063.412.072.144.1.382.07.644-.05.075-.06.1-.126.175-.09.097-.187.072-.262.038-.07-.047-.125-.072-.157-.222.007-.238.02-.628-.025-.713-.065-.128-.168-.081-.215-.044-.219.2-.325.535-.39.804-.06.193-.126.137-.17.059-.109-.103-.118-.91-.25-.775-.212.606.122 1.272.353 1.206.166.069.272-.25.341-.597.047-.097.081-.11.106-.06-.006.463.035.567.153.707a.387.387 0 0 0 .504.01l.206-.207c.047-.05.106-.05.172-.01.062.057.056.157.19.226.113.047.357.012.413-.088.075-.13.094-.175.128-.225.053-.071.147-.04.147-.018-.01.04-.063.08-.025.153.065.05.078.019.119.006.134-.066.237-.356.237-.356.006-.11-.056-.1-.097-.078-.05.03-.056.043-.106.075-.066.009-.194.053-.256-.044-.066-.119-.066-.281-.113-.4 0-.01-.087-.188-.006-.197.04.006.125.031.14-.044.041-.072-.09-.268-.18-.372-.079-.087-.188-.096-.294-.009-.075.069-.063.144-.079.216a.336.336 0 0 0 .07.293c.074.144.205.332.162.594 0 0-.078.125-.216.11-.056-.013-.15-.038-.2-.4-.037-.275.01-.663-.106-.844-.028-.069-.05-.135-.088-.128Zm-.375.028c-.034.003-.075.044-.106.125-.028.06-.062.378-.056.378-.022.094.1.134.153.012.081-.221.081-.315.087-.412-.012-.072-.043-.106-.078-.103Zm1.385.025c-.038.003-.066.025-.075.078a.86.86 0 0 0 .012.3c.016.069.119.187.169.256.24.322.472.647.694.981.034.25.062.494.078.735.037.531.047 1.194.012 1.756.1.003.26-.162.316-.403.037-.334-.013-1.016-.016-1.213a4.87 4.87 0 0 0-.012-.28c.26.424.512.874.76 1.365.09-.044.068-.55.018-.622-.197-.425-.472-.847-.56-1.006a6.468 6.468 0 0 0-.265-.41 7.178 7.178 0 0 0-.066-.562c-.04-.285.116.031.094-.131-.05-.285-.206-.475-.39-.735-.06-.084-.06-.1-.15.022a.533.533 0 0 0-.038.325c-.025-.034-.053-.075-.097-.128-.16-.138-.169-.144-.3-.256-.044-.032-.125-.078-.184-.072Zm4.11.044c-.02-.004-.038.006-.06.037a.248.248 0 0 0-.085.188c.01.15.038.303.047.45.003.018.007.04.013.059a.337.337 0 0 0-.038-.044c-.29-.306.135-.05-.056-.287-.16-.175-.206-.232-.344-.338-.069-.044-.11-.128-.131.016-.01.128-.019.275-.01.381 0 .06.063.172.113.238.194.237.394.493.59.756.041.54.054 1.034.098 1.575-.007.231-.079.537-.144.569 0 0-.103.059-.172-.007-.05-.018-.25-.334-.25-.334-.103-.094-.172-.066-.244 0-.2.194-.29.56-.428.81-.034.056-.134.102-.244-.004-.28-.384-.115-.928-.15-.787-.25.28-.137.747-.08.847.08.165.15.268.309.35.146.106.259.04.321-.035.147-.153.15-.54.22-.619.05-.14.168-.115.227-.053a.556.556 0 0 0 .21.182c.137.121.3.143.462.03a.542.542 0 0 0 .247-.3c.069-.184.034-1.152.019-1.693.103.147.206.294.306.444.044.472.066.937.05 1.387-.01.088.31-.265.31-.434v-.403c.156.25.306.5.45.756.087-.047.059-.547.002-.616-.15-.25-.34-.518-.487-.728a11.732 11.732 0 0 0-.088-.668c-.028-.15-.056-.372-.1-.55a1.986 1.986 0 0 1-.037-.31c.019-.05.084 0 .116-.056.05-.053-.17-.613-.279-.772-.04-.072-.112-.047-.2.069-.08.075-.053.25-.021.419.08.425.153.856.212 1.287-.106-.16-.237-.35-.362-.534l-.016-.085c0-.006-.019-.347-.031-.428-.003-.034-.01-.044.025-.037.037.03.04.03.062.043.038.007.069-.056.047-.112-.112-.21-.228-.422-.34-.631-.029-.013-.044-.025-.06-.028Zm-10.604.009c-.063-.003-.134.037-.106.112-.016.041.125.182.147.26.021.053-.022.231.025.247.04.018.1-.122.121-.25.013-.072.004-.313-.162-.363a.059.059 0 0 0-.025-.006ZM14.05 3.5c-.016 0-.031.025-.06.081-.065.107-.087.294-.062.463.156 1.05.272 2.069.294 3.003a.972.972 0 0 1-.06.247c-.09.119-.193.265-.287.337-.094.072-.297.138-.366.19-.209.123-.212.263-.04.267.294-.035.64-.06.878-.42.063-.1.138-.374.144-.543.022-.984-.013-1.944-.16-2.656-.009-.069-.04-.228-.028-.25.019-.05.116.006.15-.05.05-.05-.247-.435-.353-.597-.019-.04-.031-.075-.05-.072Zm-3.075.016c-.012.003-.031.022-.062.062-.082.269-.11.488-.079.653.21 1.097.425 2.097.391 3.144.1 0 .216-.228.266-.456.028-.313-.019-.503-.025-.685-.01-.184-.207-1.671-.247-1.809-.05-.262.194-.034.169-.187-.085-.194-.294-.472-.36-.641-.028-.044-.031-.084-.053-.081Zm-7.487.022c-.025.003-.05.025-.06.062-.006.022.01.063-.01.072-.012.012-.055.003-.055-.06 0-.021-.016-.04-.025-.053-.01-.006-.016-.006-.032-.006-.018 0-.018.006-.03.022a.147.147 0 0 0-.013.053c-.004.022-.013.031-.029.035-.018 0-.012.003-.028-.007-.009-.01-.018-.012-.018-.031a.151.151 0 0 0-.01-.056.075.075 0 0 0-.034-.019c-.078 0-.085.09-.078.125-.007.006-.01.166.097.21.143.068.412.04.4-.191 0-.022-.004-.088-.007-.106-.015-.044-.043-.057-.068-.05Zm1.921 0a.293.293 0 0 0-.13.037c-.095.09-.116.238-.045.328.072.035.147.106.097.147-.206.219-.74.588-.768.653v.01c.028.018.362.018.4 0 .115-.044.662-.666.662-.666-.028-.025-.053-.04-.081-.066-.031-.025-.028-.053 0-.078.134-.078.094-.253.022-.331a.315.315 0 0 0-.157-.034Zm5.022.003c-.015 0-.03.025-.059.08a.897.897 0 0 0-.103.463c.14.97.184 1.816.275 2.785.006.094-.006.228-.069.284-.231.24-.562.538-.925.675-.037.044.097.228.272.228.294-.034.55-.2.79-.631.063-.1.176-.319.179-.484.022-.985-.05-1.747-.197-2.46a.395.395 0 0 1 .01-.172c.018-.021.084 0 .118-.056.05-.05-.134-.475-.237-.637-.022-.044-.035-.078-.054-.075Zm-7.778.028a.132.132 0 0 0-.097.081c-.006.156-.006.31.01.453.072.25.093.472.128.728.01.344-.2.15-.19-.022.046-.221.034-.571-.007-.659-.034-.087-.075-.11-.156-.097-.066-.003-.235.181-.282.485 0 0-.04.156-.056.296-.022.157-.128.27-.2-.021-.062-.213-.103-.732-.206-.61-.031.406-.066 1.122.278 1.197.419.04.188-.706.338-.84.028-.066.08-.07.087.015v.634c-.003.207.131.266.238.31.109-.01.18-.006.225.1.015.365.034.731.053 1.097 0 0 .253.072.265-.616.013-.406-.08-.744-.025-.825.003-.078.1-.081.17-.044.108.078.158.172.327.135.26-.072.413-.197.419-.394a1.745 1.745 0 0 0-.119-.566c.013-.034-.05-.125-.037-.156.047.072.115.066.131 0-.044-.144-.113-.284-.222-.344-.09-.081-.225-.062-.275.103-.022.194.072.422.213.61a.574.574 0 0 1 .053.303c-.075.044-.15.025-.213-.04 0 0-.206-.154-.206-.188.053-.35.012-.39-.019-.488-.022-.134-.084-.175-.137-.268-.05-.054-.122-.054-.153 0-.091.156-.05.496.015.646.047.141.119.225.088.225-.028.079-.088.06-.128-.03a2.31 2.31 0 0 1-.072-.595c-.019-.156-.038-.49-.14-.575-.035-.03-.067-.043-.098-.04Zm1.466.003c-.022.003-.044.016-.072.022-.088.028-.172.106-.147.253.106.637.175 1.125.278 1.762.016.075-.047.175-.128.163-.137-.094-.172-.281-.406-.272-.169.003-.363.188-.388.366a.902.902 0 0 0 0 .418c.12.144.263.129.388.097.103-.043.187-.143.225-.118.022.037-.003.371-.485.628-.296.134-.534.165-.659-.078-.078-.15.006-.729-.187-.594-.575 1.478 1.343 1.684 1.559.062.012-.047.056-.09.087-.081.013.006.025.025.029.056-.044 1.472-1.485 1.572-1.729 1.11-.059-.11-.078-.353-.084-.497-.012-.088-.034-.138-.06-.16-.059-.043-.137.072-.152.27-.025.159-.02.202-.02.355.079 1.163 1.929.663 2.229-.296.15-.497-.003-.87.047-.916h.015c.185.197.441.025.5-.044.025-.034.085-.056.129-.012.143.103.393.053.446-.128.032-.179.057-.36.063-.55-.094.028-.169.05-.2.08-.006.01-.013.016-.013.026-.009.053-.015.106-.025.16l-.003.012a.032.032 0 0 1-.018.015c-.035.019-.091.007-.094-.04-.044-.203-.228-.228-.338.084-.075.06-.212.072-.225-.019.02-.21-.065-.237-.237-.14-.056-.416-.11-.813-.163-1.228.072-.004.135.05.2-.032-.068-.218-.218-.66-.3-.703h-.003a7.366 7.366 0 0 0-.012-.012s-.003-.003-.007-.003c0 0-.003-.004-.006-.004-.003-.003-.006-.003-.012-.003-.007-.01-.013-.01-.022-.01Zm5.722.003c-.075-.003-.153.044-.122.138-.019.05.156.221.187.312.05.144-.037.278.013.3.05.022.115-.147.144-.303.028-.128-.063-.388-.188-.44-.012-.007-.022-.007-.034-.007Zm-4.457.156c.035-.003.075.028.094.072.022.047.01.09-.025.1-.034.01-.078-.022-.1-.069-.022-.046-.01-.09.025-.1 0 0 .003-.003.006-.003Zm8.27.216c-.066-.003-.141.05-.113.147-.016.053.143.237.168.34.026.072-.034.304.013.325.044.025.106-.159.131-.328.013-.093-.056-.418-.172-.478a.09.09 0 0 0-.028-.006Zm-4.573.112a.624.624 0 0 1 .016.082l.037.178c-.053-.072-.096-.131-.115-.153-.119-.138.003-.091.062-.107Zm1.053.52c-.024.002-.05.027-.059.062-.006.022.013.059-.01.072-.012.012-.059.006-.056-.06 0-.022-.015-.044-.025-.056-.009-.006-.015-.006-.03-.006-.02 0-.02.006-.032.022-.003.015-.013.034-.013.053-.003.022-.009.03-.028.034-.018 0-.015.003-.03-.006-.01-.01-.02-.013-.02-.031a.151.151 0 0 0-.009-.057.075.075 0 0 0-.034-.018c-.079 0-.085.087-.079.121-.006.007-.009.166.097.213.144.069.413.037.4-.194 0-.022-.006-.087-.006-.106-.012-.034-.04-.047-.066-.044Zm-4.809.046c-.019-.003-.04.003-.069.022-.125.069-.175.272-.097.39.075.104.191.066.207.066.125.016.197-.234.197-.234s.003-.069-.144.062c-.063.013-.072-.012-.088-.047a.318.318 0 0 1 .02-.193c.018-.038.005-.063-.026-.066Zm6.8.031c-.072-.003-.144.04-.165.138 0 .056.024.087.021.14-.006.029-.037.05-.109.013.012-.01-.047-.094-.047-.094-.056-.034-.131.003-.181.035a.27.27 0 0 0-.016.218c.082.15.36.403.49.407.004-.135.016-.313.023-.425.003-.041.012-.088.053-.1.04-.01.11.04.112-.004-.006-.084-.025-.212-.071-.271a.157.157 0 0 0-.11-.057Zm-5.628.469c-.003 0-.003.003-.006.003 0 0-.003 0-.003.003-.013.01-.032.035-.07.063-.062.072-.074.119-.068.262.003.016.119.335.216.56.065.234.125.5.081.753a1.847 1.847 0 0 1-.76.794c-.15.05-.28.03-.318 0a.203.203 0 0 1-.085-.182c.25-.175.538-.315.763-.787.066-.181.087-.288.022-.569a.52.52 0 0 0-.128-.262c.043-.022.153.062.172.009a.8.8 0 0 0-.22-.403c-.09-.081-.187-.09-.268-.016-.094.05-.112.238-.069.397.05.122.182.144.278.388.004.015.032.18-.015.25-.038.121-.538.512-.572.537l-.003.003V6.85c-.003-.075.028-.24.025-.269-.166.107-.219.432-.25.528-.416.288-.89.504-1.163.794-.14.222.978-.253 1.11-.312l.003.003c.025.028.028.122.1.21.115.159.362.255.606.193.403-.147.638-.422.875-.728.034-.05.088-.088.138-.05.162.365.63.625 1.237.65.14-.172.075-.256.016-.29-.019-.013-.303-.123-.347-.235-.028-.103.04-.194.175-.263.39-.047.772-.1 1.144-.218a1.01 1.01 0 0 1 .125-.391c.034-.056.056-.063.062-.069v-.015l-.062-.038-1.244-.006a.112.112 0 0 1-.035-.019l-.003-.003v-.006c.007-.01.022-.016.038-.022.297-.04.825-.128.86-.635-.007-.265-.113-.437-.438-.484-.238.019-.41.25-.382.503-.012.069.022.203-.046.219-.457.04-.957.328-.972.534h-.019c-.028-.01-.069-.056-.063-.125a2.45 2.45 0 0 0-.312-1.062c-.066-.066-.094-.09-.113-.094h-.003c-.003-.025-.006-.025-.009-.025Zm1.19.188c-.024.003-.05.025-.059.062-.006.022.013.063-.01.072-.012.012-.059.006-.055-.06 0-.021-.016-.043-.025-.056-.01-.006-.013-.006-.032-.006-.018 0-.022.006-.03.022-.004.016-.013.034-.013.053-.004.022-.01.031-.029.034-.018 0-.012.004-.028-.006-.009-.01-.022-.012-.022-.031a.151.151 0 0 0-.009-.056.071.071 0 0 0-.037-.02c-.079 0-.085.088-.079.123-.006.006-.009.165.097.212.144.069.485.028.4-.193 0-.022-.006-.088-.006-.107a.056.056 0 0 0-.062-.043Zm4.804.196h-.013s-.662.472-.681.488c-.066.06-.034.262 0 .24.047.02.716-.434.703-.487.031.003.044-.231-.01-.24Zm-4.178.072a.173.173 0 0 1 .096.025c.05.028.082.072.075.103v.004l-.003.003v.009a.007.007 0 0 1-.006.006c-.025.022-.078.019-.131-.012-.05-.028-.078-.072-.075-.103v-.003c0-.004.003-.007.003-.013 0 0 0-.003.003-.003l.006-.006c.01-.003.02-.01.032-.01Zm-5.81.119c-.344.006-.847.45-.862.697.362-.175.718-.34 1.087-.522-.06-.087-.003-.169-.225-.175Zm1.113.153c.034 0 .068.016.087.063a.123.123 0 0 1-.019.112v.003c-.015.019-.065.013-.1.013-.043-.003-.065-.01-.09-.044-.013-.04.025-.078.044-.11.003-.002.006-.006.006-.009a.104.104 0 0 1 .06-.025l.012-.003Zm8.747.138c-.063.006-.12.065-.094.159-.016.053.084.244.11.344.024.072-.032.275.018.297.044.025.162-.122.16-.3.012-.094-.035-.438-.15-.494-.016-.006-.032-.006-.044-.006Zm-7.429.334c-.053.003-.103.031-.08.11-.004.056.152.121.162.25.022.053-.035.221.012.237.044.019.1-.116.125-.24.013-.07-.053-.307-.165-.35a.276.276 0 0 0-.054-.007Zm2.222.306h.016c.137.038.344.04.519.06.143.009.215.122.081.168-.134.047-.263.082-.263.275.02.097.013.147 0 .17 0 0-.003.002-.003.005h-.003c-.003 0-.003.004-.006.004h-.006c-.032.003-.078-.025-.113-.044-.081-.06-.312-.203-.347-.51-.009-.062.044-.125.125-.128Zm-5.428.235c-.01 0-.025.025-.05.056-.203.325-.222.812-.11.956.06.069.16.1.232.078.128-.056.184-.315.153-.412-.044-.066-.078-.078-.119-.022-.09.184-.128.06-.137-.044a2.621 2.621 0 0 1 .025-.515c.016-.072.016-.097.006-.097Zm6.969.428a.08.08 0 0 0-.047.01.866.866 0 0 0-.194.165c-.028.022-.025.04-.015.078.022.05.06.034.103.012.06-.009.087.032.081.1-.028.088.013.12.013.125 0 .007.056.054.121.016.138-.053.225-.103.42-.147.05 0 .046-.137-.032-.144-.106.007-.203.01-.31.094-.065.016-.074-.025-.09-.06-.016-.087.037-.15.025-.215.006 0-.028-.031-.075-.034Zm4.463.165c-.026 0-.054.004-.094.007-.044.009-.057.028-.066.078.003.078.05.075.1.106.028.038.047.069-.003.128-.047.044-.078.066-.125.11-.022.037-.034.093.031.112.125.034.413-.15.413-.156.047-.035.031-.1.028-.1-.028-.031-.088-.013-.128-.019-.019 0-.085-.01-.053-.066a.43.43 0 0 0 .053-.1c.018-.043.003-.071-.069-.093-.037-.003-.063-.007-.088-.007Zm-1.866 3.775c-.206.053-.2.27-.069.363-2.178 0-5.525-.038-6.24-.038-.4 0-1.672-.046-1.694-.046.272.396.665.478 1.181.487.969 0 5.453-.012 6.728-.012-.09.162.01.421.078.468 0 0 .003.003.006.003.004 0 .007.004.01.004h.003c.084.018.122-.041.15-.088.138.012.91.025.978 0 .047.072.094.137.188.125.159-.034.284-.05.287-.375 0 0-.016-.55-.378-.516-.084.013-.325.038-.325.038-.278-.034-.481-.038-.794-.047.028-.037.078-.184.019-.237a.103.103 0 0 0-.075-.02h-.006l-.006-.005s-.004 0-.004-.004c-.015-.021-.025-.078-.034-.093.003-.007 0-.007-.003-.007.003 0 .003 0 0 0Zm.15.788c.319.015.619.003.934.019.05.043.025.14-.006.159 0 0-.003.003-.006.003h-.006c-.104-.003-.163-.006-.266-.006 0-.006 0-.01-.003-.016-.025-.072-.203-.068-.244-.012 0 0 0 .003-.003.003s0 .003-.003.003 0 .003-.003.006v.016c-.141.016-.266-.003-.403-.01-.044-.053-.041-.143.009-.165Z" fill="#fff"/></svg>

