<!--
* SPDX-FileCopyrightText: © 2020 Liferay, Inc. <https://liferay.com>
* SPDX-FileCopyrightText: © 2020 Contributors to the project Clay <https://github.com/liferay/clay/graphs/contributors>
*
* SPDX-License-Identifier: BSD-3-Clause
-->
<svg width="16" height="16" viewBox="0 0 16 16" fill="none" xmlns="http://www.w3.org/2000/svg">
<path d="M16 2H0V14H16V2Z" fill="#B0BEC9"/>
<path d="M4 2.5H0.5V13.5H4V2.5Z" fill="#E03232"/>
<path d="M15.5 2.5H12V13.5H15.5V2.5Z" fill="#E03232"/>
<path d="M12 2.5H4V13.5H12V2.5Z" fill="white"/>
<path d="M9.43436 9.38437C9.43436 9.49687 9.56249 9.80313 9.56249 9.80313C9.56249 9.80313 8.49374 9.625 8.40311 9.60938C8.31249 9.59375 8.23124 9.59375 8.23436 9.78125L8.30936 10.35H8.04686L8.10624 9.78125C8.10624 9.59375 8.02499 9.59375 7.93436 9.60938C7.84374 9.625 6.77499 9.80937 6.77499 9.80937C6.77499 9.80937 6.89999 9.50625 6.89999 9.39062C6.89999 9.24375 6.58436 9.03437 6.24061 8.73438C5.89686 8.43125 5.65936 8.27812 5.65936 8.24375C5.65936 8.2125 5.90311 8.21875 5.90311 8.0375C5.90311 7.85938 5.67186 7.18437 5.67186 7.18437C5.67186 7.18437 6.15311 7.37188 6.28436 7.36875C6.41561 7.36875 6.61874 7.10625 6.61874 6.91875C6.61874 6.91875 7.24686 7.7125 7.37811 7.65312C7.50936 7.59687 7.13749 6.03438 7.13749 6.03438C7.13749 6.03438 7.51249 6.375 7.64061 6.33437C7.77186 6.29375 8.13749 5.35625 8.13749 5.35625C8.13749 5.35625 8.14061 5.34375 8.14999 5.34375C8.15624 5.34375 8.16249 5.35625 8.16249 5.35625C8.16249 5.35625 8.53124 6.29062 8.66249 6.32812C8.79374 6.36875 9.16561 6.025 9.16561 6.025C9.16561 6.025 8.80311 7.5875 8.93436 7.64687C9.06561 7.70312 9.69061 6.90312 9.69061 6.90312C9.69061 7.09062 9.89686 7.35313 10.025 7.35313C10.1562 7.35 10.6344 7.1625 10.6344 7.1625C10.6344 7.1625 10.4062 7.8375 10.4094 8.01875C10.4094 8.2 10.6531 8.19063 10.6531 8.22188C10.6531 8.25313 10.4156 8.40937 10.075 8.71562C9.74686 9.02812 9.43436 9.23437 9.43436 9.38437Z" fill="#E03232"/>
</svg>
