<!--
* SPDX-FileCopyrightText: © 2020 Liferay, Inc. <https://liferay.com>
* SPDX-FileCopyrightText: © 2020 Contributors to the project Clay <https://github.com/liferay/clay/graphs/contributors>
*
* SPDX-License-Identifier: BSD-3-Clause
-->
<svg width="16" height="16" viewBox="0 0 16 16" fill="none" xmlns="http://www.w3.org/2000/svg">
<path d="M16 2H0V14H16V2Z" fill="#B0BEC9"/>
<path d="M15.5 2.5H0.5V3.72187H15.5V2.5Z" fill="#0035A0"/>
<path d="M15.5 3.72192H0.5V4.9438H15.5V3.72192Z" fill="white"/>
<path d="M15.5 6.16565H0.5V7.38752H15.5V6.16565Z" fill="white"/>
<path d="M15.5 7.38745H0.5V8.60933H15.5V7.38745Z" fill="#0035A0"/>
<path d="M15.5 8.61255H0.5V9.83442H15.5V8.61255Z" fill="white"/>
<path d="M15.5 9.83435H0.5V11.0562H15.5V9.83435Z" fill="#0035A0"/>
<path d="M15.5 11.0563H0.5V12.2781H15.5V11.0563Z" fill="white"/>
<path d="M15.5 12.2781H0.5V13.5H15.5V12.2781Z" fill="#0035A0"/>
<path d="M7.00005 2.5H0.503174V8.6125H7.00005V2.5Z" fill="#0035A0"/>
<path d="M15.5 4.94373H0.5V6.1656H15.5V4.94373Z" fill="#0035A0"/>
<path d="M4.35322 2.5H3.13135V8.6125H4.35322V2.5Z" fill="white"/>
<path d="M7.00938 4.94373H0.515625V6.1656H7.00938V4.94373Z" fill="white"/>
</svg>
