<!--
* SPDX-FileCopyrightText: © 2020 Liferay, Inc. <https://liferay.com>
* SPDX-FileCopyrightText: © 2020 Contributors to the project Clay <https://github.com/liferay/clay/graphs/contributors>
*
* SPDX-License-Identifier: BSD-3-Clause
-->
<svg width="16" height="16" viewBox="0 0 16 16" fill="none" xmlns="http://www.w3.org/2000/svg">
<path d="M16 2H0V14H16V2Z" fill="#C0CFD8"/>
<rect x="0.5" y="2.5" width="15" height="11" fill="#F9D616"/>
<path fill-rule="evenodd" clip-rule="evenodd" d="M7.11778 2.5H3.92824L6.5696 5.94938C6.32305 6.12168 6.10901 6.33732 5.93854 6.58523L0.5 2.5V6.92433L5.53657 7.57157C5.4863 7.86265 5.48878 8.17678 5.54342 8.46634L0.5 9.19301V13.5L5.94757 9.4278C6.12145 9.67729 6.33965 9.89357 6.59077 10.0653L4.01871 13.5H7.20637L7.58442 10.4656C7.87601 10.5144 8.19007 10.5102 8.47912 10.4541L8.92998 13.5H12.1347L9.44526 10.0402C9.69007 9.86642 9.90225 9.64972 10.0708 9.40105L15.5 13.4359V9.1322L10.4605 8.445C10.5126 8.15486 10.5124 7.84101 10.4598 7.55102L15.5 6.86449V2.5L10.0578 6.57993C9.88623 6.33178 9.67093 6.11618 9.42304 5.94426L12.0415 2.5H8.84038L8.43801 5.53824C8.14758 5.48692 7.83374 5.48809 7.54403 5.54148L7.11778 2.5Z" fill="#CE2028"/>
<path d="M8 9.5C8.82843 9.5 9.5 8.82843 9.5 8C9.5 7.17157 8.82843 6.5 8 6.5C7.17157 6.5 6.5 7.17157 6.5 8C6.5 8.82843 7.17157 9.5 8 9.5Z" fill="#F9D616"/>
</svg>
