<!--
* SPDX-FileCopyrightText: © 2020 Liferay, Inc. <https://liferay.com>
* SPDX-FileCopyrightText: © 2020 Contributors to the project Clay <https://github.com/liferay/clay/graphs/contributors>
*
* SPDX-License-Identifier: BSD-3-Clause
-->
<svg width="16" height="16" viewBox="0 0 16 16" fill="none" xmlns="http://www.w3.org/2000/svg">
<path d="M16 2H0V14H16V2Z" fill="#C0CFD8"/>
<path d="M15.5 2.5H0.5V13.5H15.5V2.5Z" fill="#E03232"/>
<path d="M7.5 10.5C6.11875 10.5 5 9.38125 5 8C5 6.61875 6.11875 5.5 7.5 5.5C7.5625 5.5 7.625 5.5125 7.6875 5.51875C7.20625 5.19063 6.625 5 6 5C4.34375 5 3 6.34375 3 8C3 9.65625 4.34375 11 6 11C6.625 11 7.20625 10.8094 7.6875 10.4812C7.625 10.4875 7.5625 10.5 7.5 10.5Z" fill="white"/>
<path d="M7.9125 6.3125L8.55625 7.11562L9.51562 6.75313L8.95312 7.60938L9.59375 8.4125L8.60312 8.14062L8.0375 9L7.99062 7.975L7 7.70312L7.9625 7.34062L7.9125 6.3125Z" fill="white"/>
</svg>
