<!--
* SPDX-FileCopyrightText: © 2020 Liferay, Inc. <https://liferay.com>
* SPDX-FileCopyrightText: © 2020 Contributors to the project Clay <https://github.com/liferay/clay/graphs/contributors>
*
* SPDX-License-Identifier: BSD-3-Clause
-->
<svg viewBox="0 0 16 16" xmlns="http://www.w3.org/2000/svg"><path d="M16 2H0v12h16V2Z" fill="#B0BEC9"/><path d="M15 3H1v10h14V3Z" fill="#fff"/><path d="M8 6a2 2 0 0 0-2 2h4a2 2 0 0 0-2-2Z" fill="#E03232"/><path d="M8 10a2 2 0 0 0 2-2H6a2 2 0 0 0 2 2Z" fill="#0035A0"/><path fill-rule="evenodd" clip-rule="evenodd" d="m2.354 6.354 2-2-.708-.708-2 2 .708.708Zm9.292-2 2 2 .708-.708-2-2-.707.708ZM2.354 9.646l2 2-.708.708-2-2 .708-.708Zm11.293 0-2 2 .707.708 2-2-.707-.708Z" fill="#000"/></svg>
