<svg xmlns="http://www.w3.org/2000/svg" viewBox="0 0 512 512">
	<rect y="64" fill="#B0BEC9" width="512" height="384"></rect>
	<rect x="16" y="80.3" fill="#0094CE" width="480" height="112"></rect>
	<rect x="16" y="320" fill="#FFFFFF" width="480" height="112"></rect>
	<rect x="16" y="192" fill="#4C4C4E" width="480" height="128"></rect>
	<rect y="64" fill="#B0BEC9" width="512" height="384"></rect>
	<rect x="16" y="80" fill="#E03232" width="480" height="352"></rect>
	<polygon fill="#75BD4A" points="256,295.7 441.9,432 496,432 496,392.3 310.1,256 496,119.7 496,80 441.9,80 256,216.3 70.1,80 16,80 16,119.7 201.9,256 16,392.3 16,432 70.1,432 "></polygon>
	<polygon fill="#FFFFFF" points="496,224 288,224 288,80 224,80 224,224 16,224 16,288 224,288 224,432 288,432 288,288 496,288 "></polygon>
</svg>
