<!--
* SPDX-FileCopyrightText: © 2020 Liferay, Inc. <https://liferay.com>
* SPDX-FileCopyrightText: © 2020 Contributors to the project Clay <https://github.com/liferay/clay/graphs/contributors>
*
* SPDX-License-Identifier: BSD-3-Clause
-->
<svg viewBox="0 0 16 16" xmlns="http://www.w3.org/2000/svg"><path d="M16 2H0v12h16V2Z" fill="#C0CFD8"/><path d="M15.5 2.5H.5v11h15v-11Z" fill="#fff"/><path d="M15.5 3H.5v2h15V3Zm0 8H.5v2h15v-2ZM8 6l1 1.49 1 1.494H6l1-1.493L8 6Z" fill="#0094CE"/><path d="M8 10 7 8.51 6 7.015h4L9 8.509 8 10Z" fill="#0094CE"/><path d="M8 8.5a.5.5 0 1 0 0-1 .5.5 0 0 0 0 1Z" fill="#fff"/></svg>
