<!--
* SPDX-FileCopyrightText: © 2020 Liferay, Inc. <https://liferay.com>
* SPDX-FileCopyrightText: © 2020 Contributors to the project Clay <https://github.com/liferay/clay/graphs/contributors>
*
* SPDX-License-Identifier: BSD-3-Clause
-->
<svg width="16" height="16" viewBox="0 0 16 16" fill="none" xmlns="http://www.w3.org/2000/svg">
<path d="M16 2H0V14H16V2Z" fill="#B0BEC9"/>
<path d="M15.5 2.5H0.5V13.5H15.5V2.5Z" fill="#0035A0"/>
<path d="M9.5 2.5H6.5V13.5H9.5V2.5Z" fill="white"/>
<path d="M15.5 6.5H0.5V9.5H15.5V6.5Z" fill="white"/>
<path d="M8 9.85938L12.9625 13.5H15.5V11.6406L10.5375 8L15.5 4.35938V2.5H12.9625L8 6.14062L3.0375 2.5H0.5V4.35938L5.4625 8L0.5 11.6406V13.5H3.0375L8 9.85938Z" fill="white"/>
<path d="M8 9.24063L13.8094 13.5H15.5V12.2594L9.69063 8L15.5 3.74062V2.5H13.8094L8 6.75938L2.19062 2.5H0.5V3.74062L6.30937 8L0.5 12.2594V13.5H2.19062L8 9.24063Z" fill="#E03232"/>
<path d="M15.5 7H9V2.5H7V7H0.5V9H7V13.5H9V9H15.5V7Z" fill="#E03232"/>
</svg>
