<!--
* SPDX-FileCopyrightText: © 2020 Liferay, Inc. <https://liferay.com>
* SPDX-FileCopyrightText: © 2020 Contributors to the project Clay <https://github.com/liferay/clay/graphs/contributors>
*
* SPDX-License-Identifier: BSD-3-Clause
-->
<svg width="16" height="16" viewBox="0 0 16 16" fill="none" xmlns="http://www.w3.org/2000/svg">
<path d="M16 2H0V14H16V2Z" fill="#B0BEC9"/>
<path d="M15.5 2.5H0.5V5.5H15.5V2.5Z" fill="#75BD4A"/>
<path d="M15.5 10.5H0.5V13.5H15.5V10.5Z" fill="#E03232"/>
<path d="M15.5 5.5H0.5V10.5H15.5V5.5Z" fill="white"/>
<path opacity="0.5" d="M1.51875 4.4812H1V4.99995H1.51875V4.4812Z" fill="white"/>
<path opacity="0.5" d="M2.55623 4.4812H2.03748V4.99995H2.55623V4.4812Z" fill="white"/>
<path opacity="0.5" d="M3.5937 4.4812H3.07495V4.99995H3.5937V4.4812Z" fill="white"/>
<path opacity="0.5" d="M4.6313 4.4812H4.11255V4.99995H4.6313V4.4812Z" fill="white"/>
<path opacity="0.5" d="M5.6656 4.4812H5.14685V4.99995H5.6656V4.4812Z" fill="white"/>
<path opacity="0.5" d="M6.70308 4.4812H6.18433V4.99995H6.70308V4.4812Z" fill="white"/>
<path opacity="0.5" d="M7.74067 4.4812H7.22192V4.99995H7.74067V4.4812Z" fill="white"/>
<path opacity="0.5" d="M8.77815 4.4812H8.2594V4.99995H8.77815V4.4812Z" fill="white"/>
<path opacity="0.5" d="M9.81563 4.4812H9.29688V4.99995H9.81563V4.4812Z" fill="white"/>
<path opacity="0.5" d="M10.8531 4.4812H10.3344V4.99995H10.8531V4.4812Z" fill="white"/>
<path opacity="0.5" d="M11.8906 4.4812H11.3718V4.99995H11.8906V4.4812Z" fill="white"/>
<path opacity="0.5" d="M12.925 4.4812H12.4062V4.99995H12.925V4.4812Z" fill="white"/>
<path opacity="0.5" d="M13.9625 4.4812H13.4437V4.99995H13.9625V4.4812Z" fill="white"/>
<path opacity="0.5" d="M15 4.4812H14.4812V4.99995H15V4.4812Z" fill="white"/>
<path opacity="0.5" d="M1.51875 11H1V11.5188H1.51875V11Z" fill="white"/>
<path opacity="0.5" d="M2.55623 11H2.03748V11.5188H2.55623V11Z" fill="white"/>
<path opacity="0.5" d="M3.5937 11H3.07495V11.5188H3.5937V11Z" fill="white"/>
<path opacity="0.5" d="M4.6313 11H4.11255V11.5188H4.6313V11Z" fill="white"/>
<path opacity="0.5" d="M5.6656 11H5.14685V11.5188H5.6656V11Z" fill="white"/>
<path opacity="0.5" d="M6.70308 11H6.18433V11.5188H6.70308V11Z" fill="white"/>
<path opacity="0.5" d="M7.74067 11H7.22192V11.5188H7.74067V11Z" fill="white"/>
<path opacity="0.5" d="M8.77815 11H8.2594V11.5188H8.77815V11Z" fill="white"/>
<path opacity="0.5" d="M9.81563 11H9.29688V11.5188H9.81563V11Z" fill="white"/>
<path opacity="0.5" d="M10.8531 11H10.3344V11.5188H10.8531V11Z" fill="white"/>
<path opacity="0.5" d="M11.8906 11H11.3718V11.5188H11.8906V11Z" fill="white"/>
<path opacity="0.5" d="M12.925 11H12.4062V11.5188H12.925V11Z" fill="white"/>
<path opacity="0.5" d="M13.9625 11H13.4437V11.5188H13.9625V11Z" fill="white"/>
<path opacity="0.5" d="M15 11H14.4812V11.5188H15V11Z" fill="white"/>
<path d="M7.9375 9.125C8.62786 9.125 9.1875 8.56536 9.1875 7.875C9.1875 7.18464 8.62786 6.625 7.9375 6.625C7.24714 6.625 6.6875 7.18464 6.6875 7.875C6.6875 8.56536 7.24714 9.125 7.9375 9.125Z" fill="#E03232"/>
</svg>
