<!--
* SPDX-FileCopyrightText: © 2020 Liferay, Inc. <https://liferay.com>
* SPDX-FileCopyrightText: © 2020 Contributors to the project Clay <https://github.com/liferay/clay/graphs/contributors>
*
* SPDX-License-Identifier: BSD-3-Clause
-->
<svg viewBox="0 0 16 16" xmlns="http://www.w3.org/2000/svg"><path d="M16 2H0v12h16V2Z" fill="#C0CFD8"/><path d="M15.5 2.5H.5v11h15v-11Z" fill="#E03232"/><path d="m4.772 7.46-1.25-.92L2.3 7.5l.45-1.528-1.25-.919 1.528-.025.45-1.528.494 1.513L5.5 4.987l-1.222.96.494 1.512Z" fill="#FCD638"/><path d="m7.394 4.819-.313-.44-.51.18.32-.453-.313-.44.506.159.32-.453-.007.553.506.16-.506.18-.003.554Zm1.219 1.55.018-.54-.515-.16.525-.172.015-.54.31.43.525-.171-.335.44.31.432-.516-.16-.337.44Zm-.269 2.284.162-.515-.453-.294.553-.025.16-.513.18.497.554-.022-.44.332.178.5-.454-.294-.44.334ZM6.497 9.975l.372-.388-.272-.465.503.225.375-.388-.062.528.506.225-.544.1-.06.529-.274-.466-.544.1Z" fill="#FD0"/></svg>
