<!--
* SPDX-FileCopyrightText: © 2020 Liferay, Inc. <https://liferay.com>
* SPDX-FileCopyrightText: © 2020 Contributors to the project Clay <https://github.com/liferay/clay/graphs/contributors>
*
* SPDX-License-Identifier: BSD-3-Clause
-->
<svg width="16" height="16" viewBox="0 0 16 16" fill="none" xmlns="http://www.w3.org/2000/svg">
<path d="M0 2H16V14H0V2Z" fill="#B0BEC9"/>
<path d="M0.5 10H15.5V13.5H0.5V10Z" fill="#E03232"/>
<path d="M0.5 6H15.5V10H0.5V6Z" fill="#0035A0"/>
<path d="M15.5 2.5H0.5V6H2.5V8.45C2.5 10.4 5 11 5 11C5 11 7.5 10.4 7.5 8.45V6H15.5V2.5Z" fill="white"/>
<path d="M3.05078 8.5C3.30078 10.05 5.00078 10.5 5.00078 10.5C5.00078 10.5 6.70078 10.05 6.95078 8.5H3.05078Z" fill="#0035A0"/>
<path d="M7.00078 5H3.00078C3.00078 5.2 2.95078 8.45 3.05078 8.5H4.75078V7.5H3.75078V7H4.75078V6.5H4.25078V6H4.75078V5.5H5.25078V6H5.75078V6.5H5.25078V7H6.25078V7.5H5.25078V8.5H6.95078C7.05078 8.45 7.00078 5.2 7.00078 5Z" fill="#D80027"/>
</svg>
