<!--
* SPDX-FileCopyrightText: © 2020 Liferay, Inc. <https://liferay.com>
* SPDX-FileCopyrightText: © 2020 Contributors to the project Clay <https://github.com/liferay/clay/graphs/contributors>
*
* SPDX-License-Identifier: BSD-3-Clause
-->
<svg width="16" height="16" viewBox="0 0 16 16" fill="none" xmlns="http://www.w3.org/2000/svg">
<path d="M0 2H16V14H0V2Z" fill="#B0BEC9"/>
<path d="M0.5 2.5H15.5V13.5H0.5V2.5Z" fill="#E03232"/>
<path d="M0.5 3.5H15.5V4.5H0.5V3.5ZM0.5 5.5H15.5V6.5H0.5V5.5ZM0.5 7.5H15.5V8.5H0.5V7.5ZM0.5 9.5H15.5V10.5H0.5V9.5ZM0.5 11.5H15.5V12.5H0.5V11.5Z" fill="white"/>
<path d="M0.5 2.5H8.5V8.5H0.5V2.5Z" fill="#00206A"/>
<path d="M2.8 5.5C2.8 4.55 3.5 3.75 4.4 3.55C4.3 3.55 4.15 3.5 4 3.5C2.9 3.5 2 4.4 2 5.5C2 6.6 2.9 7.5 4 7.5C4.15 7.5 4.25 7.5 4.4 7.45C3.5 7.3 2.8 6.5 2.8 5.5Z" fill="#FCD638"/>
<path d="M5.74968 4.25C7.29968 4.25 7.39968 6.75 5.74968 6.75C4.19968 6.75 4.14968 4.25 5.74968 4.25Z" fill="#FCD638"/>
</svg>
