<!--
* SPDX-FileCopyrightText: © 2020 Liferay, Inc. <https://liferay.com>
* SPDX-FileCopyrightText: © 2020 Contributors to the project Clay <https://github.com/liferay/clay/graphs/contributors>
*
* SPDX-License-Identifier: BSD-3-Clause
-->
<svg viewBox="0 0 16 16" xmlns="http://www.w3.org/2000/svg"><path d="M16 2H0v12h16V2Z" fill="#C0CFD8"/><path d="M15.5 2.5H.5v11h15v-11Z" fill="#E03232"/><path d="M7.5 10.5a2.5 2.5 0 1 1 0-5c.063 0 .125.013.188.019a3 3 0 1 0 0 4.962c-.063.007-.125.019-.188.019Z" fill="#fff"/><path d="m7.912 6.313.644.803.96-.363-.563.856.64.803-.99-.271L8.037 9l-.046-1.025L7 7.703l.963-.362-.05-1.029Z" fill="#fff"/></svg>
