<!--
* SPDX-FileCopyrightText: © 2020 Liferay, Inc. <https://liferay.com>
* SPDX-FileCopyrightText: © 2020 Contributors to the project Clay <https://github.com/liferay/clay/graphs/contributors>
*
* SPDX-License-Identifier: BSD-3-Clause
-->
<svg viewBox="0 0 16 16" xmlns="http://www.w3.org/2000/svg"><path d="M0 2h16v12H0V2Z" fill="#B0BEC9"/><path d="M.5 2.5h15v11H.5v-11Z" fill="#E03232"/><path d="M.5 3.5h15v1H.5v-1Zm0 2h15v1H.5v-1Zm0 2h15v1H.5v-1Zm0 2h15v1H.5v-1Zm0 2h15v1H.5v-1Z" fill="#fff"/><path d="M.5 2.5h8v6h-8v-6Z" fill="#00206A"/><path d="M2.8 5.5c0-.95.7-1.75 1.6-1.95-.1 0-.25-.05-.4-.05-1.1 0-2 .9-2 2s.9 2 2 2c.15 0 .25 0 .4-.05-.9-.15-1.6-.95-1.6-1.95Z" fill="#FCD638"/><path d="M5.75 4.25c1.55 0 1.65 2.5 0 2.5-1.55 0-1.6-2.5 0-2.5Z" fill="#FCD638"/></svg>
