<!--
* SPDX-FileCopyrightText: © 2020 Liferay, Inc. <https://liferay.com>
* SPDX-FileCopyrightText: © 2020 Contributors to the project Clay <https://github.com/liferay/clay/graphs/contributors>
*
* SPDX-License-Identifier: BSD-3-Clause
-->
<svg viewBox="0 0 16 16" xmlns="http://www.w3.org/2000/svg"><path d="M0 2h16v12H0V2Z" fill="#B0BEC9"/><path d="M.5 10h15v3.5H.5V10Z" fill="#E03232"/><path d="M.5 6h15v4H.5V6Z" fill="#0035A0"/><path d="M15.5 2.5H.5V6h2v2.45C2.5 10.4 5 11 5 11s2.5-.6 2.5-2.55V6h8V2.5Z" fill="#fff"/><path d="M3.05 8.5c.25 1.55 1.95 2 1.95 2s1.7-.45 1.95-2h-3.9Z" fill="#0035A0"/><path d="M7 5H3c0 .2-.05 3.45.05 3.5h1.7v-1h-1V7h1v-.5h-.5V6h.5v-.5h.5V6h.5v.5h-.5V7h1v.5h-1v1h1.7C7.05 8.45 7 5.2 7 5Z" fill="#D80027"/></svg>
