<!--
* SPDX-FileCopyrightText: © 2020 Liferay, Inc. <https://liferay.com>
* SPDX-FileCopyrightText: © 2020 Contributors to the project Clay <https://github.com/liferay/clay/graphs/contributors>
*
* SPDX-License-Identifier: BSD-3-Clause
-->
<svg viewBox="0 0 16 16" xmlns="http://www.w3.org/2000/svg"><path d="M0 2h16v12H0V2Z" fill="#00AFCA"/><path d="M8.838 8.266a1.725 1.725 0 1 0 0-3.45 1.725 1.725 0 0 0 0 3.45Z" fill="#FEC50C"/><path d="M8.837 4.706c.122 0 .194-.078.194-.197 0-.103-.125-.537-.137-.587l-.057-.197-.056.197c-.015.05-.137.481-.137.587-.003.12.075.197.193.197Zm2.029 1.638c-.12 0-.197.075-.197.193 0 .12.078.194.197.194.103 0 .537-.125.587-.137l.197-.057-.197-.056c-.05-.012-.484-.137-.587-.137ZM8.837 8.372c-.121 0-.193.078-.193.197 0 .103.125.537.137.587l.056.197.057-.197c.015-.05.137-.481.137-.587 0-.119-.075-.197-.194-.197Zm-2.03-1.638c.118 0 .196-.075.196-.193 0-.12-.078-.194-.197-.194-.103 0-.537.125-.587.137l-.197.057.197.056c.05.012.484.137.587.137Zm2.615-2.003a.18.18 0 0 0 .115.113.23.23 0 0 0 .085.018c.075 0 .134-.043.169-.125.04-.096.09-.543.096-.593l.022-.203-.128.159c-.031.04-.312.394-.353.487a.254.254 0 0 0-.006.144Zm1.362 2.403c-.109-.047-.209-.003-.256.107-.044.112-.003.209.106.253.097.04.544.09.594.097l.203.021-.16-.128c-.037-.028-.39-.309-.487-.35Zm-2.65 1.097c-.112-.044-.209-.003-.256.106-.04.097-.09.544-.097.594l-.022.203.128-.159c.032-.04.313-.394.354-.49.043-.107.003-.207-.107-.254ZM6.887 5.944c.032.012.06.018.088.018a.177.177 0 0 0 .056-.009.184.184 0 0 0 .113-.116c.043-.112.003-.209-.107-.253-.096-.04-.543-.09-.593-.097l-.203-.021.159.128c.037.028.39.31.487.35Zm3.182-.85a.188.188 0 0 0 .062.15c.044.04.09.062.138.062a.199.199 0 0 0 .137-.062c.075-.075.294-.469.316-.513l.1-.178-.178.1c-.044.025-.438.244-.513.316a.2.2 0 0 0-.062.125Zm.34 2.74c-.084-.084-.193-.084-.278 0-.084.085-.084.191 0 .275.075.075.469.294.513.316l.178.1-.1-.178c-.022-.044-.24-.438-.313-.513Zm-2.806.15a.188.188 0 0 0-.062-.15c-.085-.084-.191-.084-.275 0-.075.075-.294.47-.316.513l-.1.178.178-.1c.044-.025.438-.244.513-.316a.193.193 0 0 0 .062-.125Zm-.34-2.74a.2.2 0 0 0 .128.062h.012a.192.192 0 0 0 .138-.062c.084-.085.084-.19 0-.275-.075-.075-.47-.294-.513-.316l-.178-.1.1.178c.022.044.24.438.312.513Zm3.265.431a.19.19 0 0 0 0 .162c.034.082.097.122.169.122a.233.233 0 0 0 .087-.018c.097-.041.45-.322.491-.354l.16-.128-.204.022c-.05.006-.5.056-.594.097a.24.24 0 0 0-.109.097Zm-.734 2.662a.199.199 0 0 0-.094-.106.19.19 0 0 0-.163 0c-.109.047-.15.144-.103.256.041.097.322.45.353.491l.129.16-.022-.204c-.01-.05-.06-.5-.1-.597Zm-2.65-1.096c-.047-.11-.147-.15-.257-.107-.096.041-.45.322-.49.353l-.16.129.204-.022c.05-.007.5-.057.593-.097.113-.047.153-.147.11-.256Zm.737-2.5c.035.08.097.125.169.125a.206.206 0 0 0 .084-.02c.11-.046.15-.143.103-.255-.04-.097-.321-.45-.353-.491l-.128-.16.022.204c.01.05.063.5.103.597Zm1.313 0c.015.003.031.003.047.003.093 0 .162-.06.18-.16.023-.103-.015-.55-.021-.603l-.019-.203-.094.181c-.025.047-.23.447-.25.547a.208.208 0 0 0 .02.14.19.19 0 0 0 .137.095Z" fill="#FEC50C"/><path d="M10.866 6.744a.209.209 0 0 0-.141.019.192.192 0 0 0-.09.134c-.022.119.037.206.152.228.022.003.06.006.104.006.168 0 .456-.025.496-.028l.204-.019-.182-.093c-.04-.02-.443-.228-.543-.247ZM8.478 8.338c-.119-.022-.206.037-.228.153-.022.103.016.55.022.603l.019.203.093-.181c.025-.047.232-.447.25-.547a.209.209 0 0 0-.018-.14.192.192 0 0 0-.138-.091ZM6.81 6.334a.273.273 0 0 0 .05.007.189.189 0 0 0 .094-.022.192.192 0 0 0 .09-.135c.023-.118-.037-.206-.152-.228-.104-.022-.55.016-.604.022l-.203.019.182.094c.04.018.44.225.543.243Zm2.99-1.59a.193.193 0 0 0-.038.137c.004.038.025.09.091.135a.211.211 0 0 0 .116.037c.06 0 .115-.031.156-.094.06-.087.197-.515.21-.565l.062-.194-.156.131c-.038.035-.382.325-.441.413Zm.831 2.76a.194.194 0 0 0-.137-.038c-.038.003-.09.025-.135.09-.065.1-.043.203.057.272.087.06.515.197.565.21l.194.062-.131-.156c-.035-.038-.325-.381-.413-.44Zm-2.76.83a.193.193 0 0 0 .038-.137c-.003-.038-.025-.09-.09-.134-.1-.066-.203-.044-.272.056-.06.087-.197.515-.21.565l-.062.194.156-.131c.038-.034.381-.325.44-.413Zm-.83-2.759a.211.211 0 0 0 .115.037.19.19 0 0 0 .157-.09c.065-.1.043-.203-.057-.272-.087-.06-.515-.197-.565-.21l-.194-.062.131.156c.034.038.325.382.413.441Zm3.287-.213a.194.194 0 0 0 .031.16c.041.06.097.09.157.09a.211.211 0 0 0 .115-.037c.088-.06.378-.403.41-.44l.13-.157-.193.063c-.05.015-.478.153-.566.209a.209.209 0 0 0-.084.112Zm-.203 2.757a.215.215 0 0 0-.113-.088.194.194 0 0 0-.159.031c-.1.07-.119.172-.053.272.06.088.403.379.44.41l.157.131-.063-.194c-.012-.047-.15-.478-.209-.562Zm-2.781-.403a.194.194 0 0 0-.032-.16c-.068-.1-.171-.119-.271-.053-.088.06-.379.403-.41.44L6.5 8.1l.194-.063c.05-.015.478-.153.565-.209a.194.194 0 0 0 .085-.112Zm.203-2.757a.215.215 0 0 0 .112.088.185.185 0 0 0 .044.006c.031 0 .072-.01.116-.037.1-.07.119-.172.053-.272-.06-.088-.403-.378-.44-.41l-.157-.13.063.193c.015.047.15.478.209.562Zm3.24.994a.195.195 0 0 0-.125.072.191.191 0 0 0-.03.16c.021.1.087.156.18.156a.231.231 0 0 0 .05-.007c.104-.021.504-.228.547-.25l.182-.093-.204-.02c-.046-.002-.496-.04-.6-.018ZM9.354 8.37a.192.192 0 0 0-.16-.031c-.118.025-.174.112-.152.23.021.104.228.504.25.548l.093.18.02-.202c.002-.05.04-.5.021-.603a.207.207 0 0 0-.072-.122ZM6.781 7.13a.708.708 0 0 0 .103-.006c.116-.022.178-.112.153-.228-.024-.119-.112-.175-.23-.153-.104.022-.504.228-.548.25l-.18.094.202.018c.04.003.328.025.5.025Zm1.65-2.384a.24.24 0 0 0 .047-.006c.119-.025.175-.113.153-.232-.022-.103-.228-.503-.25-.547l-.094-.18-.018.202c-.003.05-.04.5-.022.604.022.1.09.159.184.159Z" fill="#FEC50C"/><path d="M12.716 8.384c.043-.071.125-.212.04-.362l-.015-.028-.025-.019a.298.298 0 0 0-.244-.062l-.013.003a.975.975 0 0 0 .01-.138v-.003c0-.122-.035-.216-.103-.272a.267.267 0 0 0-.207-.06h-.006c-.169.032-.197.191-.21.25 0 .004 0 .007-.002.01a.255.255 0 0 0-.154-.015.244.244 0 0 0-.196.243c-.153.732-.65 1.403-1.332 1.797a2.93 2.93 0 0 1-1.003.338l-.012.003a.911.911 0 0 1-.107.012.75.75 0 0 0-.221.038l-.025.01-.022.015a1.982 1.982 0 0 0-.082.069l.007-.113c-.02 0-.038-.003-.053-.003a.83.83 0 0 1-.088-.006h-.006a2.825 2.825 0 0 1-1.435-.494 2.758 2.758 0 0 1-1.08-1.478l-.004-.01c-.012-.03-.019-.071-.028-.115-.013-.06-.025-.122-.05-.185l-.016-.04L6 7.74a.255.255 0 0 0-.256-.04l-.007.002v-.006l-.006-.019-.003-.01-.003-.012c-.047-.206-.188-.222-.25-.215-.097 0-.25.05-.263.328v.012c0 .044.004.09.01.135a.28.28 0 0 0-.188.018.24.24 0 0 0-.13.129c-.048.112.008.225.033.271.01.02.02.035.029.05a.239.239 0 0 0-.157.254l.007.037.021.031c.091.144.197.272.31.388a.13.13 0 0 0-.035.056c-.046.11.022.213.06.269l.012.019.01.012c.075.078.156.144.243.197a.196.196 0 0 0 .007.181l.01.019.012.016c.05.056.109.093.168.118l-.015.097.09.063c.022.015.044.025.066.037l-.031.053.134.085-.128.065.375.138c.122.043.253.097.422.172.331.146.634.228.928.243l.044-.35a1.954 1.954 0 0 1-.282-.078 6.11 6.11 0 0 1-.45-.165l.091-.075.1-.044-.04-.01.134-.112-.46-.016c-.018 0-.037-.003-.056-.006l-.01-.047a.206.206 0 0 0-.14-.156l.022-.019-.025-.01a.175.175 0 0 0-.044-.093l.07-.028-.126-.056a.2.2 0 0 0-.019-.05L6.4 9.6l-.344-.25-.003-.003-.01-.122.194.163v.003c.104.137.213.278.357.397.137.115.297.171.45.215.072.047.14.113.212.184.05.05.103.104.163.15.187.172.44.185.61.194.018 0 .04.003.062.003.125.007.243.01.34.044a.564.564 0 0 1-.172.1l-.012.003-.013.007c-.03.015-.072.028-.115.043-.11.038-.247.082-.344.207l-.01.012-.006.013a.157.157 0 0 0-.015.04.37.37 0 0 0-.097.1.297.297 0 0 0-.047.138v.012a.34.34 0 0 0 .034.172l.066.112.112-.009a.144.144 0 0 0 .07-.022c.037.006.08 0 .118-.025a.837.837 0 0 1 .194-.031h.01a.498.498 0 0 0-.076.16l-.044.171.17.044c.105.028.2.006.28-.031.01.01.02.022.032.031l.056.044.072-.006a.323.323 0 0 0 .125-.035l.025.028.068.007a.314.314 0 0 0 .194-.047l.025.012a.301.301 0 0 0 .244-.003.493.493 0 0 0 .056-.031.201.201 0 0 0 .097.022.286.286 0 0 0 .181-.066l.007.003.046.006a.292.292 0 0 0 .254-.08.24.24 0 0 0 .253-.063.37.37 0 0 0 .047-.057.274.274 0 0 0 .259-.015l.013-.01a.306.306 0 0 0 .087-.106.389.389 0 0 0 .325-.087.356.356 0 0 0 .125-.329l-.022-.143-.144-.006c.113-.038.22-.088.316-.15l.022-.016.006-.006.025-.013c.063-.031.175-.087.172-.216a.755.755 0 0 0 .162-.034l.11-.037.01-.116v-.006a.658.658 0 0 0 .159-.085l.23-.178-.055-.025c.006-.003.012-.01.018-.012l.016-.01.012-.012a.21.21 0 0 0 .044-.231.992.992 0 0 0 .325-.294c.047-.069.11-.225.016-.334a2.59 2.59 0 0 0 .31-.391l.021-.034.003-.041a.261.261 0 0 0-.165-.238Zm-2.441 2.438a2.187 2.187 0 0 0-.247-.003h-.01a.07.07 0 0 0-.024.003c-.053.003-.144.01-.21.084a.212.212 0 0 0-.034.06.202.202 0 0 0-.122.122.13.13 0 0 0-.01.05l-.015.009a.875.875 0 0 1-.222.044l-.131-.075a.326.326 0 0 0-.14-.041l-.263-.003c-.013 0-.022-.003-.035-.003-.021-.003-.043-.003-.065-.007l.04-.046.325-.244-.221.012c.068-.062.128-.115.193-.128l.016-.003c.14-.044.287-.06.444-.081.153-.019.31-.038.468-.081l.06-.016.037-.05c.144-.194.37-.303.61-.416.084-.04.175-.084.26-.128a.37.37 0 0 0 .212-.23c.006-.007.009-.017.015-.023l.19-.09.1-.004-.146.16.04.01-.046.037-.278.243.075.013c0 .003-.004.006-.004.01l-.012.005c-.016.007-.034.013-.05.022l-.034.016.006.003a.222.222 0 0 0-.088.11l-.221-.02.078.248a1.136 1.136 0 0 1-.547.222l.006.209Zm-8.084-.619c.05-.194.068-.322.068-.522 0-.343-.122-.603-.343-.622.221-.018.343-.278.343-.621a1.82 1.82 0 0 0-.068-.522l-.547-2.17a1.192 1.192 0 0 1-.025-.287c0-.193.1-.353.203-.359.094-.003.197.169.197.366 0 .237-.066.347-.132.347-.08 0-.115-.066-.115-.175 0-.079.019-.11.047-.11.072 0 .05.181.05.181.034-.015.062-.08.047-.168.025-.01.05-.038.068-.078-.018-.035-.04-.063-.068-.072.015-.103-.007-.153-.054-.175.01.04.01.078.007.112-.075-.04-.19.025-.19.272 0 .247.09.453.255.4-.04.038-.06.11-.065.194.031-.022.065-.025.065-.025-.018.065-.047.122-.047.253.032-.028.06-.078.1-.044-.062.235.016.556.21.635a1.223 1.223 0 0 1-.106-.504c0-.556.08-.65.08-1.037a.808.808 0 0 0-.127-.45c.056-.028.09-.081.112-.153-.04-.1-.065-.131-.131-.138.075-.072.15-.23.15-.481 0-.381-.081-.54-.081-.969 0-.237.103-.543.103-.543-.181.034-.272.356-.219.612-.028.01-.056-.003-.078-.044a.437.437 0 0 0 .034.225c-.022.022-.04.01-.075-.006.003.072.025.15.082.225-.163-.081-.263.138-.263.363 0 .171.063.293.125.293a.09.09 0 0 0 .066-.04.331.331 0 0 1-.007.156c.044-.022.075-.075.054-.181.034-.007.062-.028.08-.072-.018-.047-.046-.072-.08-.072.025-.1-.004-.156-.044-.2 0 0 .025.2-.04.2-.032 0-.057-.019-.057-.103 0-.072.034-.175.112-.169.079.006.141.103.141.338 0 .218-.094.328-.212.334-.11.006-.194-.106-.194-.322 0-.287.219-.94.219-1.197 0-.19-.091-.3-.179-.3-.056 0-.106.05-.143.103-.038-.053-.088-.103-.144-.103-.088 0-.178.106-.178.3 0 .256.219.91.219 1.197 0 .216-.082.328-.194.322-.122-.006-.213-.116-.213-.334 0-.238.063-.332.141-.338.078-.006.112.094.112.169 0 .084-.028.103-.056.103-.065 0-.04-.2-.04-.2-.041.044-.07.1-.044.2-.035-.003-.063.025-.081.072.018.044.046.065.08.072-.021.106.01.156.054.18a.331.331 0 0 1-.006-.155.09.09 0 0 0 .065.04c.063 0 .125-.122.125-.293 0-.229-.1-.444-.262-.363a.383.383 0 0 0 .081-.225c-.037.016-.053.028-.075.006a.407.407 0 0 0 .034-.225c-.021.04-.05.053-.078.044.05-.256-.037-.578-.218-.612 0 0 .103.303.103.543 0 .432-.082.588-.082.969 0 .247.075.406.15.481-.065.01-.09.038-.13.138.021.072.055.125.112.153a.808.808 0 0 0-.128.45c0 .387.08.481.08 1.037 0 .172-.034.344-.105.504.193-.075.271-.4.209-.635.04-.031.069.019.1.044 0-.128-.025-.188-.047-.253 0 0 .034.003.066.025-.003-.085-.025-.156-.066-.194.169.053.256-.156.256-.4 0-.247-.115-.312-.19-.272a.35.35 0 0 1 .006-.112c-.047.022-.069.072-.053.175-.028.01-.05.037-.069.072.019.04.044.065.069.078-.016.084.012.153.047.168 0 0-.02-.18.05-.18.028 0 .047.034.047.109 0 .109-.032.175-.116.175-.066 0-.131-.107-.131-.347 0-.197.103-.37.197-.366.103.006.203.163.203.36 0 .124-.007.212-.025.287L.847 7.916a1.84 1.84 0 0 0-.069.522c0 .343.122.603.344.621-.222.02-.344.279-.344.622 0 .203.019.328.069.522l.547 2.169c.018.075.025.162.025.287 0 .194-.1.353-.203.36-.094.003-.197-.169-.197-.366 0-.237.065-.347.131-.347.081 0 .116.066.116.175 0 .078-.02.11-.047.11-.072 0-.05-.182-.05-.182-.035.016-.063.082-.047.17-.025.008-.05.037-.069.077.019.035.04.063.069.072-.016.103.006.153.053.175a.35.35 0 0 1-.006-.112c.075.04.19-.025.19-.272 0-.247-.09-.453-.256-.4.04-.038.06-.11.066-.194-.032.022-.066.025-.066.025.019-.066.047-.122.047-.253-.031.028-.06.078-.1.044.062-.235-.016-.557-.21-.635.072.16.107.332.107.503 0 .557-.081.65-.081 1.038 0 .16.043.331.128.45-.057.028-.09.081-.113.153.131.072.319.069.422-.006.116-.025.2-.197.222-.285.025.088.106.26.222.285.103.075.29.078.422.006-.022-.072-.057-.125-.113-.153a.807.807 0 0 0 .128-.45c0-.388-.08-.481-.08-1.038 0-.171.033-.343.105-.503-.193.075-.272.4-.21.635-.04.03-.068-.02-.1-.044.001.128.026.187.048.253 0 0-.035-.003-.066-.025.003.084.025.156.066.194-.169-.053-.256.156-.256.4 0 .247.115.312.19.272a.35.35 0 0 1-.006.112c.047-.022.069-.072.053-.175.028-.01.05-.037.069-.072a.157.157 0 0 0-.069-.078c.016-.084-.012-.153-.047-.169 0 0 .019.182-.05.182-.028 0-.047-.035-.047-.11 0-.11.032-.175.116-.175.066 0 .131.107.131.347 0 .197-.103.369-.197.366-.103-.007-.203-.163-.203-.36 0-.125.006-.212.025-.287.14-.606.535-2.169.535-2.169Zm-.675-.634c-.054-.322-.213-.497-.357-.513.144-.015.303-.19.357-.512.053.322.212.497.356.512-.144.013-.303.19-.356.513Zm-.16-6.519c.04-.097.16.094.16.094s.118-.19.159-.094c.05.116-.088.575-.16.913-.071-.335-.209-.797-.159-.913Zm-.065 1.813c-.007-.007-.02-.007-.025-.013a.41.41 0 0 0 .246-.287c.05.162.141.24.247.287a.063.063 0 0 0-.025.013c-.115.025-.2.196-.222.284-.021-.088-.103-.26-.221-.284ZM.919 8.4c0-.112.015-.219.037-.316.113-.465.478-1.943.556-2.253.079.31.444 1.788.557 2.253.025.1.037.204.037.316 0 .284-.137.384-.215.384-.094 0-.188-.134-.188-.303 0-.106.031-.172.075-.172.106 0 .1.172.078.279a.312.312 0 0 0 .094-.263c.037-.01.072-.044.103-.112-.025-.063-.056-.11-.103-.11.022-.162-.038-.234-.094-.272.019.119.028.26-.078.26-.078 0-.14.025-.175.122l-.01-.641c-.002-.19.135-.188.223-.128-.035-.222-.104-.34-.26-.31.038-.03.078-.1.078-.23 0-.182-.075-.379-.128-.438a.845.845 0 0 0-.128.437c0 .135.04.203.078.231-.16-.03-.228.091-.26.31.088-.056.229-.063.223.128l-.01.64c-.034-.096-.097-.121-.175-.121-.106 0-.097-.138-.078-.26-.056.038-.112.107-.094.272-.046.003-.078.047-.103.11.032.068.07.103.103.112a.312.312 0 0 0 .094.263c-.022-.107-.028-.279.078-.279.044 0 .075.066.075.172 0 .17-.093.303-.187.303-.066 0-.203-.1-.203-.384Zm.597 3.881c-.079-.31-.444-1.787-.557-2.253a1.285 1.285 0 0 1-.037-.315c0-.285.137-.385.215-.385.094 0 .188.135.188.303 0 .107-.031.172-.075.172-.106 0-.1-.172-.078-.278a.312.312 0 0 0-.094.263c-.037.009-.072.043-.103.112.025.063.056.11.103.11-.022.162.038.234.094.271-.019-.119-.028-.26.078-.26.078 0 .14-.024.175-.121l.01.64c.002.191-.135.188-.223.129.035.222.104.34.26.31-.038.03-.078.1-.078.23 0 .182.075.379.128.438a.85.85 0 0 0 .128-.438c0-.134-.04-.203-.078-.23.16.03.228-.091.26-.31-.088.056-.229.062-.223-.128l.01-.641c.034.097.097.122.175.122.106 0 .097.137.078.26.056-.038.112-.107.094-.273.046-.003.078-.046.103-.109-.032-.069-.07-.103-.103-.112a.312.312 0 0 0-.094-.263c.022.106.028.278-.078.278-.044 0-.075-.065-.075-.172 0-.168.093-.303.187-.303.078 0 .216.1.216.385 0 .112-.016.218-.038.315-.125.466-.49 1.944-.568 2.253Z" fill="#FEC50C"/><path d="M15.5 2.5v11H.5v-11h15ZM16 2H0v12h16V2Z" fill="#AFBDC6"/></svg>
