<!--
* SPDX-FileCopyrightText: © 2020 Liferay, Inc. <https://liferay.com>
* SPDX-FileCopyrightText: © 2020 Contributors to the project Clay <https://github.com/liferay/clay/graphs/contributors>
*
* SPDX-License-Identifier: BSD-3-Clause
-->
<svg width="16" height="16" viewBox="0 0 16 16" fill="none" xmlns="http://www.w3.org/2000/svg">
<path d="M16 2H0V14H16V2Z" fill="#B0BEC9"/>
<path d="M15.5 2.5094H0.5V6.0094H15.5V2.5094Z" fill="#0094CE"/>
<path d="M15.5 10H0.5V13.5H15.5V10Z" fill="white"/>
<path d="M15.5 6H0.5V10H15.5V6Z" fill="#4C4C4E"/>
<path d="M16 2H0V14H16V2Z" fill="#B0BEC9"/>
<path d="M15.5 2.5H0.5V13.5H15.5V2.5Z" fill="#E03232"/>
<path d="M8 9.24063L13.8094 13.5H15.5V12.2594L9.69063 8L15.5 3.74062V2.5H13.8094L8 6.75938L2.19062 2.5H0.5V3.74062L6.30937 8L0.5 12.2594V13.5H2.19062L8 9.24063Z" fill="#75BD4A"/>
<path d="M15.5 7H9V2.5H7V7H0.5V9H7V13.5H9V9H15.5V7Z" fill="white"/>
</svg>
