<!--
* SPDX-FileCopyrightText: © 2020 Liferay, Inc. <https://liferay.com>
* SPDX-FileCopyrightText: © 2020 Contributors to the project Clay <https://github.com/liferay/clay/graphs/contributors>
*
* SPDX-License-Identifier: BSD-3-Clause
-->
<svg viewBox="0 0 16 16" xmlns="http://www.w3.org/2000/svg"><path d="M16 2H0v12h16V2Z" fill="#B0BEC9"/><path d="M15.5 2.5H.5v3h15v-3Z" fill="#75BD4A"/><path d="M15.5 10.5H.5v3h15v-3Z" fill="#E03232"/><path d="M15.5 5.5H.5v5h15v-5Z" fill="#fff"/><path opacity=".5" d="M1.519 4.481H1V5h.519v-.52Zm1.037 0h-.519V5h.52v-.52Zm1.038 0h-.519V5h.519v-.52Zm1.037 0h-.518V5h.518v-.52Zm1.035 0h-.52V5h.52v-.52Zm1.037 0h-.519V5h.52v-.52Zm1.037 0h-.518V5h.519v-.52Zm1.038 0H8.26V5h.52v-.52Zm1.038 0h-.52V5h.52v-.52Zm1.037 0h-.519V5h.52v-.52Zm1.037 0h-.518V5h.519v-.52Zm1.035 0h-.519V5h.519v-.52Zm1.038 0h-.52V5h.52v-.52Zm1.037 0h-.519V5H15v-.52ZM1.519 11H1v.519h.519V11Zm1.037 0h-.519v.519h.52V11Zm1.038 0h-.519v.519h.519V11Zm1.037 0h-.518v.519h.518V11Zm1.035 0h-.52v.519h.52V11Zm1.037 0h-.519v.519h.52V11Zm1.037 0h-.518v.519h.519V11Zm1.038 0H8.26v.519h.52V11Zm1.038 0h-.52v.519h.52V11Zm1.037 0h-.519v.519h.52V11Zm1.037 0h-.518v.519h.519V11Zm1.035 0h-.519v.519h.519V11Zm1.038 0h-.52v.519h.52V11ZM15 11h-.519v.519H15V11Z" fill="#fff"/><path d="M7.938 9.125a1.25 1.25 0 1 0 0-2.5 1.25 1.25 0 0 0 0 2.5Z" fill="#E03232"/></svg>
