<!--
* SPDX-FileCopyrightText: © 2020 Liferay, Inc. <https://liferay.com>
* SPDX-FileCopyrightText: © 2020 Contributors to the project Clay <https://github.com/liferay/clay/graphs/contributors>
*
* SPDX-License-Identifier: BSD-3-Clause
-->
<svg width="16" height="16" viewBox="0 0 16 16" fill="none" xmlns="http://www.w3.org/2000/svg">
<path d="M16 2H0V14H16V2Z" fill="#C0CFD8"/>
<path d="M15.5 2.5H0.5V13.5H15.5V2.5Z" fill="#75BD4A"/>
<path d="M6.26885 3.3844C6.25635 3.3844 6.23447 3.39065 6.20635 3.4094C6.14385 3.45315 6.01572 3.5844 6.0126 3.7344C6.00947 3.81877 5.99385 3.81877 6.0501 3.87502C6.09072 3.9344 6.13135 3.92815 6.2126 3.8844C6.25947 3.85002 6.2751 3.82815 6.29072 3.7719C6.30947 3.67502 6.1876 3.81877 6.17197 3.7094C6.14385 3.6094 6.22197 3.56877 6.29697 3.4719C6.29697 3.4219 6.3001 3.3844 6.26885 3.3844ZM7.45635 3.39065C7.43447 3.39377 7.40635 3.4219 7.36885 3.49377C7.34072 3.56877 7.22197 3.67815 7.30635 3.90627C7.37822 4.05002 7.40635 4.28752 7.3751 4.55002C7.3251 4.62502 7.31572 4.65002 7.2501 4.72502C7.15947 4.8219 7.0626 4.7969 6.9876 4.76252C6.91885 4.71565 6.8626 4.69065 6.83135 4.54065C6.8376 4.30315 6.8501 3.91252 6.80635 3.82815C6.74072 3.70002 6.6376 3.7469 6.59072 3.7844C6.37197 3.9844 6.26572 4.31877 6.2001 4.58752C6.14072 4.78127 6.0751 4.72502 6.03135 4.6469C5.92197 4.54377 5.9126 3.73752 5.78135 3.8719C5.56885 4.47815 5.90322 5.14377 6.13447 5.07815C6.3001 5.1469 6.40635 4.82815 6.4751 4.48127C6.52197 4.3844 6.55635 4.3719 6.58135 4.4219C6.5751 4.8844 6.61572 4.98752 6.73447 5.12815C7.0001 5.3344 7.21885 5.15315 7.2376 5.13752C7.25322 5.1219 7.44385 4.93127 7.44385 4.93127C7.49072 4.88127 7.5501 4.88127 7.61572 4.9219C7.67822 4.97815 7.67197 5.07815 7.80635 5.1469C7.91885 5.19377 8.1626 5.1594 8.21885 5.0594C8.29385 4.92815 8.3126 4.8844 8.34697 4.8344C8.4001 4.76252 8.49385 4.79377 8.49385 4.81565C8.48447 4.85627 8.43135 4.8969 8.46885 4.96877C8.53447 5.01877 8.54697 4.98752 8.5876 4.97502C8.72197 4.9094 8.8251 4.61877 8.8251 4.61877C8.83135 4.5094 8.76885 4.51877 8.72822 4.54065C8.67822 4.5719 8.67197 4.5844 8.62197 4.61565C8.55635 4.62502 8.42822 4.66877 8.36572 4.5719C8.3001 4.45315 8.3001 4.29065 8.25322 4.1719C8.25322 4.16252 8.16572 3.9844 8.24697 3.97502C8.2876 3.98127 8.37197 4.00627 8.3876 3.93127C8.42822 3.8594 8.29697 3.66252 8.20635 3.5594C8.12822 3.4719 8.01885 3.46252 7.9126 3.55002C7.8376 3.61877 7.8501 3.69377 7.83447 3.76565C7.81572 3.8469 7.81885 3.95002 7.90322 4.0594C7.97822 4.20315 8.10947 4.39065 8.06572 4.65315C8.06572 4.65315 7.9876 4.77815 7.8501 4.76252C7.79385 4.75002 7.7001 4.72502 7.6501 4.36252C7.6126 4.08752 7.65947 3.70002 7.54385 3.51877C7.51572 3.45002 7.49385 3.3844 7.45635 3.39065ZM7.08135 3.41877C7.04697 3.4219 7.00635 3.46252 6.9751 3.54377C6.94697 3.60315 6.9126 3.9219 6.91885 3.9219C6.89697 4.01565 7.01885 4.05627 7.07197 3.9344C7.15322 3.71252 7.15322 3.61877 7.15947 3.5219C7.14697 3.45002 7.11572 3.41565 7.08135 3.41877ZM8.46572 3.44377C8.42822 3.4469 8.4001 3.46877 8.39072 3.5219C8.3751 3.6469 8.38447 3.71565 8.40322 3.8219C8.41885 3.89065 8.52197 4.0094 8.57197 4.07815C8.8126 4.40002 9.04385 4.72502 9.26572 5.0594C9.3001 5.3094 9.32822 5.55315 9.34385 5.79377C9.38135 6.32502 9.39072 6.98752 9.35635 7.55002C9.45635 7.55315 9.61572 7.38752 9.67197 7.1469C9.70947 6.81252 9.65947 6.13127 9.65635 5.9344C9.65635 5.85315 9.6501 5.75315 9.64385 5.65315C9.90322 6.07815 10.1563 6.52815 10.4032 7.01877C10.4938 6.97502 10.472 6.46877 10.422 6.3969C10.2251 5.9719 9.9501 5.55002 9.8626 5.39065C9.83135 5.33127 9.7251 5.16877 9.59697 4.98127C9.57197 4.71252 9.54697 4.48752 9.53135 4.41877C9.49072 4.1344 9.64697 4.45002 9.6251 4.28752C9.5751 4.00315 9.41885 3.81252 9.23447 3.55315C9.1751 3.46877 9.1751 3.45315 9.08447 3.57502C9.02822 3.70002 9.03135 3.80315 9.04697 3.90002C9.02197 3.86565 8.99385 3.82502 8.9501 3.7719C8.79072 3.6344 8.78135 3.62815 8.6501 3.51565C8.60635 3.4844 8.5251 3.43752 8.46572 3.44377ZM12.5751 3.48752C12.5563 3.4844 12.5376 3.49377 12.5157 3.52502C12.4751 3.56252 12.4282 3.62815 12.4313 3.71252C12.4407 3.86252 12.4688 4.01565 12.4782 4.16252C12.4813 4.18127 12.4845 4.20315 12.4907 4.2219C12.4751 4.20002 12.4595 4.1844 12.4532 4.17815C12.1626 3.8719 12.5876 4.12815 12.397 3.89065C12.2376 3.71565 12.1907 3.6594 12.0532 3.55315C11.9845 3.5094 11.9438 3.42502 11.922 3.56877C11.9126 3.6969 11.9032 3.84377 11.9126 3.95002C11.9126 4.0094 11.9751 4.1219 12.0251 4.18752C12.2188 4.42502 12.4188 4.68127 12.6157 4.94377C12.6563 5.4844 12.6688 5.97815 12.7126 6.51877C12.7063 6.75002 12.6345 7.05627 12.5688 7.08752C12.5688 7.08752 12.4657 7.1469 12.397 7.08127C12.347 7.06252 12.147 6.7469 12.147 6.7469C12.0438 6.65315 11.9751 6.68127 11.9032 6.7469C11.7032 6.94065 11.6126 7.30627 11.4751 7.55627C11.4407 7.61252 11.3407 7.6594 11.2313 7.55315C10.9501 7.16877 11.1157 6.62502 11.0813 6.76565C10.8313 7.0469 10.9438 7.51252 11.0001 7.61252C11.0813 7.77815 11.1501 7.88127 11.3095 7.96252C11.4563 8.06877 11.5688 8.00315 11.6313 7.92815C11.7782 7.77502 11.7813 7.38752 11.8501 7.3094C11.9001 7.16877 12.0188 7.19377 12.0782 7.25627C12.1345 7.33752 12.2032 7.39377 12.2876 7.43752C12.4251 7.5594 12.5876 7.58127 12.7501 7.46877C12.8595 7.40627 12.9313 7.32815 12.997 7.16877C13.0657 6.9844 13.0313 6.01565 13.0157 5.47502C13.1188 5.6219 13.222 5.76877 13.322 5.91877C13.3657 6.39065 13.3876 6.85627 13.372 7.30627C13.3626 7.39377 13.6813 7.04065 13.6813 6.8719C13.6813 6.72502 13.6813 6.59065 13.6813 6.46877C13.8376 6.71877 13.9876 6.96877 14.1313 7.22502C14.2188 7.17815 14.1907 6.67815 14.1345 6.6094C13.9845 6.3594 13.7938 6.09065 13.647 5.88127C13.6188 5.61877 13.5782 5.30627 13.5595 5.21252C13.5313 5.06252 13.5032 4.84065 13.4595 4.66252C13.447 4.59377 13.4126 4.37502 13.422 4.35315C13.4407 4.30315 13.5063 4.35315 13.5376 4.2969C13.5876 4.24377 13.3688 3.6844 13.2595 3.52502C13.2188 3.45315 13.147 3.47815 13.0595 3.59377C12.9782 3.66877 13.0063 3.84377 13.0376 4.01252C13.1188 4.43752 13.1907 4.86877 13.2501 5.30002C13.1438 5.14065 13.0126 4.95002 12.8876 4.76565C12.8845 4.7469 12.872 4.68127 12.872 4.68127C12.872 4.67502 12.8532 4.3344 12.8407 4.25315C12.8376 4.21877 12.8313 4.2094 12.8657 4.21565C12.9032 4.2469 12.9063 4.2469 12.9282 4.2594C12.9657 4.26565 12.997 4.20315 12.9751 4.1469C12.8626 3.93752 12.747 3.72502 12.6345 3.51565C12.6063 3.50315 12.5907 3.49065 12.5751 3.48752ZM1.97197 3.4969C1.90947 3.49377 1.8376 3.5344 1.86572 3.6094C1.8501 3.65002 1.99072 3.79065 2.0126 3.86877C2.03447 3.9219 1.99072 4.10002 2.0376 4.11565C2.07822 4.1344 2.1376 3.99377 2.15947 3.86565C2.17197 3.79377 2.1626 3.55315 1.99697 3.50315C1.99072 3.50002 1.98135 3.4969 1.97197 3.4969ZM14.0501 3.50002C14.0345 3.50002 14.0188 3.52502 13.9907 3.58127C13.9251 3.68752 13.9032 3.87502 13.9282 4.04377C14.0845 5.09377 14.2001 6.11252 14.222 7.0469C14.2095 7.1344 14.2032 7.18127 14.1626 7.29377C14.072 7.41252 13.9688 7.5594 13.8751 7.63127C13.7813 7.70315 13.5782 7.76877 13.5095 7.8219C13.3001 7.94377 13.297 8.0844 13.4688 8.08752C13.7626 8.05315 14.1095 8.02815 14.347 7.66877C14.4095 7.56877 14.4845 7.29377 14.4907 7.12502C14.5126 6.14065 14.4782 5.18127 14.3313 4.46877C14.322 4.40002 14.2907 4.24065 14.3032 4.21877C14.322 4.16877 14.4188 4.22502 14.4532 4.16877C14.5032 4.11877 14.2063 3.7344 14.1001 3.5719C14.0813 3.53127 14.0688 3.4969 14.0501 3.50002ZM10.9751 3.51565C10.9626 3.51877 10.9438 3.53752 10.9126 3.57815C10.8313 3.8469 10.8032 4.06565 10.8345 4.23127C11.0438 5.32815 11.2595 6.32815 11.2251 7.37502C11.3251 7.37502 11.4407 7.1469 11.4907 6.91877C11.5188 6.60627 11.472 6.41565 11.4657 6.2344C11.4563 6.05002 11.2595 4.56252 11.2188 4.42502C11.1688 4.16252 11.4126 4.39065 11.3876 4.23752C11.3032 4.04377 11.0938 3.76565 11.0282 3.5969C11.0001 3.55315 10.997 3.51252 10.9751 3.51565ZM3.4876 3.53752C3.4626 3.54065 3.4376 3.56252 3.42822 3.60002C3.42197 3.6219 3.4376 3.66252 3.41885 3.6719C3.40635 3.6844 3.3626 3.67502 3.3626 3.61252C3.3626 3.59065 3.34697 3.5719 3.3376 3.5594C3.32822 3.55315 3.32197 3.55315 3.30635 3.55315C3.2876 3.55315 3.2876 3.5594 3.2751 3.57502C3.26885 3.59065 3.2626 3.6094 3.2626 3.62815C3.25947 3.65002 3.2501 3.6594 3.23447 3.66252C3.21572 3.66252 3.22197 3.66565 3.20635 3.65627C3.19697 3.6469 3.1876 3.64377 3.1876 3.62502C3.1876 3.60627 3.18447 3.58127 3.17822 3.56877C3.16885 3.5594 3.15635 3.55315 3.14385 3.55002C3.06572 3.55002 3.05947 3.64065 3.06572 3.67502C3.05947 3.68127 3.05635 3.84065 3.1626 3.8844C3.30635 3.95315 3.5751 3.92502 3.5626 3.69377C3.5626 3.6719 3.55947 3.60627 3.55635 3.58752C3.54072 3.54377 3.5126 3.53127 3.4876 3.53752ZM5.40947 3.53752C5.35947 3.54065 5.31572 3.55315 5.27822 3.57502C5.18447 3.66565 5.1626 3.81252 5.23447 3.90315C5.30635 3.93752 5.38135 4.0094 5.33135 4.05002C5.1251 4.26877 4.59072 4.63752 4.5626 4.70315C4.5626 4.70315 4.5626 4.70315 4.5626 4.70627C4.5626 4.70627 4.5626 4.70627 4.5626 4.7094V4.71252C4.59072 4.73127 4.9251 4.73127 4.9626 4.71252C5.07822 4.66877 5.6251 4.0469 5.6251 4.0469C5.59697 4.0219 5.57197 4.00627 5.54385 3.98127C5.5126 3.95627 5.51572 3.92815 5.54385 3.90315C5.67822 3.82502 5.6376 3.65002 5.56572 3.5719C5.51572 3.54377 5.45947 3.53752 5.40947 3.53752ZM10.4313 3.54065C10.4157 3.54065 10.4001 3.56565 10.372 3.6219C10.3063 3.72815 10.2626 3.91252 10.2688 4.0844C10.4095 5.05315 10.4532 5.90002 10.5438 6.86877C10.5501 6.96252 10.5376 7.0969 10.4751 7.15315C10.2438 7.39377 9.9126 7.69065 9.5501 7.82815C9.5126 7.8719 9.64697 8.05627 9.82197 8.05627C10.1157 8.0219 10.372 7.85627 10.6126 7.42502C10.6751 7.32502 10.7876 7.10627 10.7907 6.94065C10.8126 5.95627 10.7407 5.19377 10.5938 4.48127C10.5845 4.41252 10.5907 4.33127 10.6032 4.3094C10.622 4.28752 10.6876 4.3094 10.722 4.25315C10.772 4.20315 10.5876 3.77815 10.4845 3.61565C10.4626 3.5719 10.4501 3.53752 10.4313 3.54065ZM2.65322 3.56877C2.6126 3.57502 2.5751 3.60627 2.55635 3.65002C2.5501 3.80627 2.5501 3.9594 2.56572 4.10315C2.6376 4.35315 2.65947 4.57502 2.69385 4.83127C2.70322 5.17502 2.49385 4.98127 2.50322 4.8094C2.5501 4.58752 2.5376 4.23752 2.49697 4.15002C2.4626 4.06252 2.42197 4.04065 2.34072 4.05315C2.2751 4.05002 2.10635 4.2344 2.05947 4.53752C2.05947 4.53752 2.01885 4.69377 2.00322 4.8344C1.98135 4.99065 1.8751 5.10315 1.80322 4.81252C1.74072 4.60002 1.7001 4.08127 1.59697 4.20315C1.56572 4.6094 1.53135 5.32502 1.8751 5.40002C2.29385 5.44065 2.0626 4.69377 2.2126 4.5594C2.24072 4.49377 2.29385 4.49065 2.3001 4.57502V5.2094C2.29697 5.41565 2.43135 5.47502 2.5376 5.51877C2.64697 5.5094 2.71885 5.51252 2.7626 5.61877C2.77822 5.9844 2.79697 6.35002 2.81572 6.71565C2.81572 6.71565 3.06885 6.78752 3.08135 6.10002C3.09385 5.69377 3.0001 5.35627 3.05635 5.27502C3.05947 5.1969 3.15635 5.19377 3.2251 5.23127C3.33447 5.3094 3.38447 5.40315 3.55322 5.36565C3.8126 5.29377 3.96572 5.16877 3.97197 4.9719C3.95635 4.7844 3.93447 4.59377 3.85322 4.40627C3.86572 4.3719 3.80322 4.28127 3.81572 4.25002C3.8626 4.3219 3.93135 4.31565 3.94697 4.25002C3.90322 4.10627 3.83447 3.96565 3.7251 3.90627C3.63447 3.82502 3.5001 3.84377 3.4501 4.0094C3.42822 4.20315 3.52197 4.43127 3.6626 4.61877C3.69385 4.69065 3.73447 4.81252 3.71572 4.9219C3.64072 4.96565 3.56572 4.9469 3.50322 4.88127C3.50322 4.88127 3.29697 4.72815 3.29697 4.69377C3.3501 4.34377 3.30947 4.30315 3.27822 4.20627C3.25635 4.0719 3.19385 4.03127 3.14072 3.93752C3.09072 3.8844 3.01885 3.8844 2.9876 3.93752C2.89697 4.09377 2.9376 4.4344 3.00322 4.5844C3.0501 4.72502 3.12197 4.8094 3.09072 4.8094C3.0626 4.88752 3.00322 4.86877 2.9626 4.77815C2.90322 4.59065 2.89072 4.3094 2.89072 4.1844C2.87197 4.02815 2.85322 3.69377 2.7501 3.6094C2.71572 3.57815 2.68447 3.56565 2.65322 3.56877ZM4.11885 3.5719C4.09697 3.57502 4.0751 3.58752 4.04697 3.59377C3.95947 3.6219 3.8751 3.70002 3.9001 3.8469C4.00635 4.4844 4.0751 4.9719 4.17822 5.6094C4.19385 5.6844 4.13135 5.7844 4.0501 5.7719C3.9126 5.67815 3.87822 5.49065 3.64385 5.50002C3.4751 5.50315 3.28135 5.68752 3.25635 5.86565C3.22822 6.00627 3.21885 6.1594 3.25635 6.2844C3.3751 6.42815 3.51885 6.41252 3.64385 6.38127C3.74697 6.33752 3.83135 6.23752 3.86885 6.26252C3.89072 6.30002 3.86572 6.6344 3.38447 6.89065C3.0876 7.02502 2.8501 7.05627 2.7251 6.81252C2.64697 6.66252 2.73135 6.0844 2.5376 6.21877C1.9626 7.6969 3.88135 7.90315 4.09697 6.28127C4.10947 6.2344 4.15322 6.19065 4.18447 6.20002C4.19697 6.20627 4.20947 6.22502 4.2126 6.25627C4.16885 7.72815 2.72822 7.82815 2.48447 7.36565C2.4251 7.25627 2.40635 7.01252 2.4001 6.86877C2.3876 6.78127 2.36572 6.73127 2.34072 6.7094C2.28135 6.66565 2.20322 6.78127 2.1876 6.97815C2.1626 7.13752 2.16885 7.18127 2.16885 7.3344C2.24697 8.4969 4.09697 7.9969 4.39697 7.03752C4.54697 6.54065 4.39385 6.16877 4.44385 6.1219C4.44385 6.1219 4.44385 6.1219 4.44697 6.1219C4.44697 6.1219 4.44697 6.1219 4.4501 6.1219C4.4501 6.1219 4.4501 6.1219 4.45322 6.1219C4.45635 6.1219 4.45635 6.1219 4.45947 6.1219C4.64385 6.31877 4.9001 6.1469 4.95947 6.07815C4.98447 6.04377 5.04385 6.0219 5.0876 6.06565C5.23135 6.16877 5.48135 6.11877 5.53447 5.93752C5.56572 5.7594 5.59072 5.57815 5.59697 5.38752C5.50322 5.41565 5.42822 5.43752 5.39697 5.46877C5.39072 5.47815 5.38447 5.4844 5.38447 5.49377C5.3751 5.5469 5.36885 5.60002 5.35947 5.65315C5.35947 5.65627 5.35635 5.66252 5.35635 5.66565C5.35322 5.6719 5.34697 5.67815 5.3376 5.68127C5.30322 5.70002 5.24697 5.68752 5.24385 5.64065C5.2001 5.43752 5.01572 5.41252 4.90635 5.72502C4.83135 5.7844 4.69385 5.7969 4.68135 5.70627C4.7001 5.4969 4.61572 5.46877 4.44385 5.56565C4.3876 5.15002 4.33447 4.75315 4.28135 4.33752C4.35322 4.3344 4.41572 4.38752 4.48135 4.30627C4.4126 4.08752 4.2626 3.6469 4.18135 3.60315C4.18135 3.60315 4.18135 3.60315 4.17822 3.60315C4.1751 3.60002 4.16885 3.59377 4.16572 3.59065C4.16572 3.59065 4.1626 3.58752 4.15947 3.58752C4.15947 3.58752 4.15635 3.5844 4.15322 3.5844C4.1501 3.58127 4.14697 3.58127 4.14072 3.58127C4.13447 3.5719 4.12822 3.5719 4.11885 3.5719ZM9.84072 3.57502C9.76572 3.5719 9.6876 3.61877 9.71885 3.71252C9.7001 3.76252 9.8751 3.9344 9.90635 4.02502C9.95635 4.16877 9.86885 4.30315 9.91885 4.32502C9.96885 4.3469 10.0345 4.17815 10.0626 4.0219C10.0907 3.89377 10.0001 3.6344 9.8751 3.58127C9.8626 3.57502 9.85322 3.57502 9.84072 3.57502ZM5.38447 3.73127C5.41885 3.72815 5.45947 3.7594 5.47822 3.80315C5.5001 3.85002 5.4876 3.89377 5.45322 3.90315C5.41885 3.91252 5.3751 3.88127 5.35322 3.8344C5.33135 3.78752 5.34385 3.74377 5.37822 3.7344C5.37822 3.7344 5.38135 3.73127 5.38447 3.73127ZM13.6532 3.9469C13.5876 3.94377 13.5126 3.9969 13.5407 4.09377C13.5251 4.1469 13.6845 4.33127 13.7095 4.4344C13.7345 4.50627 13.6751 4.73752 13.722 4.7594C13.7657 4.7844 13.8282 4.60002 13.8532 4.43127C13.8657 4.33752 13.797 4.01252 13.6813 3.95315C13.672 3.95002 13.6626 3.9469 13.6532 3.9469ZM9.08135 4.0594C9.0876 4.08752 9.09385 4.11252 9.09697 4.14065C9.10947 4.20002 9.12197 4.2594 9.13447 4.31877C9.08135 4.2469 9.0376 4.18752 9.01885 4.16565C8.9001 4.02815 9.02197 4.07502 9.08135 4.0594ZM10.1345 4.57815C10.1095 4.58127 10.0845 4.60627 10.0751 4.64065C10.0688 4.66252 10.0876 4.70002 10.0657 4.71252C10.0532 4.72502 10.0063 4.71877 10.0095 4.65315C10.0095 4.63127 9.99385 4.6094 9.98447 4.5969C9.9751 4.59065 9.96885 4.59065 9.95322 4.59065C9.93447 4.59065 9.93447 4.5969 9.92197 4.61252C9.91885 4.62815 9.90947 4.6469 9.90947 4.66565C9.90635 4.68752 9.9001 4.6969 9.88135 4.70002C9.8626 4.70002 9.86572 4.70315 9.8501 4.69377C9.84072 4.6844 9.83135 4.68127 9.83135 4.66252C9.83135 4.64377 9.82822 4.61877 9.82197 4.60627C9.8126 4.5969 9.8001 4.59065 9.7876 4.58752C9.70947 4.58752 9.70322 4.67502 9.70947 4.7094C9.70322 4.71565 9.7001 4.87502 9.80635 4.9219C9.9501 4.99065 10.2188 4.9594 10.2063 4.72815C10.2063 4.70627 10.2001 4.64065 10.2001 4.6219C10.1876 4.58752 10.1595 4.57502 10.1345 4.57815ZM5.3251 4.62502C5.30635 4.6219 5.28447 4.62815 5.25635 4.6469C5.13135 4.71565 5.08135 4.91877 5.15947 5.03752C5.23447 5.14065 5.3501 5.10315 5.36572 5.10315C5.49072 5.11877 5.5626 4.86877 5.5626 4.86877C5.5626 4.86877 5.56572 4.80002 5.41885 4.93127C5.35635 4.94377 5.34697 4.91877 5.33135 4.8844C5.31885 4.81877 5.32197 4.75315 5.3501 4.69065C5.36885 4.65315 5.35635 4.62815 5.3251 4.62502ZM12.1251 4.65627C12.0532 4.65315 11.9813 4.6969 11.9595 4.79377C11.9595 4.85002 11.9845 4.88127 11.9813 4.9344C11.9751 4.96252 11.9438 4.9844 11.872 4.9469C11.8845 4.93752 11.8251 4.85315 11.8251 4.85315C11.7688 4.81877 11.6938 4.85627 11.6438 4.88752C11.6157 4.93752 11.597 5.0219 11.6282 5.10627C11.7095 5.25627 11.9876 5.5094 12.1188 5.51252C12.122 5.37815 12.1345 5.20002 12.1407 5.08752C12.1438 5.0469 12.1532 5.00002 12.1938 4.98752C12.2345 4.97815 12.3032 5.02815 12.3063 4.9844C12.3001 4.90002 12.2813 4.7719 12.2345 4.71252C12.2063 4.67815 12.1657 4.6594 12.1251 4.65627ZM6.49697 5.12502C6.49385 5.12502 6.49385 5.12815 6.49072 5.12815C6.49072 5.12815 6.4876 5.12815 6.4876 5.13127C6.4751 5.14065 6.45635 5.16565 6.41885 5.19377C6.35635 5.26565 6.34385 5.31252 6.3501 5.45627C6.35322 5.4719 6.46885 5.79065 6.56572 6.01565C6.63135 6.25002 6.69072 6.51565 6.64697 6.76877C6.49385 7.10315 6.18447 7.40002 5.8876 7.56252C5.7376 7.61252 5.60635 7.59377 5.56885 7.56252C5.48135 7.50315 5.48135 7.40002 5.48447 7.38127C5.73447 7.20627 6.02197 7.06565 6.24697 6.59377C6.3126 6.41252 6.33447 6.30627 6.26885 6.02502C6.24385 5.9219 6.2126 5.8344 6.14072 5.76252C6.18447 5.74065 6.29385 5.82502 6.3126 5.7719C6.2876 5.63752 6.19697 5.4594 6.09385 5.36877C6.00322 5.28752 5.90635 5.27815 5.8251 5.35315C5.73135 5.40315 5.7126 5.59065 5.75635 5.75002C5.80635 5.8719 5.9376 5.89377 6.03447 6.13752C6.0376 6.15315 6.06572 6.31877 6.01885 6.38752C5.98135 6.5094 5.48135 6.90002 5.44697 6.92502L5.44385 6.92815V6.92502C5.44385 6.91565 5.44385 6.89065 5.44385 6.85002C5.44072 6.77502 5.47197 6.6094 5.46885 6.58127C5.30322 6.68752 5.2501 7.01252 5.21885 7.1094C4.80322 7.3969 4.32822 7.61252 4.05635 7.90315C3.91572 8.12502 5.03447 7.65002 5.16572 7.59065L5.16885 7.59377C5.19385 7.6219 5.19697 7.71565 5.26885 7.80315C5.38447 7.96252 5.63135 8.0594 5.8751 7.9969C6.27822 7.85002 6.5126 7.57502 6.7501 7.26877C6.78447 7.21877 6.8376 7.18127 6.8876 7.21877C7.0501 7.5844 7.51885 7.84377 8.1251 7.86877C8.26572 7.6969 8.2001 7.61252 8.14072 7.57815C8.12197 7.56565 7.8376 7.45627 7.79385 7.34377C7.76572 7.24065 7.83447 7.15002 7.96885 7.08127C8.35947 7.0344 8.74072 6.98127 9.1126 6.86252C9.11572 6.73752 9.19072 6.55002 9.2376 6.4719C9.27197 6.41565 9.29385 6.4094 9.3001 6.40315V6.40002C9.3001 6.3969 9.3001 6.39377 9.3001 6.38752L9.2376 6.35002L7.99385 6.34377C7.97822 6.33752 7.96572 6.33127 7.95947 6.32502C7.95947 6.32502 7.95947 6.32502 7.95635 6.3219V6.31877C7.95635 6.31877 7.95635 6.31877 7.95635 6.31565C7.9626 6.30627 7.97822 6.30002 7.99385 6.29377C8.29072 6.25315 8.81885 6.16565 8.85322 5.6594C8.84697 5.39377 8.74072 5.2219 8.41572 5.17502C8.17822 5.19377 8.00635 5.42502 8.03447 5.67815C8.02197 5.7469 8.05635 5.88127 7.9876 5.8969C7.53135 5.93752 7.03135 6.22502 7.01572 6.43127C7.01572 6.43127 7.01572 6.43127 7.0126 6.43127H7.00947H7.00635H7.00322H7.0001H6.99697C6.96885 6.4219 6.92822 6.37502 6.93447 6.30627C6.91572 5.95315 6.80322 5.55002 6.62197 5.24377C6.55635 5.17815 6.52822 5.15315 6.50947 5.15002C6.50947 5.15002 6.50947 5.15002 6.50635 5.15002C6.50322 5.12502 6.5001 5.12502 6.49697 5.12502ZM7.6876 5.31252C7.6626 5.31565 7.6376 5.33752 7.62822 5.37502C7.62197 5.3969 7.64072 5.43752 7.61885 5.4469C7.60635 5.4594 7.55947 5.45315 7.5626 5.38752C7.5626 5.36565 7.54697 5.34377 7.5376 5.33127C7.52822 5.32502 7.5251 5.32502 7.50635 5.32502C7.4876 5.32502 7.48447 5.33127 7.4751 5.3469C7.47197 5.36252 7.4626 5.38127 7.4626 5.40002C7.45947 5.4219 7.45322 5.43127 7.43447 5.4344C7.41572 5.4344 7.42197 5.43752 7.40635 5.42815C7.39697 5.41877 7.38447 5.41565 7.38447 5.3969C7.38447 5.37815 7.38135 5.35315 7.3751 5.34065C7.36572 5.33127 7.35322 5.32502 7.3376 5.3219C7.25947 5.3219 7.25322 5.4094 7.25947 5.44377C7.25322 5.45002 7.2501 5.6094 7.35635 5.65627C7.5001 5.72502 7.84072 5.6844 7.75635 5.46252C7.75635 5.44065 7.7501 5.37502 7.7501 5.35627C7.74072 5.3219 7.7126 5.3094 7.6876 5.31252ZM12.4907 5.5094C12.4876 5.5094 12.4845 5.5094 12.4782 5.5094C12.4782 5.5094 11.8157 5.98127 11.797 5.9969C11.7313 6.05627 11.7626 6.2594 11.797 6.23752C11.8438 6.25627 12.5126 5.80315 12.5001 5.75002C12.5313 5.75315 12.5438 5.51877 12.4907 5.5094ZM8.3126 5.58127C8.34072 5.57815 8.3751 5.58752 8.40947 5.60627C8.45947 5.6344 8.49072 5.67815 8.48447 5.7094V5.71252L8.48135 5.71565V5.71877C8.48135 5.71877 8.48135 5.71877 8.48135 5.7219C8.48135 5.7219 8.48135 5.7219 8.48135 5.72502C8.48135 5.72815 8.47822 5.73127 8.4751 5.73127C8.4501 5.75315 8.39697 5.75002 8.34385 5.71877C8.29385 5.69065 8.26572 5.6469 8.26885 5.61565V5.61252C8.26885 5.6094 8.27197 5.60627 8.27197 5.60002C8.27197 5.60002 8.27197 5.5969 8.2751 5.5969C8.2751 5.5969 8.27822 5.59377 8.28135 5.59065C8.29072 5.58752 8.3001 5.58127 8.3126 5.58127ZM2.50322 5.70002C2.15947 5.70627 1.65635 6.15002 1.64072 6.3969C2.00322 6.2219 2.35947 6.05627 2.72822 5.87502C2.66885 5.78752 2.7251 5.70627 2.50322 5.70002ZM3.61572 5.85315C3.6501 5.85315 3.68447 5.86877 3.70322 5.91565C3.71885 5.9594 3.70322 6.00315 3.68447 6.02815V6.03127C3.66885 6.05002 3.61885 6.04377 3.58447 6.04377C3.54072 6.04065 3.51885 6.0344 3.49385 6.00002C3.48135 5.9594 3.51885 5.9219 3.5376 5.89065C3.54072 5.88752 3.54385 5.8844 3.54385 5.88127C3.55635 5.86877 3.57822 5.8594 3.60322 5.85627C3.60635 5.85627 3.6126 5.85315 3.61572 5.85315ZM12.3626 5.99065C12.3001 5.9969 12.2438 6.05627 12.2688 6.15002C12.2532 6.20315 12.3532 6.39377 12.3782 6.49377C12.4032 6.56565 12.347 6.76877 12.397 6.79065C12.4407 6.81565 12.5595 6.66877 12.5563 6.49065C12.5688 6.3969 12.522 6.05315 12.4063 5.9969C12.3907 5.99065 12.3751 5.99065 12.3626 5.99065ZM4.93447 6.32502C4.88135 6.32815 4.83135 6.35627 4.85322 6.4344C4.8501 6.49065 5.00635 6.55627 5.01572 6.6844C5.0376 6.73752 4.98135 6.90627 5.02822 6.9219C5.07197 6.94065 5.12822 6.80627 5.15322 6.68127C5.16572 6.61252 5.1001 6.37502 4.9876 6.33127C4.97197 6.32815 4.95322 6.32502 4.93447 6.32502ZM7.15635 6.63127C7.15947 6.63127 7.1626 6.63127 7.16885 6.63127C7.16885 6.63127 7.16885 6.63127 7.17197 6.63127C7.30947 6.66877 7.51572 6.6719 7.69072 6.69065C7.83447 6.70002 7.90635 6.81252 7.77197 6.8594C7.6376 6.90627 7.50947 6.94065 7.50947 7.1344C7.52822 7.23127 7.52197 7.28127 7.50947 7.30315C7.50947 7.30315 7.50635 7.30627 7.50635 7.3094H7.50322C7.5001 7.3094 7.5001 7.31252 7.49697 7.31252C7.49385 7.31252 7.49385 7.31252 7.49072 7.31252C7.45947 7.31565 7.4126 7.28752 7.37822 7.26877C7.29697 7.2094 7.06572 7.06565 7.03135 6.7594C7.02197 6.6969 7.0751 6.6344 7.15635 6.63127ZM1.72822 6.86565C1.71885 6.86565 1.70322 6.89065 1.67822 6.9219C1.4751 7.2469 1.45635 7.7344 1.56885 7.87815C1.62822 7.9469 1.72822 7.97815 1.8001 7.95627C1.92822 7.90002 1.98447 7.64065 1.95322 7.54377C1.90947 7.47815 1.8751 7.46565 1.83447 7.5219C1.74385 7.70627 1.70635 7.58127 1.69697 7.47815C1.68447 7.2844 1.70322 7.10315 1.72197 6.96252C1.7376 6.89065 1.7376 6.86565 1.72822 6.86565ZM8.69697 7.29377C8.68135 7.29377 8.66572 7.29377 8.6501 7.30315C8.64697 7.30315 8.50322 7.40002 8.45635 7.46877C8.42822 7.49065 8.43135 7.5094 8.44072 7.5469C8.4626 7.5969 8.5001 7.58127 8.54385 7.5594C8.60322 7.55002 8.63135 7.59065 8.6251 7.6594C8.59697 7.7469 8.6376 7.77815 8.6376 7.7844C8.6376 7.79065 8.69385 7.83752 8.75947 7.80002C8.89697 7.7469 8.98447 7.6969 9.17822 7.65315C9.22822 7.65315 9.2251 7.51565 9.14697 7.5094C9.04072 7.51565 8.94385 7.51877 8.8376 7.60315C8.77197 7.61877 8.7626 7.57815 8.74697 7.54377C8.73135 7.45627 8.78447 7.39377 8.77197 7.32815C8.77822 7.32815 8.74385 7.2969 8.69697 7.29377ZM13.1595 7.4594C13.1345 7.4594 13.1063 7.46252 13.0657 7.46565C13.022 7.47502 13.0095 7.49377 13.0001 7.54377C13.0032 7.6219 13.0501 7.61877 13.1001 7.65002C13.1282 7.68752 13.147 7.71877 13.097 7.77815C13.0501 7.8219 13.0188 7.84377 12.972 7.88752C12.9501 7.92502 12.9376 7.98127 13.0032 8.00002C13.1282 8.0344 13.4157 7.85002 13.4157 7.84377C13.4626 7.8094 13.447 7.74377 13.4438 7.74377C13.4157 7.71252 13.3563 7.73127 13.3157 7.72502C13.297 7.72502 13.2313 7.71565 13.2626 7.6594C13.2876 7.62502 13.297 7.60315 13.3157 7.5594C13.3345 7.51565 13.3188 7.48752 13.247 7.46565C13.2095 7.46252 13.1845 7.4594 13.1595 7.4594ZM11.2938 11.2344C11.0876 11.2875 11.0938 11.5031 11.2251 11.5969C9.04697 11.5969 5.7001 11.5594 4.98447 11.5594C4.58447 11.5594 3.3126 11.5125 3.29072 11.5125C3.5626 11.9094 3.95635 11.9907 4.47197 12C5.44072 12 9.9251 11.9875 11.2001 11.9875C11.1095 12.15 11.2095 12.4094 11.2782 12.4563C11.2782 12.4563 11.2813 12.4594 11.2845 12.4594C11.2876 12.4594 11.2907 12.4625 11.2938 12.4625H11.297C11.3813 12.4813 11.4188 12.4219 11.447 12.375C11.5845 12.3875 12.3563 12.4 12.4251 12.375C12.472 12.4469 12.5188 12.5125 12.6126 12.5C12.772 12.4656 12.897 12.45 12.9001 12.125C12.9001 12.125 12.8845 11.575 12.522 11.6094C12.4376 11.6219 12.197 11.6469 12.197 11.6469C11.9188 11.6125 11.7157 11.6094 11.4032 11.6C11.4313 11.5625 11.4813 11.4156 11.422 11.3625C11.4063 11.35 11.3813 11.3406 11.347 11.3438C11.347 11.3438 11.347 11.3438 11.3438 11.3438H11.3407C11.3407 11.3438 11.3376 11.3406 11.3345 11.3375C11.3345 11.3375 11.3313 11.3375 11.3313 11.3344C11.3157 11.3125 11.3063 11.2563 11.297 11.2406C11.3001 11.2344 11.297 11.2344 11.2938 11.2344C11.297 11.2344 11.297 11.2344 11.2938 11.2344ZM11.4438 12.0219C11.7626 12.0375 12.0626 12.025 12.3782 12.0406C12.4282 12.0844 12.4032 12.1813 12.372 12.2C12.372 12.2 12.3688 12.2031 12.3657 12.2031H12.3626H12.3595C12.2563 12.2 12.197 12.1969 12.0938 12.1969C12.0938 12.1906 12.0938 12.1875 12.0907 12.1813C12.0657 12.1094 11.8876 12.1125 11.847 12.1688C11.847 12.1688 11.847 12.1719 11.8438 12.1719C11.8407 12.1719 11.8438 12.175 11.8407 12.175C11.8376 12.175 11.8407 12.1781 11.8376 12.1813C11.8376 12.1844 11.8376 12.1875 11.8376 12.1875C11.8376 12.1906 11.8376 12.1938 11.8376 12.1969C11.697 12.2125 11.572 12.1938 11.4345 12.1875C11.3907 12.1344 11.3938 12.0438 11.4438 12.0219Z" fill="white"/>
</svg>
