<!--
* SPDX-FileCopyrightText: © 2022 Liferay, Inc. <https://liferay.com>
* SPDX-FileCopyrightText: © 2022 Contributors to the project Clay <https://github.com/liferay/clay/graphs/contributors>
*
* SPDX-License-Identifier: BSD-3-Clause
-->

<svg viewBox="0 0 16 16" xmlns="http://www.w3.org/2000/svg">
	<path d="M16 2H0v12h16V2Z" fill="#B0BEC9"/>
	<path d="M4 2.5H.5v11H4v-11Zm11.5 0H12v11h3.5v-11Z" fill="#E03232"/>
	<path d="M12 2.5H4v11h8v-11Z" fill="#fff"/>
	<path d="M9.434 9.384c0 .113.129.42.129.42l-1.16-.195c-.09-.015-.172-.015-.169.172l.075.569h-.262l.06-.569c0-.187-.082-.187-.173-.172l-1.159.2s.125-.303.125-.418c0-.147-.316-.357-.66-.657-.343-.303-.58-.456-.58-.49 0-.031.243-.025.243-.207 0-.178-.231-.853-.231-.853s.481.188.612.185c.132 0 .335-.263.335-.45 0 0 .628.794.76.734.13-.056-.241-1.619-.241-1.619s.375.341.503.3c.13-.04.497-.978.497-.978s.003-.012.012-.012c.006 0 .013.012.013.012s.368.935.5.972c.13.04.503-.303.503-.303s-.363 1.563-.232 1.622c.132.056.757-.744.757-.744 0 .188.206.45.334.45.131-.003.61-.19.61-.19s-.229.675-.226.856c0 .181.244.172.244.203 0 .031-.237.187-.578.494-.328.312-.64.518-.64.668Z" fill="#E03232"/>
</svg>