<svg xmlns="http://www.w3.org/2000/svg" viewBox="0 0 512 512">
	<rect y="64" fill="#B0BEC9" width="512" height="384"></rect>
	<rect x="16" y="80" fill="#0035A0" width="480" height="352"></rect>
	<rect x="208" y="80" fill="#FFFFFF" width="96" height="352"></rect>
	<rect x="16" y="208" fill="#FFFFFF" width="480" height="96"></rect>
	<polygon fill="#FFFFFF" points="256,315.5 414.8,432 496,432 496,372.5 337.2,256 496,139.5 496,80 414.8,80 256,196.5 97.2,80 16,80 16,139.5 174.8,256 16,372.5 16,432 97.2,432 "></polygon>
	<polygon fill="#E03232" points="256,295.7 441.9,432 496,432 496,392.3 310.1,256 496,119.7 496,80 441.9,80 256,216.3 70.1,80 16,80 16,119.7 201.9,256 16,392.3 16,432 70.1,432 "></polygon>
	<polygon fill="#E03232" points="496,224 288,224 288,80 224,80 224,224 16,224 16,288 224,288 224,432 288,432 288,288 496,288 "></polygon>
</svg>
