<!--
* SPDX-FileCopyrightText: © 2020 Liferay, Inc. <https://liferay.com>
* SPDX-FileCopyrightText: © 2020 Contributors to the project Clay <https://github.com/liferay/clay/graphs/contributors>
*
* SPDX-License-Identifier: BSD-3-Clause
-->
<svg viewBox="0 0 512 512" xmlns="http://www.w3.org/2000/svg">
	<rect fill="#B0BEC9" height="384" width="512" y="64"></rect>
	<rect fill="#75BD4A" height="96" width="480" x="16" y="80"></rect>
	<rect fill="#E03232" height="96" width="480" x="16" y="336"></rect>
	<rect fill="#FFFFFF" height="160" width="480" x="16" y="176"></rect>
	<rect fill="#FFFFFF" height="16.6" opacity="0.5" width="16.6" x="32" y="143.4"></rect>
	<rect fill="#FFFFFF" height="16.6" opacity="0.5" width="16.6" x="65.2" y="143.4"></rect>
	<rect fill="#FFFFFF" height="16.6" opacity="0.5" width="16.6" x="98.4" y="143.4"></rect>
	<rect fill="#FFFFFF" height="16.6" opacity="0.5" width="16.6" x="131.6" y="143.4"></rect>
	<rect fill="#FFFFFF" height="16.6" opacity="0.5" width="16.6" x="164.7" y="143.4"></rect>
	<rect fill="#FFFFFF" height="16.6" opacity="0.5" width="16.6" x="197.9" y="143.4"></rect>
	<rect fill="#FFFFFF" height="16.6" opacity="0.5" width="16.6" x="231.1" y="143.4"></rect>
	<rect fill="#FFFFFF" height="16.6" opacity="0.5" width="16.6" x="264.3" y="143.4"></rect>
	<rect fill="#FFFFFF" height="16.6" opacity="0.5" width="16.6" x="297.5" y="143.4"></rect>
	<rect fill="#FFFFFF" height="16.6" opacity="0.5" width="16.6" x="330.7" y="143.4"></rect>
	<rect fill="#FFFFFF" height="16.6" opacity="0.5" width="16.6" x="363.9" y="143.4"></rect>
	<rect fill="#FFFFFF" height="16.6" opacity="0.5" width="16.6" x="397" y="143.4"></rect>
	<rect fill="#FFFFFF" height="16.6" opacity="0.5" width="16.6" x="430.2" y="143.4"></rect>
	<rect fill="#FFFFFF" height="16.6" opacity="0.5" width="16.6" x="463.4" y="143.4"></rect>
	<rect fill="#FFFFFF" height="16.6" opacity="0.5" width="16.6" x="32" y="352"></rect>
	<rect fill="#FFFFFF" height="16.6" opacity="0.5" width="16.6" x="65.2" y="352"></rect>
	<rect fill="#FFFFFF" height="16.6" opacity="0.5" width="16.6" x="98.4" y="352"></rect>
	<rect fill="#FFFFFF" height="16.6" opacity="0.5" width="16.6" x="131.6" y="352"></rect>
	<rect fill="#FFFFFF" height="16.6" opacity="0.5" width="16.6" x="164.7" y="352"></rect>
	<rect fill="#FFFFFF" height="16.6" opacity="0.5" width="16.6" x="197.9" y="352"></rect>
	<rect fill="#FFFFFF" height="16.6" opacity="0.5" width="16.6" x="231.1" y="352"></rect>
	<rect fill="#FFFFFF" height="16.6" opacity="0.5" width="16.6" x="264.3" y="352"></rect>
	<rect fill="#FFFFFF" height="16.6" opacity="0.5" width="16.6" x="297.5" y="352"></rect>
	<rect fill="#FFFFFF" height="16.6" opacity="0.5" width="16.6" x="330.7" y="352"></rect>
	<rect fill="#FFFFFF" height="16.6" opacity="0.5" width="16.6" x="363.9" y="352"></rect>
	<rect fill="#FFFFFF" height="16.6" opacity="0.5" width="16.6" x="397" y="352"></rect>
	<rect fill="#FFFFFF" height="16.6" opacity="0.5" width="16.6" x="430.2" y="352"></rect>
	<rect fill="#FFFFFF" height="16.6" opacity="0.5" width="16.6" x="463.4" y="352"></rect>
	<circle cx="254" cy="252" fill="#E03232" r="40"></circle>
</svg>