<!--
* SPDX-FileCopyrightText: © 2020 Liferay, Inc. <https://liferay.com>
* SPDX-FileCopyrightText: © 2020 Contributors to the project Clay <https://github.com/liferay/clay/graphs/contributors>
*
* SPDX-License-Identifier: BSD-3-Clause
-->
<svg width="16" height="16" viewBox="0 0 16 16" fill="none" xmlns="http://www.w3.org/2000/svg">
<path d="M0 2H16V14H0V2Z" fill="#00AFCA"/>
<path d="M8.83755 8.26567C9.79024 8.26567 10.5625 7.49336 10.5625 6.54067C10.5625 5.58798 9.79024 4.81567 8.83755 4.81567C7.88486 4.81567 7.11255 5.58798 7.11255 6.54067C7.11255 7.49336 7.88486 8.26567 8.83755 8.26567Z" fill="#FEC50C"/>
<path d="M8.83748 4.70623C8.95935 4.70623 9.03123 4.6281 9.03123 4.50935C9.03123 4.40623 8.90623 3.97185 8.89373 3.92185L8.83748 3.72498L8.78123 3.92185C8.7656 3.97185 8.64373 4.4031 8.64373 4.50935C8.6406 4.6281 8.71873 4.70623 8.83748 4.70623ZM10.8656 6.34373C10.7469 6.34373 10.6687 6.41873 10.6687 6.53748C10.6687 6.65623 10.7469 6.73123 10.8656 6.73123C10.9687 6.73123 11.4031 6.60623 11.4531 6.59373L11.65 6.53748L11.4531 6.48123C11.4031 6.46873 10.9687 6.34373 10.8656 6.34373ZM8.83748 8.37185C8.7156 8.37185 8.64373 8.44998 8.64373 8.56873C8.64373 8.67185 8.76873 9.10623 8.78123 9.15623L8.83748 9.3531L8.89373 9.15623C8.90935 9.10623 9.03123 8.67498 9.03123 8.56873C9.03123 8.44998 8.95623 8.37185 8.83748 8.37185ZM6.80623 6.73435C6.92498 6.73435 7.0031 6.65935 7.0031 6.5406C7.0031 6.42185 6.92498 6.34685 6.80623 6.34685C6.7031 6.34685 6.26873 6.47185 6.21873 6.48435L6.02185 6.5406L6.21873 6.59685C6.26873 6.60935 6.7031 6.73435 6.80623 6.73435ZM9.42185 4.73123C9.43435 4.7656 9.46248 4.8156 9.53748 4.84373C9.56873 4.85623 9.59685 4.86248 9.62185 4.86248C9.69685 4.86248 9.75623 4.81873 9.7906 4.73748C9.83123 4.6406 9.88123 4.19373 9.88748 4.14373L9.90935 3.9406L9.78123 4.09998C9.74998 4.1406 9.46873 4.49373 9.4281 4.58748C9.41248 4.6406 9.40935 4.68748 9.42185 4.73123ZM10.7844 7.13435C10.675 7.08748 10.575 7.13123 10.5281 7.2406C10.4844 7.3531 10.525 7.44998 10.6344 7.49373C10.7312 7.53435 11.1781 7.58435 11.2281 7.5906L11.4312 7.61248L11.2719 7.48435C11.2344 7.45623 10.8812 7.17498 10.7844 7.13435ZM8.13435 8.23123C8.02185 8.18748 7.92498 8.2281 7.8781 8.33748C7.83748 8.43435 7.78748 8.88123 7.78123 8.93123L7.75935 9.13435L7.88748 8.97498C7.91873 8.93435 8.19998 8.58123 8.2406 8.48435C8.28435 8.3781 8.24373 8.2781 8.13435 8.23123ZM6.88748 5.94373C6.91873 5.95623 6.94685 5.96248 6.97498 5.96248C6.99373 5.96248 7.01248 5.95935 7.03123 5.9531C7.0656 5.9406 7.1156 5.91248 7.14373 5.83748C7.18748 5.72498 7.14685 5.6281 7.03748 5.58435C6.9406 5.54373 6.49373 5.49373 6.44373 5.48748L6.2406 5.4656L6.39998 5.59373C6.43748 5.62185 6.7906 5.9031 6.88748 5.94373ZM10.0687 5.09373C10.0656 5.13123 10.075 5.18748 10.1312 5.24373C10.175 5.28435 10.2219 5.30623 10.2687 5.30623C10.3156 5.30623 10.3656 5.28435 10.4062 5.24373C10.4812 5.16873 10.7 4.77498 10.7219 4.73123L10.8219 4.5531L10.6437 4.6531C10.6 4.6781 10.2062 4.89685 10.1312 4.96873C10.0937 5.00623 10.0719 5.04998 10.0687 5.09373ZM10.4094 7.83435C10.325 7.74998 10.2156 7.74998 10.1312 7.83435C10.0469 7.91873 10.0469 8.02498 10.1312 8.10935C10.2062 8.18435 10.6 8.4031 10.6437 8.42498L10.8219 8.52498L10.7219 8.34685C10.7 8.3031 10.4812 7.90935 10.4094 7.83435ZM7.6031 7.98435C7.60623 7.94685 7.59685 7.8906 7.5406 7.83435C7.45623 7.74998 7.34998 7.74998 7.2656 7.83435C7.1906 7.90935 6.97185 8.3031 6.94998 8.34685L6.84998 8.52498L7.0281 8.42498C7.07185 8.39998 7.4656 8.18123 7.5406 8.10935C7.5781 8.07498 7.59998 8.0281 7.6031 7.98435ZM7.26248 5.24373C7.29998 5.28123 7.34373 5.3031 7.3906 5.30623H7.4031C7.4406 5.30623 7.4906 5.29373 7.5406 5.24373C7.62498 5.15935 7.62498 5.0531 7.5406 4.96873C7.4656 4.89373 7.07185 4.67498 7.0281 4.6531L6.84998 4.5531L6.94998 4.73123C6.97185 4.77498 7.1906 5.16873 7.26248 5.24373ZM10.5281 5.67498C10.5125 5.70935 10.4969 5.76248 10.5281 5.83748C10.5625 5.91873 10.625 5.95935 10.6969 5.95935C10.725 5.95935 10.7531 5.9531 10.7844 5.9406C10.8812 5.89998 11.2344 5.61873 11.275 5.58748L11.4344 5.45935L11.2312 5.48123C11.1812 5.48748 10.7312 5.53748 10.6375 5.5781C10.5875 5.6031 10.55 5.63435 10.5281 5.67498ZM9.79373 8.33748C9.77185 8.28748 9.7406 8.24998 9.69998 8.23123C9.6656 8.2156 9.61248 8.19998 9.53748 8.23123C9.4281 8.2781 9.38748 8.37498 9.43435 8.48748C9.47498 8.58435 9.75623 8.93748 9.78748 8.9781L9.9156 9.13748L9.89373 8.93435C9.88435 8.88435 9.83435 8.43435 9.79373 8.33748ZM7.14373 7.2406C7.09685 7.13123 6.99685 7.0906 6.88748 7.13435C6.7906 7.17498 6.43748 7.45623 6.39685 7.48748L6.23748 7.6156L6.4406 7.59373C6.4906 7.58748 6.9406 7.53748 7.03435 7.49685C7.14685 7.44998 7.18748 7.34998 7.14373 7.2406ZM7.88123 4.7406C7.9156 4.82185 7.9781 4.8656 8.04998 4.8656C8.0781 4.8656 8.10623 4.85935 8.13435 4.84685C8.24373 4.79998 8.28435 4.7031 8.23748 4.5906C8.19685 4.49373 7.9156 4.1406 7.88435 4.09998L7.75623 3.9406L7.7781 4.14373C7.78748 4.19373 7.8406 4.64373 7.88123 4.7406ZM9.19373 4.7406C9.20935 4.74373 9.22498 4.74373 9.2406 4.74373C9.33435 4.74373 9.4031 4.68435 9.42185 4.58435C9.44373 4.48123 9.40623 4.03435 9.39998 3.98123L9.38123 3.7781L9.28748 3.95935C9.26248 4.00623 9.05623 4.40623 9.03748 4.50623C9.0281 4.55935 9.03435 4.60935 9.05623 4.64685C9.0781 4.68435 9.1156 4.72498 9.19373 4.7406Z" fill="#FEC50C"/>
<path d="M10.8656 6.74375C10.8125 6.73438 10.7625 6.74062 10.725 6.7625C10.6938 6.78125 10.65 6.81875 10.6344 6.89687C10.6125 7.01562 10.6719 7.10313 10.7875 7.125C10.8094 7.12812 10.8469 7.13125 10.8906 7.13125C11.0594 7.13125 11.3469 7.10625 11.3875 7.10313L11.5906 7.08437L11.4094 6.99062C11.3688 6.97187 10.9656 6.7625 10.8656 6.74375ZM8.47812 8.3375C8.35937 8.31562 8.27187 8.375 8.25 8.49063C8.22813 8.59375 8.26563 9.04063 8.27188 9.09375L8.29062 9.29688L8.38437 9.11563C8.40937 9.06875 8.61562 8.66875 8.63437 8.56875C8.64375 8.51563 8.6375 8.46563 8.61563 8.42813C8.59688 8.39375 8.55625 8.35312 8.47812 8.3375ZM6.80937 6.33437C6.825 6.3375 6.84375 6.34062 6.85938 6.34062C6.89375 6.34062 6.925 6.33437 6.95312 6.31875C6.98438 6.3 7.02812 6.2625 7.04375 6.18437C7.06562 6.06562 7.00625 5.97813 6.89062 5.95625C6.7875 5.93438 6.34062 5.97188 6.2875 5.97813L6.08437 5.99687L6.26562 6.09062C6.30625 6.10937 6.70625 6.31562 6.80937 6.33437ZM9.8 4.74375C9.76875 4.7875 9.75625 4.8375 9.7625 4.88125C9.76562 4.91875 9.7875 4.97187 9.85312 5.01562C9.89062 5.04062 9.93125 5.05312 9.96875 5.05312C10.0281 5.05312 10.0844 5.02187 10.125 4.95937C10.1844 4.87187 10.3219 4.44375 10.3344 4.39375L10.3969 4.2L10.2406 4.33125C10.2031 4.36563 9.85938 4.65625 9.8 4.74375ZM10.6313 7.50313C10.5875 7.47188 10.5375 7.45937 10.4937 7.46562C10.4562 7.46875 10.4031 7.49063 10.3594 7.55625C10.2937 7.65625 10.3156 7.75938 10.4156 7.82812C10.5031 7.8875 10.9312 8.025 10.9812 8.0375L11.175 8.1L11.0437 7.94375C11.0094 7.90625 10.7188 7.5625 10.6313 7.50313ZM7.87187 8.33438C7.90312 8.29063 7.91563 8.24062 7.90938 8.19687C7.90625 8.15937 7.88437 8.10625 7.81875 8.0625C7.71875 7.99687 7.61563 8.01875 7.54688 8.11875C7.4875 8.20625 7.35 8.63437 7.3375 8.68437L7.275 8.87813L7.43125 8.74687C7.46875 8.7125 7.8125 8.42188 7.87187 8.33438ZM7.04063 5.575C7.07813 5.6 7.11875 5.6125 7.15625 5.6125C7.21563 5.6125 7.27188 5.58125 7.3125 5.52187C7.37812 5.42187 7.35625 5.31875 7.25625 5.25C7.16875 5.19062 6.74063 5.05313 6.69063 5.04063L6.49687 4.97813L6.62813 5.13438C6.6625 5.17188 6.95313 5.51562 7.04063 5.575ZM10.3281 5.3625C10.3187 5.39688 10.3156 5.45312 10.3594 5.52187C10.4 5.58125 10.4563 5.6125 10.5156 5.6125C10.5531 5.6125 10.5938 5.6 10.6313 5.575C10.7188 5.51562 11.0094 5.17188 11.0406 5.13438L11.1719 4.97813L10.9781 5.04063C10.9281 5.05625 10.5 5.19375 10.4125 5.25C10.3688 5.28125 10.3406 5.31875 10.3281 5.3625ZM10.125 8.11875C10.0938 8.075 10.0562 8.04375 10.0125 8.03125C9.97812 8.02187 9.92187 8.01875 9.85312 8.0625C9.75312 8.13125 9.73438 8.23438 9.8 8.33438C9.85938 8.42188 10.2031 8.7125 10.2406 8.74375L10.3969 8.875L10.3344 8.68125C10.3219 8.63437 10.1844 8.20312 10.125 8.11875ZM7.34375 7.71562C7.35312 7.68125 7.35625 7.625 7.3125 7.55625C7.24375 7.45625 7.14063 7.4375 7.04063 7.50313C6.95313 7.5625 6.6625 7.90625 6.63125 7.94375L6.5 8.1L6.69375 8.0375C6.74375 8.02188 7.17188 7.88438 7.25938 7.82812C7.30313 7.79688 7.33438 7.75937 7.34375 7.71562ZM7.54688 4.95937C7.57812 5.00312 7.61563 5.03437 7.65938 5.04688C7.67188 5.05 7.6875 5.05312 7.70312 5.05312C7.73438 5.05312 7.775 5.04375 7.81875 5.01562C7.91875 4.94687 7.9375 4.84375 7.87187 4.74375C7.8125 4.65625 7.46875 4.36562 7.43125 4.33437L7.275 4.20312L7.3375 4.39687C7.35313 4.44375 7.4875 4.875 7.54688 4.95937ZM10.7875 5.95312C10.7344 5.9625 10.6906 5.9875 10.6625 6.025C10.6406 6.05313 10.6156 6.10625 10.6313 6.18437C10.6531 6.28437 10.7188 6.34062 10.8125 6.34062C10.8281 6.34062 10.8438 6.3375 10.8625 6.33437C10.9656 6.3125 11.3656 6.10625 11.4094 6.08437L11.5906 5.99062L11.3875 5.97188C11.3406 5.96875 10.8906 5.93125 10.7875 5.95312ZM9.35312 8.36875C9.325 8.34687 9.27188 8.32187 9.19375 8.3375C9.075 8.3625 9.01875 8.45 9.04062 8.56875C9.0625 8.67188 9.26875 9.07188 9.29062 9.11563L9.38437 9.29688L9.40312 9.09375C9.40625 9.04375 9.44375 8.59375 9.425 8.49063C9.4125 8.4375 9.3875 8.39375 9.35312 8.36875ZM6.78125 7.13125C6.82812 7.13125 6.86563 7.12812 6.88438 7.125C7 7.10313 7.0625 7.0125 7.0375 6.89687C7.0125 6.77812 6.925 6.72188 6.80625 6.74375C6.70313 6.76562 6.30313 6.97188 6.25938 6.99375L6.07812 7.0875L6.28125 7.10625C6.32188 7.10937 6.60938 7.13125 6.78125 7.13125ZM8.43125 4.74687C8.44687 4.74687 8.4625 4.74375 8.47812 4.74062C8.59687 4.71562 8.65313 4.62813 8.63125 4.50938C8.60938 4.40625 8.40313 4.00625 8.38125 3.9625L8.2875 3.78125L8.26875 3.98438C8.26563 4.03438 8.22812 4.48438 8.24687 4.5875C8.26875 4.6875 8.3375 4.74687 8.43125 4.74687Z" fill="#FEC50C"/>
<path d="M12.7156 8.38442C12.7593 8.31255 12.8406 8.17192 12.7562 8.02192L12.7406 7.9938L12.7156 7.97505C12.6468 7.9188 12.5593 7.89692 12.4718 7.91255C12.4687 7.91255 12.4625 7.91567 12.4593 7.91567C12.4656 7.87192 12.4687 7.82505 12.4687 7.77817V7.77505C12.4687 7.65317 12.4343 7.55942 12.3656 7.50317C12.3093 7.4563 12.2375 7.43442 12.1593 7.4438H12.1531C11.9843 7.47505 11.9562 7.63442 11.9437 7.6938C11.9437 7.69692 11.9437 7.70005 11.9406 7.70317C11.8937 7.6813 11.8406 7.67817 11.7875 7.68755C11.6687 7.71255 11.5875 7.81567 11.5906 7.9313C11.4375 8.66255 10.9406 9.33442 10.2593 9.72817C9.96245 9.89692 9.61245 10.0125 9.2562 10.0657L9.2437 10.0688C9.21245 10.075 9.17808 10.0782 9.13745 10.0813C9.07183 10.0844 8.9937 10.0907 8.91558 10.1188L8.89058 10.1282L8.8687 10.1438C8.84058 10.1657 8.81245 10.1907 8.78745 10.2125L8.7937 10.1C8.77495 10.1 8.7562 10.0969 8.74058 10.0969C8.71245 10.0969 8.6812 10.0938 8.65308 10.0907H8.64683C8.13433 10.0594 7.63745 9.89067 7.21245 9.59692C6.68745 9.23442 6.3062 8.70942 6.1312 8.1188L6.12808 8.10942C6.11558 8.07817 6.10933 8.03755 6.09995 7.9938C6.08745 7.93442 6.07495 7.87192 6.04995 7.80942L6.03433 7.7688L5.99995 7.74067C5.92808 7.6813 5.82808 7.66567 5.7437 7.70005C5.74058 7.70005 5.74058 7.70005 5.73745 7.70317V7.69692L5.7312 7.67817L5.72808 7.6688C5.72808 7.66567 5.72495 7.65942 5.72495 7.6563C5.67808 7.45005 5.53745 7.43442 5.47495 7.44067C5.37808 7.44067 5.22495 7.49067 5.21245 7.7688V7.7813C5.21245 7.82505 5.21558 7.87192 5.22183 7.91567C5.15933 7.90005 5.09683 7.9063 5.03433 7.93442C4.97495 7.95942 4.92808 8.00317 4.90308 8.06255C4.8562 8.17505 4.91245 8.28755 4.93745 8.33442C4.94683 8.35317 4.9562 8.3688 4.96558 8.38442C4.85933 8.42505 4.79683 8.52505 4.80933 8.63755L4.81558 8.67505L4.83745 8.7063C4.92808 8.85005 5.03433 8.97817 5.14683 9.0938C5.1312 9.10942 5.1187 9.12817 5.11245 9.15005C5.06558 9.25942 5.13433 9.36255 5.17183 9.4188L5.18433 9.43755L5.1937 9.45005C5.2687 9.52817 5.34995 9.5938 5.43745 9.64692C5.40933 9.70317 5.41245 9.7688 5.4437 9.82817L5.45308 9.84692L5.46558 9.86255C5.51558 9.9188 5.57495 9.9563 5.63433 9.9813L5.6187 10.0782L5.70933 10.1407C5.7312 10.1563 5.75308 10.1657 5.77495 10.1782L5.7437 10.2313L5.87808 10.3157L5.74995 10.3813L6.12495 10.5188C6.24683 10.5625 6.37808 10.6157 6.54683 10.6907C6.87808 10.8375 7.1812 10.9188 7.47495 10.9344L7.5187 10.5844C7.42183 10.5657 7.32495 10.5375 7.23745 10.5063C7.07183 10.45 6.92495 10.4 6.78745 10.3407L6.87808 10.2657L6.97808 10.2219L6.93745 10.2125L7.07183 10.1L6.61245 10.0844C6.5937 10.0844 6.57495 10.0813 6.5562 10.0782L6.54683 10.0313C6.52808 9.94067 6.46558 9.89692 6.4062 9.87505L6.42808 9.8563L6.40308 9.84692C6.39683 9.8063 6.3812 9.77817 6.35933 9.75317L6.42808 9.72505L6.30308 9.6688C6.29995 9.65317 6.2937 9.63755 6.28433 9.6188L6.39995 9.60005L6.0562 9.35005L6.05308 9.34692L6.0437 9.22505L6.23745 9.38755V9.39067C6.34058 9.52817 6.44995 9.6688 6.5937 9.78755C6.7312 9.90317 6.89058 9.95942 7.0437 10.0032C7.11558 10.05 7.18433 10.1157 7.2562 10.1875C7.3062 10.2375 7.35933 10.2907 7.4187 10.3375C7.6062 10.5094 7.85933 10.5219 8.02808 10.5313C8.04683 10.5313 8.0687 10.5344 8.09058 10.5344C8.21558 10.5407 8.33433 10.5438 8.4312 10.5782C8.37808 10.6219 8.32183 10.6563 8.25933 10.6782L8.24683 10.6813L8.23433 10.6875C8.20308 10.7032 8.16245 10.7157 8.1187 10.7313C8.00933 10.7688 7.87183 10.8125 7.77495 10.9375L7.76558 10.95L7.75933 10.9625C7.75308 10.975 7.74683 10.9875 7.7437 11.0032C7.70933 11.0282 7.67495 11.0594 7.64683 11.1032C7.61245 11.1563 7.60308 11.2063 7.59995 11.2407V11.2532C7.59683 11.3094 7.6062 11.3688 7.63433 11.425L7.69995 11.5375L7.81245 11.5282C7.82808 11.5282 7.8562 11.5219 7.8812 11.5063C7.9187 11.5125 7.96245 11.5063 7.99995 11.4813C8.05308 11.4625 8.12183 11.4563 8.1937 11.45H8.20308C8.1687 11.4969 8.1437 11.5532 8.12808 11.6094L8.08433 11.7813L8.25308 11.825C8.35933 11.8532 8.45308 11.8313 8.53433 11.7938C8.5437 11.8032 8.55308 11.8157 8.56558 11.825L8.62183 11.8688L8.6937 11.8625C8.74058 11.8594 8.7812 11.8469 8.8187 11.8282L8.8437 11.8563L8.91245 11.8625C8.99058 11.8688 9.0562 11.8469 9.1062 11.8157L9.1312 11.8282C9.20933 11.8625 9.29683 11.8594 9.37495 11.825C9.3937 11.8157 9.41245 11.8063 9.4312 11.7938C9.45933 11.8094 9.4937 11.8157 9.52808 11.8157C9.59683 11.8157 9.65933 11.7907 9.70933 11.75L9.71558 11.7532L9.76245 11.7594C9.87495 11.7782 9.9562 11.7313 10.0156 11.6782C10.1031 11.7094 10.2 11.6875 10.2687 11.6157C10.2875 11.5969 10.3031 11.5782 10.3156 11.5594C10.3843 11.5875 10.475 11.6032 10.575 11.5438L10.5875 11.5344C10.6281 11.5032 10.6562 11.4657 10.675 11.4282C10.7875 11.45 10.9093 11.4188 11 11.3407C11.0968 11.2594 11.1437 11.1375 11.125 11.0125L11.1031 10.8688L10.9593 10.8625C11.0718 10.825 11.1781 10.775 11.275 10.7125L11.2968 10.6969L11.3031 10.6907L11.3281 10.6782C11.3906 10.6469 11.5031 10.5907 11.5 10.4625C11.5531 10.4563 11.6093 10.4469 11.6625 10.4282L11.7718 10.3907L11.7812 10.275V10.2688C11.8343 10.25 11.8875 10.2219 11.9406 10.1844L12.1718 10.0063L12.1156 9.9813C12.1218 9.97817 12.1281 9.97192 12.1343 9.9688L12.15 9.95942L12.1625 9.94692C12.2531 9.8438 12.2187 9.74692 12.2062 9.71567C12.3218 9.6438 12.4437 9.5563 12.5312 9.42192C12.5781 9.35317 12.6406 9.19692 12.5468 9.08755C12.6687 8.95942 12.7718 8.8313 12.8562 8.69692L12.8781 8.66255L12.8812 8.62192C12.8812 8.52505 12.8187 8.42505 12.7156 8.38442ZM10.275 10.8219C10.1937 10.8157 10.1093 10.8157 10.0281 10.8188H10.0187C10.0093 10.8188 10.0031 10.8188 9.9937 10.8219C9.94058 10.825 9.84995 10.8313 9.78433 10.9063C9.77183 10.9219 9.75933 10.9407 9.74995 10.9657C9.70933 10.9813 9.65308 11.0157 9.62808 11.0875C9.62183 11.1032 9.6187 11.1188 9.6187 11.1375C9.61245 11.1407 9.60933 11.1438 9.60308 11.1469C9.5312 11.1719 9.45933 11.1844 9.3812 11.1907L9.24995 11.1157C9.19683 11.0844 9.1437 11.0782 9.10933 11.075L8.84683 11.0719C8.83433 11.0719 8.82495 11.0688 8.81245 11.0688C8.79058 11.0657 8.7687 11.0657 8.74683 11.0625L8.78745 11.0157L9.11245 10.7719L8.89058 10.7844C8.95933 10.7219 9.0187 10.6688 9.08433 10.6563L9.09995 10.6532C9.24058 10.6094 9.38745 10.5938 9.5437 10.5719C9.69683 10.5532 9.85308 10.5344 10.0125 10.4907L10.0718 10.475L10.1093 10.425C10.2531 10.2313 10.4781 10.1219 10.7187 10.0094C10.8031 9.9688 10.8937 9.92505 10.9781 9.8813C11.1125 9.8313 11.1656 9.71567 11.1906 9.65005C11.1968 9.6438 11.2 9.63442 11.2062 9.62817L11.3968 9.53755L11.4968 9.53442L11.35 9.6938L11.3906 9.70317L11.3437 9.74067L11.0656 9.98442L11.1406 9.99692C11.1406 10 11.1375 10.0032 11.1375 10.0063L11.125 10.0125C11.1093 10.0188 11.0906 10.025 11.075 10.0344L11.0406 10.05L11.0468 10.0532C11.0093 10.0782 10.9781 10.1125 10.9593 10.1625L10.7375 10.1438L10.8156 10.3907C10.6406 10.5188 10.45 10.5938 10.2687 10.6125L10.275 10.8219ZM2.19058 10.2032C2.24058 10.0094 2.25933 9.8813 2.25933 9.6813C2.25933 9.33755 2.13745 9.07817 1.91558 9.05942C2.13745 9.04067 2.25933 8.7813 2.25933 8.43755C2.25933 8.23442 2.24058 8.10942 2.19058 7.91567C2.19058 7.91567 1.79683 6.35005 1.6437 5.74692C1.62495 5.67192 1.6187 5.58442 1.6187 5.45942C1.6187 5.26567 1.7187 5.1063 1.82183 5.10005C1.91558 5.09692 2.0187 5.2688 2.0187 5.46567C2.0187 5.70317 1.95308 5.81255 1.88745 5.81255C1.8062 5.81255 1.77183 5.74692 1.77183 5.63755C1.77183 5.55942 1.79058 5.52817 1.8187 5.52817C1.89058 5.52817 1.8687 5.70942 1.8687 5.70942C1.90308 5.6938 1.9312 5.62817 1.91558 5.54067C1.94058 5.5313 1.96558 5.50317 1.98433 5.46255C1.96558 5.42817 1.9437 5.40005 1.91558 5.39067C1.9312 5.28755 1.90933 5.23755 1.86245 5.21567C1.87183 5.2563 1.87183 5.2938 1.8687 5.32817C1.7937 5.28755 1.67808 5.35317 1.67808 5.60005C1.67808 5.84692 1.7687 6.05317 1.93433 6.00005C1.8937 6.03755 1.87495 6.10942 1.8687 6.1938C1.89995 6.17192 1.93433 6.1688 1.93433 6.1688C1.91558 6.23442 1.88745 6.29067 1.88745 6.42192C1.9187 6.3938 1.94683 6.3438 1.98745 6.37817C1.92495 6.61255 2.00308 6.93442 2.19683 7.01255C2.12495 6.85317 2.09058 6.6813 2.09058 6.50942C2.09058 5.95317 2.17183 5.85942 2.17183 5.47192C2.17183 5.31255 2.12808 5.14067 2.0437 5.02192C2.09995 4.9938 2.13433 4.94067 2.1562 4.8688C2.11558 4.7688 2.09058 4.73755 2.02495 4.7313C2.09995 4.65942 2.17495 4.50005 2.17495 4.25005C2.17495 3.8688 2.0937 3.70942 2.0937 3.2813C2.0937 3.0438 2.19683 2.73755 2.19683 2.73755C2.01558 2.77192 1.92495 3.0938 1.97808 3.35005C1.94995 3.35942 1.92183 3.34692 1.89995 3.3063C1.88745 3.37817 1.9062 3.45942 1.93433 3.5313C1.91245 3.55317 1.8937 3.54067 1.85933 3.52505C1.86245 3.59692 1.88433 3.67505 1.94058 3.75005C1.77808 3.6688 1.67808 3.88755 1.67808 4.11255C1.67808 4.28442 1.74058 4.4063 1.80308 4.4063C1.82183 4.4063 1.85308 4.39067 1.8687 4.36567C1.8812 4.41255 1.87495 4.47505 1.86245 4.52192C1.9062 4.50005 1.93745 4.44692 1.91558 4.34067C1.94995 4.33442 1.97808 4.31255 1.99683 4.2688C1.97808 4.22192 1.94995 4.19692 1.91558 4.19692C1.94058 4.09692 1.91245 4.04067 1.87183 3.99692C1.87183 3.99692 1.89683 4.19692 1.8312 4.19692C1.79995 4.19692 1.77495 4.17817 1.77495 4.0938C1.77495 4.02192 1.80933 3.9188 1.88745 3.92505C1.96558 3.9313 2.02808 4.02817 2.02808 4.26255C2.02808 4.4813 1.93433 4.59067 1.81558 4.59692C1.7062 4.60317 1.62183 4.49067 1.62183 4.27505C1.62183 3.98755 1.84058 3.33442 1.84058 3.07817C1.84058 2.88755 1.74995 2.77817 1.66245 2.77817C1.6062 2.77817 1.5562 2.82817 1.5187 2.8813C1.4812 2.82817 1.4312 2.77817 1.37495 2.77817C1.28745 2.77817 1.19683 2.88442 1.19683 3.07817C1.19683 3.33442 1.41558 3.98755 1.41558 4.27505C1.41558 4.49067 1.33433 4.60317 1.22183 4.59692C1.09995 4.59067 1.00933 4.4813 1.00933 4.26255C1.00933 4.02505 1.07183 3.9313 1.14995 3.92505C1.22808 3.9188 1.26245 4.0188 1.26245 4.0938C1.26245 4.17817 1.23433 4.19692 1.2062 4.19692C1.14058 4.19692 1.16558 3.99692 1.16558 3.99692C1.12495 4.04067 1.09683 4.09692 1.12183 4.19692C1.08745 4.1938 1.05933 4.22192 1.04058 4.2688C1.05933 4.31255 1.08745 4.33442 1.12183 4.34067C1.09995 4.44692 1.1312 4.49692 1.17495 4.52192C1.16245 4.47505 1.1562 4.41255 1.1687 4.36567C1.18433 4.39067 1.21558 4.4063 1.23433 4.4063C1.29683 4.4063 1.35933 4.28442 1.35933 4.11255C1.35933 3.88442 1.25933 3.6688 1.09683 3.75005C1.15308 3.67817 1.17495 3.60005 1.17808 3.52505C1.14058 3.54067 1.12495 3.55317 1.10308 3.5313C1.1312 3.45942 1.15308 3.37817 1.13745 3.3063C1.11558 3.34692 1.08745 3.35942 1.05933 3.35005C1.10933 3.0938 1.02183 2.77192 0.840576 2.73755C0.840576 2.73755 0.943701 3.04067 0.943701 3.2813C0.943701 3.71255 0.862451 3.8688 0.862451 4.25005C0.862451 4.49692 0.937451 4.6563 1.01245 4.7313C0.946826 4.74067 0.921826 4.7688 0.881201 4.8688C0.903076 4.94067 0.937451 4.9938 0.993701 5.02192C0.909326 5.14067 0.865576 5.31255 0.865576 5.47192C0.865576 5.85942 0.946826 5.95317 0.946826 6.50942C0.946826 6.6813 0.912451 6.85317 0.840576 7.01255C1.03433 6.93755 1.11245 6.61255 1.04995 6.37817C1.09058 6.34692 1.1187 6.39692 1.14995 6.42192C1.14995 6.2938 1.12495 6.23442 1.10308 6.1688C1.10308 6.1688 1.13745 6.17192 1.1687 6.1938C1.16558 6.10942 1.1437 6.03755 1.10308 6.00005C1.27183 6.05317 1.35933 5.8438 1.35933 5.60005C1.35933 5.35317 1.2437 5.28755 1.1687 5.32817C1.16558 5.2938 1.16558 5.2563 1.17495 5.21567C1.12808 5.23755 1.1062 5.28755 1.12183 5.39067C1.0937 5.40005 1.07183 5.42817 1.05308 5.46255C1.07183 5.50317 1.09683 5.52817 1.12183 5.54067C1.1062 5.62505 1.13433 5.6938 1.1687 5.70942C1.1687 5.70942 1.14995 5.52817 1.2187 5.52817C1.24683 5.52817 1.26558 5.56255 1.26558 5.63755C1.26558 5.74692 1.23433 5.81255 1.14995 5.81255C1.08433 5.81255 1.0187 5.7063 1.0187 5.46567C1.0187 5.2688 1.12183 5.09692 1.21558 5.10005C1.3187 5.1063 1.4187 5.26255 1.4187 5.45942C1.4187 5.58442 1.41245 5.67192 1.3937 5.74692C1.24058 6.35317 0.846826 7.91567 0.846826 7.91567C0.796826 8.10942 0.778076 8.23755 0.778076 8.43755C0.778076 8.7813 0.899951 9.04067 1.12183 9.05942C0.899951 9.07817 0.778076 9.33755 0.778076 9.6813C0.778076 9.88442 0.796826 10.0094 0.846826 10.2032C0.846826 10.2032 1.24058 11.7688 1.3937 12.3719C1.41245 12.4469 1.4187 12.5344 1.4187 12.6594C1.4187 12.8532 1.3187 13.0125 1.21558 13.0188C1.12183 13.0219 1.0187 12.85 1.0187 12.6532C1.0187 12.4157 1.08433 12.3063 1.14995 12.3063C1.2312 12.3063 1.26558 12.3719 1.26558 12.4813C1.26558 12.5594 1.24683 12.5907 1.2187 12.5907C1.14683 12.5907 1.1687 12.4094 1.1687 12.4094C1.13433 12.425 1.1062 12.4907 1.12183 12.5782C1.09683 12.5875 1.07183 12.6157 1.05308 12.6563C1.07183 12.6907 1.0937 12.7188 1.12183 12.7282C1.1062 12.8313 1.12808 12.8813 1.17495 12.9032C1.16558 12.8625 1.16558 12.825 1.1687 12.7907C1.2437 12.8313 1.35933 12.7657 1.35933 12.5188C1.35933 12.2719 1.2687 12.0657 1.10308 12.1188C1.1437 12.0813 1.16245 12.0094 1.1687 11.925C1.13745 11.9469 1.10308 11.95 1.10308 11.95C1.12183 11.8844 1.14995 11.8282 1.14995 11.6969C1.1187 11.725 1.09058 11.775 1.04995 11.7407C1.11245 11.5063 1.03433 11.1844 0.840576 11.1063C0.912451 11.2657 0.946826 11.4375 0.946826 11.6094C0.946826 12.1657 0.865576 12.2594 0.865576 12.6469C0.865576 12.8063 0.909326 12.9782 0.993701 13.0969C0.937451 13.125 0.903076 13.1782 0.881201 13.25C1.01245 13.3219 1.19995 13.3188 1.30308 13.2438C1.4187 13.2188 1.50308 13.0469 1.52495 12.9594C1.54995 13.0469 1.6312 13.2188 1.74683 13.2438C1.84995 13.3188 2.03745 13.3219 2.1687 13.25C2.14683 13.1782 2.11245 13.125 2.0562 13.0969C2.14058 12.9782 2.18433 12.8063 2.18433 12.6469C2.18433 12.2594 2.10308 12.1657 2.10308 11.6094C2.10308 11.4375 2.13745 11.2657 2.20933 11.1063C2.01558 11.1813 1.93745 11.5063 1.99995 11.7407C1.95933 11.7719 1.9312 11.7219 1.89995 11.6969C1.89995 11.825 1.92495 11.8844 1.94683 11.95C1.94683 11.95 1.91245 11.9469 1.8812 11.925C1.88433 12.0094 1.9062 12.0813 1.94683 12.1188C1.77808 12.0657 1.69058 12.275 1.69058 12.5188C1.69058 12.7657 1.8062 12.8313 1.8812 12.7907C1.88433 12.825 1.88433 12.8625 1.87495 12.9032C1.92183 12.8813 1.9437 12.8313 1.92808 12.7282C1.9562 12.7188 1.97808 12.6907 1.99683 12.6563C1.97808 12.6157 1.95308 12.5907 1.92808 12.5782C1.9437 12.4938 1.91558 12.425 1.8812 12.4094C1.8812 12.4094 1.89995 12.5907 1.8312 12.5907C1.80308 12.5907 1.78433 12.5563 1.78433 12.4813C1.78433 12.3719 1.81558 12.3063 1.89995 12.3063C1.96558 12.3063 2.0312 12.4125 2.0312 12.6532C2.0312 12.85 1.92808 13.0219 1.83433 13.0188C1.7312 13.0125 1.6312 12.8563 1.6312 12.6594C1.6312 12.5344 1.63745 12.4469 1.6562 12.3719C1.79683 11.7657 2.19058 10.2032 2.19058 10.2032ZM1.51558 9.5688C1.46245 9.24692 1.30308 9.07192 1.15933 9.0563C1.30308 9.04067 1.46245 8.86567 1.51558 8.5438C1.5687 8.86567 1.72808 9.04067 1.87183 9.0563C1.72808 9.0688 1.5687 9.24692 1.51558 9.5688ZM1.3562 3.05005C1.39683 2.95317 1.51558 3.1438 1.51558 3.1438C1.51558 3.1438 1.63433 2.95317 1.67495 3.05005C1.72495 3.16567 1.58745 3.62505 1.51558 3.96255C1.4437 3.62817 1.3062 3.16567 1.3562 3.05005ZM1.29058 4.86255C1.28433 4.8563 1.27183 4.8563 1.26558 4.85005C1.37495 4.80317 1.46558 4.72505 1.51245 4.56255C1.56245 4.72505 1.65308 4.80317 1.75933 4.85005C1.74995 4.85317 1.74058 4.8563 1.73433 4.86255C1.6187 4.88755 1.53433 5.05942 1.51245 5.14692C1.49058 5.05942 1.40933 4.88755 1.29058 4.86255ZM0.918701 8.40005C0.918701 8.28755 0.934326 8.1813 0.956201 8.08442C1.0687 7.6188 1.43433 6.14067 1.51245 5.8313C1.59058 6.14067 1.9562 7.6188 2.0687 8.08442C2.0937 8.18442 2.1062 8.28755 2.1062 8.40005C2.1062 8.68442 1.9687 8.78442 1.89058 8.78442C1.79683 8.78442 1.70308 8.65005 1.70308 8.4813C1.70308 8.37505 1.73433 8.30942 1.77808 8.30942C1.88433 8.30942 1.87808 8.4813 1.8562 8.58755C1.92183 8.5313 1.95933 8.4313 1.94995 8.32505C1.98745 8.31567 2.02183 8.2813 2.05308 8.21255C2.02808 8.15005 1.99683 8.10317 1.94995 8.10317C1.97183 7.94067 1.91245 7.8688 1.8562 7.8313C1.87495 7.95005 1.88433 8.09067 1.77808 8.09067C1.69995 8.09067 1.63745 8.11567 1.60308 8.21255C1.59995 8.08442 1.5937 7.57192 1.5937 7.57192C1.59058 7.3813 1.72808 7.38442 1.81558 7.4438C1.7812 7.22192 1.71245 7.10317 1.5562 7.13442C1.5937 7.10317 1.63433 7.03442 1.63433 6.90317C1.63433 6.72192 1.55933 6.52505 1.5062 6.46567C1.4562 6.52505 1.37808 6.72505 1.37808 6.90317C1.37808 7.03755 1.4187 7.1063 1.4562 7.13442C1.29683 7.10317 1.22808 7.22505 1.19683 7.4438C1.28433 7.38755 1.42495 7.3813 1.4187 7.57192C1.4187 7.57192 1.41245 8.0813 1.40933 8.21255C1.37495 8.11567 1.31245 8.09067 1.23433 8.09067C1.12808 8.09067 1.13745 7.95317 1.1562 7.8313C1.09995 7.8688 1.0437 7.93755 1.06245 8.10317C1.01558 8.1063 0.984326 8.15005 0.959326 8.21255C0.990576 8.2813 1.02808 8.31567 1.06245 8.32505C1.05308 8.4313 1.09058 8.5313 1.1562 8.58755C1.13433 8.4813 1.12808 8.30942 1.23433 8.30942C1.27808 8.30942 1.30933 8.37505 1.30933 8.4813C1.30933 8.65005 1.21558 8.78442 1.12183 8.78442C1.0562 8.78442 0.918701 8.68442 0.918701 8.40005ZM1.51558 12.2813C1.43745 11.9719 1.07183 10.4938 0.959326 10.0282C0.934326 9.92817 0.921826 9.82505 0.921826 9.71255C0.921826 9.42817 1.05933 9.32817 1.13745 9.32817C1.2312 9.32817 1.32495 9.46255 1.32495 9.6313C1.32495 9.73755 1.2937 9.80317 1.24995 9.80317C1.1437 9.80317 1.14995 9.6313 1.17183 9.52505C1.1062 9.5813 1.0687 9.6813 1.07808 9.78755C1.04058 9.79692 1.0062 9.8313 0.974951 9.90005C0.999951 9.96255 1.0312 10.0094 1.07808 10.0094C1.0562 10.1719 1.11558 10.2438 1.17183 10.2813C1.15308 10.1625 1.1437 10.0219 1.24995 10.0219C1.32808 10.0219 1.39058 9.99692 1.42495 9.90005C1.42808 10.0282 1.43433 10.5407 1.43433 10.5407C1.43745 10.7313 1.29995 10.7282 1.21245 10.6688C1.24683 10.8907 1.31558 11.0094 1.47183 10.9782C1.43433 11.0094 1.3937 11.0782 1.3937 11.2094C1.3937 11.3907 1.4687 11.5875 1.52183 11.6469C1.57183 11.5875 1.64995 11.3875 1.64995 11.2094C1.64995 11.075 1.60933 11.0063 1.57183 10.9782C1.7312 11.0094 1.79995 10.8875 1.8312 10.6688C1.7437 10.725 1.60308 10.7313 1.60933 10.5407C1.60933 10.5407 1.61558 10.0313 1.6187 9.90005C1.65308 9.99692 1.71558 10.0219 1.7937 10.0219C1.89995 10.0219 1.89058 10.1594 1.87183 10.2813C1.92808 10.2438 1.98433 10.175 1.96558 10.0094C2.01245 10.0063 2.0437 9.96255 2.0687 9.90005C2.03745 9.8313 1.99995 9.79692 1.96558 9.78755C1.97495 9.6813 1.93745 9.5813 1.87183 9.52505C1.8937 9.6313 1.89995 9.80317 1.7937 9.80317C1.74995 9.80317 1.7187 9.73755 1.7187 9.6313C1.7187 9.46255 1.81245 9.32817 1.9062 9.32817C1.98433 9.32817 2.12183 9.42817 2.12183 9.71255C2.12183 9.82505 2.1062 9.9313 2.08433 10.0282C1.95933 10.4938 1.5937 11.9719 1.51558 12.2813Z" fill="#FEC50C"/>
<path d="M15.5 2.5V13.5H0.5V2.5H15.5ZM16 2H0V14H16V2Z" fill="#AFBDC6"/>
</svg>
