<!--
* SPDX-FileCopyrightText: © 2020 Liferay, Inc. <https://liferay.com>
* SPDX-FileCopyrightText: © 2020 Contributors to the project Clay <https://github.com/liferay/clay/graphs/contributors>
*
* SPDX-License-Identifier: BSD-3-Clause
-->
<svg viewBox="0 0 16 16" xmlns="http://www.w3.org/2000/svg"><path d="M16 2H0v12h16V2Z" fill="#B0BEC9"/><path d="M15.5 2.5H.5v11h15v-11Z" fill="#0035A0"/><path d="M4.25 2.5h-1.5v6h1.5v-6Z" fill="#fff"/><path d="M6.5 4.75h-6v1.5h6v-1.5Z" fill="#fff"/><path d="M6.5 4.75h-6v1.5h6v-1.5Z" fill="#fff"/><path d="M4 2.5H3v6h1v-6Z" fill="#E03232"/><path d="M6.5 5h-6v1h6V5Z" fill="#E03232"/><path d="M.853 2.5H.5v.353L6.147 8.5H6.5v-.353L.853 2.5Z" fill="#E03232"/><path d="M6.5 2.853V2.5h-.353L.5 8.147V8.5h.353L6.5 2.853Z" fill="#E03232"/><path d="M12.5 8.5H12V9h.5v-.5Zm-8.5 2H3v1h1v-1Zm6-7H9v1h1v-1Zm-.5 4h-1v1h1v-1Zm4-2h-1v1h1v-1Z" fill="#fff"/></svg>
