<!--
* SPDX-FileCopyrightText: © 2020 Liferay, Inc. <https://liferay.com>
* SPDX-FileCopyrightText: © 2020 Contributors to the project Clay <https://github.com/liferay/clay/graphs/contributors>
*
* SPDX-License-Identifier: BSD-3-Clause
-->
<svg viewBox="0 0 16 16" xmlns="http://www.w3.org/2000/svg"><path d="M16 2H0v12h16V2Z" fill="#C0CFD8"/><path d="M15.5 2.5H.5v1h15v-1Z" fill="#E03232"/><path d="M15.5 3.5H.5v1h15v-1Z" fill="#fff"/><path d="M15.5 4.5H.5v1h15v-1Z" fill="#E03232"/><path d="M15.5 5.5H.5v1h15v-1Z" fill="#fff"/><path d="M15.5 6.5H.5v1h15v-1Z" fill="#E03232"/><path d="M15.5 7.5H.5v1h15v-1Z" fill="#fff"/><path d="M15.5 8.5H.5v1h15v-1Z" fill="#E03232"/><path d="M15.5 9.5H.5v1h15v-1Z" fill="#fff"/><path d="M15.5 10.5H.5v1h15v-1Z" fill="#E03232"/><path d="M15.5 11.5H.5v1h15v-1Z" fill="#fff"/><path d="M15.5 12.5H.5v1h15v-1Z" fill="#E03232"/><path d="M8.5 2.5h-8v6h8v-6Z" fill="#66A1CC"/><path d="M8.5 2.5h-8v6h8v-6Z" fill="#0035A0"/></svg>
