<!--
* SPDX-FileCopyrightText: © 2020 Liferay, Inc. <https://liferay.com>
* SPDX-FileCopyrightText: © 2020 Contributors to the project Clay <https://github.com/liferay/clay/graphs/contributors>
*
* SPDX-License-Identifier: BSD-3-Clause
-->
<svg viewBox="0 0 512 512" xmlns="http://www.w3.org/2000/svg">
	<rect fill="#B0BEC9" height="384" width="512" y="64"></rect>
	<rect fill="#0035A0" height="352" width="480" x="16" y="80"></rect>
	<rect fill="#FFFFFF" height="192" width="48" x="88" y="80"></rect>
	<rect fill="#FFFFFF" height="48" width="192" x="16" y="152"></rect>
	<rect fill="#FFFFFF" height="48" width="192" x="16" y="152"></rect>
	<rect fill="#E03232" height="192" width="32" x="96" y="80"></rect>
	<rect fill="#E03232" height="32" width="192" x="16" y="160"></rect>
	<polygon fill="#E03232" points="27.3,80 16,80 16,91.3 196.7,272 208,272 208,260.7 "></polygon>
	<polygon fill="#E03232" points="208,91.3 208,80 196.7,80 16,260.7 16,272 27.3,272 "></polygon>
	<rect fill="#FFFFFF" height="16" width="16" x="384" y="272"></rect>
	<rect fill="#FFFFFF" height="32" width="32" x="96" y="336"></rect>
	<rect fill="#FFFFFF" height="32" width="32" x="288" y="112"></rect>
	<rect fill="#FFFFFF" height="32" width="32" x="272" y="240"></rect>
	<rect fill="#FFFFFF" height="32" width="32" x="400" y="176"></rect>
</svg>