<!--
* SPDX-FileCopyrightText: © 2020 Liferay, Inc. <https://liferay.com>
* SPDX-FileCopyrightText: © 2020 Contributors to the project Clay <https://github.com/liferay/clay/graphs/contributors>
*
* SPDX-License-Identifier: BSD-3-Clause
-->
<svg width="16" height="16" viewBox="0 0 16 16" fill="none" xmlns="http://www.w3.org/2000/svg">
<path d="M16 2H0V14H16V2Z" fill="#B0BEC9"/>
<path d="M15.5 2.5H0.5V13.5H15.5V2.5Z" fill="#0035A0"/>
<path d="M4.25 2.5H2.75V8.5H4.25V2.5Z" fill="white"/>
<path d="M6.5 4.75H0.5V6.25H6.5V4.75Z" fill="white"/>
<path d="M6.5 4.75H0.5V6.25H6.5V4.75Z" fill="white"/>
<path d="M4 2.5H3V8.5H4V2.5Z" fill="#E03232"/>
<path d="M6.5 5H0.5V6H6.5V5Z" fill="#E03232"/>
<path d="M0.853125 2.5H0.5V2.85313L6.14687 8.5H6.5V8.14688L0.853125 2.5Z" fill="#E03232"/>
<path d="M6.5 2.85313V2.5H6.14687L0.5 8.14688V8.5H0.853125L6.5 2.85313Z" fill="#E03232"/>
<path d="M12.5 8.5H12V9H12.5V8.5Z" fill="white"/>
<path d="M4 10.5H3V11.5H4V10.5Z" fill="white"/>
<path d="M10 3.5H9V4.5H10V3.5Z" fill="white"/>
<path d="M9.5 7.5H8.5V8.5H9.5V7.5Z" fill="white"/>
<path d="M13.5 5.5H12.5V6.5H13.5V5.5Z" fill="white"/>
</svg>
