<!--
* SPDX-FileCopyrightText: © 2020 Liferay, Inc. <https://liferay.com>
* SPDX-FileCopyrightText: © 2020 Contributors to the project Clay <https://github.com/liferay/clay/graphs/contributors>
*
* SPDX-License-Identifier: BSD-3-Clause
-->
<svg viewBox="0 0 512 512" xmlns="http://www.w3.org/2000/svg">
	<rect fill="#B0BEC9" height="384" width="512" y="64"></rect>
	<rect fill="#0094CE" height="112" width="480" x="16" y="80.3"></rect>
	<rect fill="#FFFFFF" height="112" width="480" x="16" y="320"></rect>
	<rect fill="#4C4C4E" height="128" width="480" x="16" y="192"></rect>
	<rect fill="#B0BEC9" height="384" width="512" y="64"></rect>
	<rect fill="#E03232" height="352" width="480" x="16" y="80"></rect>
	<polygon fill="#75BD4A" points="256,295.7 441.9,432 496,432 496,392.3 310.1,256 496,119.7 496,80 441.9,80 256,216.3 70.1,80 16,80 16,119.7 201.9,256 16,392.3 16,432 70.1,432 "></polygon>
	<polygon fill="#FFFFFF" points="496,224 288,224 288,80 224,80 224,224 16,224 16,288 224,288 224,432 288,432 288,288 496,288 "></polygon>
</svg>