<!--
* SPDX-FileCopyrightText: © 2022 Liferay, Inc. <https://liferay.com>
* SPDX-FileCopyrightText: © 2022 Contributors to the project Clay <https://github.com/liferay/clay/graphs/contributors>
*
* SPDX-License-Identifier: BSD-3-Clause
-->
<svg viewBox="0 0 16 16" xmlns="http://www.w3.org/2000/svg"><path class="lexicon-icon-outline" d="M4.5 6.496c0-1.313 2-1.323 2 0v1.502h-2V6.496Z"/><path class="lexicon-icon-outline" fill-rule="evenodd" clip-rule="evenodd" d="M2.57 15.002a1 1 0 0 0 1.858.513l8.364-14A1 1 0 0 0 11.075.49l-1.47 2.462-2.07-1.553c-.348-.26-.77-.4-1.2-.4H2c-1.103 0-2 .897-2 2v10.003c0 1.104.897 2 2 2h.57ZM4.196 12 7 7.31v-.814c0-1.99-3-2.002-3 0v1.502h-.3c-.44 0-.7.36-.7.8v2.403c0 .44.26.8.7.8h.497Z"/><path class="lexicon-icon-outline" d="M6.901 15.002H14c1.103 0 2-.897 2-2V5.998c0-1.103-.897-2-2-2h-.55L6.9 15.002Z"/></svg>