<!--
* SPDX-FileCopyrightText: © 2022 Liferay, Inc. <https://liferay.com>
* SPDX-FileCopyrightText: © 2022 Contributors to the project Clay <https://github.com/liferay/clay/graphs/contributors>
*
* SPDX-License-Identifier: BSD-3-Clause
-->
<svg viewBox="0 0 16 16" xmlns="http://www.w3.org/2000/svg"><path fill-rule="evenodd" clip-rule="evenodd" d="M2.57 15.002a1 1 0 0 0 1.858.513l8.364-14A1 1 0 0 0 11.075.49l-1.47 2.46-2.07-1.553c-.348-.26-.77-.4-1.2-.4H2c-1.103 0-2 .897-2 2v10.004c0 1.103.897 2 2 2h.57Zm1.627-3L7 7.31v-.813c0-1.992-3-2.002-3 0v1.502h-.3c-.44 0-.7.36-.7.8V11.2c0 .44.26.8.7.8h.497ZM4.5 6.496c0-1.313 2-1.324 2 0v1.502h-2V6.497Zm2.401 8.505H14c1.103 0 2-.897 2-2V5.999c0-1.103-.897-2-2-2h-.55L6.9 15.002Z"/></svg>
