<!--
* SPDX-FileCopyrightText: © 2020 Liferay, Inc. <https://liferay.com>
* SPDX-FileCopyrightText: © 2020 Contributors to the project Clay <https://github.com/liferay/clay/graphs/contributors>
*
* SPDX-License-Identifier: BSD-3-Clause
-->
<svg  viewBox="0 0 16 16" xmlns="http://www.w3.org/2000/svg">
<path class="lexicon-icon-outline" d="M4.5 6.28677C4.5 4.78677 6.5 4.77427 6.5 6.28677V8.0028H4.5V6.28677Z" />
<path class="lexicon-icon-outline" d="M5 11.4331H6V9.71702H5V11.4331Z" />
<path class="lexicon-icon-outline" fill-rule="evenodd" clip-rule="evenodd" d="M14 4.00097H11L7.53438 1.46154C7.1875 1.16511 6.76562 1.00439 6.33437 1.00439H2C0.896875 1.00439 0 1.74173 0 3.00244V13.0024C0 14.2632 0.896875 15.0024 2 15.0024H14C15.1031 15.0024 16 14.2632 16 13.0024V9.71868V6.00244C16 4.74173 15.1031 4.00097 14 4.00097ZM7.20019 8.00272H7V6.28668C7 4.01179 4 3.99929 4 6.28668V8.00272H3.70019C3.25928 8.00272 3 8.41343 3 8.917V11.6615C3 12.1651 3.25928 12.5758 3.70019 12.5758H7.20019C7.64062 12.5758 8 12.1651 8 11.6615V8.917C8 8.41343 7.64062 8.00272 7.20019 8.00272Z" />
</svg>
