<!--
* SPDX-FileCopyrightText: © 2022 Liferay, Inc. <https://liferay.com>
* SPDX-FileCopyrightText: © 2022 Contributors to the project Clay <https://github.com/liferay/clay/graphs/contributors>
*
* SPDX-License-Identifier: BSD-3-Clause
-->
<svg viewBox="0 0 16 16" xmlns="http://www.w3.org/2000/svg"><path class="lexicon-icon-outline" d="M4.5 6.284c0-1.5 2-1.512 2 0V8h-2V6.284ZM5 11.43h1V9.716H5v1.716Z"/><path class="lexicon-icon-outline" fill-rule="evenodd" clip-rule="evenodd" d="M14 3.43h-3L7.534.46a1.847 1.847 0 0 0-1.2-.458H2c-1.103 0-2 1.025-2 2.286v11.428c0 1.261.897 2.286 2 2.286h12c1.103 0 2-1.025 2-2.286v-8c0-1.26-.897-2.285-2-2.285ZM7.2 8H7V6.284c0-2.275-3-2.287-3 0V8h-.3c-.44 0-.7.411-.7.915v2.744c0 .504.26.914.7.914h3.5c.44 0 .8-.41.8-.914V8.915C8 8.41 7.64 8 7.2 8Z"/></svg>