<!--
* SPDX-FileCopyrightText: © 2022 Liferay, Inc. <https://liferay.com>
* SPDX-FileCopyrightText: © 2022 Contributors to the project Clay <https://github.com/liferay/clay/graphs/contributors>
*
* SPDX-License-Identifier: BSD-3-Clause
-->
<svg viewBox="0 0 16 16" xmlns="http://www.w3.org/2000/svg"><path d="M4.5 6.287c0-1.5 2-1.513 2 0v1.716h-2V6.287Zm.5 5.146h1V9.717H5v1.716Z"/><path fill-rule="evenodd" clip-rule="evenodd" d="M14 4h-3L7.534 1.462a1.847 1.847 0 0 0-1.2-.457H2c-1.103 0-2 .738-2 1.998v10c0 1.261.897 2 2 2h12c1.103 0 2-.739 2-2v-7c0-1.26-.897-2.001-2-2.001ZM7.2 8.004H7V6.287c0-2.275-3-2.288-3 0v1.716h-.3c-.44 0-.7.41-.7.914v2.744c0 .504.26.915.7.915h3.5c.44 0 .8-.411.8-.915V8.917c0-.504-.36-.914-.8-.914Z"/></svg>
