<!--
* SPDX-FileCopyrightText: © 2020 Liferay, Inc. <https://liferay.com>
* SPDX-FileCopyrightText: © 2020 Contributors to the project Clay <https://github.com/liferay/clay/graphs/contributors>
*
* SPDX-License-Identifier: BSD-3-Clause
-->
<svg  viewBox="0 0 16 16" xmlns="http://www.w3.org/2000/svg">
<path class="lexicon-icon-outline" fill-rule="evenodd" clip-rule="evenodd" d="M2.56925 15.0024C2.56969 15.3473 2.74863 15.6831 3.06938 15.8683C3.5425 16.1415 4.14731 15.9843 4.42759 15.5152L12.7917 1.51591C13.0781 1.03666 12.9167 0.41575 12.4334 0.136594C11.9603 -0.136656 11.3555 0.0205624 11.0752 0.489687L9.60428 2.95156L7.53438 1.39819C7.1875 1.13875 6.76562 0.998062 6.33437 0.998062H2C0.896875 0.998062 0 1.89522 0 2.99869V13.0018C0 14.1052 0.896875 15.0024 2 15.0024H2.56925ZM4.19725 12.0015L7 7.31041V6.49678C7 4.50563 4 4.49469 4 6.49678V7.99875H3.70019C3.25928 7.99875 3 8.35825 3 8.799V11.2012C3 11.642 3.25928 12.0015 3.70019 12.0015H4.19725ZM4.5 6.49684C4.5 5.18394 6.5 5.173 6.5 6.49684V7.99881H4.5V6.49684ZM6.90137 15.0024H13.9999C15.103 15.0024 15.9999 14.1052 15.9999 13.0018V5.99962C15.9999 4.89615 15.103 3.99899 13.9999 3.99899H13.4491L6.90137 15.0024Z" />
</svg>
