<!--
* SPDX-FileCopyrightText: © 2022 Liferay, Inc. <https://liferay.com>
* SPDX-FileCopyrightText: © 2022 Contributors to the project Clay <https://github.com/liferay/clay/graphs/contributors>
*
* SPDX-License-Identifier: BSD-3-Clause
-->
<svg viewBox="0 0 16 16" xmlns="http://www.w3.org/2000/svg"><path class="lexicon-icon-outline" d="m13.784 10.845.45-.45c1.006-.94 2.384.453 1.468 1.41l-1.965 1.909c-.403.39-1.053.39-1.457 0l-1.965-1.91c-.953-1.047.506-2.315 1.465-1.443l.45.425V4.164l-.45.45c-1.04.903-2.4-.42-1.465-1.407l1.962-1.912a1.051 1.051 0 0 1 1.457 0l1.965 1.91c.906.909-.406 2.356-1.465 1.443l-.45-.425v6.622Z"/><path class="lexicon-icon-outline" fill-rule="evenodd" clip-rule="evenodd" d="M2.284 5.695c-.125.894-2.129.79-1.82-.453.926-3.344 7.145-2.91 7.141.625v5.037c0 1.222-2.278 1.325-2.028-.41-4.06 5.235-10.203-4.483 0-3.883.37-2.832-3.08-2.275-3.293-.916Zm-.235 3.581c.028-1.215 1.166-1.45 3.531-1.315.204 3.209-3.53 2.996-3.53 1.315Z"/></svg>