<!--
* SPDX-FileCopyrightText: © 2020 Liferay, Inc. <https://liferay.com>
* SPDX-FileCopyrightText: © 2020 Contributors to the project Clay <https://github.com/liferay/clay/graphs/contributors>
*
* SPDX-License-Identifier: BSD-3-Clause
-->
<svg  viewBox="0 0 16 16" xmlns="http://www.w3.org/2000/svg">
<path class="lexicon-icon-outline" fill-rule="evenodd" clip-rule="evenodd" d="M5.48739 3.93833L8.26239 11.7092C8.62176 12.7449 7.07489 13.4032 6.63427 12.2645L5.99364 10.3117H2.3249L1.68427 12.2676C1.2624 13.3688 -0.309472 12.7855 0.0561521 11.7123L2.8374 3.93833C3.31552 2.70922 5.00927 2.67802 5.48739 3.93833ZM4.14052 4.75879L2.76865 8.95151H5.54677L4.1749 4.75879H4.14052ZM11.4375 7.56642C11.3313 8.33073 9.61254 8.24338 9.87817 7.17959C10.6719 4.31893 16.0032 4.69016 16 7.71305V12.0243C16 13.0694 14.0469 13.1599 14.2625 11.6749C10.7813 16.1547 5.51568 7.83783 14.2594 8.34944C14.5782 5.92864 11.6188 6.40282 11.4375 7.56642ZM11.2375 10.633C11.2625 9.59416 12.2375 9.39139 14.2657 9.50681C14.4375 12.2521 11.2375 12.0711 11.2375 10.633Z" />
</svg>
