<!--
* SPDX-FileCopyrightText: © 2020 Liferay, Inc. <https://liferay.com>
* SPDX-FileCopyrightText: © 2020 Contributors to the project Clay <https://github.com/liferay/clay/graphs/contributors>
*
* SPDX-License-Identifier: BSD-3-Clause
-->
<svg  viewBox="0 0 16 16" xmlns="http://www.w3.org/2000/svg">
<path class="lexicon-icon-outline" fill-rule="evenodd" clip-rule="evenodd" d="M13.7814 11.3431L14.2314 10.8931C15.2376 9.95247 16.6158 11.3462 15.7001 12.3025L13.7345 14.2119C13.3314 14.6025 12.6814 14.6025 12.2783 14.2119L10.3126 12.3025C9.3595 11.2556 10.8189 9.98685 11.7783 10.8587L12.2283 11.2837V4.66184L11.7783 5.11184C10.7376 6.01497 9.37825 4.69309 10.3126 3.70559L12.2751 1.79309C12.6783 1.40247 13.3283 1.40247 13.7314 1.79309L15.697 3.70247C16.6033 4.61184 15.2908 6.05872 14.2314 5.14622L13.7814 4.72122V11.3431ZM2.28137 6.19306C2.15637 7.08681 0.153245 6.98369 0.46262 5.73994C1.38762 2.39619 7.60637 2.83057 7.60325 6.36494V11.4024C7.60325 12.6243 5.32512 12.7274 5.57512 10.9931C1.51575 16.2274 -4.62801 6.50869 5.57512 7.10869C5.94387 4.27744 2.49387 4.83369 2.28137 6.19306ZM2.047 9.77431C2.07512 8.55869 3.21262 8.32431 5.57825 8.45869C5.78137 11.6681 2.047 11.4556 2.047 9.77431Z" />
</svg>
