<!--
* SPDX-FileCopyrightText: © 2020 Liferay, Inc. <https://liferay.com>
* SPDX-FileCopyrightText: © 2020 Contributors to the project Clay <https://github.com/liferay/clay/graphs/contributors>
*
* SPDX-License-Identifier: BSD-3-Clause
-->
<svg viewBox="0 0 16 16" xmlns="http://www.w3.org/2000/svg"><path fill-rule="evenodd" clip-rule="evenodd" d="m5.487 3.938 2.775 7.771c.36 1.036-1.187 1.694-1.628.555l-.64-1.952h-3.67l-.64 1.956c-.422 1.1-1.993.517-1.628-.556l2.781-7.774c.479-1.229 2.172-1.26 2.65 0Zm-1.346.82L2.769 8.952h2.778L4.175 4.76H4.14Zm7.296 2.808c-.106.765-1.824.677-1.559-.387.794-2.86 6.125-2.489 6.122.534v4.311c0 1.045-1.953 1.136-1.738-.35-3.48 4.48-8.746-3.836-.003-3.325.32-2.42-2.64-1.946-2.822-.783Zm-.2 3.067c.025-1.039 1-1.242 3.029-1.126.171 2.745-3.028 2.564-3.028 1.126Z"/></svg>
