<!--
* SPDX-FileCopyrightText: © 2022 Liferay, Inc. <https://liferay.com>
* SPDX-FileCopyrightText: © 2022 Contributors to the project Clay <https://github.com/liferay/clay/graphs/contributors>
*
* SPDX-License-Identifier: BSD-3-Clause
-->
<svg viewBox="0 0 16 16" xmlns="http://www.w3.org/2000/svg"><path class="lexicon-icon-outline" fill-rule="evenodd" clip-rule="evenodd" d="m5.486 3.936 2.775 7.77c.36 1.036-1.188 1.694-1.628.556l-.64-1.953h-3.67l-.64 1.956c-.422 1.101-1.994.518-1.628-.556l2.78-7.773c.48-1.23 2.173-1.26 2.65 0Zm-1.347.82L2.767 8.949h2.778L4.173 4.756H4.14Z"/><path class="lexicon-icon-outline" fill-rule="evenodd" clip-rule="evenodd" d="M11.436 7.564c-.106.764-1.825.677-1.56-.387.794-2.86 6.126-2.49 6.123.533v4.311c0 1.046-1.954 1.136-1.738-.349-3.481 4.48-8.747-3.837-.003-3.325.319-2.421-2.64-1.947-2.822-.783Zm-.2 3.066c.025-1.039 1-1.241 3.028-1.126.172 2.745-3.028 2.564-3.028 1.126Z"/></svg>