<!--
* SPDX-FileCopyrightText: © 2020 Liferay, Inc. <https://liferay.com>
* SPDX-FileCopyrightText: © 2020 Contributors to the project Clay <https://github.com/liferay/clay/graphs/contributors>
*
* SPDX-License-Identifier: BSD-3-Clause
-->
<svg viewBox="0 0 16 16" xmlns="http://www.w3.org/2000/svg"><path fill-rule="evenodd" clip-rule="evenodd" d="m13.781 11.343.45-.45c1.007-.94 2.385.453 1.47 1.41l-1.966 1.909c-.404.39-1.054.39-1.457 0l-1.965-1.91c-.954-1.046.506-2.315 1.465-1.443l.45.425V4.662l-.45.45c-1.04.903-2.4-.419-1.465-1.407l1.962-1.912a1.051 1.051 0 0 1 1.456 0l1.966 1.91c.906.909-.406 2.356-1.466 1.443l-.45-.425v6.622Zm-11.5-5.15c-.125.894-2.128.79-1.818-.453.925-3.344 7.143-2.91 7.14.625v5.037c0 1.222-2.278 1.325-2.028-.41-4.06 5.235-10.203-4.483 0-3.883.369-2.832-3.081-2.275-3.294-.916Zm-.234 3.581c.028-1.215 1.166-1.45 3.531-1.315.203 3.209-3.531 2.996-3.531 1.315Z"/></svg>
