<!--
* SPDX-FileCopyrightText: © 2020 Liferay, Inc. <https://liferay.com>
* SPDX-FileCopyrightText: © 2020 Contributors to the project Clay <https://github.com/liferay/clay/graphs/contributors>
*
* SPDX-License-Identifier: BSD-3-Clause
-->
<svg viewBox="0 0 16 16" xmlns="http://www.w3.org/2000/svg"><path d="M12 4.002H7a1 1 0 1 0 0 2h5a1 1 0 1 0 0-2Zm-7 1a1 1 0 1 1-2 0 1 1 0 0 1 2 0Zm7 2H7a1 1 0 1 0 0 2h5a1 1 0 1 0 0-2Zm-7 1a1 1 0 1 1-2 0 1 1 0 0 1 2 0Zm7 2H7a1 1 0 1 0 0 2h5a1 1 0 1 0 0-2Zm-7 1a1 1 0 1 1-2 0 1 1 0 0 1 2 0Z"/><path fill-rule="evenodd" clip-rule="evenodd" d="M2 .002h12c1.104 0 2 .897 2 2v12c0 1.103-.896 2-2 2H2c-1.104 0-2-.897-2-2v-12c0-1.103.896-2 2-2Zm0 14h12v-12H2v12Z"/></svg>
