<!--
* SPDX-FileCopyrightText: © 2020 Liferay, Inc. <https://liferay.com>
* SPDX-FileCopyrightText: © 2020 Contributors to the project Clay <https://github.com/liferay/clay/graphs/contributors>
*
* SPDX-License-Identifier: BSD-3-Clause
-->
<svg viewBox="0 0 16 16" xmlns="http://www.w3.org/2000/svg"><path fill-rule="evenodd" clip-rule="evenodd" d="M10 .002H8v2h2v-2Zm-6 6a1 1 0 1 0 0-2 1 1 0 0 0 0 2Zm3-2h5a1 1 0 1 1 0 2H7a1 1 0 1 1 0-2Zm5 3H7a1 1 0 1 0 0 2h5a1 1 0 1 0 0-2Zm-8 2a1 1 0 1 0 0-2 1 1 0 0 0 0 2Zm8 1.062H7a1 1 0 1 0 0 2h5a1 1 0 1 0 0-2Zm-8 2a1 1 0 1 0 0-1.999 1 1 0 0 0 0 2Zm12-6.062h-2v4h2v-4Zm-8 8h2v2H8v-2Zm-8-4.03v4.03a2 2 0 0 0 2 2h4v-2H2V2.003h4v-2H2a2 2 0 0 0-2 2V9.97Zm16 2.03h-2v2h-2v2h2a2 2 0 0 0 2-2v-2Zm-4-10v-2h2a2 2 0 0 1 2 2v2h-2v-2h-2Z"/></svg>
