<!--
* SPDX-FileCopyrightText: © 2020 Liferay, Inc. <https://liferay.com>
* SPDX-FileCopyrightText: © 2020 Contributors to the project Clay <https://github.com/liferay/clay/graphs/contributors>
*
* SPDX-License-Identifier: BSD-3-Clause
-->
<svg viewBox="0 0 16 16" xmlns="http://www.w3.org/2000/svg"><path d="M6 .004h7c1.1 0 2 .9 2 2v2c0 1.1-.9 2-2 2H6c-1.1 0-2-.9-2-2v-2c0-1.1.9-2 2-2Z"/><path d="M12 10.004h.969c.015 0 .031.016.031.032v5.937c0 .016-.016.031-.031.031H9.03c-.015 0-.031-.015-.031-.031v-5.938c0-.015.016-.03.031-.03H10v-1H2a1 1 0 0 1-1-1v-4a1 1 0 1 1 2 0v3h8a1 1 0 0 1 1 1v2Z"/></svg>
