<!--
* SPDX-FileCopyrightText: © 2020 Liferay, Inc. <https://liferay.com>
* SPDX-FileCopyrightText: © 2020 Contributors to the project Clay <https://github.com/liferay/clay/graphs/contributors>
*
* SPDX-License-Identifier: BSD-3-Clause
-->
<svg  viewBox="0 0 16 16" xmlns="http://www.w3.org/2000/svg">
<path class="lexicon-icon-outline" fill-rule="evenodd" clip-rule="evenodd" d="M10 0.00244141H8V2.00244H10V0.00244141ZM4.00001 6.00244C4.55275 6.00244 5.00001 5.55472 5.00001 5.00244C5.00001 4.45016 4.55275 4.00244 4.00001 4.00244C3.44728 4.00244 3.00001 4.45016 3.00001 5.00244C3.00001 5.55472 3.44728 6.00244 4.00001 6.00244ZM7.00001 4.00244H12C12.5527 4.00244 13 4.44931 13 5.00244C13 5.55557 12.5527 6.00244 12 6.00244H7.00001C6.44728 6.00244 6.00001 5.55557 6.00001 5.00244C6.00001 4.44931 6.44728 4.00244 7.00001 4.00244ZM12 7.00244H7.00001C6.44728 7.00244 6.00001 7.44931 6.00001 8.00244C6.00001 8.55557 6.44728 9.00244 7.00001 9.00244H12C12.5527 9.00244 13 8.55557 13 8.00244C13 7.44931 12.5527 7.00244 12 7.00244ZM4.00001 9.00244C4.55275 9.00244 5.00001 8.55472 5.00001 8.00244C5.00001 7.45016 4.55275 7.00244 4.00001 7.00244C3.44728 7.00244 3.00001 7.45016 3.00001 8.00244C3.00001 8.55472 3.44728 9.00244 4.00001 9.00244ZM12 10.0645H7.00001C6.44728 10.0645 6.00001 10.5114 6.00001 11.0645C6.00001 11.6177 6.44728 12.0645 7.00001 12.0645H12C12.5527 12.0645 13 11.6177 13 11.0645C13 10.5114 12.5527 10.0645 12 10.0645ZM4 12.0645C4.55273 12.0645 5 11.6168 5 11.0645C5 10.5122 4.55273 10.0645 4 10.0645C3.44727 10.0645 3 10.5122 3 11.0645C3 11.6168 3.44727 12.0645 4 12.0645ZM16 6.00244H14V10.0024H16V6.00244ZM8 14.0024H10V16.0024H8V14.0024ZM0 9.97142V14.0024C0 15.107 0.89543 16.0024 2 16.0024H6V14.0024H2V9.97142V6.03351V2.00244H6V0.00244141H2C0.895431 0.00244141 0 0.897872 0 2.00244V6.03351V9.97142ZM16 12.0024H14V14.0024H12V16.0024H14C15.1046 16.0024 16 15.107 16 14.0024V12.0024ZM12 2.00244V0.00244141H14C15.1046 0.00244141 16 0.897872 16 2.00244V4.00244L14 4.00244V2.00244L12 2.00244Z" />
</svg>
