<!--
* SPDX-FileCopyrightText: © 2022 Liferay, Inc. <https://liferay.com>
* SPDX-FileCopyrightText: © 2022 Contributors to the project Clay <https://github.com/liferay/clay/graphs/contributors>
*
* SPDX-License-Identifier: BSD-3-Clause
-->
<svg viewBox="0 0 16 16" xmlns="http://www.w3.org/2000/svg"><path class="lexicon-icon-outline" d="M6 .002h7c1.1 0 2 .9 2 2v2c0 1.1-.9 2-2 2H6c-1.1 0-2-.9-2-2v-2c0-1.1.9-2 2-2Z"/><path class="lexicon-icon-outline" d="M12 10.002h.969c.015 0 .031.016.031.031v5.938c0 .015-.016.031-.031.031H9.03c-.015 0-.031-.016-.031-.031v-5.938c0-.015.016-.031.031-.031H10v-1H2a1 1 0 0 1-1-1v-4a1 1 0 1 1 2 0v3h8a1 1 0 0 1 1 1v2Z"/></svg>