<!--
* SPDX-FileCopyrightText: © 2020 Liferay, Inc. <https://liferay.com>
* SPDX-FileCopyrightText: © 2020 Contributors to the project Clay <https://github.com/liferay/clay/graphs/contributors>
*
* SPDX-License-Identifier: BSD-3-Clause
-->
<svg xmlns="http://www.w3.org/2000/svg" viewBox="0 0 512 512">
	<rect class="lexicon-icon-outline lx-form-extensions-border-1" x="256" width="64" height="64"/>
	<ellipse class="lexicon-icon-outline lx-form-extensions-circle-1" transform="matrix(0.9782 -0.2075 0.2075 0.9782 -30.4077 30.0357)" cx="128" cy="160" rx="32" ry="32"/>
	<path class="lexicon-icon-outline lx-form-extensions-rectangle-1" d="M224,192h160c17.7,0,32-14.3,32-32s-14.3-32-32-32H224c-17.7,0-32,14.3-32,32S206.3,192,224,192z"/>
	<path class="lexicon-icon-outline lx-form-extensions-rectangle-2" d="M384,224H224c-17.7,0-32,14.3-32,32s14.3,32,32,32h160c17.7,0,32-14.3,32-32S401.7,224,384,224z"/>
	<ellipse class="lexicon-icon-outline lx-form-extensions-circle-2" transform="matrix(0.4711 -0.8821 0.8821 0.4711 -158.1109 248.3094)" cx="128" cy="256" rx="32" ry="32"/>
	<path class="lexicon-icon-outline lx-form-extensions-rectangle-3" d="M416,354c0-17.7-14.3-32-32-32H224c-17.7,0-32,14.3-32,32s14.3,32,32,32h160C401.7,386,416,371.7,416,354z"/>
	<circle class="lexicon-icon-outline lx-form-extensions-circle-3" cx="128" cy="354" r="32"/>
	<rect class="lexicon-icon-outline lx-form-extensions-border-2" x="448" y="192" width="64" height="128"/>
	<rect class="lexicon-icon-outline lx-form-extensions-border-3" x="256" y="448" width="64" height="64"/>
	<path class="lexicon-icon-outline lx-form-extensions-border-4" d="M64,64h128V0H64C28.7,0,0,28.7,0,64v384c0,35.3,28.7,64,64,64h128v-64H64V64z"/>
	<path class="lexicon-icon-outline lx-form-extensions-border-5" d="M448,448h-64v64h64c35.3,0,64-28.7,64-64v-64h-64V448z"/>
	<path class="lexicon-icon-outline lx-form-extensions-border-6" d="M448,0h-64v64h64v64h64V64C512,28.7,483.3,0,448,0z"/>
</svg>