<!--
* SPDX-FileCopyrightText: © 2020 Liferay, Inc. <https://liferay.com>
* SPDX-FileCopyrightText: © 2020 Contributors to the project Clay <https://github.com/liferay/clay/graphs/contributors>
*
* SPDX-License-Identifier: BSD-3-Clause
-->
<svg  viewBox="0 0 16 16" xmlns="http://www.w3.org/2000/svg">
<path class="lexicon-icon-outline" d="M6 0.00439453H13C14.0996 0.00439453 15 0.904388 15 2.00439V4.00439C15 5.1044 14.0996 6.00439 13 6.00439H6C4.90039 6.00439 4 5.1044 4 4.00439V2.00439C4 0.904388 4.90039 0.00439453 6 0.00439453Z" />
<path class="lexicon-icon-outline" d="M12 10.0044H12.9688C12.9844 10.0044 13 10.02 13 10.0356V15.9731C13 15.9888 12.9844 16.0044 12.9688 16.0044H9.03125C9.01562 16.0044 9 15.9888 9 15.9731V10.0356C9 10.02 9.01562 10.0044 9.03125 10.0044H10V9.00439H2C1.44727 9.00439 1 8.55753 1 8.00439V4.00439C1 3.45126 1.44727 3.00439 2 3.00439C2.55273 3.00439 3 3.45126 3 4.00439V7.00439H11C11.5527 7.00439 12 7.45126 12 8.00439V10.0044Z" />
</svg>
