<!--
* SPDX-FileCopyrightText: © 2020 Liferay, Inc. <https://liferay.com>
* SPDX-FileCopyrightText: © 2020 Contributors to the project Clay <https://github.com/liferay/clay/graphs/contributors>
*
* SPDX-License-Identifier: BSD-3-Clause
-->
<svg  viewBox="0 0 16 16" xmlns="http://www.w3.org/2000/svg">
<path class="lexicon-icon-outline" d="M15.7041 0.298523C15.5137 0.108521 15.2578 0.00244141 14.9873 0.00244141H11.8232C11.2627 0.00244141 10.8096 0.455444 10.8115 1.01447C10.8115 1.29291 10.9238 1.547 11.1074 1.73041C11.291 1.91382 11.5449 2.02655 11.8232 2.02655H12.5615L10.0469 4.5412L11.4609 5.95538L13.9756 3.44073V4.17877C13.9756 4.74005 14.4287 5.19305 14.9873 5.19086C15.5488 5.19086 16.002 4.73785 16 4.17877V1.01447C16 0.744873 15.8936 0.488586 15.7041 0.298523Z" />
<path class="lexicon-icon-outline" d="M9.00001 3.96509H4.00001V9.00244H2.00001V3.96509C2.00001 2.86511 2.9004 1.96509 4.00001 1.96509H9.00001V3.96509Z" />
<path class="lexicon-icon-outline" d="M7.00001 11.9651H12V7.00244H14V12.0024C14 13.1024 13.0996 14.0024 12 14.0024H7.00001V11.9651Z" />
<path class="lexicon-icon-outline" d="M2.02442 12.5641L4.53907 10.0495L5.95313 11.4637L3.43848 13.9783H4.17676C4.45508 13.9783 4.70899 14.0911 4.89258 14.2745C5.07618 14.4579 5.18848 14.712 5.18848 14.9904C5.19044 15.5494 4.73731 16.0024 4.17676 16.0024H1.01173C0.742194 16.0024 0.486334 15.8964 0.295905 15.7064C0.106452 15.5163 6.29032e-06 15.26 6.29032e-06 14.9904V11.8261C-0.00194683 11.267 0.451178 10.8141 1.01173 10.8141C1.5713 10.8118 2.02442 11.2648 2.02442 11.8261V12.5641Z" />
</svg>
