<!--
* SPDX-FileCopyrightText: © 2020 Liferay, Inc. <https://liferay.com>
* SPDX-FileCopyrightText: © 2020 Contributors to the project Clay <https://github.com/liferay/clay/graphs/contributors>
*
* SPDX-License-Identifier: BSD-3-Clause
-->
<svg viewBox="0 0 16 16" xmlns="http://www.w3.org/2000/svg"><path d="M15.704.298a1.011 1.011 0 0 0-.717-.296h-3.164a1.01 1.01 0 0 0-1.011 1.012 1.01 1.01 0 0 0 1.011 1.012h.739l-2.515 2.515 1.414 1.414 2.515-2.514v.738a1.01 1.01 0 0 0 1.011 1.012A1.01 1.01 0 0 0 16 4.179V1.014c0-.27-.106-.526-.296-.716ZM9 3.965H4v5.037H2V3.965c0-1.1.9-2 2-2h5v2Zm-2 8h5V7.002h2v5c0 1.1-.9 2-2 2H7v-2.037Zm-4.976.599 2.515-2.515 1.414 1.415-2.515 2.514h.739a1.01 1.01 0 0 1 1.011 1.012 1.01 1.01 0 0 1-1.011 1.012H1.012A1.01 1.01 0 0 1 0 14.99v-3.164a1.01 1.01 0 0 1 1.012-1.012 1.01 1.01 0 0 1 1.012 1.012v.738Z"/></svg>
