<svg xmlns="http://www.w3.org/2000/svg" viewBox="0 0 512 512">
	<path class="lexicon-icon-outline full-size-bottom-right" d="M384,382.8041H224V448h160c35.2,0,64-28.8,64-64V224h-64V382.8041z"></path>
	<path class="lexicon-icon-outline full-size-top-left" d="M128,126.8041h160v-64H128c-35.2,0-64,28.8-64,64V288h64V126.8041z"></path>
	<path class="lexicon-icon-outline full-size-top-right" d="M502.5245,9.4752C496.4434,3.3941,488.241,0,479.6143,0H378.3566c-17.9605-0.0001-32.4562,14.4956-32.3855,32.3854c0,8.9095,3.6063,17.0413,9.4753,22.9103c5.869,5.869,14.0007,9.4752,22.9102,9.4752h23.6174l-80.4688,80.4688l45.2548,45.2548l80.4688-80.4688v23.6174c0,17.9605,14.4957,32.4562,32.3855,32.3854c17.9605,0,32.4562-14.4957,32.3855-32.3854V32.3855C511.9998,23.7587,508.6057,15.5564,502.5245,9.4752z"></path>
	<path class="lexicon-icon-outline fullsize-bottom-left" d="M145.24,321.5054l-80.4688,80.4688v-23.6174c0-17.9606-14.4957-32.4562-32.3855-32.3855c-17.9605,0-32.4562,14.4957-32.3855,32.3855v101.2576c0,8.6268,3.3941,16.8292,9.4753,22.9103c6.0811,6.0811,14.2835,9.4753,22.9102,9.4752L133.6434,512c17.9605,0,32.4562-14.4957,32.3855-32.3855c0-8.9095-3.6063-17.0413-9.4753-22.9103c-5.869-5.869-14.0007-9.4752-22.9102-9.4752h-23.6174l80.4688-80.4688L145.24,321.5054z"></path>
</svg>