<!--
* SPDX-FileCopyrightText: © 2022 Liferay, Inc. <https://liferay.com>
* SPDX-FileCopyrightText: © 2022 Contributors to the project Clay <https://github.com/liferay/clay/graphs/contributors>
*
* SPDX-License-Identifier: BSD-3-Clause
-->
<svg viewBox="0 0 16 16" xmlns="http://www.w3.org/2000/svg"><path fill-rule="evenodd" clip-rule="evenodd" d="M0 8.03c0-10.738 16-10.67 16 0 0 10.553-16 10.706-16 0Zm13.131 3.116h-1.287c.162-.81.265-1.682.293-2.597h1.841a5.976 5.976 0 0 1-.847 2.597Zm.847-3.635h-1.84a15.715 15.715 0 0 0-.294-2.597h1.287a5.95 5.95 0 0 1 .847 2.597ZM8.518 2.04c.457.04.898.128 1.32.266.246.434.48.975.668 1.572h-1.99V2.039h.003Zm-2.356.266a6.13 6.13 0 0 1 1.32-.266v1.838H5.49c.19-.597.425-1.135.671-1.572Zm-2.5 1.572a6.02 6.02 0 0 1 1.035-.866c-.103.275-.2.566-.288.866h-.746ZM2.022 7.51a5.963 5.963 0 0 1 .847-2.597h1.287c-.162.81-.265 1.681-.293 2.597H2.021Zm.847 3.635a5.99 5.99 0 0 1-.847-2.597h1.84c.029.912.132 1.787.294 2.597H2.87Zm1.828 1.903a6.235 6.235 0 0 1-1.034-.866h.746c.088.3.182.588.288.866Zm2.784.968a5.945 5.945 0 0 1-1.319-.265 8.222 8.222 0 0 1-.668-1.572h1.99v1.837h-.003Zm2.357-.265a6.127 6.127 0 0 1-1.32.265v-1.834h1.991a8.482 8.482 0 0 1-.671 1.569Zm1.465-.703c.103-.275.2-.566.288-.866h.747a6.02 6.02 0 0 1-1.035.866Zm0-10.038c.375.25.722.54 1.034.866h-.746c-.088-.3-.182-.591-.288-.866ZM11.1 8.549c-.031.928-.14 1.803-.316 2.597H8.52V8.549h2.58Zm-.316-3.635c.175.794.285 1.669.316 2.597H8.519V4.914h2.265ZM4.9 7.511c.031-.928.14-1.803.316-2.597H7.48v2.597H4.9Zm.316 3.635A14.37 14.37 0 0 1 4.9 8.549h2.581v2.597H5.216Z"/></svg>
