<!--
* SPDX-FileCopyrightText: © 2020 Liferay, Inc. <https://liferay.com>
* SPDX-FileCopyrightText: © 2020 Contributors to the project Clay <https://github.com/liferay/clay/graphs/contributors>
*
* SPDX-License-Identifier: BSD-3-Clause
-->
<svg  viewBox="0 0 16 16" xmlns="http://www.w3.org/2000/svg">
<path class="lexicon-icon-outline" d="M2.94594 5.00149H4.95493C5.59454 4.84308 5.66804 4.08926 5.75903 3.15609C5.85827 2.13827 5.97831 0.907086 6.87644 0.00244141C-2.94669 1.46779 -1.94688 15.9994 7.96998 15.9994C12.9315 15.9994 16.787 11.3097 15.8622 6.5012C15.6373 7.00735 15.3561 7.52288 15.0311 8.03528C15.0061 9.33191 14.6312 11.0503 13.294 12.6C13.294 12.6 13.8845 10.6223 13.9907 9.48813C13.1221 10.5723 12.0879 11.6065 10.985 12.5001C9.39783 11.2159 7.95436 9.6381 6.93893 8.03841C5.5908 10.8707 6.66521 11.0693 8.04759 11.3247C8.69642 11.4446 9.41309 11.577 9.97897 12.0002C10.3789 12.3001 10.7819 14.3997 10.7819 14.3997C9.07602 15.1527 5.96099 15.7119 5.96099 13C5.96099 10.3807 4.61137 9.87474 3.45842 9.44249C2.42737 9.05593 1.5536 8.72835 1.943 7.00111H2.94594V5.00149Z" />
<path class="lexicon-icon-outline" fill-rule="evenodd" clip-rule="evenodd" d="M7.217 3.92669C7.217 6.1044 9.09789 8.52894 10.9819 10.5004C12.8628 8.52894 14.7468 6.1044 14.7499 3.92669C14.7499 -1.34418 7.217 -1.26294 7.217 3.92669ZM9.09789 3.92669C9.09789 1.34593 12.8628 1.37093 12.8628 3.92669C12.8628 6.46683 9.09789 6.53244 9.09789 3.92669Z" />
</svg>
