<!--
* SPDX-FileCopyrightText: © 2020 Liferay, Inc. <https://liferay.com>
* SPDX-FileCopyrightText: © 2020 Contributors to the project Clay <https://github.com/liferay/clay/graphs/contributors>
*
* SPDX-License-Identifier: BSD-3-Clause
-->
<svg  viewBox="0 0 16 16" xmlns="http://www.w3.org/2000/svg">
<path class="lexicon-icon-outline" fill-rule="evenodd" clip-rule="evenodd" d="M0 8.02994C0 -2.70774 16 -2.63899 16 8.02994C16 18.5832 0 18.7364 0 8.02994ZM13.1313 11.1456H11.8438C12.0063 10.3362 12.1094 9.46434 12.1375 8.5487H13.9781C13.8969 9.49247 13.6 10.3737 13.1313 11.1456ZM13.9781 7.51118H12.1375C12.1094 6.59867 12.0063 5.72365 11.8438 4.91426H13.1313C13.6 5.68303 13.8969 6.56429 13.9781 7.51118ZM8.51875 2.03922C8.975 2.07984 9.41562 2.16734 9.8375 2.30484C10.0844 2.73923 10.3188 3.27986 10.5063 3.87675H8.51562V2.03922H8.51875ZM6.1625 2.30484C6.58437 2.17047 7.025 2.07984 7.48125 2.03922V3.87675H5.49062C5.68125 3.27986 5.91563 2.74235 6.1625 2.30484ZM3.6625 3.87675C3.97187 3.55174 4.31875 3.26111 4.69688 3.01111C4.59375 3.28611 4.49688 3.57674 4.40938 3.87675H3.6625ZM2.02187 7.51118C2.10312 6.56742 2.4 5.68303 2.86875 4.91426H4.15625C3.99375 5.72365 3.89062 6.59554 3.8625 7.51118H2.02187ZM2.86875 11.1456C2.40313 10.3769 2.10312 9.49559 2.02187 8.5487H3.8625C3.89062 9.46121 3.99375 10.3362 4.15625 11.1456H2.86875ZM4.69688 13.0488C4.32188 12.7988 3.975 12.5081 3.6625 12.1831H4.40938C4.49688 12.4831 4.59063 12.7706 4.69688 13.0488ZM7.48125 14.0175C7.025 13.9769 6.58437 13.8894 6.1625 13.7519C5.91563 13.3175 5.68125 12.7769 5.49375 12.18H7.48438V14.0175H7.48125ZM9.8375 13.7519C9.41562 13.8863 8.975 13.9769 8.51875 14.0175V12.1831H10.5094C10.3187 12.7769 10.0844 13.3175 9.8375 13.7519ZM11.3031 13.0488C11.4062 12.7738 11.5031 12.4831 11.5906 12.1831H12.3375C12.0281 12.5081 11.6813 12.7988 11.3031 13.0488ZM11.3031 3.01111C11.6781 3.26111 12.025 3.55174 12.3375 3.87675H11.5906C11.5031 3.57674 11.4094 3.28611 11.3031 3.01111ZM11.1 8.5487C11.0688 9.47684 10.9594 10.3519 10.7844 11.1456H8.51875V8.5487H11.1ZM10.7844 4.91426C10.9594 5.70803 11.0688 6.58304 11.1 7.51118H8.51875V4.91426H10.7844ZM4.9 7.51118C4.93125 6.58304 5.04062 5.70803 5.21562 4.91426H7.48125V7.51118H4.9ZM5.21562 11.1456C5.04062 10.3519 4.93125 9.47684 4.9 8.5487H7.48125V11.1456H5.21562Z" />
</svg>
