<!--
* SPDX-FileCopyrightText: © 2022 Liferay, Inc. <https://liferay.com>
* SPDX-FileCopyrightText: © 2022 Contributors to the project Clay <https://github.com/liferay/clay/graphs/contributors>
*
* SPDX-License-Identifier: BSD-3-Clause
-->
<svg viewBox="0 0 16 16" xmlns="http://www.w3.org/2000/svg"><path class="lexicon-icon-outline" fill-rule="evenodd" clip-rule="evenodd" d="M0 8.03c0-10.738 16-10.67 16 0 0 10.553-16 10.706-16 0Zm13.131 3.115h-1.287c.162-.81.265-1.681.293-2.597h1.841a5.975 5.975 0 0 1-.847 2.597Zm.847-3.634h-1.84a15.704 15.704 0 0 0-.294-2.597h1.287c.469.769.766 1.65.847 2.597Zm-5.46-5.472c.457.04.897.128 1.32.265.246.435.48.975.668 1.572h-1.99V2.04h.003Zm-2.356.265a6.13 6.13 0 0 1 1.32-.265v1.837H5.49a8.543 8.543 0 0 1 .672-1.572Zm-2.5 1.572c.31-.325.657-.615 1.035-.865-.103.275-.2.565-.288.865h-.747Zm-1.64 3.635a5.963 5.963 0 0 1 .847-2.597h1.287a15.82 15.82 0 0 0-.294 2.597h-1.84Zm.847 3.634a5.99 5.99 0 0 1-.847-2.597h1.84c.028.913.132 1.788.294 2.597H2.87Zm1.828 1.903a6.225 6.225 0 0 1-1.035-.865h.747c.088.3.181.587.288.865Zm2.784.97a5.951 5.951 0 0 1-1.319-.267 8.222 8.222 0 0 1-.668-1.571h1.99v1.837h-.003Zm2.356-.267a6.133 6.133 0 0 1-1.318.266v-1.834h1.99a8.48 8.48 0 0 1-.672 1.568Zm1.466-.703c.103-.275.2-.565.287-.865h.747a5.97 5.97 0 0 1-1.034.865Zm0-10.037c.375.25.722.54 1.034.865h-.746c-.088-.3-.182-.59-.288-.865ZM11.1 8.548c-.031.928-.14 1.803-.316 2.597H8.52V8.548h2.58Zm-.316-3.634c.175.794.285 1.669.316 2.597H8.519V4.914h2.265ZM4.9 7.51c.031-.928.14-1.803.315-2.597h2.266V7.51H4.9Zm.315 3.634A14.368 14.368 0 0 1 4.9 8.548h2.58v2.597H5.215Z"/></svg>