<!--
* SPDX-FileCopyrightText: © 2022 Liferay, Inc. <https://liferay.com>
* SPDX-FileCopyrightText: © 2022 Contributors to the project Clay <https://github.com/liferay/clay/graphs/contributors>
*
* SPDX-License-Identifier: BSD-3-Clause
-->
<svg viewBox="0 0 16 16" xmlns="http://www.w3.org/2000/svg"><path d="M2.946 5.001h2.009c.64-.158.713-.912.804-1.845.1-1.018.22-2.249 1.117-3.154C-2.947 1.468-1.947 16 7.97 16c4.962 0 8.817-4.69 7.892-9.498a11.967 11.967 0 0 1-.83 1.534 7.133 7.133 0 0 1-1.738 4.565s.59-1.978.697-3.112a20.137 20.137 0 0 1-3.006 3.012c-1.587-1.284-3.03-2.862-4.046-4.462-1.348 2.833-.274 3.031 1.109 3.287.648.12 1.365.252 1.931.675.4.3.803 2.4.803 2.4-1.706.753-4.82 1.312-4.82-1.4 0-2.62-1.35-3.125-2.504-3.558-1.03-.386-1.904-.714-1.515-2.441h1.003v-2Z"/><path fill-rule="evenodd" clip-rule="evenodd" d="M7.217 3.927c0 2.177 1.881 4.602 3.765 6.573 1.88-1.971 3.765-4.396 3.768-6.573 0-5.271-7.533-5.19-7.533 0Zm1.881 0c0-2.581 3.765-2.556 3.765 0 0 2.54-3.765 2.605-3.765 0Z"/></svg>
