<!--
* SPDX-FileCopyrightText: © 2022 Liferay, Inc. <https://liferay.com>
* SPDX-FileCopyrightText: © 2022 Contributors to the project Clay <https://github.com/liferay/clay/graphs/contributors>
*
* SPDX-License-Identifier: BSD-3-Clause
-->
<svg viewBox="0 0 16 16" xmlns="http://www.w3.org/2000/svg"><path class="lexicon-icon-outline" d="M2.946 5.001h2.009c.64-.158.713-.912.804-1.845.1-1.018.22-2.25 1.117-3.154-9.823 1.465-8.823 15.997 1.094 15.997 4.962 0 8.817-4.69 7.892-9.498a11.967 11.967 0 0 1-.83 1.534 7.133 7.133 0 0 1-1.738 4.565s.59-1.978.697-3.112a20.143 20.143 0 0 1-3.006 3.012c-1.587-1.285-3.03-2.862-4.046-4.462-1.348 2.832-.274 3.03 1.109 3.286.648.12 1.365.252 1.931.676.4.3.803 2.4.803 2.4-1.706.752-4.82 1.311-4.82-1.4 0-2.62-1.35-3.126-2.504-3.558-1.03-.387-1.904-.714-1.515-2.441h1.003V5Z"/><path class="lexicon-icon-outline" fill-rule="evenodd" clip-rule="evenodd" d="M7.217 3.926c0 2.178 1.881 4.602 3.765 6.574 1.88-1.972 3.765-4.396 3.768-6.574 0-5.27-7.533-5.19-7.533 0Zm1.881 0c0-2.58 3.765-2.556 3.765 0 0 2.54-3.765 2.606-3.765 0Z"/></svg>