<!--
* SPDX-FileCopyrightText: © 2020 Liferay, Inc. <https://liferay.com>
* SPDX-FileCopyrightText: © 2020 Contributors to the project Clay <https://github.com/liferay/clay/graphs/contributors>
*
* SPDX-License-Identifier: BSD-3-Clause
-->
<svg viewBox="0 0 16 16" xmlns="http://www.w3.org/2000/svg"><path fill-rule="evenodd" clip-rule="evenodd" d="M8 .002c-4.4 0-8 3.6-8 8s3.6 8 8 8 8-3.6 8-8-3.6-8-8-8Zm2 12c.4.3.8 2.4.8 2.4-.9.4-2.3.788-3.8.5 0 0-1-.5-1-1.9 0-.304.023-.576.045-.823.078-.89.129-1.473-1.045-2.177-.926-.555-1.737-.692-2.293-.785-.346-.058-.592-.1-.707-.215-.3-.3-.5-1.2 0-2h1v-2h2c.6-.4 2-3.9 2-3.9.6-.2 1.65-.215 2 0-1.973 2.375-.878 2.018.106 1.697.649-.212 1.25-.409.894.203-.331.606-1.208 1.334-1.929 1.932l-.008.007C7.479 5.425 7 5.824 7 6.002c0 .4.7 1 1 1 .139 0 .493-.43.873-.892l.007-.007c.437-.531.906-1.1 1.12-1.1.4 0 1.3 1.7 1 2-.13.129-.818.24-1.592.364-1.017.164-2.181.351-2.408.635-.4.5-.5 2.5 0 3 .288.288 1.108.477 1.827.643.528.121 1.003.23 1.173.357Zm4-3c.1.9-.7 3.6-.7 3.6 2.528-2.947 1.6-6.5 1.4-6.6-.6-.2-2.5-.2-2.7 0v1c.11.11.31.069.519.026.17-.035.346-.07.481-.026.3.1.9 1.1 1 2Z"/></svg>
