<!--
* SPDX-FileCopyrightText: © 2020 Liferay, Inc. <https://liferay.com>
* SPDX-FileCopyrightText: © 2020 Contributors to the project Clay <https://github.com/liferay/clay/graphs/contributors>
*
* SPDX-License-Identifier: BSD-3-Clause
-->
<svg  viewBox="0 0 16 16" xmlns="http://www.w3.org/2000/svg">
<path class="lexicon-icon-outline" fill-rule="evenodd" clip-rule="evenodd" d="M8 0.00244141C3.59961 0.00244141 0 3.60242 0 8.00244C0 12.4025 3.59961 16.0024 8 16.0024C12.4004 16.0024 16 12.4025 16 8.00244C16 3.60242 12.4004 0.00244141 8 0.00244141ZM10 12.0024C10.3994 12.3024 10.7998 14.4025 10.7998 14.4025C9.89941 14.8024 8.5 15.1899 7 14.9025C7 14.9025 6 14.4025 6 13.0024C6 12.6978 6.02344 12.4264 6.04492 12.1788C6.12305 11.2884 6.17383 10.7067 5 10.0024C4.07422 9.4472 3.2627 9.31061 2.70703 9.21698C2.36133 9.15887 2.11523 9.11737 2 9.00244C1.7002 8.70245 1.5 7.80243 2 7.00244H3V5.00244H5C5.59961 4.60248 7 1.10248 7 1.10248C7.59961 0.902466 8.64941 0.886841 9 1.10248C7.02734 3.47754 8.12207 3.12018 9.10645 2.79865C9.75488 2.58673 10.3564 2.39038 10 3.00244C9.66895 3.60846 8.79199 4.33582 8.07129 4.93378L8.0625 4.94086C7.47949 5.42523 7 5.82367 7 6.00244C7 6.40247 7.7002 7.00244 8 7.00244C8.13867 7.00244 8.49316 6.57202 8.87305 6.11053L8.87988 6.10278C9.31738 5.57172 9.78613 5.00244 10 5.00244C10.3994 5.00244 11.2998 6.70245 11 7.00244C10.8701 7.13202 10.1816 7.24292 9.4082 7.36737C8.39062 7.53113 7.22656 7.71838 7 8.00244C6.59961 8.50244 6.5 10.5024 7 11.0024C7.28809 11.2906 8.1084 11.4792 8.82715 11.6447C9.35547 11.7662 9.83008 11.8754 10 12.0024ZM14 9.00244C14.0996 9.9024 13.2998 12.6024 13.2998 12.6024C15.8281 9.65552 14.9004 6.10242 14.7002 6.00244C14.0996 5.80243 12.2002 5.80243 12 6.00244V7.00244C12.1104 7.11237 12.3105 7.07117 12.5186 7.02844C12.6895 6.99347 12.8652 6.9574 13 7.00244C13.2998 7.10242 13.9004 8.10242 14 9.00244Z" />
</svg>
