<!--
* SPDX-FileCopyrightText: © 2020 Liferay, Inc. <https://liferay.com>
* SPDX-FileCopyrightText: © 2020 Contributors to the project Clay <https://github.com/liferay/clay/graphs/contributors>
*
* SPDX-License-Identifier: BSD-3-Clause
-->
<svg viewBox="0 0 16 16" xmlns="http://www.w3.org/2000/svg"><path d="M8.163 6.862v2.742h4.63c-.187 1.178-1.4 3.452-4.63 3.452-2.787 0-5.061-2.263-5.061-5.052 0-2.788 2.274-5.051 5.061-5.051 1.586 0 2.647.663 3.254 1.234l2.216-2.091C12.21.793 10.367.004 8.163.004 3.65.004 0 3.582 0 8.004c0 4.423 3.65 8 8.163 8 4.712 0 7.837-3.245 7.837-7.817 0-.525-.058-.925-.128-1.325H8.163Z"/></svg>
