<!--
* SPDX-FileCopyrightText: © 2020 Liferay, Inc. <https://liferay.com>
* SPDX-FileCopyrightText: © 2020 Contributors to the project Clay <https://github.com/liferay/clay/graphs/contributors>
*
* SPDX-License-Identifier: BSD-3-Clause
-->
<svg  viewBox="0 0 16 16" xmlns="http://www.w3.org/2000/svg">
<path class="lexicon-icon-outline" d="M8.16317 6.86158V9.60439H12.793C12.6063 10.7816 11.3937 13.0556 8.16317 13.0556C5.37613 13.0556 3.10179 10.7928 3.10179 8.00439C3.10179 5.21596 5.37613 2.95283 8.16317 2.95283C9.74914 2.95283 10.8105 3.61564 11.4168 4.18721L13.6326 2.09564C12.2098 0.792832 10.3674 0.00439453 8.16317 0.00439453C3.65017 0.00439453 0 3.58158 0 8.00439C0 12.4272 3.65017 16.0044 8.16317 16.0044C12.8747 16.0044 16 12.7588 16 8.18721C16 7.66158 15.9417 7.26158 15.8719 6.86158H8.16317Z" />
</svg>
