<!--
* SPDX-FileCopyrightText: © 2020 Liferay, Inc. <https://liferay.com>
* SPDX-FileCopyrightText: © 2020 Contributors to the project Clay <https://github.com/liferay/clay/graphs/contributors>
*
* SPDX-License-Identifier: BSD-3-Clause
-->
<svg  viewBox="0 0 16 16" xmlns="http://www.w3.org/2000/svg">
<path class="lexicon-icon-outline" d="M15.4983 0.00439453H12.4985C12.2231 0.00439453 11.9991 0.228395 11.9991 0.504927V3.50471C11.9991 3.78128 12.2231 4.00524 12.4996 4.00524H15.4995C15.776 4.00524 16 3.78124 16 3.50471V0.504927C15.9988 0.228364 15.7749 0.00439453 15.4983 0.00439453Z" />
<path class="lexicon-icon-outline" d="M3.50035 6.00401H0.500537C0.223971 6.00401 0 6.22798 0 6.50455V9.50433C0 9.78086 0.224003 10.0049 0.500537 10.0049H3.50035C3.77692 10.0049 3.99976 9.78086 3.99976 9.50433V6.50455C3.99976 6.22798 3.77576 6.00401 3.50035 6.00401Z" />
<path class="lexicon-icon-outline" d="M9.49844 6.00401H6.49862C6.22206 6.00401 5.99809 6.22798 5.99809 6.50455V9.50433C5.99809 9.78086 6.22206 10.0049 6.49862 10.0049H9.49844C9.77497 10.0049 9.99898 9.78086 9.99898 9.50433V6.50455C9.99898 6.22798 9.77497 6.00401 9.49844 6.00401Z" />
<path class="lexicon-icon-outline" d="M15.4985 6.00401H12.4987C12.2221 6.00401 11.9981 6.22798 11.9981 6.50455V9.50433C11.9981 9.78086 12.2221 10.0049 12.4987 10.0049H15.4985C15.775 10.0049 15.999 9.78086 15.999 9.50433V6.50455C15.999 6.22798 15.775 6.00401 15.4985 6.00401Z" />
<path class="lexicon-icon-outline" d="M3.50035 12.0035H0.500537C0.223971 12.0035 0 12.2275 0 12.504V15.5038C0 15.7792 0.224003 16.0032 0.500537 16.0032H3.50035C3.77692 16.0032 3.99976 15.7792 3.99976 15.5027V12.5029C3.99976 12.2275 3.77576 12.0035 3.50035 12.0035Z" />
<path class="lexicon-icon-outline" d="M9.49844 12.0035H6.49862C6.22206 12.0035 5.99809 12.2275 5.99809 12.504V15.5038C5.99809 15.7804 6.22206 16.0044 6.49862 16.0044H9.49844C9.77497 16.0044 9.99898 15.7804 9.99898 15.5038V12.504C9.99898 12.2275 9.77497 12.0035 9.49844 12.0035Z" />
<path class="lexicon-icon-outline" d="M15.4985 12.0035H12.4987C12.2221 12.0035 11.9981 12.2275 11.9981 12.5041V15.5039C11.9981 15.7804 12.2221 16.0044 12.4987 16.0044H15.4985C15.775 16.0032 15.999 15.7793 15.999 15.5027V12.5029C15.999 12.2275 15.775 12.0035 15.4985 12.0035Z" />
<path class="lexicon-icon-outline" d="M3.50035 0.00439453H0.500537C0.223971 0.00439453 0 0.228395 0 0.504927V3.50471C0 3.78015 0.224003 4.00412 0.500537 4.00412H3.50035C3.77692 4.00412 3.99976 3.78012 3.99976 3.50359V0.504958C3.99976 0.228395 3.77576 0.00439453 3.50035 0.00439453Z" />
<path class="lexicon-icon-outline" d="M9.49844 0.00439453H6.49862C6.22206 0.00439453 5.99809 0.228395 5.99809 0.504927V3.50471C5.99809 3.78128 6.22206 4.00524 6.49862 4.00524H9.49844C9.77497 4.00524 9.99898 3.78124 9.99898 3.50471V0.504927C9.99898 0.228364 9.77497 0.00439453 9.49844 0.00439453Z" />
</svg>
