<!--
* SPDX-FileCopyrightText: © 2020 Liferay, Inc. <https://liferay.com>
* SPDX-FileCopyrightText: © 2020 Contributors to the project Clay <https://github.com/liferay/clay/graphs/contributors>
*
* SPDX-License-Identifier: BSD-3-Clause
-->
<svg viewBox="0 0 16 16" xmlns="http://www.w3.org/2000/svg"><path d="M15.498.004h-3a.5.5 0 0 0-.499.5v3a.5.5 0 0 0 .5.501h3a.5.5 0 0 0 .501-.5v-3a.502.502 0 0 0-.502-.5Zm-11.998 6h-3a.5.5 0 0 0-.5.5v3a.5.5 0 0 0 .5.5h3a.5.5 0 0 0 .5-.5v-3a.5.5 0 0 0-.5-.5Zm5.998 0h-3a.5.5 0 0 0-.5.5v3a.5.5 0 0 0 .5.5h3a.5.5 0 0 0 .501-.5v-3a.5.5 0 0 0-.5-.5Zm6 0h-3a.5.5 0 0 0-.5.5v3a.5.5 0 0 0 .5.5h3a.5.5 0 0 0 .501-.5v-3a.5.5 0 0 0-.5-.5ZM3.5 12.003h-3a.5.5 0 0 0-.5.5v3a.5.5 0 0 0 .5.5h3a.5.5 0 0 0 .5-.5v-3a.5.5 0 0 0-.5-.5Zm5.998 0h-3a.5.5 0 0 0-.5.5v3a.5.5 0 0 0 .5.501h3a.5.5 0 0 0 .501-.5v-3a.5.5 0 0 0-.5-.5Zm6 0h-3a.5.5 0 0 0-.5.501v3a.5.5 0 0 0 .5.5h3a.502.502 0 0 0 .501-.501v-3a.5.5 0 0 0-.5-.5ZM3.5.004h-3a.5.5 0 0 0-.5.5v3a.5.5 0 0 0 .5.5h3a.5.5 0 0 0 .5-.5v-3a.5.5 0 0 0-.5-.5Zm5.998 0h-3a.5.5 0 0 0-.5.5v3a.5.5 0 0 0 .5.501h3a.5.5 0 0 0 .501-.5v-3a.5.5 0 0 0-.5-.5Z"/></svg>
