<!--
* SPDX-FileCopyrightText: © 2022 Liferay, Inc. <https://liferay.com>
* SPDX-FileCopyrightText: © 2022 Contributors to the project Clay <https://github.com/liferay/clay/graphs/contributors>
*
* SPDX-License-Identifier: BSD-3-Clause
-->
<svg viewBox="0 0 16 16" xmlns="http://www.w3.org/2000/svg"><path class="lexicon-icon-outline" d="M7.491 5.61c.341.157.624.369.847.634.223.264.389.58.499.947.108.366.163.754.163 1.16v4.651H7.021V8.703c0-.427-.105-.784-.319-1.07-.213-.284-.557-.427-1.033-.427-.416 0-.743.14-.981.42-.238.28-.367.63-.386 1.047v4.329H2v-11h2.302v4.196a1.96 1.96 0 0 1 .906-.635 3.26 3.26 0 0 1 1.07-.191c.466 0 .87.08 1.213.237Zm4.113-.401c.424-.328.68-.73.771-1.207H14v9h-2v-6h-2V5.714c.645-.01 1.182-.178 1.604-.505Z"/></svg>