<!--
* SPDX-FileCopyrightText: © 2020 Liferay, Inc. <https://liferay.com>
* SPDX-FileCopyrightText: © 2020 Contributors to the project Clay <https://github.com/liferay/clay/graphs/contributors>
*
* SPDX-License-Identifier: BSD-3-Clause
-->
<svg viewBox="0 0 16 16" xmlns="http://www.w3.org/2000/svg"><path d="M7.491 6.111c.341.159.624.37.847.635.223.265.389.58.499.947.108.366.163.754.163 1.161v4.65H7.021V9.206c0-.428-.105-.785-.319-1.07-.213-.285-.557-.428-1.033-.428-.416 0-.743.141-.981.42-.238.281-.367.63-.386 1.048v4.328H2v-11h2.302V6.7c.237-.295.54-.507.906-.634a3.26 3.26 0 0 1 1.07-.192c.466 0 .87.08 1.213.237Zm4.113-.401c.424-.326.68-.728.771-1.206H14v9h-2v-6h-2V6.216c.645-.01 1.182-.178 1.604-.505Z"/></svg>
