<!--
* SPDX-FileCopyrightText: © 2020 Liferay, Inc. <https://liferay.com>
* SPDX-FileCopyrightText: © 2020 Contributors to the project Clay <https://github.com/liferay/clay/graphs/contributors>
*
* SPDX-License-Identifier: BSD-3-Clause
-->
<svg viewBox="0 0 17 16" xmlns="http://www.w3.org/2000/svg">
<path class="lexicon-icon-outline" d="M8.45621 6.11145C8.79703 6.26953 9.08023 6.4812 9.30289 6.74597C9.52554 7.01062 9.69156 7.32666 9.80191 7.69336C9.91031 8.0592 9.965 8.44714 9.965 8.854V13.5044H7.98648V9.20557C7.98648 8.7782 7.88101 8.42102 7.66714 8.13574C7.45425 7.85132 7.10953 7.70837 6.63394 7.70837C6.21793 7.70837 5.89078 7.849 5.6525 8.12866C5.41519 8.40918 5.28629 8.75757 5.26675 9.17554V13.5044H2.965V2.50439H5.26675V6.70007C5.50406 6.40466 5.80679 6.19287 6.173 6.06567C6.54019 5.93848 6.89664 5.87439 7.24332 5.87439C7.70914 5.87439 8.11343 5.95349 8.45621 6.11145Z" />
<path class="lexicon-icon-outline" d="M12.5695 5.71094C12.9933 5.38379 13.2492 4.98181 13.34 4.50439H14.965V13.5044H12.965V7.50439H10.965V6.21594C11.6095 6.20654 12.1466 6.03821 12.5695 5.71094Z" />
</svg>
