<!--
* SPDX-FileCopyrightText: © 2020 Liferay, Inc. <https://liferay.com>
* SPDX-FileCopyrightText: © 2020 Contributors to the project Clay <https://github.com/liferay/clay/graphs/contributors>
*
* SPDX-License-Identifier: BSD-3-Clause
-->
<svg viewBox="0 0 17 16" xmlns="http://www.w3.org/2000/svg">
<path class="lexicon-icon-outline" d="M7.67163 6.28362C7.96426 6.42726 8.206 6.61969 8.39783 6.86039C8.58868 7.10096 8.73059 7.38824 8.82455 7.72159C8.91851 8.05416 8.96451 8.40684 8.96451 8.77677V13.0044H7.26938V9.09637C7.26938 8.70787 7.17836 8.38309 6.99534 8.12384C6.81232 7.86523 6.51772 7.73521 6.1096 7.73521C5.75237 7.73521 5.47344 7.86315 5.26889 8.11735C5.06531 8.37245 4.95472 8.68919 4.93808 9.06912V13.0044H2.965V3.00439H4.93808V6.81874C5.14165 6.55001 5.40101 6.35758 5.71518 6.24197C6.02935 6.12622 6.33471 6.06809 6.63223 6.06809C7.03155 6.06809 7.37801 6.13998 7.67163 6.28362Z" />
<path class="lexicon-icon-outline" d="M12.0866 10.8243C11.9408 10.9224 11.8135 11.0288 11.702 11.1428L11.6628 11.1862H14.965V13.0044H9.58208V12.0953L9.59871 12.0064C9.65352 11.7214 9.73867 11.4478 9.85416 11.1862L9.89037 11.1067C10.0245 10.8206 10.2026 10.5533 10.4238 10.3045C10.6459 10.0557 10.9239 9.82521 11.2606 9.61241L12.4879 8.8292C12.8089 8.62522 13.0369 8.41436 13.17 8.19858C13.3031 7.98266 13.3707 7.73508 13.3707 7.45766C13.3707 7.17207 13.2767 6.91943 13.0898 6.69858C12.9019 6.47813 12.622 6.36796 12.2471 6.36796C11.8498 6.36796 11.5542 6.4946 11.3594 6.74789C11.1862 6.97211 11.0903 7.2446 11.0697 7.56419H9.56446V7.53175C9.56446 7.18102 9.62514 6.84599 9.74748 6.52756C9.86982 6.20914 10.046 5.92731 10.275 5.68284C10.504 5.43786 10.7869 5.24219 11.1235 5.0953C11.4602 4.94842 11.8458 4.87497 12.2823 4.87497C12.6944 4.87497 13.0683 4.94401 13.4 5.08259C13.7328 5.2213 14.0147 5.4075 14.2486 5.63989C14.4815 5.87216 14.6596 6.14387 14.782 6.45412C14.9043 6.76437 14.965 7.0911 14.965 7.43366C14.965 7.94711 14.8387 8.4106 14.5872 8.82284C14.3337 9.23508 13.9794 9.59217 13.5204 9.89424L12.0866 10.8243Z" />
</svg>
