<!--
* SPDX-FileCopyrightText: © 2022 Liferay, Inc. <https://liferay.com>
* SPDX-FileCopyrightText: © 2022 Contributors to the project Clay <https://github.com/liferay/clay/graphs/contributors>
*
* SPDX-License-Identifier: BSD-3-Clause
-->
<svg viewBox="0 0 16 16" xmlns="http://www.w3.org/2000/svg"><path class="lexicon-icon-outline" d="M6.707 6.281a2.1 2.1 0 0 1 .726.577c.19.24.333.528.427.861.094.333.14.685.14 1.055v4.228H6.304V9.094c0-.389-.09-.713-.274-.973-.183-.258-.477-.388-.885-.388-.358 0-.637.128-.841.382-.204.255-.314.572-.33.952v3.935H2v-10h1.973v3.814c.204-.268.463-.46.777-.576a2.64 2.64 0 0 1 .917-.174c.4 0 .746.072 1.04.215Zm4.415 4.541a2.446 2.446 0 0 0-.385.318l-.04.044H14v1.818H8.617v-.91l.017-.088c.055-.285.14-.559.255-.82l.036-.08c.134-.286.313-.553.534-.802.222-.249.5-.48.837-.692l1.227-.783c.32-.204.549-.415.682-.63.133-.217.2-.464.2-.742 0-.285-.093-.538-.28-.759-.188-.22-.468-.33-.843-.33-.397 0-.693.126-.888.38a1.457 1.457 0 0 0-.29.816H8.6v-.033c0-.35.061-.685.183-1.004.123-.318.299-.6.528-.845.229-.245.512-.44.849-.587a2.87 2.87 0 0 1 1.158-.22c.412 0 .786.069 1.118.207.333.139.615.325.849.558.232.232.41.503.533.814.122.31.183.637.183.98 0 .513-.126.976-.378 1.388a3.45 3.45 0 0 1-1.067 1.072l-1.433.93Z"/></svg>