<!--
* SPDX-FileCopyrightText: © 2020 Liferay, Inc. <https://liferay.com>
* SPDX-FileCopyrightText: © 2020 Contributors to the project Clay <https://github.com/liferay/clay/graphs/contributors>
*
* SPDX-License-Identifier: BSD-3-Clause
-->
<svg viewBox="0 0 16 16" xmlns="http://www.w3.org/2000/svg"><path d="M6.707 6.284c.292.143.534.336.726.576.19.241.333.528.427.862.094.332.14.685.14 1.055v4.227H6.304V9.096c0-.388-.09-.713-.274-.972-.183-.259-.477-.389-.885-.389-.358 0-.637.128-.841.382-.204.255-.314.572-.33.952v3.935H2v-10h1.973V6.82c.204-.269.463-.461.777-.577a2.64 2.64 0 0 1 .917-.174c.4 0 .746.072 1.04.216Zm4.415 4.54a2.44 2.44 0 0 0-.385.319l-.04.043H14v1.818H8.617v-.909l.017-.089c.055-.285.14-.558.255-.82l.036-.08c.134-.285.313-.553.534-.801.222-.25.5-.48.837-.693l1.227-.783c.32-.204.549-.415.682-.63.133-.216.2-.464.2-.741 0-.286-.093-.539-.28-.76-.188-.22-.468-.33-.843-.33-.397 0-.693.127-.888.38a1.46 1.46 0 0 0-.29.816H8.6v-.032c0-.351.061-.686.183-1.004.123-.319.299-.6.528-.845.229-.245.512-.44.849-.588a2.87 2.87 0 0 1 1.158-.22c.412 0 .786.069 1.118.208.333.138.615.324.849.557.232.232.41.504.533.814.122.31.183.637.183.98 0 .513-.126.977-.378 1.389a3.45 3.45 0 0 1-1.067 1.071l-1.433.93Z"/></svg>
