<!--
* SPDX-FileCopyrightText: © 2020 Liferay, Inc. <https://liferay.com>
* SPDX-FileCopyrightText: © 2020 Contributors to the project Clay <https://github.com/liferay/clay/graphs/contributors>
*
* SPDX-License-Identifier: BSD-3-Clause
-->
<svg viewBox="0 0 17 16" xmlns="http://www.w3.org/2000/svg">
<path class="lexicon-icon-outline" fill-rule="evenodd" clip-rule="evenodd" d="M13.9667 4.00452H15.9677C17.2812 4.00452 17.3124 6.00622 15.9677 6.00622H13.4667L12.4667 10.0096H14.9677C16.2812 10.0096 16.3124 12.0114 14.9677 12.0114H11.9657L11.1503 15.2797C10.9032 16.4213 8.99601 16.171 9.26456 14.8074L9.96476 12.0114H5.96378L5.14737 15.2797C4.9003 16.4213 2.99308 16.171 3.26163 14.8074L3.9628 12.0114H1.96183C0.6171 12.0114 0.64835 10.0096 1.96183 10.0096H4.4628L5.4628 6.00622H2.96183C1.6171 6.00622 1.64835 4.00452 2.96183 4.00452H5.96378L6.77921 0.736205C7.15128 -0.499268 8.93351 -0.0614021 8.66495 1.2085L7.96476 4.00452H11.9657L12.7821 0.736205C13.1542 -0.499268 14.9364 -0.0614021 14.6679 1.2085L13.9667 4.00452ZM6.46378 10.0096H10.4657L11.4657 6.00622H7.46378L6.46378 10.0096Z" />
</svg>
