<!--
* SPDX-FileCopyrightText: © 2020 Liferay, Inc. <https://liferay.com>
* SPDX-FileCopyrightText: © 2020 Contributors to the project Clay <https://github.com/liferay/clay/graphs/contributors>
*
* SPDX-License-Identifier: BSD-3-Clause
-->
<svg viewBox="0 0 16 16" xmlns="http://www.w3.org/2000/svg"><path fill-rule="evenodd" clip-rule="evenodd" d="M13.002 4.004h2c1.314 0 1.345 2.002 0 2.002h-2.5l-1 4.003h2.5c1.314 0 1.345 2.002 0 2.002h-3.001l-.816 3.269c-.247 1.141-2.154.89-1.885-.473l.7-2.796H4.999l-.817 3.269c-.247 1.141-2.154.89-1.885-.473l.7-2.796h-2c-1.345 0-1.314-2.002 0-2.002h2.5l1-4.003h-2.5c-1.345 0-1.314-2.002 0-2.002h3.002L5.814.736C6.186-.499 7.97-.062 7.7 1.208L7 4.004h4l.817-3.268c.372-1.235 2.155-.798 1.886.472l-.701 2.796ZM5.499 10.01H9.5l1-4.003H6.499l-1 4.003Z"/></svg>
