<!--
* SPDX-FileCopyrightText: © 2020 Liferay, Inc. <https://liferay.com>
* SPDX-FileCopyrightText: © 2020 Contributors to the project Clay <https://github.com/liferay/clay/graphs/contributors>
*
* SPDX-License-Identifier: BSD-3-Clause
-->
<svg viewBox="0 0 16 16" xmlns="http://www.w3.org/2000/svg"><path d="M15 11.002a1 1 0 0 0 1-1v-3a1 1 0 0 0-1-1H1a1 1 0 0 0-1 1v3a1 1 0 0 0 1 1h6v3H1c-1.313 0-1.322 2 0 2h14c1.313 0 1.334-2 0-2H9v-3h6Zm-1-2.5c0 .65-1 .672-1 0 0-.64 1-.68 1 0Zm-2 0c0 .657-1 .672-1 0s1-.662 1 0Zm3-8.5H1a1 1 0 0 0-1 1v3a1 1 0 0 0 1 1h14a1 1 0 0 0 1-1v-3a1 1 0 0 0-1-1Zm-4 2.5c0-.672 1-.65 1 0 0 .688-1 .64-1 0Zm2 0c0-.662 1-.665 1 0 0 .678-1 .682-1 0Z"/></svg>
