<!--
* SPDX-FileCopyrightText: © 2022 Liferay, Inc. <https://liferay.com>
* SPDX-FileCopyrightText: © 2022 Contributors to the project Clay <https://github.com/liferay/clay/graphs/contributors>
*
* SPDX-License-Identifier: BSD-3-Clause
-->
<svg viewBox="0 0 16 16" xmlns="http://www.w3.org/2000/svg"><path class="lexicon-icon-outline" d="M15 11.002a1 1 0 0 0 1-1v-3a1 1 0 0 0-1-1H1c-.554 0-1 .447-1 1v3c0 .553.446 1 1 1h6v3H1c-1.313 0-1.322 2 0 2h14c1.312 0 1.334-2 0-2H9v-3h6Zm-1-2.5c0 .65-1 .672-1 0 0-.64 1-.681 1 0Zm-2 0c0 .656-1 .672-1 0s1-.662 1 0Zm3-8.5H1c-.554 0-1 .447-1 1v3c0 .553.446 1 1 1h14a1 1 0 0 0 1-1v-3a1 1 0 0 0-1-1Zm-4 2.5c0-.672 1-.65 1 0 0 .688-1 .64-1 0Zm2 0c0-.662 1-.666 1 0 0 .678-1 .681-1 0Z"/></svg>