<!--
* SPDX-FileCopyrightText: © 2020 Liferay, Inc. <https://liferay.com>
* SPDX-FileCopyrightText: © 2020 Contributors to the project Clay <https://github.com/liferay/clay/graphs/contributors>
*
* SPDX-License-Identifier: BSD-3-Clause
-->
<svg viewBox="0 0 17 16" xmlns="http://www.w3.org/2000/svg">
<path class="lexicon-icon-outline" d="M15.965 11.0024C16.5181 11.0024 16.965 10.5556 16.965 10.0024V7.00244C16.965 6.44932 16.5181 6.00244 15.965 6.00244H1.96497C1.41184 6.00244 0.964966 6.44932 0.964966 7.00244V10.0024C0.964966 10.5556 1.41184 11.0024 1.96497 11.0024H7.96497V14.0024H1.96497C0.652466 14.0024 0.643091 16.0024 1.96497 16.0024H15.965C17.2775 16.0024 17.2993 14.0024 15.965 14.0024H9.96497V11.0024H15.965ZM14.965 8.50244C14.965 9.15244 13.965 9.17432 13.965 8.50244C13.965 7.86182 14.965 7.82119 14.965 8.50244ZM12.965 8.50244C12.965 9.15869 11.965 9.17432 11.965 8.50244C11.965 7.83057 12.965 7.83994 12.965 8.50244Z" />
<path class="lexicon-icon-outline" d="M15.965 0.00244141H1.96497C1.41184 0.00244141 0.964966 0.449316 0.964966 1.00244V4.00244C0.964966 4.55557 1.41184 5.00244 1.96497 5.00244H15.965C16.5181 5.00244 16.965 4.55557 16.965 4.00244V1.00244C16.965 0.449316 16.5181 0.00244141 15.965 0.00244141ZM11.965 2.50244C11.965 1.83057 12.965 1.85244 12.965 2.50244C12.965 3.18994 11.965 3.14307 11.965 2.50244ZM13.965 2.50244C13.965 1.83994 14.965 1.83682 14.965 2.50244C14.965 3.18057 13.965 3.18369 13.965 2.50244Z" />
</svg>
