<!--
* SPDX-FileCopyrightText: © 2020 Liferay, Inc. <https://liferay.com>
* SPDX-FileCopyrightText: © 2020 Contributors to the project Clay <https://github.com/liferay/clay/graphs/contributors>
*
* SPDX-License-Identifier: BSD-3-Clause
-->
<svg viewBox="0 0 16 16" xmlns="http://www.w3.org/2000/svg"><path fill-rule="evenodd" clip-rule="evenodd" d="M11.514 1.004a4.488 4.488 0 0 1 4.057 6.398c-.912 1.94-6.426 6.854-7.053 7.408a.778.778 0 0 1-.479.194H8a.788.788 0 0 1-.519-.198C6.854 14.256 1.34 9.34.427 7.4A4.486 4.486 0 0 1 8 2.699a4.506 4.506 0 0 1 3.515-1.695ZM8 13.185c2.353-2.118 5.611-5.28 6.16-6.444a2.928 2.928 0 0 0-5.297-2.498 2.02 2.02 0 0 0-.108.333.778.778 0 0 1-.758.594.778.778 0 0 1-.758-.594 2.02 2.02 0 0 0-.108-.333A2.935 2.935 0 0 0 4.48 2.565c-.431 0-.85.094-1.244.279A2.933 2.933 0 0 0 1.84 6.74c.55 1.164 3.808 4.326 6.16 6.444Z"/></svg>
