<!--
* SPDX-FileCopyrightText: © 2020 Liferay, Inc. <https://liferay.com>
* SPDX-FileCopyrightText: © 2020 Contributors to the project Clay <https://github.com/liferay/clay/graphs/contributors>
*
* SPDX-License-Identifier: BSD-3-Clause
-->
<svg viewBox="0 0 17 16" xmlns="http://www.w3.org/2000/svg">
<path class="lexicon-icon-outline" fill-rule="evenodd" clip-rule="evenodd" d="M12.4792 1.00439C13.143 1.00439 13.7872 1.14872 14.3903 1.43403C16.6275 2.48797 17.5919 5.16311 16.5364 7.4019C15.6239 9.34196 10.1098 14.2559 9.48318 14.8097C9.34806 14.9306 9.17966 14.9943 9.00441 15.0044H8.96427C8.7753 15.0044 8.59026 14.9339 8.44535 14.8064C7.81874 14.2559 2.30556 9.33861 1.39208 7.39854C0.337615 5.16311 1.30103 2.48797 3.53822 1.43403C4.14231 1.14872 4.78556 1.00439 5.44938 1.00439C6.82792 1.00439 8.12226 1.64549 8.96427 2.69943C9.80333 1.64549 11.0977 1.00439 12.4792 1.00439ZM8.96427 13.1852C11.317 11.0672 14.5754 7.90538 15.1246 6.74067C15.8119 5.27723 15.1853 3.52849 13.7196 2.84376C13.3251 2.65915 12.907 2.56517 12.4762 2.56517C11.3464 2.56517 10.3085 3.22305 9.82683 4.24343C9.80333 4.29713 9.76319 4.39783 9.71913 4.57572C9.63493 4.9248 9.32163 5.16982 8.96133 5.16982C8.60005 5.16982 8.28674 4.9248 8.20254 4.57572C8.15848 4.39783 8.11834 4.29713 8.09484 4.24343C7.61608 3.22305 6.57532 2.56517 5.44644 2.56517C5.01467 2.56517 4.5966 2.65915 4.20203 2.84376C2.74321 3.53185 2.1166 5.28059 2.80391 6.74067C3.35317 7.90538 6.61154 11.0672 8.96427 13.1852Z" />
</svg>
