<!--
* SPDX-FileCopyrightText: © 2022 Liferay, Inc. <https://liferay.com>
* SPDX-FileCopyrightText: © 2022 Contributors to the project Clay <https://github.com/liferay/clay/graphs/contributors>
*
* SPDX-License-Identifier: BSD-3-Clause
-->
<svg viewBox="0 0 16 16" xmlns="http://www.w3.org/2000/svg"><path class="lexicon-icon-outline" fill-rule="evenodd" clip-rule="evenodd" d="M11.514 1.002A4.488 4.488 0 0 1 15.571 7.4c-.912 1.94-6.426 6.854-7.053 7.407a.778.778 0 0 1-.479.195H8a.788.788 0 0 1-.519-.198c-.626-.55-6.14-5.468-7.053-7.408A4.486 4.486 0 0 1 8 2.697a4.506 4.506 0 0 1 3.515-1.695ZM8 13.182c2.353-2.117 5.611-5.279 6.16-6.444a2.928 2.928 0 0 0-5.297-2.497 2.02 2.02 0 0 0-.108.332.778.778 0 0 1-.758.594.778.778 0 0 1-.758-.594 2.02 2.02 0 0 0-.108-.332A2.935 2.935 0 0 0 4.48 2.563c-.431 0-.85.094-1.244.278A2.933 2.933 0 0 0 1.84 6.738c.55 1.165 3.808 4.327 6.16 6.445Z"/></svg>