<svg xmlns="http://www.w3.org/2000/svg" viewBox="0 0 512 512">
	<path class="lexicon-icon-body" fill="none" d="M417,75.7c-17.9-8.5-37-12.8-56.7-12.8c-41,0-79.4,19.1-104.3,50.5C231,82,192.6,62.9,151.7,62.9c-19.7,0-38.8,4.3-56.7,12.8C28.6,107.1,0,186.8,31.3,253.4C58.4,311.2,222,457.7,240.6,474.1c4.3,3.8,9.8,5.9,15.4,5.9l0,0l0,0c0.4,0,0.8,0,1.2,0c5.2-0.3,10.2-2.2,14.2-5.8c18.6-16.5,182.2-162.9,209.3-220.7C512,186.8,483.4,107.1,417,75.7z"></path>
	<path class="lexicon-icon-outline" d="M417,75.7c-17.9-8.5-37-12.8-56.7-12.8c-41,0-79.4,19.1-104.3,50.5C231,82,192.6,62.9,151.7,62.9c-19.7,0-38.8,4.3-56.7,12.8C28.6,107.1,0,186.8,31.3,253.4C58.4,311.2,222,457.7,240.6,474.1c4.3,3.8,9.8,5.9,15.4,5.9l0,0l0,0c0.4,0,0.8,0,1.2,0c5.2-0.3,10.2-2.2,14.2-5.8c18.6-16.5,182.2-162.9,209.3-220.7C512,186.8,483.4,107.1,417,75.7z M438.8,233.8c-16.3,34.7-113,128.9-182.8,192c-69.8-63.1-166.5-157.3-182.8-192c-20.4-43.5-1.8-95.6,41.5-116.1c11.7-5.5,24.1-8.3,36.9-8.3l0,0l0,0l0,0l0,0c33.5,0,64.4,19.6,78.6,50c0.7,1.6,1.9,4.6,3.2,9.9c2.5,10.4,11.8,17.7,22.5,17.7l0,0c10.7,0,20-7.3,22.5-17.7c1.3-5.3,2.5-8.3,3.2-9.9c14.3-30.4,45.1-50,78.6-50c12.8,0,25.2,2.8,36.9,8.3C440.6,138.1,459.2,190.2,438.8,233.8z"></path>
</svg>