<!--
* SPDX-FileCopyrightText: © 2020 Liferay, Inc. <https://liferay.com>
* SPDX-FileCopyrightText: © 2020 Contributors to the project Clay <https://github.com/liferay/clay/graphs/contributors>
*
* SPDX-License-Identifier: BSD-3-Clause
-->
<svg viewBox="0 0 17 16" xmlns="http://www.w3.org/2000/svg">
<path class="lexicon-icon-outline" d="M15.9135 6.71258C16.1354 6.4532 16.5635 5.95008 16.8198 5.52196C17.4573 4.39071 15.8135 3.36571 15.1041 4.49383C12.6448 8.73757 4.5104 8.86257 2.89477 4.63758C2.28852 3.37821 0.591645 4.20633 1.03852 5.37821C1.25727 5.92195 1.74477 6.6782 1.91665 6.87508C1.3229 7.14383 0.672895 7.67508 1.11352 8.52508C1.89477 9.5782 2.76039 8.67195 3.43852 8.29383C3.71039 8.50632 4.35414 8.8282 4.63539 8.9532C4.16664 9.65632 3.62602 10.5251 4.57289 11.1282C5.72289 11.6063 6.06352 10.4969 6.58227 9.5657C6.80727 9.61257 7.57289 9.72507 7.96352 9.73132C7.96352 11.0063 7.77289 11.9001 8.96352 12.0063C10.1354 11.9251 9.96352 11.0063 9.96352 9.67507C10.376 9.64382 11.1573 9.4532 11.3479 9.40632C11.9823 10.4032 12.2166 11.5938 13.4635 11.0688C14.4104 10.4032 13.8698 9.77507 13.2541 8.70632C13.4823 8.59695 14.151 8.2157 14.3135 8.10008C15.1635 8.57195 16.0979 9.47195 16.8229 8.39695C17.1729 7.74383 16.8635 7.1407 15.9135 6.71258Z" />
</svg>
