<!--
* SPDX-FileCopyrightText: © 2020 Liferay, Inc. <https://liferay.com>
* SPDX-FileCopyrightText: © 2020 Contributors to the project Clay <https://github.com/liferay/clay/graphs/contributors>
*
* SPDX-License-Identifier: BSD-3-Clause
-->
<svg viewBox="0 0 16 16" xmlns="http://www.w3.org/2000/svg"><path d="M14.949 6.713c.221-.26.65-.763.906-1.191.637-1.131-1.006-2.156-1.716-1.028-2.46 4.244-10.594 4.369-12.21.144-.605-1.26-2.302-.432-1.855.74.218.544.706 1.3.878 1.497-.594.269-1.244.8-.803 1.65.78 1.053 1.646.147 2.325-.231.271.212.915.534 1.196.66-.468.702-1.009 1.571-.062 2.174 1.15.478 1.49-.631 2.01-1.562.224.047.99.16 1.38.165 0 1.275-.19 2.17 1 2.275 1.172-.08 1-1 1-2.33.413-.032 1.194-.223 1.385-.27.634.997.869 2.188 2.116 1.663.946-.666.406-1.294-.21-2.363.228-.109.897-.49 1.06-.606.85.472 1.784 1.372 2.509.297.35-.653.04-1.256-.91-1.684Z"/></svg>
