<!--
* SPDX-FileCopyrightText: © 2022 Liferay, Inc. <https://liferay.com>
* SPDX-FileCopyrightText: © 2022 Contributors to the project Clay <https://github.com/liferay/clay/graphs/contributors>
*
* SPDX-License-Identifier: BSD-3-Clause
-->
<svg viewBox="0 0 16 16" xmlns="http://www.w3.org/2000/svg"><path class="lexicon-icon-outline" d="M14.949 6.71c.221-.26.65-.762.906-1.19.637-1.132-1.006-2.157-1.716-1.029-2.46 4.244-10.594 4.37-12.21.144-.605-1.26-2.302-.431-1.855.74.218.545.706 1.3.878 1.498-.594.268-1.244.8-.803 1.65.78 1.053 1.646.147 2.325-.232.271.213.915.535 1.196.66-.468.703-1.009 1.572-.062 2.175 1.15.478 1.49-.631 2.01-1.563.224.047.99.16 1.38.166 0 1.275-.19 2.169 1 2.275 1.172-.081 1-1 1-2.331.413-.032 1.194-.222 1.385-.27.634.998.869 2.188 2.116 1.663.946-.665.406-1.293-.21-2.362.228-.11.897-.49 1.06-.606.85.472 1.784 1.372 2.509.297.35-.654.04-1.257-.91-1.685Z"/></svg>