<!--
* SPDX-FileCopyrightText: © 2020 Liferay, Inc. <https://liferay.com>
* SPDX-FileCopyrightText: © 2020 Contributors to the project Clay <https://github.com/liferay/clay/graphs/contributors>
*
* SPDX-License-Identifier: BSD-3-Clause
-->
<svg viewBox="0 0 17 16" xmlns="http://www.w3.org/2000/svg">
<path class="lexicon-icon-outline" fill-rule="evenodd" clip-rule="evenodd" d="M0.963501 2.00244C0.963501 0.897872 1.85893 0.00244141 2.9635 0.00244141H12.9635C14.0681 0.00244141 14.9635 0.897872 14.9635 2.00244V4.00244C14.9635 5.10701 14.0681 6.00244 12.9635 6.00244H2.9635C1.85893 6.00244 0.963501 5.10701 0.963501 4.00244V2.00244ZM12.9635 2.00244H2.9635V4.00244H12.9635V2.00244Z" />
<path class="lexicon-icon-outline" d="M4.9635 9.50244C4.9635 8.67401 5.63507 8.00244 6.4635 8.00244H15.4635C16.2919 8.00244 16.9635 8.67401 16.9635 9.50244C16.9635 10.3309 16.2919 11.0024 15.4635 11.0024H6.4635C5.63507 11.0024 4.9635 10.3309 4.9635 9.50244Z" />
<path class="lexicon-icon-outline" d="M4.9635 14.5024C4.9635 13.674 5.63507 13.0024 6.4635 13.0024H15.4635C16.2919 13.0024 16.9635 13.674 16.9635 14.5024C16.9635 15.3309 16.2919 16.0024 15.4635 16.0024H6.4635C5.63507 16.0024 4.9635 15.3309 4.9635 14.5024Z" />
</svg>
