<!--
* SPDX-FileCopyrightText: © 2022 Liferay, Inc. <https://liferay.com>
* SPDX-FileCopyrightText: © 2022 Contributors to the project Clay <https://github.com/liferay/clay/graphs/contributors>
*
* SPDX-License-Identifier: BSD-3-Clause
-->
<svg viewBox="0 0 16 16" xmlns="http://www.w3.org/2000/svg"><path fill-rule="evenodd" clip-rule="evenodd" d="M-.001 2.002a2 2 0 0 1 2-2h10a2 2 0 0 1 2 2v2a2 2 0 0 1-2 2h-10a2 2 0 0 1-2-2v-2Zm12 0h-10v2h10v-2Z"/><path d="M3.999 9.502a1.5 1.5 0 0 1 1.5-1.5h9a1.5 1.5 0 1 1 0 3h-9a1.5 1.5 0 0 1-1.5-1.5Zm0 5a1.5 1.5 0 0 1 1.5-1.5h9a1.5 1.5 0 1 1 0 3h-9a1.5 1.5 0 0 1-1.5-1.5Z"/></svg>
