<!--
* SPDX-FileCopyrightText: © 2020 Liferay, Inc. <https://liferay.com>
* SPDX-FileCopyrightText: © 2020 Contributors to the project Clay <https://github.com/liferay/clay/graphs/contributors>
*
* SPDX-License-Identifier: BSD-3-Clause
-->
<svg viewBox="0 0 17 16" xmlns="http://www.w3.org/2000/svg">
<path class="lexicon-icon-outline" d="M16.964 8.00439C16.964 7.73564 16.8579 7.49189 16.6864 7.31377C16.6646 7.28564 16.6396 7.26064 16.6147 7.23564L14.21 4.82314C13.7858 4.39814 13.0965 4.39814 12.6724 4.82314C12.4603 5.03564 12.3542 5.31377 12.3542 5.59502C12.3542 5.87314 12.4603 6.15439 12.6724 6.36689L13.3086 7.00439H4.59128L5.22754 6.36689C5.65171 5.94189 5.65171 5.25127 5.22754 4.82627C4.80337 4.40127 4.11409 4.40127 3.68992 4.82627L1.28212 7.23252C1.07939 7.43877 0.963989 7.71689 0.963989 8.00439C0.963989 8.29502 1.07939 8.57002 1.28212 8.77627L3.6868 11.1856C4.11097 11.6106 4.80025 11.6106 5.22442 11.1856C5.4365 10.9731 5.54255 10.695 5.54255 10.4138C5.54255 10.1356 5.4365 9.85439 5.22442 9.64189L4.58816 9.00439H13.3055L12.6693 9.64189C12.2451 10.0669 12.2451 10.7575 12.6693 11.1825C13.0934 11.6075 13.7827 11.6075 14.2069 11.1825L16.6116 8.77314C16.6365 8.74814 16.6615 8.72002 16.6833 8.69502C16.8579 8.51689 16.964 8.27314 16.964 8.00439Z" />
</svg>
