<!--
* SPDX-FileCopyrightText: © 2022 Liferay, Inc. <https://liferay.com>
* SPDX-FileCopyrightText: © 2022 Contributors to the project Clay <https://github.com/liferay/clay/graphs/contributors>
*
* SPDX-License-Identifier: BSD-3-Clause
-->
<svg viewBox="0 0 16 16" xmlns="http://www.w3.org/2000/svg"><path class="lexicon-icon-outline" d="M15.999 8.502a.993.993 0 0 0-.278-.69.839.839 0 0 0-.071-.079l-2.405-2.412a1.087 1.087 0 0 0-1.856.772c0 .278.106.559.318.772l.637.637H3.626l.637-.637a1.092 1.092 0 0 0 0-1.541 1.087 1.087 0 0 0-1.538 0L.317 7.73a1.1 1.1 0 0 0 0 1.544l2.405 2.41a1.087 1.087 0 0 0 1.856-.773c0-.278-.106-.559-.319-.771l-.636-.638h8.718l-.637.637a1.092 1.092 0 0 0 0 1.541 1.087 1.087 0 0 0 1.538 0l2.405-2.41c.024-.024.05-.052.071-.077A.982.982 0 0 0 16 8.502Z"/></svg>