<!--
* SPDX-FileCopyrightText: © 2020 Liferay, Inc. <https://liferay.com>
* SPDX-FileCopyrightText: © 2020 Contributors to the project Clay <https://github.com/liferay/clay/graphs/contributors>
*
* SPDX-License-Identifier: BSD-3-Clause
-->
<svg viewBox="0 0 16 16" xmlns="http://www.w3.org/2000/svg"><path d="M15.999 8.004a.993.993 0 0 0-.278-.69.839.839 0 0 0-.071-.078l-2.405-2.413a1.087 1.087 0 0 0-1.856.772c0 .278.106.56.318.772l.637.637H3.626l.637-.637a1.092 1.092 0 0 0 0-1.54 1.087 1.087 0 0 0-1.538 0L.317 7.232a1.1 1.1 0 0 0 0 1.544l2.405 2.409a1.087 1.087 0 0 0 1.856-.772c0-.278-.106-.56-.319-.772l-.636-.638h8.718l-.637.638a1.092 1.092 0 0 0 0 1.54 1.087 1.087 0 0 0 1.538 0l2.405-2.409c.024-.025.05-.053.071-.078a.982.982 0 0 0 .281-.69Z"/></svg>
