<!--
* SPDX-FileCopyrightText: © 2020 Liferay, Inc. <https://liferay.com>
* SPDX-FileCopyrightText: © 2020 Contributors to the project Clay <https://github.com/liferay/clay/graphs/contributors>
*
* SPDX-License-Identifier: BSD-3-Clause
-->
<svg  viewBox="0 0 16 16" xmlns="http://www.w3.org/2000/svg">
<path class="lexicon-icon-outline" fill-rule="evenodd" clip-rule="evenodd" d="M8.99855 2.97011C8.93833 3.03033 8.88787 3.09662 8.84718 3.16702H5.70463V1.74086C5.70463 1.21576 5.27896 0.790086 4.75386 0.790086L0.950772 0.790087C0.425675 0.790087 0 1.21576 0 1.74086V5.54395C0 6.06904 0.425675 6.49472 0.950772 6.49472H4.75386C5.27896 6.49472 5.70463 6.06904 5.70463 5.54395V4.11779H7.84756C7.67976 4.40335 7.58354 4.73604 7.58354 5.0912V11.2486C7.58354 12.0362 6.94503 12.6747 6.15738 12.6747H5.70463C5.69144 12.6747 5.67838 12.6753 5.66546 12.6763C5.43979 11.3265 4.26619 10.2978 2.85232 10.2978C1.27703 10.2978 0 11.5748 0 13.1501C0 14.7254 1.27703 16.0024 2.85232 16.0024C4.26619 16.0024 5.4398 14.9737 5.66546 13.6239C5.67838 13.625 5.69144 13.6255 5.70463 13.6255H6.15738C7.47012 13.6255 8.53431 12.5613 8.53431 11.2486V5.0912C8.53431 4.75367 8.70611 4.45626 8.96702 4.28165C8.97722 4.29286 8.98773 4.30388 8.99855 4.3147L11.6877 7.00389C12.059 7.37519 12.661 7.37519 13.0323 7.00389L15.7215 4.3147C16.0928 3.9434 16.0928 3.34141 15.7215 2.97011L13.0323 0.280916C12.661 -0.0903835 12.059 -0.0903835 11.6877 0.280916L8.99855 2.97011ZM1.90154 4.59318H3.80309L3.80309 2.69163L1.90154 2.69163V4.59318ZM2.85232 14.1009C2.32722 14.1009 1.90154 13.6752 1.90154 13.1501C1.90154 12.625 2.32722 12.1994 2.85232 12.1994C3.37741 12.1994 3.80309 12.625 3.80309 13.1501C3.80309 13.6752 3.37741 14.1009 2.85232 14.1009ZM11.0154 3.6424L12.36 4.987L13.7046 3.6424L12.36 2.29781L11.0154 3.6424Z" />
</svg>
