<!--
* SPDX-FileCopyrightText: © 2020 Liferay, Inc. <https://liferay.com>
* SPDX-FileCopyrightText: © 2020 Contributors to the project Clay <https://github.com/liferay/clay/graphs/contributors>
*
* SPDX-License-Identifier: BSD-3-Clause
-->
<svg xmlns="http://www.w3.org/2000/svg" viewBox="0 0 512 512">
	<path class="lexicon-icon-outline lx-import-border-bottom" d="M448,160v288H64V160c0-42.4-64-41.4-64,0v288c0,35.3,28.7,64,64,64h384c35.3,0,64-28.7,64-64V160C512,117.3,448,117.8,448,160z"/>
	<path class="lexicon-icon-outline lx-import-arrow-down" d="M278.9,342.8l64.3-65.2c27.1-29.4-14.1-67.2-38.6-44.8l-16.6,16.6l-0.1-217.8c0-42.7-63.6-41.7-63.6,0l0.1,217.8l-16.6-16.6c-27.3-23.8-65.2,18-38.6,44.8l64.3,65.2C239.4,348.9,258.8,360,278.9,342.8z"/>
</svg>
