<!--
* SPDX-FileCopyrightText: © 2020 Liferay, Inc. <https://liferay.com>
* SPDX-FileCopyrightText: © 2020 Contributors to the project Clay <https://github.com/liferay/clay/graphs/contributors>
*
* SPDX-License-Identifier: BSD-3-Clause
-->
<svg viewBox="0 0 17 16" xmlns="http://www.w3.org/2000/svg">
<path class="lexicon-icon-outline" d="M14.965 8.0025V14.0025H2.96497V8.0025C2.96497 6.6775 0.964966 6.70875 0.964966 8.0025V14.0025C0.964966 15.1056 1.86184 16.0025 2.96497 16.0025H14.965C16.0681 16.0025 16.965 15.1056 16.965 14.0025V8.0025C16.965 6.66812 14.965 6.68375 14.965 8.0025Z" />
<path class="lexicon-icon-outline" d="M11.965 2.00244H5.96497C4.6056 2.00244 4.62122 0.00244141 5.96497 0.00244141H11.965C13.3087 0.00244141 13.3243 2.00244 11.965 2.00244Z" />
<path class="lexicon-icon-outline" d="M11.965 3.00244H5.965C4.6525 3.00244 4.62125 5.00244 5.965 5.00244H7.97125L7.97438 8.79619L7.45563 8.27744C6.6025 7.53369 5.41813 8.83994 6.24938 9.67744L8.25875 11.7149C8.44938 11.9056 9.05562 12.2524 9.68062 11.7149L11.69 9.67744C12.5369 8.75869 11.2494 7.57744 10.4838 8.27744L9.965 8.79619L9.95875 5.00244H11.965C13.2931 5.00244 13.2931 3.00244 11.965 3.00244Z" />
</svg>
