<svg xmlns="http://www.w3.org/2000/svg" viewBox="0 0 512 512">
	<path class="lexicon-icon-outline import-export-arrow-up" d="M254.5,81.1L182.9,9.5C176.8,3.4,168.6,0,160,0c-8.6,0-16.8,3.4-22.9,9.5L65.5,81.1c-12.7,12.7-12.7,33.2,0,45.8c6.3,6.3,14.6,9.5,22.9,9.5s16.6-3.2,22.9-9.5l16.7-16.7V481c0,17.7,14.3,32,32,32s32-14.3,32-32V110.2l16.7,16.7c12.7,12.7,33.2,12.7,45.8,0C267.2,114.2,267.2,93.7,254.5,81.1z"></path>
	<path class="lexicon-icon-outline import-export-arrow-down" d="M446.5,385.1c-6.3-6.3-14.6-9.5-22.9-9.5s-16.6,3.2-22.9,9.5L384,401.8V31c0-17.7-14.3-32-32-32s-32,14.3-32,32v370.8l-16.7-16.7c-12.7-12.7-33.2-12.7-45.8,0c-12.7,12.7-12.7,33.2,0,45.8l71.6,71.6c6.1,6.1,14.3,9.5,22.9,9.5s16.8-3.4,22.9-9.5l71.6-71.6C459.2,418.2,459.2,397.7,446.5,385.1z"></path>
</svg>
