<!--
* SPDX-FileCopyrightText: © 2020 Liferay, Inc. <https://liferay.com>
* SPDX-FileCopyrightText: © 2020 Contributors to the project Clay <https://github.com/liferay/clay/graphs/contributors>
*
* SPDX-License-Identifier: BSD-3-Clause
-->
<svg viewBox="0 0 16 16" xmlns="http://www.w3.org/2000/svg"><path fill-rule="evenodd" clip-rule="evenodd" d="M5 1.002a1 1 0 0 1 1-1h4a1 1 0 1 1 0 2H6a1 1 0 0 1-1-1Zm9 13v-6c0-1.319 2-1.334 2 0v6c0 1.103-.897 2-2 2H2c-1.103 0-2-.897-2-2v-6c0-1.294 2-1.325 2 0v6h12Zm-5.291-2.286 2.01-2.037c.846-.919-.441-2.1-1.207-1.4l-.519.519L8.99 4.99c0-1.334-1.987-1.303-1.987 0l.003 3.807-.52-.52c-.852-.743-2.037.563-1.205 1.4l2.009 2.038c.184.191.79.538 1.419 0Z"/></svg>
