<!--
* SPDX-FileCopyrightText: © 2022 Liferay, Inc. <https://liferay.com>
* SPDX-FileCopyrightText: © 2022 Contributors to the project Clay <https://github.com/liferay/clay/graphs/contributors>
*
* SPDX-License-Identifier: BSD-3-Clause
-->
<svg viewBox="0 0 16 16" xmlns="http://www.w3.org/2000/svg"><path class="lexicon-icon-outline" d="M13.999 8.002v6h-12v-6c0-1.325-2-1.294-2 0v6c0 1.103.897 2 2 2h12c1.103 0 2-.897 2-2v-6c0-1.334-2-1.319-2 0Zm-3-6h-6c-1.36 0-1.344-2 0-2h6c1.344 0 1.36 2 0 2Z"/><path class="lexicon-icon-outline" d="M11 3.002H5c-1.313 0-1.345 2 0 2h2.005l.003 3.794-.518-.519c-.853-.744-2.038.563-1.207 1.4l2.01 2.037c.19.191.797.538 1.422 0l2.01-2.037c.846-.919-.442-2.1-1.207-1.4l-.519.519-.006-3.794h2.006c1.328 0 1.328-2 0-2Z"/></svg>