<!--
* SPDX-FileCopyrightText: © 2022 Liferay, Inc. <https://liferay.com>
* SPDX-FileCopyrightText: © 2022 Contributors to the project Clay <https://github.com/liferay/clay/graphs/contributors>
*
* SPDX-License-Identifier: BSD-3-Clause
-->
<svg viewBox="0 0 16 16" xmlns="http://www.w3.org/2000/svg"><path class="lexicon-icon-outline" d="M4.999 1.002a1 1 0 0 1 1-1h4a1 1 0 0 1 0 2h-4a1 1 0 0 1-1-1Zm9 13v-6c0-1.32 2-1.335 2 0v6c0 1.103-.897 2-2 2h-12c-1.103 0-2-.897-2-2v-6c0-1.294 2-1.325 2 0v6h12Z"/><path class="lexicon-icon-outline" d="m8.708 11.716 2.01-2.037c.846-.92-.441-2.1-1.207-1.4l-.519.518-.003-3.806c0-1.334-1.987-1.303-1.987 0l.003 3.806-.52-.518c-.852-.744-2.037.562-1.205 1.4l2.009 2.037c.184.19.79.538 1.419 0Z"/></svg>