<!--
* SPDX-FileCopyrightText: © 2020 Liferay, Inc. <https://liferay.com>
* SPDX-FileCopyrightText: © 2020 Contributors to the project Clay <https://github.com/liferay/clay/graphs/contributors>
*
* SPDX-License-Identifier: BSD-3-Clause
-->
<svg xmlns="http://www.w3.org/2000/svg" viewBox="0 0 512 512">
	<path class="lexicon-icon-outline" fill-rule="evenodd" clip-rule="evenodd" d="M160 32C160 14.327 174.327 0 192 0H320C337.673 0 352 14.327 352 32C352 49.673 337.673 64 320 64H192C174.327 64 160 49.673 160 32ZM448 447.99V255.989C448 213.789 512 213.289 512 255.989V447.99C512 483.289 483.3 511.99 448 511.99L64 511.989C28.7 511.989 0 483.289 0 447.989V255.989C0 214.589 64 213.589 64 255.989V447.989L448 447.99ZM278.681 374.851L342.981 309.651C370.081 280.251 328.881 242.451 304.381 264.851L287.781 281.451L287.681 159.651C287.681 116.951 224.081 117.951 224.081 159.651L224.181 281.451L207.581 264.851C180.281 241.051 142.381 282.851 168.981 309.651L233.281 374.851C239.181 380.951 258.581 392.051 278.681 374.851Z" />
</svg>
