<!--
* SPDX-FileCopyrightText: © 2020 Liferay, Inc. <https://liferay.com>
* SPDX-FileCopyrightText: © 2020 Contributors to the project Clay <https://github.com/liferay/clay/graphs/contributors>
*
* SPDX-License-Identifier: BSD-3-Clause
-->
<svg viewBox="0 0 17 16" xmlns="http://www.w3.org/2000/svg">
<path class="lexicon-icon-outline" fill-rule="evenodd" clip-rule="evenodd" d="M5.96497 1.00244C5.96497 0.450157 6.41268 0.00244141 6.96497 0.00244141L10.965 0.00244141C11.5173 0.00244141 11.965 0.450157 11.965 1.00244C11.965 1.55473 11.5173 2.00244 10.965 2.00244L6.96497 2.00244C6.41268 2.00244 5.96497 1.55473 5.96497 1.00244ZM14.965 14.0021L14.965 8.00211C14.965 6.68336 16.965 6.66774 16.965 8.00211L16.965 14.0021C16.965 15.1052 16.0681 16.0021 14.965 16.0021L2.96496 16.0021C1.86184 16.0021 0.964962 15.1052 0.964966 14.0021L0.964966 8.00211C0.964966 6.70836 2.96497 6.67711 2.96496 8.00211L2.96496 14.0021L14.965 14.0021ZM9.67373 11.7165L11.6831 9.67904C12.53 8.76029 11.2425 7.57904 10.4769 8.27905L9.95811 8.7978L9.95498 4.99154C9.95498 3.65717 7.96748 3.68842 7.96748 4.99154L7.97061 8.7978L7.45186 8.27905C6.59873 7.53529 5.41436 8.84154 6.24561 9.67904L8.25498 11.7165C8.43936 11.9072 9.04561 12.254 9.67373 11.7165Z" />
</svg>
