<!--
* SPDX-FileCopyrightText: © 2022 Liferay, Inc. <https://liferay.com>
* SPDX-FileCopyrightText: © 2022 Contributors to the project Clay <https://github.com/liferay/clay/graphs/contributors>
*
* SPDX-License-Identifier: BSD-3-Clause
-->
<svg viewBox="0 0 16 16" xmlns="http://www.w3.org/2000/svg"><path class="lexicon-icon-outline" d="M1.142 2.288h13.714a1.142 1.142 0 1 0 0-2.286H1.142C.51.002-.001.512-.001 1.145c0 .632.51 1.143 1.143 1.143ZM15.999 14.86c0-.633-.51-1.144-1.143-1.144H1.142a1.142 1.142 0 1 0 0 2.286h13.714c.632 0 1.143-.51 1.143-1.143Zm-5.715-5.715h4.571a1.142 1.142 0 1 1 0 2.286h-4.57c-.633 0-1.143-.511-1.143-1.143s.51-1.143 1.142-1.143Zm4.571-4.572h-4.57c-.633 0-1.143.511-1.143 1.143s.51 1.143 1.142 1.143h4.571a1.142 1.142 0 1 0 0-2.286ZM4.063 9.145H1.142c-.632 0-1.143-.51-1.143-1.143 0-.632.51-1.143 1.143-1.143h2.921l-.596-.596a1.156 1.156 0 1 1 1.636-1.636L7.66 7.184a1.154 1.154 0 0 1 0 1.636l-2.557 2.557a1.153 1.153 0 0 1-1.636 0 1.154 1.154 0 0 1 0-1.636l.596-.596Z"/></svg>