<!--
* SPDX-FileCopyrightText: © 2020 Liferay, Inc. <https://liferay.com>
* SPDX-FileCopyrightText: © 2020 Contributors to the project Clay <https://github.com/liferay/clay/graphs/contributors>
*
* SPDX-License-Identifier: BSD-3-Clause
-->
<svg viewBox="0 0 17 16" xmlns="http://www.w3.org/2000/svg">
<path class="lexicon-icon-outline" d="M2.10754 2.28815H15.8224C16.4542 2.28815 16.965 1.77747 16.965 1.14532C16.965 0.513184 16.4542 0.00244141 15.8224 0.00244141H2.10754C1.47571 0.00244141 0.964966 0.513184 0.964966 1.14532C0.964966 1.77747 1.47571 2.28815 2.10754 2.28815Z" />
<path class="lexicon-icon-outline" d="M16.965 14.8596C16.965 14.2275 16.4542 13.7167 15.8224 13.7167H2.10754C1.47571 13.7167 0.964966 14.2275 0.964966 14.8596C0.964966 15.4918 1.47571 16.0024 2.10754 16.0024H15.8224C16.4542 16.0024 16.965 15.4918 16.965 14.8596Z" />
<path class="lexicon-icon-outline" d="M11.2501 9.14532H15.8214C16.4542 9.14532 16.965 9.65607 16.965 10.2882C16.965 10.9203 16.4542 11.431 15.8214 11.431H11.2501C10.6183 11.431 10.1075 10.9203 10.1075 10.2882C10.1075 9.65607 10.6183 9.14532 11.2501 9.14532Z" />
<path class="lexicon-icon-outline" d="M15.8214 4.57385H11.2501C10.6183 4.57385 10.1075 5.08459 10.1075 5.71674C10.1075 6.34888 10.6183 6.85956 11.2501 6.85956H15.8214C16.4542 6.85956 16.965 6.34888 16.965 5.71674C16.965 5.08459 16.4542 4.57385 15.8214 4.57385Z" />
<path class="lexicon-icon-outline" d="M5.02942 9.14532H2.10754C1.47571 9.14532 0.964966 8.63464 0.964966 8.00244C0.964966 7.3703 1.47571 6.85962 2.10754 6.85962H5.02942L4.43274 6.26318C4.20813 6.03821 4.09387 5.74176 4.09387 5.44531C4.09387 5.14893 4.20813 4.85248 4.43274 4.62744C4.88293 4.17389 5.61536 4.17389 6.06848 4.62744L8.6261 7.18463C8.84387 7.40247 8.96497 7.69531 8.96497 8.00244C8.96497 8.30963 8.84387 8.60248 8.6261 8.82031L6.06848 11.3774C5.61829 11.8311 4.88684 11.8311 4.43274 11.3774C3.97961 10.9275 3.97961 10.1953 4.43274 9.74176L5.02942 9.14532Z" />
</svg>
