<!--
* SPDX-FileCopyrightText: © 2020 Liferay, Inc. <https://liferay.com>
* SPDX-FileCopyrightText: © 2020 Contributors to the project Clay <https://github.com/liferay/clay/graphs/contributors>
*
* SPDX-License-Identifier: BSD-3-Clause
-->
<svg viewBox="0 0 16 16" xmlns="http://www.w3.org/2000/svg"><path d="M1.143 2.288h13.714c.632 0 1.143-.51 1.143-1.143 0-.632-.51-1.143-1.143-1.143H1.143C.51.002 0 .513 0 1.145s.51 1.143 1.143 1.143ZM16 14.86a1.14 1.14 0 0 0-1.143-1.143H1.143a1.142 1.142 0 1 0 0 2.285h13.714c.632 0 1.143-.51 1.143-1.142Zm-5.715-5.715h4.571a1.142 1.142 0 1 1 0 2.286h-4.57a1.14 1.14 0 0 1-1.143-1.143c0-.632.51-1.143 1.142-1.143Zm4.571-4.571h-4.57a1.14 1.14 0 0 0-1.143 1.143c0 .632.51 1.142 1.142 1.142h4.571a1.142 1.142 0 1 0 0-2.285ZM4.064 9.145H1.143A1.14 1.14 0 0 1 0 8.002C0 7.37.51 6.86 1.143 6.86h2.921l-.596-.596a1.156 1.156 0 1 1 1.636-1.636L7.66 7.185a1.154 1.154 0 0 1 0 1.635l-2.557 2.557a1.153 1.153 0 0 1-1.636 0 1.154 1.154 0 0 1 0-1.635l.596-.597Z"/></svg>
