<!--
* SPDX-FileCopyrightText: © 2020 Liferay, Inc. <https://liferay.com>
* SPDX-FileCopyrightText: © 2020 Contributors to the project Clay <https://github.com/liferay/clay/graphs/contributors>
*
* SPDX-License-Identifier: BSD-3-Clause
-->
<svg viewBox="0 0 17 16" xmlns="http://www.w3.org/2000/svg">
<path class="lexicon-icon-outline" fill-rule="evenodd" clip-rule="evenodd" d="M13.9152 3.05269C12.5929 1.73058 10.8351 1.00244 8.96497 1.00244C7.09485 1.00244 5.33704 1.73058 4.01477 3.05269C2.69348 4.37481 1.96497 6.13266 1.96497 8.00244C1.96497 9.8722 2.69348 11.6301 4.01477 12.9522C5.33704 14.2743 7.09485 15.0024 8.96497 15.0024C10.8351 15.0024 12.5929 14.2743 13.9152 12.9522C15.2365 11.6301 15.965 9.8722 15.965 8.00244C15.965 6.13266 15.2365 4.37481 13.9152 3.05269ZM9.83997 11.5024C9.83997 11.9857 9.44836 12.3774 8.96497 12.3774C8.48157 12.3774 8.08997 11.9857 8.08997 11.5024V7.12744C8.08997 6.64419 8.48157 6.25244 8.96497 6.25244C9.44836 6.25244 9.83997 6.64419 9.83997 7.12744V11.5024ZM8.08997 4.50244C8.08997 4.98569 8.48157 5.37744 8.96497 5.37744C9.44836 5.37744 9.83997 4.98569 9.83997 4.50244C9.83997 4.01919 9.44836 3.62744 8.96497 3.62744C8.48157 3.62744 8.08997 4.01919 8.08997 4.50244Z" />
</svg>
