<!--
* SPDX-FileCopyrightText: © 2022 Liferay, Inc. <https://liferay.com>
* SPDX-FileCopyrightText: © 2022 Contributors to the project Clay <https://github.com/liferay/clay/graphs/contributors>
*
* SPDX-License-Identifier: BSD-3-Clause
-->
<svg viewBox="0 0 16 16" xmlns="http://www.w3.org/2000/svg"><path class="lexicon-icon-outline" fill-rule="evenodd" clip-rule="evenodd" d="M13.655 2.346A7.937 7.937 0 0 0 8 .002a7.937 7.937 0 0 0-5.656 2.344A7.936 7.936 0 0 0-.001 8.002c0 2.137.831 4.147 2.344 5.656a7.942 7.942 0 0 0 5.656 2.344 7.938 7.938 0 0 0 5.656-2.344A7.941 7.941 0 0 0 16 8.002a7.936 7.936 0 0 0-2.344-5.656ZM9 12.002a1 1 0 1 1-2 0v-5a1 1 0 1 1 2 0v5Zm-2-8a1 1 0 1 0 1.998.002A1 1 0 0 0 7 4.002Z"/></svg>