<!--
* SPDX-FileCopyrightText: © 2020 Liferay, Inc. <https://liferay.com>
* SPDX-FileCopyrightText: © 2020 Contributors to the project Clay <https://github.com/liferay/clay/graphs/contributors>
*
* SPDX-License-Identifier: BSD-3-Clause
-->
<svg viewBox="0 0 16 16" xmlns="http://www.w3.org/2000/svg"><path d="M8 6.002a1 1 0 0 0-1 1v5a1 1 0 1 0 2 0v-5a1 1 0 0 0-1-1Zm1-2a1 1 0 1 1-2 0 1 1 0 0 1 2 0Z"/><path fill-rule="evenodd" clip-rule="evenodd" d="M8 .002c2.138 0 4.146.832 5.656 2.344A7.936 7.936 0 0 1 16 8.002a7.941 7.941 0 0 1-2.344 5.657A7.937 7.937 0 0 1 8 16.002a7.942 7.942 0 0 1-5.656-2.343A7.936 7.936 0 0 1 0 8.002c0-2.137.831-4.147 2.344-5.656A7.937 7.937 0 0 1 8 .002Zm-6 8c0 3.31 2.69 6 6 6s6-2.69 6-6c0-3.309-2.69-6-6-6s-6 2.691-6 6Z"/></svg>
