<!--
* SPDX-FileCopyrightText: © 2020 Liferay, Inc. <https://liferay.com>
* SPDX-FileCopyrightText: © 2020 Contributors to the project Clay <https://github.com/liferay/clay/graphs/contributors>
*
* SPDX-License-Identifier: BSD-3-Clause
-->
<svg viewBox="0 0 17 16" xmlns="http://www.w3.org/2000/svg">
<path class="lexicon-icon-outline" d="M8.96497 6.00244C8.41223 6.00244 7.96497 6.44934 7.96497 7.00244V12.0024C7.96497 12.5555 8.41223 13.0024 8.96497 13.0024C9.5177 13.0024 9.96497 12.5555 9.96497 12.0024V7.00244C9.96497 6.44934 9.5177 6.00244 8.96497 6.00244Z" />
<path class="lexicon-icon-outline" d="M9.96497 4.00244C9.96497 4.55469 9.5177 5.00244 8.96497 5.00244C8.41223 5.00244 7.96497 4.55469 7.96497 4.00244C7.96497 3.4502 8.41223 3.00244 8.96497 3.00244C9.5177 3.00244 9.96497 3.4502 9.96497 4.00244Z" />
<path class="lexicon-icon-outline" fill-rule="evenodd" clip-rule="evenodd" d="M8.96497 0.00244141C11.1027 0.00244141 13.1115 0.83374 14.6212 2.34619C16.1339 3.85559 16.965 5.86499 16.965 8.00244C16.965 10.1399 16.1339 12.1462 14.6212 13.6587C13.1115 15.1711 11.1027 16.0024 8.96497 16.0024C6.82727 16.0024 4.82141 15.1711 3.30872 13.6587C1.79602 12.1493 0.964966 10.1399 0.964966 8.00244C0.964966 5.86499 1.79602 3.85559 3.30872 2.34619C4.81848 0.83374 6.82727 0.00244141 8.96497 0.00244141ZM2.96497 8.00244C2.96497 11.3118 5.6554 14.0024 8.96497 14.0024C12.2745 14.0024 14.965 11.3118 14.965 8.00244C14.965 4.69312 12.2745 2.00244 8.96497 2.00244C5.6554 2.00244 2.96497 4.69312 2.96497 8.00244Z" />
</svg>
