<!--
* SPDX-FileCopyrightText: © 2022 Liferay, Inc. <https://liferay.com>
* SPDX-FileCopyrightText: © 2022 Contributors to the project Clay <https://github.com/liferay/clay/graphs/contributors>
*
* SPDX-License-Identifier: BSD-3-Clause
-->
<svg viewBox="0 0 16 16" xmlns="http://www.w3.org/2000/svg"><path class="lexicon-icon-outline" fill-rule="evenodd" clip-rule="evenodd" d="M12.95 3.052a6.955 6.955 0 0 0-4.951-2.05c-1.87 0-3.628.728-4.95 2.05a6.957 6.957 0 0 0-2.05 4.95c0 1.87.729 3.628 2.05 4.95a6.955 6.955 0 0 0 4.95 2.05c1.87 0 3.628-.728 4.95-2.05A6.957 6.957 0 0 0 15 8.002c0-1.87-.729-3.628-2.05-4.95Zm-4.076 8.45a.875.875 0 1 1-1.75 0V7.127a.875.875 0 1 1 1.75 0v4.375Zm-1.75-7a.875.875 0 1 0 1.75 0 .875.875 0 0 0-1.75 0Z"/></svg>