<!--
* SPDX-FileCopyrightText: © 2020 Liferay, Inc. <https://liferay.com>
* SPDX-FileCopyrightText: © 2020 Contributors to the project Clay <https://github.com/liferay/clay/graphs/contributors>
*
* SPDX-License-Identifier: BSD-3-Clause
-->
<svg viewBox="0 0 16 16" xmlns="http://www.w3.org/2000/svg"><path fill-rule="evenodd" clip-rule="evenodd" d="M12.95 3.053A6.955 6.955 0 0 0 8 1.003a6.95 6.95 0 0 0-4.95 2.05A6.957 6.957 0 0 0 1 8.003a6.96 6.96 0 0 0 2.05 4.95A6.955 6.955 0 0 0 8 15.002c1.87 0 3.628-.729 4.95-2.05A6.957 6.957 0 0 0 15 8.002c0-1.87-.729-3.628-2.05-4.95Zm-4.075 8.45a.875.875 0 1 1-1.75 0V7.126a.875.875 0 1 1 1.75 0v4.375Zm-1.75-7a.875.875 0 1 0 1.75 0 .875.875 0 0 0-1.75 0Z"/></svg>
