<!--
* SPDX-FileCopyrightText: © 2020 Liferay, Inc. <https://liferay.com>
* SPDX-FileCopyrightText: © 2020 Contributors to the project Clay <https://github.com/liferay/clay/graphs/contributors>
*
* SPDX-License-Identifier: BSD-3-Clause
-->
<svg viewBox="0 0 17 16" xmlns="http://www.w3.org/2000/svg">
<path class="lexicon-icon-outline" fill-rule="evenodd" clip-rule="evenodd" d="M14.6212 2.34619C13.1115 0.83374 11.1027 0.00244141 8.96497 0.00244141C6.82727 0.00244141 4.81848 0.83374 3.30872 2.34619C1.79602 3.85559 0.964966 5.86499 0.964966 8.00244C0.964966 10.1399 1.79602 12.1493 3.30872 13.6587C4.82141 15.1711 6.82727 16.0024 8.96497 16.0024C11.1027 16.0024 13.1115 15.1711 14.6212 13.6587C16.1339 12.1462 16.965 10.1399 16.965 8.00244C16.965 5.86499 16.1339 3.85559 14.6212 2.34619ZM9.96497 12.0024C9.96497 12.5555 9.5177 13.0024 8.96497 13.0024C8.41223 13.0024 7.96497 12.5555 7.96497 12.0024V7.00244C7.96497 6.44934 8.41223 6.00244 8.96497 6.00244C9.5177 6.00244 9.96497 6.44934 9.96497 7.00244V12.0024ZM7.96497 4.00244C7.96497 4.55554 8.41223 5.00244 8.96497 5.00244C9.5177 5.00244 9.96497 4.55554 9.96497 4.00244C9.96497 3.44934 9.5177 3.00244 8.96497 3.00244C8.41223 3.00244 7.96497 3.44934 7.96497 4.00244Z" />
</svg>
