<!--
* SPDX-FileCopyrightText: © 2020 Liferay, Inc. <https://liferay.com>
* SPDX-FileCopyrightText: © 2020 Contributors to the project Clay <https://github.com/liferay/clay/graphs/contributors>
*
* SPDX-License-Identifier: BSD-3-Clause
-->
<svg viewBox="0 0 16 16" xmlns="http://www.w3.org/2000/svg"><path fill-rule="evenodd" clip-rule="evenodd" d="M13.998 1.002a1 1 0 0 0-1-1H5a3 3 0 0 0-2.999 3v10.5s-.028 2.307 2.446 2.49c.019.004 9.052.01 9.052.01.675-.043.652-.959 0-1L4.5 14.996c-2.037-.072-1.906-2.918-.054-2.993h8.552c.553-.003 1-.45 1-1.003V1.002ZM5.003 10V2.002h6.999V10h-7Zm3.005-6.517a.501.501 0 0 1 1 0 .501.501 0 0 1-1 0ZM9.002 5h-1.5c-.656.02-.688.956 0 1h.5v2.5c.028.63.934.718 1 0V5Zm-4.509 9h8.005c.722-.053.606-.99 0-1H4.493c-.628.01-.693.965 0 1Z"/></svg>
