<svg xmlns="http://www.w3.org/2000/svg" viewBox="0 0 512 512">
	<path class="lexicon-icon-outline" d="M437,75C388.7,26.6,324.4,0,256,0C187.6,0,123.3,26.6,75,75C26.6,123.3,0,187.6,0,256c0,68.4,26.6,132.7,75,181c48.4,48.4,112.6,75,181,75c68.4,0,132.7-26.6,181-75c48.4-48.4,75-112.6,75-181C512,187.6,485.4,123.3,437,75z M288,384c0,17.7-14.3,32-32,32c-17.7,0-32-14.3-32-32V224c0-17.7,14.3-32,32-32c17.7,0,32,14.3,32,32V384z M256,160c-17.7,0-32-14.3-32-32c0-17.7,14.3-32,32-32s32,14.3,32,32C288,145.7,273.7,160,256,160z"></path>
</svg>