<!--
* SPDX-FileCopyrightText: © 2020 Liferay, Inc. <https://liferay.com>
* SPDX-FileCopyrightText: © 2020 Contributors to the project Clay <https://github.com/liferay/clay/graphs/contributors>
*
* SPDX-License-Identifier: BSD-3-Clause
-->
<svg viewBox="0 0 17 16" xmlns="http://www.w3.org/2000/svg">
<path class="lexicon-icon-outline" fill-rule="evenodd" clip-rule="evenodd" d="M14.963 1.00226C14.963 0.449219 14.5158 0.00244141 13.963 0.00244141H5.964C4.30873 0.00244141 2.96498 1.34595 2.96498 3.00183V13.5029C2.96498 13.5029 2.93666 15.8087 5.41127 15.993C5.42982 15.9962 14.463 16.0024 14.463 16.0024C15.1378 15.9587 15.1154 15.0433 14.463 15.0026L5.46498 14.9964C3.42787 14.9245 3.55873 12.0782 5.41127 12.0032H13.963C14.5158 12.0001 14.963 11.5533 14.963 11.0003V1.00226ZM5.96791 10.0005V2.00208H12.9669V10.0005H5.96791ZM8.97279 3.48297C8.97279 3.20807 9.1974 2.98309 9.47279 2.98309C9.74721 2.98309 9.97279 3.20807 9.97279 3.48297C9.97279 3.75793 9.74721 3.98291 9.47279 3.98291C9.1974 3.98291 8.97279 3.75793 8.97279 3.48297ZM9.96693 5.00146H8.46693C7.81068 5.0202 7.77943 5.95752 8.46693 6.00128H8.96693V8.50079C8.99525 9.1319 9.90053 9.21942 9.96693 8.50079V5.00146ZM5.45814 13.9997H13.463C14.1847 13.9466 14.0685 13.0093 13.463 12.9999H5.45814C4.83021 13.0093 4.76478 13.9653 5.45814 13.9997Z" />
</svg>
