<!--
* SPDX-FileCopyrightText: © 2022 Liferay, Inc. <https://liferay.com>
* SPDX-FileCopyrightText: © 2022 Contributors to the project Clay <https://github.com/liferay/clay/graphs/contributors>
*
* SPDX-License-Identifier: BSD-3-Clause
-->
<svg viewBox="0 0 16 16" xmlns="http://www.w3.org/2000/svg"><path class="lexicon-icon-outline" d="M10.855 4.002c-2.36 0-2.644 2.654-2.644 3.964s.332 4.036 2.644 4.036c2.344 0 2.644-2.727 2.644-4.036.003-1.304-.3-3.964-2.644-3.964Zm0 1.089c.619-.013.934.498 1.107 1.101L9.57 8.56c-.048-1.341-.039-3.493 1.285-3.468Zm0 5.82c-.603-.026-.918-.528-1.09-1.115l2.378-2.354c-.015 1.332.03 3.468-1.288 3.468Zm-8.356-.197h1.738V5.65H2.805v-.87c.392-.073 1.027-.105 1.802-.632H5.66v6.567h1.53v1.14H2.5v-1.14Z"/></svg>