<!--
* SPDX-FileCopyrightText: © 2020 Liferay, Inc. <https://liferay.com>
* SPDX-FileCopyrightText: © 2020 Contributors to the project Clay <https://github.com/liferay/clay/graphs/contributors>
*
* SPDX-License-Identifier: BSD-3-Clause
-->
<svg viewBox="0 0 16 16" xmlns="http://www.w3.org/2000/svg"><path d="M10.855 4.004c-2.36 0-2.644 2.654-2.644 3.964s.332 4.036 2.644 4.036c2.344 0 2.644-2.726 2.644-4.036.003-1.303-.3-3.964-2.644-3.964Zm0 1.09c.619-.013.934.498 1.107 1.1L9.57 8.562c-.048-1.34-.039-3.493 1.285-3.468Zm0 5.818c-.603-.025-.918-.527-1.09-1.114l2.378-2.354c-.015 1.332.03 3.468-1.288 3.468Zm-8.356-.195h1.738V5.652H2.805V4.78c.392-.073 1.027-.104 1.802-.631H5.66v6.567h1.53v1.14H2.5v-1.14Z"/></svg>
