<!--
* SPDX-FileCopyrightText: © 2020 Liferay, Inc. <https://liferay.com>
* SPDX-FileCopyrightText: © 2020 Contributors to the project Clay <https://github.com/liferay/clay/graphs/contributors>
*
* SPDX-License-Identifier: BSD-3-Clause
-->
<svg viewBox="0 0 17 16" xmlns="http://www.w3.org/2000/svg">
<path class="lexicon-icon-outline" d="M11.82 4.00439C9.45992 4.00439 9.17607 6.65844 9.17607 7.9681C9.17607 9.27777 9.50776 12.0044 11.82 12.0044C14.1642 12.0044 14.464 9.27777 14.464 7.9681C14.4672 6.66475 14.1642 4.00439 11.82 4.00439ZM11.82 5.09315C12.4387 5.08053 12.7545 5.59177 12.9267 6.19453L10.5347 8.5614C10.4869 7.22017 10.4964 5.06791 11.82 5.09315ZM11.82 10.9125C11.2172 10.8872 10.9015 10.3855 10.7293 9.79848L13.1085 7.44424C13.0926 8.77599 13.1372 10.9125 11.82 10.9125Z" />
<path class="lexicon-icon-outline" d="M3.46399 10.7168H5.20217V5.65172H3.77016V4.78071C4.16245 4.70813 4.79713 4.67657 5.57214 4.14955H6.62461V10.7168H8.15549V11.8561H3.46399V10.7168Z" />
</svg>
