<!--
* SPDX-FileCopyrightText: © 2023 Liferay, Inc. <https://liferay.com>
* SPDX-FileCopyrightText: © 2023 Contributors to the project Clay <https://github.com/liferay/clay/graphs/contributors>
*
* SPDX-License-Identifier: BSD-3-Clause
-->
<svg xmlns="http://www.w3.org/2000/svg" viewBox="0 0 512 512">
  <path class="lexicon-icon-outline" fill-rule="evenodd" clip-rule="evenodd" d="M256 512c-17.673 0-32-14.327-32-32V251.968c-55.207-14.209-96-64.325-96-123.968C128 57.308 185.308 0 256 0c70.692 0 128 57.308 128 128 0 59.643-40.793 109.759-96 123.968V416h47.999c8.837 0 16 7.163 16 16v32c0 8.837-7.163 16-16 16H288c0 17.673-14.327 32-32 32Zm64-384c0 35.347-28.653 64-64 64s-64-28.653-64-64 28.653-64 64-64 64 28.653 64 64Z" />
</svg>
