<!--
* SPDX-FileCopyrightText: © 2020 Liferay, Inc. <https://liferay.com>
* SPDX-FileCopyrightText: © 2020 Contributors to the project Clay <https://github.com/liferay/clay/graphs/contributors>
*
* SPDX-License-Identifier: BSD-3-Clause
-->
<svg viewBox="0 0 17 16" xmlns="http://www.w3.org/2000/svg">
<path class="lexicon-icon-outline" fill-rule="evenodd" clip-rule="evenodd" d="M8.96497 16.0024C8.41269 16.0024 7.96497 15.5547 7.96497 15.0024L7.96496 7.87644C6.23974 7.4324 4.96496 5.86627 4.96496 4.00244C4.96496 1.79331 6.75583 0.00244249 8.96496 0.00244211C11.1741 0.00244172 12.965 1.7933 12.965 4.00244C12.965 5.86627 11.6902 7.4324 9.96496 7.87643L9.96497 13.0024L11.4649 13.0024C11.7411 13.0024 11.9649 13.2263 11.9649 13.5024L11.9649 14.5024C11.9649 14.7786 11.7411 15.0024 11.4649 15.0024L9.96497 15.0024C9.96497 15.5547 9.51724 16.0024 8.96497 16.0024ZM10.965 4.00244C10.965 5.10703 10.0695 6.00244 8.96496 6.00244C7.86038 6.00244 6.96496 5.10703 6.96496 4.00244C6.96496 2.89786 7.86038 2.00244 8.96496 2.00244C10.0695 2.00244 10.965 2.89786 10.965 4.00244Z" />
</svg>
