<!--
* SPDX-FileCopyrightText: © 2023 Liferay, Inc. <https://liferay.com>
* SPDX-FileCopyrightText: © 2023 Contributors to the project Clay <https://github.com/liferay/clay/graphs/contributors>
*
* SPDX-License-Identifier: BSD-3-Clause
-->
<svg viewBox="0 0 16 16" xmlns="http://www.w3.org/2000/svg"><path fill-rule="evenodd" clip-rule="evenodd" d="M8 16.002a1 1 0 0 1-1-1V7.876A4.002 4.002 0 0 1 8 .002a4 4 0 0 1 1 7.874v5.126h1.5a.5.5 0 0 1 .5.5v1a.5.5 0 0 1-.5.5H9a1 1 0 0 1-1 1Zm2-12a2 2 0 1 1-4 0 2 2 0 0 1 4 0Z"/></svg>
