<!--
* SPDX-FileCopyrightText: © 2026 Liferay, Inc. <https://liferay.com>
* SPDX-FileCopyrightText: © 2026 Contributors to the project Clay <https://github.com/liferay/clay/graphs/contributors>
*
* SPDX-License-Identifier: BSD-3-Clause
-->
<svg viewBox="0 0 16 16" xmlns="http://www.w3.org/2000/svg">
	<path class="lexicon-icon-outline" clip-rule="evenodd" d="M14.222 0A1.78 1.78 0 0 1 16 1.778V6a1 1 0 0 1-1 1H7v8a1 1 0 0 1-1 1H1.778A1.78 1.78 0 0 1 0 14.222V1.778A1.78 1.78 0 0 1 1.778 0h12.444ZM1.89 14.443H5V2H1.89v12.443ZM7 5h7V2H7v3Z" fill-rule="evenodd" />
	<path class="lexicon-icon-outline" d="M15 9a1 1 0 0 1 1 1v5a1 1 0 1 1-2 0v-2.586l-3.292 3.292a1 1 0 0 1-1.414-1.414L12.586 11H10a1 1 0 1 1 0-2h5Z" />
</svg>