<!--
* SPDX-FileCopyrightText: © 2022 Liferay, Inc. <https://liferay.com>
* SPDX-FileCopyrightText: © 2022 Contributors to the project Clay <https://github.com/liferay/clay/graphs/contributors>
*
* SPDX-License-Identifier: BSD-3-Clause
-->
<svg viewBox="0 0 16 16" xmlns="http://www.w3.org/2000/svg"><path class="lexicon-icon-outline" d="M3.999 16.002h-3a1 1 0 0 1-1-1v-6a1 1 0 0 1 1-1h3v8Zm6 0h-4a1 1 0 0 1-1-1v-14a1 1 0 0 1 1-1h4a1 1 0 0 1 1 1v14a1 1 0 0 1-1 1Zm5 0h-3v-11h3a1 1 0 0 1 1 1v9a1 1 0 0 1-1 1Z"/></svg>