<!--
* SPDX-FileCopyrightText: © 2020 Liferay, Inc. <https://liferay.com>
* SPDX-FileCopyrightText: © 2020 Contributors to the project Clay <https://github.com/liferay/clay/graphs/contributors>
*
* SPDX-License-Identifier: BSD-3-Clause
-->
<svg viewBox="0 0 17 16" xmlns="http://www.w3.org/2000/svg">
<path class="lexicon-icon-outline" d="M4.96497 16.0024H1.96497C1.41184 16.0024 0.964966 15.5556 0.964966 15.0024V9.00244C0.964966 8.44932 1.41184 8.00244 1.96497 8.00244H4.96497V16.0024Z" />
<path class="lexicon-icon-outline" d="M10.965 16.0024H6.96497C6.41184 16.0024 5.96497 15.5556 5.96497 15.0024V1.00244C5.96497 0.449316 6.41184 0.00244141 6.96497 0.00244141H10.965C11.5181 0.00244141 11.965 0.449316 11.965 1.00244V15.0024C11.965 15.5556 11.5181 16.0024 10.965 16.0024Z" />
<path class="lexicon-icon-outline" d="M15.965 16.0024H12.965V5.00244H15.965C16.5181 5.00244 16.965 5.44932 16.965 6.00244V15.0024C16.965 15.5556 16.5181 16.0024 15.965 16.0024Z" />
</svg>
