<!--
* SPDX-FileCopyrightText: © 2020 Liferay, Inc. <https://liferay.com>
* SPDX-FileCopyrightText: © 2020 Contributors to the project Clay <https://github.com/liferay/clay/graphs/contributors>
*
* SPDX-License-Identifier: BSD-3-Clause
-->
<svg xmlns="http://www.w3.org/2000/svg" viewBox="0 0 512 512">
	<path class="lexicon-icon-outline" d="M216.2,295.8c-23.4-23.4,11.6-58.3,35-35c18.1,18.1,47.5,18.1,65.6,0l122.5-122.5c43.4-43.4-22.2-109.1-65.6-65.6L273.1,173.3c-23.4,23.4-58.3-11.6-35-35L338.7,37.8C429-52.5,564.5,83,474.2,173.3L351.7,295.7C310.4,337.1,249.7,329.4,216.2,295.8z M295.8,216.2c23.4,23.4-11.6,58.3-35,35c-18.1-18.1-47.5-18.1-65.6,0L72.8,373.6c-43.4,43.4,22.2,109.1,65.6,65.6l100.5-100.5c23.4-23.4,58.3,11.6,35,35L173.3,474.2C83,564.5-52.5,429,37.8,338.7l122.5-122.5C201.6,174.9,262.3,182.6,295.8,216.2z"/>
</svg>
