<!--
* SPDX-FileCopyrightText: © 2022 Liferay, Inc. <https://liferay.com>
* SPDX-FileCopyrightText: © 2022 Contributors to the project Clay <https://github.com/liferay/clay/graphs/contributors>
*
* SPDX-License-Identifier: BSD-3-Clause
-->
<svg viewBox="0 0 16 16" xmlns="http://www.w3.org/2000/svg"><path class="lexicon-icon-outline" d="M6.715 9.286c-.755-.755.374-1.88 1.13-1.13a1.497 1.497 0 0 0 2.116 0l3.952-3.951c1.4-1.4-.717-3.52-2.117-2.117L8.551 5.334c-.755.755-1.881-.374-1.13-1.13l3.247-3.24c2.913-2.914 7.285 1.458 4.372 4.371l-3.953 3.949c-1.332 1.335-3.29 1.087-4.371.003Zm2.568-2.568c.755.755-.374 1.88-1.13 1.13a1.497 1.497 0 0 0-2.115 0l-3.95 3.948c-1.4 1.4.717 3.52 2.117 2.116l3.242-3.242c.755-.755 1.881.374 1.13 1.13L5.33 15.04c-2.913 2.914-7.285-1.458-4.371-4.37l3.952-3.953c1.332-1.332 3.29-1.084 4.371 0Z"/></svg>