<!--
* SPDX-FileCopyrightText: © 2020 Liferay, Inc. <https://liferay.com>
* SPDX-FileCopyrightText: © 2020 Contributors to the project Clay <https://github.com/liferay/clay/graphs/contributors>
*
* SPDX-License-Identifier: BSD-3-Clause
-->
<svg viewBox="0 0 16 16" xmlns="http://www.w3.org/2000/svg"><path d="M6.715 9.288c-.755-.755.374-1.88 1.13-1.129a1.497 1.497 0 0 0 2.116 0l3.952-3.952c1.4-1.4-.717-3.52-2.117-2.116L8.551 5.336c-.755.755-1.881-.374-1.13-1.129L10.668.965c2.913-2.913 7.285 1.458 4.372 4.371l-3.953 3.95c-1.332 1.335-3.29 1.086-4.371.002ZM9.283 6.72c.755.755-.374 1.881-1.13 1.13a1.497 1.497 0 0 0-2.115 0l-3.95 3.948c-1.4 1.4.717 3.52 2.117 2.117l3.242-3.243c.755-.754 1.881.375 1.13 1.13L5.33 15.044c-2.912 2.913-7.284-1.458-4.37-4.372L4.912 6.72c1.332-1.332 3.29-1.084 4.371 0Z"/></svg>
