<!--
* SPDX-FileCopyrightText: © 2020 Liferay, Inc. <https://liferay.com>
* SPDX-FileCopyrightText: © 2020 Contributors to the project Clay <https://github.com/liferay/clay/graphs/contributors>
*
* SPDX-License-Identifier: BSD-3-Clause
-->
<svg viewBox="0 0 17 16" xmlns="http://www.w3.org/2000/svg">
<path class="lexicon-icon-outline" d="M7.67998 9.28841C6.92505 8.53348 8.05421 7.40755 8.80913 8.15925C9.39307 8.74319 10.3416 8.74319 10.9255 8.15925L14.8775 4.2072C16.2777 2.80704 14.1613 0.687454 12.7612 2.09084L9.51566 5.33636C8.76074 6.09128 7.63481 4.96212 8.38651 4.2072L11.632 0.964904C14.5453 -1.94832 18.9167 2.42313 16.0035 5.33636L12.0514 9.28518C10.719 10.6208 8.76074 10.3724 7.67998 9.28841ZM10.248 6.72038C11.0029 7.4753 9.87377 8.60123 9.11884 7.84954C8.53491 7.2656 7.58642 7.2656 7.00248 7.84954L3.05366 11.7984C1.6535 13.1985 3.76986 15.3181 5.17002 13.9147L8.41231 10.6724C9.16724 9.91751 10.2932 11.0467 9.54147 11.8016L6.29595 15.0439C3.38273 17.9571 -0.988727 13.5857 1.9245 10.6724L5.87655 6.72038C7.20896 5.38798 9.16724 5.63639 10.248 6.72038Z" />
</svg>
