<svg id="list-ol" xmlns="http://www.w3.org/2000/svg" viewBox="0 0 16 16">
	<path class="lexicon-icon-outline list-ol-item-3" d="M15,15H6c-1.3,0-1.4-2,0-2h9C16.4,13,16.3,15,15,15z"/>
	<path class="lexicon-icon-outline list-ol-item-2" d="M15,9H6C4.7,9,4.6,7,6,7h9C16.4,7,16.3,9,15,9z"/>
	<path class="lexicon-icon-outline list-ol-item-1" d="M15,3H6C4.7,3,4.6,1,6,1h9C16.4,1,16.3,3,15,3z"/>
	<path class="lexicon-icon-outline list-ol-bullet-3" d="M0.5,14.8c0.3,0.5,1.8,0.9,1.9-0.2c0-0.8-1.1-0.8-1.3-0.8v-0.6c0.8,0.1,1.5-0.5,1-1.2c-0.4-0.3-1.1-0.1-1.4,0.3l-0.4-0.5c0.2-0.3,1.4-1,2.4-0.3C3,12,3.4,13.1,2.3,13.6c0,0,1.3,0.4,0.8,1.7c-0.6,1.1-2.3,0.9-3,0.1L0.5,14.8z"/>
	<path class="lexicon-icon-outline list-ol-bullet-2" d="M0.2,9.7C0.8,8.9,2.8,7.5,2,6.5C1.4,5.9,0.7,6.6,0.6,6.8L0.2,6.3c0.9-1,2.1-0.7,2.4-0.3c0.5,0.5,0.6,1.2-0.1,2.2c-0.3,0.4-1,1.2-1.3,1.4c0.7,0,1.9,0,1.9,0l0,0.5h-3V9.7z"/>
	<path class="lexicon-icon-outline list-ol-bullet-1" d="M1.3,0.9H0.4V0.4c0.2,0,0.9-0.3,1-0.4h0.6l0,4.5l-0.8,0L1.3,0.9z"/>
</svg>
