<!--
* SPDX-FileCopyrightText: © 2022 Liferay, Inc. <https://liferay.com>
* SPDX-FileCopyrightText: © 2022 Contributors to the project Clay <https://github.com/liferay/clay/graphs/contributors>
*
* SPDX-License-Identifier: BSD-3-Clause
-->
<svg viewBox="0 0 16 16" xmlns="http://www.w3.org/2000/svg"><path class="lexicon-icon-outline" d="M15.592 3.343h-.513V.299c0-.106-.018-.181-.053-.228-.034-.047-.093-.069-.18-.069a.458.458 0 0 0-.104.013 4.242 4.242 0 0 0-.162.037l-.784.21a.493.493 0 0 0-.244.115.242.242 0 0 0-.078.181c0 .1.025.175.072.228a.257.257 0 0 0 .2.082.503.503 0 0 0 .078-.01 2.74 2.74 0 0 0 .134-.028l.353-.09v2.603h-.587c-.144 0-.244.025-.306.078-.063.053-.094.134-.094.253 0 .116.031.197.09.25.06.053.166.078.31.078h1.862c.143 0 .246-.025.309-.078.062-.053.09-.134.09-.25 0-.119-.03-.2-.093-.253-.056-.05-.16-.078-.3-.078Zm.118 5.672c-.109 0-.193.025-.25.075-.056.05-.084.125-.084.225v.018h-1.08l.933-.778c.25-.206.432-.415.55-.625.119-.206.178-.425.178-.656 0-.34-.112-.613-.34-.816-.228-.2-.534-.303-.922-.303-.206 0-.4.025-.578.075-.178.05-.346.125-.506.228a.533.533 0 0 0-.197.197.718.718 0 0 0-.05.297c0 .128.025.225.079.29.053.066.128.098.234.098.119 0 .228-.079.328-.232a.933.933 0 0 1 .09-.128.4.4 0 0 1 .194-.128.81.81 0 0 1 .284-.047c.182 0 .32.044.41.131.09.088.134.222.134.397a.837.837 0 0 1-.1.382 1.473 1.473 0 0 1-.303.38l-1.253 1.17a1.01 1.01 0 0 0-.193.23.471.471 0 0 0-.063.226c0 .09.031.162.097.21a.464.464 0 0 0 .275.074h2.215c.065 0 .112-.012.137-.034.025-.025.04-.081.044-.172l.025-.46v-.037c0-.09-.025-.16-.075-.206a.278.278 0 0 0-.213-.081Zm-.406 4.815c.204-.094.357-.206.45-.34a.834.834 0 0 0 .144-.497.9.9 0 0 0-.316-.72c-.209-.18-.49-.271-.843-.271-.35 0-.647.063-.884.181-.24.122-.36.269-.36.438 0 .078.026.143.073.194a.25.25 0 0 0 .19.075c.072 0 .2-.047.384-.141a1.14 1.14 0 0 1 .503-.14c.14 0 .25.04.328.118.078.078.119.19.119.331 0 .166-.031.285-.097.357-.065.071-.206.125-.425.156-.012 0-.031.003-.056.006-.175.025-.262.116-.262.278 0 .116.021.197.065.244.044.047.128.069.256.072.244.01.41.06.494.144.088.087.128.23.128.43 0 .188-.053.335-.153.435-.103.103-.247.153-.437.153-.16 0-.34-.047-.547-.134-.206-.09-.334-.134-.384-.134a.353.353 0 0 0-.253.09.34.34 0 0 0-.094.244c0 .166.116.306.35.425.234.116.528.175.884.175.44 0 .79-.11 1.046-.328.257-.219.385-.516.385-.894 0-.247-.057-.45-.172-.606-.11-.153-.284-.266-.516-.34ZM.91.99h9.17c1.22 0 1.22 2 0 2H.908c-1.215 0-1.215-2 0-2Zm0 6.012h9.17c1.22 0 1.22 2 0 2H.908c-1.215 0-1.215-2 0-2Zm0 6h9.17c1.22 0 1.22 2 0 2H.908c-1.215 0-1.215-2 0-2Z"/></svg>