<!--
* SPDX-FileCopyrightText: © 2020 Liferay, Inc. <https://liferay.com>
* SPDX-FileCopyrightText: © 2020 Contributors to the project Clay <https://github.com/liferay/clay/graphs/contributors>
*
* SPDX-License-Identifier: BSD-3-Clause
-->
<svg viewBox="0 0 17 16" xmlns="http://www.w3.org/2000/svg">
<path class="lexicon-icon-outline" d="M1.95737 13.0062H11.9636C13.298 13.0062 13.298 15.0044 11.9636 15.0044H1.95737C0.632373 15.0044 0.632373 13.0062 1.95737 13.0062ZM1.95737 9.00975H11.9636C13.298 9.00975 13.298 7.01153 11.9636 7.01153H1.95737C0.632373 7.01153 0.632373 9.00975 1.95737 9.00975ZM1.95737 3.00261H11.9636C13.298 3.00261 13.298 1.00439 11.9636 1.00439H1.95737C0.632373 1.00439 0.632373 3.00261 1.95737 3.00261ZM14.9636 2.00662C14.9636 3.33669 16.9636 3.33669 16.9636 2.00662C16.9636 0.67344 14.9636 0.67344 14.9636 2.00662ZM14.9636 8.01064C14.9636 9.3407 16.9636 9.3407 16.9636 8.01064C16.9636 6.67745 14.9636 6.67745 14.9636 8.01064ZM14.9636 14.0053C14.9636 15.3353 16.9636 15.3353 16.9636 14.0053C16.9636 12.6721 14.9636 12.6721 14.9636 14.0053Z" /><rect class="lexicon-icon-outline"   transform="translate(0.964844 0.00244141)"/>
</svg>
