<!--
* SPDX-FileCopyrightText: © 2020 Liferay, Inc. <https://liferay.com>
* SPDX-FileCopyrightText: © 2020 Contributors to the project Clay <https://github.com/liferay/clay/graphs/contributors>
*
* SPDX-License-Identifier: BSD-3-Clause
-->
<svg viewBox="0 0 17 16" xmlns="http://www.w3.org/2000/svg">
<path class="lexicon-icon-outline" d="M1.96594 0.00244141H3.96594C4.5177 0.00244141 4.96594 0.450439 4.96594 1.00244C4.96594 1.55444 4.5177 2.00244 3.96594 2.00244H1.96594C1.41418 2.00244 0.965942 1.55444 0.965942 1.00244C0.965942 0.450439 1.41418 0.00244141 1.96594 0.00244141Z" />
<path class="lexicon-icon-outline" d="M1.96594 7.00244H3.96594C4.5177 7.00244 4.96594 7.45044 4.96594 8.00244C4.96594 8.55444 4.5177 9.00244 3.96594 9.00244H1.96594C1.41418 9.00244 0.965942 8.55444 0.965942 8.00244C0.965942 7.45044 1.41418 7.00244 1.96594 7.00244Z" />
<path class="lexicon-icon-outline" d="M3.96594 14.0024H1.96594C1.41418 14.0024 0.965942 14.4504 0.965942 15.0024C0.965942 15.5544 1.41418 16.0024 1.96594 16.0024H3.96594C4.5177 16.0024 4.96594 15.5544 4.96594 15.0024C4.96594 14.4504 4.5177 14.0024 3.96594 14.0024Z" />
<path class="lexicon-icon-outline" d="M7.96497 9.00244H15.965C16.5148 9.00244 16.965 8.55243 16.965 8.00244C16.965 7.45245 16.5148 7.00244 15.965 7.00244H7.96497C7.41516 7.00244 6.96497 7.45245 6.96497 8.00244C6.96497 8.55243 7.41516 9.00244 7.96497 9.00244Z" />
<path class="lexicon-icon-outline" d="M15.965 2.00244H7.96497C7.41516 2.00244 6.96497 1.55243 6.96497 1.00244C6.96497 0.452454 7.41516 0.00244141 7.96497 0.00244141H15.965C16.5148 0.00244141 16.965 0.452454 16.965 1.00244C16.965 1.55243 16.5148 2.00244 15.965 2.00244Z" />
<path class="lexicon-icon-outline" d="M7.96497 16.0024H15.965C16.5148 16.0024 16.965 15.5524 16.965 15.0024C16.965 14.4525 16.5148 14.0024 15.965 14.0024H7.96497C7.41516 14.0024 6.96497 14.4525 6.96497 15.0024C6.96497 15.5524 7.41516 16.0024 7.96497 16.0024Z" />
</svg>
