<!--
* SPDX-FileCopyrightText: © 2020 Liferay, Inc. <https://liferay.com>
* SPDX-FileCopyrightText: © 2020 Contributors to the project Clay <https://github.com/liferay/clay/graphs/contributors>
*
* SPDX-License-Identifier: BSD-3-Clause
-->
<svg viewBox="0 0 17 16" xmlns="http://www.w3.org/2000/svg">
<path class="lexicon-icon-outline" d="M3.23054 3.34307H2.71804V0.299316C2.71804 0.193066 2.69929 0.118066 2.66492 0.0711914C2.63054 0.0243164 2.56804 0.00244141 2.48367 0.00244141C2.45554 0.00244141 2.42117 0.00556641 2.38054 0.0149414C2.33679 0.0243164 2.28367 0.0368164 2.21804 0.0524414L1.43679 0.261816C1.32742 0.286816 1.24617 0.324316 1.19304 0.377441C1.13992 0.430566 1.11492 0.486816 1.11492 0.558691C1.11492 0.658691 1.13992 0.733691 1.18679 0.786816C1.23367 0.839941 1.30242 0.868066 1.38679 0.868066C1.40242 0.868066 1.43054 0.864941 1.46492 0.858691C1.49929 0.852441 1.54617 0.843066 1.59929 0.830566L1.95242 0.739941V3.34307H1.36492C1.22117 3.34307 1.12117 3.36807 1.05867 3.42119C0.996167 3.47432 0.964917 3.55557 0.964917 3.67432C0.964917 3.78994 0.996167 3.87119 1.05554 3.92432C1.11492 3.97744 1.22117 4.00244 1.36492 4.00244H3.22742C3.37117 4.00244 3.47429 3.97744 3.53679 3.92432C3.59929 3.87119 3.62742 3.78994 3.62742 3.67432C3.62742 3.55557 3.59617 3.47432 3.53367 3.42119C3.47117 3.37119 3.37117 3.34307 3.23054 3.34307ZM3.47742 9.01494C3.36804 9.01494 3.28367 9.03994 3.22742 9.08994C3.17117 9.13994 3.14304 9.21494 3.14304 9.31494V9.33369H2.06179L2.99617 8.55244C3.24617 8.34619 3.42742 8.13682 3.54617 7.92744C3.66492 7.72119 3.72429 7.50244 3.72429 7.27119C3.72429 6.93057 3.61179 6.65869 3.38367 6.45557C3.15554 6.25557 2.84929 6.15244 2.46179 6.15244C2.25554 6.15244 2.06179 6.17744 1.88367 6.22744C1.70554 6.27744 1.53679 6.35244 1.37742 6.45557C1.27742 6.52119 1.21179 6.58682 1.18054 6.65244C1.14929 6.71807 1.13054 6.81807 1.13054 6.94932C1.13054 7.07744 1.15554 7.17432 1.20867 7.23994C1.26179 7.30557 1.33679 7.33682 1.44304 7.33682C1.56179 7.33682 1.67117 7.25869 1.77117 7.10557C1.80554 7.04932 1.83679 7.00557 1.86179 6.97744C1.90554 6.92119 1.97117 6.87744 2.05554 6.84932C2.13992 6.81807 2.23367 6.80244 2.33992 6.80244C2.52117 6.80244 2.65867 6.84619 2.74929 6.93369C2.83992 7.02119 2.88367 7.15557 2.88367 7.33057C2.88367 7.45557 2.84929 7.58369 2.78367 7.71182C2.71804 7.83682 2.61492 7.96494 2.48054 8.09307L1.22117 9.26182C1.13367 9.34307 1.06804 9.42119 1.02742 9.49307C0.986792 9.56807 0.964917 9.64307 0.964917 9.71807C0.964917 9.80869 0.996167 9.88057 1.06179 9.92744C1.12742 9.97432 1.21804 10.0024 1.33679 10.0024H3.55242C3.61804 10.0024 3.66492 9.98994 3.68992 9.96807C3.71492 9.94307 3.73054 9.88682 3.73367 9.79619L3.75867 9.33682V9.29932C3.75867 9.20869 3.73367 9.13994 3.68367 9.09307C3.63679 9.03994 3.56804 9.01494 3.47742 9.01494ZM2.93992 13.8306C3.14304 13.7368 3.29617 13.6243 3.38992 13.4899C3.48679 13.3556 3.53367 13.1868 3.53367 12.9931C3.53367 12.6931 3.42742 12.4524 3.21804 12.2743C3.00867 12.0931 2.72742 12.0024 2.37429 12.0024C2.02429 12.0024 1.72742 12.0649 1.48992 12.1837C1.25242 12.3024 1.13054 12.4524 1.13054 12.6212C1.13054 12.6993 1.15554 12.7649 1.20242 12.8149C1.24929 12.8649 1.31492 12.8899 1.39304 12.8899C1.46492 12.8899 1.59304 12.8431 1.77742 12.7493C1.96179 12.6556 2.13367 12.6087 2.28054 12.6087C2.42117 12.6087 2.53054 12.6493 2.60867 12.7274C2.68679 12.8056 2.72742 12.9181 2.72742 13.0587C2.72742 13.2243 2.69617 13.3431 2.63054 13.4149C2.56492 13.4868 2.42429 13.5399 2.20554 13.5712C2.19304 13.5712 2.17429 13.5743 2.14929 13.5774C1.97429 13.6024 1.88679 13.6931 1.88679 13.8556C1.88679 13.9712 1.90867 14.0524 1.95242 14.0993C1.99617 14.1462 2.08054 14.1681 2.20867 14.1712C2.45242 14.1806 2.61804 14.2306 2.70242 14.3149C2.78992 14.4024 2.83054 14.5462 2.83054 14.7462C2.83054 14.9337 2.77742 15.0806 2.67742 15.1806C2.57429 15.2837 2.43054 15.3337 2.23992 15.3337C2.08054 15.3337 1.89929 15.2868 1.69304 15.1993C1.48679 15.1087 1.35867 15.0649 1.30867 15.0649C1.20242 15.0649 1.11804 15.0962 1.05554 15.1556C0.993042 15.2212 0.961792 15.3024 0.961792 15.3993C0.961792 15.5649 1.07742 15.7056 1.31179 15.8243C1.54617 15.9399 1.83992 15.9993 2.19617 15.9993C2.63679 15.9993 2.98679 15.8899 3.24304 15.6712C3.49929 15.4524 3.62742 15.1556 3.62742 14.7774C3.62742 14.5306 3.57117 14.3274 3.45554 14.1712C3.34617 14.0181 3.17429 13.9056 2.93992 13.8306ZM6.87742 0.989941H16.0493C17.2712 0.989941 17.2712 2.98994 16.0493 2.98994H6.87742C5.66179 2.98994 5.66179 0.989941 6.87742 0.989941ZM6.87742 7.00244H16.0493C17.2712 7.00244 17.2712 9.00244 16.0493 9.00244H6.87742C5.66179 9.00244 5.66179 7.00244 6.87742 7.00244ZM6.87742 13.0024H16.0493C17.2712 13.0024 17.2712 15.0024 16.0493 15.0024H6.87742C5.66179 15.0024 5.66179 13.0024 6.87742 13.0024Z" />
</svg>
