<!--
* SPDX-FileCopyrightText: © 2022 Liferay, Inc. <https://liferay.com>
* SPDX-FileCopyrightText: © 2022 Contributors to the project Clay <https://github.com/liferay/clay/graphs/contributors>
*
* SPDX-License-Identifier: BSD-3-Clause
-->
<svg viewBox="0 0 16 16" xmlns="http://www.w3.org/2000/svg"><path class="lexicon-icon-outline" d="M2.267 3.343h-.513V.299c0-.106-.019-.181-.053-.228C1.667.024 1.604.002 1.52.002a.458.458 0 0 0-.103.013l-.163.037-.781.21a.494.494 0 0 0-.244.115.242.242 0 0 0-.078.181c0 .1.025.175.072.228a.257.257 0 0 0 .2.082A.503.503 0 0 0 .5.858 1.96 1.96 0 0 0 .635.83L.99.74v2.603H.4c-.144 0-.244.025-.306.078-.063.053-.094.134-.094.253 0 .116.031.197.09.25.06.053.166.078.31.078h1.863c.143 0 .246-.025.309-.078.062-.053.09-.134.09-.25 0-.119-.03-.2-.093-.253-.063-.05-.163-.078-.303-.078Zm.247 5.672c-.11 0-.194.025-.25.075-.057.05-.085.125-.085.225v.018H1.098l.934-.781c.25-.206.432-.416.55-.625.12-.206.178-.425.178-.656 0-.34-.112-.613-.34-.816-.228-.2-.535-.303-.922-.303-.206 0-.4.025-.578.075a1.84 1.84 0 0 0-.506.228.532.532 0 0 0-.197.197.717.717 0 0 0-.05.297c0 .128.025.225.078.29.053.066.128.097.234.097.119 0 .228-.078.328-.23a.94.94 0 0 1 .09-.129.4.4 0 0 1 .195-.128.81.81 0 0 1 .284-.047c.181 0 .319.044.41.131.09.088.134.222.134.397a.837.837 0 0 1-.1.381 1.527 1.527 0 0 1-.303.382L.257 9.26c-.087.082-.153.16-.193.232A.471.471 0 0 0 0 9.718c0 .09.031.162.097.209a.464.464 0 0 0 .275.075h2.216c.065 0 .112-.012.137-.034.025-.025.04-.082.044-.172l.025-.46V9.3c0-.09-.025-.16-.075-.206-.047-.053-.116-.078-.206-.078Zm-.538 4.815c.203-.094.356-.206.45-.34a.833.833 0 0 0 .144-.497.9.9 0 0 0-.316-.72c-.21-.18-.49-.271-.844-.271-.35 0-.646.063-.884.181-.237.119-.36.269-.36.438 0 .078.026.143.073.194a.25.25 0 0 0 .19.075c.072 0 .2-.047.385-.141a1.14 1.14 0 0 1 .503-.14c.14 0 .25.04.328.118.078.078.119.19.119.331 0 .166-.032.285-.097.357-.066.071-.207.125-.425.156-.013 0-.032.003-.057.006-.175.025-.262.116-.262.278 0 .116.022.197.066.244.043.047.128.069.256.072.244.01.41.06.494.144.087.087.128.23.128.43 0 .188-.053.335-.153.435-.104.103-.247.153-.438.153-.16 0-.34-.047-.547-.134-.206-.09-.334-.134-.384-.134a.354.354 0 0 0-.253.09.34.34 0 0 0-.094.244c0 .166.116.306.35.425.234.116.528.175.884.175.44 0 .79-.11 1.047-.328.256-.219.385-.516.385-.894 0-.247-.057-.45-.172-.606-.11-.153-.282-.266-.516-.34ZM5.914.99h9.171c1.222 0 1.222 2 0 2H5.914c-1.216 0-1.216-2 0-2Zm0 6.012h9.171c1.222 0 1.222 2 0 2H5.914c-1.216 0-1.216-2 0-2Zm0 6h9.171c1.222 0 1.222 2 0 2H5.914c-1.216 0-1.216-2 0-2Z"/></svg>