<!--
* SPDX-FileCopyrightText: © 2020 Liferay, Inc. <https://liferay.com>
* SPDX-FileCopyrightText: © 2020 Contributors to the project Clay <https://github.com/liferay/clay/graphs/contributors>
*
* SPDX-License-Identifier: BSD-3-Clause
-->
<svg viewBox="0 0 17 16" xmlns="http://www.w3.org/2000/svg">
<path class="lexicon-icon-outline" d="M5.95664 13.0062H15.9629C17.2973 13.0062 17.2973 15.0044 15.9629 15.0044H5.95664C4.63164 15.0044 4.63164 13.0062 5.95664 13.0062ZM5.95664 9.00975H15.9629C17.2973 9.00975 17.2973 7.01153 15.9629 7.01153H5.95664C4.63164 7.01153 4.63164 9.00975 5.95664 9.00975ZM5.95664 3.00261H15.9629C17.2973 3.00261 17.2973 1.00439 15.9629 1.00439H5.95664C4.63164 1.00439 4.63164 3.00261 5.95664 3.00261ZM0.962891 2.00662C0.962891 3.33669 2.96289 3.33669 2.96289 2.00662C2.96289 0.67344 0.962891 0.67344 0.962891 2.00662ZM0.962891 8.01064C0.962891 9.3407 2.96289 9.3407 2.96289 8.01064C2.96289 6.67745 0.962891 6.67745 0.962891 8.01064ZM0.962891 14.0053C0.962891 15.3353 2.96289 15.3353 2.96289 14.0053C2.96289 12.6721 0.962891 12.6721 0.962891 14.0053Z" />
</svg>
