<!--
* SPDX-FileCopyrightText: © 2022 Liferay, Inc. <https://liferay.com>
* SPDX-FileCopyrightText: © 2022 Contributors to the project Clay <https://github.com/liferay/clay/graphs/contributors>
*
* SPDX-License-Identifier: BSD-3-Clause
-->
<svg viewBox="0 0 16 16" xmlns="http://www.w3.org/2000/svg"><path class="lexicon-icon-outline" d="M.993 13.004h10.006c1.334 0 1.334 1.998 0 1.998H.993c-1.325 0-1.325-1.998 0-1.998Zm0-3.997h10.006c1.334 0 1.334-1.998 0-1.998H.993c-1.325 0-1.325 1.998 0 1.998ZM.993 3h10.006c1.334 0 1.334-1.998 0-1.998H.993C-.332 1.002-.332 3 .993 3Zm13.006-.996c0 1.33 2 1.33 2 0 0-1.333-2-1.333-2 0Zm0 6.004c0 1.33 2 1.33 2 0 0-1.333-2-1.333-2 0Zm0 5.995c0 1.33 2 1.33 2 0 0-1.333-2-1.333-2 0Z"/></svg>