<!--
* SPDX-FileCopyrightText: © 2020 Liferay, Inc. <https://liferay.com>
* SPDX-FileCopyrightText: © 2020 Contributors to the project Clay <https://github.com/liferay/clay/graphs/contributors>
*
* SPDX-License-Identifier: BSD-3-Clause
-->
<svg viewBox="0 0 16 16" xmlns="http://www.w3.org/2000/svg"><path d="M2.266 3.343h-.513V.299c0-.106-.019-.181-.053-.228-.034-.047-.097-.069-.181-.069a.458.458 0 0 0-.103.013l-.163.037-.781.21a.494.494 0 0 0-.244.115A.242.242 0 0 0 .15.56c0 .1.025.175.072.228a.257.257 0 0 0 .2.08A.503.503 0 0 0 .5.86C.534.852.581.843.634.83L.987.74v2.603H.4c-.144 0-.244.025-.306.078C.03 3.474 0 3.555 0 3.674c0 .116.031.197.09.25.06.053.166.078.31.078h1.862c.144 0 .247-.025.31-.078.062-.053.09-.134.09-.25 0-.119-.03-.2-.093-.253-.063-.05-.163-.078-.303-.078Zm.246 5.672c-.109 0-.193.025-.25.075-.056.05-.084.125-.084.225v.019H1.097l.934-.782c.25-.206.431-.415.55-.625.119-.206.178-.425.178-.656 0-.34-.112-.612-.34-.816-.228-.2-.535-.303-.922-.303-.206 0-.4.025-.578.075a1.86 1.86 0 0 0-.507.228.532.532 0 0 0-.196.197.716.716 0 0 0-.05.297c0 .128.025.225.078.29.053.066.128.098.234.098.119 0 .228-.078.328-.232a.94.94 0 0 1 .09-.128.4.4 0 0 1 .195-.128.81.81 0 0 1 .284-.047c.181 0 .319.044.41.132.09.087.134.221.134.396a.837.837 0 0 1-.1.382 1.527 1.527 0 0 1-.303.38l-1.26 1.17c-.087.08-.153.16-.194.23A.471.471 0 0 0 0 9.719c0 .09.031.162.097.21a.464.464 0 0 0 .275.074h2.215c.066 0 .113-.012.138-.034.025-.025.04-.081.044-.172l.025-.46V9.3c0-.09-.025-.16-.075-.206-.047-.053-.116-.078-.207-.078Zm-.537 4.815c.203-.093.356-.206.45-.34a.833.833 0 0 0 .144-.497c0-.3-.107-.54-.316-.719-.21-.181-.49-.272-.844-.272-.35 0-.647.063-.884.182-.238.118-.36.268-.36.437a.28.28 0 0 0 .072.194c.047.05.113.075.191.075.072 0 .2-.047.384-.14a1.14 1.14 0 0 1 .504-.141c.14 0 .25.04.328.118.078.078.118.19.118.332 0 .165-.03.284-.096.356-.066.072-.207.125-.425.156-.013 0-.032.003-.057.006-.175.025-.262.116-.262.278 0 .116.022.197.065.244.044.047.129.069.257.072.243.01.41.06.493.144.088.087.129.231.129.431 0 .188-.054.334-.154.434-.103.104-.246.154-.437.154-.16 0-.34-.047-.547-.135-.206-.09-.334-.134-.384-.134a.354.354 0 0 0-.253.09.34.34 0 0 0-.094.244c0 .166.115.306.35.425.234.116.528.175.884.175.44 0 .79-.11 1.047-.328.256-.219.384-.516.384-.894 0-.247-.056-.45-.171-.606-.11-.153-.282-.266-.516-.34ZM5.912.99h9.172c1.222 0 1.222 2 0 2H5.912c-1.215 0-1.215-2 0-2Zm0 6.012h9.172c1.222 0 1.222 2 0 2H5.912c-1.215 0-1.215-2 0-2Zm0 6h9.172c1.222 0 1.222 2 0 2H5.912c-1.215 0-1.215-2 0-2Z"/></svg>
