<!--
* SPDX-FileCopyrightText: © 2020 Liferay, Inc. <https://liferay.com>
* SPDX-FileCopyrightText: © 2020 Contributors to the project Clay <https://github.com/liferay/clay/graphs/contributors>
*
* SPDX-License-Identifier: BSD-3-Clause
-->
<svg viewBox="0 0 16 16" xmlns="http://www.w3.org/2000/svg"><path d="M1.001.002h2a1 1 0 0 1 0 2h-2a1 1 0 0 1 0-2Zm0 7h2a1 1 0 0 1 0 2h-2a1 1 0 0 1 0-2Zm2 7h-2a1 1 0 0 0 0 2h2a1 1 0 0 0 0-2Zm3.999-5h8c.55 0 1-.45 1-1s-.45-1-1-1H7c-.55 0-1 .45-1 1s.45 1 1 1Zm8-7H7c-.55 0-1-.45-1-1s.45-1 1-1h8c.55 0 1 .45 1 1s-.45 1-1 1Zm-8 14h8c.55 0 1-.45 1-1s-.45-1-1-1H7c-.55 0-1 .45-1 1s.45 1 1 1Z"/></svg>
