<!--
* SPDX-FileCopyrightText: © 2020 Liferay, Inc. <https://liferay.com>
* SPDX-FileCopyrightText: © 2020 Contributors to the project Clay <https://github.com/liferay/clay/graphs/contributors>
*
* SPDX-License-Identifier: BSD-3-Clause
-->
<svg viewBox="0 0 16 16" xmlns="http://www.w3.org/2000/svg"><path d="M15.592 3.345h-.512V.301a.4.4 0 0 0-.053-.228c-.035-.047-.094-.069-.182-.069a.458.458 0 0 0-.103.013l-.162.037-.784.21a.493.493 0 0 0-.244.115.242.242 0 0 0-.078.182c0 .1.025.175.072.228a.256.256 0 0 0 .2.081.503.503 0 0 0 .078-.01c.034-.006.081-.015.134-.027l.353-.091v2.603h-.587c-.144 0-.244.025-.306.078-.063.053-.094.135-.094.253 0 .116.031.197.09.25.06.053.166.078.31.078h1.862c.143 0 .246-.025.309-.078.062-.053.09-.134.09-.25 0-.118-.03-.2-.093-.253-.056-.05-.16-.078-.3-.078Zm.119 5.672c-.11 0-.194.025-.25.075-.056.05-.085.125-.085.225v.019h-1.08l.934-.778c.25-.207.43-.416.55-.625.118-.207.177-.425.177-.657 0-.34-.112-.612-.34-.815-.228-.2-.534-.303-.922-.303-.206 0-.4.025-.578.075a1.84 1.84 0 0 0-.506.228.531.531 0 0 0-.196.197.716.716 0 0 0-.05.296c0 .129.025.225.078.291.053.066.128.097.234.097.119 0 .228-.078.328-.231a.933.933 0 0 1 .09-.128c.044-.057.11-.1.194-.129a.809.809 0 0 1 .284-.046c.182 0 .32.043.41.13.09.088.134.223.134.398a.837.837 0 0 1-.1.38 1.473 1.473 0 0 1-.303.382l-1.253 1.169a1.01 1.01 0 0 0-.193.231.471.471 0 0 0-.063.225c0 .09.031.163.097.21a.464.464 0 0 0 .275.075h2.215c.066 0 .112-.013.137-.035.025-.025.04-.081.044-.172l.025-.46v-.037c0-.09-.025-.159-.075-.206a.278.278 0 0 0-.212-.081Zm-.406 4.816c.203-.094.356-.207.45-.341a.834.834 0 0 0 .143-.497.9.9 0 0 0-.315-.719c-.21-.181-.49-.272-.844-.272-.35 0-.647.063-.884.182-.24.121-.36.268-.36.437 0 .078.026.144.073.194a.25.25 0 0 0 .19.075c.072 0 .2-.047.384-.14a1.14 1.14 0 0 1 .503-.141c.141 0 .25.04.328.118.079.079.12.191.12.332 0 .165-.032.284-.098.356-.065.072-.206.125-.425.156-.012 0-.03.003-.056.006-.175.025-.262.116-.262.278 0 .116.022.197.065.244.044.047.128.069.256.072.244.01.41.06.494.144.088.087.128.231.128.431 0 .188-.053.335-.153.434-.103.104-.247.154-.437.154-.16 0-.34-.047-.547-.135-.206-.09-.334-.134-.384-.134a.353.353 0 0 0-.253.09.34.34 0 0 0-.094.244c0 .166.116.306.35.425.234.116.528.175.884.175.44 0 .79-.11 1.047-.328.256-.219.384-.515.384-.894 0-.246-.056-.45-.172-.606-.11-.153-.284-.265-.515-.34ZM.909.992h9.17c1.22 0 1.22 2 0 2H.908c-1.215 0-1.215-2 0-2Zm0 6.012h9.17c1.22 0 1.22 2 0 2H.908c-1.215 0-1.215-2 0-2Zm0 6h9.17c1.22 0 1.22 2 0 2H.908c-1.215 0-1.215-2 0-2Z"/></svg>
