<!--
* SPDX-FileCopyrightText: © 2020 Liferay, Inc. <https://liferay.com>
* SPDX-FileCopyrightText: © 2020 Contributors to the project Clay <https://github.com/liferay/clay/graphs/contributors>
*
* SPDX-License-Identifier: BSD-3-Clause
-->
<svg viewBox="0 0 17 16" xmlns="http://www.w3.org/2000/svg">
<path class="lexicon-icon-outline" d="M16.5569 3.34502H16.0446V0.30127C16.0446 0.19502 16.0258 0.12002 15.9915 0.0731445C15.9571 0.0262695 15.8978 0.00439453 15.8103 0.00439453C15.7822 0.00439453 15.7478 0.00751953 15.7072 0.0168945C15.6635 0.0262695 15.6104 0.0387695 15.5447 0.0543945L14.7606 0.26377C14.6513 0.28877 14.5701 0.32627 14.517 0.379395C14.4639 0.43252 14.4389 0.48877 14.4389 0.560645C14.4389 0.660645 14.4639 0.735645 14.5107 0.78877C14.5576 0.841895 14.6263 0.87002 14.7107 0.87002C14.7263 0.87002 14.7544 0.866895 14.7888 0.860645C14.8231 0.854394 14.87 0.84502 14.9231 0.83252L15.2761 0.741895V3.34502H14.6888C14.5451 3.34502 14.4451 3.37002 14.3826 3.42314C14.3202 3.47627 14.2889 3.55752 14.2889 3.67627C14.2889 3.79189 14.3202 3.87314 14.3795 3.92627C14.4389 3.97939 14.5451 4.00439 14.6888 4.00439H16.5507C16.6944 4.00439 16.7974 3.97939 16.8599 3.92627C16.9224 3.87314 16.9505 3.79189 16.9505 3.67627C16.9505 3.55752 16.9193 3.47627 16.8568 3.42314C16.8006 3.37314 16.6975 3.34502 16.5569 3.34502ZM16.6756 9.01689C16.5663 9.01689 16.4819 9.04189 16.4257 9.09189C16.3695 9.14189 16.3414 9.21689 16.3414 9.31689V9.33564H15.2605L16.1945 8.55752C16.4444 8.35127 16.6256 8.14189 16.7443 7.93252C16.863 7.72627 16.9224 7.50752 16.9224 7.27627C16.9224 6.93564 16.8099 6.66377 16.5819 6.46064C16.3538 6.26064 16.0477 6.15752 15.6603 6.15752C15.4542 6.15752 15.2605 6.18252 15.0824 6.23252C14.9043 6.28252 14.7356 6.35752 14.5763 6.46064C14.4764 6.52627 14.4108 6.59189 14.3795 6.65752C14.3483 6.72314 14.3295 6.82314 14.3295 6.95439C14.3295 7.08252 14.3545 7.17939 14.4076 7.24502C14.4607 7.31064 14.5357 7.34189 14.6419 7.34189C14.7606 7.34189 14.87 7.26377 14.9699 7.11064C15.0043 7.05439 15.0355 7.01064 15.0605 6.98252C15.1043 6.92627 15.1699 6.88252 15.2542 6.85439C15.3386 6.82314 15.4323 6.80752 15.5385 6.80752C15.7197 6.80752 15.8571 6.85127 15.9477 6.93877C16.0383 7.02627 16.0821 7.16064 16.0821 7.33564C16.0821 7.46064 16.0477 7.58877 15.9821 7.71689C15.9165 7.84502 15.8134 7.97002 15.6791 8.09814L14.4264 9.26689C14.3389 9.34814 14.2733 9.42627 14.2327 9.49814C14.1921 9.57314 14.1702 9.64814 14.1702 9.72314C14.1702 9.81377 14.2015 9.88564 14.2671 9.93252C14.3327 9.97939 14.4233 10.0075 14.542 10.0075H16.7568C16.8224 10.0075 16.8693 9.99502 16.8943 9.97314C16.9193 9.94814 16.9349 9.89189 16.938 9.80127L16.963 9.34189V9.30439C16.963 9.21377 16.938 9.14502 16.888 9.09814C16.8349 9.04189 16.7631 9.01689 16.6756 9.01689ZM16.2695 13.8325C16.4726 13.7388 16.6256 13.6263 16.7193 13.4919C16.8162 13.3575 16.863 13.1888 16.863 12.995C16.863 12.695 16.7568 12.4544 16.5475 12.2763C16.3382 12.095 16.0571 12.0044 15.7041 12.0044C15.3542 12.0044 15.0574 12.0669 14.82 12.1856C14.5795 12.3075 14.4607 12.4544 14.4607 12.6231C14.4607 12.7013 14.4857 12.7669 14.5326 12.8169C14.5795 12.8669 14.6451 12.8919 14.7232 12.8919C14.795 12.8919 14.9231 12.845 15.1074 12.7513C15.2917 12.6575 15.4635 12.6106 15.6104 12.6106C15.7509 12.6106 15.8603 12.6513 15.9384 12.7294C16.0165 12.8075 16.0571 12.92 16.0571 13.0606C16.0571 13.2263 16.0258 13.345 15.9602 13.4169C15.8946 13.4888 15.7541 13.5419 15.5354 13.5731C15.5229 13.5731 15.5041 13.5763 15.4791 13.5794C15.3042 13.6044 15.2167 13.695 15.2167 13.8575C15.2167 13.9731 15.2386 14.0544 15.2823 14.1013C15.3261 14.1481 15.4104 14.17 15.5385 14.1731C15.7822 14.1825 15.9477 14.2325 16.0321 14.3169C16.1196 14.4044 16.1602 14.5481 16.1602 14.7481C16.1602 14.9356 16.1071 15.0825 16.0071 15.1825C15.904 15.2856 15.7603 15.3356 15.5697 15.3356C15.4104 15.3356 15.2292 15.2888 15.0231 15.2013C14.8169 15.1106 14.6888 15.0669 14.6388 15.0669C14.5326 15.0669 14.4482 15.0981 14.3858 15.1575C14.3233 15.2231 14.2921 15.3044 14.2921 15.4013C14.2921 15.5669 14.4076 15.7075 14.6419 15.8263C14.8762 15.9419 15.1699 16.0013 15.526 16.0013C15.9665 16.0013 16.3164 15.8919 16.5725 15.6731C16.8287 15.4544 16.9568 15.1575 16.9568 14.7794C16.9568 14.5325 16.9005 14.3294 16.7849 14.1731C16.6756 14.02 16.5007 13.9075 16.2695 13.8325ZM1.87442 0.991895H11.0432C12.2646 0.991895 12.2646 2.99189 11.0432 2.99189H1.87442C0.65921 2.99189 0.65921 0.991895 1.87442 0.991895ZM1.87442 7.00439H11.0432C12.2646 7.00439 12.2646 9.00439 11.0432 9.00439H1.87442C0.65921 9.00439 0.65921 7.00439 1.87442 7.00439ZM1.87442 13.0044H11.0432C12.2646 13.0044 12.2646 15.0044 11.0432 15.0044H1.87442C0.65921 15.0044 0.65921 13.0044 1.87442 13.0044Z" /><rect class="lexicon-icon-outline"   transform="translate(0.964966 0.00244141)"/>
</svg>
