<!--
* SPDX-FileCopyrightText: © 2020 Liferay, Inc. <https://liferay.com>
* SPDX-FileCopyrightText: © 2020 Contributors to the project Clay <https://github.com/liferay/clay/graphs/contributors>
*
* SPDX-License-Identifier: BSD-3-Clause
-->
<svg viewBox="0 0 17 16" xmlns="http://www.w3.org/2000/svg">
<path class="lexicon-icon-outline" d="M16.9648 1.50452C16.9648 2.33289 16.293 3.00452 15.4648 3.00452C14.6367 3.00452 13.9648 2.33289 13.9648 1.50452C13.9648 0.676147 14.6367 0.0045166 15.4648 0.0045166C16.293 0.0045166 16.9648 0.676147 16.9648 1.50452Z" />
<path class="lexicon-icon-outline" d="M16.9648 7.50452C16.9648 8.33289 16.293 9.00452 15.4648 9.00452C14.6367 9.00452 13.9648 8.33289 13.9648 7.50452C13.9648 6.67615 14.6367 6.00452 15.4648 6.00452C16.293 6.00452 16.9648 6.67615 16.9648 7.50452Z" />
<path class="lexicon-icon-outline" d="M16.9648 13.5045C16.9648 14.3329 16.293 15.0045 15.4648 15.0045C14.6367 15.0045 13.9648 14.3329 13.9648 13.5045C13.9648 12.6761 14.6367 12.0045 15.4648 12.0045C16.293 12.0045 16.9648 12.6761 16.9648 13.5045Z" />
<path class="lexicon-icon-outline" d="M12.9648 3.00452L9.96484 6.00452V5.00452L11.9648 3.00452H12.9648Z" />
<path class="lexicon-icon-outline" fill-rule="evenodd" clip-rule="evenodd" d="M5.96484 7.00452H12.9648V8.00452H10.9805L10.9648 9.67017L12.9648 11.0045V12.0045L10.9648 10.6702V13.4045C10.9648 14.2858 10.2461 15.0045 9.36523 15.0045H2.36523C1.4834 15.0045 0.964844 14.2858 0.964844 13.4045V8.60449C0.964844 7.86644 1.32858 7.24236 1.96484 7.05905V5.00244C1.96484 2.7933 3.7557 1.00244 5.96484 1.00244C7.01035 1.00244 7.96217 1.40355 8.6748 2.06029C8.91736 2.24275 9.07422 2.53302 9.07422 2.85992C9.07422 3.4122 8.6265 3.85992 8.07422 3.85992C7.78331 3.85992 7.60769 3.74229 7.37906 3.58823C7.01713 3.2263 6.51713 3.00244 5.96484 3.00244C4.86027 3.00244 3.96484 3.89787 3.96484 5.00244V7.00244H5.96484V7.00452ZM6.96484 10.0045V13.0045H4.96484V10.0045H6.96484Z" />
</svg>
