<!--
* SPDX-FileCopyrightText: © 2022 Liferay, Inc. <https://liferay.com>
* SPDX-FileCopyrightText: © 2022 Contributors to the project Clay <https://github.com/liferay/clay/graphs/contributors>
*
* SPDX-License-Identifier: BSD-3-Clause
-->
<svg viewBox="0 0 16 16" xmlns="http://www.w3.org/2000/svg"><path class="lexicon-icon-outline" fill-rule="evenodd" clip-rule="evenodd" d="M4 5a4 4 0 1 1 8 0v2c0 .039-.001.077-.003.115A1.604 1.604 0 0 1 13 8.599v4.803c0 .881-.719 1.6-1.6 1.6h-7c-.881 0-1.4-.719-1.4-1.6V8.6c0-.738.364-1.362 1-1.546V5Zm2 2h4V5a2 2 0 1 0-4 0v2Zm3 3v3.002H7V10h2Z"/></svg>