<!--
* SPDX-FileCopyrightText: © 2020 Liferay, Inc. <https://liferay.com>
* SPDX-FileCopyrightText: © 2020 Contributors to the project Clay <https://github.com/liferay/clay/graphs/contributors>
*
* SPDX-License-Identifier: BSD-3-Clause
-->
<svg viewBox="0 0 16 16" xmlns="http://www.w3.org/2000/svg"><path class="lexicon-icon-outline" fill-rule="evenodd" clip-rule="evenodd" d="M4 5.002a4 4 0 1 1 8 0v2c0 .039-.001.077-.003.115A1.604 1.604 0 0 1 13 8.601v4.803c0 .882-.719 1.6-1.6 1.6h-7c-.881 0-1.4-.718-1.4-1.6V8.601c0-.738.364-1.362 1-1.545V5.002Zm2 2h4v-2a2 2 0 1 0-4 0v2Zm3 3v3.002H7v-3.002h2Z"/></svg>