<!--
* SPDX-FileCopyrightText: © 2020 Liferay, Inc. <https://liferay.com>
* SPDX-FileCopyrightText: © 2020 Contributors to the project Clay <https://github.com/liferay/clay/graphs/contributors>
*
* SPDX-License-Identifier: BSD-3-Clause
-->
<svg viewBox="0 0 17 16" xmlns="http://www.w3.org/2000/svg">
<path class="lexicon-icon-outline" fill-rule="evenodd" clip-rule="evenodd" d="M5.95347 3.00244C6.5045 3.00244 7.00337 3.2263 7.36447 3.58823C7.59258 3.74229 7.7678 3.85992 8.05805 3.85992C8.60908 3.85992 9.05578 3.4122 9.05578 2.85992C9.05578 2.53302 8.89928 2.24275 8.65727 2.06029C7.94625 1.40355 6.9966 1.00244 5.95347 1.00244C3.74936 1.00244 1.96257 2.7933 1.96257 5.00244V7.05986C1.32776 7.24301 0.964844 7.86657 0.964844 8.604V13.4028C0.964844 14.2833 1.48222 15.0045 2.36205 15.0045H9.35198C10.2318 15.0045 10.9489 14.2864 10.9489 13.4028V8.604C10.9518 7.72351 10.2347 7.00537 9.35587 7.00537H5.95347V7.00244H3.96094C3.96093 6.84286 3.95994 6.68633 3.95802 6.53304V5.00244C3.95802 3.89787 4.85142 3.00244 5.95347 3.00244ZM6.95705 13.0063H4.95867V10.0059H6.95705V13.0063Z" />
<path class="lexicon-icon-outline" d="M14.7279 13.8312C14.4295 14.1623 13.9165 14.1384 13.6153 13.8099C13.3141 13.4814 13.3397 12.9731 13.631 12.6358C14.1072 12.0844 14.4965 11.4612 14.784 10.7877C15.1773 9.86604 15.3708 8.87111 15.3517 7.86884C15.3325 6.86656 15.1011 5.87981 14.6727 4.97392C14.3597 4.31197 13.9468 3.70424 13.4499 3.17152C13.1459 2.84564 13.1009 2.33871 13.3893 1.99889C13.6777 1.65908 14.1894 1.61546 14.5002 1.9348C15.1675 2.6204 15.7185 3.4132 16.1293 4.28205C16.6554 5.39474 16.9397 6.60677 16.9632 7.83786C16.9868 9.06895 16.7491 10.291 16.266 11.4231C15.8887 12.3071 15.3684 13.1205 14.7279 13.8312Z" />
<path class="lexicon-icon-outline" d="M12.7821 11.9256C12.5426 12.2011 12.1219 12.1813 11.8752 11.9122C11.6285 11.6432 11.6505 11.2273 11.8812 10.9444C12.1557 10.6078 12.3823 10.2333 12.5538 9.83161C12.812 9.22656 12.939 8.57342 12.9265 7.91545C12.9139 7.25749 12.7619 6.60971 12.4808 6.01502C12.2941 5.62019 12.0532 5.25475 11.7661 4.92893C11.5247 4.6551 11.4869 4.24031 11.7231 3.96201C11.9593 3.68371 12.379 3.64771 12.6288 3.91377C13.0539 4.36653 13.4069 4.8841 13.6737 5.4484C14.0349 6.21246 14.2301 7.04472 14.2463 7.89008C14.2625 8.73544 14.0993 9.5746 13.7675 10.352C13.5225 10.9261 13.1896 11.4569 12.7821 11.9256Z" />
</svg>
