<!--
* SPDX-FileCopyrightText: © 2020 Liferay, Inc. <https://liferay.com>
* SPDX-FileCopyrightText: © 2020 Contributors to the project Clay <https://github.com/liferay/clay/graphs/contributors>
*
* SPDX-License-Identifier: BSD-3-Clause
-->
<svg viewBox="0 0 16 16" xmlns="http://www.w3.org/2000/svg"><path d="M16 1.504a1.5 1.5 0 1 1-3 0 1.5 1.5 0 0 1 3 0Zm0 6a1.5 1.5 0 1 1-3 0 1.5 1.5 0 0 1 3 0Zm0 6a1.5 1.5 0 1 1-3 0 1.5 1.5 0 0 1 3 0Zm-4-10.5-3 3v-1l2-2h1Z"/><path fill-rule="evenodd" clip-rule="evenodd" d="M5 7.004h7v1h-1.984L10 9.67l2 1.334v1l-2-1.334v2.734c0 .882-.719 1.6-1.6 1.6h-7c-.881 0-1.4-.718-1.4-1.6v-4.8c0-.738.364-1.362 1-1.545V5.002A4 4 0 0 1 7.71 2.06a.998.998 0 0 1-.6 1.8c-.292 0-.467-.118-.696-.272A2 2 0 0 0 3 5.002v2h2v.002Zm1 3v3H4v-3h2Z"/></svg>
