<!--
* SPDX-FileCopyrightText: © 2020 Liferay, Inc. <https://liferay.com>
* SPDX-FileCopyrightText: © 2020 Contributors to the project Clay <https://github.com/liferay/clay/graphs/contributors>
*
* SPDX-License-Identifier: BSD-3-Clause
-->
<svg viewBox="0 0 16 16" xmlns="http://www.w3.org/2000/svg"><path fill-rule="evenodd" clip-rule="evenodd" d="M4.989 3.002c.55 0 1.05.224 1.41.586.229.154.404.272.694.272a.999.999 0 0 0 .6-1.8 3.972 3.972 0 0 0-2.704-1.058 3.995 3.995 0 0 0-3.991 4V7.06C.363 7.243 0 7.866 0 8.604v4.799c0 .88.517 1.601 1.397 1.601h6.99c.88 0 1.597-.718 1.597-1.601v-4.8a1.596 1.596 0 0 0-1.593-1.598H4.989v-.003H2.996c0-.16 0-.316-.003-.47v-1.53c0-1.104.894-2 1.996-2Zm1.003 10.004H3.994v-3h1.998v3Z"/><path d="M13.763 13.831c-.298.331-.811.307-1.113-.021-.3-.329-.275-.837.016-1.174a7.08 7.08 0 0 0 1.72-4.767 7.09 7.09 0 0 0-1.901-4.698c-.304-.325-.349-.832-.06-1.172.288-.34.8-.384 1.11-.064a8.692 8.692 0 0 1 2.463 5.903 8.708 8.708 0 0 1-2.235 5.993Z"/><path d="M11.817 11.925c-.24.276-.66.256-.907-.013-.246-.269-.224-.685.006-.968a4.645 4.645 0 0 0 1.046-3.029 4.654 4.654 0 0 0-1.16-2.986c-.242-.274-.28-.689-.044-.967.236-.278.656-.314.906-.048A5.968 5.968 0 0 1 13.28 7.89a5.983 5.983 0 0 1-1.464 4.035Z"/></svg>
