<!--
* SPDX-FileCopyrightText: © 2020 Liferay, Inc. <https://liferay.com>
* SPDX-FileCopyrightText: © 2020 Contributors to the project Clay <https://github.com/liferay/clay/graphs/contributors>
*
* SPDX-License-Identifier: BSD-3-Clause
-->
<svg viewBox="0 0 17 16" xmlns="http://www.w3.org/2000/svg">
<path class="lexicon-icon-outline" fill-rule="evenodd" clip-rule="evenodd" d="M4.96484 5.00244C4.96484 2.7933 6.7557 1.00244 8.96484 1.00244C11.174 1.00244 12.9648 2.7933 12.9648 5.00244V7.00244C12.9648 7.04097 12.9638 7.07924 12.9616 7.11723C13.5487 7.35454 13.9648 7.93101 13.9648 8.60155V13.4045C13.9648 14.2858 13.2461 15.0045 12.3652 15.0045H5.36523C4.4834 15.0045 3.96484 14.2858 3.96484 13.4045V8.60155C3.96484 7.86323 4.32885 7.23896 4.96554 7.05591C4.96508 7.03814 4.96484 7.02032 4.96484 7.00244V5.00244ZM6.96484 7.0017H10.9648V5.00244C10.9648 3.89787 10.0694 3.00244 8.96484 3.00244C7.86027 3.00244 6.96484 3.89787 6.96484 5.00244V7.0017ZM9.96484 10.0016V13.0046H7.96484V10.0016H9.96484Z" />
</svg>
