<!--
* SPDX-FileCopyrightText: © 2022 Liferay, Inc. <https://liferay.com>
* SPDX-FileCopyrightText: © 2022 Contributors to the project Clay <https://github.com/liferay/clay/graphs/contributors>
*
* SPDX-License-Identifier: BSD-3-Clause
-->
<svg viewBox="0 0 16 16" xmlns="http://www.w3.org/2000/svg"><path class="lexicon-icon-outline" fill-rule="evenodd" clip-rule="evenodd" d="M6.414 3.586A2 2 0 0 0 3 5v1.53c.002.154.003.31.003.47H5v.003h3.41c.881 0 1.6.718 1.597 1.599V13.4c0 .884-.719 1.602-1.6 1.602H1.4c-.881 0-1.4-.721-1.4-1.602V8.602c0-.738.364-1.361 1-1.545V5a4 4 0 0 1 6.71-2.942.998.998 0 0 1-.6 1.8c-.292 0-.467-.118-.696-.272Zm-2.411 9.418h2.003v-3H4.003v3Z"/><path class="lexicon-icon-outline" d="M10.935 11.91c.247.269.67.289.91.013a5.97 5.97 0 0 0-.155-8.012c-.25-.266-.67-.23-.907.049-.237.278-.199.693.043.966a4.645 4.645 0 0 1 .115 6.016c-.231.283-.253.699-.006.968Z"/><path class="lexicon-icon-outline" d="M12.68 13.807c.301.329.815.353 1.114.022a8.691 8.691 0 0 0-.228-11.897c-.311-.319-.824-.275-1.113.064-.29.34-.244.847.06 1.173a7.076 7.076 0 0 1 .182 9.464c-.292.338-.318.846-.016 1.174Z"/></svg>