<!--
* SPDX-FileCopyrightText: © 2022 Liferay, Inc. <https://liferay.com>
* SPDX-FileCopyrightText: © 2022 Contributors to the project Clay <https://github.com/liferay/clay/graphs/contributors>
*
* SPDX-License-Identifier: BSD-3-Clause
-->
<svg viewBox="0 0 16 16" xmlns="http://www.w3.org/2000/svg"><path class="lexicon-icon-outline" d="M9.496 7.438c0 .584-.477 1.062-1.061 1.062a1.065 1.065 0 0 1-1.063-1.062V1.064C7.372.48 7.85.002 8.435.002c.584 0 1.061.478 1.061 1.062v6.374Z"/><path class="lexicon-icon-outline" d="M13.392 3.008a7.396 7.396 0 0 1 1.81 2.455c.444.972.668 2.01.668 3.087a7.378 7.378 0 0 1-.585 2.895 7.399 7.399 0 0 1-1.592 2.363 7.41 7.41 0 0 1-5.258 2.178 7.41 7.41 0 0 1-5.258-2.178 7.398 7.398 0 0 1-1.593-2.363A7.379 7.379 0 0 1 1 8.55a7.41 7.41 0 0 1 2.479-5.542 1.062 1.062 0 0 1 1.417 1.583A5.29 5.29 0 0 0 3.123 8.55c0 1.419.553 2.752 1.556 3.755a5.278 5.278 0 0 0 3.756 1.556 5.276 5.276 0 0 0 3.756-1.556 5.277 5.277 0 0 0 1.555-3.755 5.3 5.3 0 0 0-1.77-3.959 1.062 1.062 0 1 1 1.416-1.583Z"/></svg>