<!--
* SPDX-FileCopyrightText: © 2020 Liferay, Inc. <https://liferay.com>
* SPDX-FileCopyrightText: © 2020 Contributors to the project Clay <https://github.com/liferay/clay/graphs/contributors>
*
* SPDX-License-Identifier: BSD-3-Clause
-->
<svg viewBox="0 0 16 16" xmlns="http://www.w3.org/2000/svg"><path d="M9.07 7.448A1.07 1.07 0 0 1 8 8.51a1.07 1.07 0 0 1-1.072-1.063v-6.38A1.07 1.07 0 0 1 8 .004c.59 0 1.07.479 1.07 1.064v6.38Z"/><path d="M13 3.014a7.408 7.408 0 0 1 2.5 5.547 7.405 7.405 0 0 1-2.197 5.263A7.5 7.5 0 0 1 8 16.004a7.502 7.502 0 0 1-5.303-2.18A7.403 7.403 0 0 1 3 3.014a1.077 1.077 0 0 1 1.513.083c.394.437.357 1.11-.084 1.501a5.299 5.299 0 0 0-1.305 1.757 5.242 5.242 0 0 0-.482 2.206c0 1.42.558 2.755 1.57 3.76A5.344 5.344 0 0 0 8 13.877a5.342 5.342 0 0 0 3.788-1.558 5.263 5.263 0 0 0 1.57-3.759c0-.77-.163-1.512-.482-2.206a5.31 5.31 0 0 0-1.304-1.757 1.057 1.057 0 0 1-.084-1.501A1.076 1.076 0 0 1 13 3.014Z"/></svg>
