<!--
* SPDX-FileCopyrightText: © 2020 Liferay, Inc. <https://liferay.com>
* SPDX-FileCopyrightText: © 2020 Contributors to the project Clay <https://github.com/liferay/clay/graphs/contributors>
*
* SPDX-License-Identifier: BSD-3-Clause
-->
<svg viewBox="0 0 17 16" xmlns="http://www.w3.org/2000/svg">
<path class="lexicon-icon-outline" d="M10.0356 7.44785C10.0356 8.03268 9.55389 8.51118 8.96484 8.51118C8.37481 8.51118 7.89313 8.03268 7.89313 7.44785V1.06785C7.89313 0.483016 8.37481 0.0045166 8.96484 0.0045166C9.55389 0.0045166 10.0356 0.483016 10.0356 1.06785V7.44785Z" />
<path class="lexicon-icon-outline" d="M13.9648 3.01388C14.744 3.70518 15.3577 4.53195 15.7901 5.47131C16.2383 6.44443 16.4648 7.48403 16.4648 8.56119C16.4648 9.56557 16.2669 10.5404 15.8748 11.4588C15.4975 12.3453 14.9568 13.1412 14.2682 13.8244C13.5797 14.5077 12.7779 15.0442 11.8845 15.4192C10.9595 15.8076 9.97745 16.0045 8.96484 16.0045C7.95322 16.0045 6.97016 15.8076 6.04522 15.4192C5.1518 15.0442 4.34999 14.5076 3.66146 13.8244C2.97292 13.1412 2.43214 12.3453 2.05488 11.4588C1.66283 10.5404 1.46484 9.56557 1.46484 8.56119C1.46484 7.48403 1.69239 6.44443 2.13959 5.47128C2.57201 4.53189 3.18667 3.70505 3.96484 3.01378C4.40515 2.62211 5.08285 2.65936 5.47785 3.09692C5.87186 3.53448 5.83443 4.20671 5.39412 4.59838C4.83659 5.0929 4.39826 5.68391 4.08896 6.35504C3.76981 7.04886 3.60728 7.7911 3.60728 8.56119C3.60728 9.9813 4.1648 11.3165 5.17643 12.3206C6.18904 13.3248 7.5336 13.8779 8.96484 13.8779C10.3961 13.8779 11.7416 13.3248 12.7533 12.3206C13.7649 11.3165 14.3224 9.98134 14.3224 8.56119C14.3224 7.79114 14.1599 7.04893 13.8407 6.35514C13.5314 5.68404 13.0931 5.09306 12.5366 4.59851C12.0953 4.20684 12.0578 3.53462 12.4528 3.09702C12.8468 2.65943 13.5245 2.62221 13.9648 3.01388Z" />
</svg>
