<!--
* SPDX-FileCopyrightText: © 2020 Liferay, Inc. <https://liferay.com>
* SPDX-FileCopyrightText: © 2020 Contributors to the project Clay <https://github.com/liferay/clay/graphs/contributors>
*
* SPDX-License-Identifier: BSD-3-Clause
-->
<svg viewBox="0 0 16 16" xmlns="http://www.w3.org/2000/svg"><path d="m9.309 2.513-.89 1.516C5.355 3.898 2.248 5.376.164 8.448a.994.994 0 0 0-.006 1.09c.916 1.385 2.034 2.432 3.256 3.166l-.44.797c-.625 1.175 1.028 2.122 1.73 1.003L11.04 3.517c.607-1.004-.89-2.22-1.731-1.004Zm6.528 5.929c-1.022-1.538-2.287-2.666-3.665-3.404l-.92 1.594c.95.54 1.879 1.319 2.754 2.356-1.84 2.147-3.897 3.21-5.963 3.21l-1.006 1.747c3.234.347 6.597-1.135 8.797-4.413a.994.994 0 0 0 .003-1.09Z"/><path d="M8.159 11.985c3.037-.312 3.147-3.253 2.506-4.344l-2.506 4.344Z"/></svg>
