<!--
* SPDX-FileCopyrightText: © 2020 Liferay, Inc. <https://liferay.com>
* SPDX-FileCopyrightText: © 2020 Contributors to the project Clay <https://github.com/liferay/clay/graphs/contributors>
*
* SPDX-License-Identifier: BSD-3-Clause
-->
<svg viewBox="0 0 17 16" xmlns="http://www.w3.org/2000/svg">
<path class="lexicon-icon-outline" d="M10.2739 2.51354L9.38327 4.02916C6.32077 3.89791 3.21452 5.37603 1.13015 8.44791C0.911396 8.76978 0.908271 9.20728 1.1239 9.53854C2.03952 10.9229 3.15827 11.9698 4.38015 12.7042L3.93952 13.501C3.31452 14.676 4.96765 15.6229 5.67077 14.5042L12.0051 3.51666C12.6114 2.51354 11.1145 1.29791 10.2739 2.51354Z" />
<path class="lexicon-icon-outline" d="M16.802 8.4417C15.7801 6.9042 14.5145 5.77607 13.1363 5.03857L12.2176 6.63232C13.1676 7.17295 14.0957 7.95107 14.9707 8.98857C13.1301 11.1354 11.0738 12.1979 9.0082 12.1979L8.00195 13.9448C11.2363 14.2917 14.5988 12.8104 16.7988 9.53232C17.0176 9.21045 17.0176 8.7667 16.802 8.4417Z" />
<path class="lexicon-icon-outline" d="M9.12354 11.9854C12.161 11.6729 12.2704 8.73223 11.6298 7.6416L9.12354 11.9854Z" />
</svg>
