<!--
* SPDX-FileCopyrightText: © 2022 Liferay, Inc. <https://liferay.com>
* SPDX-FileCopyrightText: © 2022 Contributors to the project Clay <https://github.com/liferay/clay/graphs/contributors>
*
* SPDX-License-Identifier: BSD-3-Clause
-->
<svg viewBox="0 0 16 16" xmlns="http://www.w3.org/2000/svg"><path class="lexicon-icon-outline" d="m9.309 2.511-.89 1.516C5.355 3.895 2.248 5.374.164 8.445A.994.994 0 0 0 .16 9.536c.916 1.385 2.034 2.431 3.256 3.166l-.44.797c-.625 1.175 1.028 2.121 1.73 1.003L11.04 3.514c.607-1.003-.89-2.219-1.731-1.003Zm6.528 5.929c-1.022-1.538-2.287-2.666-3.665-3.404l-.92 1.594c.95.54 1.879 1.319 2.754 2.356-1.84 2.147-3.897 3.21-5.963 3.21l-1.006 1.746c3.234.347 6.597-1.134 8.797-4.412a.994.994 0 0 0 .003-1.09Z"/><path class="lexicon-icon-outline" d="M8.159 11.983c3.037-.313 3.147-3.253 2.506-4.344l-2.506 4.344Z"/></svg>