<!--
* SPDX-FileCopyrightText: © 2020 Liferay, Inc. <https://liferay.com>
* SPDX-FileCopyrightText: © 2020 Contributors to the project Clay <https://github.com/liferay/clay/graphs/contributors>
*
* SPDX-License-Identifier: BSD-3-Clause
-->
<svg viewBox="0 0 16 16" xmlns="http://www.w3.org/2000/svg"><path d="M9.469 1.965a.655.655 0 0 0 1.307 0c.36 0 .653-.294.653-.653a.656.656 0 0 0-.654-.654.655.655 0 0 0-.652-.654.656.656 0 0 0-.654.657.653.653 0 1 0 0 1.304Zm4.681 1.198-.19-.19-.185.19a.648.648 0 0 1-.463.19.648.648 0 0 1-.462-.19.648.648 0 0 1 0-.922l.19-.191-.19-.191a.648.648 0 0 1 0-.923.65.65 0 0 1 .922 0l.19.191.191-.19a.65.65 0 0 1 .923 0 .648.648 0 0 1 0 .922l-.19.19.19.192a.648.648 0 0 1 0 .922.648.648 0 0 1-.462.19.649.649 0 0 1-.464-.19Z"/><path fill-rule="evenodd" clip-rule="evenodd" d="M10.473 3.573c-.522 0-1.017.203-1.385.575L.57 12.664a1.936 1.936 0 0 0-.572 1.426 1.954 1.954 0 0 0 1.958 1.914 1.94 1.94 0 0 0 1.385-.575l8.516-8.516a1.963 1.963 0 0 0 0-2.771 1.955 1.955 0 0 0-1.386-.57Zm.462 2.42-1.472 1.47-.922-.923 1.468-1.47a.654.654 0 0 1 .926.923Z"/><path d="M14.692 5.23c.36 0 .653.294.653.654a.653.653 0 1 1 0 1.307c0 .36-.293.654-.653.654a.656.656 0 0 1-.654-.654.656.656 0 0 1-.654-.653c0-.36.294-.654.654-.654 0-.36.294-.654.654-.654Z"/></svg>
