<!--
* SPDX-FileCopyrightText: © 2020 Liferay, Inc. <https://liferay.com>
* SPDX-FileCopyrightText: © 2020 Contributors to the project Clay <https://github.com/liferay/clay/graphs/contributors>
*
* SPDX-License-Identifier: BSD-3-Clause
-->
<svg viewBox="0 0 17 16" xmlns="http://www.w3.org/2000/svg">
<path class="lexicon-icon-outline" d="M10.4336 1.96542C10.4336 2.32508 10.7278 2.61906 11.0875 2.61906C11.4471 2.61906 11.7403 2.32508 11.7403 1.96542C12.1 1.96542 12.3942 1.67145 12.3942 1.31179C12.3942 0.952133 12.1 0.658149 11.7403 0.658149C11.7403 0.298493 11.4471 0.0045166 11.0875 0.0045166C10.7278 0.0045166 10.4336 0.298493 10.4336 0.66128C10.0739 0.66128 9.77976 0.955256 9.77976 1.31491C9.77976 1.67457 10.0739 1.96542 10.4336 1.96542Z" />
<path class="lexicon-icon-outline" d="M15.1152 3.16323L14.9246 2.97246L14.7399 3.16323C14.6118 3.29145 14.4457 3.354 14.2766 3.354C14.1085 3.354 13.9423 3.29145 13.8143 3.16323C13.5573 2.90991 13.5573 2.49709 13.8143 2.24064L14.0049 2.04986L13.8143 1.85908C13.5573 1.60577 13.5573 1.19294 13.8143 0.936488C14.0675 0.68004 14.4799 0.68004 14.7369 0.936488L14.9275 1.12727L15.1181 0.936488C15.3713 0.68004 15.7847 0.68004 16.0407 0.936488C16.2978 1.18981 16.2978 1.60264 16.0407 1.85908L15.8502 2.04986L16.0407 2.24064C16.2978 2.49396 16.2978 2.90678 16.0407 3.16323C15.9127 3.29145 15.7466 3.354 15.5785 3.354C15.4094 3.354 15.2432 3.29145 15.1152 3.16323Z" />
<path class="lexicon-icon-outline" fill-rule="evenodd" clip-rule="evenodd" d="M11.4374 3.57293C10.9155 3.57293 10.4209 3.77622 10.0524 4.14838L1.5357 12.6644C1.15453 13.046 0.951235 13.5526 0.96394 14.0905C0.975669 14.6316 1.20144 15.1288 1.59825 15.4916C1.96085 15.8231 2.42999 16.0045 2.9216 16.0045C3.44351 16.0045 3.93806 15.8012 4.30652 15.4291L12.8233 6.91304C13.5866 6.14994 13.5866 4.90523 12.8233 4.14212C12.4538 3.77622 11.9632 3.57293 11.4374 3.57293ZM11.8997 5.99357L10.4281 7.46228L9.50552 6.53969L10.9741 5.07097C11.0963 4.949 11.2624 4.8802 11.4374 4.8802C11.6123 4.8802 11.7746 4.949 11.8997 5.07097C12.1538 5.32429 12.1538 5.74024 11.8997 5.99357Z" />
<path class="lexicon-icon-outline" d="M15.6566 5.23048C16.0163 5.23048 16.3095 5.52445 16.3095 5.88411C16.6731 5.88411 16.9634 6.17809 16.9634 6.53775C16.9634 6.8974 16.6692 7.19138 16.3095 7.19138C16.3095 7.55104 16.0163 7.84502 15.6566 7.84502C15.297 7.84502 15.0028 7.55104 15.0028 7.19138C14.6431 7.19138 14.3489 6.8974 14.3489 6.53775C14.3489 6.17809 14.6431 5.88411 15.0028 5.88411C15.0028 5.52445 15.297 5.23048 15.6566 5.23048Z" />
</svg>
