<!--
* SPDX-FileCopyrightText: © 2022 Liferay, Inc. <https://liferay.com>
* SPDX-FileCopyrightText: © 2022 Contributors to the project Clay <https://github.com/liferay/clay/graphs/contributors>
*
* SPDX-License-Identifier: BSD-3-Clause
-->
<svg viewBox="0 0 16 16" xmlns="http://www.w3.org/2000/svg"><path class="lexicon-icon-outline" d="M9.461 1.961c0 .36.294.654.653.654.36 0 .653-.294.653-.654a.654.654 0 0 0 .653-.653.655.655 0 0 0-.653-.653.654.654 0 0 0-.653-.653.656.656 0 0 0-.653.656.652.652 0 1 0 0 1.303Zm4.678 1.197-.19-.19-.185.19a.648.648 0 0 1-.463.19.648.648 0 0 1-.462-.19.648.648 0 0 1 0-.922l.19-.19-.19-.19a.648.648 0 0 1 0-.923.649.649 0 0 1 .922 0l.19.19.19-.19a.649.649 0 0 1 .922 0 .648.648 0 0 1 0 .922l-.19.19.19.191a.648.648 0 0 1 0 .922.647.647 0 0 1-.461.19.648.648 0 0 1-.463-.19Z"/><path class="lexicon-icon-outline" fill-rule="evenodd" clip-rule="evenodd" d="M10.464 3.568c-.522 0-1.016.203-1.384.575l-8.51 8.51c-.38.38-.584.887-.57 1.424a1.953 1.953 0 0 0 1.956 1.912 1.94 1.94 0 0 0 1.383-.574l8.51-8.51a1.961 1.961 0 0 0 0-2.769 1.953 1.953 0 0 0-1.385-.568Zm.462 2.418-1.47 1.468-.922-.922L10 5.065a.654.654 0 0 1 .925.921Z"/><path class="lexicon-icon-outline" d="M14.68 5.224c.36 0 .652.294.652.653a.652.652 0 1 1 0 1.306c0 .36-.293.653-.652.653a.655.655 0 0 1-.654-.653.655.655 0 0 1-.653-.653c0-.36.294-.653.653-.653 0-.36.294-.653.654-.653Z"/></svg>