<!--
* SPDX-FileCopyrightText: © 2022 Liferay, Inc. <https://liferay.com>
* SPDX-FileCopyrightText: © 2022 Contributors to the project Clay <https://github.com/liferay/clay/graphs/contributors>
*
* SPDX-License-Identifier: BSD-3-Clause
-->
<svg viewBox="0 0 16 16" xmlns="http://www.w3.org/2000/svg"><path class="lexicon-icon-outline" fill-rule="evenodd" clip-rule="evenodd" d="M7.995 11.999C6.063 9.896 4.129 7.395 4.129 5.092c0-5.403 7.735-5.503 7.732 0 0 2.303-1.932 4.804-3.866 6.907ZM6.063 5.092c0-2.703 3.866-2.703 3.866 0s-3.866 2.703-3.866 0Z"/><path class="lexicon-icon-outline" d="m13.41 10.999 1.45 2.503c.388.7-.096 1.5-.771 1.5H2.004a.994.994 0 0 1-.869-1.5L2.585 11c.29-.6.966-1 1.644-1h.869c.08.112.162.233.245.356.213.317.442.656.72.944-2.028.6-.675 1.7 1.935 1.7 2.516 0 3.966-1.1 1.934-1.7.385-.5.675-.9.966-1.3h.869c.678 0 1.256.4 1.644 1Z"/></svg>