<!--
* SPDX-FileCopyrightText: © 2020 Liferay, Inc. <https://liferay.com>
* SPDX-FileCopyrightText: © 2020 Contributors to the project Clay <https://github.com/liferay/clay/graphs/contributors>
*
* SPDX-License-Identifier: BSD-3-Clause
-->
<svg viewBox="0 0 17 16" xmlns="http://www.w3.org/2000/svg">
<path class="lexicon-icon-outline" fill-rule="evenodd" clip-rule="evenodd" d="M8.96105 11.9992C7.02969 9.89597 5.09521 7.39584 5.09521 5.09259C5.09521 -0.310824 12.83 -0.41083 12.8269 5.09259C12.8269 7.39584 10.8955 9.89597 8.96105 11.9992ZM7.02969 5.09259C7.02969 2.38932 10.8955 2.38932 10.8955 5.09259C10.8955 7.79586 7.02969 7.79586 7.02969 5.09259ZM14.3769 10.9992L15.827 13.5025C16.2145 14.2025 15.7301 15.0025 15.0551 15.0025H2.97007C2.19816 15.0025 1.71376 14.2025 2.10128 13.5025L3.55135 10.9992C3.842 10.3992 4.51703 9.99915 5.19519 9.99915H6.06399C6.14483 10.1116 6.22591 10.232 6.30932 10.3558C6.52259 10.6724 6.7511 11.0117 7.02967 11.2992C5.00143 11.8992 6.35463 12.9993 8.96415 12.9993C11.4799 12.9993 12.93 11.8992 10.8986 11.2992C11.283 10.7992 11.5736 10.3992 11.8643 9.9992L11.8643 9.99915H12.7331C13.4113 9.99915 13.9894 10.3992 14.3769 10.9992Z" />
</svg>
