<!--
* SPDX-FileCopyrightText: © 2020 Liferay, Inc. <https://liferay.com>
* SPDX-FileCopyrightText: © 2020 Contributors to the project Clay <https://github.com/liferay/clay/graphs/contributors>
*
* SPDX-License-Identifier: BSD-3-Clause
-->
<svg viewBox="0 0 16 16" xmlns="http://www.w3.org/2000/svg"><path fill-rule="evenodd" clip-rule="evenodd" d="M7.996 12C6.065 9.895 4.13 7.395 4.13 5.091c0-5.403 7.735-5.503 7.732 0 0 2.304-1.931 4.804-3.866 6.907ZM6.065 5.091c0-2.703 3.866-2.703 3.866 0 0 2.704-3.866 2.704-3.866 0ZM13.412 11l1.45 2.503c.388.7-.097 1.5-.772 1.5H2.005a.994.994 0 0 1-.869-1.5L2.586 11c.291-.6.966-1 1.644-1h.87c.08.112.161.233.244.357.214.316.442.655.72.943C4.038 11.9 5.39 13 8 13c2.516 0 3.966-1.1 1.935-1.7.384-.5.675-.9.965-1.3h.87c.677 0 1.256.4 1.643 1Z"/></svg>
