<!--
* SPDX-FileCopyrightText: © 2020 Liferay, Inc. <https://liferay.com>
* SPDX-FileCopyrightText: © 2020 Contributors to the project Clay <https://github.com/liferay/clay/graphs/contributors>
*
* SPDX-License-Identifier: BSD-3-Clause
-->
<svg viewBox="0 0 16 16" xmlns="http://www.w3.org/2000/svg"><path d="M10.885 3.433A1.15 1.15 0 0 1 9.73 4.576a1.148 1.148 0 0 1-1.153-1.143c0-1.89 1.553-3.429 3.461-3.429 1.91 0 3.462 1.538 3.462 3.429 0 1.641-.869 2.494-1.502 3.117-.559.55-.806.819-.806 1.454 0 .632-.517 1.143-1.154 1.143a1.148 1.148 0 0 1-1.153-1.143c0-1.614.86-2.46 1.488-3.077.568-.558.819-.833.819-1.494a1.15 1.15 0 0 0-1.154-1.143 1.15 1.15 0 0 0-1.153 1.143Zm2.308 8a1.15 1.15 0 0 1-1.155 1.143 1.148 1.148 0 0 1-1.153-1.143c0-.631.517-1.143 1.153-1.143a1.15 1.15 0 0 1 1.155 1.143ZM1.654 12.576h4.615c.638 0 1.154-.512 1.154-1.143S6.907 10.29 6.27 10.29H1.654c-.637 0-1.154.512-1.154 1.143s.517 1.143 1.154 1.143ZM.5 14.861c0-.63.517-1.142 1.154-1.142h11.538c.637 0 1.153.511 1.153 1.143 0 .63-.516 1.142-1.153 1.142H1.654A1.148 1.148 0 0 1 .5 14.861Z"/></svg>
