<!--
* SPDX-FileCopyrightText: © 2020 Liferay, Inc. <https://liferay.com>
* SPDX-FileCopyrightText: © 2020 Contributors to the project Clay <https://github.com/liferay/clay/graphs/contributors>
*
* SPDX-License-Identifier: BSD-3-Clause
-->
<svg  viewBox="0 0 16 16" xmlns="http://www.w3.org/2000/svg">
<path class="lexicon-icon-outline" d="M10.8848 3.43307C10.8848 4.06427 10.3682 4.57596 9.73031 4.57596C9.0934 4.57596 8.57677 4.06427 8.57677 3.43307C8.57677 1.54257 10.1296 0.0045166 12.0384 0.0045166C13.9472 0.0045166 15.5 1.54257 15.5 3.43307C15.5 5.07431 14.6314 5.92728 13.9984 6.55008C13.4394 7.0993 13.1919 7.3689 13.1919 8.00452C13.1919 8.63568 12.6753 9.14737 12.0384 9.14737C11.4015 9.14737 10.8848 8.63568 10.8848 8.00452C10.8848 6.39008 11.7446 5.54474 12.3726 4.92749C12.9405 4.36911 13.1919 4.09442 13.1919 3.43307C13.1919 2.80292 12.6743 2.29022 12.0384 2.29022C11.4025 2.29022 10.8848 2.80292 10.8848 3.43307Z" />
<path class="lexicon-icon-outline" d="M13.1929 11.4331C13.1929 12.0643 12.6763 12.5759 12.0384 12.5759C11.4015 12.5759 10.8848 12.0643 10.8848 11.4331C10.8848 10.8019 11.4015 10.2902 12.0384 10.2902C12.6763 10.2902 13.1929 10.8019 13.1929 11.4331Z" />
<path class="lexicon-icon-outline" d="M1.65354 12.5759H6.2687C6.9066 12.5759 7.42323 12.0643 7.42323 11.4331C7.42323 10.8019 6.9066 10.2902 6.2687 10.2902H1.65354C1.01663 10.2902 0.5 10.8019 0.5 11.4331C0.5 12.0643 1.01663 12.5759 1.65354 12.5759Z" />
<path class="lexicon-icon-outline" d="M0.5 14.8617C0.5 14.2305 1.01663 13.7188 1.65354 13.7188H13.1919C13.8288 13.7188 14.3455 14.2305 14.3455 14.8617C14.3455 15.4928 13.8288 16.0045 13.1919 16.0045H1.65354C1.01663 16.0045 0.5 15.4928 0.5 14.8617Z" />
</svg>
