<!--
* SPDX-FileCopyrightText: © 2022 Liferay, Inc. <https://liferay.com>
* SPDX-FileCopyrightText: © 2022 Contributors to the project Clay <https://github.com/liferay/clay/graphs/contributors>
*
* SPDX-License-Identifier: BSD-3-Clause
-->
<svg viewBox="0 0 16 16" xmlns="http://www.w3.org/2000/svg"><path class="lexicon-icon-outline" d="M11.383 3.43c0 .632-.516 1.144-1.154 1.144A1.148 1.148 0 0 1 9.075 3.43c0-1.89 1.553-3.429 3.462-3.429 1.909 0 3.461 1.538 3.461 3.429 0 1.64-.868 2.494-1.501 3.117-.56.549-.806.818-.806 1.454 0 .631-.517 1.143-1.154 1.143a1.148 1.148 0 0 1-1.154-1.143c0-1.614.86-2.46 1.488-3.077.568-.558.82-.833.82-1.494a1.15 1.15 0 0 0-1.154-1.143 1.15 1.15 0 0 0-1.154 1.143Zm2.308 8c0 .632-.516 1.143-1.154 1.143a1.148 1.148 0 0 1-1.154-1.142c0-.631.517-1.143 1.154-1.143.638 0 1.154.511 1.154 1.143ZM2.152 12.573h4.615c.638 0 1.155-.511 1.155-1.142 0-.632-.517-1.143-1.155-1.143H2.152c-.637 0-1.153.511-1.153 1.143 0 .63.516 1.143 1.153 1.143ZM.999 14.86c0-.632.516-1.144 1.153-1.144h11.539c.636 0 1.153.512 1.153 1.143s-.517 1.143-1.153 1.143H2.152A1.148 1.148 0 0 1 1 14.86Z"/></svg>