<!--
* SPDX-FileCopyrightText: © 2022 Liferay, Inc. <https://liferay.com>
* SPDX-FileCopyrightText: © 2022 Contributors to the project Clay <https://github.com/liferay/clay/graphs/contributors>
*
* SPDX-License-Identifier: BSD-3-Clause
-->
<svg viewBox="0 0 16 16" xmlns="http://www.w3.org/2000/svg"><path class="lexicon-icon-outline" d="M4.46.002C2.551.002 1 1.54 1 3.431c0 .63.516 1.143 1.153 1.143a1.15 1.15 0 0 0 1.155-1.143c0-.63.517-1.143 1.153-1.143A1.15 1.15 0 0 1 5.614 3.43c0 .661-.251.936-.82 1.494-.627.617-1.487 1.463-1.487 3.077 0 .631.516 1.143 1.153 1.143s1.154-.512 1.154-1.143c0-.636.247-.905.807-1.454.633-.623 1.501-1.476 1.501-3.117C7.922 1.54 6.37.002 4.46.002Zm0 12.571c.638 0 1.155-.511 1.155-1.142a1.15 1.15 0 0 0-1.155-1.143c-.637 0-1.153.511-1.153 1.143 0 .63.516 1.143 1.153 1.143ZM7.921 6.86h6.924c.637 0 1.153.51 1.153 1.142 0 .631-.516 1.143-1.153 1.143H7.92a1.148 1.148 0 0 1-1.153-1.143c0-.631.516-1.143 1.153-1.143Zm5.77 3.428h-5.77c-.637 0-1.153.511-1.153 1.143 0 .63.516 1.143 1.153 1.143h5.77c.637 0 1.154-.512 1.154-1.143s-.517-1.143-1.154-1.143Zm-5.77 3.428h4.616c.638 0 1.154.512 1.154 1.143s-.516 1.143-1.154 1.143H7.92a1.148 1.148 0 0 1-1.153-1.143c0-.631.516-1.143 1.153-1.143Z"/></svg>