<!--
* SPDX-FileCopyrightText: © 2020 Liferay, Inc. <https://liferay.com>
* SPDX-FileCopyrightText: © 2020 Contributors to the project Clay <https://github.com/liferay/clay/graphs/contributors>
*
* SPDX-License-Identifier: BSD-3-Clause
-->
<svg  viewBox="0 0 16 16" xmlns="http://www.w3.org/2000/svg">
<path class="lexicon-icon-outline" d="M3.96038 0.0045166C2.05148 0.0045166 0.498535 1.54257 0.498535 3.43309C0.498535 4.06427 1.0152 4.57594 1.65215 4.57594C2.29009 4.57594 2.80676 4.06427 2.80676 3.43309C2.80676 2.8029 3.32441 2.29024 3.96038 2.29024C4.59635 2.29024 5.114 2.8029 5.114 3.43309C5.114 4.09441 4.86257 4.36913 4.29463 4.92749C3.66655 5.54472 2.80676 6.39006 2.80676 8.00452C2.80676 8.6357 3.32342 9.14737 3.96038 9.14737C4.59733 9.14737 5.114 8.6357 5.114 8.00452C5.114 7.3689 5.36148 7.09929 5.92054 6.55008C6.55355 5.92728 7.42222 5.07433 7.42222 3.43309C7.42222 1.54257 5.86927 0.0045166 3.96038 0.0045166Z" />
<path class="lexicon-icon-outline" d="M3.96038 12.576C4.59832 12.576 5.11498 12.0643 5.11498 11.4331C5.11498 10.8019 4.59832 10.2902 3.96038 10.2902C3.32342 10.2902 2.80676 10.8019 2.80676 11.4331C2.80676 12.0643 3.32342 12.576 3.96038 12.576Z" />
<path class="lexicon-icon-outline" d="M7.42123 6.86166H14.3449C14.9819 6.86166 15.4985 7.37334 15.4985 8.00452C15.4985 8.63571 14.9819 9.14738 14.3449 9.14738H7.42123C6.78428 9.14738 6.26761 8.63571 6.26761 8.00452C6.26761 7.37334 6.78428 6.86166 7.42123 6.86166Z" />
<path class="lexicon-icon-outline" d="M13.1913 10.2902H7.42123C6.78428 10.2902 6.26761 10.8019 6.26761 11.4331C6.26761 12.0643 6.78428 12.576 7.42123 12.576H13.1913C13.8283 12.576 14.3449 12.0643 14.3449 11.4331C14.3449 10.8019 13.8283 10.2902 13.1913 10.2902Z" />
<path class="lexicon-icon-outline" d="M7.42123 13.7188H12.0367C12.6746 13.7188 13.1913 14.2305 13.1913 14.8616C13.1913 15.4928 12.6746 16.0045 12.0367 16.0045H7.42123C6.78428 16.0045 6.26761 15.4928 6.26761 14.8616C6.26761 14.2305 6.78428 13.7188 7.42123 13.7188Z" />
</svg>
