<!--
* SPDX-FileCopyrightText: © 2020 Liferay, Inc. <https://liferay.com>
* SPDX-FileCopyrightText: © 2020 Contributors to the project Clay <https://github.com/liferay/clay/graphs/contributors>
*
* SPDX-License-Identifier: BSD-3-Clause
-->
<svg viewBox="0 0 16 16" xmlns="http://www.w3.org/2000/svg"><path d="M3.96.004C2.051.004.5 1.542.5 3.433c0 .631.516 1.143 1.153 1.143a1.15 1.15 0 0 0 1.155-1.143c0-.63.517-1.143 1.153-1.143a1.15 1.15 0 0 1 1.154 1.143c0 .661-.251.936-.82 1.494-.627.618-1.487 1.463-1.487 3.077 0 .632.516 1.143 1.153 1.143s1.154-.511 1.154-1.143c0-.635.247-.905.807-1.454.633-.623 1.501-1.476 1.501-3.117C7.422 1.543 5.87.004 3.96.004Zm0 12.572c.638 0 1.155-.512 1.155-1.143S4.598 10.29 3.96 10.29c-.637 0-1.153.512-1.153 1.143s.516 1.143 1.153 1.143Zm3.461-5.714h6.924c.637 0 1.153.511 1.153 1.142 0 .632-.516 1.143-1.153 1.143H7.42a1.148 1.148 0 0 1-1.153-1.143c0-.63.516-1.142 1.153-1.142Zm5.77 3.428h-5.77c-.637 0-1.153.512-1.153 1.143s.516 1.143 1.153 1.143h5.77c.637 0 1.154-.512 1.154-1.143s-.517-1.143-1.154-1.143Zm-5.77 3.429h4.616c.638 0 1.154.511 1.154 1.143 0 .63-.516 1.142-1.154 1.142H7.42a1.148 1.148 0 0 1-1.153-1.143c0-.63.516-1.142 1.153-1.142Z"/></svg>
