<!--
* SPDX-FileCopyrightText: © 2026 Liferay, Inc. <https://liferay.com>
* SPDX-FileCopyrightText: © 2026 Contributors to the project Clay <https://github.com/liferay/clay/graphs/contributors>
*
* SPDX-License-Identifier: BSD-3-Clause
-->
<svg viewBox="0 0 16 16" xmlns="http://www.w3.org/2000/svg">
	<path class="lexicon-icon-outline" clip-rule="evenodd" d="M8 4a6 6 0 1 1 0 12A6 6 0 0 1 8 4Zm0 1.702a.364.364 0 0 0-.34.236L6.727 8.43H4.363a.364.364 0 0 0-.225.648l1.904 1.515-.875 2.565a.365.365 0 0 0 .53.43l2.301-1.357 2.366 1.42a.362.362 0 0 0 .188.051h.002a.37.37 0 0 0 .365-.363.359.359 0 0 0-.041-.168l-.917-2.58 1.902-1.513a.363.363 0 0 0-.226-.648H9.272l-.931-2.492A.364.364 0 0 0 8 5.702Z" fill-rule="evenodd" />
	<path class="lexicon-icon-outline" d="M8 3H6L4 0h2l2 3Zm2 0H8l2-3h2l-2 3Z" />
</svg>