<!--
* SPDX-FileCopyrightText: © 2026 Liferay, Inc. <https://liferay.com>
* SPDX-FileCopyrightText: © 2026 Contributors to the project Clay <https://github.com/liferay/clay/graphs/contributors>
*
* SPDX-License-Identifier: BSD-3-Clause
-->
<svg viewBox="0 0 16 16" xmlns="http://www.w3.org/2000/svg">
	<path class="lexicon-icon-outline" clip-rule="evenodd" d="M14.456 1.11c.71-.337 1.544.154 1.544.91v11.964c0 .755-.835 1.247-1.544.91l-6.4-3.049a1.014 1.014 0 0 1-.59-.91v-5.86c0-.386.23-.738.59-.91l6.4-3.054ZM9.6 5.703v4.605l4.267 2.032V3.666L9.6 5.702Zm-4.267-1.26c.59 0 1.067.455 1.067 1.017v5.084c0 .562-.478 1.018-1.067 1.018H4.257l-1.163 1.94c-.295.486-.947.653-1.458.372-.51-.28-.685-.903-.39-1.389l.652-1.096C.797 10.926 0 9.585 0 8.002c0-1.966 1.228-3.56 2.743-3.56h2.59Zm-2.57 2.034c.04-.006-.06-.02-.24.212-.2.26-.39.718-.39 1.313l.009.217c.039.49.206.868.38 1.096.124.159.21.202.24.213h1.505V6.477H2.764Z" fill-rule="evenodd" />
</svg>