<!--
* SPDX-FileCopyrightText: © 2022 Liferay, Inc. <https://liferay.com>
* SPDX-FileCopyrightText: © 2022 Contributors to the project Clay <https://github.com/liferay/clay/graphs/contributors>
*
* SPDX-License-Identifier: BSD-3-Clause
-->
<svg viewBox="0 0 16 16" xmlns="http://www.w3.org/2000/svg"><path class="lexicon-icon-outline" fill-rule="evenodd" clip-rule="evenodd" d="m6.471 5.602 3.61 1.844c1.713-1.3 4.816.325 3.67 3.178-1.27 2.5-5.123 1.294-4.713-1.466l-3.035-1.55v3.444c2.894.76 2.5 4.988-.5 4.947-3.166-.084-2.898-3.625-1.5-4.488V5.818C.92 4.833 1.502.002 5.003.002c2.875 0 4.25 3.956 1.468 5.6Zm-1.468-4.1c2.08 0 1.937 3 0 3-2.02-.003-1.957-3 0-3Zm.5 13.494c-2.064 0-1.939-3 0-3 1.915.003 2.04 2.981 0 3Zm5.998-3.997c-1.875 0-2.02-3 0-3 1.96 0 1.978 3 0 3Z"/></svg>