<!--
* SPDX-FileCopyrightText: © 2020 Liferay, Inc. <https://liferay.com>
* SPDX-FileCopyrightText: © 2020 Contributors to the project Clay <https://github.com/liferay/clay/graphs/contributors>
*
* SPDX-License-Identifier: BSD-3-Clause
-->
<svg  viewBox="0 0 16 16" xmlns="http://www.w3.org/2000/svg">
<path class="lexicon-icon-outline" fill-rule="evenodd" clip-rule="evenodd" d="M6.473 5.60245L10.0834 7.4462C11.7953 6.14618 14.8988 7.77118 13.7523 10.6243C12.4828 13.1243 8.62925 11.9181 9.03941 9.15869L6.00425 7.6087V11.0524C8.89878 11.8118 8.50425 16.0399 5.50425 15.9993C2.33824 15.9149 2.60679 12.3743 4.00425 11.5118V5.81805C0.92222 4.83368 1.50327 0.00244141 5.00425 0.00244141C7.87925 0.00244141 9.25425 3.95868 6.473 5.60245ZM5.00425 1.50244C7.08531 1.50244 6.94175 4.50244 5.00425 4.50244C2.98472 4.49933 3.04722 1.50244 5.00425 1.50244ZM5.50425 14.9962C3.44077 14.9962 3.56577 11.9962 5.50425 11.9962C7.41929 11.9993 7.54429 14.9774 5.50425 14.9962ZM11.5023 10.9993C9.6273 10.9993 9.48277 7.99933 11.5023 7.99933C13.4623 7.99933 13.4808 10.9993 11.5023 10.9993Z" />
</svg>
