<!--
* SPDX-FileCopyrightText: © 2020 Liferay, Inc. <https://liferay.com>
* SPDX-FileCopyrightText: © 2020 Contributors to the project Clay <https://github.com/liferay/clay/graphs/contributors>
*
* SPDX-License-Identifier: BSD-3-Clause
-->
<svg viewBox="0 0 16 16" xmlns="http://www.w3.org/2000/svg"><path fill-rule="evenodd" clip-rule="evenodd" d="m6.473 5.602 3.61 1.844c1.712-1.3 4.816.325 3.67 3.178-1.27 2.5-5.124 1.294-4.714-1.465l-3.035-1.55v3.443c2.895.76 2.5 4.988-.5 4.947-3.166-.084-2.897-3.625-1.5-4.487V5.818c-3.082-.984-2.5-5.816 1-5.816 2.875 0 4.25 3.957 1.469 5.6Zm-1.469-4.1c2.081 0 1.938 3 0 3-2.02-.003-1.957-3 0-3Zm.5 13.494c-2.063 0-1.938-3 0-3 1.915.003 2.04 2.981 0 3ZM11.502 11c-1.875 0-2.02-3 0-3 1.96 0 1.979 3 0 3Z"/></svg>
