<!--
* SPDX-FileCopyrightText: © 2020 Liferay, Inc. <https://liferay.com>
* SPDX-FileCopyrightText: © 2020 Contributors to the project Clay <https://github.com/liferay/clay/graphs/contributors>
*
* SPDX-License-Identifier: BSD-3-Clause
-->
<svg  viewBox="0 0 16 16" xmlns="http://www.w3.org/2000/svg">
<path class="lexicon-icon-outline" d="M14.0002 2.00627H15.0002C15.55 2.00627 15.9973 2.45628 16.0002 3.00627V10.0063C16.0002 10.5594 15.5529 11.0063 15.0002 11.0063H13.0002V5.96874C13.0002 4.88438 12.1223 4.00627 11.0373 4.00627H4.00018V3.00627C4.00018 2.45311 4.44745 2.00627 5.00018 2.00627H10.5939L12.2941 0.300034C13.0158 -0.384353 14.0099 0.221909 14.0002 1.00627V2.00627Z" />
<path class="lexicon-icon-outline" d="M3.52557 8.00627H8.52557C9.22479 8.00627 9.12518 9.00627 8.52557 9.00627H3.52557C2.82538 9.00627 2.82538 8.00627 3.52557 8.00627Z" />
<path class="lexicon-icon-outline" d="M6.52557 10.0063H3.52557C2.82538 10.0063 2.82538 11.0063 3.52557 11.0063H6.52557C7.12518 11.0063 7.22479 10.0063 6.52557 10.0063Z" />
<path class="lexicon-icon-outline" fill-rule="evenodd" clip-rule="evenodd" d="M11.0002 5.00627H1.00018C0.447449 5.00627 0.000183105 5.45317 0.000183105 6.00627V13.0063C0.000183105 13.5594 0.447449 14.0063 1.00018 14.0063H2.00018V15.0063C2.01288 15.95 3.13104 16.3094 3.70624 15.7125L5.40643 14.0063H11.0002C11.5529 14.0063 12.0002 13.5594 12.0002 13.0063V6.00627C12.0002 5.45317 11.55 5.00627 11.0002 5.00627ZM11.0002 13.0063H1.00018V6.00627H11.0002V13.0063Z" />
</svg>
