<!--
* SPDX-FileCopyrightText: © 2022 Liferay, Inc. <https://liferay.com>
* SPDX-FileCopyrightText: © 2022 Contributors to the project Clay <https://github.com/liferay/clay/graphs/contributors>
*
* SPDX-License-Identifier: BSD-3-Clause
-->
<svg viewBox="0 0 16 16" xmlns="http://www.w3.org/2000/svg"><path class="lexicon-icon-outline" d="M13.998 2.006h1c.55 0 .998.45 1 1v7a1 1 0 0 1-1 1h-2V5.968a1.962 1.962 0 0 0-1.962-1.962H3.999v-1a1 1 0 0 1 1-1h5.593L12.292.3c.722-.685 1.716-.078 1.707.706v1Zm-10.474 6h5c.7 0 .6 1 0 1h-5c-.7 0-.7-1 0-1Zm3 2h-3c-.7 0-.7 1 0 1h3c.6 0 .7-1 0-1Z"/><path class="lexicon-icon-outline" fill-rule="evenodd" clip-rule="evenodd" d="M10.998 5.006h-10a1 1 0 0 0-1 1v7a1 1 0 0 0 1 1h1v1c.013.944 1.131 1.303 1.707.706l1.7-1.706h5.593a1 1 0 0 0 1-1v-7c0-.553-.45-1-1-1Zm0 8h-10v-7h10v7Z"/></svg>