<!--
* SPDX-FileCopyrightText: © 2020 Liferay, Inc. <https://liferay.com>
* SPDX-FileCopyrightText: © 2020 Contributors to the project Clay <https://github.com/liferay/clay/graphs/contributors>
*
* SPDX-License-Identifier: BSD-3-Clause
-->
<svg viewBox="0 0 16 16" xmlns="http://www.w3.org/2000/svg"><path d="M14 2.006h1c.55 0 .997.45 1 1v7a1 1 0 0 1-1 1h-2V5.97a1.962 1.962 0 0 0-1.963-1.963H4v-1a1 1 0 0 1 1-1h5.594L12.294.3c.722-.684 1.716-.078 1.706.706v1Zm-10.475 6h5c.7 0 .6 1 0 1h-5c-.7 0-.7-1 0-1Zm3 2h-3c-.7 0-.7 1 0 1h3c.6 0 .7-1 0-1Z"/><path fill-rule="evenodd" clip-rule="evenodd" d="M11 5.006H1a1 1 0 0 0-1 1v7a1 1 0 0 0 1 1h1v1c.013.944 1.13 1.303 1.706.706l1.7-1.706H11a1 1 0 0 0 1-1v-7c0-.553-.45-1-1-1Zm0 8H1v-7h10v7Z"/></svg>
