<!--
* SPDX-FileCopyrightText: © 2020 Liferay, Inc. <https://liferay.com>
* SPDX-FileCopyrightText: © 2020 Contributors to the project Clay <https://github.com/liferay/clay/graphs/contributors>
*
* SPDX-License-Identifier: BSD-3-Clause
-->
<svg  viewBox="0 0 16 16" xmlns="http://www.w3.org/2000/svg">
<path class="lexicon-icon-outline" d="M10.5002 4.99988H4.50018C3.79999 4.99988 3.79999 5.99921 4.50018 5.99921H10.5002C11.0998 5.99921 11.1994 4.99988 10.5002 4.99988Z" />
<path class="lexicon-icon-outline" d="M4.50018 7.99792H8.50018C9.1994 7.99792 9.09979 8.99725 8.50018 8.99725H4.50018C3.79999 8.99725 3.79999 7.99792 4.50018 7.99792Z" />
<path class="lexicon-icon-outline" fill-rule="evenodd" clip-rule="evenodd" d="M1.00018 1.00244H15.0002C15.5998 1.00244 16.0002 1.40216 16.0002 2.00177V11.9954C16.0002 12.595 15.5998 12.9948 15.0002 12.9948H6.40057L4.70038 14.6937C4.00018 15.3932 3.00018 14.7936 3.00018 13.9941V12.9948H1.00018C0.400574 12.9948 0.000183105 12.595 0.000183105 11.9954V2.00177C0.000183105 1.40216 0.400574 1.00244 1.00018 1.00244ZM2.00018 10.996H14.0002V3.00116H2.00018V10.996Z" />
</svg>
