<!--
* SPDX-FileCopyrightText: © 2020 Liferay, Inc. <https://liferay.com>
* SPDX-FileCopyrightText: © 2020 Contributors to the project Clay <https://github.com/liferay/clay/graphs/contributors>
*
* SPDX-License-Identifier: BSD-3-Clause
-->
<svg  viewBox="0 0 16 16" xmlns="http://www.w3.org/2000/svg">
<path class="lexicon-icon-outline" fill-rule="evenodd" clip-rule="evenodd" d="M8.00018 3.00244H2.00018V13.0024H8.00018V3.00244ZM2.00018 1.00244C0.895621 1.00244 0.000183105 1.89788 0.000183105 3.00244V13.0024C0.000183105 14.107 0.895621 15.0024 2.00018 15.0024H8.00018C9.10475 15.0024 10.0002 14.107 10.0002 13.0024V3.00244C10.0002 1.89788 9.10475 1.00244 8.00018 1.00244H2.00018Z" />
<path class="lexicon-icon-outline" d="M3.50018 11.0024C3.50018 10.7263 3.72403 10.5024 4.00018 10.5024H6.00018C6.27634 10.5024 6.50018 10.7263 6.50018 11.0024C6.50018 11.2786 6.27634 11.5024 6.00018 11.5024H4.00018C3.72403 11.5024 3.50018 11.2786 3.50018 11.0024Z" />
<path class="lexicon-icon-outline" d="M15.0002 3.00244H12.0002C11.4479 3.00244 11.0002 3.45016 11.0002 4.00244C11.0002 4.55473 11.4479 5.00244 12.0002 5.00244H15.0002C15.5525 5.00244 16.0002 4.55473 16.0002 4.00244C16.0002 3.45016 15.5525 3.00244 15.0002 3.00244Z" />
<path class="lexicon-icon-outline" d="M15.0002 7.00244H12.0002C11.4479 7.00244 11.0002 7.45016 11.0002 8.00244C11.0002 8.55473 11.4479 9.00244 12.0002 9.00244H15.0002C15.5525 9.00244 16.0002 8.55473 16.0002 8.00244C16.0002 7.45016 15.5525 7.00244 15.0002 7.00244Z" />
<path class="lexicon-icon-outline" d="M15.0002 11.0024H12.0002C11.4479 11.0024 11.0002 11.4502 11.0002 12.0024C11.0002 12.5547 11.4479 13.0024 12.0002 13.0024H15.0002C15.5525 13.0024 16.0002 12.5547 16.0002 12.0024C16.0002 11.4502 15.5525 11.0024 15.0002 11.0024Z" /><rect class="lexicon-icon-outline" transform="translate(0.000183105 1.00244)"/>
</svg>
