<!--
* SPDX-FileCopyrightText: © 2020 Liferay, Inc. <https://liferay.com>
* SPDX-FileCopyrightText: © 2020 Contributors to the project Clay <https://github.com/liferay/clay/graphs/contributors>
*
* SPDX-License-Identifier: BSD-3-Clause
-->
<svg  viewBox="0 0 16 16" xmlns="http://www.w3.org/2000/svg">
<path class="lexicon-icon-outline" d="M6.00018 0.00244141H14.0002C15.1037 0.00244141 16.0002 0.899316 16.0002 2.00244V14.0024C16.0002 15.1056 15.1037 16.0024 14.0002 16.0024H9.00018V13.0024H14.0002V2.00244H6.00018V3.00244H4.00018V2.00244C4.00018 0.899316 4.89668 0.00244141 6.00018 0.00244141Z" />
<path class="lexicon-icon-outline" fill-rule="evenodd" clip-rule="evenodd" d="M8.00018 5.00244C8.00018 4.44935 7.55293 4.00244 7.00018 4.00244H1.00018C0.447433 4.00244 0.000183105 4.44935 0.000183105 5.00244V15.0024C0.000183105 15.5555 0.447464 16.0024 1.00018 16.0024H7.00018C7.55293 16.0024 8.00018 15.5555 8.00018 15.0024V5.00244ZM2.00018 14.0024V6.00244H6.00018V14.0024H2.00018Z" /><rect class="lexicon-icon-outline"   transform="translate(0.000183105 0.00244141)"/>
</svg>
