<!--
* SPDX-FileCopyrightText: © 2022 Liferay, Inc. <https://liferay.com>
* SPDX-FileCopyrightText: © 2022 Contributors to the project Clay <https://github.com/liferay/clay/graphs/contributors>
*
* SPDX-License-Identifier: BSD-3-Clause
-->
<svg viewBox="0 0 16 16" xmlns="http://www.w3.org/2000/svg"><path d="M6 .002h8c1.104 0 2 .897 2 2v12c0 1.103-.896 2-2 2H9v-3h5v-11H6v1H4v-1c0-1.103.896-2 2-2Z"/><path fill-rule="evenodd" clip-rule="evenodd" d="M8 5.002a1 1 0 0 0-1-1H1a1 1 0 0 0-1 1v10a1 1 0 0 0 1 1h6a1 1 0 0 0 1-1v-10Zm-6 9v-8h4v8H2Z"/></svg>
