<!--
* SPDX-FileCopyrightText: © 2022 Liferay, Inc. <https://liferay.com>
* SPDX-FileCopyrightText: © 2022 Contributors to the project Clay <https://github.com/liferay/clay/graphs/contributors>
*
* SPDX-License-Identifier: BSD-3-Clause
-->
<svg viewBox="0 0 16 16" xmlns="http://www.w3.org/2000/svg"><path class="lexicon-icon-outline" d="M5.999.002h8c1.103 0 2 .897 2 2v12c0 1.103-.897 2-2 2h-5v-3h5v-11h-8v1h-2v-1c0-1.103.896-2 2-2Z"/><path class="lexicon-icon-outline" fill-rule="evenodd" clip-rule="evenodd" d="M7.999 5.002a1 1 0 0 0-1-1h-6a1 1 0 0 0-1 1v10a1 1 0 0 0 1 1h6a1 1 0 0 0 1-1v-10Zm-6 9v-8h4v8h-4Z"/></svg>