<!--
* SPDX-FileCopyrightText: © 2020 Liferay, Inc. <https://liferay.com>
* SPDX-FileCopyrightText: © 2020 Contributors to the project Clay <https://github.com/liferay/clay/graphs/contributors>
*
* SPDX-License-Identifier: BSD-3-Clause
-->
<svg viewBox="0 0 16 16" xmlns="http://www.w3.org/2000/svg"><path fill-rule="evenodd" clip-rule="evenodd" d="M8 3.002H2v10h6v-10Zm-6-2a2 2 0 0 0-2 2v10a2 2 0 0 0 2 2h6a2 2 0 0 0 2-2v-10a2 2 0 0 0-2-2H2Z"/><path d="M3.5 11.002a.5.5 0 0 1 .5-.5h2a.5.5 0 0 1 0 1H4a.5.5 0 0 1-.5-.5Zm11.5-8h-3a1 1 0 1 0 0 2h3a1 1 0 1 0 0-2Zm0 4h-3a1 1 0 1 0 0 2h3a1 1 0 1 0 0-2Zm0 4h-3a1 1 0 1 0 0 2h3a1 1 0 1 0 0-2Z"/></svg>
