<!--
* SPDX-FileCopyrightText: © 2020 Liferay, Inc. <https://liferay.com>
* SPDX-FileCopyrightText: © 2020 Contributors to the project Clay <https://github.com/liferay/clay/graphs/contributors>
*
* SPDX-License-Identifier: BSD-3-Clause
-->
<svg  viewBox="0 0 16 16" xmlns="http://www.w3.org/2000/svg">
<path class="lexicon-icon-outline" fill-rule="evenodd" clip-rule="evenodd" d="M12.0002 2.00244H4.00018V14.0024H12.0002V2.00244ZM4.00018 0.00244141C2.89562 0.00244141 2.00018 0.897879 2.00018 2.00244V14.0024C2.00018 15.107 2.89562 16.0024 4.00018 16.0024H12.0002C13.1047 16.0024 14.0002 15.107 14.0002 14.0024V2.00244C14.0002 0.897879 13.1047 0.00244141 12.0002 0.00244141H4.00018Z" />
<path class="lexicon-icon-outline" d="M6.00018 11.5024C6.00018 11.2263 6.22403 11.0024 6.50018 11.0024H9.50018C9.77634 11.0024 10.0002 11.2263 10.0002 11.5024C10.0002 11.7786 9.77634 12.0024 9.50018 12.0024H6.50018C6.22403 12.0024 6.00018 11.7786 6.00018 11.5024Z" /><rect class="lexicon-icon-outline" transform="translate(2.00018 0.00244141)"/>
</svg>
