<!--
* SPDX-FileCopyrightText: © 2020 Liferay, Inc. <https://liferay.com>
* SPDX-FileCopyrightText: © 2020 Contributors to the project Clay <https://github.com/liferay/clay/graphs/contributors>
*
* SPDX-License-Identifier: BSD-3-Clause
-->
<svg  viewBox="0 0 16 16" xmlns="http://www.w3.org/2000/svg">
<path class="lexicon-icon-outline" fill-rule="evenodd" clip-rule="evenodd" d="M14.0002 12.0024V4.00244H2.00018V12.0024H14.0002ZM16.0002 4.00244C16.0002 2.89788 15.1047 2.00244 14.0002 2.00244H2.00018C0.895621 2.00244 0.000183105 2.89788 0.000183105 4.00244V12.0024C0.000183105 13.107 0.895621 14.0024 2.00018 14.0024H14.0002C15.1047 14.0024 16.0002 13.107 16.0002 12.0024V4.00244Z" />
<path class="lexicon-icon-outline" d="M9.50018 9.00244H6.50018C6.22404 9.00244 6.00018 9.2263 6.00018 9.50244C6.00018 9.77858 6.22404 10.0024 6.50018 10.0024H9.50018C9.77633 10.0024 10.0002 9.77858 10.0002 9.50244C10.0002 9.2263 9.77633 9.00244 9.50018 9.00244Z" /><rect class="lexicon-icon-outline" transform="translate(0.000183105 2.00244)"/>
</svg>
