<!--
* SPDX-FileCopyrightText: © 2022 Liferay, Inc. <https://liferay.com>
* SPDX-FileCopyrightText: © 2022 Contributors to the project Clay <https://github.com/liferay/clay/graphs/contributors>
*
* SPDX-License-Identifier: BSD-3-Clause
-->
<svg viewBox="0 0 16 16" xmlns="http://www.w3.org/2000/svg"><path class="lexicon-icon-outline" d="M15.702 7.286 13.464 5.05a1.01 1.01 0 0 0-1.431 0 1.01 1.01 0 0 0 0 1.431l.522.522H8.999V3.446l.521.522a1.01 1.01 0 0 0 1.432 0 1.01 1.01 0 0 0 0-1.432L8.714.3a1.01 1.01 0 0 0-1.431 0L5.045 2.536a1.01 1.01 0 0 0 0 1.432 1.01 1.01 0 0 0 1.432 0l.522-.522v3.556H3.442l.522-.522a1.01 1.01 0 0 0 0-1.431 1.01 1.01 0 0 0-1.431 0L.295 7.286a1.01 1.01 0 0 0 0 1.432l2.238 2.237a1.009 1.009 0 0 0 1.431 0 1.01 1.01 0 0 0 0-1.431l-.522-.522H7v3.556l-.522-.521a1.009 1.009 0 0 0-1.432 0 1.009 1.009 0 0 0 0 1.43l2.238 2.238a1.01 1.01 0 0 0 1.431 0l2.238-2.237a1.01 1.01 0 0 0 0-1.431 1.01 1.01 0 0 0-1.432 0L9 12.558V9.002h3.556l-.522.522a1.009 1.009 0 0 0 0 1.431 1.01 1.01 0 0 0 1.431 0l2.238-2.237a1.01 1.01 0 0 0 0-1.432Z"/></svg>