<!--
* SPDX-FileCopyrightText: © 2020 Liferay, Inc. <https://liferay.com>
* SPDX-FileCopyrightText: © 2020 Contributors to the project Clay <https://github.com/liferay/clay/graphs/contributors>
*
* SPDX-License-Identifier: BSD-3-Clause
-->
<svg viewBox="0 0 16 16" xmlns="http://www.w3.org/2000/svg"><path d="m15.703 7.287-2.237-2.238a1.009 1.009 0 0 0-1.432 0 1.01 1.01 0 0 0 0 1.431l.522.522H9V3.446l.522.522a1.009 1.009 0 0 0 1.431 0 1.009 1.009 0 0 0 0-1.431L8.716.299a1.01 1.01 0 0 0-1.432 0L5.047 2.537a1.01 1.01 0 0 0 0 1.43 1.01 1.01 0 0 0 1.431 0L7 3.448v3.555H3.444l.522-.522a1.01 1.01 0 0 0 0-1.43 1.01 1.01 0 0 0-1.432 0L.297 7.286a1.01 1.01 0 0 0 0 1.43l2.237 2.238a1.009 1.009 0 0 0 1.432 0 1.01 1.01 0 0 0 0-1.43l-.522-.523H7v3.557l-.522-.522a1.009 1.009 0 0 0-1.431 0 1.009 1.009 0 0 0 0 1.43l2.237 2.238a1.01 1.01 0 0 0 1.432 0l2.237-2.237a1.009 1.009 0 0 0 0-1.431 1.01 1.01 0 0 0-1.431 0L9 12.559V9.002h3.556l-.522.522a1.009 1.009 0 0 0 0 1.431 1.009 1.009 0 0 0 1.432 0l2.237-2.237a1.01 1.01 0 0 0 0-1.431Z"/></svg>
