<!--
* SPDX-FileCopyrightText: © 2020 Liferay, Inc. <https://liferay.com>
* SPDX-FileCopyrightText: © 2020 Contributors to the project Clay <https://github.com/liferay/clay/graphs/contributors>
*
* SPDX-License-Identifier: BSD-3-Clause
-->
<svg  viewBox="0 0 16 16" xmlns="http://www.w3.org/2000/svg">
<path class="lexicon-icon-outline" d="M15.7033 7.28682L13.4658 5.04932C13.0689 4.65244 12.4283 4.65244 12.0346 5.04932C11.8377 5.24619 11.7377 5.50557 11.7377 5.76494C11.7377 6.02432 11.8377 6.28369 12.0346 6.48057L12.5564 7.00244H9.00018V3.44619L9.52206 3.96807C9.91893 4.36494 10.5596 4.36494 10.9533 3.96807C11.3502 3.57119 11.3502 2.93057 10.9533 2.53682L8.71581 0.299316C8.52518 0.108691 8.26893 0.00244141 8.00018 0.00244141C7.73143 0.00244141 7.47518 0.108691 7.28456 0.299316L5.04706 2.53682C4.65018 2.93369 4.65018 3.57432 5.04706 3.96807C5.24393 4.16494 5.50331 4.26494 5.76268 4.26494C6.02206 4.26494 6.28143 4.16494 6.47831 3.96807L7.00018 3.44619V7.00244H3.44393L3.96581 6.48057C4.36268 6.08369 4.36268 5.44307 3.96581 5.04932C3.56893 4.65244 2.92831 4.65244 2.53456 5.04932L0.297058 7.28682C0.106433 7.47744 0.000183105 7.73369 0.000183105 8.00244C0.000183105 8.27119 0.106433 8.52744 0.297058 8.71807L2.53456 10.9556C2.93143 11.3524 3.57206 11.3524 3.96581 10.9556C4.16268 10.7587 4.26268 10.4993 4.26268 10.2399C4.26268 9.98057 4.16268 9.72119 3.96581 9.52432L3.44393 9.00244H7.00018V12.5587L6.47831 12.0368C6.08143 11.6399 5.44081 11.6399 5.04706 12.0368C4.65018 12.4337 4.65018 13.0743 5.04706 13.4681L7.28456 15.7056C7.47518 15.8962 7.73143 16.0024 8.00018 16.0024C8.26893 16.0024 8.52518 15.8962 8.71581 15.7056L10.9533 13.4681C11.3502 13.0712 11.3502 12.4306 10.9533 12.0368C10.7564 11.8399 10.4971 11.7399 10.2377 11.7399C9.97831 11.7399 9.71893 11.8399 9.52206 12.0368L9.00018 12.5587V9.00244H12.5564L12.0346 9.52432C11.6377 9.92119 11.6377 10.5618 12.0346 10.9556C12.4314 11.3524 13.0721 11.3524 13.4658 10.9556L15.7033 8.71807C15.8939 8.52744 16.0002 8.27119 16.0002 8.00244C16.0002 7.73369 15.8939 7.47744 15.7033 7.28682Z" />
</svg>
