<!--
* SPDX-FileCopyrightText: © 2022 Liferay, Inc. <https://liferay.com>
* SPDX-FileCopyrightText: © 2022 Contributors to the project Clay <https://github.com/liferay/clay/graphs/contributors>
*
* SPDX-License-Identifier: BSD-3-Clause
-->
<svg viewBox="0 0 16 16" xmlns="http://www.w3.org/2000/svg"><path class="lexicon-icon-outline" d="M13.998 4.002h-3l-3.465-2.6c-.347-.26-.769-.4-1.2-.4H1.999c-1.104 0-2 .897-2 2v10c0 1.103.896 2 2 2h12c1.103 0 2-.897 2-2v-7c0-1.103-.897-2-2-2Zm-.778 6.156-2.059 2.06c-.887.853-2.175-.403-1.319-1.319l.481-.481h-3.83c-1.223 0-1.223-1.84 0-1.84h3.83l-.48-.482c-.838-.863.35-2.175 1.318-1.319l2.06 2.06c.324.374.312.978 0 1.321Z"/></svg>