<!--
* SPDX-FileCopyrightText: © 2020 Liferay, Inc. <https://liferay.com>
* SPDX-FileCopyrightText: © 2020 Contributors to the project Clay <https://github.com/liferay/clay/graphs/contributors>
*
* SPDX-License-Identifier: BSD-3-Clause
-->
<svg  viewBox="0 0 16 16" xmlns="http://www.w3.org/2000/svg">
<path class="lexicon-icon-outline" d="M14.0002 4.00244H11.0002L7.53456 1.40244C7.18768 1.14307 6.76581 1.00244 6.33456 1.00244H2.00018C0.897058 1.00244 0.000183105 1.89932 0.000183105 3.00244V13.0024C0.000183105 14.1056 0.897058 15.0024 2.00018 15.0024H14.0002C15.1033 15.0024 16.0002 14.1056 16.0002 13.0024V6.00244C16.0002 4.89932 15.1033 4.00244 14.0002 4.00244ZM13.2221 10.1587L11.1627 12.2181C10.2752 13.0712 8.98768 11.8149 9.84393 10.8993L10.3252 10.4181H6.49393C5.27206 10.4181 5.27206 8.57744 6.49393 8.57744H10.3252L9.84393 8.09619C9.00643 7.23369 10.1939 5.92119 11.1627 6.77744L13.2221 8.83682C13.5471 9.21182 13.5346 9.81494 13.2221 10.1587Z" />
</svg>
