<!--
* SPDX-FileCopyrightText: © 2020 Liferay, Inc. <https://liferay.com>
* SPDX-FileCopyrightText: © 2020 Contributors to the project Clay <https://github.com/liferay/clay/graphs/contributors>
*
* SPDX-License-Identifier: BSD-3-Clause
-->
<svg viewBox="0 0 16 16" xmlns="http://www.w3.org/2000/svg"><path d="M14 4.002h-3l-3.466-2.6c-.346-.26-.768-.4-1.2-.4H2c-1.103 0-2 .897-2 2v10c0 1.103.897 2 2 2h12c1.103 0 2-.897 2-2v-7c0-1.103-.897-2-2-2Zm-.778 6.157-2.06 2.059c-.887.853-2.175-.403-1.318-1.319l.481-.481H6.494c-1.222 0-1.222-1.84 0-1.84h3.831l-.481-.482c-.838-.862.35-2.175 1.319-1.319l2.059 2.06c.325.375.312.978 0 1.322Z"/></svg>
