<svg xmlns="http://www.w3.org/2000/svg" viewBox="0 0 512 512">
	<path class="lexicon-icon-outline" d="M502.5,233.1l-71.6-71.6c-12.7-12.7-33.2-12.7-45.8,0c-6.3,6.3-9.5,14.6-9.5,22.9s3.2,16.6,9.5,22.9l16.7,16.7H288V110.2l16.7,16.7c12.7,12.7,33.2,12.7,45.8,0c12.7-12.7,12.7-33.2,0-45.8L278.9,9.5C272.8,3.4,264.6,0,256,0c-8.6,0-16.8,3.4-22.9,9.5l-71.6,71.6c-12.7,12.7-12.7,33.2,0,45.8c6.3,6.3,14.6,9.5,22.9,9.5s16.6-3.2,22.9-9.5l16.7-16.7v113.8H110.2l16.7-16.7c12.7-12.7,12.7-33.2,0-45.8c-12.7-12.7-33.2-12.7-45.8,0l-71.6,71.6c-6.1,6.1-9.5,14.3-9.5,22.9c0,8.6,3.4,16.8,9.5,22.9l71.6,71.6c12.7,12.7,33.2,12.7,45.8,0c6.3-6.3,9.5-14.6,9.5-22.9s-3.2-16.6-9.5-22.9l-16.7-16.7H224v113.8l-16.7-16.7c-12.7-12.7-33.2-12.7-45.8,0c-12.7,12.7-12.7,33.2,0,45.8l71.6,71.6c6.1,6.1,14.3,9.5,22.9,9.5c8.6,0,16.8-3.4,22.9-9.5l71.6-71.6c12.7-12.7,12.7-33.2,0-45.8c-6.3-6.3-14.6-9.5-22.9-9.5s-16.6,3.2-22.9,9.5L288,401.8v-113.8h113.8l-16.7,16.7c-12.7,12.7-12.7,33.2,0,45.8c12.7,12.7,33.2,12.7,45.8,0l71.6-71.6c6.1-6.1,9.5-14.3,9.5-22.9C512,247.4,508.6,239.2,502.5,233.1z"></path>
</svg>
