<!--
* SPDX-FileCopyrightText: © 2022 Liferay, Inc. <https://liferay.com>
* SPDX-FileCopyrightText: © 2022 Contributors to the project Clay <https://github.com/liferay/clay/graphs/contributors>
*
* SPDX-License-Identifier: BSD-3-Clause
-->
<svg viewBox="0 0 16 16" xmlns="http://www.w3.org/2000/svg"><path class="lexicon-icon-outline" d="M8.716.31c-.465-.422-1.019-.4-1.431 0L5.05 2.545c-.9.831.337 2.41 1.43 1.431l.523-.522v3.55c0 1.322 2 1.313 2 0v-3.55l.522.522c.875.91 2.39-.425 1.43-1.431L8.717.31Z"/><path class="lexicon-icon-outline" d="M11.998 8.004v2H4.004v-2c0-1.344-2-1.303-2 0v1.997a2 2 0 0 0 2 2h7.99a2 2 0 0 0 2-2V8.004c.004-1.312-1.996-1.322-1.996 0ZM2 15.001a1 1 0 0 1 1-1h10a1 1 0 1 1 0 2H3a1 1 0 0 1-1-1Z"/></svg>