<!--
* SPDX-FileCopyrightText: © 2020 Liferay, Inc. <https://liferay.com>
* SPDX-FileCopyrightText: © 2020 Contributors to the project Clay <https://github.com/liferay/clay/graphs/contributors>
*
* SPDX-License-Identifier: BSD-3-Clause
-->
<svg  viewBox="0 0 16 16" xmlns="http://www.w3.org/2000/svg">
<path class="lexicon-icon-outline" fill-rule="evenodd" clip-rule="evenodd" d="M3.60831 9.33102C3.81183 9.33102 4.0134 9.2458 4.15821 9.07943C5.12592 7.96103 6.52612 7.31911 7.9997 7.31911C9.47328 7.31911 10.8735 7.96106 11.8412 9.07943C12.1044 9.38369 12.5643 9.41629 12.8676 9.15049C13.17 8.88553 13.2022 8.4233 12.9381 8.11819C12.2531 7.32663 11.397 6.729 10.4518 6.34449C11.1748 5.6758 11.6357 4.72544 11.6357 3.66141C11.6357 1.64532 10.0046 0.0045166 7.9997 0.0045166C5.9948 0.0045166 4.36369 1.64532 4.36369 3.66141C4.36369 4.72544 4.82455 5.67584 5.54764 6.34449C4.60244 6.729 3.74529 7.32659 3.06134 8.11819C2.79715 8.42246 2.82944 8.88467 3.13277 9.15049C3.26976 9.27166 3.43903 9.33102 3.60831 9.33102ZM7.99872 1.46896C6.7952 1.46896 5.81672 2.45276 5.81672 3.66308C5.81672 4.87255 6.7952 5.8572 7.99872 5.8572C9.20224 5.8572 10.1807 4.87339 10.1807 3.66308C10.1807 2.45276 9.20224 1.46896 7.99872 1.46896Z" />
<path class="lexicon-icon-outline" d="M15.2717 7.228C14.8696 7.228 14.5437 7.55566 14.5437 7.95938C14.5437 11.5887 11.6073 14.5418 7.99872 14.5418C4.39011 14.5418 1.45371 11.5886 1.45371 7.95938C1.45371 7.55569 1.12788 7.228 0.725724 7.228C0.32455 7.228 -0.00128174 7.55566 -0.00128174 7.95938C-0.00128174 12.3953 3.58776 16.0045 7.99872 16.0045C12.4097 16.0045 15.9987 12.3953 15.9987 7.95938C15.9987 7.55569 15.6729 7.228 15.2717 7.228Z" />
</svg>
