<!--
* SPDX-FileCopyrightText: © 2022 Liferay, Inc. <https://liferay.com>
* SPDX-FileCopyrightText: © 2022 Contributors to the project Clay <https://github.com/liferay/clay/graphs/contributors>
*
* SPDX-License-Identifier: BSD-3-Clause
-->
<svg viewBox="0 0 16 16" xmlns="http://www.w3.org/2000/svg"><path class="lexicon-icon-outline" fill-rule="evenodd" clip-rule="evenodd" d="M3.608 9.329a.726.726 0 0 0 .55-.252A5.08 5.08 0 0 1 8 7.317a5.08 5.08 0 0 1 3.841 1.76.725.725 0 0 0 1.026.071.735.735 0 0 0 .07-1.032 6.534 6.534 0 0 0-2.485-1.774 3.644 3.644 0 0 0 1.184-2.683C11.636 1.643 10.004.002 8 .002c-2.005 0-3.636 1.64-3.636 3.657 0 1.064.46 2.014 1.183 2.683a6.526 6.526 0 0 0-2.486 1.774.734.734 0 0 0 .547 1.213Zm4.39-7.862a2.19 2.19 0 0 0-2.18 2.193A2.19 2.19 0 0 0 8 5.854a2.19 2.19 0 0 0 2.18-2.194 2.19 2.19 0 0 0-2.182-2.194Z"/><path class="lexicon-icon-outline" d="M15.271 7.226a.73.73 0 0 0-.728.73c0 3.63-2.936 6.583-6.544 6.583-3.61 0-6.545-2.953-6.545-6.582a.73.73 0 0 0-.728-.731.73.73 0 0 0-.727.73c0 4.437 3.589 8.046 8 8.046 4.41 0 8-3.61 8-8.045a.73.73 0 0 0-.728-.731Z"/></svg>