<!--
* SPDX-FileCopyrightText: © 2020 Liferay, Inc. <https://liferay.com>
* SPDX-FileCopyrightText: © 2020 Contributors to the project Clay <https://github.com/liferay/clay/graphs/contributors>
*
* SPDX-License-Identifier: BSD-3-Clause
-->
<svg viewBox="0 0 16 16" xmlns="http://www.w3.org/2000/svg"><path fill-rule="evenodd" clip-rule="evenodd" d="M3.608 9.33a.726.726 0 0 0 .55-.25A5.08 5.08 0 0 1 8 7.318a5.08 5.08 0 0 1 3.841 1.76.725.725 0 0 0 1.026.071.735.735 0 0 0 .07-1.032 6.534 6.534 0 0 0-2.485-1.774 3.644 3.644 0 0 0 1.184-2.683C11.636 1.645 10.004.004 8 .004c-2.005 0-3.636 1.641-3.636 3.657 0 1.064.46 2.015 1.183 2.683a6.526 6.526 0 0 0-2.486 1.774.734.734 0 0 0 .547 1.213Zm4.39-7.861a2.19 2.19 0 0 0-2.181 2.194 2.19 2.19 0 0 0 2.182 2.194 2.19 2.19 0 0 0 2.182-2.194 2.19 2.19 0 0 0-2.182-2.194Z"/><path d="M15.271 7.228a.73.73 0 0 0-.728.731c0 3.63-2.936 6.583-6.544 6.583-3.61 0-6.545-2.954-6.545-6.583a.73.73 0 0 0-.728-.731.73.73 0 0 0-.727.731c0 4.436 3.589 8.045 8 8.045 4.41 0 8-3.609 8-8.045a.73.73 0 0 0-.728-.731Z"/></svg>
