<!--
* SPDX-FileCopyrightText: © 2022 Liferay, Inc. <https://liferay.com>
* SPDX-FileCopyrightText: © 2022 Contributors to the project Clay <https://github.com/liferay/clay/graphs/contributors>
*
* SPDX-License-Identifier: BSD-3-Clause
-->
<svg viewBox="0 0 16 16" xmlns="http://www.w3.org/2000/svg"><path fill-rule="evenodd" clip-rule="evenodd" d="M14.705 1.712A1 1 0 0 0 13.291.296l-1.707 1.707H8.998v-1a1 1 0 0 0-2 0v1h-3a2 2 0 0 0-2 2v2a2 2 0 0 0 0 4v1.586L.291 13.297a1 1 0 0 0 1.312 1.504l8.054-8.054a1.5 1.5 0 1 1 2.083-2.083l2.965-2.952ZM6.998 5.503a1.5 1.5 0 1 1-3 0 1.5 1.5 0 0 1 3 0Z"/><path d="m13.998 5.234-4.77 4.77h.77a1 1 0 0 1 0 2l-2.745-.024-2.025 2.024h6.77a2 2 0 0 0 2-2v-2a2 2 0 1 0 0-4v-.77Z"/></svg>
