<!--
* SPDX-FileCopyrightText: © 2020 Liferay, Inc. <https://liferay.com>
* SPDX-FileCopyrightText: © 2020 Contributors to the project Clay <https://github.com/liferay/clay/graphs/contributors>
*
* SPDX-License-Identifier: BSD-3-Clause
-->
<svg  viewBox="0 0 16 16" xmlns="http://www.w3.org/2000/svg">
<path class="lexicon-icon-outline" fill-rule="evenodd" clip-rule="evenodd" d="M14.7053 1.71162C15.0959 1.3211 15.0959 0.687934 14.7053 0.29741C14.3148 -0.0931145 13.6816 -0.0931145 13.2911 0.29741L11.584 2.00452H8.99823V1.00452C8.99823 0.452232 8.55052 0.00451662 7.99823 0.00451662C7.44595 0.00451662 6.99823 0.452232 6.99823 1.00452V2.00452H3.99823C2.89366 2.00452 1.99823 2.89995 1.99823 4.00452V6.00452C0.893661 6.00452 -0.00176999 6.89995 -0.00176999 8.00452C-0.00176999 9.10909 0.893661 10.0045 1.99823 10.0045V11.5903L0.291123 13.2974C-0.0994011 13.6879 -0.0994011 14.3211 0.291123 14.7116C0.649185 15.0697 1.21123 15.0994 1.6032 14.8009L9.6573 6.74681C9.25957 6.47705 8.99823 6.02131 8.99823 5.50452C8.99823 4.67609 9.6698 4.00452 10.4982 4.00452C11.015 4.00452 11.4708 4.26586 11.7405 4.66359L14.7053 1.71162ZM6.99821 5.50452C6.99821 6.33294 6.32664 7.00452 5.49821 7.00452C4.66979 7.00452 3.99821 6.33294 3.99821 5.50452C3.99821 4.67609 4.66979 4.00452 5.49821 4.00452C6.32664 4.00452 6.99821 4.67609 6.99821 5.50452Z" />
<path class="lexicon-icon-outline" d="M13.9982 5.23431L9.22802 10.0045H9.99823C10.5505 10.0045 10.9982 10.4522 10.9982 11.0045C10.9982 11.5568 10.5505 12.0045 9.99823 12.0045L7.25292 11.9796L5.22802 14.0045H11.9982C13.1028 14.0045 13.9982 13.1091 13.9982 12.0045V10.0045C15.1028 10.0045 15.9982 9.10909 15.9982 8.00452C15.9982 6.89995 15.1028 6.00452 13.9982 6.00452V5.23431Z" />
</svg>
