<!--
* SPDX-FileCopyrightText: © 2022 Liferay, Inc. <https://liferay.com>
* SPDX-FileCopyrightText: © 2022 Contributors to the project Clay <https://github.com/liferay/clay/graphs/contributors>
*
* SPDX-License-Identifier: BSD-3-Clause
-->
<svg viewBox="0 0 16 16" xmlns="http://www.w3.org/2000/svg"><path d="m12.122 11.42-.975-.976c1.125-1.375 1.153-3.266.122-4.74l1.028-1.029c.919.722 3.703.322 3.703-2.181 0-3.328-5-3.316-5 0 0 .578.203 1.103.534 1.528l-.947.947C9.01 3.706 7.079 3.663 5.56 4.847l-.975-.975C4.847 3.478 5 3.003 5 2.494c0-3.22-5-3.385-5 0 0 1.966 2.24 3.2 3.878 2.087l.975.975c-.884.947-1.419 3.404.122 5.035l-.947.947C2.5 10.294 0 11.248 0 13.504c0 3.331 5 3.331 5 0 0-.44-.122-.847-.322-1.203l1.028-1.029a3.941 3.941 0 0 0 4.735-.122l.975.976A2.486 2.486 0 0 0 11 13.504c0 3.228 5 3.422 5 0 0-2.244-2.553-3.12-3.878-2.085ZM14 2.493c0 .637-1 .669-1 0 0-.66 1-.653 1 0Zm-12 0c0-.685 1-.66 1 0 0 .64-1 .656-1 0Zm0 11.01c0-.647 1-.678 1 0 0 .653-1 .647-1 0ZM6 8c0-2.64 4-2.656 4 0 0 2.626-4 2.672-4 0Zm7.006 5.535c0-.722.994-.65.994-.028 0 .653-.994.616-.994.028Z"/></svg>
