<!--
* SPDX-FileCopyrightText: © 2020 Liferay, Inc. <https://liferay.com>
* SPDX-FileCopyrightText: © 2020 Contributors to the project Clay <https://github.com/liferay/clay/graphs/contributors>
*
* SPDX-License-Identifier: BSD-3-Clause
-->
<svg  viewBox="0 0 16 16" xmlns="http://www.w3.org/2000/svg">
<path class="lexicon-icon-outline" d="M12.1221 11.4194L11.1471 10.4444C12.2721 9.06929 12.3002 7.17857 11.2689 5.7035L12.2971 4.67533C13.2158 5.39724 16.0002 4.99722 16.0002 2.49397C16.0002 -0.834316 11.0002 -0.821815 11.0002 2.49397C11.0002 3.07212 11.2033 3.59715 11.5346 4.02217L10.5877 4.96909C9.00956 3.70653 7.07831 3.66278 5.55956 4.84721L4.58456 3.87216C4.84706 3.47839 5.00018 3.00337 5.00018 2.49397C5.00018 -0.724936 0.000183105 -0.890569 0.000183105 2.49397C0.000183105 4.45969 2.24081 5.69413 3.87831 4.58157L4.85331 5.55662C3.96893 6.50354 3.43456 8.95991 4.97518 10.5912L4.02831 11.5382C2.50018 10.2944 0.000183105 11.2475 0.000183105 13.5039C0.000183105 16.8353 5.00018 16.8353 5.00018 13.5039C5.00018 13.0632 4.87831 12.657 4.67831 12.3007L5.70643 11.2725C7.07831 12.2663 9.03768 12.2663 10.4408 11.1506L11.4158 12.1257C11.1533 12.5226 11.0002 12.9945 11.0002 13.5039C11.0002 16.7322 16.0002 16.9259 16.0002 13.5039C16.0002 11.26 13.4471 10.385 12.1221 11.4194ZM14.0002 2.49397C14.0002 3.1315 13.0002 3.16275 13.0002 2.49397C13.0002 1.83456 14.0002 1.84081 14.0002 2.49397ZM2.00018 2.49397C2.00018 1.80956 3.00018 1.83456 3.00018 2.49397C3.00018 3.13463 2.00018 3.15025 2.00018 2.49397ZM2.00018 13.5039C2.00018 12.857 3.00018 12.8257 3.00018 13.5039C3.00018 14.157 2.00018 14.1508 2.00018 13.5039ZM6.00018 8.00049C6.00018 5.35974 10.0002 5.34411 10.0002 8.00049C10.0002 10.6256 6.00018 10.6725 6.00018 8.00049ZM13.0064 13.5351C13.0064 12.8132 14.0002 12.8851 14.0002 13.507C14.0002 14.1602 13.0064 14.1227 13.0064 13.5351Z" />
</svg>
