<!--
* SPDX-FileCopyrightText: © 2022 Liferay, Inc. <https://liferay.com>
* SPDX-FileCopyrightText: © 2022 Contributors to the project Clay <https://github.com/liferay/clay/graphs/contributors>
*
* SPDX-License-Identifier: BSD-3-Clause
-->
<svg viewBox="0 0 16 16" xmlns="http://www.w3.org/2000/svg"><path class="lexicon-icon-outline" d="m12.12 11.419-.975-.975c1.125-1.375 1.153-3.266.122-4.74l1.028-1.029c.919.722 3.703.322 3.703-2.181 0-3.329-5-3.316-5 0 0 .578.203 1.103.534 1.528l-.947.947c-1.578-1.263-3.509-1.307-5.028-.122l-.975-.975c.263-.394.416-.869.416-1.378 0-3.22-5-3.385-5 0 0 1.965 2.24 3.2 3.878 2.087l.975.975c-.884.947-1.419 3.404.122 5.035l-.947.947c-1.528-1.244-4.028-.29-4.028 1.966 0 3.33 5 3.33 5 0 0-.441-.122-.847-.322-1.204l1.028-1.028a3.941 3.941 0 0 0 4.735-.122l.975.975a2.486 2.486 0 0 0-.416 1.379c0 3.228 5 3.422 5 0 0-2.244-2.553-3.12-3.878-2.085Zm1.878-8.925c0 .637-1 .668-1 0 0-.66 1-.654 1 0Zm-12 0c0-.685 1-.66 1 0 0 .64-1 .656-1 0Zm0 11.01c0-.647 1-.679 1 0 0 .653-1 .646-1 0Zm4-5.504c0-2.64 4-2.656 4 0 0 2.625-4 2.672-4 0Zm7.006 5.535c0-.722.994-.65.994-.028 0 .653-.994.615-.994.028Z"/></svg>