<!--
* SPDX-FileCopyrightText: © 2020 Liferay, Inc. <https://liferay.com>
* SPDX-FileCopyrightText: © 2020 Contributors to the project Clay <https://github.com/liferay/clay/graphs/contributors>
*
* SPDX-License-Identifier: BSD-3-Clause
-->
<svg viewBox="0 0 16 16" xmlns="http://www.w3.org/2000/svg"><path d="M5.384 11.058c.13-.16.359-.391.638-.671.968-.972 2.532-2.544 2.615-3.926-.01-2.034-2.127-1.364-2.586-.47l-.721-.773c2.928-3.058 6.056.274 3.788 3.27-.238.361-1.482 1.876-1.835 2.282 1.184-.09 2.958-.086 2.958-.086v1.185H5.384v-.81Zm-5.385-.326h1.603V5.678H.281v-.873c.51-.12 1.123-.268 1.658-.628h.973v6.555h1.41v1.137H0v-1.137Zm14.299-.162c-1.18.832-2.27-.13-2.659-.539l-.622.893c.657.856 2.005 1.337 3.416.938 2.534-1.01 1.572-3.724.052-4.033 1.36-.292 2.033-2.87-.122-3.663-1.707-.49-2.774.521-3.096.826l-.01.01.664.858c.748-.866 2.432-1.192 2.506.302.006 1.235-1.474 1.234-1.857 1.234h-.017v1.017c1.96-.206 2.698 1.22 1.745 2.158Z"/></svg>
