<!--
* SPDX-FileCopyrightText: © 2020 Liferay, Inc. <https://liferay.com>
* SPDX-FileCopyrightText: © 2020 Contributors to the project Clay <https://github.com/liferay/clay/graphs/contributors>
*
* SPDX-License-Identifier: BSD-3-Clause
-->
<svg  viewBox="0 0 16 16" xmlns="http://www.w3.org/2000/svg">
<path class="lexicon-icon-outline" d="M5.38446 11.0586C5.51434 10.8972 5.74286 10.667 6.02216 10.387C6.98993 9.41525 8.55438 7.84311 8.63739 6.46149C8.62762 4.42749 6.51044 5.09747 6.05145 5.99078L5.32977 5.21774C8.25848 2.15988 11.3864 5.49258 9.11786 8.48859C8.88055 8.84937 7.63641 10.3645 7.2829 10.77C8.46747 10.6806 10.2409 10.6841 10.2409 10.6841V11.8694H5.38446V11.0586Z" />
<path class="lexicon-icon-outline" d="M-0.00128174 10.7322H1.60223V5.67813H0.280945V4.80545C0.79071 4.68518 1.40399 4.53745 1.93915 4.1767H2.9118V10.7322H4.32294V11.8694H-0.00128174V10.7322Z" />
<path class="lexicon-icon-outline" d="M14.2985 10.5707C13.1188 11.4022 12.028 10.4401 11.6393 10.0313L11.0173 10.9246C11.6745 11.7801 13.0222 12.2611 14.4333 11.8625C16.9675 10.8524 16.0056 8.13815 14.485 7.82895C15.8454 7.5369 16.5182 4.96005 14.363 4.16638C12.6559 3.67691 11.5895 4.68726 11.2673 4.99167L11.2575 5.00128L11.9216 5.86023C12.6696 4.99442 14.3532 4.66803 14.4274 6.1626C14.4333 7.39761 12.9528 7.39636 12.57 7.39603H12.5534V8.41303C14.5134 8.20688 15.2516 9.63272 14.2985 10.5707Z" />
</svg>
