<!--
* SPDX-FileCopyrightText: © 2020 Liferay, Inc. <https://liferay.com>
* SPDX-FileCopyrightText: © 2020 Contributors to the project Clay <https://github.com/liferay/clay/graphs/contributors>
*
* SPDX-License-Identifier: BSD-3-Clause
-->
<svg  viewBox="0 0 16 16" xmlns="http://www.w3.org/2000/svg">
<path class="lexicon-icon-outline" fill-rule="evenodd" clip-rule="evenodd" d="M8.01431 2.00244C15.9768 2.40869 16.0362 13.5806 8.01431 14.0024C-0.0138177 13.6399 0.00805676 2.38994 8.01431 2.00244ZM8.01431 0.00244141C-2.67319 0.489941 -2.66382 15.5524 8.01431 16.0024C18.6549 15.6243 18.6737 0.446191 8.01431 0.00244141ZM9.4985 5.12744L10.9579 9.69932C11.3016 10.9712 9.5235 11.5649 9.04225 10.3056L8.75475 9.39932H7.24537L6.95787 10.3056C6.47662 11.5681 4.70475 10.9649 5.04537 9.70244L6.50475 5.12744C6.73912 4.57119 7.00162 4.00244 8.00475 4.00244C8.9985 4.00244 9.2735 4.57432 9.4985 5.12744Z" />
</svg>
