<!--
* SPDX-FileCopyrightText: © 2022 Liferay, Inc. <https://liferay.com>
* SPDX-FileCopyrightText: © 2022 Contributors to the project Clay <https://github.com/liferay/clay/graphs/contributors>
*
* SPDX-License-Identifier: BSD-3-Clause
-->
<svg viewBox="0 0 16 16" xmlns="http://www.w3.org/2000/svg"><path class="lexicon-icon-outline" d="m9.494 5.127 1.46 4.572c.343 1.272-1.435 1.866-1.916.606L8.751 9.4H7.24l-.287.906c-.482 1.263-2.253.66-1.913-.603L6.5 5.128c.234-.556.496-1.125 1.5-1.125.993 0 1.268.572 1.493 1.125Z"/><path class="lexicon-icon-outline" fill-rule="evenodd" clip-rule="evenodd" d="M8.01.002c-10.687.488-10.678 15.55 0 16 10.64-.378 10.66-15.556 0-16Zm0 2c7.963.406 8.022 11.578 0 12-8.028-.362-8.006-11.612 0-12Z"/></svg>