<!--
* SPDX-FileCopyrightText: © 2022 Liferay, Inc. <https://liferay.com>
* SPDX-FileCopyrightText: © 2022 Contributors to the project Clay <https://github.com/liferay/clay/graphs/contributors>
*
* SPDX-License-Identifier: BSD-3-Clause
-->
<svg viewBox="0 0 16 16" xmlns="http://www.w3.org/2000/svg"><path class="lexicon-icon-outline" d="M14.496 7.002H9.568c-.528 0-.612-.579-.35-.854l4.088-4.146H9.569c-.66 0-.65-1 0-1h4.927c.4 0 .684.5.35.853L10.76 6.002h3.737c.656 0 .66 1 0 1Z"/><path class="lexicon-icon-outline" fill-rule="evenodd" clip-rule="evenodd" d="m14.953 14.307-2.466-6c-.153-.371-.756-.371-.91 0l-2.465 6c-.234.619.65.978.91.384l.497-1.209 3.04.038.481 1.175c.275.63 1.163.184.913-.388Zm-4.025-1.819 1.103-2.687 1.115 2.713-2.218-.025Z"/><path class="lexicon-icon-outline" d="m4.785 13.71 2.09-2.121c.925-.938-.478-2.344-1.394-1.416l-.35.353V2.943c0-1.341-1.971-1.332-1.971 0v7.699l-.466-.472c-.947-.956-2.309.488-1.393 1.415l2.078 2.107a.031.031 0 0 1 .006.009l.006.01a.975.975 0 0 0 1.394 0Z"/></svg>