<!--
* SPDX-FileCopyrightText: © 2020 Liferay, Inc. <https://liferay.com>
* SPDX-FileCopyrightText: © 2020 Contributors to the project Clay <https://github.com/liferay/clay/graphs/contributors>
*
* SPDX-License-Identifier: BSD-3-Clause
-->
<svg viewBox="0 0 16 16" xmlns="http://www.w3.org/2000/svg"><path fill-rule="evenodd" clip-rule="evenodd" d="m14.954 7.293-2.466-6.012c-.153-.372-.756-.372-.91 0L9.114 7.293c-.234.62.65.982.91.385l.497-1.213 3.04.038.481 1.175c.275.634 1.163.187.913-.385Zm-4.025-1.825 1.103-2.693 1.116 2.718-2.219-.025Zm3.569 9.534H9.57c-.528 0-.613-.58-.35-.856l4.087-4.156H9.57c-.66 0-.65-1.003 0-1.003h4.928c.4 0 .684.503.35.856L10.76 14h3.738c.656 0 .659 1.003 0 1.003ZM4.786 2.21l2.09 2.125c.925.94-.478 2.35-1.394 1.416l-.35-.353v7.6c0 1.343-1.971 1.334-1.971 0V5.28l-.466.475C1.751 6.718.39 5.268 1.301 4.34L3.38 2.228c.004-.003.005-.006.007-.01a.975.975 0 0 1 1.4-.01Z"/></svg>
