<!--
* SPDX-FileCopyrightText: © 2020 Liferay, Inc. <https://liferay.com>
* SPDX-FileCopyrightText: © 2020 Contributors to the project Clay <https://github.com/liferay/clay/graphs/contributors>
*
* SPDX-License-Identifier: BSD-3-Clause
-->
<svg  viewBox="0 0 16 16" xmlns="http://www.w3.org/2000/svg">
<path class="lexicon-icon-outline" fill-rule="evenodd" clip-rule="evenodd" d="M11.0013 2.00244H2.00044V14.0024H6.50088C7.79163 14.0024 7.79163 16.0024 6.50088 16.0024H2.00044C0.897207 16.0024 0.000244141 15.1056 0.000244141 14.0024V2.00244C0.000244141 0.899316 0.897207 0.00244141 2.00044 0.00244141H11.0013C12.1046 0.00244141 13.0015 0.899316 13.0015 2.00244V6.00244C13.0015 7.29307 11.0013 7.29307 11.0013 6.00244V2.00244ZM9.00113 4.00244H4.00064C2.70988 4.00244 2.70988 6.00244 4.00064 6.00244H9.00113C10.2888 6.00244 10.2888 4.00244 9.00113 4.00244ZM4.00064 7.00244C2.70988 7.00244 2.70988 9.00244 4.00064 9.00244H7.00093C8.29168 9.00244 8.29168 7.00244 7.00093 7.00244H4.00064ZM5.00073 10.0024H4.00064C2.70988 10.0024 2.70988 12.0024 4.00064 12.0024H5.00073C6.29149 12.0024 6.29149 10.0024 5.00073 10.0024ZM15.0455 12.3899C15.0798 12.1493 15.0361 11.7774 15.0142 11.6087C15.0736 11.5681 16.2893 11.0931 15.9268 10.4587L15.3705 9.47432C15.0173 8.84307 13.9922 9.58994 13.9297 9.61807C13.7297 9.45557 13.3953 9.27744 13.1515 9.18057C13.1422 9.11807 13.1828 8.00244 12.5515 8.00244H11.4576C10.7951 8.00244 10.8669 9.10557 10.8607 9.16807C10.5732 9.28682 10.2856 9.46494 10.0762 9.62119C10.02 9.59307 9.0355 8.86494 8.69485 9.38682L8.07291 10.3399C7.71037 10.9274 8.90737 11.5556 8.96675 11.6024C8.94174 11.7837 8.91987 12.1524 8.95737 12.3962C8.89799 12.4368 7.73225 12.9618 8.06979 13.5618L8.67609 14.5681C9.05113 15.1837 10.0169 14.4056 10.0731 14.3774C10.2794 14.5368 10.6107 14.7399 10.8576 14.8337C10.8638 14.8962 10.8076 15.9962 11.442 15.9962L12.5671 15.9993C13.2109 15.9993 13.1422 14.8868 13.1484 14.8274C13.4391 14.7118 13.7297 14.5556 13.936 14.3931C14.0016 14.4212 15.0798 15.1149 15.4143 14.5181L15.9393 13.5806C16.2768 13.0306 15.1048 12.4337 15.0455 12.3899ZM12.0045 13.3649C10.3856 13.3649 10.2794 10.8649 12.0045 10.8649C13.7016 10.8681 13.6235 13.3649 12.0045 13.3649Z" />
</svg>
