<!--
* SPDX-FileCopyrightText: © 2022 Liferay, Inc. <https://liferay.com>
* SPDX-FileCopyrightText: © 2022 Contributors to the project Clay <https://github.com/liferay/clay/graphs/contributors>
*
* SPDX-License-Identifier: BSD-3-Clause
-->
<svg viewBox="0 0 16 16" xmlns="http://www.w3.org/2000/svg"><path class="lexicon-icon-outline" fill-rule="evenodd" clip-rule="evenodd" d="m14.951 7.293-2.465-6.012c-.153-.372-.756-.372-.91 0L9.111 7.293c-.234.619.65.981.91.384l.496-1.212 3.04.038.482 1.174c.275.635 1.162.188.912-.384Zm-4.024-1.825 1.103-2.693 1.115 2.718-2.218-.025Z"/><path class="lexicon-icon-outline" d="M14.495 15.002H9.567c-.528 0-.612-.581-.35-.856l4.088-4.156H9.567c-.66 0-.65-1.003 0-1.003h4.928c.4 0 .684.503.35.856l-4.087 4.156h3.737c.656 0 .66 1.003 0 1.003ZM4.783 2.209l2.09 2.125c.926.94-.477 2.35-1.393 1.415l-.35-.353v7.6c0 1.344-1.972 1.334-1.972 0V5.28l-.465.475c-.944.962-2.307-.488-1.394-1.416l2.078-2.112a.033.033 0 0 0 .006-.01.975.975 0 0 1 1.4-.01Z"/></svg>