<!--
* SPDX-FileCopyrightText: © 2020 Liferay, Inc. <https://liferay.com>
* SPDX-FileCopyrightText: © 2020 Contributors to the project Clay <https://github.com/liferay/clay/graphs/contributors>
*
* SPDX-License-Identifier: BSD-3-Clause
-->
<svg viewBox="0 0 16 16" xmlns="http://www.w3.org/2000/svg"><path d="M15.693 12.023a1.05 1.05 0 0 0-.733-.296c-.266 0-.531.1-.733.296l-.534.52V1a1.01 1.01 0 0 0-1.024-.997A1.01 1.01 0 0 0 11.645 1v11.543l-.534-.52a1.054 1.054 0 0 0-1.466 0 .986.986 0 0 0 0 1.426l2.291 2.229c.196.19.458.295.733.295.275 0 .538-.106.733-.296l2.29-2.228a.986.986 0 0 0 0-1.426ZM6.35 2.56 4.059.331a1.049 1.049 0 0 0-.733-.295c-.275 0-.538.105-.733.295L.303 2.56a.986.986 0 0 0 0 1.426 1.054 1.054 0 0 0 1.465 0l.534-.52v11.542c0 .551.458.996 1.024.996a1.01 1.01 0 0 0 1.024-.996V3.466l.534.52a1.054 1.054 0 0 0 1.466 0 .986.986 0 0 0 0-1.426Z"/></svg>
