<!--
* SPDX-FileCopyrightText: © 2020 Liferay, Inc. <https://liferay.com>
* SPDX-FileCopyrightText: © 2020 Contributors to the project Clay <https://github.com/liferay/clay/graphs/contributors>
*
* SPDX-License-Identifier: BSD-3-Clause
-->
<svg  viewBox="0 0 16 16" xmlns="http://www.w3.org/2000/svg">
<path class="lexicon-icon-outline" d="M5.00025 6.00452C3.6315 6.00452 3.72212 4.00452 5.00025 4.00452H10.0002C11.3284 4.00452 11.3377 6.00452 10.0002 6.00452H5.00025Z" />
<path class="lexicon-icon-outline" d="M5.00025 9.00452C3.6315 9.00452 3.72212 7.00452 5.00025 7.00452H10.0002C11.3284 7.00452 11.3377 9.00452 10.0002 9.00452H5.00025Z" />
<path class="lexicon-icon-outline" d="M5.00025 10.0045C3.72212 10.0045 3.6315 12.0045 5.00025 12.0045H10.0002C11.3377 12.0045 11.3284 10.0045 10.0002 10.0045H5.00025Z" />
<path class="lexicon-icon-outline" fill-rule="evenodd" clip-rule="evenodd" d="M3.00024 0.0045166C1.89712 0.0045166 1.00024 0.901392 1.00024 2.00452V14.0045C1.00024 15.1076 1.89712 16.0045 3.00024 16.0045H12.0002C13.1034 16.0045 14.0002 15.1076 14.0002 14.0045V2.00452C14.0002 0.901392 13.1034 0.0045166 12.0002 0.0045166H3.00024ZM12.0002 2.00452H3.00024V14.0045H12.0002V2.00452Z" />
</svg>
