<!--
* SPDX-FileCopyrightText: © 2020 Liferay, Inc. <https://liferay.com>
* SPDX-FileCopyrightText: © 2020 Contributors to the project Clay <https://github.com/liferay/clay/graphs/contributors>
*
* SPDX-License-Identifier: BSD-3-Clause
-->
<svg  viewBox="0 0 16 16" xmlns="http://www.w3.org/2000/svg">
<path class="lexicon-icon-outline" fill-rule="evenodd" clip-rule="evenodd" d="M11.0002 2.00244H2.00024V14.0024H7.00024C8.29087 14.0024 8.29087 16.0024 7.00024 16.0024H2.00024C0.897119 16.0024 0.000244141 15.1056 0.000244141 14.0024V2.00244C0.000244141 0.899316 0.897119 0.00244141 2.00024 0.00244141H11.0002C12.1034 0.00244141 13.0002 0.899316 13.0002 2.00244V6.00244C13.0002 7.29307 11.0002 7.29307 11.0002 6.00244V2.00244ZM9.00024 4.00244H4.00024C2.70962 4.00244 2.70962 6.00244 4.00024 6.00244H9.00024C10.2909 6.00244 10.2909 4.00244 9.00024 4.00244ZM4.00024 7.00244C2.70962 7.00244 2.70962 9.00244 4.00024 9.00244H7.00024C8.29087 9.00244 8.29087 7.00244 7.00024 7.00244H4.00024ZM5.00024 10.0024H4.00024C2.70962 10.0024 2.70962 12.0024 4.00024 12.0024H5.00024C6.29087 12.0024 6.29087 10.0024 5.00024 10.0024ZM14.0002 10.0024V11.4181L11.8284 13.5899L10.4127 12.1743L12.5846 10.0024H14.0002ZM11.4659 8.29619C11.6534 8.10869 11.9065 8.00244 12.1721 8.00244H15.0002C15.5534 8.00244 16.0002 8.44932 16.0002 9.00244V11.8306C16.0002 12.0962 15.894 12.3493 15.7065 12.5368L12.5346 15.7087C12.144 16.0993 11.5096 16.0993 11.119 15.7087L8.29087 12.8806C7.90024 12.4899 7.90024 11.8556 8.29087 11.4649L11.4659 8.29619Z" />
</svg>
