<!--
* SPDX-FileCopyrightText: © 2022 Liferay, Inc. <https://liferay.com>
* SPDX-FileCopyrightText: © 2022 Contributors to the project Clay <https://github.com/liferay/clay/graphs/contributors>
*
* SPDX-License-Identifier: BSD-3-Clause
-->
<svg viewBox="0 0 16 16" xmlns="http://www.w3.org/2000/svg"><path fill-rule="evenodd" clip-rule="evenodd" d="M11 2.002H2v12h5c1.29 0 1.29 2 0 2H2c-1.103 0-2-.897-2-2v-12c0-1.103.897-2 2-2h9c1.103 0 2 .897 2 2v4c0 1.29-2 1.29-2 0v-4Zm-2 2H4c-1.29 0-1.29 2 0 2h5c1.29 0 1.29-2 0-2Zm-5 3c-1.29 0-1.29 2 0 2h3c1.29 0 1.29-2 0-2H4Zm1 3H4c-1.29 0-1.29 2 0 2h1c1.29 0 1.29-2 0-2Zm9 0v1.416l-2.172 2.172-1.415-1.416 2.171-2.172H14Zm-2.534-1.706a.998.998 0 0 1 .706-.294H15a1 1 0 0 1 1 1v2.828a.998.998 0 0 1-.294.707l-3.172 3.172c-.39.39-1.025.39-1.415 0L8.29 12.88a1.002 1.002 0 0 1 0-1.415l3.175-3.169Z"/></svg>
