<!--
* SPDX-FileCopyrightText: © 2020 Liferay, Inc. <https://liferay.com>
* SPDX-FileCopyrightText: © 2020 Contributors to the project Clay <https://github.com/liferay/clay/graphs/contributors>
*
* SPDX-License-Identifier: BSD-3-Clause
-->
<svg xmlns="http://www.w3.org/2000/svg" viewBox="0 0 512 512">
	<path class="lexicon-icon-outline order-list-up-line-1" d="M287.9,160.5h64c17.7,0,32.1-14.4,32.1-32c0-17.7-14.3-32-31.9-32h-64c-17.7,0-32,14.3-32.1,32C256,146.2,270.3,160.5,287.9,160.5z"/>
	<path class="lexicon-icon-outline order-list-up-line-2" d="M288,288.5h128c17.7,0,32-14.3,32-32s-14.3-32-32-32H288c-17.7,0-32,14.3-32,32S270.3,288.5,288,288.5z"/>
	<path class="lexicon-icon-outline order-list-up-line-3" d="M480,352.5H288c-17.7,0-32,14.3-32,32s14.3,32,32,32h192c17.7,0,32-14.3,32-32S497.7,352.5,480,352.5z"/>
	<path class="lexicon-icon-outline order-list-up-arrow-up" d="M131.8,9.5C125.4,3.4,116.9,0,108,0S90.6,3.4,84.2,9.5L9.9,80.9c-13.2,12.7-13.2,33.1,0,45.7c6.5,6.3,15.2,9.5,23.8,9.5c8.6,0,17.2-3.2,23.8-9.5L74.8,110v370.1c0,17.7,14.8,31.9,33.2,31.9c18.4,0,33.2-14.3,33.2-31.9V110l17.3,16.7c13.2,12.7,34.5,12.7,47.5,0c13.3-12.7,13.3-33.2,0.1-45.8L131.8,9.5z"/>
</svg>