<!--
* SPDX-FileCopyrightText: © 2020 Liferay, Inc. <https://liferay.com>
* SPDX-FileCopyrightText: © 2020 Contributors to the project Clay <https://github.com/liferay/clay/graphs/contributors>
*
* SPDX-License-Identifier: BSD-3-Clause
-->
<svg viewBox="0 0 16 16" xmlns="http://www.w3.org/2000/svg"><path fill-rule="evenodd" clip-rule="evenodd" d="M14.499 7.002H9.57c-.528 0-.612-.578-.35-.853l4.087-4.147H9.571c-.66 0-.65-1 0-1h4.928c.4 0 .684.5.35.853L10.76 6.002h3.74c.656 0 .659 1 0 1Zm.456 7.305-2.465-6c-.154-.37-.757-.37-.91 0l-2.465 6c-.234.62.65.978.91.385l.496-1.21 3.04.038.482 1.175c.275.631 1.162.184.912-.388ZM10.93 12.49l1.103-2.687 1.116 2.712-2.219-.025Zm-6.143 1.22 2.09-2.122c.925-.938-.478-2.344-1.393-1.416l-.35.354V2.943c0-1.34-1.972-1.331-1.972 0v7.7l-.465-.473c-.947-.956-2.31.488-1.394 1.416l2.078 2.106a.02.02 0 0 1 .006.01l.006.009a.975.975 0 0 0 1.394 0Z"/></svg>
