<!--
* SPDX-FileCopyrightText: © 2020 Liferay, Inc. <https://liferay.com>
* SPDX-FileCopyrightText: © 2020 Contributors to the project Clay <https://github.com/liferay/clay/graphs/contributors>
*
* SPDX-License-Identifier: BSD-3-Clause
-->
<svg  viewBox="0 0 16 16" xmlns="http://www.w3.org/2000/svg">
<path class="lexicon-icon-outline" d="M15.693 12.0232C15.4915 11.8271 15.2259 11.7275 14.9603 11.7275C14.6947 11.7275 14.4291 11.8271 14.2276 12.0232L13.6932 12.543V1.00063C13.6932 0.449653 13.2357 0.0045166 12.6693 0.0045166C12.103 0.0045166 11.6454 0.449653 11.6454 1.00063V12.543L11.1111 12.0232C10.7047 11.6279 10.0487 11.6279 9.64559 12.0232C9.23922 12.4185 9.23922 13.0567 9.64559 13.4489L11.9366 15.6777C12.1318 15.8676 12.3941 15.9734 12.6693 15.9734C12.9445 15.9734 13.2069 15.8676 13.402 15.6777L15.693 13.4489C16.0994 13.0535 16.0994 12.4154 15.693 12.0232Z" />
<path class="lexicon-icon-outline" d="M6.35002 2.56016L4.05903 0.331364C3.86385 0.141481 3.60147 0.0356445 3.3263 0.0356445C3.05112 0.0356445 2.78875 0.141481 2.59356 0.331364L0.302575 2.56016C-0.103788 2.95549 -0.103788 3.59362 0.302575 3.98584C0.504156 4.18195 0.769732 4.28156 1.03531 4.28156C1.30088 4.28156 1.56646 4.18195 1.76804 3.98584L2.30239 3.46599V15.0084C2.30239 15.5594 2.75995 16.0045 3.3263 16.0045C3.89265 16.0045 4.3502 15.5594 4.3502 15.0084V3.46599L4.88456 3.98584C5.29092 4.38117 5.94686 4.38117 6.35002 3.98584C6.75638 3.59051 6.75638 2.95238 6.35002 2.56016Z" />
</svg>
