<!--
* SPDX-FileCopyrightText: © 2020 Liferay, Inc. <https://liferay.com>
* SPDX-FileCopyrightText: © 2020 Contributors to the project Clay <https://github.com/liferay/clay/graphs/contributors>
*
* SPDX-License-Identifier: BSD-3-Clause
-->
<svg viewBox="0 0 16 16" xmlns="http://www.w3.org/2000/svg"><path d="m.309 13.473 2.323 2.233c.198.19.464.296.743.296.279 0 .545-.106.743-.296l2.323-2.233a.98.98 0 0 0 0-1.429 1.071 1.071 0 0 0-.743-.296c-.27 0-.539.1-.743.296l-.542.521V1c0-.552-.464-.998-1.038-.998C2.8.002 2.337.448 2.337 1v11.565l-.542-.52a1.078 1.078 0 0 0-1.486 0 .98.98 0 0 0 0 1.428Z"/><path fill-rule="evenodd" clip-rule="evenodd" d="M12 12.002a.998.998 0 0 1-.998 1h-2a1.002 1.002 0 0 1-1.002-1 .998.998 0 0 1 .998-1h2c.552 0 1.001.448 1.002 1Zm-4-4a1 1 0 0 1 1-1h4a1 1 0 1 1 0 2H9a1 1 0 0 1-1-1Zm0-4a1 1 0 0 1 1-1h6a1 1 0 1 1 0 2H9a1 1 0 0 1-1-1Z"/></svg>
