<!--
* SPDX-FileCopyrightText: © 2020 Liferay, Inc. <https://liferay.com>
* SPDX-FileCopyrightText: © 2020 Contributors to the project Clay <https://github.com/liferay/clay/graphs/contributors>
*
* SPDX-License-Identifier: BSD-3-Clause
-->
<svg  viewBox="0 0 16 16" xmlns="http://www.w3.org/2000/svg">
<path class="lexicon-icon-outline" fill-rule="evenodd" clip-rule="evenodd" d="M12.0003 4.01688C12.0014 3.46459 11.5545 3.01688 11.0022 3.01688L9.00215 3.01691C8.44987 3.01691 8.00131 3.46464 8.00025 4.01693C7.99919 4.56922 8.44604 5.01694 8.99831 5.01693L10.9984 5.01691C11.5507 5.0169 11.9992 4.56917 12.0003 4.01688Z" />
<path class="lexicon-icon-outline" fill-rule="evenodd" clip-rule="evenodd" d="M8.00025 8.01693C8.00025 8.56922 8.44796 9.01693 9.00025 9.01693H13.0002C13.5525 9.01693 14.0002 8.56922 14.0002 8.01693C14.0002 7.46465 13.5525 7.01693 13.0002 7.01693H9.00025C8.44796 7.01693 8.00025 7.46465 8.00025 8.01693Z" />
<path class="lexicon-icon-outline" fill-rule="evenodd" clip-rule="evenodd" d="M8.00025 12.0169C8.00025 12.5692 8.44796 13.0169 9.00025 13.0169H15.0002C15.5525 13.0169 16.0002 12.5692 16.0002 12.0169C16.0002 11.4646 15.5525 11.0169 15.0002 11.0169H9.00025C8.44796 11.0169 8.00025 11.4646 8.00025 12.0169Z" />
<path class="lexicon-icon-outline" d="M6.44121 2.53188L4.11821 0.298738C3.92031 0.108485 3.65426 0.00244136 3.37524 0.00244141C3.09622 0.00244145 2.83018 0.108485 2.63227 0.298738L0.309274 2.53188C-0.102766 2.92798 -0.102766 3.56735 0.309274 3.96034C0.513673 4.15683 0.782959 4.25663 1.05224 4.25663C1.32153 4.25663 1.59082 4.15683 1.79522 3.96034L2.33703 3.43948L2.33703 15.0044C2.33703 15.5564 2.80099 16.0024 3.37525 16.0024C3.94951 16.0024 4.41346 15.5564 4.41346 15.0044L4.41346 3.43948L4.95527 3.96034C5.36731 4.35644 6.03242 4.35644 6.44121 3.96034C6.85325 3.56423 6.85325 2.92486 6.44121 2.53188Z" />
</svg>
