<!--
* SPDX-FileCopyrightText: © 2022 Liferay, Inc. <https://liferay.com>
* SPDX-FileCopyrightText: © 2022 Contributors to the project Clay <https://github.com/liferay/clay/graphs/contributors>
*
* SPDX-License-Identifier: BSD-3-Clause
-->
<svg viewBox="0 0 16 16" xmlns="http://www.w3.org/2000/svg"><path fill-rule="evenodd" clip-rule="evenodd" d="M11.001 2.002h-9v12h4.5c1.29 0 1.29 2 0 2H2a2.002 2.002 0 0 1-2.001-2v-12c0-1.103.897-2 2-2H11c1.103 0 2 .897 2 2v4c0 1.29-2 1.29-2 0v-4Zm-2 2H4c-1.291 0-1.291 2 0 2h5c1.288 0 1.288-2 0-2Zm-5 3c-1.291 0-1.291 2 0 2h3c1.29 0 1.29-2 0-2H4Zm1 3H4c-1.291 0-1.291 2 0 2h1c1.29 0 1.29-2 0-2Zm10.044 2.388c.035-.24-.01-.613-.031-.781.06-.041 1.275-.516.913-1.15l-.557-.985c-.353-.631-1.378.116-1.44.144-.2-.163-.535-.34-.779-.438-.01-.062.031-1.178-.6-1.178h-1.094c-.662 0-.59 1.103-.597 1.166a3.83 3.83 0 0 0-.784.453c-.056-.028-1.04-.756-1.381-.234l-.622.953c-.363.587.834 1.215.893 1.262-.024.182-.046.55-.009.794-.06.04-1.225.566-.887 1.166l.606 1.006c.375.616 1.34-.163 1.397-.19.206.159.537.362.784.456.007.062-.05 1.162.585 1.162l1.125.003c.644 0 .575-1.112.581-1.172.29-.115.582-.272.788-.434.065.028 1.144.722 1.478.125l.525-.938c.338-.55-.834-1.146-.894-1.19Zm-3.04.975c-1.62 0-1.726-2.5 0-2.5 1.696.003 1.618 2.5 0 2.5Z"/></svg>
