<!--
* SPDX-FileCopyrightText: © 2020 Liferay, Inc. <https://liferay.com>
* SPDX-FileCopyrightText: © 2020 Contributors to the project Clay <https://github.com/liferay/clay/graphs/contributors>
*
* SPDX-License-Identifier: BSD-3-Clause
-->
<svg  viewBox="0 0 16 16" xmlns="http://www.w3.org/2000/svg">
<path class="lexicon-icon-outline" d="M2.00024 2.00244H12.5002C12.5002 3.29307 14.5002 3.29307 14.5002 2.00244C14.5002 0.899316 13.6034 0.00244141 12.5002 0.00244141H2.00024C0.897119 0.00244141 0.000244141 0.899316 0.000244141 2.00244V14.0024C0.000244141 15.1056 0.897119 16.0024 2.00024 16.0024H8.00024C9.29087 16.0024 9.29087 14.0024 8.00024 14.0024H2.00024V2.00244Z" />
<path class="lexicon-icon-outline" d="M5.00024 4.00244H9.50024C10.7909 4.00244 10.7909 6.00244 9.50024 6.00244H5.00024C3.70962 6.00244 3.70962 4.00244 5.00024 4.00244Z" />
<path class="lexicon-icon-outline" d="M8.00024 7.00244H5.00024C3.70962 7.00244 3.70962 9.00244 5.00024 9.00244H8.00024C9.29087 9.00244 9.29087 7.00244 8.00024 7.00244Z" />
<path class="lexicon-icon-outline" d="M5.00024 10.0024C3.70962 10.0024 3.70962 12.0024 5.00024 12.0024H8.00024C9.29087 12.0024 9.29087 10.0024 8.00024 10.0024H5.00024Z" />
<path class="lexicon-icon-outline" fill-rule="evenodd" clip-rule="evenodd" d="M10.5971 6.45244L10.594 13.2993C10.594 16.9274 16.0002 16.8774 16.0002 13.3024V6.50244L13.2971 3.82432L10.5971 6.45244ZM12.394 7.34307L13.294 6.45244L14.194 7.34307L14.1971 11.0024H12.3971L12.394 7.34307ZM14.194 13.0024H12.394C12.1784 14.5962 14.394 14.6181 14.194 13.0024Z" />
</svg>
