<!--
* SPDX-FileCopyrightText: © 2020 Liferay, Inc. <https://liferay.com>
* SPDX-FileCopyrightText: © 2020 Contributors to the project Clay <https://github.com/liferay/clay/graphs/contributors>
*
* SPDX-License-Identifier: BSD-3-Clause
-->
<svg  viewBox="0 0 16 16" xmlns="http://www.w3.org/2000/svg">
<path class="lexicon-icon-outline" fill-rule="evenodd" clip-rule="evenodd" d="M14.4989 7.0019H9.57119C9.04311 7.0019 8.95874 6.42383 9.22122 6.14885L13.3084 2.00235H9.57119C8.91187 2.00235 8.92125 1.00244 9.57119 1.00244H14.4989C14.8988 1.00244 15.1832 1.5024 14.8488 1.85549L10.7617 6.00199H14.4989C15.1551 6.00199 15.1582 7.0019 14.4989 7.0019ZM14.9553 14.3075L12.4899 8.30803C12.3368 7.93618 11.7337 7.93618 11.5806 8.30803L9.11517 14.3075C8.88082 14.9262 9.76511 15.2855 10.0245 14.6918L10.5213 13.4826L13.5616 13.5201L14.0429 14.695C14.3178 15.3261 15.2052 14.8793 14.9553 14.3075ZM10.9306 12.4889L12.0337 9.80164L13.1492 12.5139L10.9306 12.4889ZM4.78734 13.7107L6.87778 11.589C7.8027 10.6516 6.3997 9.24547 5.48415 10.1735L5.13419 10.5266V2.94291C5.13419 1.60241 3.16249 1.61178 3.16249 2.94291V10.6422L2.69691 10.1704C1.75012 9.21422 0.387739 10.6578 1.30328 11.5859L3.38122 13.6919C3.38434 13.6951 3.38591 13.6982 3.38747 13.7013C3.38903 13.7044 3.39059 13.7076 3.39372 13.7107C3.77806 14.1013 4.403 14.1013 4.78734 13.7107Z" />
</svg>
