<!--
* SPDX-FileCopyrightText: © 2020 Liferay, Inc. <https://liferay.com>
* SPDX-FileCopyrightText: © 2020 Contributors to the project Clay <https://github.com/liferay/clay/graphs/contributors>
*
* SPDX-License-Identifier: BSD-3-Clause
-->
<svg  viewBox="0 0 16 16" xmlns="http://www.w3.org/2000/svg">
<path class="lexicon-icon-outline" d="M0.309152 13.473L2.63215 15.7061C2.83006 15.8964 3.0961 16.0024 3.37512 16.0024C3.65414 16.0024 3.92018 15.8964 4.11809 15.7061L6.44109 13.473C6.85313 13.0769 6.85313 12.4375 6.44109 12.0445C6.23669 11.8481 5.96741 11.7483 5.69812 11.7483C5.42884 11.7483 5.15955 11.8481 4.95515 12.0445L4.41333 12.5654L4.41333 1.00049C4.41333 0.448445 3.94938 0.00244136 3.37512 0.00244141C2.80086 0.00244146 2.33691 0.448445 2.33691 1.00049L2.33691 12.5654L1.79509 12.0445C1.38305 11.6484 0.717948 11.6484 0.309152 12.0445C-0.102888 12.4406 -0.102888 13.08 0.309152 13.473Z" />
<path class="lexicon-icon-outline" fill-rule="evenodd" clip-rule="evenodd" d="M12.0003 12.0025C12.0013 12.5548 11.5545 13.0025 11.0022 13.0025L9.00211 13.0025C8.44983 13.0025 8.00127 12.5548 8.00021 12.0025C7.99915 11.4502 8.446 11.0025 8.99827 11.0025L10.9984 11.0025C11.5506 11.0025 11.9992 11.4502 12.0003 12.0025Z" />
<path class="lexicon-icon-outline" fill-rule="evenodd" clip-rule="evenodd" d="M8.00019 8.0025C8.00019 7.45021 8.44791 7.0025 9.00019 7.0025H13.0002C13.5525 7.0025 14.0002 7.45021 14.0002 8.0025C14.0002 8.55478 13.5525 9.0025 13.0002 9.0025H9.00019C8.44791 9.0025 8.00019 8.55478 8.00019 8.0025Z" />
<path class="lexicon-icon-outline" fill-rule="evenodd" clip-rule="evenodd" d="M8.00019 4.00244C8.00019 3.45015 8.44791 3.00244 9.00019 3.00244H15.0002C15.5525 3.00244 16.0002 3.45015 16.0002 4.00244C16.0002 4.55472 15.5525 5.00244 15.0002 5.00244L9.00019 5.00244C8.44791 5.00244 8.00019 4.55472 8.00019 4.00244Z" />
</svg>
