<!--
* SPDX-FileCopyrightText: © 2022 Liferay, Inc. <https://liferay.com>
* SPDX-FileCopyrightText: © 2022 Contributors to the project Clay <https://github.com/liferay/clay/graphs/contributors>
*
* SPDX-License-Identifier: BSD-3-Clause
-->
<svg viewBox="0 0 16 16" xmlns="http://www.w3.org/2000/svg"><path d="M5 6.004c-1.369 0-1.278-2 0-2h5c1.328 0 1.338 2 0 2H5Zm0 3c-1.369 0-1.278-2 0-2h5c1.328 0 1.338 2 0 2H5Zm0 1c-1.278 0-1.369 2 0 2h5c1.338 0 1.328-2 0-2H5Z"/><path fill-rule="evenodd" clip-rule="evenodd" d="M3 .004c-1.103 0-2 .897-2 2v12c0 1.104.897 2 2 2h9c1.103 0 2-.897 2-2v-12c0-1.103-.897-2-2-2H3Zm9 2H3v12h9v-12Z"/></svg>
