<!--
* SPDX-FileCopyrightText: © 2020 Liferay, Inc. <https://liferay.com>
* SPDX-FileCopyrightText: © 2020 Contributors to the project Clay <https://github.com/liferay/clay/graphs/contributors>
*
* SPDX-License-Identifier: BSD-3-Clause
-->
<svg xmlns="http://www.w3.org/2000/svg" viewBox="0 0 512 512" style="enable-background:new 0 0 512 512;">
	<path class="lexicon-icon-outline order-descending-item-1" d="M464,224H306.3c-16.9,0-19.6-18.5-11.2-27.3L425.9,64H306.3c-21.1,0-20.8-32,0-32H464c12.8,0,21.9,16,11.2,27.3L344.4,192 H464C485,192,485.1,224,464,224z"/>
	<path class="lexicon-icon-outline order-descending-item-2" d="M478.6,457.8l-78.9-192c-4.9-11.9-24.2-11.9-29.1,0l-78.9,192c-7.5,19.8,20.8,31.3,29.1,12.3l15.9-38.7l97.3,1.2l15.4,37.6 C458.2,490.4,486.6,476.1,478.6,457.8z M349.8,399.6l35.3-86l35.7,86.8L349.8,399.6z"/>
	<path class="lexicon-icon-outline order-descending-item-3" d="M220.1,370.8l-66.9,67.9c-12.3,12.5-32.3,12.5-44.6,0c-0.2-0.2-0.2-0.4-0.4-0.6l-66.5-67.4C12.4,341,56,294.8,86.3,325.4 l14.9,15.1V94.1c0-42.6,63.1-42.9,63.1,0v242.7l11.2-11.3C204.8,295.8,249.7,340.8,220.1,370.8z"/>
</svg>
