<!--
* SPDX-FileCopyrightText: © 2022 Liferay, Inc. <https://liferay.com>
* SPDX-FileCopyrightText: © 2022 Contributors to the project Clay <https://github.com/liferay/clay/graphs/contributors>
*
* SPDX-License-Identifier: BSD-3-Clause
-->
<svg viewBox="0 0 16 16" xmlns="http://www.w3.org/2000/svg"><path d="M2 2.002h10.5c0 1.29 2 1.29 2 0 0-1.103-.897-2-2-2H2c-1.103 0-2 .897-2 2v12c0 1.103.897 2 2 2h6c1.29 0 1.29-2 0-2H2v-12Z"/><path d="M5 4.002h4.5c1.29 0 1.29 2 0 2H5c-1.29 0-1.29-2 0-2Zm3 3H5c-1.29 0-1.29 2 0 2h3c1.29 0 1.29-2 0-2Zm-3 3c-1.29 0-1.29 2 0 2h3c1.29 0 1.29-2 0-2H5Z"/><path fill-rule="evenodd" clip-rule="evenodd" d="m10.597 6.452-.003 6.847c0 3.628 5.406 3.578 5.406.003v-6.8l-2.703-2.678-2.7 2.628Zm1.797.89.9-.89.9.89.003 3.66h-1.8l-.003-3.66Zm1.8 5.66h-1.8c-.216 1.594 2 1.616 1.8 0Z"/></svg>
