<!--
* SPDX-FileCopyrightText: © 2020 Liferay, Inc. <https://liferay.com>
* SPDX-FileCopyrightText: © 2020 Contributors to the project Clay <https://github.com/liferay/clay/graphs/contributors>
*
* SPDX-License-Identifier: BSD-3-Clause
-->
<svg  viewBox="0 0 16 16" xmlns="http://www.w3.org/2000/svg">
<path class="lexicon-icon-outline" fill-rule="evenodd" clip-rule="evenodd" d="M14.954 7.2935L12.4885 1.28133C12.3354 0.909478 11.7323 0.909478 11.5792 1.28133L9.11368 7.2935C8.87932 7.91221 9.76365 8.27469 10.023 7.67785L10.5199 6.46542L13.5603 6.50292L14.0415 7.67785C14.3165 8.31219 15.204 7.86534 14.954 7.2935ZM10.9292 5.4686L12.0323 2.775L13.1478 5.4936L10.9292 5.4686ZM14.4978 15.0024H9.56991C9.04181 15.0024 8.95744 14.4212 9.21993 14.1462L13.3072 9.99022H9.56991C8.91057 9.99022 8.91994 8.98715 9.56991 8.98715H14.4978C14.8977 8.98715 15.1821 9.49025 14.8477 9.84335L10.7605 13.9994H14.4978C15.154 13.9994 15.1571 15.0024 14.4978 15.0024ZM4.7858 2.20941L6.87631 4.33429C7.80125 5.27486 6.39821 6.68415 5.48263 5.74983L5.13265 5.39673V12.9963C5.13265 14.34 3.16089 14.3306 3.16089 12.9963V5.28111L2.69529 5.75608C1.75159 6.71853 0.389168 5.26861 1.30162 4.34054L3.37963 2.22815C3.38275 2.22503 3.38431 2.2219 3.38588 2.21878C3.38744 2.21565 3.389 2.21253 3.39213 2.20941C3.77648 1.8188 4.40144 1.8188 4.7858 2.20941Z" />
</svg>
