<!--
* SPDX-FileCopyrightText: © 2020 Liferay, Inc. <https://liferay.com>
* SPDX-FileCopyrightText: © 2020 Contributors to the project Clay <https://github.com/liferay/clay/graphs/contributors>
*
* SPDX-License-Identifier: BSD-3-Clause
-->
<svg viewBox="0 0 16 16" xmlns="http://www.w3.org/2000/svg"><path fill-rule="evenodd" clip-rule="evenodd" d="M14 10.002h.625c.758 0 1.375.617 1.375 1.375v3.25c0 .758-.617 1.375-1.375 1.375h-3.25A1.377 1.377 0 0 1 10 14.627v-3.25c0-.758.617-1.375 1.375-1.375H12v-1H4v1h.625c.758 0 1.375.617 1.375 1.375v3.25c0 .758-.617 1.375-1.375 1.375h-3.25A1.377 1.377 0 0 1 0 14.627v-3.25c0-.758.617-1.375 1.375-1.375H2v-2a1 1 0 0 1 1-1h4v-1h-.625A1.377 1.377 0 0 1 5 4.627v-3.25C5 .62 5.617.002 6.375.002h3.25C10.383.002 11 .62 11 1.377v3.25c0 .759-.617 1.375-1.375 1.375H9v1h4a1 1 0 0 1 1 1v2Zm-5-8H7v2h2v-2Zm-7 12v-2h2v2H2Zm10-2v2h2v-2h-2Z"/></svg>
