<!--
* SPDX-FileCopyrightText: © 2020 Liferay, Inc. <https://liferay.com>
* SPDX-FileCopyrightText: © 2020 Contributors to the project Clay <https://github.com/liferay/clay/graphs/contributors>
*
* SPDX-License-Identifier: BSD-3-Clause
-->
<svg  viewBox="0 0 16 16" xmlns="http://www.w3.org/2000/svg">
<path class="lexicon-icon-outline" fill-rule="evenodd" clip-rule="evenodd" d="M14.0002 10.0024H14.6252C15.3831 10.0024 16.0002 10.6193 16.0002 11.3774V14.6274C16.0002 15.3856 15.3831 16.0024 14.6252 16.0024H11.3752C10.6174 16.0024 10.0002 15.3856 10.0002 14.6274V11.3774C10.0002 10.6193 10.6174 10.0024 11.3752 10.0024H12.0002V9.00244H4.00024V10.0024H4.62524C5.38306 10.0024 6.00024 10.6193 6.00024 11.3774V14.6274C6.00024 15.3856 5.38306 16.0024 4.62524 16.0024H1.37524C0.617432 16.0024 0.000244141 15.3856 0.000244141 14.6274V11.3774C0.000244141 10.6193 0.617432 10.0024 1.37524 10.0024H2.00024V8.00244C2.00024 7.45013 2.44751 7.00244 3.00024 7.00244H7.00024V6.00244H6.37524C5.61743 6.00244 5.00024 5.38562 5.00024 4.62744V1.37744C5.00024 0.619263 5.61743 0.00244141 6.37524 0.00244141H9.62524C10.3831 0.00244141 11.0002 0.619263 11.0002 1.37744V4.62744C11.0002 5.38562 10.3831 6.00244 9.62524 6.00244H9.00024V7.00244H13.0002C13.553 7.00244 14.0002 7.45013 14.0002 8.00244V10.0024ZM9.00024 2.00244H7.00024V4.00244H9.00024V2.00244ZM2.00024 14.0024V12.0024H4.00024V14.0024H2.00024ZM12.0002 12.0024V14.0024H14.0002V12.0024H12.0002Z" />
</svg>
