<!--
* SPDX-FileCopyrightText: © 2020 Liferay, Inc. <https://liferay.com>
* SPDX-FileCopyrightText: © 2020 Contributors to the project Clay <https://github.com/liferay/clay/graphs/contributors>
*
* SPDX-License-Identifier: BSD-3-Clause
-->
<svg viewBox="0 0 16 16" xmlns="http://www.w3.org/2000/svg"><path d="M5.013 9.002h3.962c0 .55.453 1 1.006 1h2.013c.56 0 1.006-.45 1.006-1v-2c0-.556-.453-1-1.006-1H9.98c-.56 0-1.006.45-1.006 1v1H5.013v-4h1.006c.56 0 1.006-.45 1.006-1v-2c0-.556-.453-1-1.006-1H4.006c-.56 0-1.006.45-1.006 1v2c0 .55.453 1 1.006 1v11h4.969c0 .55.453 1 1.006 1h2.013c.56 0 1.006-.45 1.006-1v-2c0-.556-.453-1-1.006-1H9.98c-.56 0-1.006.45-1.006 1v1H5.013v-5Z"/></svg>
