<!--
* SPDX-FileCopyrightText: © 2022 Liferay, Inc. <https://liferay.com>
* SPDX-FileCopyrightText: © 2022 Contributors to the project Clay <https://github.com/liferay/clay/graphs/contributors>
*
* SPDX-License-Identifier: BSD-3-Clause
-->
<svg viewBox="0 0 16 16" xmlns="http://www.w3.org/2000/svg"><path class="lexicon-icon-outline" fill-rule="evenodd" clip-rule="evenodd" d="M13.879.882a3 3 0 0 0-2.123-.88H1.981A1.983 1.983 0 0 0 0 1.986v12.032c0 1.096.888 1.984 1.981 1.984h11.881c1.094 0 2.138-.888 2.138-1.983V4.246a3 3 0 0 0-.877-2.12L13.879.882ZM14 13.937a.259.259 0 0 1-.138.063H2V2.004h8V5.01a1 1 0 0 0 1 1h3v7.928Z"/></svg>