<!--
* SPDX-FileCopyrightText: © 2020 Liferay, Inc. <https://liferay.com>
* SPDX-FileCopyrightText: © 2020 Contributors to the project Clay <https://github.com/liferay/clay/graphs/contributors>
*
* SPDX-License-Identifier: BSD-3-Clause
-->
<svg viewBox="0 0 16 16" xmlns="http://www.w3.org/2000/svg"><path d="M9 3.008H3v3.004h6V3.008ZM3 7.013h6v6.007H3V7.013Zm10 0h-3v6.007h3V7.013Z"/><path fill-rule="evenodd" clip-rule="evenodd" d="M1.98.004h9.776a3 3 0 0 1 2.123.88l1.244 1.246A3 3 0 0 1 16 4.25v9.771c0 1.096-1.043 1.983-2.137 1.983H1.98A1.982 1.982 0 0 1 0 14.021V1.987C0 .892.887.004 1.98.004Zm11.883 13.998a.26.26 0 0 0 .137-.063V6.012h-3a1 1 0 0 1-1-1V2.007H2v11.995h11.863Z"/></svg>
