<!--
* SPDX-FileCopyrightText: © 2020 Liferay, Inc. <https://liferay.com>
* SPDX-FileCopyrightText: © 2020 Contributors to the project Clay <https://github.com/liferay/clay/graphs/contributors>
*
* SPDX-License-Identifier: BSD-3-Clause
-->
<svg  viewBox="0 0 16 16" xmlns="http://www.w3.org/2000/svg">
<path class="lexicon-icon-outline" d="M5.01282 9.00244H8.97509C8.97509 9.55244 9.42792 10.0024 9.98138 10.0024H11.994C12.5537 10.0024 13.0002 9.55244 13.0002 9.00244V7.00244C13.0002 6.44619 12.5474 6.00244 11.994 6.00244H9.98138C9.42163 6.00244 8.97509 6.45244 8.97509 7.00244V8.00244H5.01282V4.00244H6.01911C6.57886 4.00244 7.0254 3.55244 7.0254 3.00244V1.00244C7.0254 0.446191 6.57257 0.00244141 6.01911 0.00244141H4.00653C3.44679 0.00244141 3.00024 0.452441 3.00024 1.00244V3.00244C3.00024 3.55244 3.45307 4.00244 4.00653 4.00244V15.0024H8.97509C8.97509 15.5524 9.42792 16.0024 9.98138 16.0024H11.994C12.5537 16.0024 13.0002 15.5524 13.0002 15.0024V13.0024C13.0002 12.4462 12.5474 12.0024 11.994 12.0024H9.98138C9.42163 12.0024 8.97509 12.4524 8.97509 13.0024V14.0024H5.01282V9.00244Z" />
</svg>
