<!--
* SPDX-FileCopyrightText: © 2020 Liferay, Inc. <https://liferay.com>
* SPDX-FileCopyrightText: © 2020 Contributors to the project Clay <https://github.com/liferay/clay/graphs/contributors>
*
* SPDX-License-Identifier: BSD-3-Clause
-->
<svg  viewBox="0 0 16 16" xmlns="http://www.w3.org/2000/svg">
<path class="lexicon-icon-outline" d="M9.00024 3.00818H3.00024V6.01185H9.00024V3.00818Z" />
<path class="lexicon-icon-outline" d="M3.00024 7.01307H9.00024V13.0204H3.00024V7.01307Z" />
<path class="lexicon-icon-outline" d="M13.0002 7.01307H10.0002V13.0204H13.0002V7.01307Z" />
<path class="lexicon-icon-outline" fill-rule="evenodd" clip-rule="evenodd" d="M1.98071 0.0045166H11.7565C12.5528 0.0045166 13.3164 0.32109 13.8791 0.884492L15.1229 2.12973C15.6847 2.69223 16.0002 3.45474 16.0002 4.24975V14.0216C16.0002 15.1167 14.9573 16.0045 13.8635 16.0045H1.98071C0.886963 16.0045 0.000244141 15.1167 0.000244141 14.0216V1.98741C0.000244141 0.892319 0.886963 0.0045166 1.98071 0.0045166ZM13.8635 14.0021C13.9026 14.0021 13.9641 13.9705 14.0002 13.9394V6.01185H11.0002C10.448 6.01185 10.0002 5.56414 10.0002 5.01185V2.00696H2.00024V14.0021H13.8635Z" />
</svg>
