<!--
* SPDX-FileCopyrightText: © 2022 Liferay, Inc. <https://liferay.com>
* SPDX-FileCopyrightText: © 2022 Contributors to the project Clay <https://github.com/liferay/clay/graphs/contributors>
*
* SPDX-License-Identifier: BSD-3-Clause
-->
<svg viewBox="0 0 16 16" xmlns="http://www.w3.org/2000/svg"><path class="lexicon-icon-outline" d="M9 3.002H3v3h6v-3Zm-6 4h6v6H3v-6Zm10 0h-3v6h3v-6Z"/><path class="lexicon-icon-outline" fill-rule="evenodd" clip-rule="evenodd" d="M1.98.002h9.777a3 3 0 0 1 2.122.879l1.242 1.242A3 3 0 0 1 16 4.245v9.757c0 1.094-1.043 1.98-2.137 1.98H1.98A1.98 1.98 0 0 1 0 14.002V1.982A1.98 1.98 0 0 1 1.98.003Zm11.883 13.98A.26.26 0 0 0 14 13.92V6.002h-3a1 1 0 0 1-1-1v-3H2v11.98h11.863Z"/></svg>