<!--
* SPDX-FileCopyrightText: © 2020 Liferay, Inc. <https://liferay.com>
* SPDX-FileCopyrightText: © 2020 Contributors to the project Clay <https://github.com/liferay/clay/graphs/contributors>
*
* SPDX-License-Identifier: BSD-3-Clause
-->
<svg  viewBox="0 0 16 16" xmlns="http://www.w3.org/2000/svg">
<path class="lexicon-icon-outline" d="M14.1565 1.8879C13.6116 1.31797 12.8876 1.00452 12.1176 1.00452C11.3476 1.00452 10.6235 1.31794 10.0787 1.8879L3.86393 8.3876C3.47808 8.79119 3.27466 9.30073 3.2889 9.8243C3.30313 10.3155 3.50735 10.7908 3.86307 11.1638C4.21714 11.5341 4.68918 11.739 5.19056 11.739C5.69193 11.739 6.16398 11.5341 6.51802 11.1638L9.8518 7.67667C10.1381 7.37725 10.1381 6.89223 9.8518 6.59367C9.56554 6.29511 9.10185 6.29424 8.81642 6.59367L5.48178 10.0808C5.32691 10.2436 5.05574 10.2445 4.89922 10.0808C4.80799 9.98537 4.7561 9.87854 4.75274 9.7805C4.75023 9.67982 4.7996 9.57652 4.89922 9.47233L11.114 2.97174C11.6505 2.41141 12.5846 2.41141 13.1211 2.97174C13.6743 3.55045 13.6743 4.4925 13.1211 5.07118L5.83836 12.6889C4.839 13.7334 3.21267 13.7342 2.21329 12.6889C1.21391 11.6436 1.21394 9.94243 2.21329 8.89708L7.3918 3.48039C7.67806 3.181 7.67806 2.69595 7.3918 2.39739C7.10554 2.09799 6.64185 2.09799 6.35641 2.39739L1.17791 7.81407C-0.39231 9.45651 -0.39231 12.1303 1.17791 13.7727C1.96303 14.5939 2.99505 15.0045 4.02624 15.0045C5.05828 15.0045 6.08944 14.5939 6.87456 13.7727L14.1573 6.15502C15.2814 4.97745 15.2814 3.06451 14.1565 1.88784L14.1565 1.8879Z" />
</svg>
