<!--
* SPDX-FileCopyrightText: © 2022 Liferay, Inc. <https://liferay.com>
* SPDX-FileCopyrightText: © 2022 Contributors to the project Clay <https://github.com/liferay/clay/graphs/contributors>
*
* SPDX-License-Identifier: BSD-3-Clause
-->
<svg viewBox="0 0 16 16" xmlns="http://www.w3.org/2000/svg"><path class="lexicon-icon-outline" d="M14.156 1.885a2.802 2.802 0 0 0-2.039-.883c-.77 0-1.494.313-2.039.883l-6.214 6.5c-.386.404-.59.913-.575 1.437.014.491.218.966.574 1.34a1.823 1.823 0 0 0 2.655-.001l3.334-3.487a.79.79 0 0 0 0-1.083.71.71 0 0 0-1.036 0l-3.334 3.487a.408.408 0 0 1-.583 0 .476.476 0 0 1-.147-.3c-.002-.1.047-.204.147-.308l6.215-6.5a1.407 1.407 0 0 1 2.007 0c.553.578.553 1.52 0 2.099l-7.283 7.617a2.488 2.488 0 0 1-3.625 0c-1-1.045-1-2.746 0-3.791l5.179-5.417a.79.79 0 0 0 0-1.083.709.709 0 0 0-1.036 0L1.178 7.812c-1.57 1.642-1.57 4.316 0 5.958a3.928 3.928 0 0 0 2.848 1.232c1.032 0 2.063-.41 2.848-1.232l7.283-7.617c1.124-1.178 1.124-3.09 0-4.268Z"/></svg>