<!--
* SPDX-FileCopyrightText: © 2020 Liferay, Inc. <https://liferay.com>
* SPDX-FileCopyrightText: © 2020 Contributors to the project Clay <https://github.com/liferay/clay/graphs/contributors>
*
* SPDX-License-Identifier: BSD-3-Clause
-->
<svg viewBox="0 0 16 16" xmlns="http://www.w3.org/2000/svg"><path d="M14.156 1.888a2.802 2.802 0 0 0-2.039-.884c-.77 0-1.494.314-2.039.884l-6.214 6.5a1.99 1.99 0 0 0-.575 1.436c.014.491.218.967.574 1.34.354.37.826.575 1.327.575.502 0 .974-.205 1.328-.575l3.334-3.487a.79.79 0 0 0 0-1.083.71.71 0 0 0-1.036 0L5.482 10.08a.408.408 0 0 1-.583 0 .477.477 0 0 1-.147-.3c-.002-.101.047-.205.147-.309l6.215-6.5c.536-.56 1.47-.56 2.007 0 .553.578.553 1.52 0 2.1l-7.283 7.617a2.488 2.488 0 0 1-3.625 0c-1-1.046-1-2.747 0-3.792L7.392 3.48a.79.79 0 0 0 0-1.083.709.709 0 0 0-1.036 0L1.178 7.814c-1.57 1.642-1.57 4.316 0 5.959a3.928 3.928 0 0 0 2.848 1.231c1.032 0 2.063-.41 2.848-1.231l7.283-7.618c1.124-1.178 1.124-3.09 0-4.267Z"/></svg>
