<!--
* SPDX-FileCopyrightText: © 2020 Liferay, Inc. <https://liferay.com>
* SPDX-FileCopyrightText: © 2020 Contributors to the project Clay <https://github.com/liferay/clay/graphs/contributors>
*
* SPDX-License-Identifier: BSD-3-Clause
-->
<svg  viewBox="0 0 16 16" xmlns="http://www.w3.org/2000/svg">
<path class="lexicon-icon-outline" fill-rule="evenodd" clip-rule="evenodd" d="M2.28638 10.2882C2.28638 10.9203 1.77563 11.431 1.14282 11.431C0.510986 11.431 0.000244141 10.9203 0.000244141 10.2882V1.1453C0.000244141 0.513153 0.510986 0.00244141 1.14282 0.00244141H3.42896C5.32153 0.00244141 6.85767 1.53815 6.85767 3.43102C6.85767 5.32387 5.32153 6.85958 3.42896 6.85958H2.28638V10.2882ZM10.2854 0.00244141H14.8567C15.4895 0.00244141 16.0002 0.513153 16.0002 1.1453C16.0002 1.77744 15.4895 2.28815 14.8567 2.28815H10.2854C9.65356 2.28815 9.14282 1.77744 9.14282 1.1453C9.14282 0.513153 9.65356 0.00244141 10.2854 0.00244141ZM14.8567 4.57387H10.2854C9.65356 4.57387 9.14282 5.08458 9.14282 5.71673C9.14282 6.34887 9.65356 6.85958 10.2854 6.85958H14.8567C15.4895 6.85958 16.0002 6.34887 16.0002 5.71673C16.0002 5.08458 15.4895 4.57387 14.8567 4.57387ZM6.85669 9.1453H14.8567C15.4895 9.1453 16.0002 9.65601 16.0002 10.2882C16.0002 10.9203 15.4895 11.431 14.8567 11.431H6.85669C6.22485 11.431 5.71411 10.9203 5.71411 10.2882C5.71411 9.65601 6.22485 9.1453 6.85669 9.1453ZM14.8577 16.0024C15.4895 16.0024 16.0002 15.4917 16.0002 14.8596C16.0002 14.2274 15.4895 13.7167 14.8577 13.7167H3.42896C2.79712 13.7167 2.28638 14.2274 2.28638 14.8596C2.28638 15.4917 2.79712 16.0024 3.42896 16.0024H14.8577ZM3.42896 4.57387H2.28638V2.28815H3.42896C4.06177 2.28815 4.57251 2.79887 4.57251 3.43102C4.57251 4.06316 4.06177 4.57387 3.42896 4.57387Z" />
</svg>
