<!--
* SPDX-FileCopyrightText: © 2020 Liferay, Inc. <https://liferay.com>
* SPDX-FileCopyrightText: © 2020 Contributors to the project Clay <https://github.com/liferay/clay/graphs/contributors>
*
* SPDX-License-Identifier: BSD-3-Clause
-->
<svg viewBox="0 0 16 16" xmlns="http://www.w3.org/2000/svg"><path fill-rule="evenodd" clip-rule="evenodd" d="M2.286 10.288a1.142 1.142 0 1 1-2.286 0V1.145C0 .513.51.002 1.143.002h2.286a3.43 3.43 0 0 1 0 6.857H2.286v3.429Zm8-10.286h4.57a1.142 1.142 0 1 1 0 2.286h-4.57a1.14 1.14 0 0 1-1.143-1.143c0-.632.51-1.143 1.142-1.143Zm4.57 4.572h-4.57a1.14 1.14 0 0 0-1.143 1.143c0 .632.51 1.142 1.142 1.142h4.571a1.142 1.142 0 1 0 0-2.285Zm-8 4.571h8a1.142 1.142 0 1 1 0 2.286h-8c-.631 0-1.142-.51-1.142-1.143 0-.632.51-1.143 1.142-1.143Zm8.001 6.857a1.142 1.142 0 1 0 0-2.286H3.43a1.142 1.142 0 1 0 0 2.286h11.428ZM3.43 4.574H2.286V2.288H3.43a1.142 1.142 0 1 1 0 2.286Z"/></svg>
