<!--
* SPDX-FileCopyrightText: © 2022 Liferay, Inc. <https://liferay.com>
* SPDX-FileCopyrightText: © 2022 Contributors to the project Clay <https://github.com/liferay/clay/graphs/contributors>
*
* SPDX-License-Identifier: BSD-3-Clause
-->
<svg viewBox="0 0 16 16" xmlns="http://www.w3.org/2000/svg"><path class="lexicon-icon-outline" d="M5.995 6.002A3 3 0 1 0 5.997.001a3 3 0 0 0-.002 6.001Zm2.001 1.311c-7.566-2.31-12.925 7.51-1 6.651v-2.962c0-.743.402-1.391 1-1.738V7.313Z"/><path class="lexicon-icon-outline" fill-rule="evenodd" clip-rule="evenodd" d="M9.004 9v1.002h-.007a1 1 0 0 0-1 1v4a1 1 0 0 0 1 1h6.002a1 1 0 0 0 1.001-1v-4a1 1 0 0 0-1-1h-2.694V10h-1.3V9a1 1 0 0 1 1-1c.672 0 .953.638.963.63a1 1 0 0 0 1.78-.628c-.001-.267-.097-.437-.217-.622A3 3 0 0 0 9.004 9Zm1.994 5.002h2v-2h-2v2Z"/></svg>