<!--
* SPDX-FileCopyrightText: © 2020 Liferay, Inc. <https://liferay.com>
* SPDX-FileCopyrightText: © 2020 Contributors to the project Clay <https://github.com/liferay/clay/graphs/contributors>
*
* SPDX-License-Identifier: BSD-3-Clause
-->
<svg viewBox="0 0 16 16" xmlns="http://www.w3.org/2000/svg"><path d="M5.995 6.004A3 3 0 1 0 5.997.003a3 3 0 0 0-.002 6.001Zm2.001 1.312c-7.566-2.31-12.925 7.51-1 6.65v-2.962c0-.743.402-1.39 1-1.738v-1.95Z"/><path fill-rule="evenodd" clip-rule="evenodd" d="M9.004 9.002v1.002h-.007a1 1 0 0 0-1 1v4a1 1 0 0 0 1 1h6.002a1 1 0 0 0 1.001-1v-4a1 1 0 0 0-1-1h-2.694v-.002h-1.3v-1a1 1 0 0 1 1-1c.672 0 .953.638.963.63a1 1 0 0 0 1.78-.628c-.001-.267-.097-.436-.217-.622a3 3 0 0 0-5.528 1.62Zm1.994 5.002h2v-2h-2v2Z"/></svg>
