<!--
* SPDX-FileCopyrightText: © 2020 Liferay, Inc. <https://liferay.com>
* SPDX-FileCopyrightText: © 2020 Contributors to the project Clay <https://github.com/liferay/clay/graphs/contributors>
*
* SPDX-License-Identifier: BSD-3-Clause
-->
<svg  viewBox="0 0 16 16" xmlns="http://www.w3.org/2000/svg">
<path class="lexicon-icon-outline" d="M5.99536 6.00452C7.65302 6.00452 8.99682 4.66137 8.99682 3.00452C8.99682 1.34766 7.65302 0.0045166 5.99536 0.0045166C4.3377 0.0045166 2.99389 1.34766 2.99389 3.00452C2.99389 4.66137 4.3377 6.00452 5.99536 6.00452Z" />
<path class="lexicon-icon-outline" d="M7.99634 7.31582C0.430418 5.00554 -4.92833 14.8263 6.99568 13.9669V11.0044C6.99568 10.2611 7.39851 9.6132 7.99634 9.26655V8.29118V7.31582Z" />
<path class="lexicon-icon-outline" fill-rule="evenodd" clip-rule="evenodd" d="M9.00464 9.00244V10.0045H8.99682C8.44343 10.0045 7.99634 10.4514 7.99634 11.0045V15.0045C7.99634 15.5577 8.44343 16.0045 8.99682 16.0045H14.9998C15.5532 16.0045 16.0002 15.5577 16.0002 15.0045V11.0045C16.0002 10.4514 15.5532 10.0045 14.9998 10.0045H12.3058L12.3063 10.0024H11.0056V9.00244C11.0056 8.45016 11.4536 8.00244 12.0061 8.00244C12.6783 8.00244 12.9593 8.64025 12.969 8.63249C13.1524 8.85941 13.4331 9.00452 13.7477 9.00452C14.3002 9.00452 14.7482 8.55681 14.7482 8.00452C14.7482 7.73704 14.652 7.56785 14.5326 7.38221C13.9987 6.55223 13.0667 6.00244 12.0061 6.00244C10.3484 6.00244 9.00464 7.34559 9.00464 9.00244ZM10.9978 14.0045H12.9988V12.0045H10.9978V14.0045Z" />
</svg>
