<!--
* SPDX-FileCopyrightText: © 2020 Liferay, Inc. <https://liferay.com>
* SPDX-FileCopyrightText: © 2020 Contributors to the project Clay <https://github.com/liferay/clay/graphs/contributors>
*
* SPDX-License-Identifier: BSD-3-Clause
-->
<svg viewBox="0 0 16 16" xmlns="http://www.w3.org/2000/svg"><path class="lexicon-icon-outline" fill-rule="evenodd" clip-rule="evenodd" d="M3.87.75h1.38c0-.498.5-.748.749-.748h4c.251 0 .751.25.751.749h1.377c1.034 0 1.871.838 1.874 1.872v10.259a1.872 1.872 0 0 1-1.872 1.872H3.871a1.871 1.871 0 0 1-1.872-1.872V2.622c0-1.033.837-1.871 1.872-1.871Zm.129 2v10h8v-10H10.75c0 .502-.5.752-.751.752h-4c-.249 0-.749-.25-.749-.751H3.999Z" /><path class="lexicon-icon-outline" d="M9.5 5.252h-3c-.656 0-.656 1 0 1h3c.656 0 .656-1 0-1Zm0 2h-3c-.656 0-.656 1 0 1h3c.656 0 .656-1 0-1Zm-2 2h-1c-.656 0-.656 1 0 1h1c.656 0 .656-1 0-1Z" /></svg>