<!--
* SPDX-FileCopyrightText: © 2020 Liferay, Inc. <https://liferay.com>
* SPDX-FileCopyrightText: © 2020 Contributors to the project Clay <https://github.com/liferay/clay/graphs/contributors>
*
* SPDX-License-Identifier: BSD-3-Clause
-->
<svg  viewBox="0 0 16 16" xmlns="http://www.w3.org/2000/svg">
<path class="lexicon-icon-outline" d="M13.0002 5.00452H11.0002V1.87545C11.0002 0.842017 10.1627 0.0045166 9.12931 0.0045166H2.87118C1.83774 0.0045166 1.00024 0.842017 1.00024 1.87545V10.1339C1.00024 11.167 1.83774 12.0045 2.87118 12.0045H5.00024V13.0045C5.00024 14.1092 5.89556 15.0045 7.00024 15.0045H13.0002C14.1049 15.0045 15.0002 14.1092 15.0002 13.0045V7.00452C15.0002 5.89983 14.1049 5.00452 13.0002 5.00452ZM5.00024 7.00452V10.0045H3.00024V2.00452H4.00024C4.00024 2.5567 4.44806 3.00452 5.00024 3.00452H7.00024C7.55243 3.00452 8.00024 2.5567 8.00024 2.00452H9.00024V5.00452H7.00024C5.89556 5.00452 5.00024 5.89983 5.00024 7.00452ZM12.0637 12.0045H10.9187L10.0637 9.40327L9.18306 12.0045H8.06368L7.06368 8.00452H8.06368L8.66837 10.6814L9.52493 8.00452H10.5781L11.4168 10.6814L12.0637 8.00452H13.0637L12.0637 12.0045Z" />
</svg>
