<!--
* SPDX-FileCopyrightText: © 2020 Liferay, Inc. <https://liferay.com>
* SPDX-FileCopyrightText: © 2020 Contributors to the project Clay <https://github.com/liferay/clay/graphs/contributors>
*
* SPDX-License-Identifier: BSD-3-Clause
-->
<svg viewBox="0 0 16 16" xmlns="http://www.w3.org/2000/svg"><mask id="Icon-paste-word__a" style="mask-type:alpha" maskUnits="userSpaceOnUse" x="1" y="0" width="14" height="16"><path class="lexicon-icon-outline" fill-rule="evenodd" clip-rule="evenodd" d="M7.5 0a.5.5 0 0 1 .5.5h1.129C10.162.5 11 1.338 11 2.371V5.5h2a2 2 0 0 1 2 2v6a2 2 0 0 1-2 2H7a2 2 0 0 1-2-2v-1H2.871A1.871 1.871 0 0 1 1 10.629V2.37C1 1.338 1.838.5 2.871.5H4a.5.5 0 0 1 .5-.5h3Zm.563 12.5h1.12l.88-2.602.855 2.602h1.146l1-4h-1l-.647 2.677-.839-2.677H9.524l-.856 2.677L8.063 8.5h-1l1 4ZM3 10.5h2v-3a2 2 0 0 1 2-2h2v-3H8a.5.5 0 0 1-.5.5h-3a.5.5 0 0 1-.5-.5H3v8Z" /></mask><g mask="url(#Icon-paste-word__a)"><path class="lexicon-icon-outline" d="M0 0h16v16H0z" /></g></svg>