<!--
* SPDX-FileCopyrightText: © 2022 Liferay, Inc. <https://liferay.com>
* SPDX-FileCopyrightText: © 2022 Contributors to the project Clay <https://github.com/liferay/clay/graphs/contributors>
*
* SPDX-License-Identifier: BSD-3-Clause
-->
<svg viewBox="0 0 16 16" xmlns="http://www.w3.org/2000/svg"><path class="lexicon-icon-outline" d="M13 5.002h-2V1.873A1.87 1.87 0 0 0 9.13.003H2.87A1.87 1.87 0 0 0 1 1.872v8.258a1.87 1.87 0 0 0 1.87 1.871H5v1a2 2 0 0 0 2 2h6a2 2 0 0 0 2-2v-6a2 2 0 0 0-2-2Zm-8 2v3H3v-8h1a1 1 0 0 0 1 1h2a1 1 0 0 0 1-1h1v3H7a2 2 0 0 0-2 2Zm7.063 5h-1.145l-.855-2.601-.88 2.601h-1.12l-1-4h1l.605 2.677.857-2.677h1.053l.839 2.677.646-2.677h1l-1 4Z"/></svg>