<!--
* SPDX-FileCopyrightText: © 2020 Liferay, Inc. <https://liferay.com>
* SPDX-FileCopyrightText: © 2020 Contributors to the project Clay <https://github.com/liferay/clay/graphs/contributors>
*
* SPDX-License-Identifier: BSD-3-Clause
-->
<svg viewBox="0 0 16 16" xmlns="http://www.w3.org/2000/svg"><path fill-rule="evenodd" clip-rule="evenodd" d="M3.87 1.002h8.26c1.032 0 1.87.838 1.87 1.871v10.258a1.87 1.87 0 0 1-1.87 1.871H3.87A1.87 1.87 0 0 1 2 13.132V2.873a1.87 1.87 0 0 1 1.87-1.87Zm6.13 3H6a1 1 0 0 1-1-1H4v10h8v-10h-1a1 1 0 0 1-1 1Zm-3.5 2h3c.656 0 .656 1 0 1h-3c-.656 0-.656-1 0-1Zm3 2h-3c-.656 0-.656 1 0 1h3c.656 0 .656-1 0-1Zm-3 2h1c.656 0 .656 1 0 1h-1c-.656 0-.656-1 0-1Z"/></svg>
