<!--
* SPDX-FileCopyrightText: © 2020 Liferay, Inc. <https://liferay.com>
* SPDX-FileCopyrightText: © 2020 Contributors to the project Clay <https://github.com/liferay/clay/graphs/contributors>
*
* SPDX-License-Identifier: BSD-3-Clause
-->
<svg  viewBox="0 0 16 16" xmlns="http://www.w3.org/2000/svg">
<path class="lexicon-icon-outline" fill-rule="evenodd" clip-rule="evenodd" d="M3.87118 1.00244H12.1293C13.1627 1.00244 14.0002 1.83994 14.0006 2.87338V13.1315C14.0006 14.1649 13.1627 15.0024 12.1296 15.0024H3.87118C2.83774 15.0024 2.00024 14.1649 2.00024 13.1318V2.87338C2.00024 1.83994 2.83774 1.00244 3.87118 1.00244ZM10.0002 4.00244H6.00024C5.44806 4.00244 5.00024 3.55463 5.00024 3.00244H4.00024V13.0024H12.0002V3.00244H11.0002C11.0002 3.55463 10.5524 4.00244 10.0002 4.00244ZM6.50024 6.00244H9.50024C10.1565 6.00244 10.1565 7.00244 9.50024 7.00244H6.50024C5.84399 7.00244 5.84399 6.00244 6.50024 6.00244ZM9.50024 8.00244H6.50024C5.84399 8.00244 5.84399 9.00244 6.50024 9.00244H9.50024C10.1565 9.00244 10.1565 8.00244 9.50024 8.00244ZM6.50024 10.0024H7.50024C8.15649 10.0024 8.15649 11.0024 7.50024 11.0024H6.50024C5.84399 11.0024 5.84399 10.0024 6.50024 10.0024Z" />
</svg>
