<!--
* SPDX-FileCopyrightText: © 2022 Liferay, Inc. <https://liferay.com>
* SPDX-FileCopyrightText: © 2022 Contributors to the project Clay <https://github.com/liferay/clay/graphs/contributors>
*
* SPDX-License-Identifier: BSD-3-Clause
-->
<svg viewBox="0 0 16 16" xmlns="http://www.w3.org/2000/svg"><path class="lexicon-icon-outline" fill-rule="evenodd" clip-rule="evenodd" d="M15.203.796a2.687 2.687 0 0 0-1.911-.794c-.72 0-1.4.283-1.911.79L1.17 11.003A4 4 0 0 0 0 13.83V15a1 1 0 0 0 1 1h1.325a4 4 0 0 0 2.85-1.194L15.203 4.618a2.706 2.706 0 0 0 0-3.822ZM3.897 13.592a2 2 0 0 1-.949.546l-.64.16a.5.5 0 0 1-.606-.607l.16-.64a2 2 0 0 1 .545-.947l8.132-7.921 1.274 1.273-7.916 8.136Zm9.196-9.412.838-.838a.906.906 0 0 0 0-1.273.923.923 0 0 0-1.274 0l-.838.838 1.274 1.273Z"/></svg>