<!--
* SPDX-FileCopyrightText: © 2020 Liferay, Inc. <https://liferay.com>
* SPDX-FileCopyrightText: © 2020 Contributors to the project Clay <https://github.com/liferay/clay/graphs/contributors>
*
* SPDX-License-Identifier: BSD-3-Clause
-->
<svg  viewBox="0 0 16 16" xmlns="http://www.w3.org/2000/svg">
<path class="lexicon-icon-outline" fill-rule="evenodd" clip-rule="evenodd" d="M15.2096 0.798157C14.6987 0.287048 14.0187 0.0045166 13.2977 0.0045166C12.5767 0.0045166 11.8967 0.287048 11.3858 0.794983L1.17239 11.0043C0.421893 11.7545 0.000244141 12.7721 0.000244141 13.8333V15.0024C0.000244141 15.5547 0.447959 16.0024 1.00024 16.0024H2.32693C3.39849 16.0024 4.42525 15.5725 5.1771 14.809L15.2096 4.62036C16.2638 3.56641 16.2638 1.85211 15.2096 0.798157ZM3.89832 13.5949C3.63903 13.8613 3.31064 14.0502 2.94999 14.1403L2.30933 14.3004C1.94314 14.3919 1.61147 14.0602 1.70305 13.694L1.86318 13.0538C1.95332 12.6933 2.14207 12.3652 2.40826 12.106L10.5436 4.18549L11.8176 5.4585L3.89832 13.5949ZM13.0984 4.18225L13.9366 3.34418C14.2854 2.995 14.2854 2.42352 13.9366 2.07117C13.5967 1.73151 13.0027 1.73151 12.6627 2.07117L11.8245 2.90924L13.0984 4.18225Z" />
</svg>
