<!--
* SPDX-FileCopyrightText: © 2020 Liferay, Inc. <https://liferay.com>
* SPDX-FileCopyrightText: © 2020 Contributors to the project Clay <https://github.com/liferay/clay/graphs/contributors>
*
* SPDX-License-Identifier: BSD-3-Clause
-->
<svg  viewBox="0 0 16 16" xmlns="http://www.w3.org/2000/svg">
<path class="lexicon-icon-outline" d="M5.85312 9.85557C5.39687 10.3118 4.69062 9.60557 5.14687 9.14932L10.1469 4.14932C10.6031 3.69307 11.3094 4.39932 10.8531 4.85557L5.85312 9.85557Z" />
<path class="lexicon-icon-outline" d="M6 6.00244C6.55228 6.00244 7 5.55473 7 5.00244C7 4.45016 6.55228 4.00244 6 4.00244C5.44772 4.00244 5 4.45016 5 5.00244C5 5.55473 5.44772 6.00244 6 6.00244Z" />
<path class="lexicon-icon-outline" d="M11 9.00244C11 9.55473 10.5523 10.0024 10 10.0024C9.44771 10.0024 9 9.55473 9 9.00244C9 8.45016 9.44771 8.00244 10 8.00244C10.5523 8.00244 11 8.45016 11 9.00244Z" />
<path class="lexicon-icon-outline" fill-rule="evenodd" clip-rule="evenodd" d="M0 13.6431V2.00244C0 0.899316 0.896875 0.00244141 2 0.00244141H14C15.1031 0.00244141 16 0.899316 16 2.00244V13.4899C16 14.3962 14.8594 14.8431 14.075 14.3931C12.4467 13.4581 11.4517 14.187 10.4216 14.9416C9.70603 15.4658 8.97351 16.0024 8 16.0024C7.02784 16.0024 6.3296 15.4793 5.64717 14.968C4.62951 14.2055 3.64701 13.4693 1.84375 14.5337C1.08438 14.9806 0 14.5274 0 13.6431ZM6.14575 13.1404C6.70388 13.5936 7.2074 14.0024 8 14.0024C8.87649 14.0024 9.40607 13.5811 9.98366 13.1215C10.8208 12.4554 11.7588 11.7091 14 12.0493V2.00244H2V12.0493C4.31859 11.6569 5.29553 12.4501 6.14575 13.1404Z" />
</svg>
