<!--
* SPDX-FileCopyrightText: © 2022 Liferay, Inc. <https://liferay.com>
* SPDX-FileCopyrightText: © 2022 Contributors to the project Clay <https://github.com/liferay/clay/graphs/contributors>
*
* SPDX-License-Identifier: BSD-3-Clause
-->
<svg viewBox="0 0 16 16" xmlns="http://www.w3.org/2000/svg"><path class="lexicon-icon-outline" d="m2.293 12.296 10-10c.912-.912 2.324.504 1.412 1.413l-10 10c-.909.909-2.32-.504-1.412-1.413Z"/><path class="lexicon-icon-outline" fill-rule="evenodd" clip-rule="evenodd" d="M2.003 4.503c0 3.221 5 3.221 5 0-.004-3.222-5-3.222-5 0Zm1.497 0c0 1.29 2 1.29 2 0 0-1.288-2-1.288-2 0ZM9 11.502c0-3.221 4.999-3.221 4.999 0-.003 3.222-5 3.222-5 0Zm1.499 0c0-1.29 2-1.29 2 0 0 1.288-2 1.288-2 0Z"/></svg>