<!--
* SPDX-FileCopyrightText: © 2020 Liferay, Inc. <https://liferay.com>
* SPDX-FileCopyrightText: © 2020 Contributors to the project Clay <https://github.com/liferay/clay/graphs/contributors>
*
* SPDX-License-Identifier: BSD-3-Clause
-->
<svg  viewBox="0 0 16 16" xmlns="http://www.w3.org/2000/svg">
<path class="lexicon-icon-outline" d="M2.29337 12.2963L12.2926 2.29709C13.205 1.38466 14.6174 2.80017 13.705 3.70948L3.70576 13.7087C2.79646 14.618 1.38407 13.2056 2.29337 12.2963Z" />
<path class="lexicon-icon-outline" fill-rule="evenodd" clip-rule="evenodd" d="M2.00278 4.50317C2.00278 7.72479 7.00238 7.72479 7.00238 4.50317C6.99926 1.28154 2.00278 1.28154 2.00278 4.50317ZM3.49953 4.50317C3.49953 5.79369 5.49938 5.79369 5.49938 4.50317C5.49938 3.21577 3.49953 3.21577 3.49953 4.50317Z" />
<path class="lexicon-icon-outline" fill-rule="evenodd" clip-rule="evenodd" d="M8.9991 11.5026C8.9991 8.28099 13.9987 8.28099 13.9987 11.5026C13.9956 14.7242 8.9991 14.7242 8.9991 11.5026ZM10.499 11.5026C10.499 10.2121 12.4988 10.2121 12.4988 11.5026C12.4988 12.79 10.499 12.79 10.499 11.5026Z" />
</svg>
