<!--
* SPDX-FileCopyrightText: © 2020 Liferay, Inc. <https://liferay.com>
* SPDX-FileCopyrightText: © 2020 Contributors to the project Clay <https://github.com/liferay/clay/graphs/contributors>
*
* SPDX-License-Identifier: BSD-3-Clause
-->
<svg  viewBox="0 0 16 16" xmlns="http://www.w3.org/2000/svg">
<path class="lexicon-icon-outline" fill-rule="evenodd" clip-rule="evenodd" d="M15.4589 11.2042L15.5483 11.3638C15.7702 11.7768 16.4319 12.9941 15.5684 14.0831C15.1989 14.5682 14.4046 15.46 13.3704 15.8731L13.1545 15.9513L13.0652 15.9544C12.8302 15.9951 12.5511 16.0045 12.3452 16.0045C11.545 16.0045 7.38104 15.8199 3.79545 12.1649C0.0100514 8.31274 -0.282138 3.39666 0.151627 2.43282C0.617523 1.45339 1.5714 0.71172 2.09554 0.361266C2.31041 0.226683 2.51625 0.1391 2.73815 0.0765143C2.93696 0.0263971 3.11067 0.0045166 3.28437 0.0045166C3.9792 0.0045166 4.54952 0.333702 4.86079 0.513207L4.86882 0.51773L5.03249 0.614725C6.16007 1.29064 6.60388 4.70466 6.60388 4.73595C6.57175 5.45569 6.07674 5.99084 5.36986 6.66675C5.77149 7.41466 6.51652 8.37221 7.05371 8.9073C7.57684 9.42986 8.4514 10.1465 9.26069 10.6065C9.88724 10.0401 10.3401 9.67086 10.8833 9.5488L11.2307 9.50186L11.307 9.50498C11.3391 9.50498 14.8223 10.0808 15.4589 11.2042ZM12.7178 14.1708C13.2098 13.9611 13.749 13.4197 14.0863 12.9817C14.1857 12.8533 14.1345 12.6437 13.9096 12.2306L13.8745 12.168C13.4538 11.9021 11.8442 11.4389 11.2779 11.3325C11.1062 11.4192 10.6624 11.8223 10.3401 12.1146L10.2949 12.1555C9.88423 12.5404 9.24161 12.6437 8.71748 12.3902C7.63106 11.8519 6.43319 10.8944 5.7233 10.181C5.00036 9.46122 3.98121 8.13439 3.52535 7.10485C3.31349 6.60105 3.42896 6.02525 3.81152 5.62468L3.84365 5.59027L3.89687 5.53918C4.17701 5.27031 4.6188 4.8456 4.73327 4.65778C4.64692 4.10698 4.24528 2.53923 3.98422 2.11678L3.90791 2.06984C3.7342 1.96972 3.40988 1.78197 3.23317 1.82579C3.18497 1.84144 3.13979 1.86643 3.12372 1.87585C2.56143 2.25448 2.09252 2.72387 1.87966 3.12126C1.78728 3.71582 1.92785 7.63683 5.14494 10.91C8.2064 14.03 11.6795 14.1895 12.3452 14.1895C12.5441 14.1895 12.6696 14.177 12.7178 14.1708Z" />
</svg>
