<!--
* SPDX-FileCopyrightText: © 2022 Liferay, Inc. <https://liferay.com>
* SPDX-FileCopyrightText: © 2022 Contributors to the project Clay <https://github.com/liferay/clay/graphs/contributors>
*
* SPDX-License-Identifier: BSD-3-Clause
-->
<svg viewBox="0 0 16 16" xmlns="http://www.w3.org/2000/svg"><path class="lexicon-icon-outline" fill-rule="evenodd" clip-rule="evenodd" d="m15.459 11.202.09.16c.221.412.883 1.63.02 2.719-.37.485-1.164 1.377-2.199 1.79l-.215.078-.09.003c-.235.04-.514.05-.72.05-.8 0-4.964-.185-8.55-3.84C.01 8.31-.282 3.394.152 2.43.618 1.45 1.572.71 2.096.36A2.185 2.185 0 0 1 3.285.002c.694 0 1.265.33 1.576.509l.008.004.163.097c1.128.676 1.572 4.09 1.572 4.122-.032.72-.527 1.254-1.234 1.93.401.748 1.147 1.706 1.684 2.24.523.523 1.397 1.24 2.207 1.7.626-.566 1.08-.936 1.622-1.058l.348-.047.076.004c.032 0 3.515.575 4.152 1.699Zm-2.741 2.966c.492-.21 1.031-.75 1.368-1.189.1-.128.048-.338-.176-.75l-.036-.063c-.42-.266-2.03-.73-2.596-.836-.172.087-.616.49-.938.782l-.045.041a1.43 1.43 0 0 1-1.578.235c-1.086-.538-2.284-1.496-2.994-2.21C5 9.458 3.981 8.133 3.525 7.102a1.369 1.369 0 0 1 .287-1.48l.032-.034.053-.051c.28-.27.722-.694.836-.882-.086-.55-.488-2.118-.749-2.54l-.076-.048c-.174-.1-.498-.287-.675-.244a.604.604 0 0 0-.11.05c-.562.379-1.03.848-1.243 1.246-.093.594.048 4.515 3.265 7.789 3.061 3.12 6.535 3.28 7.2 3.28.2 0 .325-.013.373-.02Z"/></svg>