<!--
* SPDX-FileCopyrightText: © 2020 Liferay, Inc. <https://liferay.com>
* SPDX-FileCopyrightText: © 2020 Contributors to the project Clay <https://github.com/liferay/clay/graphs/contributors>
*
* SPDX-License-Identifier: BSD-3-Clause
-->
<svg viewBox="0 0 16 16" xmlns="http://www.w3.org/2000/svg"><path fill-rule="evenodd" clip-rule="evenodd" d="m15.459 11.204.09.16c.221.413.883 1.63.02 2.719-.37.485-1.164 1.377-2.199 1.79l-.215.078-.09.003c-.235.041-.514.05-.72.05-.8 0-4.964-.184-8.55-3.84C.01 8.314-.282 3.398.152 2.434.618 1.453 1.572.712 2.096.36A2.185 2.185 0 0 1 3.285.004c.694 0 1.265.33 1.576.51l.008.004.163.097c1.128.676 1.572 4.09 1.572 4.12-.032.72-.527 1.256-1.234 1.932.401.748 1.147 1.705 1.684 2.24.523.523 1.397 1.24 2.207 1.7.626-.567 1.08-.936 1.622-1.058l.348-.047.076.003c.032 0 3.515.576 4.152 1.7Zm-2.741 2.967c.492-.21 1.031-.751 1.368-1.19.1-.128.048-.338-.176-.75l-.036-.063c-.42-.266-2.03-.73-2.596-.836-.172.087-.616.49-.938.782l-.045.041a1.43 1.43 0 0 1-1.578.235c-1.086-.538-2.284-1.496-2.994-2.21C5 9.462 3.981 8.135 3.525 7.106a1.369 1.369 0 0 1 .287-1.48l.032-.035.053-.051c.28-.269.722-.694.836-.881-.086-.551-.488-2.119-.749-2.541l-.076-.047c-.174-.1-.498-.288-.675-.244a.604.604 0 0 0-.11.05c-.562.378-1.03.848-1.243 1.245-.093.595.048 4.516 3.265 7.789 3.061 3.12 6.535 3.28 7.2 3.28.199 0 .325-.013.373-.02Z"/></svg>
