<!--
* SPDX-FileCopyrightText: © 2026 Liferay, Inc. <https://liferay.com>
* SPDX-FileCopyrightText: © 2026 Contributors to the project Clay <https://github.com/liferay/clay/graphs/contributors>
*
* SPDX-License-Identifier: BSD-3-Clause
-->
<svg viewBox="0 0 16 16" xmlns="http://www.w3.org/2000/svg">
	<path class="lexicon-icon-outline" d="M1.5.05c.04-.006 3.243-.448 5.02 1.43 1.186 1.252 1.438 3.223 1.473 4.408.004.037.007.074.007.112v3.517c.364-1.059 1.031-2.38 2.213-3.079 2.173-1.285 5.259.019 5.259.019-.004.031-.448 3.393-2.611 4.672-1.7 1.005-3.958.423-4.86.124V15a1 1 0 0 1-2 0V6.864c-1.005-.136-2.191-.5-3.047-1.403C1.176 3.58 1.497.086 1.5.05Z" />
</svg>