<!--
* SPDX-FileCopyrightText: © 2020 Liferay, Inc. <https://liferay.com>
* SPDX-FileCopyrightText: © 2020 Contributors to the project Clay <https://github.com/liferay/clay/graphs/contributors>
*
* SPDX-License-Identifier: BSD-3-Clause
-->
<svg  viewBox="0 0 16 16" xmlns="http://www.w3.org/2000/svg">
<path class="lexicon-icon-outline" d="M14.3089 10.2033L12.908 8.80355L15.7097 6.00398C16.6103 5.00414 15.2094 3.70434 14.3089 4.6042L11.5071 7.40377L8.60532 4.50421L11.4071 1.70465C12.3076 0.7048 11.0068 -0.594999 10.0062 0.304862L7.20446 3.10443L5.80359 1.70465C4.90303 0.90477 3.50217 2.10458 4.40272 3.10443L3.20198 4.30425C1.20074 6.30394 1.10068 9.50344 3.00186 11.6031L0 14.6027L1.40087 16.0024L4.30266 13.1029C5.20322 14.1027 8.30514 16.0024 11.307 13.2029L12.8079 11.7031C13.9086 12.503 15.2094 11.1032 14.3089 10.2033Z" />
</svg>
