<!--
* SPDX-FileCopyrightText: © 2020 Liferay, Inc. <https://liferay.com>
* SPDX-FileCopyrightText: © 2020 Contributors to the project Clay <https://github.com/liferay/clay/graphs/contributors>
*
* SPDX-License-Identifier: BSD-3-Clause
-->
<svg viewBox="0 0 16 16" xmlns="http://www.w3.org/2000/svg"><path d="m14.309 10.203-1.401-1.4 2.802-2.8c.9-.999-.5-2.299-1.401-1.399l-2.802 2.8-2.902-2.9 2.802-2.8c.9-1-.4-2.3-1.4-1.4l-2.803 2.8-1.4-1.4c-.901-.8-2.302.4-1.401 1.4l-1.201 1.2c-2.001 2-2.101 5.2-.2 7.299l-3.002 3 1.4 1.4 2.903-2.9c.9 1 4.002 2.9 7.004.1l1.5-1.5c1.102.8 2.402-.6 1.502-1.5Z"/></svg>
