<!--
* SPDX-FileCopyrightText: © 2020 Liferay, Inc. <https://liferay.com>
* SPDX-FileCopyrightText: © 2020 Contributors to the project Clay <https://github.com/liferay/clay/graphs/contributors>
*
* SPDX-License-Identifier: BSD-3-Clause
-->
<svg  viewBox="0 0 16 16" xmlns="http://www.w3.org/2000/svg">
<path class="lexicon-icon-outline" fill-rule="evenodd" clip-rule="evenodd" d="M15 0.00244141H10C9.44727 0.00244141 9 0.449316 9 1.00244V6.00244C9 6.55557 9.44727 7.00244 10 7.00244H15C15.5527 7.00244 16 6.55557 16 6.00244V1.00244C16 0.449316 15.5527 0.00244141 15 0.00244141ZM14 5.00244H11V2.00244H14V5.00244Z" />
<path class="lexicon-icon-outline" fill-rule="evenodd" clip-rule="evenodd" d="M10 9.00244H15C15.5527 9.00244 16 9.44932 16 10.0024V15.0024C16 15.5556 15.5527 16.0024 15 16.0024H10C9.44727 16.0024 9 15.5556 9 15.0024V10.0024C9 9.44932 9.44727 9.00244 10 9.00244ZM14 14.0024H11V11.0024H14V14.0024Z" />
<path class="lexicon-icon-outline" fill-rule="evenodd" clip-rule="evenodd" d="M1 9.00244H6C6.55273 9.00244 7 9.44932 7 10.0024V15.0024C7 15.5556 6.55273 16.0024 6 16.0024H1C0.447266 16.0024 0 15.5556 0 15.0024V10.0024C0 9.44932 0.447266 9.00244 1 9.00244ZM5 14.0024H2V11.0024H5V14.0024Z" />
<path class="lexicon-icon-outline" d="M3 1.00244H4V3.00244H6V4.00244H4V6.00557H3V4.00244H1V3.00244H3V1.00244Z" />
</svg>
