<!--
* SPDX-FileCopyrightText: © 2020 Liferay, Inc. <https://liferay.com>
* SPDX-FileCopyrightText: © 2020 Contributors to the project Clay <https://github.com/liferay/clay/graphs/contributors>
*
* SPDX-License-Identifier: BSD-3-Clause
-->
<svg viewBox="0 0 16 16" xmlns="http://www.w3.org/2000/svg"><path d="M4 5.002a1 1 0 1 1 2 0v6a1 1 0 1 1-2 0v-6Zm4 2a1 1 0 0 0-1 1v3a1 1 0 1 0 2 0v-3a1 1 0 0 0-1-1Zm2 0a1 1 0 1 1 2 0v4a1 1 0 1 1-2 0v-4Z"/><path fill-rule="evenodd" clip-rule="evenodd" d="M14 .002H2c-1.104 0-2 .897-2 2v12c0 1.103.896 2 2 2h12c1.104 0 2-.897 2-2v-12c0-1.103-.896-2-2-2Zm-12 14v-12h12v12H2Z"/></svg>
