<!--
* SPDX-FileCopyrightText: © 2020 Liferay, Inc. <https://liferay.com>
* SPDX-FileCopyrightText: © 2020 Contributors to the project Clay <https://github.com/liferay/clay/graphs/contributors>
*
* SPDX-License-Identifier: BSD-3-Clause
-->
<svg  viewBox="0 0 16 16" xmlns="http://www.w3.org/2000/svg">
<path class="lexicon-icon-outline" d="M4 5.00244C4 4.44932 4.44727 4.00244 5 4.00244C5.55273 4.00244 6 4.44932 6 5.00244V11.0024C6 11.5556 5.55273 12.0024 5 12.0024C4.44727 12.0024 4 11.5556 4 11.0024V5.00244Z" />
<path class="lexicon-icon-outline" d="M8 7.00244C7.44727 7.00244 7 7.44932 7 8.00244V11.0024C7 11.5556 7.44727 12.0024 8 12.0024C8.55273 12.0024 9 11.5556 9 11.0024V8.00244C9 7.44932 8.55273 7.00244 8 7.00244Z" />
<path class="lexicon-icon-outline" d="M10 7.00244C10 6.44932 10.4473 6.00244 11 6.00244C11.5527 6.00244 12 6.44932 12 7.00244V11.0024C12 11.5556 11.5527 12.0024 11 12.0024C10.4473 12.0024 10 11.5556 10 11.0024V7.00244Z" />
<path class="lexicon-icon-outline" fill-rule="evenodd" clip-rule="evenodd" d="M14 0.00244141H2C0.896484 0.00244141 0 0.899315 0 2.00244V14.0024C0 15.1056 0.896484 16.0024 2 16.0024H14C15.1035 16.0024 16 15.1056 16 14.0024V2.00244C16 0.899315 15.1035 0.00244141 14 0.00244141ZM2 14.0024V2.00244H14V14.0024H2Z" />
</svg>
