<svg xmlns="http://www.w3.org/2000/svg" viewBox="0 0 512 512">
	<path class="lexicon-icon-body" fill="none" d="M448,0H64C28.7,0,0,28.7,0,64v384c0,35.3,28.7,64,64,64h384c35.3,0,64-28.7,64-64V64C512,28.7,483.3,0,448,0z"></path>
	<path class="lexicon-icon-outline lx-polls-border" d="M448,0H64C28.7,0,0,28.7,0,64v384c0,35.3,28.7,64,64,64h384c35.3,0,64-28.7,64-64V64C512,28.7,483.3,0,448,0z M448,448H64V64h384V448C448,448,448,448,448,448z"></path>
	<path class="lexicon-icon-outline lx-polls-bar-1" d="M160,128c-17.7,0-32,14.3-32,32v192c0,17.7,14.3,32,32,32s32-14.3,32-32V160C192,142.3,177.7,128,160,128z"></path>
	<path class="lexicon-icon-outline lx-polls-bar-2" d="M256,224c-17.7,0-32,14.3-32,32v96c0,17.7,14.3,32,32,32s32-14.3,32-32v-96C288,238.3,273.7,224,256,224z"></path>
	<path class="lexicon-icon-outline lx-polls-bar-3" d="M352,192c-17.7,0-32,14.3-32,32v128c0,17.7,14.3,32,32,32s32-14.3,32-32V224C384,206.3,369.7,192,352,192z"></path>
</svg>