<!--
* SPDX-FileCopyrightText: © 2022 Liferay, Inc. <https://liferay.com>
* SPDX-FileCopyrightText: © 2022 Contributors to the project Clay <https://github.com/liferay/clay/graphs/contributors>
*
* SPDX-License-Identifier: BSD-3-Clause
-->
<svg viewBox="0 0 16 16" xmlns="http://www.w3.org/2000/svg"><path d="M11.396 5.292c.469-.466-.25-1.182-.716-.716l-.4.403c-1.39-.975-3.758.422-2.359 2.457 1.778 2.522-1.259 2.33-1.415.425.04-.657-.978-.67-1.015-.057-.025.422.262 1.094.5 1.466l-.363.363c-.481.478.234 1.196.716.715l.365-.365C9.037 11.189 10.352 8.76 8.896 7.1l-.003-.003c-1.218-1.753 1.188-2.053 1.422-.237-.034.659.978.675 1.015.05A2.087 2.087 0 0 0 11 5.694l.396-.403Z"/><path fill-rule="evenodd" clip-rule="evenodd" d="M7.878.245a2.026 2.026 0 0 0-1.36.593L.599 6.761a2.035 2.035 0 0 0 0 2.88l5.764 5.764a2.035 2.035 0 0 0 2.881 0l5.921-5.92a2.05 2.05 0 0 0 .594-1.359l.24-6.003A2.04 2.04 0 0 0 13.88.003L7.878.246ZM7.08 13.242a1.02 1.02 0 0 0 1.44 0l4.921-4.916c.182-.181.288-.425.297-.681l.182-4.503a1.02 1.02 0 0 0-1.06-1.06l-4.502.181c-.256.01-.5.116-.681.297L2.76 7.48a1.02 1.02 0 0 0 0 1.44l4.321 4.322Z"/></svg>
