<!--
* SPDX-FileCopyrightText: © 2020 Liferay, Inc. <https://liferay.com>
* SPDX-FileCopyrightText: © 2020 Contributors to the project Clay <https://github.com/liferay/clay/graphs/contributors>
*
* SPDX-License-Identifier: BSD-3-Clause
-->
<svg  viewBox="0 0 16 16" xmlns="http://www.w3.org/2000/svg">
<path class="lexicon-icon-outline" d="M11.3959 5.2918C11.8646 4.82616 11.146 4.1105 10.6804 4.57614L10.2805 4.97929C8.89007 4.00424 6.52168 5.40118 7.92147 7.43565C9.69933 9.95764 6.66228 9.767 6.50605 7.86067C6.54667 7.20439 5.52808 7.19189 5.49058 7.80441C5.46559 8.22631 5.75304 8.89821 5.99051 9.27011L5.62806 9.63262C5.14688 10.1108 5.8624 10.8296 6.34358 10.3483L6.70915 9.98264C9.03693 11.1889 10.3524 8.76071 8.89632 7.10126L8.8932 7.09813C7.67463 5.34493 10.0805 5.04492 10.3149 6.86062C10.2805 7.52003 11.2928 7.53565 11.3303 6.91062C11.3522 6.49186 11.2335 6.06684 10.9991 5.69494L11.3959 5.2918Z" />
<path class="lexicon-icon-outline" fill-rule="evenodd" clip-rule="evenodd" d="M7.87772 0.2447C7.3653 0.263451 6.881 0.47596 6.51855 0.838477L0.597567 6.76062C-0.199189 7.5544 -0.199189 8.84509 0.597567 9.642L6.36233 15.4048C7.15596 16.2017 8.44639 16.2017 9.24314 15.4048L15.1641 9.48574C15.5235 9.12323 15.7359 8.63883 15.7578 8.12631L15.9984 2.12291C16.0452 0.932231 15.0673 -0.0428131 13.8799 0.00406401L7.87772 0.2447ZM7.08097 13.2422C7.47778 13.6391 8.12456 13.6391 8.52138 13.2422L13.4425 8.32631C13.6237 8.14506 13.73 7.90129 13.7393 7.64503L13.9206 3.14171C13.9424 2.54793 13.455 2.05728 12.8614 2.08228L8.3589 2.26354C8.10269 2.27292 7.85898 2.37917 7.67775 2.56043L2.75974 7.4794C2.36293 7.87629 2.36293 8.5232 2.75974 8.92009L7.08097 13.2422Z" />
</svg>
