<!--
* SPDX-FileCopyrightText: © 2026 Liferay, Inc. <https://liferay.com>
* SPDX-FileCopyrightText: © 2026 Contributors to the project Clay <https://github.com/liferay/clay/graphs/contributors>
*
* SPDX-License-Identifier: BSD-3-Clause
-->
<svg viewBox="0 0 16 16" xmlns="http://www.w3.org/2000/svg">
	<path class="lexicon-icon-outline" d="M12 0c1.103 0 2 .897 2 2v4a1 1 0 1 1-2 0V2H3v12h3a1 1 0 1 1 0 2H3c-1.103 0-2-.897-2-2V2c0-1.103.897-2 2-2h9Z" />
	<path class="lexicon-icon-outline" clip-rule="evenodd" d="M11.5 9a3.5 3.5 0 1 1 0 7 3.5 3.5 0 0 1 0-7Zm.28 1.45c0-.377-.58-.377-.58 0v.325c-.958.168-1.352 1.692.038 1.949 1.741.3.434 1.452-.401.745-.25-.28-.666.126-.434.388.162.18.55.337.796.392v.293c0 .387.581.39.581 0v-.294c1.43-.455.98-1.97-.282-2.052h-.003c-1.203-.215-.35-1.312.479-.672.254.281.67-.123.432-.39a1.187 1.187 0 0 0-.626-.36v-.324Z" fill-rule="evenodd" />
	<path class="lexicon-icon-outline" d="M6 10a1 1 0 1 1 0 2H5c-1.369 0-1.278-2 0-2h1Zm0-3a1 1 0 0 1 0 2H5C3.631 9 3.722 7 5 7h1Zm4-3c1.328 0 1.338 2 0 2H5C3.631 6 3.722 4 5 4h5Z" />
</svg>