<!--
* SPDX-FileCopyrightText: © 2022 Liferay, Inc. <https://liferay.com>
* SPDX-FileCopyrightText: © 2022 Contributors to the project Clay <https://github.com/liferay/clay/graphs/contributors>
*
* SPDX-License-Identifier: BSD-3-Clause
-->
<svg viewBox="0 0 16 16" xmlns="http://www.w3.org/2000/svg"><path class="lexicon-icon-outline" d="M11.396 5.291c.469-.465-.25-1.18-.716-.715l-.4.403c-1.39-.975-3.758.422-2.359 2.456C9.7 9.957 6.662 9.767 6.506 7.86c.04-.656-.978-.668-1.015-.056-.025.422.262 1.094.5 1.466l-.363.362c-.481.478.234 1.197.716.716l.365-.366c2.328 1.207 3.643-1.222 2.187-2.881l-.003-.003c-1.218-1.753 1.188-2.053 1.422-.238-.034.66.978.675 1.015.05A2.087 2.087 0 0 0 11 5.695l.396-.404Z"/><path class="lexicon-icon-outline" fill-rule="evenodd" clip-rule="evenodd" d="M7.878.244a2.026 2.026 0 0 0-1.36.594L.599 6.76a2.035 2.035 0 0 0 0 2.882l5.764 5.762a2.035 2.035 0 0 0 2.881 0l5.921-5.919c.36-.362.572-.847.594-1.36l.24-6.002A2.04 2.04 0 0 0 13.88.003L7.878.245ZM7.08 13.242a1.02 1.02 0 0 0 1.44 0l4.921-4.916c.182-.181.288-.425.297-.681l.182-4.504a1.02 1.02 0 0 0-1.06-1.06l-4.502.182c-.256.01-.5.116-.681.297L2.76 7.48a1.02 1.02 0 0 0 0 1.44l4.321 4.323Z"/></svg>