<!--
* SPDX-FileCopyrightText: © 2020 Liferay, Inc. <https://liferay.com>
* SPDX-FileCopyrightText: © 2020 Contributors to the project Clay <https://github.com/liferay/clay/graphs/contributors>
*
* SPDX-License-Identifier: BSD-3-Clause
-->
<svg  viewBox="0 0 16 16" xmlns="http://www.w3.org/2000/svg">
<path class="lexicon-icon-outline" d="M3.5 6.99206C3.77637 6.99206 4 6.76889 4 6.49361C4 6.21834 3.77637 5.99517 3.5 5.99517C3.22363 5.99517 3 6.21834 3 6.49361C3 6.76889 3.22363 6.99206 3.5 6.99206Z" />
<path class="lexicon-icon-outline" d="M6 6.48426C6 6.75438 5.78027 6.97336 5.50879 6.97336C5.23828 6.97336 5.01855 6.75438 5.01855 6.48426C5.01855 6.21415 5.23828 5.99517 5.50879 5.99517C5.78027 5.99517 6 6.21415 6 6.48426Z" />
<path class="lexicon-icon-outline" fill-rule="evenodd" clip-rule="evenodd" d="M12.0156 2.99517H14C15.1035 2.99517 16 3.8581 16 4.95779V10.9796C16 12.0793 15.1035 12.9734 14 12.9734H13.0156V14.9765C13.0156 15.5435 12.584 16.0045 12.0156 16.0045H4.0498C3.48145 16.0045 3.01855 15.5435 3.01855 14.9765V12.9734H2C0.896484 12.9734 0 12.0793 0 10.9796V4.95779C0 3.8581 0.896484 2.99517 2 2.99517H4.0127V1.03255C4.0127 0.465569 4.47461 0.0045166 5.04395 0.0045166H10.9844C11.5527 0.0045166 12.0156 0.465569 12.0156 1.03255V2.99517ZM10.0156 1.99829H6.0127V3.00763H10.0156V1.99829ZM10.9873 13.9484H5.01855V10.9796H10.9844L10.9873 13.9484ZM13.0186 10.9796H14V4.98894H2V10.9796H3.01855V10.0107C3.01855 9.44376 3.48145 8.98271 4.0498 8.98271H11.9873C12.5566 8.98271 13.0186 9.44376 13.0186 10.0107V10.9796Z" />
</svg>
