<!--
* SPDX-FileCopyrightText: © 2020 Liferay, Inc. <https://liferay.com>
* SPDX-FileCopyrightText: © 2020 Contributors to the project Clay <https://github.com/liferay/clay/graphs/contributors>
*
* SPDX-License-Identifier: BSD-3-Clause
-->
<svg viewBox="0 0 16 16" xmlns="http://www.w3.org/2000/svg"><path d="M3.5 6.992a.5.5 0 1 0 .002-.998.5.5 0 0 0-.002.998ZM6 6.484a.49.49 0 1 1-.98-.002.49.49 0 0 1 .98.002Z"/><path fill-rule="evenodd" clip-rule="evenodd" d="M12.016 2.995H14c1.104 0 2 .863 2 1.963v6.021c0 1.1-.896 1.994-2 1.994h-.984v2.003c0 .567-.432 1.028-1 1.028H4.05a1.03 1.03 0 0 1-1.031-1.028v-2.003H2c-1.104 0-2-.894-2-1.994V4.958c0-1.1.896-1.963 2-1.963h2.013V1.032A1.03 1.03 0 0 1 5.043.004h5.941a1.03 1.03 0 0 1 1.032 1.028v1.963Zm-2-.997H6.013v1.01h4.003v-1.01Zm.971 11.95H5.02V10.98h5.965l.003 2.97Zm2.032-2.969H14V4.99H2v5.99h1.019v-.968a1.03 1.03 0 0 1 1.03-1.028h7.938c.57 0 1.032.46 1.032 1.028v.969Z"/></svg>
