<!--
* SPDX-FileCopyrightText: © 2022 Liferay, Inc. <https://liferay.com>
* SPDX-FileCopyrightText: © 2022 Contributors to the project Clay <https://github.com/liferay/clay/graphs/contributors>
*
* SPDX-License-Identifier: BSD-3-Clause
-->
<svg viewBox="0 0 16 16" xmlns="http://www.w3.org/2000/svg"><path class="lexicon-icon-outline" d="M3.5 6.99a.5.5 0 1 0 .002-.999.5.5 0 0 0-.002.999ZM6 6.482a.49.49 0 1 1-.98-.002.49.49 0 0 1 .98.002Z"/><path class="lexicon-icon-outline" fill-rule="evenodd" clip-rule="evenodd" d="M12.016 2.993H14c1.104 0 2 .863 2 1.962v6.022c0 1.1-.896 1.994-2 1.994h-.984v2.003c0 .567-.432 1.028-1 1.028H4.05a1.031 1.031 0 0 1-1.031-1.028v-2.003H2c-1.104 0-2-.894-2-1.994V4.955c0-1.1.896-1.962 2-1.962h2.013V1.03A1.03 1.03 0 0 1 5.043.002h5.941a1.03 1.03 0 0 1 1.032 1.028v1.963Zm-2-.997H6.013v1.01h4.003v-1.01Zm.971 11.95H5.02v-2.969h5.965l.003 2.969Zm2.032-2.969H14v-5.99H2v5.99h1.019v-.969a1.03 1.03 0 0 1 1.03-1.028h7.938c.57 0 1.032.461 1.032 1.028v.97Z"/></svg>