<!--
* SPDX-FileCopyrightText: © 2026 Liferay, Inc. <https://liferay.com>
* SPDX-FileCopyrightText: © 2026 Contributors to the project Clay <https://github.com/liferay/clay/graphs/contributors>
*
* SPDX-License-Identifier: BSD-3-Clause
-->
<svg viewBox="0 0 16 16" xmlns="http://www.w3.org/2000/svg">
	<path class="lexicon-icon-outline" clip-rule="evenodd" d="M12.5 9a3.5 3.5 0 1 1 0 7 3.5 3.5 0 0 1 0-7Zm0 2a1.5 1.5 0 1 0 0 3 1.5 1.5 0 0 0 0-3ZM6 0a1 1 0 0 1 1 1v5a1 1 0 0 1-1 1H4v5h2.288l-.56-.56a.501.501 0 0 1 .708-.708l1.478 1.494a.5.5 0 0 1-.064.628L6.436 14.27a.5.5 0 0 1-.707-.707L6.29 13H3.936C3.383 13 3 12.552 3 12V7L.897 6.995A1 1 0 0 1 0 6V1a1 1 0 0 1 1-1h5ZM2 5h3V2H2v3Zm10.98-5c.22 0 .405.161.435.377l.092.655c.213.084.506.24.683.382l.7-.32a.438.438 0 0 1 .56.193l.488.861a.436.436 0 0 1-.135.566l-.663.44c.019.148.056.473.025.685l.655.482a.435.435 0 0 1 .127.56l-.459.822a.44.44 0 0 1-.573.188l-.72-.297a2.948 2.948 0 0 1-.69.38l-.071.64a.439.439 0 0 1-.437.386l-.985-.003a.439.439 0 0 1-.435-.387l-.078-.63a3.222 3.222 0 0 1-.687-.4l-.66.35a.443.443 0 0 1-.563-.183l-.531-.882a.439.439 0 0 1 .13-.574l.647-.445a2.914 2.914 0 0 1 .009-.696l-.688-.55a.436.436 0 0 1-.095-.554l.543-.834c.11-.187.324-.204.525-.125l.684.33c.183-.137.434-.292.687-.397l.089-.641A.44.44 0 0 1 12.023 0h.957Zm-.476 2.507c-1.51 0-1.418 2.186 0 2.186 1.417 0 1.486-2.186 0-2.186Z" fill-rule="evenodd" />
</svg>