<!--
* SPDX-FileCopyrightText: © 2020 Liferay, Inc. <https://liferay.com>
* SPDX-FileCopyrightText: © 2020 Contributors to the project Clay <https://github.com/liferay/clay/graphs/contributors>
*
* SPDX-License-Identifier: BSD-3-Clause
-->
<svg xmlns="http://www.w3.org/2000/svg" viewBox="0 0 512 512">
	<path class="lexicon-icon-outline lx-product-menu-closed-left" d="M0,31C0,13.9,13.9,0,31,0c17.2,0,31.1,13.9,31,31v450c0,17.1-13.9,31-31,31S0,498.1,0,481V31z"/>
	<path class="lexicon-icon-outline lx-product-menu-closed-right" d="M464,512H144c-26.5,0-48-21.5-48-48V48c0-26.4,21.5-48,48-48h320c26.5,0,48,21.5,48,48v416C512,490.4,490.4,512,464,512z M160,448h288V64H160V448z"/>
</svg>