<!--
* SPDX-FileCopyrightText: © 2020 Liferay, Inc. <https://liferay.com>
* SPDX-FileCopyrightText: © 2020 Contributors to the project Clay <https://github.com/liferay/clay/graphs/contributors>
*
* SPDX-License-Identifier: BSD-3-Clause
-->
<svg  viewBox="0 0 16 16" xmlns="http://www.w3.org/2000/svg">
<path class="lexicon-icon-outline" d="M0 0.971191C0 0.436829 0.43457 0.00244141 0.96875 0.00244141C1.50586 0.00244141 1.94043 0.436829 1.9375 0.971191V15.0337C1.9375 15.5681 1.50293 16.0024 0.96875 16.0024C0.43457 16.0024 0 15.5681 0 15.0337V0.971191Z" />
<path class="lexicon-icon-outline" fill-rule="evenodd" clip-rule="evenodd" d="M14.5 16.0024H4.5C3.67188 16.0024 3 15.3306 3 14.5024V1.50244C3 0.677429 3.67188 0.00244141 4.5 0.00244141H14.5C15.3281 0.00244141 16 0.674316 16 1.50244V14.5024C16 15.3275 15.3252 16.0024 14.5 16.0024ZM5 14.0024H14V2.00244H5V14.0024Z" />
</svg>
