<!--
* SPDX-FileCopyrightText: © 2020 Liferay, Inc. <https://liferay.com>
* SPDX-FileCopyrightText: © 2020 Contributors to the project Clay <https://github.com/liferay/clay/graphs/contributors>
*
* SPDX-License-Identifier: BSD-3-Clause
-->
<svg viewBox="0 0 16 16" xmlns="http://www.w3.org/2000/svg"><path fill-rule="evenodd" clip-rule="evenodd" d="M5.5 16.002h-4a1.5 1.5 0 0 1-1.5-1.5v-13a1.5 1.5 0 0 1 1.5-1.5h4a1.5 1.5 0 0 1 1.5 1.5v13a1.5 1.5 0 0 1-1.5 1.5Zm-3.5-2h3v-12H2v12Z"/><path d="M10 2.002h5a1 1 0 1 0 0-2h-5a1 1 0 1 0 0 2Zm5 7h-5a1 1 0 1 1 0-2h5a1 1 0 1 1 0 2Zm-5 7h5a1 1 0 1 0 0-2h-5a1 1 0 1 0 0 2Z"/></svg>
