<!--
* SPDX-FileCopyrightText: © 2020 Liferay, Inc. <https://liferay.com>
* SPDX-FileCopyrightText: © 2020 Contributors to the project Clay <https://github.com/liferay/clay/graphs/contributors>
*
* SPDX-License-Identifier: BSD-3-Clause
-->
<svg  viewBox="0 0 16 16" xmlns="http://www.w3.org/2000/svg">
<path class="lexicon-icon-outline" fill-rule="evenodd" clip-rule="evenodd" d="M5.5 16.0024H1.5C0.671875 16.0024 0 15.3306 0 14.5024V1.50244C0 0.674316 0.671875 0.00244141 1.5 0.00244141H5.5C6.32812 0.00244141 7 0.674316 7 1.50244V14.5024C7 15.3306 6.32812 16.0024 5.5 16.0024ZM2 14.0024H5V2.00244H2V14.0024Z" />
<path class="lexicon-icon-outline" d="M10 2.00244H15C15.5527 2.00244 16 1.55557 16 1.00244C16 0.44931 15.5527 0.00244141 15 0.00244141H10C9.44727 0.00244141 9 0.44931 9 1.00244C9 1.55557 9.44727 2.00244 10 2.00244Z" />
<path class="lexicon-icon-outline" d="M15 9.00244H10C9.44727 9.00244 9 8.55557 9 8.00244C9 7.44931 9.44727 7.00244 10 7.00244H15C15.5527 7.00244 16 7.44931 16 8.00244C16 8.55557 15.5527 9.00244 15 9.00244Z" />
<path class="lexicon-icon-outline" d="M10 16.0024H15C15.5527 16.0024 16 15.5556 16 15.0024C16 14.4493 15.5527 14.0024 15 14.0024H10C9.44727 14.0024 9 14.4493 9 15.0024C9 15.5556 9.44727 16.0024 10 16.0024Z" />
</svg>
