<!--
* SPDX-FileCopyrightText: © 2026 Liferay, Inc. <https://liferay.com>
* SPDX-FileCopyrightText: © 2026 Contributors to the project Clay <https://github.com/liferay/clay/graphs/contributors>
*
* SPDX-License-Identifier: BSD-3-Clause
-->
<svg viewBox="0 0 16 16" xmlns="http://www.w3.org/2000/svg">
	<path class="lexicon-icon-outline" clip-rule="evenodd" d="M14 0a2 2 0 0 1 2 2v8a2 2 0 0 1-2 2h-2v2l-.01.204a2 2 0 0 1-1.786 1.785L10 16H2a2 2 0 0 1-1.99-1.796L0 14V6a2 2 0 0 1 2-2h2V2a2 2 0 0 1 2-2h8ZM2 6v8h8v-2H6a2 2 0 0 1-2-2V6H2Zm4 4h8V2h-2v5l-2-2.333L8 7V2H6v8Z" fill-rule="evenodd" />
</svg>