<!--
* SPDX-FileCopyrightText: © 2022 Liferay, Inc. <https://liferay.com>
* SPDX-FileCopyrightText: © 2022 Contributors to the project Clay <https://github.com/liferay/clay/graphs/contributors>
*
* SPDX-License-Identifier: BSD-3-Clause
-->
<svg viewBox="0 0 16 16" xmlns="http://www.w3.org/2000/svg"><path class="lexicon-icon-outline" d="M11.5 3.502a3.5 3.5 0 1 1-7 0 3.5 3.5 0 0 1 7 0ZM1 10.302l3.144-3.14c.453-.447 1.168.171.706.706l-3.134 3.134h.359c.647.006.678.975 0 1H.5a.501.501 0 0 1-.5-.5V9.927c.016-.662 1-.66 1 0v.375Zm14 0-3.144-3.14c-.453-.447-1.169.171-.706.706l3.134 3.134h-.36c-.646.006-.677.975 0 1H15.5c.275 0 .5-.225.5-.5V9.927c-.016-.662-1-.66-1 0v.375Zm-7.493-.794v4.794l-.266-.266c-.466-.465-1.166.229-.706.707l1.112 1.112a.502.502 0 0 0 .706 0l1.113-1.112c.462-.497-.244-1.16-.706-.707l-.253.254V9.508c-.054-.703-.997-.637-1 0Z"/></svg>