<!--
* SPDX-FileCopyrightText: © 2020 Liferay, Inc. <https://liferay.com>
* SPDX-FileCopyrightText: © 2020 Contributors to the project Clay <https://github.com/liferay/clay/graphs/contributors>
*
* SPDX-License-Identifier: BSD-3-Clause
-->
<svg  viewBox="0 0 16 16" xmlns="http://www.w3.org/2000/svg">
<path class="lexicon-icon-outline" fill-rule="evenodd" clip-rule="evenodd" d="M11.5 3.50244C11.5 5.43544 9.933 7.00244 8 7.00244C6.067 7.00244 4.5 5.43544 4.5 3.50244C4.5 1.56944 6.067 0.00244141 8 0.00244141C9.933 0.00244141 11.5 1.56944 11.5 3.50244ZM1 10.3024L4.14375 7.16181C4.59688 6.71494 5.3125 7.33369 4.85 7.86806L1.71563 11.0024H2.075C2.72188 11.0087 2.75313 11.9774 2.075 12.0024H0.5C0.225 12.0024 0 11.7774 0 11.5024V9.92744C0.015625 9.26494 1 9.26806 1 9.92744V10.3024ZM14.9997 10.3024L11.8559 7.16181C11.4028 6.71494 10.6872 7.33369 11.1497 7.86806L14.2841 11.0024H13.9247C13.2778 11.0087 13.2466 11.9774 13.9247 12.0024H15.4997C15.7747 12.0024 15.9997 11.7774 15.9997 11.5024V9.92744C15.9841 9.26494 14.9997 9.26806 14.9997 9.92744V10.3024ZM7.50657 9.50865V14.3024L7.24095 14.0368C6.77532 13.5711 6.07532 14.2649 6.5347 14.743L7.6472 15.8555C7.84095 16.0493 8.1597 16.0493 8.35345 15.8555L9.46595 14.743C9.92845 14.2462 9.2222 13.5837 8.7597 14.0368L8.50657 14.2899V9.50865C8.45345 8.80553 7.5097 8.87115 7.50657 9.50865Z" />
</svg>
