<!--
* SPDX-FileCopyrightText: © 2026 Liferay, Inc. <https://liferay.com>
* SPDX-FileCopyrightText: © 2026 Contributors to the project Clay <https://github.com/liferay/clay/graphs/contributors>
*
* SPDX-License-Identifier: BSD-3-Clause
-->
<svg viewBox="0 0 16 16" xmlns="http://www.w3.org/2000/svg">
	<path class="lexicon-icon-outline" d="M9.5 9a.5.5 0 0 1 0 1h-1a.5.5 0 0 1 0-1h1Zm2-2a.5.5 0 0 1 0 1h-3a.5.5 0 0 1 0-1h3Zm0-2a.5.5 0 0 1 0 1h-3a.5.5 0 0 1 0-1h3Z" />
	<path class="lexicon-icon-outline" clip-rule="evenodd" d="M15 3.25v8.125c0 .898-.746 1.625-1.667 1.625H11v1.375C11 15.273 10.254 16 9.333 16H2.667C1.747 16 1 15.273 1 14.375v-9.75C1 3.728 1.747 3 2.667 3H5V1.625C5 .728 5.747 0 6.667 0h5L15 3.25ZM3 14h6v-1H6.667C5.747 13 5 12.273 5 11.375V5H3v9Zm4-3h6V4.062h-1.333a.824.824 0 0 1-.834-.812V2H7v9Z" fill-rule="evenodd" />
</svg>