<!--
* SPDX-FileCopyrightText: © 2026 Liferay, Inc. <https://liferay.com>
* SPDX-FileCopyrightText: © 2026 Contributors to the project Clay <https://github.com/liferay/clay/graphs/contributors>
*
* SPDX-License-Identifier: BSD-3-Clause
-->
<svg viewBox="0 0 16 16" xmlns="http://www.w3.org/2000/svg">
	<path class="lexicon-icon-outline" d="M14.268 13.096v-1.173h-.153a2.904 2.904 0 1 1 0-5.808h.148a1.17 1.17 0 0 0-1.048-1.084l-.12-.006h-2.12v-2.12c0-.608-.46-1.107-1.052-1.167l-.12-.006H9.49c-.647 0-1.173.525-1.173 1.172v2.121h-2.12c-.648 0-1.173.526-1.173 1.173V7.22h-2.12c-.647 0-1.172.525-1.172 1.172v.314l.006.12c.06.59.56 1.052 1.166 1.052h2.12v3.218c0 .62.482 1.125 1.091 1.167v-.148a2.904 2.904 0 1 1 5.808 0v.153h1.173c.647 0 1.172-.525 1.172-1.172Zm-1.56-9.803h.388C14.7 3.293 16 4.593 16 6.197v.65a1 1 0 0 1-1 1h-.885a1.173 1.173 0 0 0 0 2.345H15a1 1 0 0 1 1 1v1.904C16 14.7 14.7 16 13.096 16h-1.904a1 1 0 0 1-1-1v-.885a1.173 1.173 0 0 0-2.345 0V15a1 1 0 0 1-1 1h-.65a2.904 2.904 0 0 1-2.905-2.904V11.61h-.388A2.904 2.904 0 0 1 0 8.706v-.314c0-1.604 1.3-2.904 2.904-2.904h.479a2.903 2.903 0 0 1 2.814-2.195h.389v-.389C6.586 1.3 7.886 0 9.49 0h.313c1.604 0 2.905 1.3 2.905 2.904v.39Z" />
</svg>