<!--
* SPDX-FileCopyrightText: © 2026 Liferay, Inc. <https://liferay.com>
* SPDX-FileCopyrightText: © 2026 Contributors to the project Clay <https://github.com/liferay/clay/graphs/contributors>
*
* SPDX-License-Identifier: BSD-3-Clause
-->
<svg viewBox="0 0 16 16" xmlns="http://www.w3.org/2000/svg">
	<path class="lexicon-icon-outline" d="M6.5 11.102a4.68 4.68 0 0 1-.068-.435 4.775 4.775 0 0 1-.02-.459c0-.58.125-1.138.387-1.673.26-.535.694-1.032 1.313-1.498L9.14 6.25c.612-.466.925-1.039.925-1.727 0-.244-.044-.489-.126-.733a1.63 1.63 0 0 0-.395-.634 1.892 1.892 0 0 0-.68-.436 2.588 2.588 0 0 0-.946-.168c-.388 0-.717.076-.986.222-.268.145-.5.328-.68.557a2.24 2.24 0 0 0-.395.787 3.439 3.439 0 0 0-.126.91c0 .29.03.527.082.695l-2.708-.107a2.157 2.157 0 0 1-.082-.49 4.73 4.73 0 0 1 .297-2.2c.217-.557.53-1.054.949-1.49A4.688 4.688 0 0 1 5.806.397C6.418.137 7.12 0 7.926 0c.826 0 1.558.122 2.193.374a5.025 5.025 0 0 1 1.589.97c.425.398.755.864.97 1.391.217.528.322 1.063.322 1.62 0 .871-.194 1.62-.582 2.239a5.881 5.881 0 0 1-1.546 1.628l-.879.634a3.146 3.146 0 0 0-.86.932c-.2.344-.297.741-.297 1.192v.13L6.5 11.102Zm0 1.933c-.33.344-.493.757-.493 1.238 0 .482.164.886.493 1.223.327.336.724.504 1.2.504.478 0 .882-.168 1.218-.504.334-.337.507-.742.507-1.223a1.72 1.72 0 0 0-.507-1.238 1.646 1.646 0 0 0-1.217-.512c-.47 0-.874.168-1.201.512Z"/>
</svg>