<!--
* SPDX-FileCopyrightText: © 2022 Liferay, Inc. <https://liferay.com>
* SPDX-FileCopyrightText: © 2022 Contributors to the project Clay <https://github.com/liferay/clay/graphs/contributors>
*
* SPDX-License-Identifier: BSD-3-Clause
-->
<svg viewBox="0 0 16 16" xmlns="http://www.w3.org/2000/svg"><path class="lexicon-icon-outline" fill-rule="evenodd" clip-rule="evenodd" d="M8 .002a8 8 0 1 0 0 16 8 8 0 0 0 0-16Zm.426 11.274a.775.775 0 0 1-.56.226.76.76 0 0 1-.553-.226.749.749 0 0 1-.228-.55c0-.217.076-.402.228-.556a.751.751 0 0 1 .553-.231c.218 0 .405.076.56.23.154.155.231.34.231.557 0 .215-.076.4-.231.55Zm.894-3.275a2.64 2.64 0 0 0 .713-.733c.178-.279.268-.615.266-1.009 0-.248-.049-.492-.149-.727a1.758 1.758 0 0 0-.444-.625 2.33 2.33 0 0 0-.732-.438 2.811 2.811 0 0 0-1.01-.167c-.37 0-.694.06-.975.177a2.17 2.17 0 0 0-.708.467 1.97 1.97 0 0 0-.434.67 2.103 2.103 0 0 0-.139.993c.007.076.02.149.04.22l1.246.05a.985.985 0 0 1-.04-.314c0-.137.02-.274.06-.408.039-.134.1-.252.182-.354a.988.988 0 0 1 .313-.25.966.966 0 0 1 .455-.1c.164 0 .31.025.435.075a.9.9 0 0 1 .312.196.774.774 0 0 1 .183.286c.039.108.06.217.06.329 0 .308-.142.568-.426.777l-.474.354c-.284.21-.486.434-.604.674a1.67 1.67 0 0 0-.179.752 1.948 1.948 0 0 0 .04.403H8.38V9.24c0-.203.047-.381.139-.536a1.44 1.44 0 0 1 .396-.418l.405-.285Z"/></svg>