<!--
* SPDX-FileCopyrightText: © 2020 Liferay, Inc. <https://liferay.com>
* SPDX-FileCopyrightText: © 2020 Contributors to the project Clay <https://github.com/liferay/clay/graphs/contributors>
*
* SPDX-License-Identifier: BSD-3-Clause
-->
<svg viewBox="0 0 16 16" xmlns="http://www.w3.org/2000/svg"><path d="M7.39 9.019a1.873 1.873 0 0 1-.038-.366c0-.238.053-.466.162-.685.109-.218.29-.422.55-.612l.43-.322c.257-.19.388-.425.388-.707 0-.1-.019-.2-.053-.3a.665.665 0 0 0-.165-.259.795.795 0 0 0-.285-.178 1.106 1.106 0 0 0-.396-.069.876.876 0 0 0-.698.319.908.908 0 0 0-.165.322 1.377 1.377 0 0 0-.053.372.99.99 0 0 0 .034.284l-1.133-.044a.864.864 0 0 1-.035-.2 1.896 1.896 0 0 1 .124-.9c.092-.228.223-.431.398-.61a1.96 1.96 0 0 1 .643-.424c.257-.107.55-.163.888-.163.346 0 .652.05.918.153.263.1.485.235.666.397.178.163.316.353.406.57.09.215.135.434.135.662 0 .356-.082.662-.244.915a2.43 2.43 0 0 1-.648.666l-.367.26a1.28 1.28 0 0 0-.36.381.93.93 0 0 0-.125.488v.053l-.978-.003Zm0 .791a.697.697 0 0 0-.207.506c0 .197.068.362.206.5a.68.68 0 0 0 .503.206c.2 0 .369-.069.51-.206a.676.676 0 0 0 .212-.5.695.695 0 0 0-.212-.507.697.697 0 0 0-.51-.209.676.676 0 0 0-.503.21Z"/><path fill-rule="evenodd" clip-rule="evenodd" d="M13.654 2.349A7.977 7.977 0 0 1 16 8.003c0 1.081-.21 2.128-.628 3.116a7.963 7.963 0 0 1-1.712 2.544 7.981 7.981 0 0 1-5.658 2.341 7.979 7.979 0 0 1-5.658-2.341A7.976 7.976 0 0 1-.001 8.006 7.92 7.92 0 0 1 .63 4.893a7.98 7.98 0 0 1 1.712-2.544A7.974 7.974 0 0 1 4.883.633 7.99 7.99 0 0 1 8 .004c1.078 0 2.127.213 3.112.632a7.978 7.978 0 0 1 2.543 1.713ZM2 8.006a6.002 6.002 0 0 0 5.999 6.001 6.002 6.002 0 0 0 0-12.002 6.002 6.002 0 0 0-6 6Z"/></svg>
