<!--
* SPDX-FileCopyrightText: © 2022 Liferay, Inc. <https://liferay.com>
* SPDX-FileCopyrightText: © 2022 Contributors to the project Clay <https://github.com/liferay/clay/graphs/contributors>
*
* SPDX-License-Identifier: BSD-3-Clause
-->
<svg viewBox="0 0 16 16" xmlns="http://www.w3.org/2000/svg"><path class="lexicon-icon-outline" d="M7.39 9.016a1.873 1.873 0 0 1-.038-.365c0-.238.053-.466.162-.685.109-.219.29-.422.55-.613l.43-.321c.257-.191.388-.426.388-.707 0-.1-.019-.2-.053-.3a.665.665 0 0 0-.165-.26.795.795 0 0 0-.285-.177 1.106 1.106 0 0 0-.396-.07.876.876 0 0 0-.698.32.908.908 0 0 0-.165.322 1.377 1.377 0 0 0-.053.371.99.99 0 0 0 .034.285l-1.133-.044a.864.864 0 0 1-.035-.2 1.896 1.896 0 0 1 .124-.9c.092-.228.223-.431.398-.61a1.96 1.96 0 0 1 .643-.425c.257-.106.55-.162.888-.162.346 0 .652.05.918.153.263.1.485.234.666.397a1.6 1.6 0 0 1 .406.569c.09.215.135.434.135.662 0 .357-.082.663-.244.916a2.43 2.43 0 0 1-.648.666l-.367.26c-.157.112-.275.24-.36.38a.93.93 0 0 0-.125.488v.053l-.978-.003Zm0 .791a.697.697 0 0 0-.207.506c0 .197.068.363.206.5a.68.68 0 0 0 .503.207c.2 0 .369-.069.51-.206a.676.676 0 0 0 .212-.5.695.695 0 0 0-.212-.507.697.697 0 0 0-.51-.21.676.676 0 0 0-.503.21Z"/><path class="lexicon-icon-outline" fill-rule="evenodd" clip-rule="evenodd" d="M13.654 2.346A7.976 7.976 0 0 1 16 8c0 1.082-.21 2.13-.628 3.117a7.963 7.963 0 0 1-1.712 2.544 7.98 7.98 0 0 1-5.658 2.341 7.977 7.977 0 0 1-5.658-2.341A7.975 7.975 0 0 1-.001 8.004 7.92 7.92 0 0 1 .631 4.89a7.98 7.98 0 0 1 1.712-2.545A7.974 7.974 0 0 1 4.883.63 7.99 7.99 0 0 1 8 .002a7.93 7.93 0 0 1 3.112.631 7.976 7.976 0 0 1 2.543 1.713ZM2 8.004a6.002 6.002 0 0 0 5.999 6 6.002 6.002 0 0 0 0-12.002 6.002 6.002 0 0 0-6 6.002Z"/></svg>