<!--
* SPDX-FileCopyrightText: © 2020 Liferay, Inc. <https://liferay.com>
* SPDX-FileCopyrightText: © 2020 Contributors to the project Clay <https://github.com/liferay/clay/graphs/contributors>
*
* SPDX-License-Identifier: BSD-3-Clause
-->
<svg  viewBox="0 0 16 16" xmlns="http://www.w3.org/2000/svg">
<path class="lexicon-icon-outline" fill-rule="evenodd" clip-rule="evenodd" d="M8 0.00244141C3.58203 0.00244141 0 3.58368 0 8.00244C0 12.4202 3.58203 16.0024 8 16.0024C12.418 16.0024 16 12.4202 16 8.00244C16 3.58368 12.418 0.00244141 8 0.00244141ZM8.42578 11.2765C8.26953 11.4274 8.08398 11.5023 7.86621 11.5023C7.64941 11.5023 7.46484 11.4265 7.3125 11.2765C7.16113 11.1257 7.08496 10.9419 7.08496 10.7261C7.08496 10.5095 7.16113 10.3247 7.3125 10.1702C7.46484 10.0166 7.64941 9.9389 7.86621 9.9389C8.08398 9.9389 8.27051 10.0157 8.42578 10.1702C8.58008 10.3248 8.65723 10.5094 8.65723 10.7261C8.65723 10.9419 8.58105 11.1257 8.42578 11.2765ZM9.32031 8.00153C9.61816 7.7912 9.85449 7.54712 10.0332 7.26825C10.2109 6.98932 10.3008 6.65289 10.2988 6.25977C10.2988 6.01105 10.25 5.76782 10.1504 5.53198C10.0518 5.29608 9.90332 5.08765 9.70605 4.90753C9.50684 4.72742 9.2627 4.58118 8.97363 4.4696C8.68262 4.35803 8.3457 4.30225 7.96387 4.30225C7.59473 4.30225 7.26953 4.36163 6.98926 4.47961C6.70898 4.5976 6.47266 4.75391 6.28125 4.94684C6.09082 5.14062 5.94531 5.36377 5.84668 5.61609C5.74805 5.86841 5.69824 6.12537 5.69824 6.38776C5.69824 6.45996 5.70215 6.53406 5.70801 6.60901C5.71484 6.68488 5.72754 6.75806 5.74805 6.83026L6.99414 6.87964C6.9668 6.80096 6.9541 6.69672 6.9541 6.56506C6.9541 6.42792 6.97461 6.29169 7.01367 6.15729C7.05273 6.02295 7.11426 5.90497 7.19629 5.80347C7.2793 5.70203 7.38281 5.61877 7.50879 5.55298C7.63379 5.48718 7.78516 5.45422 7.96387 5.45422C8.12793 5.45422 8.27344 5.47882 8.39941 5.52826C8.52441 5.57764 8.62891 5.64258 8.71094 5.72485C8.79297 5.80713 8.85449 5.90216 8.89355 6.01007C8.93262 6.11798 8.95312 6.22766 8.95312 6.33923C8.95312 6.6474 8.81152 6.90704 8.52832 7.11639L8.05371 7.47021C7.76953 7.68048 7.56836 7.90448 7.4502 8.14404C7.33105 8.38361 7.27148 8.63409 7.27148 8.89655C7.27148 8.96875 7.27539 9.03729 7.28125 9.10315C7.28809 9.16901 7.29688 9.23395 7.31055 9.29974H8.37988V9.24036C8.37988 9.03735 8.42676 8.85907 8.51855 8.70453C8.61133 8.55096 8.74316 8.41107 8.91504 8.28674L9.32031 8.00153Z" />
</svg>
