<!--
* SPDX-FileCopyrightText: © 2020 Liferay, Inc. <https://liferay.com>
* SPDX-FileCopyrightText: © 2020 Contributors to the project Clay <https://github.com/liferay/clay/graphs/contributors>
*
* SPDX-License-Identifier: BSD-3-Clause
-->
<svg viewBox="0 0 16 16" xmlns="http://www.w3.org/2000/svg"><path fill-rule="evenodd" clip-rule="evenodd" d="M8 .002a8 8 0 1 0 0 16 8 8 0 0 0 0-16Zm.426 11.274a.776.776 0 0 1-.56.226.761.761 0 0 1-.553-.226.749.749 0 0 1-.228-.55c0-.217.076-.401.228-.556a.752.752 0 0 1 .553-.231c.218 0 .405.077.56.231a.76.76 0 0 1 .231.556c0 .216-.076.4-.231.55Zm.894-3.275a2.64 2.64 0 0 0 .713-.733c.178-.279.268-.615.266-1.008 0-.25-.049-.492-.149-.728a1.758 1.758 0 0 0-.444-.625 2.33 2.33 0 0 0-.732-.438 2.811 2.811 0 0 0-1.01-.167c-.37 0-.694.06-.975.177a2.17 2.17 0 0 0-.708.468 1.97 1.97 0 0 0-.434.669 2.103 2.103 0 0 0-.139.993c.007.076.02.149.04.221l1.246.05a.985.985 0 0 1-.04-.315c0-.137.02-.273.06-.408.039-.134.1-.252.182-.354a.987.987 0 0 1 .313-.25.966.966 0 0 1 .455-.099c.164 0 .31.025.435.074a.9.9 0 0 1 .312.197.774.774 0 0 1 .183.285c.039.108.06.218.06.33 0 .307-.142.567-.426.776l-.474.354c-.284.21-.486.434-.604.674a1.67 1.67 0 0 0-.179.752 1.948 1.948 0 0 0 .04.403H8.38V9.24c0-.203.047-.381.139-.536.092-.153.224-.293.396-.417L9.32 8Z"/></svg>
