<!--
* SPDX-FileCopyrightText: © 2020 Liferay, Inc. <https://liferay.com>
* SPDX-FileCopyrightText: © 2020 Contributors to the project Clay <https://github.com/liferay/clay/graphs/contributors>
*
* SPDX-License-Identifier: BSD-3-Clause
-->
<svg  viewBox="0 0 16 16" xmlns="http://www.w3.org/2000/svg">
<path class="lexicon-icon-outline" d="M7.38906 9.01878C7.37634 8.95938 7.36753 8.89999 7.36068 8.8406C7.35481 8.78121 7.35188 8.71869 7.35188 8.65306C7.35188 8.41549 7.40471 8.18734 7.51428 7.96855C7.62287 7.74976 7.80483 7.54657 8.06408 7.35591L8.49453 7.03399C8.75084 6.84334 8.88193 6.60889 8.88193 6.32758C8.88193 6.22757 8.86334 6.12757 8.8291 6.02756C8.79486 5.92749 8.7391 5.84314 8.66377 5.76809C8.58844 5.6931 8.49453 5.63371 8.37909 5.58998C8.26365 5.54618 8.13256 5.52117 7.98288 5.52117C7.82048 5.52117 7.68254 5.55242 7.57004 5.61181C7.45754 5.67121 7.36068 5.74626 7.28536 5.84003C7.21101 5.93379 7.15426 6.04004 7.12002 6.16194C7.08578 6.28385 7.0672 6.40887 7.0672 6.5339C7.0672 6.65268 7.07991 6.74957 7.10144 6.81832L5.96759 6.77459C5.94901 6.70895 5.93629 6.64326 5.93335 6.57451C5.92651 6.50576 5.92357 6.44013 5.92357 6.3745C5.92357 6.13693 5.96759 5.90254 6.0576 5.67433C6.14858 5.44618 6.27967 5.24304 6.45478 5.06487C6.6299 4.88981 6.84219 4.74607 7.0985 4.63976C7.35481 4.53351 7.6483 4.47724 7.98581 4.47724C8.33213 4.47724 8.63834 4.52727 8.90443 4.6304C9.16662 4.73041 9.38869 4.86479 9.56967 5.02737C9.74772 5.18989 9.88566 5.38054 9.97566 5.59622C10.0666 5.81189 10.1107 6.03068 10.1107 6.25883C10.1107 6.61519 10.0295 6.92145 9.86707 7.17461C9.7037 7.42784 9.48847 7.64975 9.21944 7.84041L8.8516 8.09981C8.69508 8.21236 8.5767 8.3405 8.49159 8.48112C8.40746 8.62181 8.36735 8.78433 8.36735 8.96874V9.0219L7.38906 9.01878Z" />
<path class="lexicon-icon-outline" d="M7.38906 9.8096C7.25112 9.95022 7.18263 10.119 7.18263 10.3159C7.18263 10.5128 7.25112 10.6785 7.38906 10.816C7.52602 10.9535 7.69233 11.0223 7.8919 11.0223C8.09147 11.0223 8.26072 10.9535 8.40159 10.816C8.54149 10.6785 8.61388 10.5128 8.61388 10.3159C8.61388 10.119 8.54149 9.95022 8.40159 9.8096C8.26072 9.66891 8.08854 9.60016 7.8919 9.60016C7.69526 9.60016 7.52602 9.66891 7.38906 9.8096Z" />
<path class="lexicon-icon-outline" fill-rule="evenodd" clip-rule="evenodd" d="M13.654 2.34871C14.3878 3.08326 14.9659 3.93653 15.369 4.88987C15.7848 5.87752 16 6.92151 16 8.00293C16 9.08441 15.7906 10.1315 15.3719 11.1192C14.9689 12.0725 14.3946 12.9289 13.6599 13.6634C12.9262 14.3979 12.0702 14.9731 11.1164 15.3763C10.1293 15.792 9.08248 16.0045 8.00147 16.0045C6.92045 16.0045 5.87368 15.7951 4.88658 15.3763C3.93372 14.9731 3.07771 14.3979 2.34301 13.6634C1.60929 12.9289 1.03112 12.0756 0.628065 11.1223C0.21229 10.1346 0 9.08441 0 8.00605C0 6.92775 0.21229 5.87752 0.631 4.89299C1.03406 3.93965 1.60929 3.08326 2.34301 2.34871C3.07771 1.61423 3.93079 1.03596 4.88364 0.632756C5.87074 0.217069 6.92045 0.0045166 7.99853 0.0045166C9.07661 0.0045166 10.1263 0.217069 11.1105 0.635875C12.0633 1.03908 12.9194 1.61423 13.654 2.34871ZM1.99963 8.00605C1.99963 11.3192 4.68701 14.0073 7.99853 14.0073C11.3101 14.0073 13.9974 11.3192 13.9974 8.00605C13.9974 4.69291 11.3101 2.0049 7.99853 2.0049C4.68701 2.0049 1.99963 4.69291 1.99963 8.00605Z" />
</svg>
