<!--
* SPDX-FileCopyrightText: © 2020 Liferay, Inc. <https://liferay.com>
* SPDX-FileCopyrightText: © 2020 Contributors to the project Clay <https://github.com/liferay/clay/graphs/contributors>
*
* SPDX-License-Identifier: BSD-3-Clause
-->
<svg  viewBox="0 0 16 16" xmlns="http://www.w3.org/2000/svg">
<path class="lexicon-icon-outline" fill-rule="evenodd" clip-rule="evenodd" d="M6.34344 13.0651C6.97652 12.4393 7.29354 11.7133 7.29354 10.887C7.29354 9.97592 7.02055 9.25765 6.47554 8.7305C5.93053 8.20424 5.15656 7.94024 4.15558 7.94024C3.77299 7.94024 3.46282 8.01139 3.22798 8.15367C3.28571 7.15766 3.69178 6.35367 4.44325 5.7408C5.19374 5.12966 5.99706 4.75253 6.85127 4.60935V2.00452C6.14384 2.06192 5.39335 2.23936 4.59589 2.53851C3.80039 2.83682 3.0636 3.29283 2.3865 3.90481C1.70744 4.51768 1.1409 5.31394 0.684932 6.29621C0.227984 7.27854 0 8.48191 0 9.90478C0 11.0439 0.34638 12.0117 1.03914 12.8088C1.73092 13.6059 2.66634 14.0045 3.8454 14.0045C4.87671 14.0045 5.70939 13.6916 6.34344 13.0651ZM15.0499 13.0651C15.683 12.4393 16 11.7133 16 10.887C16 9.97592 15.727 9.25765 15.183 8.7305C14.637 8.20424 13.863 7.94024 12.862 7.94024C12.4795 7.94024 12.1693 8.01139 11.9344 8.15367C11.9922 7.15766 12.3982 6.35367 13.1497 5.7408C13.9012 5.12966 14.7045 4.75253 15.5587 4.60935V2.00452C14.8513 2.06192 14.0998 2.23936 13.3033 2.53851C12.5078 2.83682 11.771 3.29283 11.0939 3.90481C10.4149 4.51768 9.84834 5.31394 9.39237 6.29621C8.93542 7.27854 8.70744 8.48191 8.70744 9.90478C8.70744 11.0439 9.05382 12.0117 9.74658 12.8088C10.4384 13.6059 11.3738 14.0045 12.5528 14.0045C13.5841 14.0045 14.4159 13.6916 15.0499 13.0651Z" />
</svg>
