<!--
* SPDX-FileCopyrightText: © 2020 Liferay, Inc. <https://liferay.com>
* SPDX-FileCopyrightText: © 2020 Contributors to the project Clay <https://github.com/liferay/clay/graphs/contributors>
*
* SPDX-License-Identifier: BSD-3-Clause
-->
<svg  viewBox="0 0 16 16" xmlns="http://www.w3.org/2000/svg">
<path class="lexicon-icon-outline" fill-rule="evenodd" clip-rule="evenodd" d="M0.950098 2.94402C0.317025 3.56968 0 4.29564 0 5.122C0 6.03307 0.272994 6.75141 0.818004 7.27844C1.36301 7.80477 2.13699 8.06876 3.13796 8.06876C3.52055 8.06876 3.83072 7.99762 4.06556 7.85533C4.00783 8.85134 3.60274 9.65534 2.85029 10.2683C2.09883 10.8794 1.29648 11.2566 0.441292 11.3997V14.0045C1.14873 13.9472 1.90117 13.7697 2.69667 13.4706C3.49217 13.1722 4.22896 12.7163 4.90704 12.1042C5.58513 11.4914 6.15166 10.6951 6.60861 9.7128C7.06458 8.73059 7.29256 7.52709 7.29256 6.10421C7.29256 4.96508 6.94618 3.99738 6.2544 3.20028C5.56262 2.40307 4.62622 2.00452 3.44716 2.00452C2.41585 2.00452 1.58415 2.31741 0.950098 2.94402ZM9.65656 2.94402C9.02348 3.56968 8.70646 4.29564 8.70646 5.122C8.70646 6.03307 8.97945 6.75141 9.52544 7.27844C10.0704 7.80477 10.8444 8.06876 11.8454 8.06876C12.228 8.06876 12.5382 7.99762 12.773 7.85533C12.7153 8.85134 12.3102 9.65534 11.5577 10.2683C10.8072 10.8794 10.0049 11.2566 9.14971 11.3997V14.0045C9.85714 13.9472 10.6086 13.7697 11.4041 13.4706C12.1996 13.1722 12.9364 12.7163 13.6135 12.1042C14.2926 11.4914 14.8591 10.6951 15.3151 9.7128C15.772 8.73059 16 7.52709 16 6.10421C16 4.96508 15.6536 3.99738 14.9609 3.20028C14.2691 2.40307 13.3337 2.00452 12.1546 2.00452C11.1233 2.00452 10.2906 2.31741 9.65656 2.94402Z" />
</svg>
