<!--
* SPDX-FileCopyrightText: © 2022 Liferay, Inc. <https://liferay.com>
* SPDX-FileCopyrightText: © 2022 Contributors to the project Clay <https://github.com/liferay/clay/graphs/contributors>
*
* SPDX-License-Identifier: BSD-3-Clause
-->
<svg viewBox="0 0 16 16" xmlns="http://www.w3.org/2000/svg"><path class="lexicon-icon-outline" fill-rule="evenodd" clip-rule="evenodd" d="M.95 2.942C.317 3.567 0 4.293 0 5.12c0 .91.273 1.629.818 2.156.545.526 1.319.79 2.32.79.383 0 .693-.07.928-.213-.058.996-.463 1.8-1.216 2.413-.751.611-1.554.988-2.409 1.131v2.605c.708-.057 1.46-.235 2.256-.534a6.908 6.908 0 0 0 2.21-1.366c.678-.613 1.245-1.41 1.702-2.392.456-.982.684-2.185.684-3.608 0-1.14-.347-2.107-1.039-2.904-.691-.797-1.628-1.196-2.807-1.196-1.031 0-1.863.313-2.497.94Zm8.707 0c-.634.625-.95 1.351-.95 2.178 0 .91.272 1.629.818 2.156.545.526 1.32.79 2.32.79.383 0 .693-.07.928-.213-.058.996-.463 1.8-1.215 2.413-.75.611-1.553.988-2.408 1.131v2.605c.707-.057 1.459-.235 2.254-.534a6.893 6.893 0 0 0 2.21-1.366c.679-.613 1.245-1.41 1.701-2.392.457-.982.685-2.185.685-3.608 0-1.14-.346-2.107-1.04-2.904-.69-.797-1.626-1.196-2.805-1.196-1.032 0-1.864.313-2.498.94Z"/></svg>