<!--
* SPDX-FileCopyrightText: © 2020 Liferay, Inc. <https://liferay.com>
* SPDX-FileCopyrightText: © 2020 Contributors to the project Clay <https://github.com/liferay/clay/graphs/contributors>
*
* SPDX-License-Identifier: BSD-3-Clause
-->
<svg viewBox="0 0 16 16" xmlns="http://www.w3.org/2000/svg"><path fill-rule="evenodd" clip-rule="evenodd" d="M6.343 13.065c.634-.626.95-1.352.95-2.178 0-.911-.272-1.63-.817-2.157-.545-.526-1.32-.79-2.32-.79-.383 0-.693.071-.928.214.058-.996.464-1.8 1.215-2.413.75-.611 1.554-.989 2.408-1.132V2.004c-.707.058-1.458.235-2.255.534a6.895 6.895 0 0 0-2.21 1.367c-.679.613-1.245 1.409-1.701 2.391C.228 7.278 0 8.482 0 9.905c0 1.139.346 2.107 1.04 2.904.69.797 1.626 1.195 2.805 1.195 1.032 0 1.864-.313 2.498-.939Zm8.707 0c.633-.626.95-1.352.95-2.178 0-.911-.273-1.63-.817-2.157-.546-.526-1.32-.79-2.321-.79-.383 0-.693.071-.928.214.058-.996.464-1.8 1.216-2.413.751-.611 1.554-.989 2.409-1.132V2.004c-.708.058-1.46.235-2.256.534a6.895 6.895 0 0 0-2.21 1.367c-.678.613-1.245 1.409-1.7 2.391-.458.982-.686 2.186-.686 3.609 0 1.139.347 2.107 1.04 2.904.691.797 1.627 1.195 2.806 1.195 1.031 0 1.863-.313 2.497-.939Z"/></svg>
