<!--
* SPDX-FileCopyrightText: © 2022 Liferay, Inc. <https://liferay.com>
* SPDX-FileCopyrightText: © 2022 Contributors to the project Clay <https://github.com/liferay/clay/graphs/contributors>
*
* SPDX-License-Identifier: BSD-3-Clause
-->
<svg viewBox="0 0 16 16" xmlns="http://www.w3.org/2000/svg"><path class="lexicon-icon-outline" fill-rule="evenodd" clip-rule="evenodd" d="M6.343 13.063c.634-.626.95-1.352.95-2.178 0-.912-.272-1.63-.817-2.157-.545-.526-1.32-.79-2.32-.79-.383 0-.693.071-.928.213.058-.996.464-1.8 1.215-2.413.75-.61 1.554-.988 2.408-1.131V2.002c-.707.057-1.458.235-2.255.534a6.895 6.895 0 0 0-2.21 1.366c-.679.613-1.245 1.41-1.701 2.392C.228 7.276 0 8.479 0 9.902c0 1.14.346 2.107 1.04 2.904.69.798 1.626 1.196 2.805 1.196 1.032 0 1.864-.313 2.498-.94Zm8.707 0c.633-.626.95-1.352.95-2.178 0-.912-.273-1.63-.817-2.157-.546-.526-1.32-.79-2.321-.79-.383 0-.693.071-.928.213.058-.996.464-1.8 1.216-2.413.751-.61 1.554-.988 2.409-1.131V2.002c-.708.057-1.46.235-2.256.534a6.895 6.895 0 0 0-2.21 1.366c-.678.613-1.245 1.41-1.7 2.392-.458.982-.686 2.185-.686 3.608 0 1.14.347 2.107 1.04 2.904.691.798 1.627 1.196 2.806 1.196 1.031 0 1.863-.313 2.497-.94Z"/></svg>