<!--
* SPDX-FileCopyrightText: © 2020 Liferay, Inc. <https://liferay.com>
* SPDX-FileCopyrightText: © 2020 Contributors to the project Clay <https://github.com/liferay/clay/graphs/contributors>
*
* SPDX-License-Identifier: BSD-3-Clause
-->
<svg  viewBox="0 0 16 16" xmlns="http://www.w3.org/2000/svg">
<path class="lexicon-icon-outline" fill-rule="evenodd" clip-rule="evenodd" d="M16 8.00244C16 12.4211 12.4189 16.0024 8 16.0024C3.58105 16.0024 0 12.4211 0 8.00244C0 3.58374 3.58105 0.00244141 8 0.00244141C12.4189 0.00244141 16 3.58374 16 8.00244ZM12 8.00244C12 10.2118 10.209 12.0024 8 12.0024C5.79102 12.0024 4 10.2118 4 8.00244C4 5.79309 5.79102 4.00244 8 4.00244C10.209 4.00244 12 5.79309 12 8.00244ZM8 2.00244C11.3125 2.00244 14 4.68994 14 8.00244C14 11.3149 11.3125 14.0024 8 14.0024C4.6875 14.0024 2 11.3149 2 8.00244C2 4.68994 4.6875 2.00244 8 2.00244Z" />
</svg>
