<!--
* SPDX-FileCopyrightText: © 2022 Liferay, Inc. <https://liferay.com>
* SPDX-FileCopyrightText: © 2022 Contributors to the project Clay <https://github.com/liferay/clay/graphs/contributors>
*
* SPDX-License-Identifier: BSD-3-Clause
-->
<svg viewBox="0 0 16 16" xmlns="http://www.w3.org/2000/svg"><path class="lexicon-icon-outline" d="M16 8.004c0-1.042-1.327-2.029-3.362-2.64.47-2.039.26-3.66-.66-4.18a1.438 1.438 0 0 0-.726-.179v-.003c-.897 0-2.071.628-3.259 1.718-1.187-1.083-2.36-1.705-3.258-1.705v.003c-.274 0-.521.058-.737.18-.916.519-1.122 2.137-.649 4.168C1.321 5.982 0 6.966 0 8.004c0 1.041 1.327 2.028 3.362 2.64-.47 2.038-.26 3.66.66 4.179.211.121.459.18.733.18.897 0 2.07-.629 3.258-1.719 1.187 1.084 2.361 1.705 3.258 1.705.274 0 .522-.057.737-.18.917-.518 1.122-2.136.65-4.168C14.678 10.029 16 9.04 16 8.004Zm-4.752-6.287c.15.003.271.032.372.086.444.25.636 1.202.486 2.426a9.73 9.73 0 0 1-.166.942 16.066 16.066 0 0 0-2.071-.35A15.698 15.698 0 0 0 8.512 3.22c1.06-.971 2.058-1.5 2.736-1.503ZM5.11 9.644c.154.257.31.507.47.75-.463-.067-.91-.15-1.337-.253.12-.413.27-.84.44-1.266.134.257.274.513.427.77Zm-.877-3.778a16.05 16.05 0 0 1 1.344-.253 17.649 17.649 0 0 0-.894 1.529c-.176-.43-.326-.86-.45-1.276Zm.832 2.147A17.028 17.028 0 0 1 6.526 5.51a17.267 17.267 0 0 1 2.942-.003A16.59 16.59 0 0 1 10.936 8a17.032 17.032 0 0 1-1.461 2.503 17.251 17.251 0 0 1-2.943.003 16.59 16.59 0 0 1-1.468-2.493Zm5.824 1.622c.15-.257.29-.516.425-.773.176.43.326.86.45 1.276-.428.102-.878.189-1.344.256.16-.247.32-.5.47-.76Zm-.003-3.272a17.37 17.37 0 0 0-.47-.75c.464.067.91.15 1.338.253-.12.414-.27.84-.44 1.266a15.136 15.136 0 0 0-.428-.769Zm-1.99-1.612A20.543 20.543 0 0 0 8 4.73c-.307 0-.61.006-.907.022.294-.375.597-.718.897-1.025.304.307.607.65.907 1.025ZM4.36 1.816a.736.736 0 0 1 .375-.083v-.004c.676 0 1.677.53 2.74 1.494a15.197 15.197 0 0 0-1.347 1.599c-.737.077-1.435.195-2.074.352a9.516 9.516 0 0 1-.17-.93c-.153-1.223.036-2.175.476-2.428Zm-.82 8.136c-.323-.1-.63-.208-.914-.327C1.471 9.141.724 8.507.724 8.004c0-.503.747-1.141 1.901-1.622.28-.118.587-.224.904-.323.186.628.43 1.281.734 1.951-.3.667-.542 1.317-.724 1.942Zm1.21 4.339a.79.79 0 0 1-.37-.087c-.443-.25-.635-1.202-.485-2.426.036-.3.095-.618.166-.942.64.154 1.337.273 2.071.35.44.592.897 1.13 1.357 1.602-1.063.97-2.061 1.503-2.74 1.503Zm3.258-2.01c-.304-.307-.607-.65-.907-1.025a16.852 16.852 0 0 0 1.803 0c-.293.375-.596.718-.896 1.025Zm3.633 1.91a.737.737 0 0 1-.375.084c-.676 0-1.677-.529-2.74-1.494.457-.47.913-1.006 1.347-1.599a15.479 15.479 0 0 0 2.074-.352c.075.324.134.634.17.932.153 1.224-.036 2.176-.476 2.43Zm1.731-4.566c-.28.119-.587.224-.903.324a15.22 15.22 0 0 0-.734-1.952c.3-.666.542-1.317.724-1.942.323.1.63.209.917.327 1.154.484 1.901 1.119 1.901 1.622-.003.503-.75 1.14-1.905 1.621Z"/><path class="lexicon-icon-outline" d="M7.997 9.468c.823 0 1.49-.656 1.49-1.464 0-.81-.667-1.465-1.49-1.465s-1.49.656-1.49 1.465c0 .808.667 1.464 1.49 1.464Z"/></svg>