<!--
* SPDX-FileCopyrightText: © 2020 Liferay, Inc. <https://liferay.com>
* SPDX-FileCopyrightText: © 2020 Contributors to the project Clay <https://github.com/liferay/clay/graphs/contributors>
*
* SPDX-License-Identifier: BSD-3-Clause
-->
<svg  viewBox="0 0 16 16" xmlns="http://www.w3.org/2000/svg">
<path class="lexicon-icon-outline" d="M16 8.00612C16 6.96469 14.6726 5.97774 12.6376 5.3657C13.1072 3.3277 12.8985 1.70628 11.9788 1.18717C11.7668 1.0654 11.5222 1.00772 11.2515 1.00772V1.00452C10.3547 1.00452 9.18059 1.63258 7.99348 2.72207C6.80636 1.63899 5.63229 1.01733 4.73543 1.01733V1.02054C4.46148 1.02054 4.21362 1.07822 3.99837 1.19998C3.08194 1.7191 2.87648 3.33732 3.34937 5.3689C1.32083 5.98415 0 6.9679 0 8.00612C0 9.04755 1.32735 10.0345 3.36241 10.6465C2.89278 12.6845 3.10151 14.306 4.0212 14.8251C4.23318 14.9468 4.48104 15.0045 4.75499 15.0045C5.65185 15.0045 6.82593 14.3765 8.01304 13.287C9.20016 14.37 10.3742 14.9917 11.2711 14.9917C11.545 14.9917 11.7929 14.934 12.0082 14.8123C12.9246 14.2931 13.13 12.6749 12.6572 10.6433C14.6792 10.0313 16 9.04434 16 8.00612ZM11.2483 1.7191C11.3983 1.7223 11.519 1.75114 11.6201 1.80562C12.0636 2.05556 12.256 3.00726 12.106 4.23134C12.0701 4.53255 12.0114 4.84979 11.9397 5.17343C11.3004 5.01962 10.6025 4.90106 9.86873 4.82415C9.42845 4.23134 8.97187 3.693 8.51203 3.22196C9.57195 2.25103 10.5699 1.7223 11.2483 1.7191ZM5.11048 9.64677C5.26376 9.90312 5.4203 10.1531 5.58011 10.3966C5.117 10.3293 4.6702 10.246 4.24297 10.1434C4.36364 9.73008 4.51366 9.3039 4.68324 8.87771C4.81696 9.13406 4.95719 9.39042 5.11048 9.64677ZM4.23318 5.86879C4.66042 5.76945 5.11048 5.68293 5.57684 5.61564C5.41704 5.86238 5.25724 6.11553 5.10722 6.37508C4.95719 6.63143 4.81696 6.88778 4.68324 7.14414C4.50713 6.71475 4.35711 6.28536 4.23318 5.86879ZM5.06482 8.01573C5.26702 7.58634 5.49531 7.15695 5.73991 6.73718C5.99429 6.30458 6.2552 5.89442 6.52589 5.5131C7.01182 5.47144 7.50428 5.44901 8 5.44901C8.49246 5.44901 8.98491 5.47144 9.46759 5.5099C9.73828 5.89122 10.0024 6.29818 10.2568 6.72757C10.5047 7.14734 10.7297 7.57353 10.9352 8.00291C10.7297 8.4323 10.5047 8.86169 10.2601 9.28147C10.0057 9.71406 9.7448 10.1242 9.47411 10.5055C8.98818 10.5472 8.49572 10.5696 8 10.5696C7.50754 10.5696 7.01508 10.5472 6.53241 10.5088C6.26172 10.1274 5.99755 9.72047 5.74317 9.29108C5.49531 8.87131 5.27028 8.44512 5.06482 8.01573ZM10.8895 9.63715C11.0395 9.3808 11.1798 9.12125 11.3135 8.8649C11.4896 9.29428 11.6396 9.72367 11.7636 10.1402C11.3363 10.2428 10.8863 10.3293 10.4199 10.3966C10.5797 10.1499 10.7395 9.89671 10.8895 9.63715ZM10.8863 6.36547C10.7362 6.10912 10.5764 5.85917 10.4166 5.61564C10.8797 5.68293 11.3265 5.76625 11.7538 5.86879C11.6331 6.28215 11.4831 6.70834 11.3135 7.13452C11.1798 6.87817 11.0395 6.62182 10.8863 6.36547ZM8.89686 4.75366C8.60334 4.74084 8.3033 4.73123 8 4.73123C7.69344 4.73123 7.39013 4.73764 7.09335 4.75366C7.38687 4.37874 7.69018 4.03587 7.99022 3.72825C8.29352 4.03587 8.59682 4.37874 8.89686 4.75366ZM4.36037 1.81843C4.45821 1.76075 4.5854 1.73512 4.73543 1.73512V1.73191C5.41052 1.73191 6.41174 2.26064 7.47493 3.22516C7.01834 3.69621 6.56176 4.23134 6.12801 4.82415C5.39095 4.90106 4.69303 5.01962 4.05381 5.17664C3.9788 4.8562 3.92336 4.54537 3.88422 4.24736C3.73094 3.02329 3.9201 2.07158 4.36037 1.81843ZM3.53852 9.95439C3.21565 9.85505 2.90909 9.74611 2.62536 9.62754C1.47085 9.14368 0.724011 8.50921 0.724011 8.00612C0.724011 7.50303 1.47085 6.86535 2.62536 6.3847C2.90583 6.26613 3.21239 6.16039 3.52874 6.06105C3.71463 6.68911 3.95923 7.34281 4.26254 8.01253C3.96249 8.67904 3.72116 9.32953 3.53852 9.95439ZM4.74847 14.2931C4.60171 14.2899 4.47778 14.2611 4.37994 14.2066C3.9364 13.9567 3.74399 13.005 3.89401 11.7809C3.92988 11.4797 3.98859 11.1624 4.06033 10.8388C4.69955 10.9926 5.39747 11.1112 6.13127 11.1881C6.57154 11.7809 7.02813 12.3192 7.48797 12.7903C6.42479 13.7612 5.42682 14.2931 4.74847 14.2931ZM8.00652 12.284C7.70322 11.9764 7.39992 11.6335 7.09988 11.2586C7.3934 11.2714 7.69344 11.281 7.99674 11.281C8.3033 11.281 8.6066 11.2746 8.90338 11.2586C8.60987 11.6335 8.30656 11.9764 8.00652 12.284ZM11.6396 14.1938C11.5418 14.2515 11.4146 14.2771 11.2646 14.2771C10.5895 14.2771 9.58826 13.7484 8.52507 12.7839C8.98165 12.3128 9.43824 11.7777 9.87199 11.1849C10.609 11.108 11.307 10.9894 11.9462 10.8324C12.0212 11.156 12.0799 11.4669 12.1158 11.7649C12.2691 12.989 12.0799 13.9407 11.6396 14.1938ZM13.3714 9.62754C13.0909 9.74611 12.7843 9.85185 12.468 9.95119C12.2821 9.32312 12.0375 8.66943 11.7342 7.99971C12.0342 7.3332 12.2756 6.6827 12.4582 6.05785C12.7811 6.15718 13.0876 6.26613 13.3746 6.3847C14.5291 6.86856 15.276 7.50303 15.276 8.00612C15.2727 8.50921 14.5259 9.14688 13.3714 9.62754Z" />
<path class="lexicon-icon-outline" d="M7.99673 9.47052C8.81987 9.47052 9.48715 8.81489 9.48715 8.00612C9.48715 7.19735 8.81987 6.54171 7.99673 6.54171C7.1736 6.54171 6.50631 7.19735 6.50631 8.00612C6.50631 8.81489 7.1736 9.47052 7.99673 9.47052Z" />
</svg>
