<!--
* SPDX-FileCopyrightText: © 2020 Liferay, Inc. <https://liferay.com>
* SPDX-FileCopyrightText: © 2020 Contributors to the project Clay <https://github.com/liferay/clay/graphs/contributors>
*
* SPDX-License-Identifier: BSD-3-Clause
-->
<svg viewBox="0 0 16 16" xmlns="http://www.w3.org/2000/svg"><path d="M16 8.006c0-1.041-1.327-2.028-3.362-2.64.47-2.038.26-3.66-.66-4.179a1.438 1.438 0 0 0-.726-.18v-.003c-.897 0-2.071.628-3.259 1.718-1.187-1.083-2.36-1.705-3.258-1.705v.003c-.274 0-.521.058-.737.18-.916.519-1.122 2.137-.649 4.169C1.321 5.984 0 6.968 0 8.006c0 1.041 1.327 2.028 3.362 2.64-.47 2.038-.26 3.66.66 4.179.211.122.459.18.733.18.897 0 2.07-.629 3.258-1.718 1.187 1.083 2.361 1.705 3.258 1.705.274 0 .522-.058.737-.18.917-.519 1.122-2.137.65-4.169C14.678 10.031 16 9.044 16 8.006Zm-4.752-6.287c.15.003.271.032.372.086.444.25.636 1.202.486 2.426a9.73 9.73 0 0 1-.166.942 16.066 16.066 0 0 0-2.071-.349 15.698 15.698 0 0 0-1.357-1.602c1.06-.971 2.058-1.5 2.736-1.503ZM5.11 9.647c.154.256.31.506.47.75a14.93 14.93 0 0 1-1.337-.254c.12-.413.27-.84.44-1.265.134.256.274.512.427.769Zm-.877-3.778c.427-.1.877-.186 1.344-.253a17.649 17.649 0 0 0-.894 1.528 13.57 13.57 0 0 1-.45-1.275Zm.832 2.147a17.028 17.028 0 0 1 1.461-2.503 17.267 17.267 0 0 1 2.942-.003 16.59 16.59 0 0 1 1.468 2.493 17.032 17.032 0 0 1-1.461 2.503 17.251 17.251 0 0 1-2.943.003 16.59 16.59 0 0 1-1.468-2.493Zm5.824 1.621c.15-.256.29-.516.425-.772.176.43.326.859.45 1.275-.428.103-.878.19-1.344.256.16-.246.32-.5.47-.759Zm-.003-3.272a17.37 17.37 0 0 0-.47-.75c.464.068.91.151 1.338.254-.12.413-.27.84-.44 1.265a15.136 15.136 0 0 0-.428-.769Zm-1.99-1.611A20.543 20.543 0 0 0 8 4.73c-.307 0-.61.007-.907.023.294-.375.597-.718.897-1.026.304.308.607.65.907 1.026ZM4.36 1.818a.736.736 0 0 1 .375-.083v-.003c.676 0 1.677.529 2.74 1.493a15.197 15.197 0 0 0-1.347 1.599c-.737.077-1.435.196-2.074.353a9.516 9.516 0 0 1-.17-.93c-.153-1.224.036-2.176.476-2.429Zm-.82 8.136c-.323-.1-.63-.208-.914-.327C1.471 9.144.724 8.51.724 8.006c0-.503.747-1.14 1.901-1.621.28-.119.587-.225.904-.324.186.628.43 1.282.734 1.951-.3.667-.542 1.317-.724 1.942Zm1.21 4.339a.79.79 0 0 1-.37-.086c-.443-.25-.635-1.202-.485-2.426.036-.301.095-.619.166-.942.64.153 1.337.272 2.071.349.44.593.897 1.131 1.357 1.602-1.063.971-2.061 1.503-2.74 1.503Zm3.258-2.01A13.3 13.3 0 0 1 7.1 11.26c.293.012.593.022.897.022.306 0 .61-.007.906-.023-.293.375-.596.718-.896 1.026Zm3.633 1.91a.736.736 0 0 1-.375.084c-.676 0-1.677-.529-2.74-1.493.457-.471.913-1.006 1.347-1.6a15.478 15.478 0 0 0 2.074-.352c.075.324.134.635.17.933.153 1.224-.036 2.175-.476 2.429Zm1.731-4.566c-.28.119-.587.225-.903.324A15.22 15.22 0 0 0 11.734 8c.3-.667.542-1.317.724-1.942.323.1.63.208.917.327 1.154.483 1.901 1.118 1.901 1.621-.003.503-.75 1.14-1.905 1.621Z"/><path d="M7.997 9.47c.823 0 1.49-.655 1.49-1.464 0-.809-.667-1.464-1.49-1.464s-1.49.655-1.49 1.464c0 .809.667 1.464 1.49 1.464Z"/></svg>
