<!--
* SPDX-FileCopyrightText: © 2022 Liferay, Inc. <https://liferay.com>
* SPDX-FileCopyrightText: © 2022 Contributors to the project Clay <https://github.com/liferay/clay/graphs/contributors>
*
* SPDX-License-Identifier: BSD-3-Clause
-->
<svg viewBox="0 0 16 16" xmlns="http://www.w3.org/2000/svg"><path class="lexicon-icon-outline" d="m14.658 4.056-3.5-3.693a1.126 1.126 0 0 0-1.652 0 1.282 1.282 0 0 0 0 1.743l1.502 1.585H6.834C3.618 3.69 1 6.453 1 9.846c0 3.394 2.618 6.156 5.834 6.156.645 0 1.166-.55 1.166-1.231s-.52-1.231-1.166-1.231c-1.93 0-3.5-1.658-3.5-3.694 0-2.035 1.57-3.693 3.5-3.693h4.193l-1.51 1.593a1.282 1.282 0 0 0 0 1.743 1.12 1.12 0 0 0 1.648 0l3.493-3.686a1.287 1.287 0 0 0 0-1.747Z"/></svg>