<!--
* SPDX-FileCopyrightText: © 2020 Liferay, Inc. <https://liferay.com>
* SPDX-FileCopyrightText: © 2020 Contributors to the project Clay <https://github.com/liferay/clay/graphs/contributors>
*
* SPDX-License-Identifier: BSD-3-Clause
-->
<svg  viewBox="0 0 16 16" xmlns="http://www.w3.org/2000/svg">
<path class="lexicon-icon-outline" d="M14.6328 4.0574L10.8828 0.365094C10.3945 -0.115676 9.60156 -0.115676 9.11328 0.365094C8.625 0.845863 8.625 1.62663 9.11328 2.1074L10.7227 3.69202H6.25C2.80469 3.69202 0 6.45355 0 9.84586C0 13.2382 2.80469 15.9997 6.25 15.9997C6.94141 15.9997 7.5 15.4497 7.5 14.7689C7.5 14.0882 6.94141 13.5382 6.25 13.5382C4.18359 13.5382 2.5 11.8805 2.5 9.84586C2.5 7.81125 4.18359 6.15355 6.25 6.15355H10.7422L9.125 7.74586C8.63672 8.22663 8.63672 9.0074 9.125 9.48817C9.36719 9.72663 9.6875 9.84971 10.0078 9.84971C10.3281 9.84971 10.6484 9.73048 10.8906 9.48817L14.6328 5.79586C15.1211 5.31509 15.1211 4.53817 14.6328 4.0574Z" />
</svg>
