<!--
* SPDX-FileCopyrightText: © 2020 Liferay, Inc. <https://liferay.com>
* SPDX-FileCopyrightText: © 2020 Contributors to the project Clay <https://github.com/liferay/clay/graphs/contributors>
*
* SPDX-License-Identifier: BSD-3-Clause
-->
<svg viewBox="0 0 16 16" xmlns="http://www.w3.org/2000/svg"><path class="lexicon-icon-outline" d="M14.633 4.057 10.883.365a1.266 1.266 0 0 0-1.77 0 1.22 1.22 0 0 0 0 1.742l1.61 1.585H6.25C2.805 3.692 0 6.453 0 9.846 0 13.238 2.805 16 6.25 16c.691 0 1.25-.55 1.25-1.231s-.559-1.231-1.25-1.231c-2.066 0-3.75-1.658-3.75-3.692 0-2.035 1.684-3.693 3.75-3.693h4.492L9.125 7.746a1.22 1.22 0 0 0 0 1.742 1.259 1.259 0 0 0 1.766 0l3.742-3.692a1.215 1.215 0 0 0 0-1.739Z" /></svg>