<!--
* SPDX-FileCopyrightText: © 2020 Liferay, Inc. <https://liferay.com>
* SPDX-FileCopyrightText: © 2020 Contributors to the project Clay <https://github.com/liferay/clay/graphs/contributors>
*
* SPDX-License-Identifier: BSD-3-Clause
-->
<svg viewBox="0 0 16 16" xmlns="http://www.w3.org/2000/svg"><path fill-rule="evenodd" clip-rule="evenodd" d="M5.601 14.004c.859 0 1.673-.207 2.4-.577.727.37 1.541.577 2.4.577 3.093 0 5.6-2.686 5.6-6 0-3.313-2.507-6-5.6-6a5.27 5.27 0 0 0-2.4.578 5.27 5.27 0 0 0-2.4-.578c-3.093 0-5.6 2.687-5.6 6 0 3.314 2.507 6 5.6 6Zm0-1.714c.274 0 .542-.03.8-.086-.99-1.082-1.6-2.564-1.6-4.2 0-1.635.61-3.117 1.6-4.2a3.76 3.76 0 0 0-.8-.085c-2.21 0-4 1.918-4 4.285s1.79 4.286 4 4.286Zm4.8-8.571c-.274 0-.542.03-.8.086.99 1.082 1.6 2.564 1.6 4.2 0 1.635-.61 3.117-1.6 4.2.258.056.526.085.8.085 2.21 0 4-1.919 4-4.286 0-2.367-1.79-4.285-4-4.285Z"/></svg>
