<!--
* SPDX-FileCopyrightText: © 2020 Liferay, Inc. <https://liferay.com>
* SPDX-FileCopyrightText: © 2020 Contributors to the project Clay <https://github.com/liferay/clay/graphs/contributors>
*
* SPDX-License-Identifier: BSD-3-Clause
-->
<svg  viewBox="0 0 16 16" xmlns="http://www.w3.org/2000/svg">
<path class="lexicon-icon-outline" fill-rule="evenodd" clip-rule="evenodd" d="M5.60098 14.0045C6.45985 14.0045 7.27357 13.7973 8.00097 13.4271C8.72838 13.7974 9.54209 14.0045 10.401 14.0045C13.4938 14.0045 16.001 11.3182 16.001 8.00452C16.001 4.69081 13.4938 2.00452 10.401 2.00452C9.5421 2.00452 8.72838 2.21169 8.00098 2.58192C7.27358 2.21168 6.45986 2.00452 5.60098 2.00452C2.50818 2.00452 0.000976562 4.69081 0.000976562 8.00451C0.000976562 11.3182 2.50818 14.0045 5.60098 14.0045ZM5.60098 12.2902C5.87518 12.2902 6.14293 12.2607 6.40162 12.2044C5.41149 11.1221 4.80097 9.63971 4.80097 8.00452C4.80097 6.36933 5.41149 4.88691 6.40163 3.80467C6.14294 3.74836 5.87518 3.7188 5.60098 3.7188C3.39184 3.7188 1.60098 5.63758 1.60098 8.00451C1.60098 10.3714 3.39184 12.2902 5.60098 12.2902ZM10.401 3.71881C10.1268 3.71881 9.85902 3.74837 9.60033 3.80468C10.5905 4.88691 11.201 6.36932 11.201 8.00451C11.201 9.63971 10.5905 11.1221 9.60032 12.2044C9.85901 12.2607 10.1268 12.2902 10.401 12.2902C12.6101 12.2902 14.401 10.3715 14.401 8.00452C14.401 5.63759 12.6101 3.71881 10.401 3.71881Z" />
</svg>
