<!--
* SPDX-FileCopyrightText: © 2020 Liferay, Inc. <https://liferay.com>
* SPDX-FileCopyrightText: © 2020 Contributors to the project Clay <https://github.com/liferay/clay/graphs/contributors>
*
* SPDX-License-Identifier: BSD-3-Clause
-->
<svg  viewBox="0 0 16 16" xmlns="http://www.w3.org/2000/svg">
<path class="lexicon-icon-outline" d="M5.97559 0.729661L5.97461 0.730536L6.10059 4.83872C6.11328 5.23994 5.7832 5.57466 5.36426 5.58629H5.3418C4.93164 5.58629 4.59473 5.27482 4.58301 4.8811L4.51562 2.67169C2.67578 3.88607 1.54395 5.89613 1.54395 8.05072C1.54395 10.5351 2.98535 12.7736 5.30371 13.8941C5.67871 14.0743 5.8291 14.5112 5.63965 14.87C5.50586 15.1234 5.23926 15.2696 4.96094 15.2696C4.84668 15.2696 4.72949 15.2447 4.62012 15.1915C1.78613 13.8226 0.0263672 11.0866 0.0263672 8.05072C0.0263672 5.44507 1.37988 3.01138 3.58496 1.52294L0.944336 1.59685H0.921875C0.512695 1.59685 0.175781 1.28538 0.163086 0.891661C0.151367 0.490473 0.481445 0.155723 0.900391 0.144098L5.1123 0.0261607L5.14746 0.0175597C5.16211 0.0129537 5.17773 0.00836417 5.19434 0.00787945C5.61328 -0.00374555 5.96387 0.311879 5.97559 0.713067V0.729661Z" />
<path class="lexicon-icon-outline" d="M12.415 14.4812L15.0547 14.4073C15.4687 14.3865 15.8252 14.7113 15.8369 15.1124C15.8486 15.5136 15.5195 15.8483 15.1006 15.8599L10.8887 15.9779L10.8535 15.9865C10.8389 15.9911 10.8232 15.9957 10.8066 15.9962H10.7842C10.374 15.9962 10.0381 15.6847 10.0254 15.291L10.0244 15.276V15.2743L9.89844 11.1662C9.88672 10.765 10.2168 10.4303 10.6357 10.4186C11.0518 10.3979 11.4043 10.7226 11.417 11.1238L11.4844 13.3333C13.3232 12.1189 14.4551 10.1088 14.4551 7.95422C14.4551 5.46985 13.0146 3.23138 10.6953 2.11088C10.3203 1.92982 10.1699 1.49294 10.3594 1.1341C10.5479 0.776129 11.0049 0.632411 11.3799 0.812661C14.2129 2.18154 15.9736 4.91757 15.9736 7.95344C15.9736 10.5599 14.6201 12.9928 12.415 14.4812Z" />
</svg>
