<!--
* SPDX-FileCopyrightText: © 2022 Liferay, Inc. <https://liferay.com>
* SPDX-FileCopyrightText: © 2022 Contributors to the project Clay <https://github.com/liferay/clay/graphs/contributors>
*
* SPDX-License-Identifier: BSD-3-Clause
-->
<svg viewBox="0 0 16 16" xmlns="http://www.w3.org/2000/svg"><path class="lexicon-icon-outline" d="M5.969.725h-.001l.126 4.112c.013.401-.318.736-.738.748h-.023c-.412 0-.75-.312-.761-.706l-.068-2.21C2.658 3.882 1.523 5.894 1.523 8.05c0 2.486 1.446 4.726 3.772 5.848a.71.71 0 0 1 .337.976.783.783 0 0 1-1.023.322C1.766 13.827 0 11.089 0 8.05c0-2.608 1.358-5.043 3.57-6.532l-2.649.073H.898c-.41 0-.748-.311-.76-.705C.124.485.456.15.876.139L5.103.02l.035-.009a.174.174 0 0 1 .047-.01c.42-.011.772.305.784.706v.017Zm6.461 13.761 2.648-.074a.745.745 0 0 1 .785.706c.012.401-.319.736-.739.748l-4.226.118-.035.008a.175.175 0 0 1-.047.01h-.023c-.411 0-.748-.312-.76-.706l-.002-.015v-.001l-.126-4.111c-.012-.402.32-.737.74-.748a.744.744 0 0 1 .783.705l.068 2.211c1.845-1.215 2.98-3.226 2.98-5.383 0-2.486-1.445-4.726-3.772-5.847a.712.712 0 0 1-.337-.978.78.78 0 0 1 1.024-.321C14.233 2.178 16 4.916 16 7.954c0 2.608-1.358 5.042-3.57 6.532Z"/></svg>