<!--
* SPDX-FileCopyrightText: © 2020 Liferay, Inc. <https://liferay.com>
* SPDX-FileCopyrightText: © 2020 Contributors to the project Clay <https://github.com/liferay/clay/graphs/contributors>
*
* SPDX-License-Identifier: BSD-3-Clause
-->
<svg viewBox="0 0 16 16" xmlns="http://www.w3.org/2000/svg"><path d="M5.976.73h-.001L6.1 4.84c.012.4-.318.736-.737.747h-.022c-.41 0-.747-.311-.759-.705l-.067-2.21c-1.84 1.215-2.972 3.225-2.972 5.38 0 2.484 1.441 4.722 3.76 5.843.375.18.525.617.336.976-.134.253-.4.4-.68.4a.78.78 0 0 1-.34-.079C1.786 13.822.026 11.086.026 8.051c0-2.606 1.354-5.04 3.559-6.528l-2.64.074H.921c-.41 0-.746-.312-.759-.705C.151.49.481.156.9.144L5.112.026l.035-.009a.173.173 0 0 1 .047-.01c.42-.01.77.305.782.706V.73Zm6.439 13.751 2.64-.074c.414-.02.77.304.782.705.012.401-.317.736-.736.748l-4.212.118-.035.008a.17.17 0 0 1-.047.01h-.023c-.41 0-.746-.311-.759-.705v-.017l-.127-4.108c-.011-.401.319-.736.738-.748a.742.742 0 0 1 .781.706l.067 2.21c1.84-1.215 2.971-3.225 2.971-5.38 0-2.484-1.44-4.723-3.76-5.843a.712.712 0 0 1-.336-.977.777.777 0 0 1 1.02-.321c2.834 1.368 4.595 4.104 4.595 7.14 0 2.607-1.354 5.04-3.559 6.528Z"/></svg>
