<!--
* SPDX-FileCopyrightText: © 2020 Liferay, Inc. <https://liferay.com>
* SPDX-FileCopyrightText: © 2020 Contributors to the project Clay <https://github.com/liferay/clay/graphs/contributors>
*
* SPDX-License-Identifier: BSD-3-Clause
-->
<svg viewBox="0 0 16 16" xmlns="http://www.w3.org/2000/svg"><path d="M0 2.016h3.642L1.709 11.01h2.206l1.802-8.995h3.46V.002H0v2.014Zm0 9.986h9v1H0v-1Zm14.347 3.717a.963.963 0 0 0 .685.283.965.965 0 0 0 .685-1.654l-1.437-1.436 1.437-1.436a.97.97 0 0 0-1.37-1.37l-1.437 1.436-1.436-1.436a.96.96 0 0 0-.685-.284.97.97 0 0 0-.685 1.654l1.436 1.436-1.435 1.436a.96.96 0 0 0-.285.686c0 .258.1.502.284.685a.96.96 0 0 0 .685.283.96.96 0 0 0 .685-.283l1.436-1.437 1.437 1.437Z"/></svg>
