<!--
* SPDX-FileCopyrightText: © 2020 Liferay, Inc. <https://liferay.com>
* SPDX-FileCopyrightText: © 2020 Contributors to the project Clay <https://github.com/liferay/clay/graphs/contributors>
*
* SPDX-License-Identifier: BSD-3-Clause
-->
<svg  viewBox="0 0 16 16" xmlns="http://www.w3.org/2000/svg">
<path class="lexicon-icon-outline" d="M0 2.01575H3.6416L1.70898 11.011H3.91504L5.7168 2.01575H9.17676V0.00244141H0V2.01575Z" />
<path class="lexicon-icon-outline" d="M0 12.0024H9V13.0024H0V12.0024Z" />
<path class="lexicon-icon-outline" d="M14.3467 15.7187C14.5293 15.9017 14.7734 16.0024 15.0322 16.0024C15.291 16.0024 15.5342 15.9017 15.7168 15.7187C15.8994 15.5357 16.001 15.2924 16.001 15.0337C16.001 14.7749 15.8994 14.5316 15.7168 14.3487L14.2803 12.9123L15.7168 11.476C16.0947 11.0983 16.0947 10.4837 15.7168 10.106C15.5342 9.923 15.29 9.82225 15.0312 9.82225C14.7725 9.82225 14.5293 9.923 14.3467 10.106L12.9102 11.5423L11.4736 10.106C11.291 9.923 11.0479 9.82225 10.7891 9.82225C10.5303 9.82225 10.2871 9.923 10.1045 10.106C9.72656 10.4837 9.72656 11.0983 10.1045 11.476L11.54 12.9123L10.1045 14.3487C9.9209 14.5317 9.82031 14.7749 9.82031 15.0337C9.82031 15.2925 9.9209 15.5358 10.1045 15.7187C10.2871 15.9017 10.5303 16.0024 10.7891 16.0024C11.0479 16.0024 11.291 15.9017 11.4736 15.7187L12.9102 14.2824L14.3467 15.7187Z" />
</svg>
