<!--
* SPDX-FileCopyrightText: © 2022 Liferay, Inc. <https://liferay.com>
* SPDX-FileCopyrightText: © 2022 Contributors to the project Clay <https://github.com/liferay/clay/graphs/contributors>
*
* SPDX-License-Identifier: BSD-3-Clause
-->
<svg viewBox="0 0 16 16" xmlns="http://www.w3.org/2000/svg"><path class="lexicon-icon-outline" d="M0 2.015h3.642l-1.933 8.996h2.206l1.802-8.996h3.46V.002H0v2.013Zm0 9.987h9v1H0v-1Zm14.347 3.716a.963.963 0 0 0 .685.284c.259 0 .502-.1.685-.284a.964.964 0 0 0 0-1.37l-1.437-1.436 1.437-1.436a.97.97 0 0 0-1.37-1.37l-1.437 1.436-1.436-1.436a.96.96 0 0 0-.685-.284.97.97 0 0 0-.685 1.654l1.436 1.436-1.435 1.436a.96.96 0 0 0-.285.685c0 .26.1.502.284.685a.96.96 0 0 0 .685.284.96.96 0 0 0 .685-.284l1.436-1.436 1.437 1.436Z"/></svg>