<!--
* SPDX-FileCopyrightText: © 2020 Liferay, Inc. <https://liferay.com>
* SPDX-FileCopyrightText: © 2020 Contributors to the project Clay <https://github.com/liferay/clay/graphs/contributors>
*
* SPDX-License-Identifier: BSD-3-Clause
-->
<svg viewBox="0 0 16 16" xmlns="http://www.w3.org/2000/svg"><path class="lexicon-icon-outline" d="M5.174 2.293a1.008 1.008 0 0 1 1.416 0l2.12 2.122c.389.39.389 1.028 0 1.416L6.59 7.952a1.008 1.008 0 0 1-1.416 0 1.007 1.007 0 0 1 0-1.415l.534-.534H2v6h12v-6h-2a1 1 0 0 1 0-2h3c.5 0 1 .5 1 1v8c0 .517-.5.999-1 .999H1c-.47-.048-.952-.53-1-1v-8c0-.55.45-1 1-1h4.468l-.294-.293a1.007 1.007 0 0 1 0-1.416Z"/></svg>