<!--
* SPDX-FileCopyrightText: © 2020 Liferay, Inc. <https://liferay.com>
* SPDX-FileCopyrightText: © 2020 Contributors to the project Clay <https://github.com/liferay/clay/graphs/contributors>
*
* SPDX-License-Identifier: BSD-3-Clause
-->
<svg  viewBox="0 0 16 16" xmlns="http://www.w3.org/2000/svg">
<path class="lexicon-icon-outline" d="M14.401 4.50436H5.65598L6.12598 3.99029C6.74598 3.30668 6.74598 2.19104 6.12598 1.51291C5.60277 0.94522 4.8029 0.853092 4.19246 1.23585C4.07369 1.31032 3.96196 1.40245 3.86098 1.5129L0.465977 5.22624C-0.154023 5.90984 -0.154023 7.02549 0.465977 7.70362L3.86098 11.417C3.96277 11.5274 4.07518 11.6195 4.1945 11.694C4.80776 12.0768 5.60696 11.9846 6.12598 11.417C6.74598 10.7334 6.74598 9.61771 6.12598 8.93958L5.27098 8.00441H12.801V13.2545C12.801 14.217 13.521 15.0045 14.401 15.0045C15.281 15.0045 16.001 14.217 16.001 13.2545V6.25438C16.001 5.29187 15.281 4.50436 14.401 4.50436Z" />
</svg>
