<!--
* SPDX-FileCopyrightText: © 2020 Liferay, Inc. <https://liferay.com>
* SPDX-FileCopyrightText: © 2020 Contributors to the project Clay <https://github.com/liferay/clay/graphs/contributors>
*
* SPDX-License-Identifier: BSD-3-Clause
-->
<svg viewBox="0 0 16 16" xmlns="http://www.w3.org/2000/svg"><path d="M14.401 4.504H5.656l.47-.514c.62-.683.62-1.8 0-2.477a1.513 1.513 0 0 0-1.934-.277c-.118.074-.23.166-.331.277L.466 5.226c-.62.684-.62 1.8 0 2.478l3.395 3.713c.102.11.214.202.333.277a1.51 1.51 0 0 0 1.932-.277c.62-.684.62-1.8 0-2.478l-.855-.935h7.53v5.25c0 .963.72 1.75 1.6 1.75.88 0 1.6-.787 1.6-1.75v-7c0-.962-.72-1.75-1.6-1.75Z"/></svg>
