<svg xmlns="http://www.w3.org/2000/svg" viewBox="0 0 512 512">
	<path class="lexicon-icon-outline restore-hands" d="M180.7,347.3c3.1,3.1,7.2,4.7,11.3,4.7s8.2-1.6,11.3-4.7l48-48c6.3,3,13.3,4.7,20.7,4.7c26.5,0,48-21.5,48-48c0-20.9-13.4-38.7-32-45.3V112c0-8.8-7.2-16-16-16s-16,7.2-16,16v98.7c-18.6,6.6-32,24.4-32,45.3c0,7.4,1.7,14.4,4.7,20.7l-48,48C174.4,330.9,174.4,341.1,180.7,347.3z"></path>
	<path class="lexicon-icon-outline restore-border" d="M256,0C179.5,0,110.9,33.5,64,86.7V64c0-17.6-14.4-32-32-32h0C14.4,32,0,46.4,0,64v96l0,0c0,9.9,4.6,18.8,11.7,24.7c5.5,4.6,12.6,7.3,20.3,7.3l0,0h96c17.6,0,32-14.4,32-32s-14.4-32-32-32h-15.1c35.2-39.3,86.2-64,143.1-64c106,0,192,86,192,192s-86,192-192,192c-95.1,0-174.1-69.2-189.3-160H2c15.7,126.3,123.5,224,254,224c141.4,0,256-114.6,256-256S397.4,0,256,0z"></path>
</svg>
