<!--
* SPDX-FileCopyrightText: © 2020 Liferay, Inc. <https://liferay.com>
* SPDX-FileCopyrightText: © 2020 Contributors to the project Clay <https://github.com/liferay/clay/graphs/contributors>
*
* SPDX-License-Identifier: BSD-3-Clause
-->
<svg viewBox="0 0 16 16" xmlns="http://www.w3.org/2000/svg"><path d="M2 2.712a7.974 7.974 0 0 1 6-2.71 8 8 0 0 1 8 8 8 8 0 0 1-15.938 1h2.022a6.001 6.001 0 0 0 5.916 5 6 6 0 0 0 6-6 6.002 6.002 0 0 0-10.472-4H4c.55 0 1 .45 1 1s-.45 1-1 1H1a1.005 1.005 0 0 1-1-1v-3c0-.55.45-1 1-1s1 .45 1 1v.71Z"/><path d="M6 11.002a.5.5 0 0 1-.354-.853l1.5-1.5A1.504 1.504 0 0 1 8 6.586V3.503a.501.501 0 0 1 1 0v3.085a1.5 1.5 0 1 1-1.147 2.769l-1.5 1.5a.498.498 0 0 1-.353.146Z"/></svg>
