<!--
* SPDX-FileCopyrightText: © 2020 Liferay, Inc. <https://liferay.com>
* SPDX-FileCopyrightText: © 2020 Contributors to the project Clay <https://github.com/liferay/clay/graphs/contributors>
*
* SPDX-License-Identifier: BSD-3-Clause
-->
<svg  viewBox="0 0 16 16" xmlns="http://www.w3.org/2000/svg">
<path class="lexicon-icon-outline" d="M2 2.71182C3.46582 1.04932 5.60938 0.00244141 8 0.00244141C12.4189 0.00244141 16 3.58368 16 8.00244C16 12.4212 12.4189 16.0024 8 16.0024C3.92188 16.0024 0.552734 12.9493 0.0625 9.00244H2.08398C2.55957 11.8399 5.02832 14.0024 8 14.0024C11.3125 14.0024 14 11.3149 14 8.00244C14 4.68994 11.3125 2.00244 8 2.00244C6.22168 2.00244 4.62793 2.77432 3.52832 4.00244H4C4.5498 4.00244 5 4.45245 5 5.00244C5 5.55243 4.5498 6.00244 4 6.00244H1C0.759766 6.00244 0.537109 5.91806 0.365234 5.77432C0.143555 5.58994 0 5.31183 0 5.00244V2.00244C0 1.45245 0.450195 1.00244 1 1.00244C1.5498 1.00244 2 1.45245 2 2.00244V2.71182Z" />
<path class="lexicon-icon-outline" d="M6 11.0024C5.87207 11.0024 5.74316 10.9525 5.64648 10.8556C5.4502 10.6618 5.4502 10.3431 5.64648 10.1493L7.14648 8.64932C7.05273 8.45245 7 8.2337 7 8.00244C7 7.3493 7.41895 6.79306 8 6.58682V3.50244C8 3.22745 8.22461 3.00244 8.5 3.00244C8.77441 3.00244 9 3.22745 9 3.50244V6.58682C9.58105 6.79306 10 7.3493 10 8.00244C10 8.83057 9.32812 9.50244 8.5 9.50244C8.26855 9.50244 8.0498 9.44931 7.85254 9.35556L6.35254 10.8556C6.25586 10.9525 6.12793 11.0024 6 11.0024Z" />
</svg>
