<!--
* SPDX-FileCopyrightText: © 2026 Liferay, Inc. <https://liferay.com>
* SPDX-FileCopyrightText: © 2026 Contributors to the project Clay <https://github.com/liferay/clay/graphs/contributors>
*
* SPDX-License-Identifier: BSD-3-Clause
-->
<svg viewBox="0 0 16 16" xmlns="http://www.w3.org/2000/svg">
	<path class="lexicon-icon-outline" d="M4.142 10.275c.218.218.225.583.09.86-.134.28-.218.592-.09.72.129.129.44.045.72-.09.278-.135.643-.127.861.09l.395.396-.462.23a3.019 3.019 0 0 1-2.304.165 3.019 3.019 0 0 1 .164-2.304l.231-.462.395.395Zm.775-4.364c-.6 1.095-.992 2.137-1.149 3.047a.226.226 0 0 1-.09.02H.222a.224.224 0 0 1-.158-.382L2.748 5.91h2.17Zm5.169 7.338-2.684 2.684a.224.224 0 0 1-.382-.158v-3.543c.914-.154 1.963-.548 3.066-1.152v2.169Z" />
	<path class="lexicon-icon-outline" clip-rule="evenodd" d="M14.257 6.048a9.224 9.224 0 0 1-1.42 1.856c-2.013 2.012-4.236 3.313-5.892 3.593L4.5 9.053c.28-1.656 1.58-3.879 3.593-5.891A9.225 9.225 0 0 1 9.95 1.74a4.456 4.456 0 0 0 1.306 3.003 4.455 4.455 0 0 0 3.001 1.305Zm-4.582.275a1.118 1.118 0 1 0-1.58 1.581 1.118 1.118 0 0 0 1.58-1.58Z" fill-rule="evenodd" />
	<path class="lexicon-icon-outline" d="M15.998 0s-.059 2.644-1.32 5.258a3.679 3.679 0 0 1-2.869-1.069 3.68 3.68 0 0 1-1.07-2.87C13.353.06 16 0 16 0Z" />
</svg>