<!--
* SPDX-FileCopyrightText: © 2020 Liferay, Inc. <https://liferay.com>
* SPDX-FileCopyrightText: © 2020 Contributors to the project Clay <https://github.com/liferay/clay/graphs/contributors>
*
* SPDX-License-Identifier: BSD-3-Clause
-->
<svg  viewBox="0 0 16 16" xmlns="http://www.w3.org/2000/svg">
<path class="lexicon-icon-outline" d="M8.93126 0.00465996C8.5027 0.00153393 7.73629 0.0484243 7.17635 0.254742C5.95323 0.717394 6.54446 2.55862 7.84265 2.14286C8.37757 1.98031 8.90623 2.00532 8.93126 2.00532C14.7622 2.07409 16.1918 10.3143 10.0668 11.8836L10.2263 11.7241C11.2023 10.6175 9.66638 9.46714 8.81239 10.3049L6.89169 12.218C6.45061 12.6557 6.45061 13.3715 6.89169 13.8123L8.80926 15.7254C9.84468 16.607 11.1147 15.1971 10.2232 14.3062L9.86345 13.9467C19.1479 12.2024 17.1333 0.00465996 8.93126 0.00465996Z" />
<path class="lexicon-icon-outline" d="M4.54231 4.89064L6.66634 7.01322L4.54231 9.13579L2.41828 7.01322L4.54231 4.89064ZM3.83534 2.76494L0.294243 6.30673C-0.096779 6.69749 -0.096779 7.33207 0.294243 7.72282L3.83534 11.2615C4.22636 11.6522 4.87077 11.6429 5.2524 11.2615L8.7935 7.72282C9.18452 7.33207 9.18452 6.69749 8.7935 6.30673L5.2524 2.76494C4.85825 2.37419 4.22949 2.37107 3.83534 2.76494Z" /><rect class="lexicon-icon-outline"   transform="translate(0 0.00244141)"/>
</svg>
