<!--
* SPDX-FileCopyrightText: © 2021 Liferay, Inc. <https://liferay.com>
* SPDX-FileCopyrightText: © 2021 Contributors to the project Clay <https://github.com/liferay/clay/graphs/contributors>
*
* SPDX-License-Identifier: BSD-3-Clause
-->
<svg viewBox="0 0 16 16" xmlns="http://www.w3.org/2000/svg"><path d="M8.931.005C8.503 0 7.736.048 7.176.255c-1.223.462-.632 2.304.667 1.888.535-.163 1.063-.138 1.088-.138 5.831.069 7.26 8.31 1.136 9.878l.16-.159c.975-1.107-.56-2.257-1.415-1.42l-1.92 1.914a1.126 1.126 0 0 0 0 1.594l1.917 1.913c1.036.882 2.306-.528 1.414-1.419l-.36-.36c9.285-1.743 7.27-13.94-.932-13.94Z"/><path d="m4.542 4.89 2.124 2.123-2.124 2.123-2.124-2.123 2.124-2.122Zm-.707-2.125L.295 6.307a1.001 1.001 0 0 0 0 1.416l3.54 3.538a1.01 1.01 0 0 0 1.417 0l3.542-3.538a1.001 1.001 0 0 0 0-1.416L5.252 2.765a1 1 0 0 0-1.417 0Z"/></svg>
