<!--
* SPDX-FileCopyrightText: © 2022 Liferay, Inc. <https://liferay.com>
* SPDX-FileCopyrightText: © 2022 Contributors to the project Clay <https://github.com/liferay/clay/graphs/contributors>
*
* SPDX-License-Identifier: BSD-3-Clause
-->
<svg viewBox="0 0 16 16" xmlns="http://www.w3.org/2000/svg"><path class="lexicon-icon-outline" d="M8.931.002C8.503 0 7.736.046 7.176.252c-1.223.463-.632 2.304.667 1.888.535-.162 1.063-.137 1.088-.137 5.831.069 7.26 8.309 1.136 9.878l.16-.16c.975-1.106-.56-2.256-1.415-1.418l-1.92 1.913a1.126 1.126 0 0 0 0 1.594l1.917 1.913c1.036.882 2.306-.528 1.414-1.42l-.36-.359C19.148 12.2 17.133.002 8.931.002Z"/><path class="lexicon-icon-outline" d="m4.542 4.888 2.124 2.123-2.124 2.122-2.124-2.122 2.124-2.123Zm-.707-2.125-3.54 3.54a1.001 1.001 0 0 0 0 1.416l3.54 3.539c.391.39 1.036.381 1.417 0L8.794 7.72a1.001 1.001 0 0 0 0-1.416L5.252 2.762a1 1 0 0 0-1.417 0Z"/></svg>