<!--
* SPDX-FileCopyrightText: © 2020 Liferay, Inc. <https://liferay.com>
* SPDX-FileCopyrightText: © 2020 Contributors to the project Clay <https://github.com/liferay/clay/graphs/contributors>
*
* SPDX-License-Identifier: BSD-3-Clause
-->
<svg viewBox="0 0 16 16" xmlns="http://www.w3.org/2000/svg"><path d="M14.001.004h-12c-1.103 0-2 .897-2 2v12c0 1.104.897 2 2 2h12c1.103 0 2-.897 2-2v-12c0-1.103-.897-2-2-2Zm-11 11.5c0-1.978 2.987-2.018 2.987-.012-.003 2.022-2.987 1.975-2.987.012Zm4.794.66c0-2.628-1.253-3.9-3.935-3.969-1.153-.028-1.143-1.744-.037-1.744 4.022 0 5.678 2.6 5.678 5.713-.003 1.106-1.706 1.128-1.706 0Zm3.465-.04c.013-3.785-2.559-7.404-7.412-7.404-1.156 0-1.125-1.712-.019-1.712 5.516 0 9.138 4.159 9.138 9.134 0 1.106-1.713 1.131-1.707-.019Z"/></svg>
