<!--
* SPDX-FileCopyrightText: © 2022 Liferay, Inc. <https://liferay.com>
* SPDX-FileCopyrightText: © 2022 Contributors to the project Clay <https://github.com/liferay/clay/graphs/contributors>
*
* SPDX-License-Identifier: BSD-3-Clause
-->
<svg viewBox="0 0 16 16" xmlns="http://www.w3.org/2000/svg"><path class="lexicon-icon-outline" d="M14.001.002h-12c-1.103 0-2 .897-2 2v12c0 1.103.897 2 2 2h12c1.103 0 2-.897 2-2v-12c0-1.103-.897-2-2-2Zm-11 11.5c0-1.978 2.987-2.019 2.987-.012-.003 2.021-2.987 1.975-2.987.012Zm4.794.66c0-2.629-1.253-3.9-3.935-3.97-1.153-.027-1.143-1.743-.037-1.743 4.022 0 5.678 2.6 5.678 5.713-.003 1.106-1.706 1.128-1.706 0Zm3.465-.041c.013-3.785-2.559-7.403-7.412-7.403-1.156 0-1.125-1.713-.019-1.713 5.516 0 9.138 4.16 9.138 9.135 0 1.106-1.713 1.13-1.707-.02Z"/></svg>