<!--
* SPDX-FileCopyrightText: © 2020 Liferay, Inc. <https://liferay.com>
* SPDX-FileCopyrightText: © 2020 Contributors to the project Clay <https://github.com/liferay/clay/graphs/contributors>
*
* SPDX-License-Identifier: BSD-3-Clause
-->
<svg  viewBox="0 0 16 16" xmlns="http://www.w3.org/2000/svg">
<path class="lexicon-icon-outline" d="M14.001 0.0045166H2.00098C0.897852 0.0045166 0.000976562 0.901392 0.000976562 2.00452V14.0045C0.000976562 15.1076 0.897852 16.0045 2.00098 16.0045H14.001C15.1041 16.0045 16.001 15.1076 16.001 14.0045V2.00452C16.001 0.901392 15.1041 0.0045166 14.001 0.0045166ZM3.00098 11.5045C3.00098 9.52639 5.98848 9.48577 5.98848 11.492C5.98535 13.5139 3.00098 13.467 3.00098 11.5045ZM7.79473 12.1639C7.79473 9.53577 6.5416 8.26389 3.86035 8.19514C2.70723 8.16702 2.7166 6.45139 3.82285 6.45139C7.84473 6.45139 9.50098 9.05139 9.50098 12.1639C9.49785 13.2701 7.79473 13.292 7.79473 12.1639ZM11.2604 12.1233C11.2729 8.33889 8.70098 4.72014 3.84785 4.72014C2.6916 4.72014 2.72285 3.00764 3.8291 3.00764C9.34473 3.00764 12.9666 7.16702 12.9666 12.142C12.9666 13.2483 11.2541 13.2733 11.2604 12.1233Z" /><rect class="lexicon-icon-outline"   transform="translate(0 0.00244141)"/>
</svg>
