<!--
* SPDX-FileCopyrightText: © 2020 Liferay, Inc. <https://liferay.com>
* SPDX-FileCopyrightText: © 2020 Contributors to the project Clay <https://github.com/liferay/clay/graphs/contributors>
*
* SPDX-License-Identifier: BSD-3-Clause
-->
<svg viewBox="0 0 16 16" xmlns="http://www.w3.org/2000/svg"><path d="M11.698 4.307a14.639 14.639 0 0 1 4.303 10.388 1.31 1.31 0 0 1-2.618 0c0-3.225-1.256-6.256-3.536-8.536A11.995 11.995 0 0 0 1.31 2.623a1.31 1.31 0 0 1 0-2.619 14.643 14.643 0 0 1 10.388 4.303Z"/><path d="M1.31 4.755a1.31 1.31 0 0 0 0 2.619c4.037 0 7.321 3.284 7.321 7.321a1.31 1.31 0 0 0 2.619 0 9.875 9.875 0 0 0-2.911-7.028 9.875 9.875 0 0 0-7.03-2.912Zm1.148 11.189a2.398 2.398 0 1 0 0-4.795 2.398 2.398 0 0 0 0 4.795Z"/></svg>
