<!--
* SPDX-FileCopyrightText: © 2020 Liferay, Inc. <https://liferay.com>
* SPDX-FileCopyrightText: © 2020 Contributors to the project Clay <https://github.com/liferay/clay/graphs/contributors>
*
* SPDX-License-Identifier: BSD-3-Clause
-->
<svg  viewBox="0 0 16 16" xmlns="http://www.w3.org/2000/svg">
<path class="lexicon-icon-outline" d="M11.698 4.30736C13.0469 5.65613 14.106 7.22711 14.846 8.97665C15.6124 10.7886 16.001 12.7127 16.001 14.6954C16.001 15.4184 15.4147 16.0045 14.6913 16.0045C13.9689 16.0045 13.3826 15.4184 13.3826 14.6954C13.3826 11.4707 12.1268 8.43897 9.84705 6.15883C7.56637 3.87863 4.53493 2.62284 1.30968 2.62284C0.587297 2.62284 0.000976562 2.0367 0.000976562 1.31371C0.000976562 0.590656 0.587297 0.0045166 1.30968 0.0045166C3.29279 0.0045166 5.21718 0.393115 7.029 1.15954C8.77817 1.89954 10.3492 2.95858 11.698 4.30736Z" />
<path class="lexicon-icon-outline" d="M1.30968 4.75536C0.587297 4.75536 0.000976562 5.3415 0.000976562 6.06455C0.000976562 6.78755 0.587297 7.37369 1.30968 7.37369C5.34736 7.37369 8.63134 10.6582 8.63134 14.6953C8.63134 15.4184 9.21767 16.0045 9.94102 16.0045C10.6644 16.0045 11.2497 15.4184 11.2497 14.6953C11.2497 12.0403 10.2161 9.54413 8.33867 7.66673C6.46127 5.78932 3.96525 4.75536 1.30968 4.75536Z" />
<path class="lexicon-icon-outline" d="M2.45785 15.9444C3.78221 15.9444 4.85599 14.871 4.85599 13.547C4.85599 12.2228 3.78221 11.1495 2.45785 11.1495C1.13446 11.1495 0.0606854 12.2228 0.0606854 13.547C0.0606854 14.871 1.13446 15.9444 2.45785 15.9444Z" />
</svg>
