<!--
* SPDX-FileCopyrightText: © 2022 Liferay, Inc. <https://liferay.com>
* SPDX-FileCopyrightText: © 2022 Contributors to the project Clay <https://github.com/liferay/clay/graphs/contributors>
*
* SPDX-License-Identifier: BSD-3-Clause
-->
<svg viewBox="0 0 16 16" xmlns="http://www.w3.org/2000/svg"><path class="lexicon-icon-outline" d="M11.698 4.305a14.639 14.639 0 0 1 4.303 10.388 1.31 1.31 0 0 1-2.618 0c0-3.225-1.256-6.256-3.536-8.537A11.995 11.995 0 0 0 1.31 2.62a1.31 1.31 0 0 1 0-2.618 14.643 14.643 0 0 1 10.388 4.303Z"/><path class="lexicon-icon-outline" d="M1.31 4.753a1.31 1.31 0 0 0 0 2.618c4.037 0 7.321 3.285 7.321 7.322a1.31 1.31 0 0 0 2.619 0 9.874 9.874 0 0 0-2.911-7.029 9.875 9.875 0 0 0-7.03-2.911Zm1.148 11.189a2.398 2.398 0 1 0 0-4.796 2.398 2.398 0 0 0 0 4.796Z"/></svg>