<!--
* SPDX-FileCopyrightText: © 2020 Liferay, Inc. <https://liferay.com>
* SPDX-FileCopyrightText: © 2020 Contributors to the project Clay <https://github.com/liferay/clay/graphs/contributors>
*
* SPDX-License-Identifier: BSD-3-Clause
-->
<svg  viewBox="0 0 16 16" xmlns="http://www.w3.org/2000/svg">
<path class="lexicon-icon-outline" fill-rule="evenodd" clip-rule="evenodd" d="M14 6.00244H13V2.00244C13 1.44934 12.5527 1.00244 12 1.00244H9C9 0.449341 8.55274 0.00244141 8 0.00244141H2C1.44727 0.00244141 1 0.449341 1 1.00244V3.00244C1 3.55554 1.44727 4.00244 2 4.00244H4V6.00244H3C2.44727 6.00244 2 6.44934 2 7.00244V9.00244C2 9.55554 2.44727 10.0024 3 10.0024H4V12.0024H3C2.44727 12.0024 2 12.4493 2 13.0024V15.0024C2 15.5555 2.44727 16.0024 3 16.0024H7C7.55274 16.0024 8 15.5555 8 15.0024H12C12.5527 15.0024 13 14.5555 13 14.0024V10.0024H14C14.5527 10.0024 15 9.55554 15 9.00244V7.00244C15 6.44934 14.5527 6.00244 14 6.00244ZM2 3.00244V1.00244H8V3.00244H2ZM8 14.0024H12V10.0024C11.4473 10.0024 11 9.55554 11 9.00244V7.00244C11 6.44934 11.4473 6.00244 12 6.00244V2.00244H9V3.00244C9 3.55554 8.55274 4.00244 8 4.00244H5V6.00244H7C7.55274 6.00244 8 6.44934 8 7.00244V9.00244C8 9.55554 7.55274 10.0024 7 10.0024H5V12.0024H7C7.55274 12.0024 8 12.4493 8 13.0024V14.0024Z" />
</svg>
