<!--
* SPDX-FileCopyrightText: © 2022 Liferay, Inc. <https://liferay.com>
* SPDX-FileCopyrightText: © 2022 Contributors to the project Clay <https://github.com/liferay/clay/graphs/contributors>
*
* SPDX-License-Identifier: BSD-3-Clause
-->
<svg viewBox="0 0 16 16" xmlns="http://www.w3.org/2000/svg"><path class="lexicon-icon-outline" fill-rule="evenodd" clip-rule="evenodd" d="M14.001 6.002h-1v-4a1 1 0 0 0-1-1h-3a1 1 0 0 0-1-1h-6a1 1 0 0 0-1 1v2a1 1 0 0 0 1 1h2v2h-1a1 1 0 0 0-1 1v2a1 1 0 0 0 1 1h1v2h-1a1 1 0 0 0-1 1v2a1 1 0 0 0 1 1h4a1 1 0 0 0 1-1h4a1 1 0 0 0 1-1v-4h1a1 1 0 0 0 1-1v-2a1 1 0 0 0-1-1Zm-12-3v-2h6v2h-6Zm6 11h4v-4a1 1 0 0 1-1-1v-2a1 1 0 0 1 1-1v-4h-3v1a1 1 0 0 1-1 1h-3v2h2a1 1 0 0 1 1 1v2a1 1 0 0 1-1 1h-2v2h2a1 1 0 0 1 1 1v1Z"/></svg>