<!--
* SPDX-FileCopyrightText: © 2020 Liferay, Inc. <https://liferay.com>
* SPDX-FileCopyrightText: © 2020 Contributors to the project Clay <https://github.com/liferay/clay/graphs/contributors>
*
* SPDX-License-Identifier: BSD-3-Clause
-->
<svg  viewBox="0 0 16 16" xmlns="http://www.w3.org/2000/svg">
<path class="lexicon-icon-outline" fill-rule="evenodd" clip-rule="evenodd" d="M8.72632 0.664717C9.4483 -0.0633706 10.6391 -0.394604 11.7768 0.752212L15.1303 4.12704C16.4493 5.45197 16.1305 6.02069 15.0897 7.06751L7.11047 15.114C6.06658 16.1639 5.55713 16.4295 4.2382 15.1046L0.884602 11.7298C-0.253057 10.583 -0.287437 9.75175 0.747083 8.71118L8.72632 0.664717ZM10.2109 2.01777L13.7458 5.57696L12.83 6.51129L11.8299 5.50509C11.3736 5.04574 10.6672 5.7582 11.1235 6.21756L12.1237 7.22375L11.4173 7.93622L9.71084 6.21756C9.25452 5.7582 8.54817 6.47067 9.00449 6.93002L10.711 8.64868L10.0015 9.35802L9.00136 8.35182C8.54505 7.89247 7.8387 8.60493 8.29501 9.06428L9.29515 10.0705L8.58568 10.7829L6.87919 9.06428C6.42288 8.60493 5.71653 9.3174 6.17284 9.77675L7.87933 11.4954L7.17298 12.2079L6.17284 11.2017C5.71653 10.7423 5.01018 11.4548 5.46649 11.9141L6.46663 12.9203L5.68215 13.7109L2.14415 10.1486L10.2109 2.01777Z" />
</svg>
