<!--
* SPDX-FileCopyrightText: © 2022 Liferay, Inc. <https://liferay.com>
* SPDX-FileCopyrightText: © 2022 Contributors to the project Clay <https://github.com/liferay/clay/graphs/contributors>
*
* SPDX-License-Identifier: BSD-3-Clause
-->
<svg viewBox="0 0 16 16" xmlns="http://www.w3.org/2000/svg"><path fill-rule="evenodd" clip-rule="evenodd" d="M8.726.665c.722-.728 1.913-1.06 3.05.087l3.354 3.375c1.32 1.325 1 1.894-.04 2.94l-7.98 8.047c-1.043 1.05-1.553 1.315-2.872-.01L.885 11.73C-.253 10.583-.287 9.752.747 8.71L8.727.665Zm1.485 1.353 3.535 3.559-.916.934-1-1.006c-.456-.46-1.163.253-.707.712l1 1.007-.706.712-1.706-1.719c-.456-.459-1.163.254-.707.713l1.707 1.719-.71.709-1-1.006c-.456-.46-1.162.253-.706.712l1 1.006-.71.713L6.88 9.064c-.456-.46-1.162.253-.706.713l1.706 1.718-.706.713-1-1.006c-.456-.46-1.163.253-.707.712l1 1.006-.784.79-3.538-3.562 8.067-8.13Z"/></svg>
