<!--
* SPDX-FileCopyrightText: © 2020 Liferay, Inc. <https://liferay.com>
* SPDX-FileCopyrightText: © 2020 Contributors to the project Clay <https://github.com/liferay/clay/graphs/contributors>
*
* SPDX-License-Identifier: BSD-3-Clause
-->
<svg viewBox="0 0 16 16" xmlns="http://www.w3.org/2000/svg"><path fill-rule="evenodd" clip-rule="evenodd" d="M14 6.002h-1v-4a1 1 0 0 0-1-1H9a1 1 0 0 0-1-1H2a1 1 0 0 0-1 1v2a1 1 0 0 0 1 1h2v2H3a1 1 0 0 0-1 1v2a1 1 0 0 0 1 1h1v2H3a1 1 0 0 0-1 1v2a1 1 0 0 0 1 1h4a1 1 0 0 0 1-1h4a1 1 0 0 0 1-1v-4h1a1 1 0 0 0 1-1v-2a1 1 0 0 0-1-1Zm-12-3v-2h6v2H2Zm6 11h4v-4a1 1 0 0 1-1-1v-2a1 1 0 0 1 1-1v-4H9v1a1 1 0 0 1-1 1H5v2h2a1 1 0 0 1 1 1v2a1 1 0 0 1-1 1H5v2h2a1 1 0 0 1 1 1v1Z"/></svg>
