<!--
* SPDX-FileCopyrightText: © 2022 Liferay, Inc. <https://liferay.com>
* SPDX-FileCopyrightText: © 2022 Contributors to the project Clay <https://github.com/liferay/clay/graphs/contributors>
*
* SPDX-License-Identifier: BSD-3-Clause
-->
<svg viewBox="0 0 16 16" xmlns="http://www.w3.org/2000/svg"><path class="lexicon-icon-outline" fill-rule="evenodd" clip-rule="evenodd" d="M8.727.664c.722-.728 1.913-1.059 3.05.088l3.354 3.375c1.32 1.325 1 1.893-.04 2.94l-7.98 8.047c-1.043 1.05-1.553 1.315-2.872-.01L.886 11.73C-.252 10.583-.286 9.751.748 8.711L8.728.664Zm1.485 1.353 3.535 3.56-.916.934-1-1.006c-.457-.46-1.163.253-.707.712l1 1.006-.706.713-1.706-1.719c-.457-.46-1.163.253-.707.713l1.707 1.718-.71.71-1-1.007c-.456-.459-1.162.254-.706.713l1 1.006-.71.713-1.706-1.72c-.456-.458-1.162.254-.706.713l1.706 1.719-.706.713-1-1.007c-.457-.459-1.163.253-.707.713l1 1.006-.784.79-3.538-3.562 8.067-8.13Z"/></svg>