<!--
* SPDX-FileCopyrightText: © 2022 Liferay, Inc. <https://liferay.com>
* SPDX-FileCopyrightText: © 2022 Contributors to the project Clay <https://github.com/liferay/clay/graphs/contributors>
*
* SPDX-License-Identifier: BSD-3-Clause
-->
<svg xmlns="http://www.w3.org/2000/svg" viewBox="0 0 512 512">
	<path class="lexicon-icon-outline" d="M279.2,21.2c23.1-23.3,61.2-33.9,97.6,2.8l107.3,108c42.2,42.4,32,60.6-1.3,94.1L227.5,483.6c-33.4,33.6-49.7,42.1-91.9-0.3l-107.3-108c-36.4-36.7-37.5-63.3-4.4-96.6L279.2,21.2z M326.7,64.5l113.1,113.9l-29.3,29.9l-32-32.2c-14.6-14.7-37.2,8.1-22.6,22.8l32,32.2l-22.6,22.8l-54.6-55c-14.6-14.7-37.2,8.1-22.6,22.8l54.6,55L320,299.4l-32-32.2c-14.6-14.7-37.2,8.1-22.6,22.8l32,32.2L274.7,345l-54.6-55c-14.6-14.7-37.2,8.1-22.6,22.8l54.6,55l-22.6,22.8l-32-32.2c-14.6-14.7-37.2,8.1-22.6,22.8l32,32.2l-25.1,25.3L68.6,324.7L326.7,64.5z" clip-rule="evenodd" fill-rule="evenodd"/>
</svg>