<!--
* SPDX-FileCopyrightText: © 2024 Liferay, Inc. <https://liferay.com>
* SPDX-FileCopyrightText: © 2024 Contributors to the project Clay <https://github.com/liferay/clay/graphs/contributors>
*
* SPDX-License-Identifier: BSD-3-Clause
-->
<svg xmlns="http://www.w3.org/2000/svg" viewBox="0 0 16 16"><path fill-rule="evenodd" d="M8.018 2c1.705-.015 3.395.29 4.982.898V4h2V2.279a1.064 1.064 0 0 0-.623-.978A15.584 15.584 0 0 0 8 0a15.584 15.584 0 0 0-6.377 1.3A1.074 1.074 0 0 0 1 2.279V4h2V2.898A13.587 13.587 0 0 1 7.982 2h.036Zm-4.061 9h-2.25a8.59 8.59 0 0 0 4.772 4.569l.747.288c.498.19 1.05.19 1.548 0l.746-.288A8.59 8.59 0 0 0 14.292 11h-2.249a6.593 6.593 0 0 1-3.244 2.703l-.743.287a.158.158 0 0 1-.112 0l-.743-.287A6.59 6.59 0 0 1 3.956 11Z" clip-rule="evenodd"/><path d="M1.82 9.849C.732 9.849.048 9.353.003 8.543L0 8.488h1.058l.003.027c.03.27.33.463.777.463.433 0 .717-.197.717-.475V8.5c0-.245-.194-.36-.705-.46l-.45-.087C.478 7.775.079 7.339.079 6.659v-.003C.082 5.8.807 5.25 1.81 5.25c1.095 0 1.69.553 1.757 1.324l.003.037H2.543l-.006-.037c-.046-.272-.318-.453-.72-.453-.399 0-.635.178-.635.438v.003c0 .248.2.384.671.478l.45.088c.93.181 1.352.553 1.352 1.257v.003c0 .892-.686 1.46-1.835 1.46Zm4.58 0c-1.306 0-2.11-.877-2.11-2.298v-.006c0-1.421.801-2.295 2.11-2.295 1.098 0 1.9.704 1.963 1.669v.054H7.295l-.003-.027A.872.872 0 0 0 6.4 6.17c-.607 0-.98.52-.98 1.373v.006c0 .858.373 1.382.983 1.382.478 0 .814-.3.89-.75l.005-.034h1.068v.049C8.293 9.169 7.519 9.85 6.4 9.85Zm2.77-.118V5.368h1.11v4.363H9.17Zm2.14 0V5.368h1.264l1.056 2.96h.057l1.052-2.96H16v4.363h-.973V6.952h-.063l-.992 2.779h-.632l-.991-2.779h-.06v2.779h-.978Z"/></svg>
