<!--
* SPDX-FileCopyrightText: © 2022 Liferay, Inc. <https://liferay.com>
* SPDX-FileCopyrightText: © 2022 Contributors to the project Clay <https://github.com/liferay/clay/graphs/contributors>
*
* SPDX-License-Identifier: BSD-3-Clause
-->
<svg viewBox="0 0 16 16" xmlns="http://www.w3.org/2000/svg"><path class="lexicon-icon-outline" d="M.752 1.502h11.5c.416 0 .75-.334.75-.75a.748.748 0 0 0-.75-.75H.752a.748.748 0 0 0-.75.75c0 .416.334.75.75.75Zm0 3.625h2.5c.415 0 .75-.334.75-.75a.748.748 0 0 0-.75-.75h-2.5a.748.748 0 0 0-.75.75c0 .416.334.75.75.75Zm0 3.625h1.5c.415 0 .75-.334.75-.75a.748.748 0 0 0-.75-.75h-1.5a.748.748 0 0 0-.75.75c0 .416.334.75.75.75Zm0 3.625h2.5c.415 0 .75-.334.75-.75a.748.748 0 0 0-.75-.75h-2.5a.748.748 0 0 0-.75.75c0 .416.334.75.75.75Zm10.5 2.125H.752a.748.748 0 0 0-.75.75c0 .416.334.75.75.75h10.5c.416 0 .75-.334.75-.75a.748.748 0 0 0-.75-.75Zm4.456-1.206-2.546-2.547a4.999 4.999 0 0 0-4.178-7.747c-2.763 0-5 2.238-5 5a4.999 4.999 0 0 0 7.768 4.163l2.544 2.543c.39.391 1.025.391 1.416 0a1 1 0 0 0-.004-1.412Zm-6.725-2.294A3 3 0 1 1 8.985 5a3 3 0 0 1-.002 6.002Z"/></svg>