<!--
* SPDX-FileCopyrightText: © 2020 Liferay, Inc. <https://liferay.com>
* SPDX-FileCopyrightText: © 2020 Contributors to the project Clay <https://github.com/liferay/clay/graphs/contributors>
*
* SPDX-License-Identifier: BSD-3-Clause
-->
<svg viewBox="0 0 16 16" xmlns="http://www.w3.org/2000/svg"><path fill-rule="evenodd" clip-rule="evenodd" d="M8.491 6.01h-1.48V4.527c0-.7-1.001-.7-1.001 0V6.01H4.508c-.67 0-.67 1.002 0 1.002H6.01v1.501c0 .673 1 .67 1 0V7.011h1.481c.701 0 .701-1.002 0-1.002Z"/><path fill-rule="evenodd" clip-rule="evenodd" d="m15.6 14.24-3.804-3.805c4.606-7.509-4.607-13.616-9.914-8.61-5.207 5.807 1.302 14.417 8.512 10.012l3.805 3.704c1.101 1.202 2.503-.2 1.402-1.301ZM6.43 2.025c6.008 0 6.208 9.011 0 9.011-6.008 0-5.808-9.01 0-9.01Z"/></svg>
