<!--
* SPDX-FileCopyrightText: © 2020 Liferay, Inc. <https://liferay.com>
* SPDX-FileCopyrightText: © 2020 Contributors to the project Clay <https://github.com/liferay/clay/graphs/contributors>
*
* SPDX-License-Identifier: BSD-3-Clause
-->
<svg viewBox="0 0 16 16" xmlns="http://www.w3.org/2000/svg"><path d="M.752 1.504h11.5c.416 0 .75-.334.75-.75a.748.748 0 0 0-.75-.75H.753a.748.748 0 0 0-.75.75c0 .416.335.75.75.75Zm0 3.626h2.5c.416 0 .75-.335.75-.75a.748.748 0 0 0-.75-.75h-2.5a.748.748 0 0 0-.75.75c0 .415.335.75.75.75Zm0 3.624h1.5c.416 0 .75-.334.75-.75a.748.748 0 0 0-.75-.75h-1.5a.748.748 0 0 0-.75.75c0 .416.335.75.75.75Zm0 3.626h2.5c.416 0 .75-.335.75-.75a.748.748 0 0 0-.75-.75h-2.5a.748.748 0 0 0-.75.75c0 .415.335.75.75.75Zm10.501 2.124H.753a.748.748 0 0 0-.75.75c0 .416.334.75.75.75h10.5c.415 0 .75-.334.75-.75a.748.748 0 0 0-.75-.75Zm4.457-1.206-2.548-2.547a4.999 4.999 0 0 0-4.178-7.747c-2.763 0-5 2.238-5 5a4.999 4.999 0 0 0 7.769 4.163l2.544 2.544c.39.39 1.025.39 1.415 0a1 1 0 0 0-.003-1.413Zm-6.726-2.294a3 3 0 1 1 .002-6.001 3 3 0 0 1-.002 6.001Z"/></svg>
