<!--
* SPDX-FileCopyrightText: © 2020 Liferay, Inc. <https://liferay.com>
* SPDX-FileCopyrightText: © 2020 Contributors to the project Clay <https://github.com/liferay/clay/graphs/contributors>
*
* SPDX-License-Identifier: BSD-3-Clause
-->
<svg  viewBox="0 0 16 16" xmlns="http://www.w3.org/2000/svg">
<path class="lexicon-icon-outline" d="M0.75246 1.50452H12.2527C12.6684 1.50452 13.0028 1.17014 13.0028 0.754517C13.0028 0.338892 12.6684 0.0045166 12.2527 0.0045166H0.75246C0.336825 0.0045166 0.00244141 0.338892 0.00244141 0.754517C0.00244141 1.17014 0.336825 1.50452 0.75246 1.50452Z" />
<path class="lexicon-icon-outline" d="M0.75246 5.12952H3.25252C3.66816 5.12952 4.00254 4.79514 4.00254 4.37952C4.00254 3.96389 3.66816 3.62952 3.25252 3.62952H0.75246C0.336825 3.62952 0.00244141 3.96389 0.00244141 4.37952C0.00244141 4.79514 0.336825 5.12952 0.75246 5.12952Z" />
<path class="lexicon-icon-outline" d="M0.75246 8.75452H2.2525C2.66813 8.75452 3.00251 8.42014 3.00251 8.00452C3.00251 7.58889 2.66813 7.25452 2.2525 7.25452H0.75246C0.336825 7.25452 0.00244141 7.58889 0.00244141 8.00452C0.00244141 8.42014 0.336825 8.75452 0.75246 8.75452Z" />
<path class="lexicon-icon-outline" d="M0.75246 12.3795H3.25252C3.66816 12.3795 4.00254 12.0451 4.00254 11.6295C4.00254 11.2139 3.66816 10.8795 3.25252 10.8795H0.75246C0.336825 10.8795 0.00244141 11.2139 0.00244141 11.6295C0.00244141 12.0451 0.336825 12.3795 0.75246 12.3795Z" />
<path class="lexicon-icon-outline" d="M11.2527 14.5045H0.75246C0.336825 14.5045 0.00244141 14.8389 0.00244141 15.2545C0.00244141 15.6701 0.336825 16.0045 0.75246 16.0045H11.2527C11.6684 16.0045 12.0027 15.6701 12.0027 15.2545C12.0027 14.8389 11.6684 14.5045 11.2527 14.5045Z" />
<path class="lexicon-icon-outline" d="M15.7092 13.2983L13.1622 10.7514C13.681 9.96389 13.9841 9.02014 13.9841 8.00452C13.9841 5.24202 11.7466 3.00452 8.98401 3.00452C6.22144 3.00452 3.98389 5.24202 3.98389 8.00452C3.98389 10.767 6.22144 13.0045 8.98401 13.0045C10.009 13.0045 10.9591 12.6951 11.7528 12.167L14.2966 14.7108C14.6873 15.1014 15.3217 15.1014 15.7123 14.7108C16.0998 14.3201 16.0998 13.6889 15.7092 13.2983ZM8.98401 11.0045C7.32772 11.0045 5.98393 9.66077 5.98393 8.00452C5.98393 6.34827 7.32772 5.00452 8.98401 5.00452C10.6403 5.00452 11.9841 6.34827 11.9841 8.00452C11.9841 9.66077 10.6403 11.0045 8.98401 11.0045Z" />
</svg>
