<!--
* SPDX-FileCopyrightText: © 2022 Liferay, Inc. <https://liferay.com>
* SPDX-FileCopyrightText: © 2022 Contributors to the project Clay <https://github.com/liferay/clay/graphs/contributors>
*
* SPDX-License-Identifier: BSD-3-Clause
-->
<svg viewBox="0 0 16 16" xmlns="http://www.w3.org/2000/svg"><path class="lexicon-icon-outline" fill-rule="evenodd" clip-rule="evenodd" d="M8.492 6.01h-1.48V4.527c0-.7-1.002-.7-1.002 0v1.481H4.508c-.669 0-.669 1.001 0 1.001H6.01v1.502c0 .673 1.001.669 1.001 0V7.01h1.48c.702 0 .702-1 0-1Z"/><path class="lexicon-icon-outline" fill-rule="evenodd" clip-rule="evenodd" d="m15.601 14.24-3.805-3.805c4.606-7.509-4.606-13.616-9.913-8.61-5.207 5.807 1.301 14.417 8.511 10.012L14.2 15.54c1.102 1.201 2.504-.2 1.402-1.302ZM6.431 2.024c6.008 0 6.208 9.01 0 9.01-6.008 0-5.808-9.01 0-9.01Z"/></svg>