<!--
* SPDX-FileCopyrightText: © 2020 Liferay, Inc. <https://liferay.com>
* SPDX-FileCopyrightText: © 2020 Contributors to the project Clay <https://github.com/liferay/clay/graphs/contributors>
*
* SPDX-License-Identifier: BSD-3-Clause
-->
<svg  viewBox="0 0 16 16" xmlns="http://www.w3.org/2000/svg">
<path class="lexicon-icon-outline" fill-rule="evenodd" clip-rule="evenodd" d="M8.49111 6.00955H7.01088V4.52838C7.01088 3.82755 6.00954 3.82755 6.00954 4.52838V6.00955H4.50752C3.83865 6.00955 3.83865 7.01073 4.50752 7.01073H6.00954V8.51251C6.00954 9.18518 7.01088 9.18127 7.01088 8.51251V7.01073H8.49111C9.19205 7.01073 9.19205 6.00955 8.49111 6.00955Z" />
<path class="lexicon-icon-outline" fill-rule="evenodd" clip-rule="evenodd" d="M15.6007 14.2399L11.7956 10.4354C16.4017 2.92649 7.18936 -3.18074 1.88223 1.82518C-3.32476 7.63206 3.18398 16.2422 10.3937 11.837L14.1988 15.5414C15.3003 16.7428 16.7021 15.3412 15.6007 14.2399ZM6.4301 2.02542C12.4382 2.02542 12.6384 11.0361 6.4301 11.0361C0.42203 11.0361 0.622299 2.02542 6.4301 2.02542Z" />
</svg>
