<!--
* SPDX-FileCopyrightText: © 2022 Liferay, Inc. <https://liferay.com>
* SPDX-FileCopyrightText: © 2022 Contributors to the project Clay <https://github.com/liferay/clay/graphs/contributors>
*
* SPDX-License-Identifier: BSD-3-Clause
-->
<svg viewBox="0 0 16 16" xmlns="http://www.w3.org/2000/svg"><path class="lexicon-icon-outline" d="M8.715 7.002h4.24L10.837 4.88 8.715 7.002Zm0 2h4.24l-2.118 2.122-2.122-2.122Zm-2.41.475c-.069 1.647-2.584.744-3.028.113l-.728.88c.781 1.298 5.11 1.798 5.021-1.09-.075-1.522-1.223-1.948-2.177-2.301-.712-.264-1.317-.488-1.285-1.099-.04-.787 1.263-1.353 2.613-.234 0 0 .437-.556.63-.825C5.987 3.44 3.05 3.627 2.862 6.043 2.826 7.367 3.957 7.85 4.933 8.268c.755.323 1.417.606 1.372 1.209Z"/><path class="lexicon-icon-outline" fill-rule="evenodd" clip-rule="evenodd" d="M2.002.002c-1.104 0-2 .897-2 2v12c0 1.103.896 2 2 2h12c1.103 0 2-.897 2-2v-12c0-1.103-.896-2-2-2h-12Zm12 2v12h-12v-12h12Z"/></svg>