<!--
* SPDX-FileCopyrightText: © 2022 Liferay, Inc. <https://liferay.com>
* SPDX-FileCopyrightText: © 2022 Contributors to the project Clay <https://github.com/liferay/clay/graphs/contributors>
*
* SPDX-License-Identifier: BSD-3-Clause
-->
<svg viewBox="0 0 16 16" xmlns="http://www.w3.org/2000/svg"><path class="lexicon-icon-outline" d="M4.203 7.101a1 1 0 1 1 1.603-1.197L8.001 8.5 10.2 5.905A1 1 0 1 1 11.802 7.1l-2.999 3.495a1 1 0 0 1-1.605 0L4.203 7.101Z" /><path class="lexicon-icon-outline" fill-rule="evenodd" clip-rule="evenodd" d="M16.002 14.002v-12c-.002-1.003-1.002-2-2-2h-12c-1.002-.003-2 .997-2 2v12c-.002.997.998 1.997 2 2h12c.998 0 1.998-1.003 2-2Zm-2-12h-12v12h12v-12Z" /></svg>