<!--
* SPDX-FileCopyrightText: © 2020 Liferay, Inc. <https://liferay.com>
* SPDX-FileCopyrightText: © 2020 Contributors to the project Clay <https://github.com/liferay/clay/graphs/contributors>
*
* SPDX-License-Identifier: BSD-3-Clause
-->
<svg  viewBox="0 0 16 16" xmlns="http://www.w3.org/2000/svg">
<path class="lexicon-icon-outline" d="M8.7146 7.00244H12.9548L10.8367 4.88055L8.7146 7.00244Z" />
<path class="lexicon-icon-outline" d="M8.7146 9.00244H12.9548L10.8367 11.1243L8.7146 9.00244Z" />
<path class="lexicon-icon-outline" d="M6.30444 9.47742C6.23608 11.1243 3.72046 10.2212 3.2771 9.5899L2.54858 10.4712C3.32983 11.7681 7.65796 12.2681 7.57007 9.38055C7.49487 7.85809 6.34644 7.43256 5.39233 7.07898C4.68042 6.815 4.07593 6.59106 4.10815 5.98053C4.06714 5.19305 5.37085 4.62744 6.72046 5.74615C6.72046 5.74615 7.15796 5.18994 7.35132 4.92114C5.98608 3.43994 3.04858 3.62744 2.86108 6.04303C2.82593 7.36743 3.95679 7.85114 4.93237 8.26831C5.68726 8.59143 6.34937 8.87457 6.30444 9.47742Z" />
<path class="lexicon-icon-outline" fill-rule="evenodd" clip-rule="evenodd" d="M2.00171 0.00244141C0.898193 0.00244141 0.00170898 0.899292 0.00170898 2.00244V14.0024C0.00170898 15.1056 0.898193 16.0024 2.00171 16.0024H14.0017C15.1052 16.0024 16.0017 15.1056 16.0017 14.0024V2.00244C16.0017 0.899292 15.1052 0.00244141 14.0017 0.00244141H2.00171ZM14.0017 2.00244V14.0024H2.00171V2.00244H14.0017Z" />
</svg>
