<!--
* SPDX-FileCopyrightText: © 2020 Liferay, Inc. <https://liferay.com>
* SPDX-FileCopyrightText: © 2020 Contributors to the project Clay <https://github.com/liferay/clay/graphs/contributors>
*
* SPDX-License-Identifier: BSD-3-Clause
-->
<svg viewBox="0 0 16 16" xmlns="http://www.w3.org/2000/svg"><path d="M8.715 7.002h4.24L10.837 4.88 8.715 7.002Zm0 2h4.24l-2.118 2.122-2.122-2.122Zm-2.41.475c-.069 1.647-2.584.744-3.028.113l-.728.881c.781 1.297 5.11 1.797 5.021-1.09-.075-1.523-1.223-1.949-2.178-2.302-.711-.264-1.316-.488-1.284-1.099-.04-.787 1.263-1.353 2.613-.234 0 0 .437-.556.63-.825C5.986 3.44 3.05 3.627 2.861 6.043 2.826 7.367 3.957 7.85 4.932 8.268c.755.323 1.417.606 1.373 1.21Z"/><path fill-rule="evenodd" clip-rule="evenodd" d="M2.002.002c-1.104 0-2 .897-2 2v12c0 1.103.896 2 2 2h12c1.103 0 2-.896 2-2v-12c0-1.103-.897-2-2-2h-12Zm12 2v12h-12v-12h12Z"/></svg>
