<!--
* SPDX-FileCopyrightText: © 2020 Liferay, Inc. <https://liferay.com>
* SPDX-FileCopyrightText: © 2020 Contributors to the project Clay <https://github.com/liferay/clay/graphs/contributors>
*
* SPDX-License-Identifier: BSD-3-Clause
-->
<svg  viewBox="0 0 16 16" xmlns="http://www.w3.org/2000/svg">
<path class="lexicon-icon-outline" d="M4.20435 7.10388C4.07935 6.93518 4.00415 6.72888 4.00415 6.50391C4.00415 5.95081 4.45142 5.50391 5.00415 5.50391C5.33228 5.50391 5.62622 5.66333 5.80688 5.90698L8.00415 8.50183L10.2014 5.90698C10.3821 5.66333 10.676 5.50391 11.0042 5.50391C11.5569 5.50391 12.0042 5.95081 12.0042 6.50391C12.0042 6.72888 11.929 6.93823 11.804 7.10388L8.80493 10.5988C8.62427 10.8424 8.33032 11.0018 8.0022 11.0018C7.67407 11.0018 7.38013 10.8424 7.19946 10.5988L4.20435 7.10388Z" />
<path class="lexicon-icon-outline" fill-rule="evenodd" clip-rule="evenodd" d="M16.0042 13.7539V2.25391C16.0042 1.01636 14.9915 0.00390625 13.7542 0.00390625H2.25415C1.01685 0.00390625 0.00415039 1.01636 0.00415039 2.25391V13.7539C0.00415039 14.9915 1.01685 16.0039 2.25415 16.0039H13.7542C14.9915 16.0039 16.0042 14.9915 16.0042 13.7539ZM14.0042 2.00391H2.00415V14.0039H14.0042V2.00391Z" />
</svg>
