<!--
* SPDX-FileCopyrightText: © 2020 Liferay, Inc. <https://liferay.com>
* SPDX-FileCopyrightText: © 2020 Contributors to the project Clay <https://github.com/liferay/clay/graphs/contributors>
*
* SPDX-License-Identifier: BSD-3-Clause
-->
<svg  viewBox="0 0 16 16" xmlns="http://www.w3.org/2000/svg">
<path class="lexicon-icon-outline" d="M4.00415 0.00390625H6.00415V1.00391H4.00415V0.00390625Z" />
<path class="lexicon-icon-outline" d="M3.0041 4.00391H10.0041C11.3582 4.00391 11.3069 2.00391 10.0041 2.00391H3.0041C1.71348 2.00391 1.64941 4.00391 3.0041 4.00391Z" />
<path class="lexicon-icon-outline" d="M2.50404 6.00391H10.504C11.179 6.00391 11.1662 5.00391 10.504 5.00391H2.50404C1.85404 5.00391 1.84122 6.00391 2.50404 6.00391Z" />
<path class="lexicon-icon-outline" d="M10.504 8.00391H2.50404C1.84122 8.00391 1.85404 7.00391 2.50404 7.00391H10.504C11.1662 7.00391 11.179 8.00391 10.504 8.00391Z" />
<path class="lexicon-icon-outline" d="M2.50404 10.0039H5.50403C6.17904 10.0039 6.16622 9.00391 5.50403 9.00391H2.50404C1.85404 9.00391 1.84122 10.0039 2.50404 10.0039Z" />
<path class="lexicon-icon-outline" d="M10.0042 10.0039L11.0042 15.0039L12.0042 14.0039L14.0042 16.0039L16.0042 14.0039L14.0042 12.0039L15.0042 11.0039L10.0042 10.0039Z" />
<path class="lexicon-icon-outline" d="M9.00415 0.00390625H7.00415V1.00391H9.00415V0.00390625Z" />
<path class="lexicon-icon-outline" d="M4.00415 12.0039H6.00415V13.0039H4.00415V12.0039Z" />
<path class="lexicon-icon-outline" d="M9.00415 12.0039H7.00415V13.0039H9.00415V12.0039Z" />
<path class="lexicon-icon-outline" d="M0.00415039 4.00391H1.00415V6.00391H0.00415039V4.00391Z" />
<path class="lexicon-icon-outline" d="M1.00415 7.00391H0.00415039V9.00391H1.00415V7.00391Z" />
<path class="lexicon-icon-outline" d="M12.0042 4.00391H13.0042V6.00391H12.0042V4.00391Z" />
<path class="lexicon-icon-outline" d="M13.0042 7.00391H12.0042V9.00391H13.0042V7.00391Z" />
<path class="lexicon-icon-outline" d="M1.00415 0.00390625H3.00415V1.00391H1.00415V3.00391H0.00415039V1.00391C0.00415039 0.451719 0.451963 0.00390625 1.00415 0.00390625Z" />
<path class="lexicon-icon-outline" d="M0.00415039 10.0039V12.0039C0.00415039 12.5561 0.451963 13.0039 1.00415 13.0039H3.00415V12.0039H1.00415V10.0039H0.00415039Z" />
<path class="lexicon-icon-outline" d="M13.0042 1.00391V3.00391H12.0042V1.00391H10.0042V0.00390625H12.0042C12.5563 0.00390625 13.0042 0.451719 13.0042 1.00391Z" />
</svg>
