<!--
* SPDX-FileCopyrightText: © 2020 Liferay, Inc. <https://liferay.com>
* SPDX-FileCopyrightText: © 2020 Contributors to the project Clay <https://github.com/liferay/clay/graphs/contributors>
*
* SPDX-License-Identifier: BSD-3-Clause
-->
<svg viewBox="0 0 16 16" xmlns="http://www.w3.org/2000/svg"><path d="M4.205 7.104a1 1 0 1 1 1.603-1.197l2.196 2.595 2.198-2.595a1 1 0 1 1 1.602 1.197l-2.999 3.495a1 1 0 0 1-1.605 0L4.205 7.104Z"/><path fill-rule="evenodd" clip-rule="evenodd" d="M16.004 13.754v-11.5a2.257 2.257 0 0 0-2.25-2.25h-11.5a2.257 2.257 0 0 0-2.25 2.25v11.5a2.257 2.257 0 0 0 2.25 2.25h11.5a2.257 2.257 0 0 0 2.25-2.25Zm-2-11.75h-12v12h12v-12Z"/></svg>
