<!--
* SPDX-FileCopyrightText: © 2025 Liferay, Inc. <https://liferay.com>
* SPDX-FileCopyrightText: © 2025 Contributors to the project Clay <https://github.com/liferay/clay/graphs/contributors>
*
* SPDX-License-Identifier: BSD-3-Clause
-->
<svg viewBox="0 0 16 16" xmlns="http://www.w3.org/2000/svg">
	<path class="lexicon-icon-outline" d="M8.175.088a6.131 6.131 0 0 1 4.144 9.351 6.123 6.123 0 0 1-.625.81l4.009 4.009a1.022 1.022 0 0 1-1.445 1.445l-4.184-4.184c-.054.03-.106.062-.161.09A6.132 6.132 0 0 1 2.09 9.59c-.317-.464-.088-1.076.423-1.312.51-.236 1.107-.002 1.462.435a4.096 4.096 0 0 0 6.627-.372 4.094 4.094 0 0 0-2.436-6.175c-.545-.139-1.007-.583-1.007-1.145 0-.563.46-1.027 1.015-.933Z"/>
	<path class="lexicon-icon-outline" d="M3.691.002c.104 0 .205.035.286.1.08.064.136.153.156.252l.385 1.872a.714.714 0 0 0 .201.367c.103.1.235.17.377.197l1.924.375c.102.02.194.074.26.152a.431.431 0 0 1 0 .556.454.454 0 0 1-.26.151L5.096 4.4a.745.745 0 0 0-.377.196.714.714 0 0 0-.201.368l-.385 1.872a.434.434 0 0 1-.156.253.459.459 0 0 1-.57 0 .439.439 0 0 1-.157-.253l-.384-1.872a.714.714 0 0 0-.202-.368.746.746 0 0 0-.377-.196L.363 4.024a.453.453 0 0 1-.26-.151.433.433 0 0 1 .26-.708l1.924-.375a.746.746 0 0 0 .377-.197.715.715 0 0 0 .202-.367L3.25.354c.02-.1.076-.188.156-.252a.46.46 0 0 1 .285-.1Z"/>
</svg>