<!--
* SPDX-FileCopyrightText: © 2022 Liferay, Inc. <https://liferay.com>
* SPDX-FileCopyrightText: © 2022 Contributors to the project Clay <https://github.com/liferay/clay/graphs/contributors>
*
* SPDX-License-Identifier: BSD-3-Clause
-->
<svg viewBox="0 0 16 16" xmlns="http://www.w3.org/2000/svg"><path d="M3.502 4.752a.75.75 0 1 1 1.5 0v4a.75.75 0 1 1-1.5 0v-4Zm4.5 3a.75.75 0 1 1 1.5 0v1a.75.75 0 1 1-1.5 0v-1Z"/><path fill-rule="evenodd" clip-rule="evenodd" d="m15.603 14.235-3.797-3.815C16.37 2.885 7.178-3.2 1.862 1.857c-5.16 5.81 1.3 14.394 8.544 9.969l3.797 3.712c1.097 1.207 2.5-.2 1.4-1.303ZM6.447 1.988c5.997 0 6.19 9.032 0 9.032-6.028 0-5.857-9.032 0-9.032Z"/><path d="M5.752 6.252a.75.75 0 1 1 1.5 0v2.5a.75.75 0 1 1-1.5 0v-2.5Z"/></svg>
