<!--
* SPDX-FileCopyrightText: © 2020 Liferay, Inc. <https://liferay.com>
* SPDX-FileCopyrightText: © 2020 Contributors to the project Clay <https://github.com/liferay/clay/graphs/contributors>
*
* SPDX-License-Identifier: BSD-3-Clause
-->
<svg  viewBox="0 0 16 16" xmlns="http://www.w3.org/2000/svg">
<path class="lexicon-icon-outline" d="M3.50171 4.75195C3.50171 4.33711 3.83716 4.00195 4.25171 4.00195C4.66626 4.00195 5.00171 4.33711 5.00171 4.75195V8.75195C5.00171 9.1668 4.66626 9.50195 4.25171 9.50195C3.83716 9.50195 3.50171 9.1668 3.50171 8.75195V4.75195Z" />
<path class="lexicon-icon-outline" d="M8.00171 7.75195C8.00171 7.33711 8.33716 7.00195 8.75171 7.00195C9.16626 7.00195 9.50171 7.33711 9.50171 7.75195V8.75195C9.50171 9.1668 9.16626 9.50195 8.75171 9.50195C8.33716 9.50195 8.00171 9.1668 8.00171 8.75195V7.75195Z" />
<path class="lexicon-icon-outline" fill-rule="evenodd" clip-rule="evenodd" d="M15.6027 14.2355L11.8058 10.4199C16.3683 2.88554 7.1777 -3.19884 1.86207 1.85741C-3.2973 7.66679 3.16207 16.2512 10.4058 11.8262L14.2027 15.5387C15.2996 16.7449 16.7027 15.3387 15.6027 14.2355ZM6.44645 1.98866C12.4433 1.98866 12.6371 11.0199 6.44645 11.0199C0.418324 11.0199 0.590199 1.98866 6.44645 1.98866Z" />
<path class="lexicon-icon-outline" d="M5.75171 6.25195C5.75171 5.83711 6.08716 5.50195 6.50171 5.50195C6.91626 5.50195 7.25171 5.83711 7.25171 6.25195V8.75195C7.25171 9.1668 6.91626 9.50195 6.50171 9.50195C6.08716 9.50195 5.75171 9.1668 5.75171 8.75195V6.25195Z" />
</svg>
