<!--
* SPDX-FileCopyrightText: © 2020 Liferay, Inc. <https://liferay.com>
* SPDX-FileCopyrightText: © 2020 Contributors to the project Clay <https://github.com/liferay/clay/graphs/contributors>
*
* SPDX-License-Identifier: BSD-3-Clause
-->
<svg  viewBox="0 0 16 16" xmlns="http://www.w3.org/2000/svg">
<path class="lexicon-icon-outline" d="M2.99198 5.00244H13.0008C13.5545 5.00244 14.0017 4.55554 14.0017 4.00244V3.00244C14.0017 2.44934 13.5545 2.00244 13.0008 2.00244H2.99198C2.43827 2.00244 1.991 2.44934 1.991 3.00244V4.00244C1.991 4.55554 2.43827 5.00244 2.99198 5.00244Z" />
<path class="lexicon-icon-outline" d="M14.5017 8.50244H1.491C0.827914 8.50244 0.849398 7.50244 1.491 7.50244H14.5017C15.1521 7.50244 15.1834 8.50244 14.5017 8.50244Z" />
<path class="lexicon-icon-outline" d="M13.0008 14.0024H2.99198C2.43827 14.0024 1.991 13.5555 1.991 13.0024V12.0024C1.991 11.4493 2.43827 11.0024 2.99198 11.0024H13.0008C13.5545 11.0024 14.0017 11.4493 14.0017 12.0024V13.0024C14.0017 13.5555 13.5545 14.0024 13.0008 14.0024Z" />
</svg>
