<!--
* SPDX-FileCopyrightText: © 2020 Liferay, Inc. <https://liferay.com>
* SPDX-FileCopyrightText: © 2020 Contributors to the project Clay <https://github.com/liferay/clay/graphs/contributors>
*
* SPDX-License-Identifier: BSD-3-Clause
-->
<svg viewBox="0 0 16 16" xmlns="http://www.w3.org/2000/svg"><path d="M2.992 5.002h10.009a1 1 0 0 0 1.001-1v-1a1 1 0 0 0-1.001-1H2.992a1 1 0 0 0-1 1v1a1 1 0 0 0 1 1Zm11.51 3.5H1.492c-.664 0-.642-1 0-1h13.01c.65 0 .682 1 0 1Zm-1.501 5.5H2.992a1 1 0 0 1-1-1v-1a1 1 0 0 1 1-1h10.009a1 1 0 0 1 1.001 1v1a1 1 0 0 1-1.001 1Z"/></svg>
