<!--
* SPDX-FileCopyrightText: © 2020 Liferay, Inc. <https://liferay.com>
* SPDX-FileCopyrightText: © 2020 Contributors to the project Clay <https://github.com/liferay/clay/graphs/contributors>
*
* SPDX-License-Identifier: BSD-3-Clause
-->
<svg  viewBox="0 0 16 16" xmlns="http://www.w3.org/2000/svg">
<path class="lexicon-icon-outline" fill-rule="evenodd" clip-rule="evenodd" d="M10.1934 10.1075C10.8096 9.51245 11.6484 9.14587 12.5713 9.14587C14.4619 9.14587 16 10.684 16 12.5745C16 14.465 14.4619 16.0031 12.5713 16.0031C10.6807 16.0031 9.14258 14.465 9.14258 12.5745C9.14258 12.4312 9.15137 12.2898 9.16895 12.151L5.80664 10.4701C5.19043 11.0651 4.35156 11.4316 3.42871 11.4316C1.53809 11.4316 0 9.89355 0 8.00305C0 6.11255 1.53809 4.57446 3.42871 4.57446C4.35156 4.57446 5.19043 4.94104 5.80664 5.53613L9.16895 3.8551C9.15137 3.71631 9.14258 3.57495 9.14258 3.43164C9.14258 1.54114 10.6807 0.00305176 12.5713 0.00305176C14.4619 0.00305176 16 1.54114 16 3.43164C16 5.32214 14.4619 6.86023 12.5713 6.86023C11.6484 6.86023 10.8096 6.49365 10.1934 5.89856L6.83105 7.57959C6.84863 7.71838 6.85742 7.85974 6.85742 8.00305C6.85742 8.14636 6.84863 8.28772 6.83105 8.42651L10.1934 10.1075ZM13.7148 3.43164C13.7148 2.80151 13.2021 2.28882 12.5713 2.28882C11.9414 2.28882 11.4287 2.80151 11.4287 3.43164C11.4287 4.06189 11.9414 4.57458 12.5713 4.57458C13.2021 4.57458 13.7148 4.06189 13.7148 3.43164ZM3.42871 9.146C2.79883 9.146 2.28613 8.6333 2.28613 8.00305C2.28613 7.37292 2.79883 6.86023 3.42871 6.86023C4.05957 6.86023 4.57227 7.37292 4.57227 8.00305C4.57227 8.6333 4.05957 9.146 3.42871 9.146ZM11.4287 12.5745C11.4287 13.2047 11.9414 13.7174 12.5713 13.7174C13.2021 13.7174 13.7148 13.2047 13.7148 12.5745C13.7148 11.9443 13.2021 11.4316 12.5713 11.4316C11.9414 11.4316 11.4287 11.9443 11.4287 12.5745Z" />
</svg>
