<!--
* SPDX-FileCopyrightText: © 2022 Liferay, Inc. <https://liferay.com>
* SPDX-FileCopyrightText: © 2022 Contributors to the project Clay <https://github.com/liferay/clay/graphs/contributors>
*
* SPDX-License-Identifier: BSD-3-Clause
-->
<svg viewBox="0 0 16 16" xmlns="http://www.w3.org/2000/svg"><path class="lexicon-icon-outline" fill-rule="evenodd" clip-rule="evenodd" d="M10.195 10.107a3.413 3.413 0 0 1 2.378-.962 3.433 3.433 0 0 1 3.429 3.428 3.433 3.433 0 0 1-3.429 3.43 3.433 3.433 0 0 1-3.402-3.853l-3.363-1.68a3.414 3.414 0 0 1-2.378.96A3.433 3.433 0 0 1 .002 8.003a3.433 3.433 0 0 1 3.428-3.43c.923 0 1.762.367 2.378.962l3.363-1.68A3.433 3.433 0 0 1 12.573.002a3.433 3.433 0 0 1 3.429 3.428 3.433 3.433 0 0 1-3.429 3.428 3.414 3.414 0 0 1-2.378-.961l-3.362 1.68a3.37 3.37 0 0 1 0 .848l3.362 1.68Zm3.522-6.676a1.144 1.144 0 0 0-2.287 0 1.144 1.144 0 0 0 2.287 0ZM3.43 9.145a1.144 1.144 0 0 1 0-2.286c.631 0 1.144.513 1.144 1.143S4.061 9.145 3.43 9.145Zm8 3.428a1.144 1.144 0 0 0 2.287 0 1.144 1.144 0 0 0-2.287 0Z"/></svg>