<!--
* SPDX-FileCopyrightText: © 2022 Liferay, Inc. <https://liferay.com>
* SPDX-FileCopyrightText: © 2022 Contributors to the project Clay <https://github.com/liferay/clay/graphs/contributors>
*
* SPDX-License-Identifier: BSD-3-Clause
-->
<svg viewBox="0 0 16 16" xmlns="http://www.w3.org/2000/svg"><path class="lexicon-icon-outline" d="m.45 3.403 7.552-3.4 7.553 3.3c.596.3.596 1.1 0 1.3l-7.553 3.4-7.553-3.3c-.596-.3-.596-1.1 0-1.3Z"/><path class="lexicon-icon-outline" d="m15.623 7.402-1.896-.8-1.198.5 1.997.9-6.487 2.901-6.486-2.9 2.096-.901-1.296-.6-1.897.9c-.6.2-.6 1 0 1.3l7.583 3.302 7.584-3.399c.5-.203.5-1.003 0-1.203Z"/><path class="lexicon-icon-outline" d="m15.62 11.4-1.91-.8-1.205.5 2.11.9-6.629 2.902L1.462 12l2.11-.9-1.207-.501-1.909.8c-.602.2-.602 1 0 1.3l7.53 3.302 7.631-3.398c.506-.203.506-1.004.003-1.204Z"/></svg>