<!--
* SPDX-FileCopyrightText: © 2020 Liferay, Inc. <https://liferay.com>
* SPDX-FileCopyrightText: © 2020 Contributors to the project Clay <https://github.com/liferay/clay/graphs/contributors>
*
* SPDX-License-Identifier: BSD-3-Clause
-->
<svg  viewBox="0 0 16 16" xmlns="http://www.w3.org/2000/svg">
<path class="lexicon-icon-outline" d="M0.44751 3.40438L8.00024 0.00305176L15.553 3.30434C16.1497 3.60446 16.1497 4.40477 15.553 4.60485L8.00024 8.00305L0.44751 4.70489C-0.14917 4.40477 -0.14917 3.60446 0.44751 3.40438Z" />
<path class="lexicon-icon-outline" d="M15.6213 7.40282L13.7249 6.6025L12.5276 7.1027L14.5247 8.00305L8.03735 10.9042L1.55103 8.00305L3.64771 7.1027L2.35083 6.50247L0.454346 7.40282C-0.14624 7.6029 -0.14624 8.40321 0.454346 8.70333L8.03735 12.0046L15.6213 8.60641C16.1213 8.40321 16.1213 7.6029 15.6213 7.40282Z" />
<path class="lexicon-icon-outline" d="M15.6184 11.4013L13.7092 10.6009L12.5032 11.1011L14.6125 12.0015L7.98462 14.9026L1.46021 12.0015L3.56958 11.1011L2.36353 10.6009L0.454346 11.4013C-0.148193 11.6013 -0.148193 12.4016 0.454346 12.7018L7.98462 16.0031L15.6155 12.6048C16.1213 12.4016 16.1213 11.6013 15.6184 11.4013Z" />
</svg>
