<!--
* SPDX-FileCopyrightText: © 2020 Liferay, Inc. <https://liferay.com>
* SPDX-FileCopyrightText: © 2020 Contributors to the project Clay <https://github.com/liferay/clay/graphs/contributors>
*
* SPDX-License-Identifier: BSD-3-Clause
-->
<svg viewBox="0 0 16 16" xmlns="http://www.w3.org/2000/svg"><path d="M.45 3.404 8.001.002l7.553 3.302c.597.3.597 1.1 0 1.3L8.002 8.002.45 4.704c-.596-.3-.596-1.1 0-1.3Z"/><path d="m15.623 7.402-1.896-.8-1.197.5 1.997.9-6.488 2.901-6.486-2.9 2.097-.901-1.297-.6-1.897.9c-.6.2-.6 1 0 1.3l7.583 3.302 7.584-3.398c.5-.204.5-1.004 0-1.204Z"/><path d="m15.62 11.4-1.909-.8-1.206.5 2.11.9-6.628 2.902L1.462 12l2.11-.9-1.207-.5-1.909.8c-.602.2-.602 1 0 1.3l7.53 3.301 7.631-3.398c.506-.203.506-1.003.003-1.204Z"/></svg>
