<!--
* SPDX-FileCopyrightText: © 2024 Liferay, Inc. <https://liferay.com>
* SPDX-FileCopyrightText: © 2024 Contributors to the project Clay <https://github.com/liferay/clay/graphs/contributors>
*
* SPDX-License-Identifier: BSD-3-Clause
-->
<svg xmlns="http://www.w3.org/2000/svg" viewBox="0 0 16 16"><path fill-rule="evenodd" d="M13 2.898A13.587 13.587 0 0 0 8.018 2h-.036A13.587 13.587 0 0 0 3 2.898v4.696a6.508 6.508 0 0 0 1.145 3.697A6.59 6.59 0 0 0 7.2 13.703h.001l.743.287a.158.158 0 0 0 .112 0l.743-.287a6.593 6.593 0 0 0 3.056-2.412A6.509 6.509 0 0 0 13 7.594V2.898Zm-3.48 12.67-.746.289a2.157 2.157 0 0 1-1.547 0l-.747-.288a8.59 8.59 0 0 1-3.983-3.146A8.508 8.508 0 0 1 1 7.59V2.28a1.064 1.064 0 0 1 .623-.978A15.584 15.584 0 0 1 8 0c2.194-.02 4.368.423 6.377 1.3a1.074 1.074 0 0 1 .623.978V7.59a8.508 8.508 0 0 1-1.497 4.832 8.59 8.59 0 0 1-3.983 3.146Z" clip-rule="evenodd"/><path d="m8.792 6.48 1.72-.608L11 7.399l-1.748.593 1.096 1.558-1.229.95-1.126-1.573L6.896 10.5l-1.23-.967L6.749 7.99 5 7.398l.473-1.526 1.735.607V4.5h1.585v1.98Z"/></svg>
