<!--
* SPDX-FileCopyrightText: © 2020 Liferay, Inc. <https://liferay.com>
* SPDX-FileCopyrightText: © 2020 Contributors to the project Clay <https://github.com/liferay/clay/graphs/contributors>
*
* SPDX-License-Identifier: BSD-3-Clause
-->
<svg xmlns="http://www.w3.org/2000/svg" viewBox="0 0 512 512">
	<path class="lexicon-icon-outline" d="M474.7,54.4c-3.5-5.5-8.6-10-14.6-12.7C395.8,13.6,326.2-0.6,256,0C185.8-0.6,116.2,13.6,51.9,41.6c-6,2.8-11.1,7.2-14.6,12.7c-3.5,5.5-5.4,12-5.3,18.6v170C31.9,298.1,48.6,352,79.9,397.5c31.3,45.6,75.7,80.6,127.4,100.7l23.9,9.2c15.9,6.1,33.6,6.1,49.5,0l23.9-9.2c51.7-20,96.2-55.1,127.4-100.7c31.3-45.6,48-99.5,47.9-154.6v-170C480,66.4,478.2,59.9,474.7,54.4z M419,170.3L251.7,353.7l0,0c-5.1,5.4-12.2,8.6-19.6,8.8l-0.8,0c-7.2,0-14.2-2.7-19.4-7.7l-96.5-92.5c-6.3-6.3-8.6-13.4-8-20.1c0.7-6.7,4.2-12.6,9.1-17c9.7-8.7,26-11.9,37.7-0.2l75.8,72.7l148-162.5l0,0c5.8-6.3,12.9-8.9,19.9-8.8c6.9,0.1,13.4,2.9,18.4,7.2c5,4.3,8.7,10.2,9.6,16.8C426.8,157,424.8,164,419,170.3z"/>
</svg>