<!--
* SPDX-FileCopyrightText: © 2020 Liferay, Inc. <https://liferay.com>
* SPDX-FileCopyrightText: © 2020 Contributors to the project Clay <https://github.com/liferay/clay/graphs/contributors>
*
* SPDX-License-Identifier: BSD-3-Clause
-->
<svg  viewBox="0 0 16 16" xmlns="http://www.w3.org/2000/svg">
<path class="lexicon-icon-outline" fill-rule="evenodd" clip-rule="evenodd" d="M15 2.28185C15.0016 2.0766 14.9436 1.87523 14.8332 1.7018C14.7227 1.52837 14.5643 1.39021 14.377 1.30381C12.3679 0.426749 10.1943 -0.0163915 8 0.003706C5.8057 -0.0163915 3.63211 0.426749 1.62303 1.30381C1.43567 1.39021 1.2773 1.52837 1.16682 1.7018C1.05635 1.87523 0.998447 2.0766 1.00003 2.28185V7.59426C0.997207 9.31801 1.51902 11.0023 2.49694 12.426C3.47487 13.8497 4.86319 14.9462 6.47961 15.5716L7.2265 15.8596C7.7242 16.0509 8.2758 16.0509 8.7735 15.8596L9.52039 15.5716C11.1368 14.9462 12.5251 13.8497 13.5031 12.426C14.481 11.0023 15.0028 9.31801 15 7.59426V2.28185ZM13.0925 5.32398C13.2748 5.12864 13.337 4.90815 13.3084 4.69979C13.2803 4.49427 13.1651 4.30906 13.0083 4.17528C12.8513 4.04144 12.6468 3.954 12.4322 3.95076C12.215 3.94747 11.9941 4.03079 11.8117 4.22672L11.8109 4.22758L7.18694 9.30718L4.81763 7.03604C4.45128 6.67143 3.94312 6.77137 3.63921 7.04191C3.48563 7.17862 3.37427 7.36556 3.35374 7.57336C3.33291 7.78421 3.40685 8.00499 3.60274 8.20149L6.61933 11.0926C6.78045 11.2469 7.00057 11.3324 7.22556 11.3324L7.25064 11.3324C7.48376 11.3246 7.70655 11.226 7.8646 11.0564L7.86535 11.0556L13.0925 5.32398Z" />
</svg>
