<!--
* SPDX-FileCopyrightText: © 2020 Liferay, Inc. <https://liferay.com>
* SPDX-FileCopyrightText: © 2020 Contributors to the project Clay <https://github.com/liferay/clay/graphs/contributors>
*
* SPDX-License-Identifier: BSD-3-Clause
-->
<svg viewBox="0 0 16 16" xmlns="http://www.w3.org/2000/svg"><path fill-rule="evenodd" clip-rule="evenodd" d="M15.002 2.281a1.064 1.064 0 0 0-.623-.978 15.584 15.584 0 0 0-6.377-1.3 15.584 15.584 0 0 0-6.377 1.3 1.074 1.074 0 0 0-.623.978v5.313a8.508 8.508 0 0 0 1.497 4.831 8.59 8.59 0 0 0 3.983 3.146l.746.288a2.16 2.16 0 0 0 1.547 0l.747-.288a8.59 8.59 0 0 0 3.983-3.146 8.509 8.509 0 0 0 1.497-4.831V2.28Zm-1.908 3.042a.75.75 0 0 0 .216-.624.854.854 0 0 0-.3-.524.92.92 0 0 0-.576-.225.819.819 0 0 0-.62.276h-.001l-4.624 5.08-2.37-2.27c-.366-.365-.874-.265-1.178.005a.833.833 0 0 0-.285.532c-.021.21.053.431.249.628l3.016 2.89a.88.88 0 0 0 .607.24h.025a.88.88 0 0 0 .614-.275v-.001l5.228-5.732Z"/></svg>
