<!--
* SPDX-FileCopyrightText: © 2024 Liferay, Inc. <https://liferay.com>
* SPDX-FileCopyrightText: © 2024 Contributors to the project Clay <https://github.com/liferay/clay/graphs/contributors>
*
* SPDX-License-Identifier: BSD-3-Clause
-->
<svg xmlns="http://www.w3.org/2000/svg" viewBox="0 0 512 512">
	<path fill-rule="evenodd" d="M415.999 92.704a434.78 434.78 0 0 0-159.413-28.703l-.586.006-.586-.006A434.775 434.775 0 0 0 96.001 92.704v150.303c-.07 42.158 12.691 83.387 36.655 118.274 23.961 34.884 58.02 61.815 97.754 77.195l.03.011 23.771 9.166c.005.002-.006-.002 0 0a5.06 5.06 0 0 0 3.565.005c.004-.002-.005.002 0 0l23.784-9.171c.007-.002-.008.003 0 0 39.737-15.378 73.821-42.32 97.784-77.206 23.964-34.887 36.724-76.116 36.655-118.274V92.704ZM304.653 498.176l-23.901 9.216a69.023 69.023 0 0 1-49.504 0l-23.901-9.216c-51.725-20.012-96.151-55.101-127.445-100.659-31.294-45.558-47.991-99.455-47.901-154.615V72.904a34.055 34.055 0 0 1 5.337-18.561 34.362 34.362 0 0 1 14.599-12.736A498.684 498.684 0 0 1 256 .004a498.684 498.684 0 0 1 204.063 41.603 34.36 34.36 0 0 1 14.599 12.736 34.053 34.053 0 0 1 5.337 18.561v169.998c.09 55.16-16.608 109.057-47.901 154.615-31.294 45.558-75.72 80.647-127.445 100.659Z" clip-rule="evenodd"/>
	<path d="m281.35 207.319 55.012-19.439L352 236.756l-55.95 18.961 35.1 49.873-39.338 30.393-36.037-50.35-35.1 50.35-39.338-30.951 34.613-49.354L160 236.717l15.15-48.837 55.5 19.439v-63.336h50.737l-.037 63.336Z"/>
</svg>

