<!--
* SPDX-FileCopyrightText: © 2022 Liferay, Inc. <https://liferay.com>
* SPDX-FileCopyrightText: © 2022 Contributors to the project Clay <https://github.com/liferay/clay/graphs/contributors>
*
* SPDX-License-Identifier: BSD-3-Clause
-->
<svg viewBox="0 0 16 16" xmlns="http://www.w3.org/2000/svg"><path class="lexicon-icon-outline" fill-rule="evenodd" clip-rule="evenodd" d="M15.002 2.28a1.066 1.066 0 0 0-.623-.977 15.584 15.584 0 0 0-6.377-1.3 15.584 15.584 0 0 0-6.377 1.3 1.074 1.074 0 0 0-.623.978v5.312A8.508 8.508 0 0 0 2.5 12.425a8.59 8.59 0 0 0 3.983 3.146l.747.288a2.17 2.17 0 0 0 1.547 0l.747-.288a8.591 8.591 0 0 0 3.982-3.146 8.508 8.508 0 0 0 1.497-4.832V2.281Zm-1.907 3.043a.75.75 0 0 0 .216-.624.854.854 0 0 0-.3-.525.92.92 0 0 0-.577-.224.818.818 0 0 0-.62.276l-4.625 5.08-2.37-2.27c-.366-.366-.874-.266-1.178.005a.832.832 0 0 0-.285.531c-.02.211.053.432.249.629l3.017 2.89a.88.88 0 0 0 .606.24h.025a.88.88 0 0 0 .614-.276l5.228-5.732Z"/></svg>