<!--
* SPDX-FileCopyrightText: © 2022 Liferay, Inc. <https://liferay.com>
* SPDX-FileCopyrightText: © 2022 Contributors to the project Clay <https://github.com/liferay/clay/graphs/contributors>
*
* SPDX-License-Identifier: BSD-3-Clause
-->
<svg viewBox="0 0 16 16" xmlns="http://www.w3.org/2000/svg"><path class="lexicon-icon-outline" d="M2.916 1.602 5.659 8h6.628l.772-3.881c.328-1.347 2.253-.89 1.9.631l-.994 4.54c-.125.41-.506.71-.956.71H5c-.418 0-.777-.256-.927-.622L1.075 2.393C.637 1.246 2.29.365 2.915 1.603Zm1.584 13.4a1.501 1.501 0 1 0 0-3 1.501 1.501 0 1 0 0 3Zm9.512-1.5c0 .829-.673 1.5-1.503 1.5a1.501 1.501 0 1 1 0-3c.83 0 1.503.672 1.503 1.5Z"/></svg>