<!--
* SPDX-FileCopyrightText: © 2020 Liferay, Inc. <https://liferay.com>
* SPDX-FileCopyrightText: © 2020 Contributors to the project Clay <https://github.com/liferay/clay/graphs/contributors>
*
* SPDX-License-Identifier: BSD-3-Clause
-->
<svg viewBox="0 0 16 16" xmlns="http://www.w3.org/2000/svg">
	<path class="lexicon-icon-outline" d="M6.502 12.002a1.5 1.5 0 1 1 0 3 1.5 1.5 0 0 1 0-3Zm6 0a1.5 1.5 0 1 1 0 3 1.5 1.5 0 0 1 0-3Z"/>
	<path class="lexicon-icon-outline" fill-rule="evenodd" d="M15.102 3.01c.656.093 1.08.856.825 1.56l-2.067 5.713c-.137.38-.445.645-.802.705l-.156.014H5.62l-.155-.014a1.037 1.037 0 0 1-.735-.549l-.068-.156-2.16-7.281h-1.5a1 1 0 0 1 0-2h2a2 2 0 0 1 2 2h9.967l.133.009ZM6.31 9.002h5.922l1.27-4h-8.5l1.308 4Z" clip-rule="evenodd"/>
</svg>