<!--
* SPDX-FileCopyrightText: © 2020 Liferay, Inc. <https://liferay.com>
* SPDX-FileCopyrightText: © 2020 Contributors to the project Clay <https://github.com/liferay/clay/graphs/contributors>
*
* SPDX-License-Identifier: BSD-3-Clause
-->
<svg  viewBox="0 0 16 16" xmlns="http://www.w3.org/2000/svg">
<path class="lexicon-icon-outline" d="M2.91334 1.6034L5.65705 8.00011H12.2851L13.057 4.11896C13.3851 2.77212 15.3101 3.22836 14.9569 4.75019L13.9632 9.2907C13.8382 9.70006 13.457 10.0001 13.007 10.0001H4.99769C4.57894 10.0001 4.21957 9.74381 4.06957 9.3782L1.07274 2.394C0.635242 1.24716 2.28835 0.365932 2.91334 1.6034Z" />
<path class="lexicon-icon-outline" d="M4.49769 15.0031C5.32784 15.0031 6.0008 14.3315 6.0008 13.5031C6.0008 12.6747 5.32784 12.0031 4.49769 12.0031C3.66755 12.0031 2.99459 12.6747 2.99459 13.5031C2.99459 14.3315 3.66755 15.0031 4.49769 15.0031Z" />
<path class="lexicon-icon-outline" d="M14.0101 13.5031C14.0101 14.3315 13.3371 15.0031 12.507 15.0031C11.6768 15.0031 11.0039 14.3315 11.0039 13.5031C11.0039 12.6747 11.6768 12.0031 12.507 12.0031C13.3371 12.0031 14.0101 12.6747 14.0101 13.5031Z" />
</svg>
