<!--
* SPDX-FileCopyrightText: © 2022 Liferay, Inc. <https://liferay.com>
* SPDX-FileCopyrightText: © 2022 Contributors to the project Clay <https://github.com/liferay/clay/graphs/contributors>
*
* SPDX-License-Identifier: BSD-3-Clause
-->
<svg viewBox="0 0 16 16" xmlns="http://www.w3.org/2000/svg"><path class="lexicon-icon-outline" fill-rule="evenodd" clip-rule="evenodd" d="M12 4.017a.998.998 0 0 0-.998-1h-2c-.552 0-1 .447-1.002 1a.998.998 0 0 0 .998 1h2c.552 0 1.001-.448 1.002-1Zm-4 4a1 1 0 0 0 1 1h4a1 1 0 1 0 0-2H9a1 1 0 0 0-1 1Zm0 4a1 1 0 0 0 1 1h6a1 1 0 1 0 0-2H9a1 1 0 0 0-1 1Z"/><path class="lexicon-icon-outline" d="M6.441 2.532 4.118.298a1.07 1.07 0 0 0-.743-.296 1.07 1.07 0 0 0-.743.296L.309 2.532a.98.98 0 0 0 0 1.428c.204.196.474.296.743.296.27 0 .539-.1.743-.296l.542-.52v11.564c0 .552.464.998 1.038.998.574 0 1.038-.446 1.038-.998V3.439l.542.521a1.078 1.078 0 0 0 1.486 0 .98.98 0 0 0 0-1.428Z"/></svg>