<!--
* SPDX-FileCopyrightText: © 2020 Liferay, Inc. <https://liferay.com>
* SPDX-FileCopyrightText: © 2020 Contributors to the project Clay <https://github.com/liferay/clay/graphs/contributors>
*
* SPDX-License-Identifier: BSD-3-Clause
-->
<svg viewBox="0 0 16 16" xmlns="http://www.w3.org/2000/svg"><path d="M14 11.003a1 1 0 1 1 2 0v3c0 1.103-.898 2-2 2H2c-1.103 0-2-.897-2-2v-12c0-1.103.897-2 2-2h3a1 1 0 1 1 0 2H2v12h12v-3Z"/><path d="M10 .003h5a1 1 0 0 1 1 1v5a1 1 0 1 1-2 0V3.417L9.707 7.71a.997.997 0 0 1-1.414 0 1 1 0 0 1 0-1.414l4.293-4.293H10a1 1 0 1 1 0-2Z"/></svg>
