<!--
* SPDX-FileCopyrightText: © 2022 Liferay, Inc. <https://liferay.com>
* SPDX-FileCopyrightText: © 2022 Contributors to the project Clay <https://github.com/liferay/clay/graphs/contributors>
*
* SPDX-License-Identifier: BSD-3-Clause
-->
<svg viewBox="0 0 16 16" xmlns="http://www.w3.org/2000/svg"><path class="lexicon-icon-outline" d="M14.002 11.002a1 1 0 1 1 2 0v3c0 1.103-.897 2-2 2h-12c-1.102 0-2-.897-2-2v-12c0-1.103.898-2 2-2h3a1 1 0 1 1 0 2h-3v12h12v-3Z"/><path class="lexicon-icon-outline" d="M10.002.002h5a1 1 0 0 1 1 1v5a1 1 0 1 1-2 0V3.416L9.71 7.71a.997.997 0 0 1-1.414 0 1 1 0 0 1 0-1.414l4.293-4.293h-2.586a1 1 0 1 1 0-2Z"/></svg>