<!--
* SPDX-FileCopyrightText: © 2020 Liferay, Inc. <https://liferay.com>
* SPDX-FileCopyrightText: © 2020 Contributors to the project Clay <https://github.com/liferay/clay/graphs/contributors>
*
* SPDX-License-Identifier: BSD-3-Clause
-->
<svg  viewBox="0 0 16 16" xmlns="http://www.w3.org/2000/svg">
<path class="lexicon-icon-outline" d="M14 11.0031C14 10.4508 14.4473 10.0031 15 10.0031C15.5527 10.0031 16 10.4508 16 11.0031V14.0031C16 15.1059 15.1025 16.0031 14 16.0031H2C0.897461 16.0031 0 15.1059 0 14.0031V2.00305C0 0.900253 0.897461 0.00305176 2 0.00305176H5C5.55273 0.00305176 6 0.450775 6 1.00305C6 1.55533 5.55273 2.00305 5 2.00305H2V14.0031H14V11.0031Z" />
<path class="lexicon-icon-outline" d="M10 0.00305176H15C15.5527 0.00305176 16 0.45076 16 1.00305V6.00305C16 6.55534 15.5527 7.00305 15 7.00305C14.4473 7.00305 14 6.55534 14 6.00305V3.41725L9.70703 7.71016C9.51172 7.90543 9.25586 8.00305 9 8.00305C8.74414 8.00305 8.48828 7.90543 8.29297 7.71016C7.90234 7.31963 7.90234 6.68648 8.29297 6.29594L12.5859 2.00305H10C9.44727 2.00305 9 1.55534 9 1.00305C9 0.45076 9.44727 0.00305176 10 0.00305176Z" />
</svg>
