<!--
* SPDX-FileCopyrightText: © 2022 Liferay, Inc. <https://liferay.com>
* SPDX-FileCopyrightText: © 2022 Contributors to the project Clay <https://github.com/liferay/clay/graphs/contributors>
*
* SPDX-License-Identifier: BSD-3-Clause
-->
<svg viewBox="0 0 16 16" xmlns="http://www.w3.org/2000/svg"><path class="lexicon-icon-outline" d="M14.602 1.404C12.65-.549 9.55-.621 6.717 2.207L4.036 4.885c-1.891 1.888-2.2 4.713-1.988 6.6l5.575-5.569a.506.506 0 0 1 .71 0 .499.499 0 0 1 0 .707l-8.11 8.1a.75.75 0 0 0 1.063 1.06l2.065-2.064c1.632.49 5.37.57 7.713-1.715H7.996l4.613-1.535c1.563-1.559 1.138-1.13 1.447-1.465H11l4.11-1.369c1.419-2.328 1.072-4.65-.507-6.231Z"/></svg>