<!--
* SPDX-FileCopyrightText: © 2020 Liferay, Inc. <https://liferay.com>
* SPDX-FileCopyrightText: © 2020 Contributors to the project Clay <https://github.com/liferay/clay/graphs/contributors>
*
* SPDX-License-Identifier: BSD-3-Clause
-->
<svg  viewBox="0 0 16 16" xmlns="http://www.w3.org/2000/svg">
<path class="lexicon-icon-outline" d="M14.6003 1.40497C12.6469 -0.548111 9.54652 -0.619984 6.71491 2.20807C4.25835 4.66114 4.80842 4.11115 4.03332 4.88613C2.14246 6.77359 1.83304 9.59852 2.04557 11.486L7.62128 5.91736C7.81818 5.72361 8.13384 5.72361 8.33074 5.91736C8.52765 6.1111 8.52452 6.42985 8.33074 6.62359L0.22034 14.7234C-0.0734468 15.0171 -0.0734468 15.4921 0.22034 15.7827C0.514128 16.0765 0.989188 16.0765 1.28298 15.7827L3.34886 13.7203C4.98032 14.2109 8.71829 14.289 11.0623 12.0047H7.9932L12.6063 10.4704C14.169 8.91104 13.7439 9.33915 14.0533 9.00478H10.9967L15.1066 7.63607C16.5255 5.308 16.1786 2.98618 14.6003 1.40497Z" />
</svg>
