<!--
* SPDX-FileCopyrightText: © 2022 Liferay, Inc. <https://liferay.com>
* SPDX-FileCopyrightText: © 2022 Contributors to the project Clay <https://github.com/liferay/clay/graphs/contributors>
*
* SPDX-License-Identifier: BSD-3-Clause
-->
<svg viewBox="0 0 16 16" xmlns="http://www.w3.org/2000/svg"><path class="lexicon-icon-outline" d="M3 2.002h10v12H3v-2H1v2c0 1.006 1.006 2 2 2h10c1 0 2-.995 2-2v-12c0-1-.992-2-2-2H3c-1.008 0-2 1.008-2 2.032v1.968h2v-2Z" /><path class="lexicon-icon-outline" d="M9.7 7.287 7.461 5.049c-.85-.856-2.381.294-1.431 1.432l.521.521-4.556.004c-1.344 0-1.312 2 0 2l4.556-.004-.521.522c-.95 1.132.587 2.269 1.43 1.432L9.7 8.718c.19-.19.54-.8 0-1.431Z" /></svg>