<!--
* SPDX-FileCopyrightText: © 2020 Liferay, Inc. <https://liferay.com>
* SPDX-FileCopyrightText: © 2020 Contributors to the project Clay <https://github.com/liferay/clay/graphs/contributors>
*
* SPDX-License-Identifier: BSD-3-Clause
-->
<svg viewBox="0 0 16 16" xmlns="http://www.w3.org/2000/svg"><path d="M14.6 1.405C12.647-.548 9.547-.62 6.715 2.208L4.033 4.886c-1.89 1.887-2.2 4.712-1.987 6.6L7.62 5.917a.506.506 0 0 1 .71 0 .499.499 0 0 1 0 .706l-8.11 8.1a.75.75 0 0 0 1.063 1.06l2.065-2.063c1.631.49 5.37.569 7.713-1.715H7.993l4.613-1.535c1.563-1.56 1.138-1.131 1.447-1.465h-3.056l4.11-1.37c1.419-2.327 1.072-4.649-.507-6.23Z"/></svg>
