<!--
* SPDX-FileCopyrightText: © 2022 Liferay, Inc. <https://liferay.com>
* SPDX-FileCopyrightText: © 2022 Contributors to the project Clay <https://github.com/liferay/clay/graphs/contributors>
*
* SPDX-License-Identifier: BSD-3-Clause
-->
<svg viewBox="0 0 16 16" xmlns="http://www.w3.org/2000/svg"><path class="lexicon-icon-outline" d="M8 10.002c1.104 0 2-.897 2-2s-.896-2-2-2-2 .897-2 2 .896 2 2 2Z"/><path class="lexicon-icon-outline" fill-rule="evenodd" clip-rule="evenodd" d="M16 7.002a1 1 0 0 0-1-1h-.291A7.02 7.02 0 0 0 10 1.292v-.29a1 1 0 0 0-1-1H7a1 1 0 0 0-1 1v.29a7.02 7.02 0 0 0-4.709 4.71H1a1 1 0 0 0-1 1v2a1 1 0 0 0 1 1h.291A7.02 7.02 0 0 0 6 14.712v.29a1 1 0 0 0 1 1h2a1 1 0 0 0 1-1v-.29a7.02 7.02 0 0 0 4.709-4.71H15a1 1 0 0 0 1-1v-2Zm-2.932 3.14a5.526 5.526 0 0 1-1.177 1.75 5.397 5.397 0 0 1-1.75 1.179l-.141.056v-.125H6v.125l-.14-.056a5.532 5.532 0 0 1-1.75-1.178 5.396 5.396 0 0 1-1.178-1.75l-.057-.14H3v-4h-.125l.057-.142a5.526 5.526 0 0 1 1.177-1.75 5.398 5.398 0 0 1 1.75-1.178L6 2.877v.125h4v-.125l.14.056a5.532 5.532 0 0 1 1.75 1.178 5.397 5.397 0 0 1 1.178 1.75l.057.141H13v4h.125l-.057.14Z"/></svg>