<!--
* SPDX-FileCopyrightText: © 2020 Liferay, Inc. <https://liferay.com>
* SPDX-FileCopyrightText: © 2020 Contributors to the project Clay <https://github.com/liferay/clay/graphs/contributors>
*
* SPDX-License-Identifier: BSD-3-Clause
-->
<svg viewBox="0 0 16 16" xmlns="http://www.w3.org/2000/svg"><path fill-rule="evenodd" clip-rule="evenodd" d="M15 7.003h-.071A7.004 7.004 0 0 0 9 1.074v-.071a1 1 0 1 0-2 0v.071a7.004 7.004 0 0 0-5.929 5.929H1a.998.998 0 0 0-.338.059L.57 7.1l-.061.033-.032.019a.996.996 0 0 0-.194 1.547.998.998 0 0 0 .718.304h.071A7.004 7.004 0 0 0 7 14.932v.07a1.026 1.026 0 0 0 .07.37l.022.05.038.074c.03.05.062.1.1.144l.03.036.039.04a.991.991 0 0 0 .701.287 1 1 0 0 0 1-1v-.071a7.004 7.004 0 0 0 5.929-5.93H15a1 1 0 1 0 0-2Zm-4.86-4.068a5.479 5.479 0 0 1 1.749 1.179 5.489 5.489 0 0 1 1.52 2.889h-1.02a4.716 4.716 0 0 0-.243-.752 4.475 4.475 0 0 0-.964-1.43A4.486 4.486 0 0 0 9 3.615V2.594c.39.071.771.185 1.14.34ZM5.17 7.003H7v-1.83a3.009 3.009 0 0 0-1.83 1.83Zm1.83 2v1.829a3.01 3.01 0 0 1-1.83-1.83H7Zm3.83 0H9v1.829a3.009 3.009 0 0 0 1.83-1.83Zm-1.83-2v-1.83a3.009 3.009 0 0 1 1.83 1.83H9ZM3.447 4.915a5.496 5.496 0 0 0-.856 2.088h1.021a4.638 4.638 0 0 1 .242-.752 4.538 4.538 0 0 1 .601-1.021A4.483 4.483 0 0 1 7 3.615V2.593a5.444 5.444 0 0 0-1.14.341 5.522 5.522 0 0 0-2.413 1.98Zm1.936 7.927a5.423 5.423 0 0 1-1.272-.95 5.485 5.485 0 0 1-1.52-2.89h1.021a4.476 4.476 0 0 0 1.206 2.182A4.484 4.484 0 0 0 7 12.392v1.021a5.432 5.432 0 0 1-1.617-.57Zm7.335-2.01a5.398 5.398 0 0 0 .691-1.83h-1.02A4.507 4.507 0 0 1 9 12.393v1.02a5.457 5.457 0 0 0 2.889-1.52c.321-.321.598-.676.829-1.06Z"/></svg>
