<!--
* SPDX-FileCopyrightText: © 2022 Liferay, Inc. <https://liferay.com>
* SPDX-FileCopyrightText: © 2022 Contributors to the project Clay <https://github.com/liferay/clay/graphs/contributors>
*
* SPDX-License-Identifier: BSD-3-Clause
-->
<svg viewBox="0 0 16 16" xmlns="http://www.w3.org/2000/svg"><path class="lexicon-icon-outline" fill-rule="evenodd" clip-rule="evenodd" d="M15 7.002h-.071A7.004 7.004 0 0 0 9 1.073v-.07a1 1 0 1 0-2 0v.07a7.004 7.004 0 0 0-5.929 5.93H1a.998.998 0 0 0-.338.058l-.093.038-.061.033-.032.02a.996.996 0 0 0-.476.85 1 1 0 0 0 1 1h.071A7.004 7.004 0 0 0 7 14.93v.071a1.027 1.027 0 0 0 .07.37l.022.05.038.073c.03.051.062.1.1.144l.03.036.039.04a.993.993 0 0 0 .701.287 1 1 0 0 0 1-1v-.071a7.004 7.004 0 0 0 5.929-5.929H15a1 1 0 1 0 0-2Zm-4.86-4.068a5.479 5.479 0 0 1 1.749 1.179 5.489 5.489 0 0 1 1.52 2.89h-1.02a4.716 4.716 0 0 0-.243-.752 4.475 4.475 0 0 0-.964-1.43A4.486 4.486 0 0 0 9 3.613v-1.02c.39.071.771.185 1.14.34ZM5.17 7.002H7V5.173a3.009 3.009 0 0 0-1.83 1.83Zm1.83 2v1.83a3.01 3.01 0 0 1-1.83-1.83H7Zm3.83 0H9v1.83a3.01 3.01 0 0 0 1.83-1.83Zm-1.83-2V5.173a3.009 3.009 0 0 1 1.83 1.83H9ZM3.447 4.914a5.496 5.496 0 0 0-.856 2.088h1.021a4.636 4.636 0 0 1 .242-.752 4.536 4.536 0 0 1 .601-1.021A4.483 4.483 0 0 1 7 3.614V2.593a5.44 5.44 0 0 0-1.14.34 5.522 5.522 0 0 0-2.413 1.98Zm1.936 7.927a5.422 5.422 0 0 1-1.272-.95 5.486 5.486 0 0 1-1.52-2.889h1.021a4.477 4.477 0 0 0 1.206 2.182A4.485 4.485 0 0 0 7 12.391v1.02a5.426 5.426 0 0 1-1.617-.57Zm7.335-2.01a5.4 5.4 0 0 0 .691-1.83h-1.02A4.508 4.508 0 0 1 9 12.392v1.02a5.478 5.478 0 0 0 2.889-1.52 5.5 5.5 0 0 0 .829-1.06Z"/></svg>