<!--
* SPDX-FileCopyrightText: © 2020 Liferay, Inc. <https://liferay.com>
* SPDX-FileCopyrightText: © 2020 Contributors to the project Clay <https://github.com/liferay/clay/graphs/contributors>
*
* SPDX-License-Identifier: BSD-3-Clause
-->
<svg viewBox="0 0 16 16" xmlns="http://www.w3.org/2000/svg"><path fill-rule="evenodd" clip-rule="evenodd" d="M14.32 12.909A7.962 7.962 0 0 0 16 8.003c0-1.849-.627-3.55-1.68-4.906l.68-.68a1 1 0 1 0-1.414-1.414l-.68.68A7.964 7.964 0 0 0 8 .003c-1.849 0-3.55.627-4.905 1.68l-.68-.68A1 1 0 0 0 1 2.417l.68.68A7.962 7.962 0 0 0 0 8.003c0 1.849.627 3.55 1.68 4.905l-.68.68a1 1 0 1 0 1.414 1.415l.68-.68A7.965 7.965 0 0 0 8 16.003c1.849 0 3.55-.627 4.905-1.68l.68.68A1 1 0 1 0 15 13.589l-.68-.68Zm-.79-7.24A5.96 5.96 0 0 1 14 8.003a5.958 5.958 0 0 1-1.108 3.477l-1.446-1.445c.352-.596.554-1.29.554-2.032s-.202-1.436-.554-2.032l1.446-1.445c.253.355.466.737.637 1.142ZM8 2.002a5.964 5.964 0 0 0-3.477 1.109L5.97 4.557A3.981 3.981 0 0 1 8 4.003c.742 0 1.437.202 2.032.554l1.445-1.445A5.974 5.974 0 0 0 8 2.002Zm-5.53 8.335A5.957 5.957 0 0 1 2 8.003a5.958 5.958 0 0 1 1.108-3.477L4.554 5.97A3.984 3.984 0 0 0 4 8.003c0 .742.202 1.436.554 2.032L3.108 11.48a5.965 5.965 0 0 1-.637-1.142ZM8 14.003a5.96 5.96 0 0 0 3.477-1.109l-1.445-1.445A3.983 3.983 0 0 1 8 12.003a3.982 3.982 0 0 1-2.031-.554l-1.446 1.445A5.967 5.967 0 0 0 8 14.003Z"/></svg>
