<!--
* SPDX-FileCopyrightText: © 2020 Liferay, Inc. <https://liferay.com>
* SPDX-FileCopyrightText: © 2020 Contributors to the project Clay <https://github.com/liferay/clay/graphs/contributors>
*
* SPDX-License-Identifier: BSD-3-Clause
-->
<svg  viewBox="0 0 16 16" xmlns="http://www.w3.org/2000/svg">
<path class="lexicon-icon-outline" fill-rule="evenodd" clip-rule="evenodd" d="M15 7.00305H14.9287C14.4902 3.93738 12.0654 1.51257 9 1.0741V1.00305C9 0.450806 8.55273 0.00305176 8 0.00305176C7.44727 0.00305176 7 0.450806 7 1.00305V1.0741C3.93457 1.51257 1.50977 3.93738 1.07129 7.00305H1C0.881836 7.00305 0.767578 7.0238 0.662109 7.06177L0.569336 7.10022L0.507812 7.13293L0.475586 7.1521C0.40332 7.19653 0.336914 7.24976 0.279297 7.3103C0.106445 7.48999 0 7.73413 0 8.00305C0 8.27368 0.107422 8.51929 0.28125 8.69934C0.462891 8.8866 0.717773 9.00305 1 9.00305H1.07129C1.50977 12.0687 3.93457 14.4935 7 14.932V15.0031C7 15.0861 7.00977 15.1666 7.02832 15.2437C7.03906 15.2878 7.05273 15.3309 7.06934 15.3726L7.0918 15.4226L7.12988 15.4957C7.15918 15.547 7.19238 15.5953 7.22949 15.6404L7.26074 15.6763L7.29883 15.7159C7.3877 15.8035 7.49219 15.8745 7.60938 15.924C7.72949 15.9749 7.86133 16.0031 8 16.0031C8.55273 16.0031 9 15.5553 9 15.0031V14.932C12.0654 14.4935 14.4902 12.0687 14.9287 9.00305H15C15.5527 9.00305 16 8.5553 16 8.00305C16 7.45081 15.5527 7.00305 15 7.00305ZM10.1406 2.93469C10.7949 3.21167 11.3838 3.6084 11.8887 4.11401C12.3945 4.61963 12.791 5.20789 13.0684 5.86267C13.1279 6.0022 13.1807 6.14355 13.2275 6.2865C13.3047 6.52124 13.3652 6.76038 13.4092 7.00305H12.3887C12.3711 6.92432 12.3506 6.84595 12.3281 6.76819C12.2773 6.5929 12.2168 6.42041 12.1455 6.25098C11.9189 5.71497 11.5947 5.23389 11.1816 4.82117C10.9648 4.60413 10.7295 4.4115 10.4766 4.24475C10.248 4.09436 10.0059 3.96497 9.75195 3.85742C9.64258 3.81104 9.53223 3.76929 9.41992 3.73193C9.28223 3.68591 9.1416 3.64685 9 3.61475V2.59363C9.39062 2.66516 9.77148 2.77893 10.1406 2.93469ZM5.1709 7.00305H7V5.17395C6.14746 5.47522 5.47266 6.15063 5.1709 7.00305ZM7 9.00305V10.8322C6.14746 10.5308 5.47266 9.85535 5.1709 9.00305H7ZM10.8291 9.00305H9V10.8322C9.85254 10.5309 10.5273 9.85535 10.8291 9.00305ZM9 7.00305V5.17395C9.85254 5.47522 10.5273 6.15063 10.8291 7.00305H9ZM3.44727 4.91504C3.24512 5.21216 3.07324 5.52869 2.93164 5.86255C2.77637 6.23108 2.66211 6.6123 2.59082 7.00305H3.6123C3.63379 6.90918 3.6582 6.81592 3.68555 6.72339C3.73242 6.56348 3.78906 6.40588 3.85449 6.25098C3.9375 6.05481 4.0332 5.86609 4.1416 5.6853C4.23633 5.5271 4.34082 5.37512 4.45508 5.22974C4.56738 5.08704 4.68848 4.95068 4.81836 4.82104C5.23145 4.4082 5.71191 4.08398 6.24805 3.8573C6.49316 3.75378 6.74414 3.67285 7 3.61462V2.59351C6.86328 2.61853 6.72754 2.6488 6.59277 2.68433C6.34375 2.75 6.09961 2.83337 5.86035 2.93457C5.20508 3.21155 4.61719 3.60828 4.11133 4.11389C3.86328 4.36169 3.6416 4.62939 3.44727 4.91504ZM5.38281 12.8418C5.20215 12.744 5.02734 12.6364 4.85938 12.519C4.59375 12.3337 4.34375 12.1244 4.11133 11.8921C3.60547 11.3866 3.20898 10.7982 2.93164 10.1434C2.77637 9.77502 2.66211 9.3938 2.59082 9.00305H3.6123C3.66992 9.25928 3.75098 9.5105 3.85449 9.75513C4.08105 10.2911 4.40527 10.7722 4.81836 11.1851C5.23145 11.5978 5.71191 11.9221 6.24805 12.1488C6.49316 12.2523 6.74414 12.3333 7 12.3915V13.4126C6.60938 13.3409 6.22852 13.2273 5.86035 13.0714C5.69629 13.0023 5.53711 12.9257 5.38281 12.8418ZM12.7178 10.8322C12.8496 10.6119 12.9668 10.3821 13.0684 10.1434C13.2246 9.77502 13.3379 9.3938 13.4092 9.00305H12.3887C12.3301 9.25928 12.249 9.5105 12.1455 9.75513C11.9189 10.2911 11.5947 10.7722 11.1816 11.1851C10.7695 11.5978 10.2881 11.9221 9.75195 12.1488C9.50781 12.2523 9.25586 12.3333 9 12.3915V13.4126C9.39062 13.3409 9.77148 13.2273 10.1406 13.0714C10.7949 12.7944 11.3838 12.3977 11.8887 11.8921C12.21 11.5708 12.4873 11.2162 12.7178 10.8322Z" />
</svg>
