<!--
* SPDX-FileCopyrightText: © 2020 Liferay, Inc. <https://liferay.com>
* SPDX-FileCopyrightText: © 2020 Contributors to the project Clay <https://github.com/liferay/clay/graphs/contributors>
*
* SPDX-License-Identifier: BSD-3-Clause
-->
<svg viewBox="0 0 16 16" xmlns="http://www.w3.org/2000/svg"><path d="M8 10.005a2 2 0 1 0-.001-3.999A2 2 0 0 0 8 10.005Z"/><path fill-rule="evenodd" clip-rule="evenodd" d="M16 7.005a1 1 0 0 0-1-1h-.291A7.02 7.02 0 0 0 10 1.295v-.29a1 1 0 0 0-1-1H7a1 1 0 0 0-1 1v.29a7.02 7.02 0 0 0-4.709 4.71H1a1 1 0 0 0-1 1v2a1 1 0 0 0 1 1h.291A7.02 7.02 0 0 0 6 14.713v.29a1 1 0 0 0 1 1h2a1 1 0 0 0 1-1v-.29a7.02 7.02 0 0 0 4.709-4.71H15a1 1 0 0 0 1-1v-2Zm-2.932 3.14a5.525 5.525 0 0 1-1.177 1.75 5.397 5.397 0 0 1-1.75 1.178L10 13.13v-.124H6v.124l-.14-.056a5.532 5.532 0 0 1-1.75-1.178 5.396 5.396 0 0 1-1.178-1.75l-.057-.14H3v-4h-.125l.057-.141a5.526 5.526 0 0 1 1.177-1.75 5.399 5.399 0 0 1 1.75-1.178L6 2.88v.125h4V2.88l.14.056a5.532 5.532 0 0 1 1.75 1.178 5.397 5.397 0 0 1 1.178 1.75l.057.14H13v4h.125l-.057.141Z"/></svg>
