<!--
* SPDX-FileCopyrightText: © 2020 Liferay, Inc. <https://liferay.com>
* SPDX-FileCopyrightText: © 2020 Contributors to the project Clay <https://github.com/liferay/clay/graphs/contributors>
*
* SPDX-License-Identifier: BSD-3-Clause
-->
<svg  viewBox="0 0 16 16" xmlns="http://www.w3.org/2000/svg">
<path class="lexicon-icon-outline" d="M8 10.0046C9.10352 10.0046 10 9.10776 10 8.00464C10 6.90152 9.10352 6.00464 8 6.00464C6.89648 6.00464 6 6.90152 6 8.00464C6 9.10776 6.89648 10.0046 8 10.0046Z" />
<path class="lexicon-icon-outline" fill-rule="evenodd" clip-rule="evenodd" d="M16 7.00464C16 6.45235 15.5523 6.00464 15 6.00464H14.709C14.0371 3.74838 12.2559 1.96713 10 1.29526V1.00464C10 0.452354 9.55229 0.00463867 9 0.00463867H7C6.44772 0.00463867 6 0.452354 6 1.00464V1.29526C3.74414 1.96713 1.96289 3.74838 1.29102 6.00464H1C0.447715 6.00464 0 6.45235 0 7.00464V9.00464C0 9.55692 0.447715 10.0046 1 10.0046H1.29102C1.96289 12.2609 3.74414 14.0421 6 14.714V15.0046C6 15.5569 6.44772 16.0046 7 16.0046H9C9.55229 16.0046 10 15.5569 10 15.0046V14.714C12.2559 14.0421 14.0371 12.2609 14.709 10.0046H15C15.5523 10.0046 16 9.55692 16 9.00464V7.00464ZM13.0684 10.1453C12.791 10.8015 12.3936 11.389 11.8906 11.8953C11.3877 12.4015 10.7969 12.7984 10.1406 13.0734L10 13.1296V13.0046H6V13.1296L5.85938 13.0734C5.20312 12.7953 4.61523 12.3984 4.10938 11.8953C3.60352 11.3922 3.20605 10.8015 2.93164 10.1453L2.875 10.0046H3V6.00464H2.875L2.93164 5.86401C3.20898 5.20776 3.60645 4.62027 4.10938 4.11401C4.6123 3.60776 5.20312 3.21088 5.85938 2.93588L6 2.87964V3.00464H10V2.87964L10.1406 2.93588C10.7969 3.21402 11.3848 3.6109 11.8906 4.11401C12.3965 4.61713 12.7939 5.20776 13.0684 5.86401L13.125 6.00464H13V10.0046H13.125L13.0684 10.1453Z" />
</svg>
