<!--
* SPDX-FileCopyrightText: © 2020 Liferay, Inc. <https://liferay.com>
* SPDX-FileCopyrightText: © 2020 Contributors to the project Clay <https://github.com/liferay/clay/graphs/contributors>
*
* SPDX-License-Identifier: BSD-3-Clause
-->
<svg  viewBox="0 0 16 16" xmlns="http://www.w3.org/2000/svg">
<path class="lexicon-icon-outline" fill-rule="evenodd" clip-rule="evenodd" d="M14.3193 12.9086C15.373 11.554 16 9.85175 16 8.00305C16 6.15436 15.373 4.45221 14.3193 3.09753L15 2.4173C15.3906 2.02673 15.3906 1.39355 15 1.00305C14.6094 0.612549 13.9766 0.612549 13.5859 1.00305L12.9053 1.68329C11.5508 0.630249 9.84863 0.00305176 8 0.00305176C6.15137 0.00305176 4.44922 0.630249 3.09473 1.68329L2.41406 1.00299C2.02344 0.612549 1.39062 0.612549 1 1.00299C0.609375 1.39349 0.609375 2.02673 1 2.41724L1.68066 3.09747C0.626953 4.45215 0 6.15436 0 8.00305C0 9.85175 0.626953 11.5539 1.68066 12.9086L1 13.5888C0.609375 13.9794 0.609375 14.6125 1 15.0031C1.39062 15.3936 2.02344 15.3936 2.41406 15.0031L3.09473 14.3228C4.44922 15.3759 6.15137 16.0031 8 16.0031C9.84863 16.0031 11.5508 15.3759 12.9053 14.3228L13.5859 15.0031C13.9766 15.3936 14.6094 15.3936 15 15.0031C15.3906 14.6125 15.3906 13.9794 15 13.5889L14.3193 12.9086ZM13.5293 5.66821C13.8418 6.40668 14 7.1922 14 8.00305C14 8.8139 13.8418 9.59949 13.5293 10.338C13.3584 10.743 13.1445 11.1248 12.8916 11.48L11.4463 10.0349C11.7979 9.43939 12 8.74487 12 8.00311C12 7.26135 11.7979 6.56689 11.4463 5.97137L12.8916 4.52618C13.1445 4.88147 13.3584 5.26318 13.5293 5.66821ZM8 2.00305C7.18945 2.00305 6.4043 2.16138 5.66504 2.47375C5.26074 2.64508 4.87891 2.85858 4.52344 3.11188L5.96875 4.55707C6.56445 4.2052 7.25879 4.00305 8 4.00305C8.74219 4.00305 9.43652 4.2052 10.0322 4.55707L11.4775 3.11188C11.1221 2.85858 10.7402 2.64508 10.335 2.47375C9.59668 2.16138 8.81152 2.00305 8 2.00305ZM2.4707 10.3379C2.1582 9.59949 2 8.81396 2 8.00305C2 7.19214 2.1582 6.40662 2.4707 5.66815C2.6416 5.26306 2.85547 4.88135 3.1084 4.52606L4.55371 5.97125C4.20215 6.56677 4 7.26123 4 8.00299C4 8.74475 4.20215 9.43927 4.55371 10.0347L3.1084 11.48C2.85547 11.1247 2.6416 10.743 2.4707 10.3379ZM8 14.0031C8.81152 14.0031 9.59668 13.8447 10.335 13.5323C10.7402 13.361 11.1221 13.1475 11.4775 12.8942L10.0322 11.449C9.43652 11.8008 8.74219 12.003 8 12.003C7.25879 12.003 6.56445 11.8008 5.96875 11.449L4.52344 12.8942C4.87891 13.1475 5.26074 13.361 5.66602 13.5323C6.4043 13.8447 7.18945 14.0031 8 14.0031Z" />
</svg>
