<!--
* SPDX-FileCopyrightText: © 2020 Liferay, Inc. <https://liferay.com>
* SPDX-FileCopyrightText: © 2020 Contributors to the project Clay <https://github.com/liferay/clay/graphs/contributors>
*
* SPDX-License-Identifier: BSD-3-Clause
-->
<svg  viewBox="0 0 16 16" xmlns="http://www.w3.org/2000/svg">
<path class="lexicon-icon-outline" fill-rule="evenodd" clip-rule="evenodd" d="M2 0.00305176H14C15.1025 0.00305176 16 0.900269 16 2.00305V14.0031C16 15.1058 15.1025 16.0031 14 16.0031H2C0.897461 16.0031 0 15.1058 0 14.0031V2.00305C0 0.900269 0.897461 0.00305176 2 0.00305176ZM12.9492 3.05328C13.3574 3.46136 13.709 3.91101 14 4.39252V2.00305H11.6104C12.0918 2.29401 12.542 2.64526 12.9492 3.05328ZM8 13.0031C6.74121 13.0031 5.59082 12.5358 4.71094 11.7659L10 10.0031L11.7627 4.71429C12.5322 5.59406 13 6.74493 13 8.00305C13 10.7601 10.7568 13.0031 8 13.0031ZM11.2891 4.24011C10.4092 3.47028 9.25781 3.00305 8 3.00305C5.24316 3.00305 3 5.24603 3 8.00305C3 9.26117 3.4668 10.412 4.2373 11.2918L6 6.00305L11.2891 4.24011ZM8.96582 8.00299C8.96582 8.5553 8.51855 9.00299 7.96582 9.00299C7.41309 9.00299 6.96582 8.5553 6.96582 8.00299C6.96582 7.45068 7.41309 7.00299 7.96582 7.00299C8.51855 7.00299 8.96582 7.45068 8.96582 8.00299ZM3.0498 3.05328C3.45801 2.64526 3.9082 2.29401 4.38965 2.00305H2V4.39252C2.29102 3.91101 2.64258 3.46136 3.0498 3.05328ZM2 11.6136C2.29102 12.0951 2.64258 12.5448 3.0498 12.9528C3.45801 13.3608 3.9082 13.7121 4.38965 14.0031H2V11.6136ZM11.6104 14.0031H14V11.6136C13.709 12.0951 13.3574 12.5447 12.9492 12.9528C12.542 13.3608 12.0918 13.7121 11.6104 14.0031Z" />
</svg>
