<!--
* SPDX-FileCopyrightText: © 2020 Liferay, Inc. <https://liferay.com>
* SPDX-FileCopyrightText: © 2020 Contributors to the project Clay <https://github.com/liferay/clay/graphs/contributors>
*
* SPDX-License-Identifier: BSD-3-Clause
-->
<svg  viewBox="0 0 16 16" xmlns="http://www.w3.org/2000/svg">
<path class="lexicon-icon-outline" d="M4 12.0031L10 10.0031L12 4.00305L6 6.00305L4 12.0031Z" />
<path class="lexicon-icon-outline" fill-rule="evenodd" clip-rule="evenodd" d="M8 0.00305176C10.1377 0.00305176 12.1465 0.83429 13.6562 2.3468C15.1689 3.8562 16 5.86554 16 8.00305C16 10.1406 15.1689 12.1468 13.6562 13.6593C12.1465 15.1718 10.1377 16.0031 8 16.0031C5.8623 16.0031 3.85645 15.1718 2.34375 13.6593C0.831055 12.1499 0 10.1406 0 8.00305C0 5.86554 0.831055 3.8562 2.34375 2.3468C3.85352 0.83429 5.8623 0.00305176 8 0.00305176ZM2 8.00305C2 11.3124 4.69043 14.0031 8 14.0031C11.3096 14.0031 14 11.3124 14 8.00305C14 4.69366 11.3096 2.00305 8 2.00305C4.69043 2.00305 2 4.69366 2 8.00305Z" />
</svg>
