<!--
* SPDX-FileCopyrightText: © 2022 Liferay, Inc. <https://liferay.com>
* SPDX-FileCopyrightText: © 2022 Contributors to the project Clay <https://github.com/liferay/clay/graphs/contributors>
*
* SPDX-License-Identifier: BSD-3-Clause
-->
<svg viewBox="0 0 16 16" xmlns="http://www.w3.org/2000/svg"><path class="lexicon-icon-outline" fill-rule="evenodd" clip-rule="evenodd" d="M2 .002h12c1.102 0 2 .897 2 2v12c0 1.103-.898 2-2 2H2c-1.103 0-2-.897-2-2v-12c0-1.103.897-2 2-2Zm10.95 3.05A7.08 7.08 0 0 1 14 4.392v-2.39h-2.39a7.04 7.04 0 0 1 1.34 1.05ZM8 13.002a4.979 4.979 0 0 1-3.29-1.237L10 10.002l1.763-5.289A4.98 4.98 0 0 1 13 8.003c0 2.756-2.243 5-5 5Zm3.29-8.763A4.98 4.98 0 0 0 8 3.002c-2.757 0-5 2.243-5 5 0 1.258.467 2.41 1.237 3.289L6 6.002l5.29-1.763ZM8.965 8.002a1 1 0 1 1-2 0 1 1 0 0 1 2 0ZM3.05 3.052a7.06 7.06 0 0 1 1.34-1.05H2v2.39a7.083 7.083 0 0 1 1.05-1.34ZM2 11.612a7.081 7.081 0 0 0 2.39 2.39H2v-2.39Zm9.61 2.39H14v-2.39a7.046 7.046 0 0 1-1.05 1.34 7 7 0 0 1-1.34 1.05Z"/></svg>