<!--
* SPDX-FileCopyrightText: © 2020 Liferay, Inc. <https://liferay.com>
* SPDX-FileCopyrightText: © 2020 Contributors to the project Clay <https://github.com/liferay/clay/graphs/contributors>
*
* SPDX-License-Identifier: BSD-3-Clause
-->
<svg viewBox="0 0 16 16" xmlns="http://www.w3.org/2000/svg"><path d="m4 12.003 6-2 2-6-6 2-2 6Z"/><path fill-rule="evenodd" clip-rule="evenodd" d="M8 .003c2.138 0 4.146.831 5.656 2.344A7.936 7.936 0 0 1 16 8.003a7.941 7.941 0 0 1-2.344 5.656A7.937 7.937 0 0 1 8 16.003a7.942 7.942 0 0 1-5.656-2.344A7.936 7.936 0 0 1 0 8.003c0-2.138.831-4.147 2.344-5.656A7.937 7.937 0 0 1 8 .003Zm-6 8c0 3.31 2.69 6 6 6s6-2.69 6-6-2.69-6-6-6-6 2.69-6 6Z"/></svg>
