<!--
* SPDX-FileCopyrightText: © 2020 Liferay, Inc. <https://liferay.com>
* SPDX-FileCopyrightText: © 2020 Contributors to the project Clay <https://github.com/liferay/clay/graphs/contributors>
*
* SPDX-License-Identifier: BSD-3-Clause
-->
<svg  viewBox="0 0 16 16" xmlns="http://www.w3.org/2000/svg">
<path class="lexicon-icon-outline" fill-rule="evenodd" clip-rule="evenodd" d="M2 15.0046H14C15 15.0046 16 14.0046 16 13.0046C16 10.5068 16 3.00464 16 3.00464C16 2.00464 15 1.00464 14 1.00464H2C1 1.00464 0 2.00464 0 3.00464V13.0046C0 14.0046 1 15.0046 2 15.0046ZM2 3.00464H14V13.0046H2" />
<path class="lexicon-icon-outline" d="M5 11.0046C5.55228 11.0046 6 10.5569 6 10.0046C6 9.45235 5.55228 9.00464 5 9.00464C4.44772 9.00464 4 9.45235 4 10.0046C4 10.5569 4.44772 11.0046 5 11.0046Z" />
<path class="lexicon-icon-outline" d="M8 11.0046C8.55228 11.0046 9 10.5569 9 10.0046C9 9.45235 8.55228 9.00464 8 9.00464C7.44772 9.00464 7 9.45235 7 10.0046C7 10.5569 7.44772 11.0046 8 11.0046Z" />
<path class="lexicon-icon-outline" d="M11 11.0046C11.5523 11.0046 12 10.5569 12 10.0046C12 9.45235 11.5523 9.00464 11 9.00464C10.4477 9.00464 10 9.45235 10 10.0046C10 10.5569 10.4477 11.0046 11 11.0046Z" />
</svg>
