<!--
* SPDX-FileCopyrightText: © 2020 Liferay, Inc. <https://liferay.com>
* SPDX-FileCopyrightText: © 2020 Contributors to the project Clay <https://github.com/liferay/clay/graphs/contributors>
*
* SPDX-License-Identifier: BSD-3-Clause
-->
<svg viewBox="0 0 16 16" xmlns="http://www.w3.org/2000/svg"><path fill-rule="evenodd" clip-rule="evenodd" d="M1.182.003h13.633c.654 0 1.185.516 1.188 1.153V14.85c0 .634-.531 1.153-1.185 1.153H1.182A1.17 1.17 0 0 1 0 14.847V1.156C0 .519.528.003 1.182.003Zm1.19 13.634h2.375V6H2.372v7.637Zm-.19-10.053c0-1.894 2.753-1.894 2.753 0 0 1.888-2.753 1.825-2.753 0Zm9.08 10.053h2.372v-4.19c0-2.056-.444-3.638-2.847-3.638-1.153 0-1.928.635-2.243 1.235h-.031V6H6.237v7.637h2.37V9.862c0-.997.187-1.962 1.421-1.962 1.22 0 1.235 1.14 1.235 2.025v3.712Z"/></svg>
