<!--
* SPDX-FileCopyrightText: © 2022 Liferay, Inc. <https://liferay.com>
* SPDX-FileCopyrightText: © 2022 Contributors to the project Clay <https://github.com/liferay/clay/graphs/contributors>
*
* SPDX-License-Identifier: BSD-3-Clause
-->
<svg viewBox="0 0 16 16" xmlns="http://www.w3.org/2000/svg"><path class="lexicon-icon-outline" d="M15.116.002H.884A.882.882 0 0 0 0 .886v14.235a.88.88 0 0 0 .884.881h7.663V9.805H6.462V7.39h2.085V5.608c0-2.065 1.262-3.19 3.106-3.19.884 0 1.64.065 1.863.093v2.16h-1.278c-1.004 0-1.197.475-1.197 1.175v1.54h2.39l-.312 2.416h-2.082v6.2h4.079a.886.886 0 0 0 .884-.884V.886a.884.884 0 0 0-.884-.884Z"/></svg>