<!--
* SPDX-FileCopyrightText: © 2020 Liferay, Inc. <https://liferay.com>
* SPDX-FileCopyrightText: © 2020 Contributors to the project Clay <https://github.com/liferay/clay/graphs/contributors>
*
* SPDX-License-Identifier: BSD-3-Clause
-->
<svg  viewBox="0 0 16 16" xmlns="http://www.w3.org/2000/svg">
<path class="lexicon-icon-outline" fill-rule="evenodd" clip-rule="evenodd" d="M1.18164 0.00305176H14.8154C15.4688 0.00305176 16 0.518677 16.0029 1.15613V14.85C16.0029 15.4843 15.4717 16.0031 14.8184 16.0031H1.18164C0.52832 16.0031 0 15.4843 0 14.8468V1.15613C0 0.518677 0.52832 0.00305176 1.18164 0.00305176ZM2.37207 13.6373H4.74707V5.99988H2.37207V13.6373ZM2.18164 3.58423C2.18164 1.69055 4.93457 1.69055 4.93457 3.58423C4.93457 5.4718 2.18164 5.4093 2.18164 3.58423ZM11.2627 13.6375H13.6338V9.44678C13.6338 7.39062 13.1904 5.80933 10.7871 5.80933C9.63379 5.80933 8.85938 6.44373 8.54395 7.0437H8.5127V6H6.2373V13.6375H8.60645V9.86243C8.60645 8.8656 8.79395 7.8999 10.0283 7.8999C11.2471 7.8999 11.2627 9.04053 11.2627 9.92493V13.6375Z" />
</svg>
