<!--
* SPDX-FileCopyrightText: © 2020 Liferay, Inc. <https://liferay.com>
* SPDX-FileCopyrightText: © 2020 Contributors to the project Clay <https://github.com/liferay/clay/graphs/contributors>
*
* SPDX-License-Identifier: BSD-3-Clause
-->
<svg  viewBox="0 0 16 16" xmlns="http://www.w3.org/2000/svg">
<path class="lexicon-icon-outline" d="M15.1156 0.00305176H0.884375C0.39375 0.00305176 0 0.396802 0 0.887427V15.1218C0 15.6093 0.39375 16.0031 0.884375 16.0031H8.54688V9.80618H6.4625V7.39055H8.54688V5.6093C8.54688 3.54368 9.80937 2.41868 11.6531 2.41868C12.5375 2.41868 13.2937 2.4843 13.5156 2.51243V4.6718H12.2375C11.2344 4.6718 11.0406 5.1468 11.0406 5.8468V7.38743H13.4312L13.1187 9.80305H11.0375V16.0031H15.1156C15.6031 16.0031 16 15.6062 16 15.1187V0.887427C16 0.396802 15.6031 0.00305176 15.1156 0.00305176Z" />
</svg>
