<!--
* SPDX-FileCopyrightText: © 2020 Liferay, Inc. <https://liferay.com>
* SPDX-FileCopyrightText: © 2020 Contributors to the project Clay <https://github.com/liferay/clay/graphs/contributors>
*
* SPDX-License-Identifier: BSD-3-Clause
-->
<svg  viewBox="0 0 16 16" xmlns="http://www.w3.org/2000/svg">
<path class="lexicon-icon-outline" d="M12 3.00305C11.4469 3.00305 11 3.44993 11 4.00305C11 4.55618 11.4469 5.00305 12 5.00305C12.5531 5.00305 13 4.55618 13 4.00305C13 3.44993 12.5531 3.00305 12 3.00305Z" />
<path class="lexicon-icon-outline" fill-rule="evenodd" clip-rule="evenodd" d="M4 8.00302C4.1375 13.2436 11.8906 13.2718 12 8.00302C11.8031 2.61241 4.19688 2.76241 4 8.00302ZM10 8.00302C10 10.6968 6 10.7561 6 8.00302C6 5.42803 10 5.30928 10 8.00302Z" />
<path class="lexicon-icon-outline" fill-rule="evenodd" clip-rule="evenodd" d="M11 0.00305176H5C2.25 0.00305176 0 2.25305 0 5.00305V11.0031C0 13.7531 2.25 16.0031 5 16.0031H11C13.75 16.0031 16 13.7531 16 11.0031V5.00305C16 2.25305 13.75 0.00305176 11 0.00305176ZM11 2.00305C12.6531 2.00305 14 3.34993 14 5.00305V11.0031C14 12.6562 12.6531 14.0031 11 14.0031H5C3.34687 14.0031 2 12.6562 2 11.0031V5.00305C2 3.34993 3.34687 2.00305 5 2.00305H11Z" />
</svg>
