<!--
* SPDX-FileCopyrightText: © 2020 Liferay, Inc. <https://liferay.com>
* SPDX-FileCopyrightText: © 2020 Contributors to the project Clay <https://github.com/liferay/clay/graphs/contributors>
*
* SPDX-License-Identifier: BSD-3-Clause
-->
<svg viewBox="0 0 16 16" xmlns="http://www.w3.org/2000/svg"><path d="M12 3.003a.999.999 0 1 0 0 2 .999.999 0 1 0 0-2Z"/><path fill-rule="evenodd" clip-rule="evenodd" d="M4 8.003c.138 5.24 7.89 5.269 8 0-.197-5.39-7.803-5.24-8 0Zm6 0c0 2.694-4 2.753-4 0 0-2.575 4-2.694 4 0Z"/><path fill-rule="evenodd" clip-rule="evenodd" d="M11 .003H5c-2.75 0-5 2.25-5 5v6c0 2.75 2.25 5 5 5h6c2.75 0 5-2.25 5-5v-6c0-2.75-2.25-5-5-5Zm0 2c1.653 0 3 1.347 3 3v6c0 1.653-1.347 3-3 3H5c-1.653 0-3-1.347-3-3v-6c0-1.653 1.347-3 3-3h6Z"/></svg>
