<!--
* SPDX-FileCopyrightText: © 2020 Liferay, Inc. <https://liferay.com>
* SPDX-FileCopyrightText: © 2020 Contributors to the project Clay <https://github.com/liferay/clay/graphs/contributors>
*
* SPDX-License-Identifier: BSD-3-Clause
-->
<svg  viewBox="0 0 16 16" xmlns="http://www.w3.org/2000/svg">
<path class="lexicon-icon-outline" fill-rule="evenodd" clip-rule="evenodd" d="M14 2.00305V14.0031H2V2.00305H14ZM14 0.00305176H2C0.896875 0.00305176 0 0.899927 0 2.00305V14.0031C0 15.1062 0.896875 16.0031 2 16.0031H14C15.1031 16.0031 16 15.1062 16 14.0031V2.00305C16 0.899927 15.1031 0.00305176 14 0.00305176ZM5 7.00305H3V9.00305H5V7.00305ZM11 7.00305H13V9.00305H11V7.00305ZM9 3.00305H7V5.00305H9V3.00305ZM7 11.0031H9V13.0031H7V11.0031Z" />
</svg>
