<!--
* SPDX-FileCopyrightText: © 2022 Liferay, Inc. <https://liferay.com>
* SPDX-FileCopyrightText: © 2022 Contributors to the project Clay <https://github.com/liferay/clay/graphs/contributors>
*
* SPDX-License-Identifier: BSD-3-Clause
-->
<svg viewBox="0 0 16 16" xmlns="http://www.w3.org/2000/svg"><path d="M8 7.005H5c-1.103 0-2-.897-2-2v-3c0-1.104.897-2 2-2h3c1.103 0 2 .896 2 2v3c0 1.103-.897 2-2 2Zm-3 9H2c-1.103 0-2-.897-2-2v-3c0-1.104.897-2 2-2h3c1.103 0 2 .896 2 2v3c0 1.103-.897 2-2 2Zm6 0h3c1.103 0 2-.897 2-2v-3c0-1.104-.897-2-2-2h-3c-1.103 0-2 .896-2 2v3c0 1.103.897 2 2 2Z"/></svg>
