<!--
* SPDX-FileCopyrightText: © 2020 Liferay, Inc. <https://liferay.com>
* SPDX-FileCopyrightText: © 2020 Contributors to the project Clay <https://github.com/liferay/clay/graphs/contributors>
*
* SPDX-License-Identifier: BSD-3-Clause
-->
<svg  viewBox="0 0 16 16" xmlns="http://www.w3.org/2000/svg">
<path class="lexicon-icon-outline" d="M13.1992 3.81158H11.9993V2.79913C11.9993 2.07417 10.9993 2.11792 10.9993 2.79913V4.81152H13.1992C13.9523 4.81152 13.9835 3.81158 13.1992 3.81158Z" />
<path class="lexicon-icon-outline" fill-rule="evenodd" clip-rule="evenodd" d="M15.999 4.00532C15.999 -1.38813 7.99948 -1.26938 7.99948 4.00532C7.99948 9.30189 15.999 9.37689 15.999 4.00532ZM9.59939 4.00532C9.59939 0.78675 14.3991 0.783625 14.3991 4.00532C14.3991 7.22701 9.59939 7.22701 9.59939 4.00532Z" />
<path class="lexicon-icon-outline" d="M5.28401 16.0046H2.71541C1.76858 16.0046 0.999878 15.2359 0.999878 14.2891V11.7174C0.999878 10.7706 1.76858 10.0019 2.71541 10.0019H5.28714C6.23396 10.0019 7.00266 10.7706 7.00266 11.7174V14.2891C6.99954 15.2359 6.23083 16.0046 5.28401 16.0046Z" />
<path class="lexicon-icon-outline" d="M13.2836 16.0046H10.7118C9.76501 16.0046 8.9963 15.2359 8.9963 14.2891V11.7174C8.9963 10.7706 9.76501 10.0019 10.7118 10.0019H13.2836C14.2304 10.0019 14.9991 10.7706 14.9991 11.7174V14.2891C14.9991 15.2359 14.2304 16.0046 13.2836 16.0046Z" />
<path class="lexicon-icon-outline" d="M4.71529 2.00543H6.34958C5.0809 5.47711 7.51513 8.00509 7.51513 8.00509H4.71529C3.76847 8.00509 2.99976 7.23638 2.99976 6.28956V3.71783C2.99976 2.77414 3.76847 2.00543 4.71529 2.00543Z" /><rect class="lexicon-icon-outline"   transform="translate(0 0.00305176)"/>
</svg>
