<!--
* SPDX-FileCopyrightText: © 2022 Liferay, Inc. <https://liferay.com>
* SPDX-FileCopyrightText: © 2022 Contributors to the project Clay <https://github.com/liferay/clay/graphs/contributors>
*
* SPDX-License-Identifier: BSD-3-Clause
-->
<svg viewBox="0 0 16 16" xmlns="http://www.w3.org/2000/svg"><path d="M13.2 3.811H12V2.8c0-.725-1-.681-1 0v2.012h2.2c.752 0 .784-1 0-1Z"/><path fill-rule="evenodd" clip-rule="evenodd" d="M15.999 4.005c0-5.393-8-5.275-8 0 0 5.297 8 5.372 8 0Zm-6.4 0c0-3.218 4.8-3.221 4.8 0 0 3.222-4.8 3.222-4.8 0Z"/><path d="M5.284 16.005H2.715A1.716 1.716 0 0 1 1 14.289v-2.572c0-.947.769-1.715 1.715-1.715h2.572c.947 0 1.716.768 1.716 1.715v2.572a1.721 1.721 0 0 1-1.719 1.716Zm8 0h-2.572a1.716 1.716 0 0 1-1.716-1.716v-2.572c0-.947.769-1.715 1.716-1.715h2.572c.946 0 1.715.768 1.715 1.715v2.572c0 .947-.769 1.716-1.715 1.716Zm-8.569-14H6.35c-1.27 3.472 1.165 6 1.165 6h-2.8A1.716 1.716 0 0 1 3 6.289V3.718c0-.944.768-1.713 1.715-1.713Z"/></svg>
