<!--
* SPDX-FileCopyrightText: © 2020 Liferay, Inc. <https://liferay.com>
* SPDX-FileCopyrightText: © 2020 Contributors to the project Clay <https://github.com/liferay/clay/graphs/contributors>
*
* SPDX-License-Identifier: BSD-3-Clause
-->
<svg  viewBox="0 0 16 16" xmlns="http://www.w3.org/2000/svg">
<path class="lexicon-icon-outline" d="M8 7.00464H5C3.89687 7.00464 3 6.10776 3 5.00464V2.00464C3 0.901514 3.89687 0.00463867 5 0.00463867H8C9.10312 0.00463867 10 0.901514 10 2.00464V5.00464C10 6.10776 9.10312 7.00464 8 7.00464Z" />
<path class="lexicon-icon-outline" d="M5 16.0046H2C0.896875 16.0046 0 15.1078 0 14.0046V11.0046C0 9.90151 0.896875 9.00464 2 9.00464H5C6.10313 9.00464 7 9.90151 7 11.0046V14.0046C7 15.1078 6.10313 16.0046 5 16.0046Z" />
<path class="lexicon-icon-outline" d="M11 16.0046H14C15.1031 16.0046 16 15.1078 16 14.0046V11.0046C16 9.90151 15.1031 9.00464 14 9.00464H11C9.89688 9.00464 9 9.90151 9 11.0046V14.0046C9 15.1078 9.89688 16.0046 11 16.0046Z" /><rect class="lexicon-icon-outline"   transform="translate(0 0.00305176)"/>
</svg>
