<!--
* SPDX-FileCopyrightText: © 2022 Liferay, Inc. <https://liferay.com>
* SPDX-FileCopyrightText: © 2022 Contributors to the project Clay <https://github.com/liferay/clay/graphs/contributors>
*
* SPDX-License-Identifier: BSD-3-Clause
-->
<svg viewBox="0 0 16 16" xmlns="http://www.w3.org/2000/svg"><path class="lexicon-icon-outline" d="M13.2 3.809H12V2.797c0-.725-1-.682-1 0v2.012h2.2c.752 0 .784-1 0-1Z"/><path class="lexicon-icon-outline" fill-rule="evenodd" clip-rule="evenodd" d="M16 4.003c0-5.394-8-5.275-8 0 0 5.296 8 5.371 8 0Zm-6.4 0c0-3.219 4.8-3.222 4.8 0 0 3.221-4.8 3.221-4.8 0Z"/><path class="lexicon-icon-outline" d="M5.284 16.002H2.716A1.716 1.716 0 0 1 1 14.287v-2.572c0-.947.769-1.716 1.716-1.716h2.571c.947 0 1.716.769 1.716 1.716v2.572a1.721 1.721 0 0 1-1.719 1.715Zm8 0h-2.572a1.716 1.716 0 0 1-1.716-1.715v-2.572c0-.947.77-1.716 1.716-1.716h2.572c.946 0 1.715.769 1.715 1.716v2.572c0 .946-.769 1.715-1.715 1.715ZM4.715 2.003H6.35c-1.269 3.472 1.165 6 1.165 6h-2.8A1.716 1.716 0 0 1 3 6.287V3.715c0-.943.769-1.712 1.715-1.712Z"/></svg>