<!--
* SPDX-FileCopyrightText: © 2022 Liferay, Inc. <https://liferay.com>
* SPDX-FileCopyrightText: © 2022 Contributors to the project Clay <https://github.com/liferay/clay/graphs/contributors>
*
* SPDX-License-Identifier: BSD-3-Clause
-->
<svg xmlns="http://www.w3.org/2000/svg" viewBox="0 0 512 512">
	<path class="lexicon-icon-outline lx-squares-clock-square-2" d="M153.1,512H70.9C40.6,512,16,487.4,16,457.1v-82.3c0-30.3,24.6-54.9,54.9-54.9h82.3c30.3,0,54.9,24.6,54.9,54.9v82.3C208,487.4,183.4,512,153.1,512z"/>
	<path class="lexicon-icon-outline lx-squares-clock-square-3" d="M409.1,512h-82.3c-30.3,0-54.9-24.6-54.9-54.9v-82.3c0-30.3,24.6-54.9,54.9-54.9h82.3c30.3,0,54.9,24.6,54.9,54.9v82.3C464,487.4,439.4,512,409.1,512z"/>
	<path class="lexicon-icon-outline lx-squares-clock-hands" d="M368,121.8h38.4c25.1,0,24.1,32,0,32H336V89.4c0-21.8,32-23.2,32,0V121.8z"/>
	<path class="lexicon-icon-outline lx-squares-clock-border" d="M496,128c0-172.6-256-168.8-256,0C240,297.5,496,299.9,496,128z M291.2,128c0-103,153.6-103.1,153.6,0C444.8,231.1,291.2,231.1,291.2,128z" clip-rule="evenodd" fill-rule="evenodd"/>
	<path class="lexicon-icon-outline lx-squares-clock-square-1" d="M187.2,64h-52.3C104.6,64,80,88.6,80,118.8v82.3c0,30.3,24.6,54.9,54.9,54.9h89.6C224.5,256,146.6,175.1,187.2,64z"/>
</svg>