<!--
* SPDX-FileCopyrightText: © 2022 Liferay, Inc. <https://liferay.com>
* SPDX-FileCopyrightText: © 2022 Contributors to the project Clay <https://github.com/liferay/clay/graphs/contributors>
*
* SPDX-License-Identifier: BSD-3-Clause
-->
<svg xmlns="http://www.w3.org/2000/svg" viewBox="0 0 512 512">
	<path class="lexicon-icon-outline lx-squares-1" d="M256,224h-96c-35.3,0-64-28.7-64-64V64c0-35.3,28.7-64,64-64h96c35.3,0,64,28.7,64,64v96C320,195.3,291.3,224,256,224z"/>
	<path class="lexicon-icon-outline lx-squares-2" d="M160,512H64c-35.3,0-64-28.7-64-64v-96c0-35.3,28.7-64,64-64h96c35.3,0,64,28.7,64,64v96C224,483.3,195.3,512,160,512z"/>
	<path class="lexicon-icon-outline lx-squares-3" d="M448,512h-96c-35.3,0-64-28.7-64-64v-96c0-35.3,28.7-64,64-64h96c35.3,0,64,28.7,64,64v96C512,483.3,483.3,512,448,512z"/>
</svg>