<!--
* SPDX-FileCopyrightText: © 2022 Liferay, Inc. <https://liferay.com>
* SPDX-FileCopyrightText: © 2022 Contributors to the project Clay <https://github.com/liferay/clay/graphs/contributors>
*
* SPDX-License-Identifier: BSD-3-Clause
-->
<svg viewBox="0 0 16 16" xmlns="http://www.w3.org/2000/svg"><path class="lexicon-icon-outline" d="M4.625.002h9.75A1.63 1.63 0 0 1 16 1.627v9.75a1.63 1.63 0 0 1-1.625 1.625H14v-10a1 1 0 0 0-1-1H3v-.375A1.63 1.63 0 0 1 4.625.002Z"/><path class="lexicon-icon-outline" d="M11.375 3.002h-9.75A1.63 1.63 0 0 0 0 4.627v9.75a1.63 1.63 0 0 0 1.625 1.625h9.75A1.63 1.63 0 0 0 13 14.377v-9.75a1.63 1.63 0 0 0-1.625-1.625ZM8.937 11.94H4.064V7.065h4.875v4.875Z"/></svg>