<!--
* SPDX-FileCopyrightText: © 2020 Liferay, Inc. <https://liferay.com>
* SPDX-FileCopyrightText: © 2020 Contributors to the project Clay <https://github.com/liferay/clay/graphs/contributors>
*
* SPDX-License-Identifier: BSD-3-Clause
-->
<svg  viewBox="0 0 16 16" xmlns="http://www.w3.org/2000/svg">
<path class="lexicon-icon-outline" d="M4.625 0.00305176H14.375C15.2688 0.00305176 16 0.734302 16 1.62805V11.3781C16 12.2718 15.2688 13.0031 14.375 13.0031H14V3.00305C14 2.45077 13.5523 2.00305 13 2.00305H3V1.62805C3 0.734302 3.73125 0.00305176 4.625 0.00305176Z" />
<path class="lexicon-icon-outline" d="M11.375 3.00305H1.625C0.73125 3.00305 0 3.7343 0 4.62805V14.3781C0 15.2718 0.73125 16.0031 1.625 16.0031H11.375C12.2688 16.0031 13 15.2718 13 14.3781V4.62805C13 3.7343 12.2688 3.00305 11.375 3.00305ZM8.9375 11.9406H4.0625V7.06555H8.9375V11.9406Z" /><rect class="lexicon-icon-outline"   transform="translate(0 0.00305176)"/>
</svg>
