<!--
* SPDX-FileCopyrightText: © 2022 Liferay, Inc. <https://liferay.com>
* SPDX-FileCopyrightText: © 2022 Contributors to the project Clay <https://github.com/liferay/clay/graphs/contributors>
*
* SPDX-License-Identifier: BSD-3-Clause
-->
<svg viewBox="0 0 16 16" xmlns="http://www.w3.org/2000/svg"><path class="lexicon-icon-outline" d="m6.899.002.555 4.038a3.961 3.961 0 0 0-1.437.49L3.98 1.015A7.906 7.906 0 0 1 6.9.002Zm3.198 4.594 2.15-3.444A7.909 7.909 0 0 0 9.363.042l-.688 4.016a3.95 3.95 0 0 1 1.421.538Zm1.904 3.365v.04c0 .526-.1 1.026-.285 1.485l3.69 1.516A8.018 8.018 0 0 0 16 7.962v-.023l-3.999.022Zm3.608-2.478L11.79 6.727a3.945 3.945 0 0 0-.76-1.335l3.078-2.615a8.025 8.025 0 0 1 1.5 2.706Zm-10.551-.19-2.993-2.72A8.01 8.01 0 0 0 .478 5.228L4.255 6.6c.181-.485.457-.928.803-1.306Zm2.943 6.709c-.29 0-.574-.032-.85-.09l-.834 3.912c.553.118 1.11.184 1.69.178.464 0 .932-.04 1.388-.122l-.69-3.94c-.229.04-.463.062-.704.062Zm3.733 3.072-1.859-3.538a3.996 3.996 0 0 0 1.2-.978l3.053 2.572a8.002 8.002 0 0 1-2.394 1.944ZM4.002 8.002l.003-.188-4-.143a8.06 8.06 0 0 0 .478 3.056L4.23 9.349a4.092 4.092 0 0 1-.228-1.347Zm-2.315 4.897 3.144-2.46c.318.413.715.763 1.168 1.025l-1.99 3.466a8.026 8.026 0 0 1-2.322-2.031Z"/></svg>