<!--
* SPDX-FileCopyrightText: © 2020 Liferay, Inc. <https://liferay.com>
* SPDX-FileCopyrightText: © 2020 Contributors to the project Clay <https://github.com/liferay/clay/graphs/contributors>
*
* SPDX-License-Identifier: BSD-3-Clause
-->
<svg viewBox="0 0 16 16" xmlns="http://www.w3.org/2000/svg"><path d="m6.899.005.555 4.037a3.961 3.961 0 0 0-1.437.49L3.98 1.018A7.906 7.906 0 0 1 6.9.005Zm3.198 4.593 2.15-3.444A7.909 7.909 0 0 0 9.363.045l-.688 4.016a3.95 3.95 0 0 1 1.421.537Zm1.904 3.366v.04c0 .525-.1 1.025-.285 1.485l3.69 1.515A8.018 8.018 0 0 0 16 7.964v-.022l-3.999.022Zm3.608-2.478L11.79 6.729a3.945 3.945 0 0 0-.76-1.334l3.078-2.616a8.025 8.025 0 0 1 1.5 2.707ZM5.058 5.295 2.065 2.576A8.01 8.01 0 0 0 .478 5.23l3.777 1.372c.181-.484.457-.928.803-1.306Zm2.943 6.709a4.02 4.02 0 0 1-.85-.09l-.834 3.912a7.59 7.59 0 0 0 1.69.178c.464 0 .932-.04 1.388-.122l-.69-3.94c-.229.04-.463.062-.704.062Zm3.733 3.072L9.875 11.54a3.997 3.997 0 0 0 1.2-.979l3.053 2.572a8.004 8.004 0 0 1-2.394 1.944ZM4.002 8.004l.003-.187-4-.144a8.06 8.06 0 0 0 .478 3.056L4.23 9.351a4.092 4.092 0 0 1-.228-1.347Zm-2.315 4.897 3.144-2.46a4.04 4.04 0 0 0 1.168 1.026l-1.99 3.465a8.025 8.025 0 0 1-2.322-2.03Z"/></svg>
