<!--
* SPDX-FileCopyrightText: © 2020 Liferay, Inc. <https://liferay.com>
* SPDX-FileCopyrightText: © 2020 Contributors to the project Clay <https://github.com/liferay/clay/graphs/contributors>
*
* SPDX-License-Identifier: BSD-3-Clause
-->
<svg  viewBox="0 0 16 16" xmlns="http://www.w3.org/2000/svg">
<path class="lexicon-icon-outline" d="M6.89851 0.00463867L7.45415 4.04208C6.93568 4.11388 6.45146 4.28266 6.01712 4.53265L3.98044 1.01709C4.88335 0.488971 5.86451 0.148348 6.89851 0.00463867Z" />
<path class="lexicon-icon-outline" d="M10.0973 4.59821L12.2465 1.15456C11.3593 0.595255 10.3908 0.223322 9.36366 0.0452443L8.67596 4.0608C9.18855 4.14825 9.66985 4.33268 10.0973 4.59821Z" />
<path class="lexicon-icon-outline" d="M12.001 7.96383V8.00444C12.001 8.52937 11.9002 9.02936 11.7163 9.48874L15.4062 11.0044C15.7995 10.0388 16 9.01688 16 7.96383V7.94194L12.001 7.96383Z" />
<path class="lexicon-icon-outline" d="M15.6087 5.48566L11.7907 6.72939C11.6253 6.23259 11.3661 5.78262 11.0315 5.39503L14.1091 2.77952C14.7841 3.58258 15.2869 4.49193 15.6087 5.48566Z" />
<path class="lexicon-icon-outline" d="M5.05845 5.29523L2.06505 2.57649C1.36562 3.3546 0.831499 4.24829 0.478357 5.22955L4.25532 6.60146C4.43629 6.11701 4.71215 5.67328 5.05845 5.29523Z" />
<path class="lexicon-icon-outline" d="M8.00098 12.0043C7.71044 12.0043 7.42675 11.973 7.15187 11.9137L6.31744 15.8262C6.87014 15.9449 7.42675 16.0105 8.00783 16.0042C8.47053 16.0042 8.93911 15.9636 9.39496 15.8824L8.70433 11.9418C8.4764 11.9824 8.24162 12.0043 8.00098 12.0043Z" />
<path class="lexicon-icon-outline" d="M11.7339 15.0762L9.87528 11.5387C10.338 11.2919 10.7469 10.9575 11.0746 10.5606L14.1277 13.1325C13.4585 13.9325 12.6525 14.5887 11.7339 15.0762Z" />
<path class="lexicon-icon-outline" d="M4.00196 8.00444L4.00489 7.81694L0.00586941 7.67323C0.0029347 7.7701 0 7.86696 0 7.96701C0 8.91378 0.162387 9.84502 0.484226 10.7294L4.22989 9.35127C4.08315 8.92944 4.00196 8.47629 4.00196 8.00444Z" />
<path class="lexicon-icon-outline" d="M1.68745 12.9012L4.83052 10.4419C5.14943 10.8544 5.54561 11.2043 5.99853 11.4668L4.0088 14.9323C3.10883 14.4106 2.3282 13.7262 1.68745 12.9012Z" />
</svg>
