<!--
* SPDX-FileCopyrightText: © 2022 Liferay, Inc. <https://liferay.com>
* SPDX-FileCopyrightText: © 2022 Contributors to the project Clay <https://github.com/liferay/clay/graphs/contributors>
*
* SPDX-License-Identifier: BSD-3-Clause
-->
<svg viewBox="0 0 16 16" xmlns="http://www.w3.org/2000/svg"><path class="lexicon-icon-outline" fill-rule="evenodd" clip-rule="evenodd" d="M12.729 15.898c.116.07.246.104.374.104h.01a.728.728 0 0 0 .646-1.064l-1.836-5.16 3.803-3.026a.727.727 0 0 0-.453-1.297h-4.73L8.68.475A.73.73 0 0 0 8 .001a.728.728 0 0 0-.68.472L5.455 5.455H.728a.728.728 0 0 0-.457 1.297l3.81 3.029-1.747 5.129a.73.73 0 0 0 1.058.862l4.604-2.714 4.733 2.84Zm-4.355-4.31a.733.733 0 0 0-.375-.104c-.13 0 0-8.68 0-8.68l1.36 3.633a.726.726 0 0 0 .68.473h3.15l-2.582 2.052a.727.727 0 0 0-.234.813l1.364 3.831-3.363-2.018Z"/></svg>