<!--
* SPDX-FileCopyrightText: © 2023 Liferay, Inc. <https://liferay.com>
* SPDX-FileCopyrightText: © 2023 Contributors to the project Clay <https://github.com/liferay/clay/graphs/contributors>
*
* SPDX-License-Identifier: BSD-3-Clause
-->
<svg viewBox="0 0 16 16" xmlns="http://www.w3.org/2000/svg"><path d="M11 3.003a.61.61 0 0 0-.598.49L9.88 6.1a1 1 0 0 1-.785.785l-2.606.52a.61.61 0 0 0 0 1.197l2.606.521a1 1 0 0 1 .785.785l.52 2.606a.61.61 0 0 0 1.197 0l.521-2.606a1 1 0 0 1 .785-.785l2.606-.521a.61.61 0 0 0 0-1.196l-2.606-.521a1 1 0 0 1-.785-.785l-.52-2.606a.61.61 0 0 0-.599-.49Zm-8-3a.59.59 0 0 0-.582.493l-.158.945a1 1 0 0 1-.822.822l-.945.158a.59.59 0 0 0 0 1.164l.945.158a1 1 0 0 1 .822.822l.158.945a.59.59 0 0 0 1.164 0l.158-.945a1 1 0 0 1 .822-.822l.945-.158a.59.59 0 0 0 0-1.164l-.945-.158a1 1 0 0 1-.822-.822L3.582.496A.59.59 0 0 0 3 .003Zm1.379 12.485c-.121.485-.42.775-.894.894-.63.157-.63 1.085 0 1.242.474.119.773.41.894.894.157.63 1.085.63 1.242 0 .119-.474.41-.773.894-.894.63-.158.63-1.085 0-1.242-.474-.119-.773-.41-.894-.894-.157-.63-1.085-.63-1.242 0Z"/></svg>
