<!--
* SPDX-FileCopyrightText: © 2020 Liferay, Inc. <https://liferay.com>
* SPDX-FileCopyrightText: © 2020 Contributors to the project Clay <https://github.com/liferay/clay/graphs/contributors>
*
* SPDX-License-Identifier: BSD-3-Clause
-->
<svg  viewBox="0 0 16 16" xmlns="http://www.w3.org/2000/svg">
<path class="lexicon-icon-outline" fill-rule="evenodd" clip-rule="evenodd" d="M12.7117 15.8712C12.8279 15.9403 12.9568 15.9748 13.0847 15.9748H13.0945C13.4958 15.9748 13.8191 15.6485 13.8191 15.2501C13.8191 15.1277 13.7908 15.0148 13.738 14.9144L11.9089 9.77243L15.698 6.75752C15.9402 6.56615 16.031 6.24301 15.9304 5.95125C15.8298 5.65948 15.5544 5.46498 15.2468 5.46498H10.5349L8.67749 0.501831C8.57007 0.219482 8.30054 0.03125 7.99975 0.03125C7.698 0.03125 7.42847 0.219482 7.32202 0.501831L5.4646 5.46498H0.755614C0.447996 5.46498 0.175536 5.65948 0.0720199 5.95125C-0.0314957 6.24301 0.0622543 6.56615 0.300536 6.75752L4.09643 9.77556L2.35522 14.8862C2.25854 15.1748 2.34936 15.4916 2.58472 15.683C2.82007 15.8744 3.14917 15.8995 3.40991 15.7458L7.99682 13.0414L12.7117 15.8712ZM8.37378 11.5764C8.25757 11.5073 8.12866 11.4728 7.99975 11.4728C7.87182 11.4728 7.74585 11.5073 7.63257 11.5732L4.36108 13.5026L5.63745 9.75989C5.73511 9.47125 5.64038 9.15126 5.4021 8.95988L2.82983 6.9144H5.96753C6.26831 6.9144 6.53784 6.72615 6.64429 6.4438L7.99975 2.82341L9.35522 6.4438C9.45874 6.72615 9.73218 6.9144 10.033 6.9144H13.1707L10.5974 8.95988C10.3562 9.15126 10.2624 9.47752 10.366 9.76929L11.7244 13.5873L8.37378 11.5764Z" />
</svg>
