<!--
* SPDX-FileCopyrightText: © 2020 Liferay, Inc. <https://liferay.com>
* SPDX-FileCopyrightText: © 2020 Contributors to the project Clay <https://github.com/liferay/clay/graphs/contributors>
*
* SPDX-License-Identifier: BSD-3-Clause
-->
<svg viewBox="0 0 16 16" xmlns="http://www.w3.org/2000/svg"><path fill-rule="evenodd" clip-rule="evenodd" d="M12.712 15.871a.73.73 0 0 0 .373.104h.01a.725.725 0 0 0 .643-1.06l-1.83-5.143 3.79-3.015a.724.724 0 0 0-.451-1.292h-4.712L8.677.502A.727.727 0 0 0 8 .032a.725.725 0 0 0-.678.47L5.465 5.465H.755a.726.726 0 0 0-.454 1.292l3.795 3.018-1.74 5.111a.727.727 0 0 0 1.054.86l4.587-2.705 4.715 2.83Zm-4.338-4.295a.731.731 0 0 0-.741-.003l-3.272 1.93L5.637 9.76a.728.728 0 0 0-.235-.8L2.83 6.914h3.138c.3 0 .57-.188.676-.47L8 2.824l1.355 3.62c.104.282.377.47.678.47h3.138L10.597 8.96a.725.725 0 0 0-.231.81l1.358 3.817-3.35-2.01Z"/></svg>
