<!--
* SPDX-FileCopyrightText: © 2020 Liferay, Inc. <https://liferay.com>
* SPDX-FileCopyrightText: © 2020 Contributors to the project Clay <https://github.com/liferay/clay/graphs/contributors>
*
* SPDX-License-Identifier: BSD-3-Clause
-->
<svg  viewBox="0 0 16 16" xmlns="http://www.w3.org/2000/svg">
<path class="lexicon-icon-outline" fill-rule="evenodd" clip-rule="evenodd" d="M12.7117 15.8713C12.8279 15.9403 12.9568 15.9748 13.0847 15.9748H13.0945C13.4958 15.9748 13.8191 15.6485 13.8191 15.2501C13.8191 15.1277 13.7908 15.0148 13.738 14.9144L11.9089 9.77242L15.698 6.75752C15.9402 6.56615 16.031 6.24301 15.9304 5.95125C15.8298 5.65948 15.5544 5.46497 15.2468 5.46497H10.5349L8.67749 0.501839C8.57007 0.219482 8.30054 0.03125 7.99975 0.03125C7.698 0.03125 7.42847 0.219482 7.32202 0.501839L5.4646 5.46497H0.755614C0.447996 5.46497 0.175536 5.65948 0.0720199 5.95125C-0.0314957 6.24301 0.0622543 6.56615 0.300536 6.75752L4.09643 9.77557L2.35522 14.8861C2.25854 15.1748 2.34936 15.4916 2.58472 15.683C2.82007 15.8744 3.14917 15.8995 3.40991 15.7458L7.99682 13.0415L12.7117 15.8713ZM8.3728 11.5763C8.25659 11.5073 8.12768 11.4728 7.99975 11.4728C7.87085 11.4728 7.99975 2.82341 7.99975 2.82341L9.35425 6.4438C9.45776 6.72616 9.7312 6.91439 10.032 6.91439H13.1697L10.5974 8.95988C10.3552 9.15125 10.2615 9.47753 10.365 9.76929L11.7234 13.5873L8.3728 11.5763Z" />
</svg>
