<!--
* SPDX-FileCopyrightText: © 2020 Liferay, Inc. <https://liferay.com>
* SPDX-FileCopyrightText: © 2020 Contributors to the project Clay <https://github.com/liferay/clay/graphs/contributors>
*
* SPDX-License-Identifier: BSD-3-Clause
-->
<svg viewBox="0 0 16 16" xmlns="http://www.w3.org/2000/svg"><path fill-rule="evenodd" clip-rule="evenodd" d="M12.712 15.871a.73.73 0 0 0 .373.104h.01a.725.725 0 0 0 .643-1.06l-1.83-5.143 3.79-3.015a.724.724 0 0 0-.451-1.292h-4.712L8.677.502A.727.727 0 0 0 8 .032a.725.725 0 0 0-.678.47L5.465 5.465H.755a.726.726 0 0 0-.454 1.292l3.795 3.018-1.74 5.111a.727.727 0 0 0 1.054.86l4.587-2.705 4.715 2.83Zm-4.34-4.295A.73.73 0 0 0 8 11.473c-.13 0 0-8.65 0-8.65l1.354 3.62a.723.723 0 0 0 .678.471h3.138L10.597 8.96a.724.724 0 0 0-.232.81l1.358 3.817-3.35-2.01Z"/></svg>
