<!--
* SPDX-FileCopyrightText: © 2022 Liferay, Inc. <https://liferay.com>
* SPDX-FileCopyrightText: © 2022 Contributors to the project Clay <https://github.com/liferay/clay/graphs/contributors>
*
* SPDX-License-Identifier: BSD-3-Clause
-->
<svg viewBox="0 0 16 16" xmlns="http://www.w3.org/2000/svg"><path class="lexicon-icon-outline" d="M15.958 5.944a.728.728 0 0 0-.686-.488h-4.727L8.681.474a.727.727 0 0 0-1.362 0L5.455 5.456H.727a.727.727 0 0 0-.453 1.296l3.81 3.03-1.75 5.13a.728.728 0 0 0 1.059.86l4.602-2.714 4.734 2.839c.115.07.245.104.373.104h.005c.4-.014.73-.325.73-.728a.719.719 0 0 0-.082-.336L11.92 9.778l3.804-3.026a.726.726 0 0 0 .233-.808Z"/></svg>