<!--
* SPDX-FileCopyrightText: © 2020 Liferay, Inc. <https://liferay.com>
* SPDX-FileCopyrightText: © 2020 Contributors to the project Clay <https://github.com/liferay/clay/graphs/contributors>
*
* SPDX-License-Identifier: BSD-3-Clause
-->
<svg viewBox="0 0 16 16" xmlns="http://www.w3.org/2000/svg"><path d="M15.958 5.946a.728.728 0 0 0-.686-.488h-4.727L8.681.477a.727.727 0 0 0-1.362 0L5.455 5.458H.727a.727.727 0 0 0-.453 1.297l3.81 3.03-1.75 5.129a.728.728 0 0 0 1.059.86l4.602-2.714 4.734 2.84c.115.07.245.103.373.103h.005c.4-.013.73-.325.73-.727a.719.719 0 0 0-.082-.337L11.92 9.781l3.804-3.026a.726.726 0 0 0 .233-.809Z"/></svg>
