<!--
* SPDX-FileCopyrightText: © 2020 Liferay, Inc. <https://liferay.com>
* SPDX-FileCopyrightText: © 2020 Contributors to the project Clay <https://github.com/liferay/clay/graphs/contributors>
*
* SPDX-License-Identifier: BSD-3-Clause
-->
<svg  viewBox="0 0 16 16" xmlns="http://www.w3.org/2000/svg">
<path class="lexicon-icon-outline" d="M15.9581 5.94625C15.8559 5.65452 15.5808 5.45842 15.2716 5.45842H10.5451L8.68097 0.476823C8.5746 0.192584 8.3028 0.00476074 7.99945 0.00476074C7.6961 0.00476074 7.42436 0.192584 7.31878 0.476823L5.45462 5.45842H0.727355C0.418178 5.45842 0.143103 5.6537 0.0408623 5.94625C-0.061378 6.23799 0.0325496 6.56209 0.274406 6.75492L4.08334 9.7851L2.3347 14.9138C2.23665 15.2013 2.32803 15.5205 2.56409 15.7125C2.7993 15.9045 3.13008 15.9294 3.39272 15.7748L7.99536 13.0604L12.7285 15.8995C12.844 15.9693 12.9736 16.0033 13.1025 16.0033C13.1033 16.0033 13.1049 16.0033 13.1066 16.0033C13.5072 15.99 13.8371 15.6784 13.8371 15.2761C13.8371 15.1548 13.808 15.0401 13.7549 14.9395L11.9206 9.78091L15.7246 6.75486C15.9664 6.56288 16.0603 6.23792 15.9581 5.94619V5.94625Z" />
</svg>
