<!--
* SPDX-FileCopyrightText: © 2022 Liferay, Inc. <https://liferay.com>
* SPDX-FileCopyrightText: © 2022 Contributors to the project Clay <https://github.com/liferay/clay/graphs/contributors>
*
* SPDX-License-Identifier: BSD-3-Clause
-->
<svg viewBox="0 0 16 16" xmlns="http://www.w3.org/2000/svg"><path class="lexicon-icon-outline" d="M11 3.004a.61.61 0 0 0-.598.491L9.88 6.103a1.001 1.001 0 0 1-.785.785L6.49 7.41a.61.61 0 0 0 0 1.197l2.606.521a1 1 0 0 1 .785.785l.52 2.608a.61.61 0 0 0 1.197 0l.521-2.608a1 1 0 0 1 .785-.785l2.606-.521a.61.61 0 0 0 0-1.197l-2.606-.522a1 1 0 0 1-.785-.785l-.52-2.608a.61.61 0 0 0-.599-.49ZM3 .002a.59.59 0 0 0-.582.494l-.158.945a1.001 1.001 0 0 1-.822.823l-.945.158a.59.59 0 0 0 0 1.165l.945.158a1 1 0 0 1 .822.822l.158.946a.59.59 0 0 0 1.164 0l.158-.946a1.001 1.001 0 0 1 .822-.822l.945-.158a.59.59 0 0 0 0-1.165l-.945-.158a1 1 0 0 1-.822-.823L3.582.496A.59.59 0 0 0 3 .002Zm1.379 12.494c-.121.486-.42.776-.894.895-.63.158-.63 1.085 0 1.243.474.119.773.41.894.895.157.63 1.085.63 1.242 0 .119-.475.41-.773.894-.895.63-.158.63-1.085 0-1.243-.474-.119-.773-.41-.894-.895-.157-.63-1.085-.63-1.242 0Z"/></svg>