<!--
* SPDX-FileCopyrightText: © 2020 Liferay, Inc. <https://liferay.com>
* SPDX-FileCopyrightText: © 2020 Contributors to the project Clay <https://github.com/liferay/clay/graphs/contributors>
*
* SPDX-License-Identifier: BSD-3-Clause
-->
<svg  viewBox="0 0 16 16" xmlns="http://www.w3.org/2000/svg">
<path class="lexicon-icon-outline" d="M11 3.00305C10.859 3.00306 10.7224 3.05191 10.6133 3.14129C10.5043 3.23068 10.4296 3.35508 10.4019 3.49333L9.88075 6.09933C9.84203 6.29293 9.74688 6.47073 9.60728 6.61033C9.46767 6.74993 9.28987 6.84508 9.09628 6.8838L6.49028 7.40499C6.35205 7.43267 6.22768 7.50738 6.13831 7.61642C6.04895 7.72545 6.00011 7.86208 6.00011 8.00305C6.00011 8.14403 6.04895 8.28065 6.13831 8.38969C6.22768 8.49872 6.35205 8.57343 6.49028 8.60111L9.09628 9.1223C9.28987 9.16102 9.46767 9.25618 9.60728 9.39578C9.74688 9.53538 9.84203 9.71318 9.88075 9.90677L10.4019 12.5128C10.4296 12.651 10.5043 12.7754 10.6134 12.8647C10.7224 12.9541 10.859 13.0029 11 13.0029C11.141 13.0029 11.2776 12.9541 11.3866 12.8647C11.4957 12.7754 11.5704 12.651 11.5981 12.5128L12.1193 9.90677C12.158 9.71318 12.2531 9.53538 12.3927 9.39578C12.5323 9.25618 12.7101 9.16102 12.9037 9.1223L15.5097 8.60111C15.648 8.57343 15.7723 8.49872 15.8617 8.38969C15.9511 8.28065 15.9999 8.14403 15.9999 8.00305C15.9999 7.86208 15.9511 7.72545 15.8617 7.61642C15.7723 7.50738 15.648 7.43267 15.5097 7.40499L12.9037 6.8838C12.7101 6.84508 12.5323 6.74993 12.3927 6.61033C12.2531 6.47073 12.158 6.29293 12.1193 6.09933L11.5981 3.49333C11.5704 3.35508 11.4957 3.23068 11.3867 3.14129C11.2776 3.05191 11.141 3.00306 11 3.00305ZM3 0.00305176C2.71147 0.00305176 2.46525 0.211645 2.41781 0.496239L2.26031 1.44133C2.22605 1.64694 2.1284 1.83669 1.98101 1.98408C1.83362 2.13147 1.64385 2.22911 1.43825 2.26336L0.493156 2.42086C0.208594 2.46833 0 2.71455 0 3.00305C0 3.29155 0.208594 3.53783 0.493187 3.58524L1.43828 3.74277C1.64387 3.77703 1.83362 3.87468 1.98099 4.02206C2.12837 4.16944 2.22602 4.35918 2.26028 4.56477L2.41778 5.50986C2.46528 5.79446 2.7115 6.00305 3 6.00305C3.2885 6.00305 3.53478 5.79446 3.58219 5.50986L3.73972 4.56477C3.77399 4.35918 3.87163 4.16944 4.01901 4.02206C4.16639 3.87469 4.35613 3.77704 4.56172 3.74277L5.50681 3.58524C5.79141 3.5378 6 3.29158 6 3.00305C6 2.71452 5.79141 2.4683 5.50681 2.42086L4.56172 2.26336C4.35613 2.2291 4.16638 2.13145 4.019 1.98406C3.87162 1.83668 3.77398 1.64693 3.73972 1.44133L3.58219 0.496239C3.53478 0.211645 3.28853 0.00305176 3 0.00305176ZM4.37872 12.4881C4.25756 12.9728 3.95928 13.2632 3.48506 13.3818C2.85428 13.5395 2.85428 14.4666 3.48506 14.6243C3.95928 14.7429 4.25756 15.0333 4.37872 15.518C4.53644 16.1488 5.46356 16.1488 5.62128 15.518C5.73981 15.0438 6.03022 14.7455 6.51494 14.6243C7.14572 14.4666 7.14572 13.5395 6.51494 13.3818C6.04072 13.2632 5.74244 12.9728 5.62128 12.4881C5.46356 11.8573 4.53644 11.8573 4.37872 12.4881Z" />
</svg>
