<!--
* SPDX-FileCopyrightText: © 2022 Liferay, Inc. <https://liferay.com>
* SPDX-FileCopyrightText: © 2022 Contributors to the project Clay <https://github.com/liferay/clay/graphs/contributors>
*
* SPDX-License-Identifier: BSD-3-Clause
-->
<svg viewBox="0 0 16 16" xmlns="http://www.w3.org/2000/svg"><path class="lexicon-icon-outline" fill-rule="evenodd" clip-rule="evenodd" d="M12.729 15.898c.116.07.246.104.374.104h.01a.728.728 0 0 0 .646-1.064l-1.836-5.16 3.803-3.026a.727.727 0 0 0-.453-1.297h-4.73L8.68.475A.73.73 0 0 0 8 .001a.728.728 0 0 0-.68.472L5.455 5.455H.728a.728.728 0 0 0-.457 1.297l3.81 3.029-1.747 5.129a.73.73 0 0 0 1.058.862l4.604-2.714 4.733 2.84Zm-4.354-4.31a.734.734 0 0 0-.744-.003L4.347 13.52l1.281-3.756a.73.73 0 0 0-.236-.803L2.81 6.91h3.15a.728.728 0 0 0 .679-.473l1.36-3.633 1.36 3.633a.726.726 0 0 0 .681.473h3.15l-2.583 2.052a.728.728 0 0 0-.233.813l1.364 3.831-3.363-2.018Z"/></svg>