<!--
* SPDX-FileCopyrightText: © 2020 Liferay, Inc. <https://liferay.com>
* SPDX-FileCopyrightText: © 2020 Contributors to the project Clay <https://github.com/liferay/clay/graphs/contributors>
*
* SPDX-License-Identifier: BSD-3-Clause
-->
<svg  viewBox="0 0 16 16" xmlns="http://www.w3.org/2000/svg">
<path class="lexicon-icon-outline" d="M14 7.25307H9.9029C9.66719 7.17164 9.41777 7.10393 9.15032 7.05335L7.54575 6.74564C7.12488 6.65822 6.81117 6.49878 6.60546 6.26565C6.40059 6.03336 6.29775 5.75993 6.29775 5.44622C6.29775 5.2508 6.34146 5.06736 6.42717 4.89423C6.51459 4.72109 6.63546 4.5668 6.7923 4.43136C6.9483 4.29507 7.13772 4.18707 7.35972 4.10649C7.58086 4.0242 7.82686 3.98478 8.09686 3.98478C8.46372 3.98478 8.77485 4.03878 9.02772 4.14765C9.2823 4.25478 9.49059 4.39107 9.65172 4.55307C9.81372 4.71594 9.9363 4.89165 10.0169 5.0802C10.0974 5.26876 10.154 5.4462 10.1866 5.60733L12.1966 4.9902C12.1323 4.6662 12.0097 4.32849 11.8314 3.97534C11.6531 3.62392 11.4028 3.30247 11.078 3.00934C10.754 2.71705 10.346 2.47705 9.85401 2.28763C9.36288 2.09821 8.7723 2.00305 8.08143 2.00305C7.54057 2.00305 7.02801 2.09563 6.54115 2.27905C6.05602 2.46418 5.62828 2.71792 5.26057 3.04276C4.89371 3.36763 4.60486 3.74818 4.394 4.18705C4.18313 4.62591 4.07771 5.09905 4.07771 5.60733C4.07771 6.23647 4.22428 6.78246 4.50457 7.25217H2V8.75217H6.52139C6.70397 8.81046 6.89168 8.86359 7.09226 8.90388L8.69594 9.22875C9.15107 9.31446 9.49652 9.47988 9.73394 9.72333C9.97136 9.96761 10.0896 10.2573 10.0896 10.5925C10.0896 11.003 9.93023 11.3416 9.61223 11.6073C9.29336 11.873 8.83136 12.005 8.22623 12.005C7.81565 12.005 7.4591 11.9459 7.15652 11.8267C6.85481 11.7076 6.60023 11.5482 6.39539 11.3467C6.18968 11.147 6.03026 10.9173 5.9171 10.6567C5.80395 10.3962 5.73623 10.127 5.71568 9.84504L3.64142 10.3962C3.68342 10.8085 3.80342 11.2276 3.99713 11.6553C4.19084 12.0822 4.47455 12.4696 4.84742 12.8159C5.22028 13.163 5.68228 13.4476 6.23341 13.6679C6.78455 13.8916 7.44283 14.003 8.20996 14.003C8.88025 14.003 9.47083 13.9001 9.98338 13.6953C10.4968 13.4896 10.9288 13.2222 11.2794 12.8922C11.6317 12.5622 11.8982 12.1825 12.0825 11.7547C12.2659 11.3279 12.3585 10.8916 12.3585 10.4476C12.3585 10.0473 12.2874 9.66248 12.1476 9.29562C12.0748 9.10533 11.9839 8.92533 11.8768 8.75391H13.9999V7.25304L14 7.25307Z" />
</svg>
