<!--
* SPDX-FileCopyrightText: © 2020 Liferay, Inc. <https://liferay.com>
* SPDX-FileCopyrightText: © 2020 Contributors to the project Clay <https://github.com/liferay/clay/graphs/contributors>
*
* SPDX-License-Identifier: BSD-3-Clause
-->
<svg viewBox="0 0 16 16" xmlns="http://www.w3.org/2000/svg"><path d="M14 7.253H9.903a5.33 5.33 0 0 0-.753-.2l-1.604-.307c-.421-.088-.735-.247-.94-.48a1.2 1.2 0 0 1-.308-.82c0-.195.043-.379.13-.552.087-.173.207-.327.364-.463a1.77 1.77 0 0 1 .568-.325c.22-.082.467-.121.737-.121.367 0 .678.054.93.163.255.107.464.243.625.405.162.163.284.339.365.527.08.189.137.366.17.527l2.01-.617a3.992 3.992 0 0 0-.366-1.015 3.33 3.33 0 0 0-.753-.966c-.324-.292-.732-.532-1.224-.721-.491-.19-1.082-.285-1.773-.285a4.33 4.33 0 0 0-1.54.276 4.147 4.147 0 0 0-1.28.764 3.591 3.591 0 0 0-.867 1.144c-.21.439-.316.912-.316 1.42 0 .63.146 1.175.427 1.645H2v1.5h4.521c.183.058.37.111.571.152l1.604.325c.455.085.8.25 1.038.494.237.244.356.534.356.87 0 .41-.16.748-.478 1.014-.319.266-.78.398-1.386.398-.41 0-.767-.06-1.07-.178a2.246 2.246 0 0 1-.76-.48c-.206-.2-.366-.43-.479-.69a2.49 2.49 0 0 1-.201-.812l-2.075.551c.042.412.162.831.356 1.26.194.426.478.813.85 1.16a4.43 4.43 0 0 0 1.386.852c.552.224 1.21.335 1.977.335.67 0 1.26-.103 1.773-.308a4.079 4.079 0 0 0 1.296-.803 3.374 3.374 0 0 0 1.08-2.444c0-.4-.072-.786-.211-1.153a3.133 3.133 0 0 0-.271-.541H14V7.253Z"/></svg>
