<!--
* SPDX-FileCopyrightText: © 2026 Liferay, Inc. <https://liferay.com>
* SPDX-FileCopyrightText: © 2026 Contributors to the project Clay <https://github.com/liferay/clay/graphs/contributors>
*
* SPDX-License-Identifier: BSD-3-Clause
-->
<svg viewBox="0 0 16 16" xmlns="http://www.w3.org/2000/svg">
	<path class="lexicon-icon-outline" d="M13 3.75V7a1 1 0 1 1-2 0V4.5H9.5c-.5 0-1-.5-1-1V2H3v12h3a1 1 0 1 1 0 2H2.5A1.5 1.5 0 0 1 1 14.5v-13C1 .67 1.67 0 2.5 0h6.75L13 3.75Z" />
	<path class="lexicon-icon-outline" clip-rule="evenodd" d="M11.98 9c.22 0 .405.161.435.377l.092.655c.213.084.506.24.683.382l.7-.32a.438.438 0 0 1 .56.193l.488.861a.436.436 0 0 1-.135.566l-.663.44c.019.148.056.473.025.685l.655.482a.435.435 0 0 1 .127.56l-.459.822a.44.44 0 0 1-.573.188l-.72-.297a2.948 2.948 0 0 1-.69.38l-.071.64a.439.439 0 0 1-.437.386l-.985-.003a.439.439 0 0 1-.435-.387l-.078-.63a3.223 3.223 0 0 1-.687-.4l-.66.35a.443.443 0 0 1-.563-.183l-.531-.882a.439.439 0 0 1 .13-.574l.647-.445a2.914 2.914 0 0 1 .009-.696l-.688-.55a.436.436 0 0 1-.095-.554l.543-.834c.11-.187.324-.204.525-.125l.684.33c.183-.137.434-.292.687-.397l.089-.641A.44.44 0 0 1 11.023 9h.957Zm-.476 2.507c-1.51 0-1.418 2.186 0 2.186 1.417 0 1.486-2.186 0-2.186Z" fill-rule="evenodd" />
</svg>