<!--
* SPDX-FileCopyrightText: © 2022 Liferay, Inc. <https://liferay.com>
* SPDX-FileCopyrightText: © 2022 Contributors to the project Clay <https://github.com/liferay/clay/graphs/contributors>
*
* SPDX-License-Identifier: BSD-3-Clause
-->
<svg viewBox="0 0 16 16" xmlns="http://www.w3.org/2000/svg"><path class="lexicon-icon-outline" d="M5.001 0a.75.75 0 0 1 .75.75v1.258l3.505.015a.75.75 0 0 1-.006 1.501l-.815-.004c-.14 1.314-.484 2.266-1 3.027-.355.525-.776.934-1.21 1.293a75.16 75.16 0 0 0 1.843 1.352.77.77 0 0 1 .236.982.746.746 0 0 1-1.088.277c-.788-.55-1.53-1.13-2.124-1.591l-.09-.071-.092.07c-.766.597-1.732 1.35-2.773 2.025a.75.75 0 1 1-.815-1.26c.91-.59 1.737-1.225 2.456-1.784a6.6 6.6 0 0 1-.975-.973 5.181 5.181 0 0 1-.767-1.33c-.185-.464.188-.932.686-.932.342 0 .635.228.775.54.139.309.3.564.478.787.282.355.619.649 1.026.966.493-.384.883-.735 1.193-1.192.334-.493.604-1.156.732-2.192l-1.925-.009H.75a.75.75 0 0 1 0-1.5h3.502V.75a.75.75 0 0 1 .75-.75Z"/><path class="lexicon-icon-outline" fill-rule="evenodd" clip-rule="evenodd" d="M11.824 6.496c.3 0 .57.178.689.454l3.426 8.004a.75.75 0 0 1-1.378.591l-.656-1.534H9.743l-.657 1.534a.75.75 0 1 1-1.378-.591l.81-1.892a.746.746 0 0 1 .08-.188l2.537-5.924a.75.75 0 0 1 .689-.454Zm1.438 6.015-1.438-3.36-1.439 3.36h2.877Z"/></svg>