<!--
* SPDX-FileCopyrightText: © 2020 Liferay, Inc. <https://liferay.com>
* SPDX-FileCopyrightText: © 2020 Contributors to the project Clay <https://github.com/liferay/clay/graphs/contributors>
*
* SPDX-License-Identifier: BSD-3-Clause
-->
<svg  viewBox="0 0 16 16" xmlns="http://www.w3.org/2000/svg">
<path class="lexicon-icon-outline" fill-rule="evenodd" clip-rule="evenodd" d="M13.0967 3.00305H12V2.00305C12 0.899902 11.1035 0.00305176 10 0.00305176H6C4.89648 0.00305176 4 0.899902 4 2.00305V3.00305H2.90332C1.2998 3.00305 0 4.30304 0 5.90619V13.0999C0 14.7031 1.2998 16.0031 2.90332 16.0031H13.0967C14.7002 16.0031 16 14.7031 16 13.0999V5.90619C16 4.30304 14.7002 3.00305 13.0967 3.00305ZM6 2.00305H10V3.00305H6V2.00305ZM13.0967 14.0031C13.5938 14.0031 14 13.5968 14 13.0999V5.90619C14 5.4093 13.5938 5.00305 13.0967 5.00305H2.90332C2.40625 5.00305 2 5.4093 2 5.90619V13.0999C2 13.5968 2.40625 14.0031 2.90332 14.0031H13.0967Z" />
</svg>
