<!--
* SPDX-FileCopyrightText: © 2020 Liferay, Inc. <https://liferay.com>
* SPDX-FileCopyrightText: © 2020 Contributors to the project Clay <https://github.com/liferay/clay/graphs/contributors>
*
* SPDX-License-Identifier: BSD-3-Clause
-->
<svg viewBox="0 0 16 16" xmlns="http://www.w3.org/2000/svg"><path fill-rule="evenodd" clip-rule="evenodd" d="M13.097 3.003H12v-1c0-1.103-.896-2-2-2H6c-1.104 0-2 .897-2 2v1H2.903A2.903 2.903 0 0 0 0 5.906V13.1c0 1.603 1.3 2.903 2.903 2.903h10.194c1.603 0 2.903-1.3 2.903-2.903V5.906c0-1.603-1.3-2.903-2.903-2.903ZM6 2.003h4v1H6v-1Zm7.097 12A.906.906 0 0 0 14 13.1V5.906a.906.906 0 0 0-.903-.903H2.903A.906.906 0 0 0 2 5.906V13.1c0 .497.406.903.903.903h10.194Z"/></svg>
