<!--
* SPDX-FileCopyrightText: © 2022 Liferay, Inc. <https://liferay.com>
* SPDX-FileCopyrightText: © 2022 Contributors to the project Clay <https://github.com/liferay/clay/graphs/contributors>
*
* SPDX-License-Identifier: BSD-3-Clause
-->
<svg viewBox="0 0 16 16" xmlns="http://www.w3.org/2000/svg"><path class="lexicon-icon-outline" d="M9 2.002a1 1 0 1 1-2 0v-1a1 1 0 1 1 2 0v1Z"/><path class="lexicon-icon-outline" fill-rule="evenodd" clip-rule="evenodd" d="M4 8.002a4 4 0 1 1 8 0 4 4 0 0 1-8 0Zm4 2c.534 0 1.037-.21 1.416-.584A2 2 0 0 0 10 8.002c0-.534-.206-1.04-.584-1.416A2.003 2.003 0 0 0 8 6.002a1.99 1.99 0 0 0-1.416.584A2 2 0 0 0 6 8.002a2 2 0 0 0 .584 1.416c.379.375.882.584 1.416.584Z"/><path class="lexicon-icon-outline" d="M15 7.002h-1a1 1 0 1 0 0 2h1a1 1 0 1 0 0-2Zm-13 0a1 1 0 1 1 0 2H1a1 1 0 1 1 0-2h1Zm6 6a1 1 0 0 0-1 1v1a1 1 0 1 0 2 0v-1a1 1 0 0 0-1-1Zm4.95-1.466a1.002 1.002 0 0 0-1.416 1.416l.706.706a1.002 1.002 0 0 0 1.416-1.415l-.706-.707ZM4.466 4.468c-.39.39-1.026.39-1.416 0l-.706-.707a1.002 1.002 0 0 1 0-1.415.997.997 0 0 1 1.412 0l.71.706c.39.39.39 1.025 0 1.416Zm0 7.068a1.002 1.002 0 0 0-1.416 0l-.706.71A1.001 1.001 0 0 0 3.76 13.66l.706-.706c.39-.393.39-1.028 0-1.419Zm8.484-7.068a1.002 1.002 0 0 1-1.416-1.416l.706-.706a1.002 1.002 0 0 1 1.416 1.415l-.706.707Z"/></svg>