<!--
* SPDX-FileCopyrightText: © 2020 Liferay, Inc. <https://liferay.com>
* SPDX-FileCopyrightText: © 2020 Contributors to the project Clay <https://github.com/liferay/clay/graphs/contributors>
*
* SPDX-License-Identifier: BSD-3-Clause
-->
<svg  viewBox="0 0 16 16" xmlns="http://www.w3.org/2000/svg">
<path class="lexicon-icon-outline" d="M9 2.00305C9 2.55615 8.55273 3.00305 8 3.00305C7.44727 3.00305 7 2.55615 7 2.00305V1.00305C7 0.449951 7.44727 0.00305176 8 0.00305176C8.55273 0.00305176 9 0.449951 9 1.00305V2.00305Z" />
<path class="lexicon-icon-outline" fill-rule="evenodd" clip-rule="evenodd" d="M4 8.00305C4 5.7937 5.79102 4.00305 8 4.00305C10.209 4.00305 12 5.7937 12 8.00305C12 10.2124 10.209 12.0031 8 12.0031C5.79102 12.0031 4 10.2124 4 8.00305ZM8 10.0031C8.53418 10.0031 9.03711 9.7937 9.41602 9.4187C9.79102 9.04053 10 8.53741 10 8.00305C10 7.46869 9.79395 6.9624 9.41602 6.5874C9.03711 6.2124 8.53418 6.00305 8 6.00305C7.46582 6.00305 6.96289 6.20929 6.58398 6.5874C6.20898 6.96558 6 7.46869 6 8.00305C6 8.53741 6.20898 9.04053 6.58398 9.4187C6.96289 9.7937 7.46582 10.0031 8 10.0031Z" />
<path class="lexicon-icon-outline" d="M15 7.00305H14C13.4473 7.00305 13 7.44995 13 8.00305C13 8.55615 13.4473 9.00305 14 9.00305H15C15.5527 9.00305 16 8.55615 16 8.00305C16 7.44995 15.5527 7.00305 15 7.00305Z" />
<path class="lexicon-icon-outline" d="M2 7.00305C2.55273 7.00305 3 7.44995 3 8.00305C3 8.55615 2.55273 9.00305 2 9.00305H1C0.447266 9.00305 0 8.55615 0 8.00305C0 7.44995 0.447266 7.00305 1 7.00305H2Z" />
<path class="lexicon-icon-outline" d="M8 13.0031C7.44727 13.0031 7 13.45 7 14.0031V15.0031C7 15.5562 7.44727 16.0031 8 16.0031C8.55273 16.0031 9 15.5562 9 15.0031V14.0031C9 13.45 8.55273 13.0031 8 13.0031Z" />
<path class="lexicon-icon-outline" d="M12.9502 11.5374C12.5596 11.1468 11.9248 11.1468 11.5342 11.5374C11.1436 11.928 11.1436 12.5624 11.5342 12.9531L12.2402 13.6593C12.6309 14.0499 13.2656 14.0499 13.6562 13.6593C14.0469 13.2687 14.0469 12.6343 13.6562 12.2437L12.9502 11.5374Z" />
<path class="lexicon-icon-outline" d="M4.46582 4.46869C4.0752 4.85931 3.44043 4.85931 3.0498 4.46869L2.34375 3.76245C1.95312 3.37183 1.95312 2.73743 2.34375 2.3468C2.73438 1.95618 3.36523 1.95618 3.75586 2.3468L4.46582 3.05304C4.85645 3.44366 4.85645 4.07806 4.46582 4.46869Z" />
<path class="lexicon-icon-outline" d="M4.46582 11.5374C4.0752 11.1468 3.44043 11.1468 3.0498 11.5374L2.34375 12.2468C1.95312 12.6374 1.95312 13.2718 2.34375 13.6624C2.73438 14.053 3.36914 14.053 3.75977 13.6624L4.46582 12.9562C4.85645 12.5624 4.85645 11.928 4.46582 11.5374Z" />
<path class="lexicon-icon-outline" d="M12.9502 4.46869C12.5596 4.85931 11.9248 4.85931 11.5342 4.46869C11.1436 4.07806 11.1436 3.44366 11.5342 3.05304L12.2402 2.3468C12.6309 1.95618 13.2656 1.95618 13.6562 2.3468C14.0469 2.73743 14.0469 3.37183 13.6562 3.76245L12.9502 4.46869Z" />
</svg>
