<!--
* SPDX-FileCopyrightText: © 2026 Liferay, Inc. <https://liferay.com>
* SPDX-FileCopyrightText: © 2026 Contributors to the project Clay <https://github.com/liferay/clay/graphs/contributors>
*
* SPDX-License-Identifier: BSD-3-Clause
-->
<svg viewBox="0 0 16 16" xmlns="http://www.w3.org/2000/svg">
	<path class="lexicon-icon-outline" d="M6.575 7.388c-.82.131-1.59.477-2.31 1.037-.722.562-1.112 1.299-1.167 2.212.225-.13.523-.196.89-.196.96 0 1.704.242 2.227.724.523.483.785 1.142.785 1.978 0 .757-.305 1.422-.912 1.996-.609.574-1.408.861-2.398.861-1.131 0-2.029-.365-2.693-1.096C.332 14.174 0 13.286 0 12.242c0-1.304.219-2.408.657-3.308.438-.9.982-1.63 1.633-2.192A6.68 6.68 0 0 1 4.411 5.49a8.365 8.365 0 0 1 2.164-.489v2.388ZM12.31 0c1.131 0 2.029.365 2.693 1.096.665.73.997 1.618.997 2.662 0 1.304-.219 2.408-.657 3.308-.438.9-.982 1.63-1.633 2.192-.65.56-1.358.98-2.121 1.253A8.365 8.365 0 0 1 9.425 11V8.612c.82-.131 1.59-.477 2.31-1.037.722-.562 1.112-1.299 1.167-2.212-.225.13-.523.196-.89.196-.96 0-1.704-.242-2.227-.724C9.262 4.352 9 3.693 9 2.857c0-.757.305-1.422.912-1.996C10.521.287 11.32 0 12.31 0Z" />
</svg>