<!--
* SPDX-FileCopyrightText: © 2020 Liferay, Inc. <https://liferay.com>
* SPDX-FileCopyrightText: © 2020 Contributors to the project Clay <https://github.com/liferay/clay/graphs/contributors>
*
* SPDX-License-Identifier: BSD-3-Clause
-->
<svg  viewBox="0 0 16 16" xmlns="http://www.w3.org/2000/svg">
<path class="lexicon-icon-outline" d="M6.49939 11.0031C6.22325 11.0031 5.99939 11.2269 5.99939 11.5031C5.99939 11.7792 6.22325 12.0031 6.49939 12.0031H9.49939C9.77553 12.0031 9.99939 11.7792 9.99939 11.5031C9.99939 11.2269 9.77553 11.0031 9.49939 11.0031H6.49939Z" />
<path class="lexicon-icon-outline" fill-rule="evenodd" clip-rule="evenodd" d="M-0.000732422 13.0051V3.00513C-0.000732422 1.90513 0.899268 1.00513 1.99927 1.00513H13.9993C15.0993 1.00513 15.9993 1.90513 15.9993 3.00513V13.0051C15.9993 14.1051 15.0993 15.0051 13.9993 15.0051H1.99927C0.899268 15.0051 -0.000732422 14.1051 -0.000732422 13.0051ZM13.9993 13.0051V3.00513H1.99927V13.0051H13.9993Z" />
</svg>
