<!--
* SPDX-FileCopyrightText: © 2020 Liferay, Inc. <https://liferay.com>
* SPDX-FileCopyrightText: © 2020 Contributors to the project Clay <https://github.com/liferay/clay/graphs/contributors>
*
* SPDX-License-Identifier: BSD-3-Clause
-->
<svg  viewBox="0 0 16 16" xmlns="http://www.w3.org/2000/svg">
<path class="lexicon-icon-outline" d="M14 0.00305176H2C1 0.00305176 0 1.00305 0 2.00305V14.0031C0 15.0031 1 16.0031 2 16.0031H14C15 16.0031 16 15.0031 16 14.0031V2.00305C16 1.00305 15 0.00305176 14 0.00305176ZM5 14.0031H2V11.0031H5V14.0031ZM5 9.00305H2V7.00305H5V9.00305ZM5 5.00305H2V2.00305H5V5.00305ZM9 14.0031H7V11.0031H9V14.0031ZM9 9.00305H7V7.00305H9V9.00305ZM9 5.00305H7V2.00305H9V5.00305ZM14 14.0031H11V11.0031H14V14.0031ZM14 9.00305H11V7.00305H14V9.00305ZM14 5.00305H11V2.00305H14V5.00305Z" />
</svg>
