<!--
* SPDX-FileCopyrightText: © 2020 Liferay, Inc. <https://liferay.com>
* SPDX-FileCopyrightText: © 2020 Contributors to the project Clay <https://github.com/liferay/clay/graphs/contributors>
*
* SPDX-License-Identifier: BSD-3-Clause
-->
<svg  viewBox="0 0 16 16" xmlns="http://www.w3.org/2000/svg">
<path class="lexicon-icon-outline" d="M6.49927 11.0031C6.22312 11.0031 5.99927 11.2269 5.99927 11.5031C5.99927 11.7792 6.22312 12.0031 6.49927 12.0031H9.49927C9.77541 12.0031 9.99927 11.7792 9.99927 11.5031C9.99927 11.2269 9.77541 11.0031 9.49927 11.0031H6.49927Z" />
<path class="lexicon-icon-outline" fill-rule="evenodd" clip-rule="evenodd" d="M2.99927 0.00512695H12.9993C14.0993 0.00512695 14.9993 0.905127 14.9993 2.00513V14.0051C14.9993 15.1051 14.0993 16.0051 12.9993 16.0051H2.99927C1.89927 16.0051 0.999268 15.1051 0.999268 14.0051V2.00513C0.999268 0.905127 1.89927 0.00512695 2.99927 0.00512695ZM2.99927 14.0051H12.9993V2.00513H2.99927V14.0051Z" />
</svg>
