<!--
* SPDX-FileCopyrightText: © 2020 Liferay, Inc. <https://liferay.com>
* SPDX-FileCopyrightText: © 2020 Contributors to the project Clay <https://github.com/liferay/clay/graphs/contributors>
*
* SPDX-License-Identifier: BSD-3-Clause
-->
<svg viewBox="0 0 16 16" xmlns="http://www.w3.org/2000/svg"><path d="M14 .003H2c-1 0-2 1-2 2v12c0 1 1 2 2 2h12c1 0 2-1 2-2v-12c0-1-1-2-2-2Zm-9 14H2v-3h3v3Zm0-5H2v-2h3v2Zm0-4H2v-3h3v3Zm4 9H7v-3h2v3Zm0-5H7v-2h2v2Zm0-4H7v-3h2v3Zm5 9h-3v-3h3v3Zm0-5h-3v-2h3v2Zm0-4h-3v-3h3v3Z"/></svg>
