<!--
* SPDX-FileCopyrightText: © 2020 Liferay, Inc. <https://liferay.com>
* SPDX-FileCopyrightText: © 2020 Contributors to the project Clay <https://github.com/liferay/clay/graphs/contributors>
*
* SPDX-License-Identifier: BSD-3-Clause
-->
<svg viewBox="0 0 16 16" xmlns="http://www.w3.org/2000/svg"><path fill-rule="evenodd" clip-rule="evenodd" d="M14 .003H2c-1.008 0-2 .976-2 2v12c0 1.006 1.006 2 2 2h12c1 0 2-.996 2-2v-12c0-1-.992-2-2-2Zm-6 2h2v1H8v-1Zm6 12H2v-12h4v3h8v9Zm0-11h-2v-1h2v1Zm-9 6h6a1 1 0 0 0 0-2H5a1 1 0 0 0 0 2Zm0 3h6a1 1 0 0 0 0-2H5a1 1 0 0 0 0 2Z"/></svg>
