<!--
* SPDX-FileCopyrightText: © 2020 Liferay, Inc. <https://liferay.com>
* SPDX-FileCopyrightText: © 2020 Contributors to the project Clay <https://github.com/liferay/clay/graphs/contributors>
*
* SPDX-License-Identifier: BSD-3-Clause
-->
<svg  viewBox="0 0 16 16" xmlns="http://www.w3.org/2000/svg">
<path class="lexicon-icon-outline" fill-rule="evenodd" clip-rule="evenodd" d="M14 0.00305176H2C0.992188 0.00305176 0 0.979614 0 2.00305C0 5.99961 0 14.0031 0 14.0031C0 15.009 1.00594 16.0031 2 16.0031H14C15 16.0031 16 15.0068 16 14.0031V2.00305C16 1.00305 15.0078 0.00305176 14 0.00305176ZM8 2.00305H10V3.00305H8V2.00305ZM14 14.0031H2V2.00305H6V5.00305H14V14.0031ZM14 3.00305H12V2.00305H14V3.00305ZM5 9.00305H11C11.5522 9.00305 12 8.55524 12 8.00305C12 7.45086 11.5522 7.00305 11 7.00305H5C4.44781 7.00305 4 7.45086 4 8.00305C4 8.55524 4.44781 9.00305 5 9.00305ZM5 12.0031H11C11.5522 12.0031 12 11.5552 12 11.0031C12 10.4509 11.5522 10.0031 11 10.0031H5C4.44781 10.0031 4 10.4509 4 11.0031C4 11.5552 4.44781 12.0031 5 12.0031Z" /><rect class="lexicon-icon-outline"   transform="translate(0 0.00305176)"/>
</svg>
