<!--
* SPDX-FileCopyrightText: © 2020 Liferay, Inc. <https://liferay.com>
* SPDX-FileCopyrightText: © 2020 Contributors to the project Clay <https://github.com/liferay/clay/graphs/contributors>
*
* SPDX-License-Identifier: BSD-3-Clause
-->
<svg viewBox="0 0 16 16" xmlns="http://www.w3.org/2000/svg"><path fill-rule="evenodd" clip-rule="evenodd" d="M9.202 3.803a2.119 2.119 0 0 0 0 2.984 2.118 2.118 0 0 0 2.976 0 2.137 2.137 0 0 0 0-2.987c-.797-.794-2.182-.797-2.976.003Zm.812 2.169a.972.972 0 0 0 1.348 0 .965.965 0 0 0 .003-1.353.962.962 0 0 0-1.351 0 .963.963 0 0 0 0 1.353Z"/><path fill-rule="evenodd" clip-rule="evenodd" d="M15.969 2.937v4.11c.028 1.397-.66 2.412-1.07 2.893l-.026.029-5.208 5.23c-1.054 1.067-2.846 1.055-3.9-.002l-4.931-4.95C-.22 9.189-.231 7.383.825 6.322L6.167.956l.027-.025C6.597.584 7.471.003 8.807.003h4.485l.047.003c1.478.14 2.583 1.375 2.63 2.931ZM13.41 8.61c.227-.275.582-.815.567-1.531l-.003-.025v-4.07c-.02-.522-.34-.919-.788-.981H8.803c-.663 0-1.08.253-1.282.422L2.23 7.737c-.283.285-.28.807.01 1.097l4.93 4.95a.783.783 0 0 0 1.084.003L13.41 8.61Z"/></svg>
