<!--
* SPDX-FileCopyrightText: © 2020 Liferay, Inc. <https://liferay.com>
* SPDX-FileCopyrightText: © 2020 Contributors to the project Clay <https://github.com/liferay/clay/graphs/contributors>
*
* SPDX-License-Identifier: BSD-3-Clause
-->
<svg  viewBox="0 0 16 16" xmlns="http://www.w3.org/2000/svg">
<path class="lexicon-icon-outline" fill-rule="evenodd" clip-rule="evenodd" d="M9.20221 3.80305C8.38288 4.62493 8.38288 5.96555 9.20221 6.78743C10.0133 7.60167 11.3667 7.60174 12.1778 6.78743C12.9893 5.9727 12.9893 4.61465 12.1778 3.79993C11.3809 3.00618 9.99616 3.00305 9.20221 3.80305ZM10.0137 5.9718C10.3751 6.3343 11.001 6.3343 11.3624 5.9718C11.7314 5.60162 11.735 4.98962 11.3653 4.61868C10.9966 4.2488 10.3825 4.24875 10.0137 4.61868C9.64362 4.99055 9.64362 5.59993 10.0137 5.9718Z" />
<path class="lexicon-icon-outline" fill-rule="evenodd" clip-rule="evenodd" d="M15.9688 2.93743V7.0468C15.9971 8.44368 15.3096 9.4593 14.8985 9.94055L14.8731 9.96868L9.6651 15.1999C8.61137 16.2661 6.81933 16.2538 5.76471 15.1968L0.834048 10.2468C-0.220062 9.18868 -0.23143 7.38289 0.825259 6.3218L6.16706 0.956177L6.1944 0.931177C6.59674 0.584302 7.47077 0.00305176 8.8067 0.00305176H13.2921L13.3389 0.00617676C14.8174 0.146802 15.9219 1.38118 15.9688 2.93743ZM13.4102 8.6093C13.6368 8.3343 13.9923 7.79368 13.9766 7.07805L13.9737 7.05305V2.9843C13.9542 2.46243 13.6339 2.06555 13.1856 2.00305H8.8028C8.13971 2.00305 7.72272 2.25618 7.52057 2.42493L2.23151 7.73743C1.94831 8.0218 1.95124 8.54368 2.24127 8.8343L7.17194 13.7843C7.45537 14.0761 7.96906 14.0753 8.25495 13.7874L13.4102 8.6093Z" />
</svg>
