<!--
* SPDX-FileCopyrightText: © 2022 Liferay, Inc. <https://liferay.com>
* SPDX-FileCopyrightText: © 2022 Contributors to the project Clay <https://github.com/liferay/clay/graphs/contributors>
*
* SPDX-License-Identifier: BSD-3-Clause
-->
<svg viewBox="0 0 16 16" xmlns="http://www.w3.org/2000/svg"><path class="lexicon-icon-outline" fill-rule="evenodd" clip-rule="evenodd" d="M9.206 3.802A2.113 2.113 0 0 0 10.7 7.405c.566 0 1.095-.219 1.495-.619.4-.4.618-.928.618-1.493 0-.566-.218-1.094-.618-1.494-.8-.794-2.19-.797-2.988.003Zm.815 2.169a.979.979 0 0 0 1.354 0 .952.952 0 0 0 .003-1.353.952.952 0 0 0-.679-.282.96.96 0 0 0-.678 1.634Z"/><path class="lexicon-icon-outline" fill-rule="evenodd" clip-rule="evenodd" d="M16 2.936v4.11c.028 1.397-.663 2.412-1.075 2.894l-.026.028-5.228 5.23a2.734 2.734 0 0 1-1.956.804c-.744 0-1.44-.287-1.96-.806l-4.95-4.95A2.76 2.76 0 0 1 0 8.29c-.003-.75.278-1.45.797-1.97L6.159.956 6.187.93C6.59.583 7.468.002 8.809.002h4.503l.047.003c1.484.14 2.593 1.375 2.64 2.931Zm-2.57 5.672c.228-.275.585-.815.57-1.53l-.004-.026V2.983c-.02-.522-.34-.918-.79-.98h-4.4c-.666 0-1.085.252-1.288.42l-5.31 5.313c-.284.285-.28.807.01 1.097l4.95 4.95c.14.144.332.22.543.22a.754.754 0 0 0 .544-.216l5.176-5.179Z"/></svg>