<!--
* SPDX-FileCopyrightText: © 2025 Liferay, Inc. <https://liferay.com>
* SPDX-FileCopyrightText: © 2025 Contributors to the project Clay <https://github.com/liferay/clay/graphs/contributors>
*
* SPDX-License-Identifier: BSD-3-Clause
-->
<svg viewBox="0 0 16 16" xmlns="http://www.w3.org/2000/svg">
	<path class="lexicon-icon-outline" d="M14 0c1 0 2 1 2 2v12c0 1-1 2-2 2H2c-1 0-2-1-2-2V7a1 1 0 0 1 2 0v7h12V2h-3a1 1 0 1 1 0-2h3Z"/>
	<path class="lexicon-icon-outline" d="M4 10a1 1 0 1 1 0 2 1 1 0 0 1 0-2Zm8 0a1 1 0 1 1 0 2H7a1 1 0 1 1 0-2h5ZM4 7a1 1 0 1 1 0 2 1 1 0 0 1 0-2Zm8 0a1 1 0 1 1 0 2H8a1 1 0 1 1 0-2h4Zm0-3a1 1 0 1 1 0 2H9a1 1 0 1 1 0-2h3ZM6.66.351A1 1 0 0 1 8.184 1.65L4.805 5.613c-.401.47-1.117.5-1.556.066L1.324 3.706A1 1 0 0 1 2.73 2.284l1.207 1.263L6.66.351Z"/>
</svg>
