<!--
* SPDX-FileCopyrightText: © 2020 Liferay, Inc. <https://liferay.com>
* SPDX-FileCopyrightText: © 2020 Contributors to the project Clay <https://github.com/liferay/clay/graphs/contributors>
*
* SPDX-License-Identifier: BSD-3-Clause
-->
<svg viewBox="0 0 16 16" xmlns="http://www.w3.org/2000/svg"><path d="M7.09 2.172v10.505c0 .682.454 1.168 1.09 1.265l1.092.098v.965H2.816v-.972l1.091-.097c.637-.098 1.091-.584 1.091-1.265V2.165h-2.27c-.638 0-1.092.486-1.183 1.07l-.272 1.852H0l.183-3.792c0-.098.092-.29.271-.29h11.181c.092 0 .271.098.271.29l.183 3.792h-1.27l-.272-1.849c-.183-.583-.728-1.07-1.27-1.07H7.088v.004Z"/><path d="M13.088 7.128v6.42c0 .388.271.681.637.779l.546.098v.58h-3.728v-.584l.546-.098c.362 0 .637-.387.637-.779V7.128h-1.092c-.362 0-.637.29-.728.583l-.183 1.07h-.817l.091-2.237c0-.098.092-.195.183-.195h6.545c.091 0 .183.097.183.195l.091 2.237h-.817l-.362-.972c-.092-.388-.363-.583-.729-.583h-1c-.003 0-.003-.098-.003-.098Z"/></svg>
