<!--
* SPDX-FileCopyrightText: © 2020 Liferay, Inc. <https://liferay.com>
* SPDX-FileCopyrightText: © 2020 Contributors to the project Clay <https://github.com/liferay/clay/graphs/contributors>
*
* SPDX-License-Identifier: BSD-3-Clause
-->
<svg  viewBox="0 0 16 16" xmlns="http://www.w3.org/2000/svg">
<path class="lexicon-icon-outline" fill-rule="evenodd" clip-rule="evenodd" d="M9.08301 0.713768L14.9053 14.4066C14.9668 14.5459 15 14.6995 14.9961 14.8602C14.9961 15.4923 14.4746 16.0031 13.8301 16.0031C13.3408 16.0031 12.9258 15.7102 12.751 15.2923L11.5947 12.5745H4.40137L3.24609 15.2923C3.07422 15.7102 2.65527 16.0031 2.16699 16.0031C1.52148 16.0031 1 15.4923 1 14.8602C1 14.6995 1.0332 14.5459 1.09473 14.4066L6.9209 0.713768C7.0918 0.295906 7.51172 0.00305176 8 0.00305176C8.48828 0.00305176 8.9082 0.295906 9.08301 0.713768ZM8 4.11734L5.375 10.2888H10.625L8 4.11734Z" />
</svg>
