<!--
* SPDX-FileCopyrightText: © 2022 Liferay, Inc. <https://liferay.com>
* SPDX-FileCopyrightText: © 2022 Contributors to the project Clay <https://github.com/liferay/clay/graphs/contributors>
*
* SPDX-License-Identifier: BSD-3-Clause
-->
<svg viewBox="0 0 16 16" xmlns="http://www.w3.org/2000/svg"><path class="lexicon-icon-outline" fill-rule="evenodd" clip-rule="evenodd" d="M4.135 9.002c-.667 0-1.135-.43-1.135-1 0-.576.468-1 1.135-1 .674 0 1.135.424 1.135 1 0 .57-.461 1-1.135 1Zm3.893 0c-.666 0-1.134-.43-1.134-1 0-.576.468-1 1.134-1 .674 0 1.135.424 1.135 1 0 .57-.46 1-1.135 1Zm3.837 0c-.666 0-1.135-.43-1.135-1 0-.576.469-1 1.135-1 .674 0 1.135.424 1.135 1 0 .57-.461 1-1.135 1Z"/></svg>