<!--
* SPDX-FileCopyrightText: © 2022 Liferay, Inc. <https://liferay.com>
* SPDX-FileCopyrightText: © 2022 Contributors to the project Clay <https://github.com/liferay/clay/graphs/contributors>
*
* SPDX-License-Identifier: BSD-3-Clause
-->
<svg viewBox="0 0 16 16" xmlns="http://www.w3.org/2000/svg"><path class="lexicon-icon-outline" d="M7.09 2.17v10.503c0 .682.454 1.168 1.091 1.265l1.092.098v.965H2.816v-.972l1.092-.097c.637-.098 1.091-.584 1.091-1.265V2.163h-2.27c-.638 0-1.092.485-1.184 1.069l-.27 1.852H0l.183-3.792c0-.098.091-.29.271-.29h11.181c.091 0 .271.098.271.29l.183 3.792h-1.27l-.272-1.849c-.183-.583-.729-1.07-1.271-1.07H7.09v.004Z"/><path class="lexicon-icon-outline" d="M13.089 7.125v6.42c0 .388.271.681.637.779l.546.098v.58h-3.728v-.584l.545-.097c.363 0 .637-.388.637-.78V7.125h-1.09c-.364 0-.638.29-.73.584l-.182 1.069h-.817l.091-2.237c0-.097.092-.195.183-.195h6.545c.091 0 .182.098.182.195L16 8.778h-.817l-.363-.972c-.091-.388-.362-.583-.728-.583h-1c-.003 0-.003-.098-.003-.098Z"/></svg>