<!--
* SPDX-FileCopyrightText: © 2020 Liferay, Inc. <https://liferay.com>
* SPDX-FileCopyrightText: © 2020 Contributors to the project Clay <https://github.com/liferay/clay/graphs/contributors>
*
* SPDX-License-Identifier: BSD-3-Clause
-->
<svg  viewBox="0 0 16 16" xmlns="http://www.w3.org/2000/svg">
<path class="lexicon-icon-outline" d="M7.08938 2.17236C7.08938 3.14392 7.08938 4.11549 7.08938 5.09043C7.08938 6.06537 7.08938 5.96416 7.08938 6.9391V8.0085C7.08938 8.98007 7.08938 9.95163 7.08938 10.9266C7.08938 11.5102 7.08938 12.0938 7.08938 12.6774C7.08938 13.3589 7.54355 13.8446 8.18065 13.9425L9.27192 14.0403V15.0051H2.81576V14.0336L3.90703 13.9357C4.54413 13.8379 4.9983 13.3521 4.9983 12.6707C4.9983 12.0871 4.9983 11.5034 4.9983 10.9198C4.9983 9.94826 4.9983 8.97669 4.9983 8.00175V6.93236C4.9983 5.96079 4.9983 6.05862 4.9983 5.08368C4.9983 4.10874 4.9983 3.14055 4.9983 2.16561H2.72745C2.09035 2.16561 1.63618 2.65139 1.54471 3.23501L1.27347 5.08705H-0.000732422L0.182198 1.29525C0.182198 1.19742 0.273662 1.00513 0.453438 1.00513H11.6342C11.7257 1.00513 11.9055 1.10296 11.9055 1.29525L12.0884 5.08705H10.8174L10.5461 3.23838C10.3632 2.65477 9.81756 2.16898 9.27508 2.16898H7.08938V2.17236Z" />
<path class="lexicon-icon-outline" d="M13.0882 7.128C13.0882 7.71162 13.0882 8.29523 13.0882 8.87885C13.0882 9.46246 13.0882 9.46246 13.0882 10.0461V10.7275C13.0882 11.3111 13.0882 11.8948 13.0882 12.4784C13.0882 12.8663 13.0882 13.1598 13.0882 13.5478C13.0882 13.9357 13.3594 14.2292 13.7253 14.327L14.2709 14.4249V15.0051H10.5429V14.4215L11.0885 14.3237C11.4513 14.3237 11.7256 13.9357 11.7256 13.5444C11.7256 13.1564 11.7256 12.8629 11.7256 12.475C11.7256 11.8914 11.7256 11.3078 11.7256 10.7241V10.0461C11.7256 9.46246 11.7256 9.46246 11.7256 8.87885C11.7256 8.29523 11.7256 7.71162 11.7256 7.128H10.6344C10.2717 7.128 9.99727 7.41812 9.90581 7.71162L9.72288 8.78102H8.906L8.99747 6.54439C8.99747 6.44656 9.08893 6.34873 9.1804 6.34873H15.7249C15.8163 6.34873 15.9078 6.44656 15.9078 6.54439L15.9993 8.78102H15.1824L14.8197 7.80945C14.7282 7.4215 14.457 7.22584 14.0911 7.22584H13.0913C13.0882 7.22584 13.0882 7.128 13.0882 7.128Z" />
</svg>
