<!--
* SPDX-FileCopyrightText: © 2020 Liferay, Inc. <https://liferay.com>
* SPDX-FileCopyrightText: © 2020 Contributors to the project Clay <https://github.com/liferay/clay/graphs/contributors>
*
* SPDX-License-Identifier: BSD-3-Clause
-->
<svg xmlns="http://www.w3.org/2000/svg" viewBox="0 0 512 512">
	<rect class="lexicon-icon-body" fill="none" x="64" y="64" width="384" height="384"/>
	<path class="lexicon-icon-outline lx-theme-border" d="M448,0H64C28.7,0,0,28.7,0,64v384c0,35.3,28.7,64,64,64h384c35.3,0,64-28.7,64-64V64 C512,28.7,483.3,0,448,0z M64,64h384v384H64V64z"/>
	<path class="lexicon-icon-outline lx-theme-lines" d="M209,352h-98c-8.3,0-15,6.4-15,14.2v35.6c0,7.9,6.7,14.2,15,14.2h98c8.3,0,15-6.4,15-14.2v-35.6 C224,358.4,217.3,352,209,352z M305.8,352h-35.6c-7.9,0-14.2,6.4-14.2,14.2v35.6c0,7.9,6.4,14.2,14.2,14.2h35.6 c7.9,0,14.2-6.4,14.2-14.2v-35.6C320,358.4,313.6,352,305.8,352z M401.8,352h-35.6c-7.9,0-14.2,6.4-14.2,14.2v35.6 c0,7.9,6.4,14.2,14.2,14.2h35.6c7.9,0,14.2-6.4,14.2-14.2v-35.6C416,358.4,409.6,352,401.8,352z"/>
	<path class="lexicon-icon-outline lx-theme-letters" d="M231.7,309.7c2.2,6.1,8.4,10.3,15.4,10.3h2.3c11,0,18.9-10.1,15.4-19.8L204.6,132 c-3.3-9.2-12.6-15.5-23-15.5h-1.4c-10.5,0-19.7,6.3-23,15.5L96.8,300.2c-3.5,9.8,4.3,19.8,15.4,19.8h2.3c7,0,13.1-4.1,15.4-10.3 l14.5-40.6h72.8L231.7,309.7z M155.2,235.2l25.5-67.8l25.5,67.8H155.2z M405.3,192h-11.8c-5.3,0-9.6,4.3-9.6,9.6 c-9.6-6.4-19.3-9.6-32.1-9.6c-83.5,0-86.7,128,0,128c12.8,0,22.5-3.2,32.1-9.6c0,5.3,4.3,9.6,9.6,9.6h11.8c5.9,0,10.7-4.8,10.7-10.7 V202.7C416,196.8,411.2,192,405.3,192z M352.1,288c-41.1,0-44.5-64,0-64C395.2,224,394,288,352.1,288z"/>
</svg>