<!--
* SPDX-FileCopyrightText: © 2020 Liferay, Inc. <https://liferay.com>
* SPDX-FileCopyrightText: © 2020 Contributors to the project Clay <https://github.com/liferay/clay/graphs/contributors>
*
* SPDX-License-Identifier: BSD-3-Clause
-->
<svg viewBox="0 0 16 16" xmlns="http://www.w3.org/2000/svg"><path d="M14 .005H2c-1.104 0-2 .897-2 2v12c0 1.103.896 2 2 2h12c1.102 0 2-.897 2-2v-12c0-1.103-.898-2-2-2Zm-12 2h12v12H2v-12Z"/><path d="M6.53 11.005H3.469c-.26 0-.469.2-.469.444v1.112c0 .247.21.444.469.444h3.063c.259 0 .468-.2.468-.444V11.45a.457.457 0 0 0-.468-.444Zm3.026 0H8.443c-.247 0-.444.2-.444.444v1.112c0 .247.2.444.444.444h1.113c.246 0 .443-.2.443-.444V11.45c0-.244-.2-.444-.443-.444Zm3 0h-1.113c-.247 0-.444.2-.444.444v1.112c0 .247.2.444.444.444h1.113c.246 0 .443-.2.443-.444V11.45c0-.244-.2-.444-.444-.444Z"/><path fill-rule="evenodd" clip-rule="evenodd" d="M7.24 9.683c.069.19.262.322.481.322h.072c.344 0 .59-.316.481-.619L6.393 4.13a.759.759 0 0 0-.719-.484H5.63a.756.756 0 0 0-.718.484L3.024 9.386c-.11.307.135.619.481.619h.072c.219 0 .41-.128.482-.322l.453-1.269h2.275l.453 1.27ZM4.85 7.355l.796-2.119.797 2.119H4.849Zm7.815-1.35h-.369a.3.3 0 0 0-.3.3 1.7 1.7 0 0 0-1.003-.3c-2.61 0-2.71 4 0 4 .4 0 .703-.1 1.003-.3a.3.3 0 0 0 .3.3h.369c.184 0 .334-.15.334-.334V6.339a.335.335 0 0 0-.334-.334Zm-1.662 3c-1.285 0-1.391-2 0-2 1.346 0 1.309 2 0 2Z"/></svg>
