<!--
* SPDX-FileCopyrightText: © 2020 Liferay, Inc. <https://liferay.com>
* SPDX-FileCopyrightText: © 2020 Contributors to the project Clay <https://github.com/liferay/clay/graphs/contributors>
*
* SPDX-License-Identifier: BSD-3-Clause
-->
<svg  viewBox="0 0 16 16" xmlns="http://www.w3.org/2000/svg">
<path class="lexicon-icon-outline" d="M13.9993 0.00512695H1.99927C0.896143 0.00512695 -0.000732422 0.902002 -0.000732422 2.00513V14.0051C-0.000732422 15.1083 0.896143 16.0051 1.99927 16.0051H13.9993C15.1024 16.0051 15.9993 15.1083 15.9993 14.0051V2.00513C15.9993 0.902002 15.1024 0.00512695 13.9993 0.00512695ZM1.99927 2.00513H13.9993V14.0051H1.99927V2.00513Z" />
<path class="lexicon-icon-outline" d="M6.53052 11.0051H3.46802C3.20864 11.0051 2.99927 11.2051 2.99927 11.4489V12.5614C2.99927 12.8083 3.20864 13.0051 3.46802 13.0051H6.53052C6.78989 13.0051 6.99927 12.8051 6.99927 12.5614V11.4489C6.99927 11.2051 6.78989 11.0051 6.53052 11.0051ZM9.55552 11.0051H8.44302C8.19614 11.0051 7.99927 11.2051 7.99927 11.4489V12.5614C7.99927 12.8083 8.19927 13.0051 8.44302 13.0051H9.55552C9.80239 13.0051 9.99927 12.8051 9.99927 12.5614V11.4489C9.99927 11.2051 9.79927 11.0051 9.55552 11.0051ZM12.5555 11.0051H11.443C11.1961 11.0051 10.9993 11.2051 10.9993 11.4489V12.5614C10.9993 12.8083 11.1993 13.0051 11.443 13.0051H12.5555C12.8024 13.0051 12.9993 12.8051 12.9993 12.5614V11.4489C12.9993 11.2051 12.7993 11.0051 12.5555 11.0051Z" />
<path class="lexicon-icon-outline" fill-rule="evenodd" clip-rule="evenodd" d="M7.23979 9.68325C7.30854 9.87388 7.50229 10.0051 7.72104 10.0051H7.79291C8.13666 10.0051 8.38354 9.6895 8.27416 9.38638L6.39291 4.13013C6.28979 3.84263 5.99916 3.64575 5.67416 3.64575H5.63041C5.30229 3.64575 5.01479 3.84263 4.91166 4.13013L3.02416 9.38638C2.91479 9.69263 3.15854 10.0051 3.50541 10.0051H3.57729C3.79604 10.0051 3.98666 9.877 4.05854 9.68325L4.51166 8.4145H6.78666L7.23979 9.68325ZM4.84916 7.35513L5.64604 5.23638L6.44291 7.35513H4.84916Z" />
<path class="lexicon-icon-outline" fill-rule="evenodd" clip-rule="evenodd" d="M12.665 6.00513H12.2963C12.1306 6.00513 11.9963 6.1395 11.9963 6.30513C11.6963 6.10513 11.3931 6.00513 10.9931 6.00513C8.38376 6.00513 8.28376 10.0051 10.9931 10.0051C11.3931 10.0051 11.6963 9.90513 11.9963 9.70513C11.9963 9.87075 12.1306 10.0051 12.2963 10.0051H12.665C12.8494 10.0051 12.9994 9.85513 12.9994 9.67075V6.3395C12.9994 6.15513 12.8494 6.00513 12.665 6.00513ZM11.0025 9.00513C9.71814 9.00513 9.61189 7.00513 11.0025 7.00513C12.3494 7.00513 12.3119 9.00513 11.0025 9.00513Z" /><rect class="lexicon-icon-outline"   transform="translate(0 0.00305176)"/>
</svg>
