<!--
* SPDX-FileCopyrightText: © 2022 Liferay, Inc. <https://liferay.com>
* SPDX-FileCopyrightText: © 2022 Contributors to the project Clay <https://github.com/liferay/clay/graphs/contributors>
*
* SPDX-License-Identifier: BSD-3-Clause
-->
<svg viewBox="0 0 16 16" xmlns="http://www.w3.org/2000/svg"><path class="lexicon-icon-outline" d="M14 .002H2c-1.103 0-2 .897-2 2v12c0 1.103.897 2 2 2h12c1.103 0 2-.897 2-2v-12c0-1.103-.897-2-2-2Zm-12 2h12v12H2v-12Z"/><path class="lexicon-icon-outline" d="M6.531 11.002H3.47c-.26 0-.469.2-.469.444v1.112c0 .247.21.444.469.444h3.06c.26 0 .469-.2.469-.444v-1.112a.457.457 0 0 0-.469-.444Zm3.025 0H8.444c-.247 0-.444.2-.444.444v1.112c0 .247.2.444.444.444h1.112c.247 0 .444-.2.444-.444v-1.112c0-.244-.2-.444-.444-.444Zm3 0h-1.112c-.247 0-.444.2-.444.444v1.112c0 .247.2.444.444.444h1.112c.247 0 .444-.2.444-.444v-1.112c0-.244-.2-.444-.444-.444Z"/><path class="lexicon-icon-outline" fill-rule="evenodd" clip-rule="evenodd" d="M7.24 9.68a.51.51 0 0 0 .482.322h.072c.343 0 .59-.316.48-.619l-1.88-5.256a.759.759 0 0 0-.72-.484h-.043a.756.756 0 0 0-.719.484L3.025 9.383c-.11.307.134.62.481.62h.072c.219 0 .41-.129.481-.323l.453-1.269h2.275l.454 1.27ZM4.85 7.352l.797-2.119.797 2.12H4.85Zm7.816-1.35h-.369a.3.3 0 0 0-.3.3c-.3-.2-.603-.3-1.003-.3-2.61 0-2.71 4 0 4 .4 0 .703-.1 1.003-.3a.3.3 0 0 0 .3.3h.369c.184 0 .334-.15.334-.334V6.336a.335.335 0 0 0-.334-.334Zm-1.663 3c-1.284 0-1.39-2 0-2 1.347 0 1.31 2 0 2Z"/></svg>