<!--
* SPDX-FileCopyrightText: © 2020 Liferay, Inc. <https://liferay.com>
* SPDX-FileCopyrightText: © 2020 Contributors to the project Clay <https://github.com/liferay/clay/graphs/contributors>
*
* SPDX-License-Identifier: BSD-3-Clause
-->
<svg  viewBox="0 0 16 16" xmlns="http://www.w3.org/2000/svg">
<path class="lexicon-icon-outline" fill-rule="evenodd" clip-rule="evenodd" d="M9.62588 3.46823C9.62588 3.46823 11.0014 3.38898 10.9993 5.06815C10.9993 10.3177 8.76728 11.0031 6.69856 11.0031H3.06042C2.50814 11.0031 2.06042 10.5553 2.06042 10.0031V4.14932C3.08247 4.14932 3.59938 3.09634 4.11221 2.05166C4.7314 0.790307 5.34466 -0.458946 6.83397 0.17201C7.36699 0.39904 8.29762 1.18079 7.30036 3.46394L9.62588 3.46823ZM3.43596 9.63231H6.67707C8.11196 9.63231 9.37309 9.06008 9.58252 5.83723C9.61832 5.28629 9.16555 4.83662 8.61345 4.83636L6.18682 4.83522C5.84307 4.83469 5.15556 4.69836 5.45059 4.14932C6.33773 2.49834 6.62035 1.57498 6.18682 1.40528C5.8341 1.26722 5.31852 2.17407 4.79779 3.09C4.30355 3.95933 3.80466 4.83683 3.43596 4.83683V9.63231Z" />
<path class="lexicon-icon-outline" d="M-0.000732422 10.3177V4.83469C-0.000732422 3.93942 1.37266 3.90301 1.3748 4.83469V10.3177C1.3748 11.2301 -0.000732422 11.2301 -0.000732422 10.3177Z" />
<path class="lexicon-icon-outline" d="M3.79198 15.6975C4.15684 16.0737 4.75023 16.1044 5.15196 15.7679L6.89966 14.3039L8.29907 15.7049C8.69946 16.1052 9.29907 16.1052 9.69946 15.7049L14.0989 11.3016L14.6995 11.9021C14.9993 12.2023 15.4993 12.0021 15.4993 11.6019L15.9993 8.59959C15.9993 8.19926 15.6995 7.99913 15.2991 7.99913L12.2991 8.4995C11.8997 8.4995 11.6995 8.99986 11.9993 9.30009L12.5989 9.90056L8.89966 13.6033L7.59888 12.3024C7.19946 11.9021 6.69946 11.9021 6.29907 12.2023L3.85056 14.1978C3.39607 14.5682 3.35628 15.2483 3.76447 15.6692L3.79198 15.6975Z" />
</svg>
