<!--
* SPDX-FileCopyrightText: © 2022 Liferay, Inc. <https://liferay.com>
* SPDX-FileCopyrightText: © 2022 Contributors to the project Clay <https://github.com/liferay/clay/graphs/contributors>
*
* SPDX-License-Identifier: BSD-3-Clause
-->
<svg viewBox="0 0 16 16" xmlns="http://www.w3.org/2000/svg"><path class="lexicon-icon-outline" d="M16 7.37c.003-2.443-1.998-2.328-1.998-2.328l-3.382-.006c1.45-3.32.097-4.458-.679-4.788C5.981-1.43 6.28 6.033 2.998 6.033v8.97a1 1 0 0 0 1 1h5.746c3.01 0 6.256-.998 6.256-8.634Zm-6.287 6.638H5V7.033c1.1 0 3-5.383 4-4.991.63.247.22 1.59-1.07 3.991-.43.799.57.997 1.07.998l3.984.002a.97.97 0 0 1 .98 1c-.214 5.09-2.098 5.975-4.25 5.975ZM0 7.03v7.975c0 1.327 2 1.327 2 0V7.03c-.002-1.355-2-1.302-2 0Z"/></svg>