<!--
* SPDX-FileCopyrightText: © 2020 Liferay, Inc. <https://liferay.com>
* SPDX-FileCopyrightText: © 2020 Contributors to the project Clay <https://github.com/liferay/clay/graphs/contributors>
*
* SPDX-License-Identifier: BSD-3-Clause
-->
<svg xmlns="http://www.w3.org/2000/svg" viewBox="0 0 512 512">
	<path class="lexicon-icon-outline thumbs-up-thumb-border" d="M511.9,234.9c0.1-78.4-63.9-74.7-63.9-74.7L339.8,160c46.4-106.6,3.1-143.1-21.7-153.7c-91.5-38.9-134.4,110.3-180,185.7H96v320h215.8c56.4,0,136.1-59.7,136.1-128v-36C506.3,328.5,512.1,286.9,511.9,234.9z M384.1,288v96c0,37.4-58.5,64-73.3,64H160V256h17c25.5-44.1,97.7-209,116.9-190.8c10.1,9.6-2.9,61.6-57.8,158.8l211.3,0.1C451.9,295.6,441.5,288.1,384.1,288z"/>
	<path class="lexicon-icon-outline thumbs-up-cuff" d="M0.1,224v256c0,42.6,64,42.6,64,0V224C64,180.5,0.1,182.2,0.1,224z"/>
</svg>