<!--
* SPDX-FileCopyrightText: © 2020 Liferay, Inc. <https://liferay.com>
* SPDX-FileCopyrightText: © 2020 Contributors to the project Clay <https://github.com/liferay/clay/graphs/contributors>
*
* SPDX-License-Identifier: BSD-3-Clause
-->
<svg  viewBox="0 0 16 16" xmlns="http://www.w3.org/2000/svg">
<path class="lexicon-icon-outline" d="M-0.000827145 8.63771C-0.0039535 11.0801 1.99681 10.9649 1.99681 10.9649L5.37935 10.9711C3.9288 14.292 5.28244 15.4291 6.05773 15.7594C10.0181 17.4372 9.71945 9.97419 13.001 9.97419L13.001 1.00513C13.001 0.452843 12.5533 0.00512665 12.001 0.0051266L6.25468 0.0051261C3.24567 0.00512584 -0.000825524 1.00203 -0.000827145 8.63771ZM6.28595 1.99894L11.0002 1.99894L11.0002 8.97417C9.89892 8.97417 7.99902 14.3569 6.99902 13.9655C6.36845 13.7187 6.77953 12.3756 8.0699 9.97419C8.49902 9.17558 7.49902 8.97729 6.99902 8.97652L3.01509 8.97464C2.46299 8.97438 2.01254 8.52502 2.03569 7.97341C2.24924 2.8845 4.13313 1.99894 6.28595 1.99894Z" />
<path class="lexicon-icon-outline" d="M15.999 8.97729L15.999 1.00203C15.999 -0.325098 13.9983 -0.325098 13.9983 1.00203L13.9983 8.97729C14.0014 10.3325 15.999 10.2795 15.999 8.97729Z" />
</svg>
