<!--
* SPDX-FileCopyrightText: © 2020 Liferay, Inc. <https://liferay.com>
* SPDX-FileCopyrightText: © 2020 Contributors to the project Clay <https://github.com/liferay/clay/graphs/contributors>
*
* SPDX-License-Identifier: BSD-3-Clause
-->
<svg viewBox="0 0 16 16" xmlns="http://www.w3.org/2000/svg"><path class="lexicon-icon-outline" d="M16 7.372c.002-2.442-1.998-2.327-1.998-2.327l-3.383-.006c1.45-3.32.097-4.458-.678-4.788-3.96-1.678-3.662 5.785-6.944 5.785v8.969a1 1 0 0 0 1 1h5.747c3.009 0 6.255-.997 6.255-8.633Zm-6.288 6.64H4.998V7.035C6.1 7.036 8 1.653 9 2.045c.63.246.22 1.59-1.07 3.99-.43.8.57.998 1.07.999l3.984.001a.97.97 0 0 1 .98 1.002c-.214 5.089-2.098 5.974-4.25 5.974ZM0 7.033v7.975c0 1.327 2 1.327 2 0V7.033c-.003-1.355-2-1.302-2 0Z" /></svg>