<!--
* SPDX-FileCopyrightText: © 2020 Liferay, Inc. <https://liferay.com>
* SPDX-FileCopyrightText: © 2020 Contributors to the project Clay <https://github.com/liferay/clay/graphs/contributors>
*
* SPDX-License-Identifier: BSD-3-Clause
-->
<svg  viewBox="0 0 16 16" xmlns="http://www.w3.org/2000/svg">
<path class="lexicon-icon-outline" d="M15.9991 7.37254C16.0022 4.93012 14.0015 5.04538 14.0015 5.04538L10.6189 5.03915C12.0695 1.71821 10.7159 0.58111 9.94056 0.250885C5.98018 -1.42697 6.27884 6.03606 2.99729 6.03606V15.0051C2.99729 15.5574 3.445 16.0051 3.99729 16.0051H9.74361C12.7526 16.0051 15.9991 15.0082 15.9991 7.37254ZM9.71235 14.0113H4.99805V7.03608C6.09937 7.03608 7.99927 1.65331 8.99927 2.04474C9.62984 2.29156 9.21877 3.63463 7.92839 6.03606C7.49927 6.83467 8.49927 7.03297 8.99927 7.03373L12.9832 7.03561C13.5353 7.03587 13.9857 7.48523 13.9626 8.03685C13.7491 13.1258 11.8652 14.0113 9.71235 14.0113Z" />
<path class="lexicon-icon-outline" d="M-0.000732422 7.03297V15.0082C-0.000732422 16.3354 2.00003 16.3354 2.00003 15.0082V7.03297C1.9969 5.6778 -0.000732422 5.73076 -0.000732422 7.03297Z" />
</svg>
