<!--
* SPDX-FileCopyrightText: © 2022 Liferay, Inc. <https://liferay.com>
* SPDX-FileCopyrightText: © 2022 Contributors to the project Clay <https://github.com/liferay/clay/graphs/contributors>
*
* SPDX-License-Identifier: BSD-3-Clause
-->
<svg viewBox="0 0 16 16" xmlns="http://www.w3.org/2000/svg"><path class="lexicon-icon-outline" fill-rule="evenodd" clip-rule="evenodd" d="M9.627 3.465s1.375-.08 1.373 1.6C11 10.315 8.768 11 6.7 11H3.06a1 1 0 0 1-1-1V4.146c1.022 0 1.54-1.053 2.052-2.097C4.733.787 5.345-.462 6.835.169c.533.227 1.463 1.009.466 3.292l2.326.004ZM3.437 9.63h3.24c1.436 0 2.697-.572 2.906-3.795.036-.55-.417-1-.969-1l-2.426-.002c-.344 0-1.032-.137-.737-.686.887-1.65 1.17-2.574.737-2.744-.353-.138-.869.769-1.39 1.685-.494.87-.993 1.747-1.361 1.747V9.63Z"/><path class="lexicon-icon-outline" d="M0 10.315V4.832c0-.896 1.373-.932 1.376 0v5.483c0 .912-1.376.912-1.376 0Zm3.793 5.379a1 1 0 0 0 1.36.07L6.9 14.302l1.4 1.4c.4.401 1 .401 1.4 0l4.4-4.402.6.6c.3.3.8.1.8-.3l.5-3.002c0-.4-.3-.6-.7-.6l-3 .5c-.4 0-.6.5-.3.8l.6.6L8.9 13.6l-1.3-1.3c-.4-.401-.9-.401-1.3-.1l-2.45 1.994a1 1 0 0 0-.086 1.471l.028.028Z"/></svg>