<!--
* SPDX-FileCopyrightText: © 2022 Liferay, Inc. <https://liferay.com>
* SPDX-FileCopyrightText: © 2022 Contributors to the project Clay <https://github.com/liferay/clay/graphs/contributors>
*
* SPDX-License-Identifier: BSD-3-Clause
-->
<svg viewBox="0 0 16 16" xmlns="http://www.w3.org/2000/svg"><path class="lexicon-icon-outline" d="M0 8.635c-.003 2.442 1.998 2.327 1.998 2.327l3.382.006c-1.45 3.321-.097 4.458.678 4.788 3.96 1.678 3.662-5.785 6.944-5.785V1.002a1 1 0 0 0-1-1H6.255C3.246.002 0 1 0 8.635Zm6.287-6.64H11v6.976c-1.1 0-3 5.383-4 4.992-.63-.247-.22-1.59 1.07-3.992.43-.798-.57-.997-1.07-.998l-3.984-.001a.97.97 0 0 1-.98-1.002c.214-5.089 2.098-5.974 4.25-5.974ZM16 8.974V1c0-1.327-2.001-1.327-2.001 0v7.975c.003 1.355 2 1.302 2 0Z"/></svg>