<!--
* SPDX-FileCopyrightText: © 2020 Liferay, Inc. <https://liferay.com>
* SPDX-FileCopyrightText: © 2020 Contributors to the project Clay <https://github.com/liferay/clay/graphs/contributors>
*
* SPDX-License-Identifier: BSD-3-Clause
-->
<svg  viewBox="0 0 16 16" xmlns="http://www.w3.org/2000/svg">
<path class="lexicon-icon-outline" d="M1.99691 10.9649C1.99691 10.9649 -0.00385512 11.0801 -0.000728762 8.63771C-0.000727139 1.00203 3.24577 0.00512669 6.25478 0.00512695L12.0011 0.00512745C12.5534 0.0051275 13.0011 0.451509 13.0011 1.00215L13.0011 9.97419C11.5145 9.97419 10.7626 11.5058 10.0167 13.0253C9.11608 14.86 8.22408 16.6771 6.05783 15.7594C5.28254 15.4291 3.92889 14.292 5.37945 10.9711L1.99691 10.9649Z" />
<path class="lexicon-icon-outline" d="M15.9991 1.00203L15.9991 8.97729C15.9991 10.2795 14.0015 10.3325 13.9984 8.97729L13.9984 1.00203C13.9984 -0.325098 15.9991 -0.325097 15.9991 1.00203Z" />
</svg>
