<!--
* SPDX-FileCopyrightText: © 2020 Liferay, Inc. <https://liferay.com>
* SPDX-FileCopyrightText: © 2020 Contributors to the project Clay <https://github.com/liferay/clay/graphs/contributors>
*
* SPDX-License-Identifier: BSD-3-Clause
-->
<svg  viewBox="0 0 16 16" xmlns="http://www.w3.org/2000/svg">
<path class="lexicon-icon-outline" fill-rule="evenodd" clip-rule="evenodd" d="M8 0.00305176C3.58789 0.00305176 0 3.59045 0 8.00305C0 12.4156 3.58789 16.0031 8 16.0031C12.4121 16.0031 16 12.4156 16 8.00305C16 3.59045 12.4121 0.00305176 8 0.00305176ZM12.5938 12.5968C11.9971 13.1937 11.2998 13.6656 10.5254 13.9938C9.72461 14.3312 8.875 14.5031 8 14.5031C7.125 14.5031 6.27539 14.3312 5.47461 13.9938C4.7002 13.6656 4.00586 13.1969 3.40625 12.5968C2.80664 11.9967 2.33789 11.3031 2.00977 10.528C1.67188 9.72815 1.5 8.87805 1.5 8.00305C1.5 7.12805 1.67188 6.27795 2.00977 5.47815C2.33789 4.703 2.80664 4.0094 3.40625 3.4093C4.00586 2.8092 4.7002 2.34045 5.47461 2.01233C6.27539 1.67493 7.125 1.50305 8 1.50305C8.875 1.50305 9.72461 1.67493 10.5254 2.01233C11.0234 2.22327 11.4883 2.49231 11.916 2.81677C12.1533 2.99719 12.3799 3.19495 12.5938 3.4093C13.1934 4.0094 13.6621 4.703 13.9902 5.47815C14.3281 6.27795 14.5 7.12805 14.5 8.00305C14.5 8.87805 14.3281 9.72815 13.9902 10.528C13.6621 11.3031 13.1904 11.9967 12.5938 12.5968ZM11.5439 5.86536L9.42188 7.98743L11.5752 10.1405C11.9658 10.5311 11.9658 11.1654 11.5752 11.556C11.1846 11.9467 10.5498 11.9467 10.1592 11.556L8.00586 9.40295L5.88477 11.5248C5.49414 11.9154 4.85938 11.9154 4.46875 11.5248C4.07812 11.1342 4.07812 10.4999 4.46875 10.1093L6.59082 7.98743L4.46875 5.86536C4.07812 5.47473 4.07812 4.84045 4.46875 4.44983C4.85938 4.0592 5.49414 4.0592 5.88477 4.44983L8.00586 6.57166L10.1279 4.44983C10.29 4.28723 10.4951 4.19226 10.707 4.16492C11.0039 4.12683 11.3154 4.2218 11.5439 4.44983C11.9346 4.84045 11.9346 5.47473 11.5439 5.86536Z" />
</svg>
