<!--
* SPDX-FileCopyrightText: © 2020 Liferay, Inc. <https://liferay.com>
* SPDX-FileCopyrightText: © 2020 Contributors to the project Clay <https://github.com/liferay/clay/graphs/contributors>
*
* SPDX-License-Identifier: BSD-3-Clause
-->
<svg  viewBox="0 0 16 16" xmlns="http://www.w3.org/2000/svg">
<path class="lexicon-icon-outline" fill-rule="evenodd" clip-rule="evenodd" d="M13.6562 2.3468C12.1465 0.834351 10.1377 0.00305176 8 0.00305176C5.8623 0.00305176 3.85352 0.834351 2.34375 2.3468C0.831055 3.8562 0 5.8656 0 8.00305C0 10.1405 0.831055 12.1499 2.34375 13.6593C3.85645 15.1718 5.8623 16.0031 8 16.0031C10.1377 16.0031 12.1465 15.1718 13.6562 13.6593C15.1689 12.1469 16 10.1405 16 8.00305C16 5.8656 15.1689 3.8562 13.6562 2.3468ZM8 14.0031C4.69043 14.0031 2 11.3124 2 8.00305C2 4.69373 4.69043 2.00305 8 2.00305C11.3096 2.00305 14 4.69373 14 8.00305C14 11.3124 11.3096 14.0031 8 14.0031ZM6 11.0031C5.87207 11.0031 5.74316 10.953 5.64648 10.8562C5.4502 10.6625 5.4502 10.3436 5.64648 10.1499L7.14648 8.6499C7.05273 8.453 7 8.23425 7 8.00305C7 7.34998 7.41895 6.7937 8 6.5874V3.50305C8 3.22803 8.22461 3.00305 8.5 3.00305C8.77441 3.00305 9 3.22803 9 3.50305V6.5874C9.58105 6.7937 10 7.34998 10 8.00305C10 8.83118 9.32812 9.50305 8.5 9.50305C8.26855 9.50305 8.0498 9.44995 7.85254 9.3562L6.35254 10.8562C6.25586 10.953 6.12793 11.0031 6 11.0031Z" />
</svg>
