<!--
* SPDX-FileCopyrightText: © 2022 Liferay, Inc. <https://liferay.com>
* SPDX-FileCopyrightText: © 2022 Contributors to the project Clay <https://github.com/liferay/clay/graphs/contributors>
*
* SPDX-License-Identifier: BSD-3-Clause
-->
<svg viewBox="0 0 16 16" xmlns="http://www.w3.org/2000/svg"><path class="lexicon-icon-outline" fill-rule="evenodd" clip-rule="evenodd" d="M8 .002c-4.412 0-8 3.587-8 8s3.588 8 8 8 8-3.587 8-8-3.588-8-8-8Zm4.594 12.594A6.47 6.47 0 0 1 8 14.502a6.47 6.47 0 0 1-4.594-1.906A6.456 6.456 0 0 1 1.5 8.002a6.455 6.455 0 0 1 1.906-4.594A6.47 6.47 0 0 1 8 1.502a6.47 6.47 0 0 1 4.594 1.906A6.455 6.455 0 0 1 14.5 8.002a6.455 6.455 0 0 1-1.906 4.594Zm-1.05-6.732L9.422 7.986l2.153 2.154a1.002 1.002 0 0 1-1.416 1.415L8.006 9.402l-2.121 2.122a1.002 1.002 0 0 1-1.416-1.416L6.59 7.986 4.469 5.864A1.001 1.001 0 0 1 5.885 4.45l2.12 2.122 2.123-2.122a1.002 1.002 0 0 1 1.416 1.416Z"/></svg>