<!--
* SPDX-FileCopyrightText: © 2020 Liferay, Inc. <https://liferay.com>
* SPDX-FileCopyrightText: © 2020 Contributors to the project Clay <https://github.com/liferay/clay/graphs/contributors>
*
* SPDX-License-Identifier: BSD-3-Clause
-->
<svg viewBox="0 0 16 16" xmlns="http://www.w3.org/2000/svg"><path fill-rule="evenodd" clip-rule="evenodd" d="M13.656 2.347A7.937 7.937 0 0 0 8 .003a7.937 7.937 0 0 0-5.656 2.344A7.936 7.936 0 0 0 0 8.003c0 2.137.831 4.147 2.344 5.656A7.942 7.942 0 0 0 8 16.003a7.937 7.937 0 0 0 5.656-2.344A7.941 7.941 0 0 0 16 8.003a7.936 7.936 0 0 0-2.344-5.656ZM8 14.003c-3.31 0-6-2.69-6-6s2.69-6 6-6 6 2.69 6 6-2.69 6-6 6Zm-2-3a.5.5 0 0 1-.354-.853l1.5-1.5A1.5 1.5 0 0 1 8 6.587V3.503a.501.501 0 0 1 1 0v3.084a1.5 1.5 0 1 1-1.147 2.769l-1.5 1.5a.498.498 0 0 1-.353.147Z"/></svg>
