<!--
* SPDX-FileCopyrightText: © 2020 Liferay, Inc. <https://liferay.com>
* SPDX-FileCopyrightText: © 2020 Contributors to the project Clay <https://github.com/liferay/clay/graphs/contributors>
*
* SPDX-License-Identifier: BSD-3-Clause
-->
<svg  viewBox="0 0 16 16" xmlns="http://www.w3.org/2000/svg">
<path class="lexicon-icon-outline" fill-rule="evenodd" clip-rule="evenodd" d="M4.99927 3.00513H10.9993C12.1028 3.00513 12.9993 3.902 12.9993 5.00513V15.0051C12.9993 15.5574 12.5516 16.0051 11.9993 16.0051C11.447 16.0051 10.9993 15.5574 10.9993 15.0051V13.0051H4.99927C3.89575 13.0051 2.99927 12.1083 2.99927 11.0051V1.00513C2.99927 0.452842 3.44698 0.00512695 3.99927 0.00512695C4.55155 0.00512695 4.99927 0.452842 4.99927 1.00513V3.00513ZM4.99927 5.00513V11.0051H10.9993V5.00513H4.99927ZM13.9993 11.0051H14.9993C15.5516 11.0051 15.9993 11.4528 15.9993 12.0051C15.9993 12.5574 15.5516 13.0051 14.9993 13.0051H13.9993V11.0051ZM1.99927 3.00513H0.999268C0.446983 3.00513 -0.000732422 3.45284 -0.000732422 4.00513C-0.000732422 4.55741 0.446983 5.00513 0.999268 5.00513H1.99927V3.00513Z" />
</svg>
