<!--
* SPDX-FileCopyrightText: © 2020 Liferay, Inc. <https://liferay.com>
* SPDX-FileCopyrightText: © 2020 Contributors to the project Clay <https://github.com/liferay/clay/graphs/contributors>
*
* SPDX-License-Identifier: BSD-3-Clause
-->
<svg  viewBox="0 0 16 16" xmlns="http://www.w3.org/2000/svg">
<path class="lexicon-icon-outline" fill-rule="evenodd" clip-rule="evenodd" d="M9.99927 0.00512695C10.5516 0.00512695 10.9993 0.452842 10.9993 1.00513V1.03437H13.0121C13.5573 1.03437 13.9993 1.47632 13.9993 2.0215C13.9993 2.56668 13.5573 3.00864 13.0121 3.00864H2.9864C2.44122 3.00864 1.99927 2.56668 1.99927 2.0215C1.99927 1.47632 2.44122 1.03437 2.9864 1.03437H4.99927V1.00513C4.99927 0.452842 5.44698 0.00512695 5.99927 0.00512695H9.99927ZM1.99927 13.7782C1.99927 15.0071 2.99927 16.0051 4.23071 16.0051H11.7649C12.9963 16.0051 13.9963 15.0071 13.9963 13.7782V6.02852C13.9963 4.92395 13.1009 4.02852 11.9963 4.02852H3.99927C2.8947 4.02852 1.99927 4.92395 1.99927 6.02852V13.7782ZM3.99927 6.02462H11.9993V13.2667C11.9993 13.6753 11.6653 14.009 11.2551 14.009H4.74341C4.33325 14.009 3.99927 13.6753 3.99927 13.2667V6.02462ZM8.99927 6.99149H10.9993V12.9798H8.99927V6.99149ZM6.99927 6.99149H4.99927V12.9798H6.99927V6.99149Z" />
</svg>
