<!--
* SPDX-FileCopyrightText: © 2022 Liferay, Inc. <https://liferay.com>
* SPDX-FileCopyrightText: © 2022 Contributors to the project Clay <https://github.com/liferay/clay/graphs/contributors>
*
* SPDX-License-Identifier: BSD-3-Clause
-->
<svg viewBox="0 0 16 16" xmlns="http://www.w3.org/2000/svg"><path class="lexicon-icon-outline" fill-rule="evenodd" clip-rule="evenodd" d="M10 0a1 1 0 0 1 1 1v.03h2.013a.987.987 0 0 1 0 1.974H2.987a.987.987 0 0 1 0-1.974H5V1a1 1 0 0 1 1-1h4ZM2 13.773C2 15.002 3 16 4.231 16h7.535a2.23 2.23 0 0 0 2.231-2.227v-7.75a2 2 0 0 0-2-2H4a2 2 0 0 0-2 2v7.75ZM4 6.02h8v7.243a.745.745 0 0 1-.744.742H4.744A.745.745 0 0 1 4 13.262V6.019Zm5 .967h2v5.989H9v-5.99Zm-2 0H5v5.989h2v-5.99Z" /></svg>