<!--
* SPDX-FileCopyrightText: © 2022 Liferay, Inc. <https://liferay.com>
* SPDX-FileCopyrightText: © 2022 Contributors to the project Clay <https://github.com/liferay/clay/graphs/contributors>
*
* SPDX-License-Identifier: BSD-3-Clause
-->
<svg viewBox="0 0 16 16" xmlns="http://www.w3.org/2000/svg"><path class="lexicon-icon-outline" fill-rule="evenodd" clip-rule="evenodd" d="M15.932 8.453c.096-.447.04-.75-.1-1.127l-1.705-4.23c-.218-.543-.942-1.11-1.638-1.126H10.99c-.021-.49-.38-.968-1.039-.968H.946c-.653 0-.958.521-.94 1.03H0v8.871c0 .712.503 1.09 1.002 1.102v.012c0 3.568 4.95 3.986 5.853.99h3.255c.924 2.91 5.843 2.684 5.843-.99 0-.63-.159-1.151-.409-1.585l.388-1.98ZM10.984 3.97h1.342l.812 2.02h-2.15V3.97h-.004Zm-7.981 8.037c0-1.345 2-1.355 2 0 0 1.361-2 1.317-2 0ZM13.756 9.11c-1.442-.362-3.14.272-3.646 1.892H6.845c-.658-2.123-3.349-2.55-4.841-1.29v-6.71h7.004v2.959c0 1.111.902 2.013 2.014 2.013h2.971l-.022.09-.215 1.046Zm-1.81 2.897c0-1.345 2-1.355 2 0 .004 1.361-2 1.317-2 0Z"/></svg>