<!--
* SPDX-FileCopyrightText: © 2020 Liferay, Inc. <https://liferay.com>
* SPDX-FileCopyrightText: © 2020 Contributors to the project Clay <https://github.com/liferay/clay/graphs/contributors>
*
* SPDX-License-Identifier: BSD-3-Clause
-->
<svg viewBox="0 0 16 16" xmlns="http://www.w3.org/2000/svg"><path fill-rule="evenodd" clip-rule="evenodd" d="M15.93 8.456c.098-.447.041-.75-.099-1.127l-1.704-4.23c-.219-.543-.943-1.11-1.639-1.126H10.99c-.022-.49-.381-.968-1.04-.968H.945c-.652 0-.958.521-.94 1.03H0v8.871c0 .712.503 1.09 1.002 1.102v.012c0 3.568 4.95 3.986 5.853.99h3.256c.923 2.909 5.843 2.684 5.843-.99 0-.63-.16-1.151-.41-1.585l.388-1.98Zm-4.947-4.483h1.343l.811 2.02h-2.15v-2.02h-.004Zm-7.98 8.038c-.001-1.345 2-1.355 2 0 0 1.361-2.001 1.317-2.001 0Zm10.752-2.897c-1.442-.362-3.14.272-3.646 1.892H6.845c-.658-2.123-3.349-2.55-4.84-1.29v-6.71h7.004v2.959c0 1.111.902 2.013 2.013 2.013h2.971l-.021.09-.216 1.046Zm-1.81 2.897c0-1.345 2-1.355 2 0 .004 1.361-2 1.317-2 0Z"/></svg>
