<!--
* SPDX-FileCopyrightText: © 2020 Liferay, Inc. <https://liferay.com>
* SPDX-FileCopyrightText: © 2020 Contributors to the project Clay <https://github.com/liferay/clay/graphs/contributors>
*
* SPDX-License-Identifier: BSD-3-Clause
-->
<svg  viewBox="0 0 16 16" xmlns="http://www.w3.org/2000/svg">
<path class="lexicon-icon-outline" fill-rule="evenodd" clip-rule="evenodd" d="M15.9308 8.45589C16.0276 8.00953 15.9714 7.70675 15.831 7.32907L14.1267 3.09958C13.9082 2.55646 13.184 1.98837 12.488 1.97276H10.9897C10.9678 1.4827 10.6089 1.00513 9.95026 1.00513H0.945049C0.292678 1.00513 -0.013218 1.5264 0.00551036 2.03519H-0.000732422V10.9062C-0.000732422 11.6179 0.501812 11.9955 1.00123 12.008C1.00123 12.0112 1.00123 12.0174 1.00123 12.0205C1.00123 15.5883 5.95176 16.0065 6.85384 13.01H10.1095C11.0334 15.9191 15.9527 15.6944 15.9527 12.0205C15.9527 11.39 15.7935 10.8687 15.5438 10.4349L15.9308 8.45589ZM10.9834 3.97357H12.3256L13.1372 5.99311H10.9866V3.97357H10.9834ZM3.00205 12.0112C3.00205 10.6658 5.00286 10.6565 5.00286 12.0112C5.00286 13.3721 3.00205 13.3284 3.00205 12.0112ZM13.7552 9.1145C12.3132 8.75242 10.6151 9.38606 10.1095 11.0061H6.84448C6.18586 8.88352 3.49523 8.45589 2.0032 9.71693V3.00594H9.0076V5.96502C9.0076 7.07623 9.90969 7.97831 11.0209 7.97831H13.9925L13.9706 8.06884L13.7552 9.1145ZM11.9448 12.0112C11.9448 10.6658 13.9456 10.6565 13.9456 12.0112C13.9488 13.3721 11.9448 13.3284 11.9448 12.0112Z" /><rect class="lexicon-icon-outline"   transform="translate(0 0.00305176)"/>
</svg>
