<!--
* SPDX-FileCopyrightText: © 2022 Liferay, Inc. <https://liferay.com>
* SPDX-FileCopyrightText: © 2022 Contributors to the project Clay <https://github.com/liferay/clay/graphs/contributors>
*
* SPDX-License-Identifier: BSD-3-Clause
-->
<svg viewBox="0 0 16 16" xmlns="http://www.w3.org/2000/svg"><path class="lexicon-icon-outline" d="M16 2.66a6.17 6.17 0 0 1-1.885.556 3.512 3.512 0 0 0 1.443-1.955 6.306 6.306 0 0 1-2.084.858c-.6-.688-1.452-1.117-2.397-1.117-1.813 0-3.282 1.583-3.282 3.535 0 .276.029.546.085.805-2.729-.148-5.147-1.555-6.766-3.693a3.727 3.727 0 0 0-.445 1.777c0 1.227.58 2.309 1.46 2.942a3.095 3.095 0 0 1-1.486-.442v.044c0 1.713 1.132 3.14 2.633 3.466a3.067 3.067 0 0 1-1.483.06c.418 1.404 1.63 2.426 3.067 2.454-1.124.948-2.54 1.513-4.077 1.513A6.12 6.12 0 0 1 0 13.414a8.815 8.815 0 0 0 5.033 1.588c6.038 0 9.34-5.386 9.34-10.057 0-.153-.004-.305-.01-.457A6.967 6.967 0 0 0 16 2.66Z"/></svg>