<!--
* SPDX-FileCopyrightText: © 2020 Liferay, Inc. <https://liferay.com>
* SPDX-FileCopyrightText: © 2020 Contributors to the project Clay <https://github.com/liferay/clay/graphs/contributors>
*
* SPDX-License-Identifier: BSD-3-Clause
-->
<svg  viewBox="0 0 16 16" xmlns="http://www.w3.org/2000/svg">
<path class="lexicon-icon-outline" d="M3.99927 14.4667C3.99927 14.1693 4.24035 13.9282 4.53773 13.9282H11.4608C11.7582 13.9282 11.9993 14.1693 11.9993 14.4667C11.9993 14.7641 11.7582 15.0051 11.4608 15.0051H4.53773C4.24035 15.0051 3.99927 14.7641 3.99927 14.4667ZM11.9993 7.46667V2.00513C11.9993 1.45284 11.5516 1.00513 10.9993 1.00513C10.447 1.00513 9.99927 1.45284 9.99927 2.00513V7.46667C9.99927 10.3474 5.99927 10.3474 5.99927 7.46667V2.00513C5.99927 1.45284 5.55155 1.00513 4.99927 1.00513C4.44698 1.00513 3.99927 1.45284 3.99927 2.00513C3.99927 3.8249 3.99927 5.64338 3.99927 7.46667C3.99927 13.2114 11.9993 13.2114 11.9993 7.46667Z" />
</svg>
