<!--
* SPDX-FileCopyrightText: © 2020 Liferay, Inc. <https://liferay.com>
* SPDX-FileCopyrightText: © 2020 Contributors to the project Clay <https://github.com/liferay/clay/graphs/contributors>
*
* SPDX-License-Identifier: BSD-3-Clause
-->
<svg  viewBox="0 0 16 16" xmlns="http://www.w3.org/2000/svg">
<path class="lexicon-icon-outline" d="M1.36548 4.05801L5.11548 0.365704C5.60376 -0.115065 6.39673 -0.115065 6.88501 0.365704C7.37329 0.846473 7.37329 1.62724 6.88501 2.10801L5.27563 3.69263H9.74829C13.1936 3.69263 15.9983 6.45416 15.9983 9.84647C15.9983 13.2388 13.1936 16.0003 9.74829 16.0003C9.05688 16.0003 8.49829 15.4503 8.49829 14.7696C8.49829 14.0888 9.05688 13.5388 9.74829 13.5388C11.8147 13.5388 13.4983 11.8811 13.4983 9.84647C13.4983 7.81186 11.8147 6.15417 9.74829 6.15417H5.2561L6.87329 7.74647C7.36157 8.22724 7.36157 9.00801 6.87329 9.48878C6.6311 9.72724 6.31079 9.85032 5.99048 9.85032C5.67017 9.85032 5.34985 9.73109 5.10767 9.48878L1.36548 5.79647C0.877197 5.3157 0.877197 4.53878 1.36548 4.05801Z" />
</svg>
