<!--
* SPDX-FileCopyrightText: © 2020 Liferay, Inc. <https://liferay.com>
* SPDX-FileCopyrightText: © 2020 Contributors to the project Clay <https://github.com/liferay/clay/graphs/contributors>
*
* SPDX-License-Identifier: BSD-3-Clause
-->
<svg  viewBox="0 0 16 16" xmlns="http://www.w3.org/2000/svg">
<path class="lexicon-icon-outline" fill-rule="evenodd" clip-rule="evenodd" d="M9.40909 3.58676C9.04741 3.22483 8.54775 3.00098 7.99585 3.00098C6.89203 3.00098 5.99722 3.89641 5.99722 5.00098V6.53157C5.99913 6.68486 6.00013 6.84139 6.00014 7.00098H7.99585V7.00391H11.4037C12.2839 7.00391 13.0022 7.72205 12.9993 8.60254V13.4014C12.9993 14.2849 12.281 15.0031 11.3998 15.0031H4.3987C3.51747 15.0031 2.99927 14.2819 2.99927 13.4014V8.60254C2.99927 7.8651 3.36276 7.24155 3.99858 7.05839V5.00098C3.99858 2.79184 5.78822 1.00098 7.99585 1.00098C9.04064 1.00098 9.9918 1.40209 10.704 2.05882C10.9463 2.24129 11.1031 2.53155 11.1031 2.85845C11.1031 3.41074 10.6557 3.85845 10.1038 3.85845C9.81307 3.85845 9.63757 3.74083 9.40909 3.58676ZM6.99946 13.0049H9.00102V10.0044H6.99946V13.0049Z" />
</svg>
