<!--
* SPDX-FileCopyrightText: © 2022 Liferay, Inc. <https://liferay.com>
* SPDX-FileCopyrightText: © 2022 Contributors to the project Clay <https://github.com/liferay/clay/graphs/contributors>
*
* SPDX-License-Identifier: BSD-3-Clause
-->
<svg viewBox="0 0 16 16" xmlns="http://www.w3.org/2000/svg"><path class="lexicon-icon-outline" fill-rule="evenodd" clip-rule="evenodd" d="M9.41 3.584a2 2 0 0 0-3.412 1.414v1.53c.002.154.003.31.003.47h1.996V7h3.407c.88 0 1.599.718 1.596 1.598v4.8c0 .883-.718 1.601-1.6 1.601h-7c-.882 0-1.4-.721-1.4-1.602V8.6c0-.737.363-1.36 1-1.544V4.998a3.999 3.999 0 0 1 6.705-2.942.999.999 0 0 1-.6 1.8c-.291 0-.467-.118-.695-.272ZM7 13.002h2.002v-3H7v3Z"/></svg>