<!--
* SPDX-FileCopyrightText: © 2020 Liferay, Inc. <https://liferay.com>
* SPDX-FileCopyrightText: © 2020 Contributors to the project Clay <https://github.com/liferay/clay/graphs/contributors>
*
* SPDX-License-Identifier: BSD-3-Clause
-->
<svg viewBox="0 0 16 16" xmlns="http://www.w3.org/2000/svg"><path d="M8.715.312c-.465-.422-1.018-.4-1.43 0L5.05 2.547c-.9.83.337 2.409 1.431 1.43l.522-.521v3.55c0 1.322 2 1.313 2 0v-3.55l.522.522c.875.91 2.39-.425 1.431-1.431L8.716.312Z"/><path d="M11.997 8.006v2H4.003v-2c0-1.344-2-1.303-2 0v1.997a2 2 0 0 0 2 2h7.99a2 2 0 0 0 2-2V8.006c.004-1.313-1.996-1.322-1.996 0ZM2 15.003a1 1 0 0 1 1-1h10a1 1 0 1 1 0 2H3a1 1 0 0 1-1-1Z"/></svg>
