<!--
* SPDX-FileCopyrightText: © 2020 Liferay, Inc. <https://liferay.com>
* SPDX-FileCopyrightText: © 2020 Contributors to the project Clay <https://github.com/liferay/clay/graphs/contributors>
*
* SPDX-License-Identifier: BSD-3-Clause
-->
<svg  viewBox="0 0 16 16" xmlns="http://www.w3.org/2000/svg">
<path class="lexicon-icon-outline" fill-rule="evenodd" clip-rule="evenodd" d="M7.28345 0.313181C7.69556 -0.086546 8.24927 -0.108424 8.71411 0.313181L10.9524 2.54905C11.9143 3.55463 10.3958 4.88801 9.52075 3.97929L8.99927 3.45783V11.0087C8.99927 12.3203 6.99927 12.3296 6.99927 11.0087V3.45783L6.47681 3.97929C5.38306 4.95987 4.14575 3.37973 5.04614 2.54905L7.28345 0.313181ZM11.9993 14.0066V12.008C11.9993 10.687 13.9993 10.6964 13.9993 12.008V14.0051C13.9993 15.1097 13.1038 16.0051 11.9993 16.0051H3.99927C2.8947 16.0051 1.99927 15.1097 1.99927 14.0051V12.008C1.99927 10.7058 3.99927 10.6652 3.99927 12.008V14.0066H11.9993Z" />
</svg>
