<!--
* SPDX-FileCopyrightText: © 2020 Liferay, Inc. <https://liferay.com>
* SPDX-FileCopyrightText: © 2020 Contributors to the project Clay <https://github.com/liferay/clay/graphs/contributors>
*
* SPDX-License-Identifier: BSD-3-Clause
-->
<svg  viewBox="0 0 16 16" xmlns="http://www.w3.org/2000/svg">
<path class="lexicon-icon-outline" d="M8.71533 0.312408C8.2497 -0.109467 7.69657 -0.0875919 7.28407 0.312408L5.04969 2.54678C4.14969 3.37803 5.38719 4.95616 6.48095 3.97803L7.00282 3.45616V7.00616C7.00282 8.32803 9.00283 8.31866 9.00283 7.00616V3.45616L9.5247 3.97803C10.3997 4.88741 11.9153 3.55303 10.956 2.54678L8.71533 0.312408Z" />
<path class="lexicon-icon-outline" d="M11.9969 8.00613V10.0061H4.00317V8.00613C4.00317 6.66238 2.00317 6.703 2.00317 8.00613V10.003C2.00317 11.1076 2.8986 12.003 4.00317 12.003H11.9938C13.0984 12.003 13.9938 11.1076 13.9938 10.003V8.00613C13.9969 6.69363 11.9969 6.68425 11.9969 8.00613Z" />
<path class="lexicon-icon-outline" d="M1.99927 15.0031C1.99927 14.4508 2.44698 14.0031 2.99927 14.0031H12.9993C13.5516 14.0031 13.9993 14.4508 13.9993 15.0031C13.9993 15.5553 13.5516 16.0031 12.9993 16.0031H2.99927C2.44698 16.0031 1.99927 15.5553 1.99927 15.0031Z" />
</svg>
