<!--
* SPDX-FileCopyrightText: © 2020 Liferay, Inc. <https://liferay.com>
* SPDX-FileCopyrightText: © 2020 Contributors to the project Clay <https://github.com/liferay/clay/graphs/contributors>
*
* SPDX-License-Identifier: BSD-3-Clause
-->
<svg viewBox="0 0 16 16" xmlns="http://www.w3.org/2000/svg"><path fill-rule="evenodd" clip-rule="evenodd" d="M7.283.313c.413-.4.966-.422 1.431 0l2.238 2.236c.962 1.006-.556 2.339-1.431 1.43l-.522-.521v7.55c0 1.312-2 1.322-2 0v-7.55l-.522.521c-1.094.98-2.331-.6-1.43-1.43L7.282.313ZM12 14.006v-1.998c0-1.321 2-1.312 2 0v1.997a2 2 0 0 1-2 2H4a2 2 0 0 1-2-2v-1.997c0-1.302 2-1.343 2 0v1.998h8Z"/></svg>
