<!--
* SPDX-FileCopyrightText: © 2022 Liferay, Inc. <https://liferay.com>
* SPDX-FileCopyrightText: © 2022 Contributors to the project Clay <https://github.com/liferay/clay/graphs/contributors>
*
* SPDX-License-Identifier: BSD-3-Clause
-->
<svg viewBox="0 0 16 16" xmlns="http://www.w3.org/2000/svg"><path class="lexicon-icon-outline" fill-rule="evenodd" clip-rule="evenodd" d="M7.284.31c.412-.4.966-.421 1.43 0l2.24 2.236c.961 1.006-.558 2.339-1.433 1.43L9 3.455v7.55c0 1.312-2 1.322-2 0v-7.55l-.522.521c-1.094.98-2.332-.6-1.431-1.43L7.284.31ZM12 14.004v-2c0-1.32 2-1.31 2 0v1.998a2 2 0 0 1-2 2H4a2 2 0 0 1-2-2v-1.997c0-1.302 2-1.343 2 0v1.998h8Z"/></svg>