<!--
* SPDX-FileCopyrightText: © 2020 Liferay, Inc. <https://liferay.com>
* SPDX-FileCopyrightText: © 2020 Contributors to the project Clay <https://github.com/liferay/clay/graphs/contributors>
*
* SPDX-License-Identifier: BSD-3-Clause
-->
<svg viewBox="0 0 16 16" xmlns="http://www.w3.org/2000/svg"><path d="M3.017 2.977c0-2.635 3.396-4.198 5.395-1.748-1.56.613-2.94 2.551-2.35 4.718-.01 0-.02.001-.029.003a.173.173 0 0 1-.028.003 2.981 2.981 0 0 1-2.988-2.976Zm9.994 2.001a2.982 2.982 0 0 1-2.988 2.976 2.982 2.982 0 0 1-2.989-2.976 2.982 2.982 0 0 1 2.989-2.976 2.982 2.982 0 0 1 2.988 2.976Z"/><path d="M16 13.402c0 3.47-11.948 3.47-11.948 0 0-6.133 11.947-6.07 11.947 0Z"/><path d="M6.407 6.847C.89 6.094-2.658 12.471 2.521 13.56c.05-2.93 2.286-4.711 5.02-5.368a4.048 4.048 0 0 1-1.134-1.344Z"/></svg>
