<!--
* SPDX-FileCopyrightText: © 2020 Liferay, Inc. <https://liferay.com>
* SPDX-FileCopyrightText: © 2020 Contributors to the project Clay <https://github.com/liferay/clay/graphs/contributors>
*
* SPDX-License-Identifier: BSD-3-Clause
-->
<svg  viewBox="0 0 16 16" xmlns="http://www.w3.org/2000/svg">
<path class="lexicon-icon-outline" d="M3.01658 2.97706C3.01658 0.341734 6.41291 -1.22133 8.41242 1.22955C6.85236 1.84228 5.47123 3.78047 6.06135 5.94688C6.05193 5.94688 6.04252 5.94844 6.0331 5.95001C6.02368 5.95157 6.01427 5.95313 6.00485 5.95313C4.35377 5.95313 3.01658 4.6214 3.01658 2.97706Z" />
<path class="lexicon-icon-outline" d="M13.011 4.97777C13.011 6.62141 11.6731 7.95384 10.0227 7.95384C8.37233 7.95384 7.03443 6.62141 7.03443 4.97777C7.03443 3.33413 8.37233 2.0017 10.0227 2.0017C11.6731 2.0017 13.011 3.33413 13.011 4.97777Z" />
<path class="lexicon-icon-outline" d="M15.9993 13.4026C15.9993 16.8726 4.05243 16.8726 4.05243 13.4026C4.05243 7.26915 15.9993 7.33167 15.9993 13.4026Z" />
<path class="lexicon-icon-outline" d="M6.40744 6.8472C0.889171 6.0938 -2.65784 12.4711 2.52142 13.559C2.57165 10.6298 4.80658 8.84792 7.5406 8.19143C7.06976 7.83192 6.68367 7.37551 6.40744 6.8472Z" />
</svg>
