<!--
* SPDX-FileCopyrightText: © 2022 Liferay, Inc. <https://liferay.com>
* SPDX-FileCopyrightText: © 2022 Contributors to the project Clay <https://github.com/liferay/clay/graphs/contributors>
*
* SPDX-License-Identifier: BSD-3-Clause
-->
<svg viewBox="0 0 16 16" xmlns="http://www.w3.org/2000/svg"><path class="lexicon-icon-outline" d="M3.017 2.974c0-2.635 3.397-4.198 5.396-1.748-1.56.613-2.941 2.551-2.35 4.718a.174.174 0 0 0-.03.003.173.173 0 0 1-.027.003 2.981 2.981 0 0 1-2.989-2.976Zm9.995 2.001a2.982 2.982 0 0 1-2.989 2.976 2.982 2.982 0 0 1-2.988-2.976 2.982 2.982 0 0 1 2.988-2.976 2.982 2.982 0 0 1 2.989 2.976Z"/><path class="lexicon-icon-outline" d="M16 13.4c0 3.47-11.947 3.47-11.947 0C4.053 7.266 16 7.329 16 13.4Z"/><path class="lexicon-icon-outline" d="M6.408 6.844c-5.518-.753-9.065 5.624-3.886 6.712.05-2.93 2.285-4.711 5.02-5.368a4.048 4.048 0 0 1-1.134-1.344Z"/></svg>