<!--
* SPDX-FileCopyrightText: © 2026 Liferay, Inc. <https://liferay.com>
* SPDX-FileCopyrightText: © 2026 Contributors to the project Clay <https://github.com/liferay/clay/graphs/contributors>
*
* SPDX-License-Identifier: BSD-3-Clause
-->
<svg viewBox="0 0 16 16" xmlns="http://www.w3.org/2000/svg">
	<path class="lexicon-icon-outline" d="M6.858 7.797V16C3.429 16 0 15.01 0 13.028c0-3.505 3.43-5.24 6.858-5.23ZM6.857 0c1.893 0 3.428 1.522 3.428 3.399S8.75 6.797 6.857 6.797c-1.894 0-3.429-1.522-3.429-3.398C3.428 1.522 4.963 0 6.857 0Zm8.189 12.386c.036-.242-.008-.614-.03-.783l.758-.502a.499.499 0 0 0 .155-.647l-.558-.984a.5.5 0 0 0-.64-.222l-.8.367a3.375 3.375 0 0 0-.78-.437l-.104-.749A.502.502 0 0 0 12.55 8h-1.094a.502.502 0 0 0-.497.432l-.101.733c-.29.12-.577.298-.786.454l-.781-.378c-.23-.09-.475-.07-.6.144l-.622.953a.5.5 0 0 0 .11.634l.785.628a3.36 3.36 0 0 0-.009.795l-.74.509a.501.501 0 0 0-.149.656l.608 1.008a.505.505 0 0 0 .642.209l.756-.402c.206.16.539.363.784.458l.09.722a.5.5 0 0 0 .496.442l1.126.003a.5.5 0 0 0 .499-.44l.083-.733a3.33 3.33 0 0 0 .787-.434l.823.338c.24.113.528.02.655-.213l.525-.94a.497.497 0 0 0-.146-.64l-.748-.551Zm-3.041.976c-1.62 0-1.725-2.499 0-2.499 1.698 0 1.62 2.5 0 2.5Z" />
</svg>