<!--
* SPDX-FileCopyrightText: © 2020 Liferay, Inc. <https://liferay.com>
* SPDX-FileCopyrightText: © 2020 Contributors to the project Clay <https://github.com/liferay/clay/graphs/contributors>
*
* SPDX-License-Identifier: BSD-3-Clause
-->
<svg  viewBox="0 0 16 16" xmlns="http://www.w3.org/2000/svg">
<path class="lexicon-icon-outline" d="M10.4094 11.3902C10.1313 11.3902 9.85 11.4962 9.6375 11.7083L9 12.3477V3.62722L9.6375 4.26348C10.0625 4.68765 10.7531 4.68765 11.1781 4.26348C11.6031 3.83931 11.6031 3.15003 11.1781 2.72586L8.76875 0.32118C8.56563 0.118451 8.29063 0.00305176 8 0.00305176C7.70937 0.00305176 7.43438 0.118451 7.22813 0.32118L4.81875 2.72586C4.39375 3.15003 4.39375 3.83931 4.81875 4.26348C5.03125 4.47557 5.30938 4.58161 5.59063 4.58161C5.86875 4.58161 6.15 4.47557 6.3625 4.26348L7 3.62722V12.3446L6.3625 11.7083C5.9375 11.2841 5.24688 11.2841 4.82188 11.7083C4.39688 12.1325 4.39688 12.8218 4.82188 13.2459L7.23125 15.6506C7.25625 15.6756 7.28437 15.7005 7.30938 15.7224C7.4875 15.8939 7.73125 15.9999 8 15.9999C8.26875 15.9999 8.5125 15.8939 8.69063 15.7224C8.71875 15.7005 8.74375 15.6756 8.76875 15.6506L11.1781 13.2459C11.6031 12.8218 11.6031 12.1325 11.1781 11.7083C10.9688 11.4962 10.6875 11.3902 10.4094 11.3902Z" />
</svg>
