<!--
* SPDX-FileCopyrightText: © 2022 Liferay, Inc. <https://liferay.com>
* SPDX-FileCopyrightText: © 2022 Contributors to the project Clay <https://github.com/liferay/clay/graphs/contributors>
*
* SPDX-License-Identifier: BSD-3-Clause
-->
<svg viewBox="0 0 16 16" xmlns="http://www.w3.org/2000/svg"><path class="lexicon-icon-outline" d="M10.412 11.39c-.278 0-.56.105-.772.317l-.638.64v-8.72l.638.636a1.092 1.092 0 0 0 1.541 0 1.086 1.086 0 0 0 0-1.538L8.771.32A1.087 1.087 0 0 0 8 .002a1.1 1.1 0 0 0-.77.318L4.82 2.725a1.086 1.086 0 0 0 .77 1.855c.278 0 .56-.106.772-.319L7 3.625v8.718l-.638-.637a1.093 1.093 0 0 0-1.541 0 1.086 1.086 0 0 0 0 1.538l2.41 2.405c.025.025.054.05.079.071A.994.994 0 0 0 8 16a.994.994 0 0 0 .692-.278.855.855 0 0 0 .078-.071l2.41-2.405a1.086 1.086 0 0 0-.769-1.856Z"/></svg>