<!--
* SPDX-FileCopyrightText: © 2020 Liferay, Inc. <https://liferay.com>
* SPDX-FileCopyrightText: © 2020 Contributors to the project Clay <https://github.com/liferay/clay/graphs/contributors>
*
* SPDX-License-Identifier: BSD-3-Clause
-->
<svg viewBox="0 0 16 16" xmlns="http://www.w3.org/2000/svg"><path d="M10.41 11.39c-.279 0-.56.106-.773.318l-.637.64v-8.72l.637.635a1.092 1.092 0 0 0 1.541 0 1.087 1.087 0 0 0 0-1.537L8.768.32A1.086 1.086 0 0 0 8 .003a1.1 1.1 0 0 0-.772.318l-2.41 2.405a1.087 1.087 0 0 0 .773 1.855c.278 0 .559-.106.771-.318L7 3.627v8.717l-.638-.636a1.092 1.092 0 0 0-1.54 0 1.087 1.087 0 0 0 0 1.538l2.41 2.404c.024.025.052.05.077.072A.993.993 0 0 0 8 16a.993.993 0 0 0 .69-.278c.029-.022.054-.047.079-.072l2.41-2.404a1.087 1.087 0 0 0-.77-1.856Z"/></svg>
