<!--
* SPDX-FileCopyrightText: © 2024 Liferay, Inc. <https://liferay.com>
* SPDX-FileCopyrightText: © 2024 Contributors to the project Clay <https://github.com/liferay/clay/graphs/contributors>
*
* SPDX-License-Identifier: BSD-3-Clause
-->
<svg viewBox="0 0 16 16" xmlns="http://www.w3.org/2000/svg"><path d="M13.238 3.602c.35-.227.452-.697.189-1.02A7 7 0 0 0 2.574 2.58c-.264.323-.161.794.188 1.02.35.228.814.124 1.087-.191a5.49 5.49 0 0 1 8.303 0c.273.316.736.42 1.086.192Z"/><path d="M10.969 4.322c.184.204.127.517-.098.674-.226.158-.533.1-.726-.097a3.005 3.005 0 0 0-4.362.076c-.186.203-.491.272-.722.123-.23-.15-.298-.46-.121-.67a4 4 0 0 1 6.029-.106Z"/><path fill-rule="evenodd" clip-rule="evenodd" d="M7 6.003H2c-1.104 0-2 .897-2 2v6c0 1.103.896 2 2 2h12c1.104 0 2-.897 2-2v-6c0-1.103-.896-2-2-2H9a1 1 0 1 0-2 0Zm-.5 2.5 4 2.5-4 2.5v-5Z"/></svg>
