<!--
* SPDX-FileCopyrightText: © 2020 Liferay, Inc. <https://liferay.com>
* SPDX-FileCopyrightText: © 2020 Contributors to the project Clay <https://github.com/liferay/clay/graphs/contributors>
*
* SPDX-License-Identifier: BSD-3-Clause
-->
<svg  viewBox="0 0 16 16" xmlns="http://www.w3.org/2000/svg">
<path class="lexicon-icon-outline" d="M13.2381 3.60258C13.5878 3.37556 13.6903 2.90493 13.4269 2.5817C12.8524 1.87653 12.1444 1.28814 11.3408 0.851735C10.3155 0.294881 9.16729 0.00314487 8.00053 0.00305178C6.83377 0.00295874 5.68549 0.294512 4.6601 0.851202C3.8565 1.28748 3.14836 1.87575 2.57374 2.58083C2.31035 2.90402 2.41273 3.37467 2.76239 3.60174C3.11206 3.82882 3.57598 3.72522 3.84884 3.40998C4.27978 2.91211 4.79818 2.49422 5.38048 2.17809C6.1847 1.74147 7.08531 1.5128 8.00041 1.51287C8.91551 1.51295 9.81609 1.74176 10.6202 2.1785C11.2025 2.49473 11.7208 2.9127 12.1517 3.41064C12.4245 3.72592 12.8884 3.82959 13.2381 3.60258Z" />
<path class="lexicon-icon-outline" d="M10.9688 4.32229C11.1529 4.52626 11.0958 4.83902 10.8706 4.99647C10.6454 5.15392 10.3377 5.09533 10.1453 4.89912C9.91868 4.66808 9.65548 4.47437 9.36527 4.32634C8.92671 4.10265 8.43991 3.99015 7.94767 3.99872C7.45544 4.00729 6.97285 4.13668 6.54235 4.3755C6.25746 4.53354 6.00117 4.7363 5.78276 4.97509C5.59728 5.17788 5.29185 5.24715 5.06126 5.09764C4.83067 4.94813 4.76273 4.63755 4.93969 4.42729C5.25277 4.05531 5.63198 3.74244 6.05956 3.50524C6.63265 3.18731 7.27508 3.01507 7.93035 3.00366C8.58561 2.99225 9.23365 3.14201 9.81746 3.43979C10.253 3.66196 10.6429 3.96144 10.9688 4.32229Z" />
<path class="lexicon-icon-outline" fill-rule="evenodd" clip-rule="evenodd" d="M7 6.00305H2C0.896484 6.00305 0 6.8999 0 8.00305V14.0031C0 15.1062 0.896484 16.0031 2 16.0031H14C15.1035 16.0031 16 15.1062 16 14.0031V8.00305C16 6.8999 15.1035 6.00305 14 6.00305H9C9 5.45077 8.55229 5.00305 8 5.00305C7.44772 5.00305 7 5.45077 7 6.00305ZM6.5 8.50305L10.5 11.0031L6.5 13.5031V8.50305Z" />
</svg>
