    <!--
* SPDX-FileCopyrightText: © 2022 Liferay, Inc. <https://liferay.com>
* SPDX-FileCopyrightText: © 2022 Contributors to the project Clay <https://github.com/liferay/clay/graphs/contributors>
*
* SPDX-License-Identifier: BSD-3-Clause
-->
<svg viewBox="0 0 16 16" xmlns="http://www.w3.org/2000/svg"><path class="lexicon-icon-outline" d="M13.238 3.6c.35-.227.452-.698.189-1.021a7 7 0 0 0-10.853-.001c-.264.323-.161.794.188 1.02.35.228.814.124 1.087-.191a5.49 5.49 0 0 1 8.303 0c.273.316.736.42 1.086.193Z" /><path d="M10.969 4.32c.184.203.127.516-.098.673-.226.158-.533.1-.726-.097a3.005 3.005 0 0 0-4.362.076c-.186.203-.491.272-.722.123-.23-.15-.298-.46-.121-.67a4 4 0 0 1 6.029-.106Z" /><path fill-rule="evenodd" clip-rule="evenodd" d="M7 6H2C.896 6 0 6.897 0 8v6c0 1.103.896 2 2 2h12c1.104 0 2-.897 2-2V8c0-1.103-.896-2-2-2H9a1 1 0 1 0-2 0Zm-.5 2.5 4 2.5-4 2.5v-5Z" /></svg>