<!--
* SPDX-FileCopyrightText: © 2020 Liferay, Inc. <https://liferay.com>
* SPDX-FileCopyrightText: © 2020 Contributors to the project Clay <https://github.com/liferay/clay/graphs/contributors>
*
* SPDX-License-Identifier: BSD-3-Clause
-->
<svg  viewBox="0 0 16 16" xmlns="http://www.w3.org/2000/svg">
<path class="lexicon-icon-outline" d="M5.6592 9.87493C3.84358 7.46869 6.0092 4.32807 8.8717 5.14057C6.5217 6.54994 9.41858 9.51243 10.8623 7.12807C11.7686 10.6312 7.45295 12.2249 5.6592 9.87493Z" />
<path class="lexicon-icon-outline" fill-rule="evenodd" clip-rule="evenodd" d="M15.8345 8.54053C11.8689 14.4374 4.13142 14.5437 0.15954 8.54366C-0.0560846 8.21553 -0.0529595 7.77803 0.16579 7.45616C4.13767 1.60616 11.8314 1.43428 15.8377 7.44991C16.0533 7.77491 16.0533 8.21553 15.8345 8.54053ZM2 8.00305C5.775 3.6968 10.3063 3.64055 14 8.00305C10.3063 12.3062 5.75625 12.2499 2 8.00305Z" />
</svg>
