<!--
* SPDX-FileCopyrightText: © 2022 Liferay, Inc. <https://liferay.com>
* SPDX-FileCopyrightText: © 2022 Contributors to the project Clay <https://github.com/liferay/clay/graphs/contributors>
*
* SPDX-License-Identifier: BSD-3-Clause
-->
<svg viewBox="0 0 16 16" xmlns="http://www.w3.org/2000/svg"><path class="lexicon-icon-outline" d="M5.66 9.874c-1.816-2.406.35-5.547 3.212-4.735-2.35 1.41.547 4.372 1.99 1.988.907 3.503-3.409 5.097-5.203 2.747Z"/><path class="lexicon-icon-outline" fill-rule="evenodd" clip-rule="evenodd" d="M15.835 8.54C11.869 14.435 4.132 14.542.16 8.542a.989.989 0 0 1 .006-1.088c3.972-5.85 11.666-6.022 15.672-.006a.994.994 0 0 1-.003 1.09ZM1.99 7.995c3.775-4.307 8.322-4.363 12.016 0-3.694 4.303-8.26 4.247-12.016 0Z"/></svg>