<!--
* SPDX-FileCopyrightText: © 2022 Liferay, Inc. <https://liferay.com>
* SPDX-FileCopyrightText: © 2022 Contributors to the project Clay <https://github.com/liferay/clay/graphs/contributors>
*
* SPDX-License-Identifier: BSD-3-Clause
-->
<svg viewBox="0 0 16 16" xmlns="http://www.w3.org/2000/svg"><path class="lexicon-icon-outline" fill-rule="evenodd" clip-rule="evenodd" d="M5.894 7.442a1 1 0 0 1-1.79-.894l3-5.994a1 1 0 0 1 1.79 0l3 5.994A.998.998 0 0 1 11 7.995a1 1 0 0 1-.895-.553l-.224-.447H6.117l-.223.447ZM8.88 4.997 8 3.235l-.882 1.762h1.764ZM6 11.99a1 1 0 0 0-1-.999V8.993a1 1 0 0 0-1-.999H0v7.992h5a1 1 0 0 0 1-.998V11.99Zm-3-.999v-.999H2v1h1ZM2 13.99v-1h2v1H2Zm12.326.01c.054.004.121.01.634-.01a.999.999 0 1 1 .078 1.996c-.3.012-.481.016-.605.016-.122 0-.19-.004-.263-.01-.039-.003-.07-.006-.17-.006-2.207 0-4-1.792-4-3.996a4.002 4.002 0 0 1 4-3.996c.595 0 1.094.058 1.116.06a.999.999 0 1 1-.233 1.985c-.003 0-.41-.047-.884-.047-1.102 0-2 .897-2 1.998 0 1.102.898 1.998 2 1.998.167 0 .247.006.327.012Z"/></svg>