<!--
* SPDX-FileCopyrightText: © 2020 Liferay, Inc. <https://liferay.com>
* SPDX-FileCopyrightText: © 2020 Contributors to the project Clay <https://github.com/liferay/clay/graphs/contributors>
*
* SPDX-License-Identifier: BSD-3-Clause
-->
<svg viewBox="0 0 16 16" xmlns="http://www.w3.org/2000/svg"><path fill-rule="evenodd" clip-rule="evenodd" d="M5.895 7.443a1 1 0 0 1-1.79-.894l3-5.994a1 1 0 0 1 1.79 0l3 5.994A.998.998 0 0 1 11 7.995a1 1 0 0 1-.896-.552l-.223-.447H6.118l-.223.447Zm2.987-2.445L8 3.236l-.882 1.762h1.764ZM6 12.003a1 1 0 0 0-1-1v-2a1 1 0 0 0-1-1c-1.333 0-2.667-.017-4 0v8h5a1 1 0 0 0 1-1v-3Zm-3-1v-1H2v1h1Zm-1 3v-1h2v1H2ZM14.327 14c.054.004.121.01.634-.01a.999.999 0 1 1 .078 1.996c-.3.011-.481.016-.605.016-.122 0-.19-.004-.263-.01-.04-.003-.07-.006-.171-.006-2.206 0-4-1.78-4-3.984a4.012 4.012 0 0 1 4-4.008c.596 0 1.095.058 1.116.06a.999.999 0 1 1-.232 1.985c-.003 0-.41-.047-.884-.047-1.102 0-2 .908-2 2.01 0 1.102.898 1.986 2 1.986.167 0 .247.005.327.012Z"/></svg>
