<!--
* SPDX-FileCopyrightText: © 2020 Liferay, Inc. <https://liferay.com>
* SPDX-FileCopyrightText: © 2020 Contributors to the project Clay <https://github.com/liferay/clay/graphs/contributors>
*
* SPDX-License-Identifier: BSD-3-Clause
-->
<svg  viewBox="0 0 16 16" xmlns="http://www.w3.org/2000/svg">
<path class="lexicon-icon-outline" fill-rule="evenodd" clip-rule="evenodd" d="M5.89453 7.44304C5.64746 7.93654 5.04688 8.13656 4.55273 7.8898C4.05859 7.64305 3.8584 7.04297 4.10547 6.54946L7.10547 0.555296C7.27539 0.216847 7.62109 0.00305176 8 0.00305176C8.37891 0.00305176 8.72559 0.216847 8.89453 0.555293L11.8945 6.54946C12.1416 7.04297 11.9414 7.64305 11.4473 7.8898C11.3037 7.96151 11.1514 7.99549 11.001 7.99549C10.6338 7.99552 10.2812 7.79313 10.1055 7.44303L9.88184 6.99625H6.11816L5.89453 7.44304ZM8.88184 4.99819L8 3.23598L7.11816 4.99819H8.88184ZM6 12.0031C6 11.4513 5.55273 11.0031 5 11.0031V9.00305C5 8.45131 4.55273 8.00305 4 8.00305C2.66678 8.00305 1.33314 7.98604 0 8.00305V16.0031H5C5.55273 16.0031 6 15.5548 6 15.0031V12.0031ZM3 11.0031V10.0031H2V11.0031H3ZM2 14.0031V13.0031H4V14.0031H2ZM14.3271 14.001C14.3809 14.0052 14.4482 14.0104 14.9609 13.9902C15.5117 13.9676 15.9775 14.3977 15.999 14.949C16.0205 15.5003 15.5908 15.9649 15.0391 15.9867C14.7383 15.9986 14.5576 16.0031 14.4336 16.0031C14.3115 16.0031 14.2441 15.9987 14.1709 15.9929C14.1318 15.9899 14.1016 15.9875 14 15.9875C11.7939 15.9875 10 14.2065 10 12.0031C10 9.7996 11.7939 7.99528 14 7.99528C14.5957 7.99528 15.0947 8.05262 15.1162 8.05507C15.6641 8.11897 16.0576 8.615 15.9932 9.16306C15.9297 9.71108 15.4336 10.1034 14.8838 10.0397C14.8809 10.0393 14.4746 9.99333 14 9.99333C12.8975 9.99333 12 10.9013 12 12.0031C12 13.1048 12.8975 13.9894 14 13.9894C14.167 13.9894 14.2471 13.9947 14.3271 14.001Z" />
</svg>
