<!--
* SPDX-FileCopyrightText: © 2025 Liferay, Inc. <https://liferay.com>
* SPDX-FileCopyrightText: © 2025 Contributors to the project Clay <https://github.com/liferay/clay/graphs/contributors>
*
* SPDX-License-Identifier: BSD-3-Clause
-->
<svg class="lexicon-icon" viewBox="0 0 16 16" xmlns="http://www.w3.org/2000/svg">
	<path class="lexicon-icon-outline" fill-rule="evenodd" clip-rule="evenodd" d="M14.139 1.922a.9.9 0 0 0-1.353 1.187c.765.872 1.21 2.267 1.225 3.753.015 1.486-.403 2.886-1.15 3.768a.9.9 0 0 0 1.374 1.163c1.107-1.307 1.594-3.174 1.576-4.95-.018-1.774-.542-3.633-1.672-4.921Zm-8.537 9.265a8.667 8.667 0 0 0-2.5.354c-1.047.314-1.992.837-2.7 1.571-.506.525-.047 1.279.681 1.279h.476c.253 0 .494-.1.698-.25.013-.01.025-.02.039-.029.808-.577 1.999-.928 3.3-.925 1.301.004 2.497.362 3.31.944l.021.015c.202.147.44.245.69.245h.486c.73 0 1.187-.758.676-1.281-.709-.725-1.65-1.246-2.692-1.56a8.714 8.714 0 0 0-2.485-.363ZM2.352 6.79c0 1.041.447 1.973 1.152 2.596.566.5 1.298.802 2.098.802a3.15 3.15 0 0 0 2.089-.795A3.455 3.455 0 0 0 8.85 6.79c0-1.877-1.454-3.398-3.25-3.398-1.794 0-3.25 1.521-3.25 3.398Zm4.5 0c0 .857-.643 1.398-1.25 1.398s-1.25-.54-1.25-1.398c0-.857.643-1.398 1.25-1.398s1.25.54 1.25 1.398Zm2.947-2.915a.75.75 0 0 1 1.06-.027c.832.79 1.22 1.935 1.234 3.029.013 1.093-.348 2.247-1.164 3.05a.75.75 0 1 1-1.052-1.07c.462-.455.725-1.18.716-1.962-.01-.781-.29-1.507-.766-1.96a.75.75 0 0 1-.028-1.06Z"/>
</svg>