<!--
* SPDX-FileCopyrightText: © 2022 Liferay, Inc. <https://liferay.com>
* SPDX-FileCopyrightText: © 2022 Contributors to the project Clay <https://github.com/liferay/clay/graphs/contributors>
*
* SPDX-License-Identifier: BSD-3-Clause
-->
<svg viewBox="0 0 16 16" xmlns="http://www.w3.org/2000/svg"><path d="M6.5 5.681c-.553 0-1 .463-1 1.031v1.032c0 .568.447 1.03 1 1.03h1c.553 0 1-.462 1-1.03V6.712c0-.568-.447-1.03-1-1.03h-1Zm0 4.129c.553 0 1 .462 1 1.03v1.032c0 .568-.447 1.03-1 1.03h-1c-.553 0-1-.462-1-1.03V10.84c0-.568.447-1.03 1-1.03h1Zm4 0c.553 0 1 .462 1 1.03v1.032c0 .568-.447 1.03-1 1.03h-1c-.553 0-1-.462-1-1.03V10.84c0-.568.447-1.03 1-1.03h1Z"/><path fill-rule="evenodd" clip-rule="evenodd" d="M9.2.415a1.952 1.952 0 0 0-2.4 0L.8 5.06A2.09 2.09 0 0 0 0 6.712v9.29h16v-9.29c0-.65-.297-1.262-.8-1.653L9.2.415ZM8 2.003l6 4.71v7.29H2v-7.29l6-4.71Z"/></svg>
