<!--
* SPDX-FileCopyrightText: © 2020 Liferay, Inc. <https://liferay.com>
* SPDX-FileCopyrightText: © 2020 Contributors to the project Clay <https://github.com/liferay/clay/graphs/contributors>
*
* SPDX-License-Identifier: BSD-3-Clause
-->
<svg  viewBox="0 0 16 16" xmlns="http://www.w3.org/2000/svg">
<path class="lexicon-icon-outline" d="M6.5 5.68118C5.94688 5.68118 5.5 6.14368 5.5 6.71243V7.74368C5.5 8.31243 5.94688 8.77493 6.5 8.77493H7.5C8.05313 8.77493 8.5 8.31243 8.5 7.74368V6.71243C8.5 6.14368 8.05313 5.68118 7.5 5.68118H6.5Z" />
<path class="lexicon-icon-outline" d="M6.5 9.8093C7.05312 9.8093 7.5 10.2718 7.5 10.8405V11.8718C7.5 12.4405 7.05312 12.903 6.5 12.903H5.5C4.94688 12.903 4.5 12.4405 4.5 11.8718V10.8405C4.5 10.2718 4.94688 9.8093 5.5 9.8093H6.5Z" />
<path class="lexicon-icon-outline" d="M10.5 9.8093C11.0531 9.8093 11.5 10.2718 11.5 10.8405V11.8718C11.5 12.4405 11.0531 12.903 10.5 12.903H9.5C8.94687 12.903 8.5 12.4405 8.5 11.8718V10.8405C8.5 10.2718 8.94687 9.8093 9.5 9.8093H10.5Z" />
<path class="lexicon-icon-outline" fill-rule="evenodd" clip-rule="evenodd" d="M9.2 0.415552C8.4875 -0.134448 7.5125 -0.134448 6.8 0.415552L0.8 5.0593C0.296875 5.44993 0 6.06243 0 6.71243V16.0031H16V6.71243C16 6.06243 15.7031 5.44993 15.2 5.0593L9.2 0.415552ZM8 2.00305L14 6.71243V14.0031H2V6.71243L8 2.00305Z" />
</svg>
