<!--
* SPDX-FileCopyrightText: © 2022 Liferay, Inc. <https://liferay.com>
* SPDX-FileCopyrightText: © 2022 Contributors to the project Clay <https://github.com/liferay/clay/graphs/contributors>
*
* SPDX-License-Identifier: BSD-3-Clause
-->
<svg viewBox="0 0 16 16" xmlns="http://www.w3.org/2000/svg"><path class="lexicon-icon-outline" d="M6.5 5.68c-.554 0-1 .463-1 1.031v1.032c0 .568.446 1.03 1 1.03h1c.552 0 1-.462 1-1.03V6.71c0-.568-.448-1.03-1-1.03h-1Zm0 4.128c.552 0 1 .463 1 1.032v1.03c0 .57-.448 1.032-1 1.032h-1c-.554 0-1-.462-1-1.031V10.84c0-.57.446-1.032 1-1.032h1Zm4 0c.552 0 1 .463 1 1.032v1.03c0 .57-.448 1.032-1 1.032h-1c-.554 0-1-.462-1-1.031V10.84c0-.57.446-1.032 1-1.032h1Z"/><path class="lexicon-icon-outline" fill-rule="evenodd" clip-rule="evenodd" d="M9.2.415a1.952 1.952 0 0 0-2.4 0l-6 4.643A2.089 2.089 0 0 0 0 6.711v9.291h16v-9.29c0-.65-.298-1.263-.8-1.654L9.2.415ZM8 2.065l6 4.646v7.226H2V6.71l6-4.646Z"/></svg>