<!--
* SPDX-FileCopyrightText: © 2020 Liferay, Inc. <https://liferay.com>
* SPDX-FileCopyrightText: © 2020 Contributors to the project Clay <https://github.com/liferay/clay/graphs/contributors>
*
* SPDX-License-Identifier: BSD-3-Clause
-->
<svg  viewBox="0 0 16 16" xmlns="http://www.w3.org/2000/svg">
<path class="lexicon-icon-outline" fill-rule="evenodd" clip-rule="evenodd" d="M8.875 7.14586C8.875 7.98326 8.87497 8.31484 8.87495 8.86041C8.87495 9.33377 8.48322 9.71729 8 9.71729C7.51678 9.71729 7.12505 9.33377 7.12503 8.86041C7.125 8.31484 7.125 7.98326 7.125 7.14586C7.125 6.30845 7.125 6.61976 7.12503 6.07416C7.12505 5.6008 7.51678 5.21729 8 5.21729C8.48322 5.21729 8.87495 5.6008 8.87495 6.07416C8.87497 6.61976 8.875 6.30845 8.875 7.14586ZM8 12.5031C7.51675 12.5031 7.125 12.1193 7.125 11.646C7.125 11.1726 7.51675 10.7888 8 10.7888C8.48325 10.7888 8.875 11.1726 8.875 11.646C8.875 12.1193 8.48325 12.5031 8 12.5031ZM14.844 12.109L8.99195 2.63544C8.78386 2.23903 8.4133 2.00305 8 2.00305C7.58667 2.00305 7.21613 2.23903 7.00805 2.63544L1.15606 12.109C0.947978 12.5023 0.947978 12.9742 1.15606 13.3707C1.36412 13.7671 1.73469 14.0031 2.14802 14.0031H13.852C14.2653 14.0031 14.6359 13.7671 14.844 13.3707C15.052 12.9774 15.052 12.5055 14.844 12.109Z" />
</svg>
