<!--
* SPDX-FileCopyrightText: © 2020 Liferay, Inc. <https://liferay.com>
* SPDX-FileCopyrightText: © 2020 Contributors to the project Clay <https://github.com/liferay/clay/graphs/contributors>
*
* SPDX-License-Identifier: BSD-3-Clause
-->
<svg  viewBox="0 0 16 16" xmlns="http://www.w3.org/2000/svg">
<path class="lexicon-icon-outline" fill-rule="evenodd" clip-rule="evenodd" d="M9.13356 1.64847L15.821 13.0668C16.0587 13.4714 16.0587 13.953 15.821 14.3544C15.5833 14.759 15.1597 14.9998 14.6882 14.9998H1.31136C0.838863 14.9998 0.415274 14.759 0.177556 14.3544C-0.060162 13.9498 -0.060162 13.4682 0.177556 13.0668L6.86595 1.64847C7.10367 1.24388 7.52726 1.00305 7.99976 1.00305C8.47226 1.00305 8.89585 1.24388 9.13356 1.64847ZM7.99878 3.36636L2.36985 12.9801H13.6287L7.99878 3.36636ZM7.47834 9.96177H8.52019L8.9115 5.75535H7.08704L7.47834 9.96177ZM7.99976 12.5627C8.57595 12.5627 9.04161 12.1035 9.04161 11.5352C9.04161 10.9668 8.57595 10.5076 7.99976 10.5076C7.42258 10.5076 6.95693 10.9668 6.95693 11.5352C6.95693 12.1035 7.42258 12.5627 7.99976 12.5627Z" />
</svg>
