<!--
* SPDX-FileCopyrightText: © 2022 Liferay, Inc. <https://liferay.com>
* SPDX-FileCopyrightText: © 2022 Contributors to the project Clay <https://github.com/liferay/clay/graphs/contributors>
*
* SPDX-License-Identifier: BSD-3-Clause
-->
<svg viewBox="0 0 16 16" xmlns="http://www.w3.org/2000/svg"><path class="lexicon-icon-outline" fill-rule="evenodd" clip-rule="evenodd" d="M8.874 7.145v1.714A.866.866 0 0 1 8 9.716a.866.866 0 0 1-.875-.857V6.073c0-.473.392-.857.875-.857s.875.384.875.857v1.072ZM8 12.502a.866.866 0 0 1-.875-.857c0-.473.392-.857.875-.857.484 0 .875.384.875.857a.866.866 0 0 1-.875.857Zm6.844-.394L8.991 2.634c-.208-.396-.578-.632-.992-.632-.413 0-.784.236-.992.632l-5.852 9.474a1.353 1.353 0 0 0 0 1.262c.208.396.579.632.992.632h11.704c.414 0 .784-.236.992-.632a1.353 1.353 0 0 0 0-1.262Z"/></svg>