<!--
* SPDX-FileCopyrightText: © 2020 Liferay, Inc. <https://liferay.com>
* SPDX-FileCopyrightText: © 2020 Contributors to the project Clay <https://github.com/liferay/clay/graphs/contributors>
*
* SPDX-License-Identifier: BSD-3-Clause
-->
<svg viewBox="0 0 16 16" xmlns="http://www.w3.org/2000/svg"><path fill-rule="evenodd" clip-rule="evenodd" d="m9.134 1.648 6.687 11.419a1.25 1.25 0 0 1 0 1.287 1.3 1.3 0 0 1-1.133.646H1.311a1.3 1.3 0 0 1-1.133-.646 1.252 1.252 0 0 1 0-1.287L6.866 1.648A1.3 1.3 0 0 1 8 1.003a1.3 1.3 0 0 1 1.134.645ZM7.999 3.366l-5.63 9.614h11.26l-5.63-9.614Zm-.52 6.596H8.52l.392-4.207H7.087l.391 4.207Zm.52 2.6c.577 0 1.043-.459 1.043-1.027 0-.568-.466-1.027-1.042-1.027-.577 0-1.043.459-1.043 1.027 0 .568.466 1.028 1.043 1.028Z"/></svg>
