<!--
* SPDX-FileCopyrightText: © 2020 Liferay, Inc. <https://liferay.com>
* SPDX-FileCopyrightText: © 2020 Contributors to the project Clay <https://github.com/liferay/clay/graphs/contributors>
*
* SPDX-License-Identifier: BSD-3-Clause
-->
<svg viewBox="0 0 16 16" xmlns="http://www.w3.org/2000/svg"><path fill-rule="evenodd" clip-rule="evenodd" d="M8.875 7.146V8.86A.866.866 0 0 1 8 9.717a.866.866 0 0 1-.875-.857V6.074c0-.473.392-.857.875-.857s.875.384.875.857v1.072ZM8 12.503a.866.866 0 0 1-.875-.857c0-.474.392-.857.875-.857s.875.383.875.857a.866.866 0 0 1-.875.857Zm6.844-.394L8.992 2.635c-.208-.396-.579-.632-.992-.632-.413 0-.784.236-.992.632L1.156 12.11a1.353 1.353 0 0 0 0 1.261c.208.397.579.633.992.633h11.704c.413 0 .784-.236.992-.633a1.353 1.353 0 0 0 0-1.261Z"/></svg>
