<!--
* SPDX-FileCopyrightText: © 2020 Liferay, Inc. <https://liferay.com>
* SPDX-FileCopyrightText: © 2020 Contributors to the project Clay <https://github.com/liferay/clay/graphs/contributors>
*
* SPDX-License-Identifier: BSD-3-Clause
-->
<svg viewBox="0 0 16 16" xmlns="http://www.w3.org/2000/svg"><path fill-rule="evenodd" clip-rule="evenodd" d="M0 14.003v-12c0-1.103.896-2 2-2h12c1.104 0 2 .897 2 2v12c0 1.103-.896 2-2 2H2c-1.104 0-2-.897-2-2Zm14 0v-12H2v12h12Zm-2.5-4c.688 0 .656-1 0-1h-7c-.656 0-.656 1 0 1h7Zm-2 2h-5c-.688 0-.656-1 0-1h5c.625 0 .688 1 0 1Zm.5-5a2 2 0 1 0 0-4 2 2 0 0 0 0 4Zm-4-4-2 4h4l-2-4Z"/></svg>
