<!--
* SPDX-FileCopyrightText: © 2022 Liferay, Inc. <https://liferay.com>
* SPDX-FileCopyrightText: © 2022 Contributors to the project Clay <https://github.com/liferay/clay/graphs/contributors>
*
* SPDX-License-Identifier: BSD-3-Clause
-->
<svg viewBox="0 0 16 16" xmlns="http://www.w3.org/2000/svg"><path class="lexicon-icon-outline" fill-rule="evenodd" clip-rule="evenodd" d="M1.98.002h9.777a3 3 0 0 1 2.12.879l1.244 1.242a3 3 0 0 1 .878 2.122v9.757c0 1.094-1.043 2-2.136 2H1.98c-1.094 0-1.98-.906-1.98-2V1.983A1.98 1.98 0 0 1 1.98.003Zm.02 2v12h12v-9h-2a1 1 0 0 1-1-1v-2H2Zm2 8a1 1 0 1 1 0-2h8a1 1 0 1 1 0 2H4Zm5 1H4a.998.998 0 0 0-1 1 1 1 0 0 0 1 1h5a.996.996 0 0 0 1-1 1 1 0 0 0-1-1Zm-4.934-4.49-.098-.241-.84-2.456c-.084-.21-.125-.354-.125-.432 0-.1.047-.19.135-.268a.477.477 0 0 1 .328-.12c.172 0 .287.045.35.132.058.088.125.238.193.447l.682 2.303.619-2.156c.064-.2.115-.34.146-.413a.537.537 0 0 1 .178-.209.587.587 0 0 1 .36-.1c.156 0 .279.034.365.1a.59.59 0 0 1 .185.219l.03.068c.033.08.074.192.12.338l.618 2.156.687-2.303c.045-.15.082-.26.11-.325a.458.458 0 0 1 .14-.175.363.363 0 0 1 .125-.057.684.684 0 0 1 .164-.018.478.478 0 0 1 .438.263.35.35 0 0 1 .023.125c0 .093-.039.237-.117.43L8.03 6.275c-.077.187-.131.322-.172.406a.629.629 0 0 1-.194.225.479.479 0 0 1-.187.083.813.813 0 0 1-.176.017.6.6 0 0 1-.371-.106.671.671 0 0 1-.201-.26c-.043-.1-.09-.234-.14-.396L5.99 4.205l-.578 2.038c-.076.25-.156.44-.248.569-.088.128-.244.19-.468.19a.697.697 0 0 1-.291-.06.499.499 0 0 1-.2-.168 1.336 1.336 0 0 1-.14-.263Z"/></svg>