<!--
* SPDX-FileCopyrightText: © 2020 Liferay, Inc. <https://liferay.com>
* SPDX-FileCopyrightText: © 2020 Contributors to the project Clay <https://github.com/liferay/clay/graphs/contributors>
*
* SPDX-License-Identifier: BSD-3-Clause
-->
<svg viewBox="0 0 16 16" xmlns="http://www.w3.org/2000/svg"><path fill-rule="evenodd" clip-rule="evenodd" d="M14 .003H2c-1.104 0-2 .897-2 2v12c0 1.103.896 2 2 2h12c1.104 0 2-.897 2-2v-12c0-1.103-.896-2-2-2Zm0 14H2v-12h12v12Zm-10-6h8a1 1 0 1 1 0 2H4a1 1 0 1 1 0-2Zm5 3H4a1 1 0 1 0 0 2h5a1 1 0 1 0 0-2ZM6.019 6.398l-.05-.126-.841-2.457c-.084-.209-.125-.353-.125-.43 0-.1.047-.191.135-.27a.473.473 0 0 1 .328-.118c.172 0 .287.043.35.13.059.088.124.238.193.448l.681 2.303.62-2.156c.065-.2.115-.341.146-.413a.546.546 0 0 1 .178-.21.587.587 0 0 1 .36-.1c.155 0 .277.035.365.1a.61.61 0 0 1 .185.22c.037.078.087.212.15.406l.618 2.156L10 3.578c.044-.15.081-.26.11-.325a.44.44 0 0 1 .14-.175.475.475 0 0 1 .287-.075c.125 0 .234.037.325.116A.35.35 0 0 1 11 3.39c0 .094-.041.238-.12.432l-.852 2.453a8.03 8.03 0 0 1-.172.406.58.58 0 0 1-.557.325.605.605 0 0 1-.371-.106.67.67 0 0 1-.2-.26c-.043-.1-.09-.234-.141-.396L7.99 4.206l-.578 2.038c-.075.25-.156.44-.247.568-.087.128-.243.19-.469.19a.685.685 0 0 1-.29-.058.496.496 0 0 1-.2-.17 1.338 1.338 0 0 1-.14-.262l-.047-.114Z"/></svg>
