<!--
* SPDX-FileCopyrightText: © 2022 Liferay, Inc. <https://liferay.com>
* SPDX-FileCopyrightText: © 2022 Contributors to the project Clay <https://github.com/liferay/clay/graphs/contributors>
*
* SPDX-License-Identifier: BSD-3-Clause
-->
<svg viewBox="0 0 16 16" xmlns="http://www.w3.org/2000/svg"><path class="lexicon-icon-outline" fill-rule="evenodd" clip-rule="evenodd" d="M14 .002H2c-1.104 0-2 .897-2 2v12c0 1.103.896 2 2 2h12c1.103 0 2-.897 2-2v-12c0-1.103-.897-2-2-2Zm0 14H2v-12h12v12Zm-10-6h8a1 1 0 1 1 0 2H4a1 1 0 1 1 0-2Zm5 3H4a1 1 0 1 0 0 2h5a1 1 0 1 0 0-2ZM6.017 6.397l-.05-.126-.84-2.456c-.085-.21-.126-.354-.126-.432 0-.1.047-.19.135-.268a.474.474 0 0 1 .328-.12c.172 0 .287.045.35.132.06.088.125.238.193.447l.682 2.303.619-2.156c.065-.2.115-.34.146-.413a.546.546 0 0 1 .178-.21.587.587 0 0 1 .36-.1.6.6 0 0 1 .366.1c.087.07.15.142.184.22.037.078.087.212.15.406l.619 2.156.687-2.303c.044-.15.081-.26.11-.325a.44.44 0 0 1 .14-.175.475.475 0 0 1 .287-.075c.125 0 .235.038.326.116.09.078.137.168.137.272 0 .093-.04.237-.119.43l-.852 2.454a8.04 8.04 0 0 1-.172.406.58.58 0 0 1-.557.325.605.605 0 0 1-.372-.106.67.67 0 0 1-.2-.26c-.043-.1-.09-.234-.14-.396l-.598-2.038-.578 2.038c-.075.25-.156.44-.247.568-.087.129-.243.191-.468.191a.685.685 0 0 1-.29-.06.496.496 0 0 1-.2-.168 1.338 1.338 0 0 1-.141-.263l-.047-.114Z"/></svg>