<!--
* SPDX-FileCopyrightText: © 2020 Liferay, Inc. <https://liferay.com>
* SPDX-FileCopyrightText: © 2020 Contributors to the project Clay <https://github.com/liferay/clay/graphs/contributors>
*
* SPDX-License-Identifier: BSD-3-Clause
-->
<svg  viewBox="0 0 16 16" xmlns="http://www.w3.org/2000/svg">
<path class="lexicon-icon-outline" fill-rule="evenodd" clip-rule="evenodd" d="M14 0.00305176H2C0.896484 0.00305176 0 0.899933 0 2.00305V14.0031C0 15.1062 0.896484 16.0031 2 16.0031H14C15.1035 16.0031 16 15.1062 16 14.0031V2.00305C16 0.899933 15.1035 0.00305176 14 0.00305176ZM14 14.0031H2V2.00305H14V14.0031ZM4 8.00305H12C12.5527 8.00305 13 8.44992 13 9.00305C13 9.55618 12.5527 10.0031 12 10.0031H4C3.44727 10.0031 3 9.55618 3 9.00305C3 8.44992 3.44727 8.00305 4 8.00305ZM9 11.0031H4C3.44727 11.0031 3 11.4499 3 12.0031C3 12.5562 3.44727 13.0031 4 13.0031H9C9.55273 13.0031 10 12.5562 10 12.0031C10 11.4499 9.55273 11.0031 9 11.0031ZM6.01855 6.39807L5.96875 6.27179L5.12793 3.81555C5.04395 3.60617 5.00293 3.46243 5.00293 3.38431C5.00293 3.2843 5.0498 3.19366 5.1377 3.11554C5.22461 3.03741 5.33398 2.9968 5.46582 2.9968C5.6377 2.9968 5.75293 3.04056 5.81543 3.12805C5.875 3.21555 5.94043 3.36554 6.00879 3.57492L6.69043 5.87805L7.30957 3.7218C7.375 3.52179 7.4248 3.38116 7.45605 3.3093C7.4873 3.23743 7.54688 3.16556 7.63379 3.09991C7.72168 3.0343 7.84082 2.99991 7.99316 2.99991C8.14941 2.99991 8.27148 3.0343 8.35938 3.09991C8.44629 3.16867 8.50879 3.24054 8.54395 3.31866C8.58105 3.39679 8.63086 3.53116 8.69336 3.72491L9.3125 5.88116L10 3.57803C10.0439 3.42804 10.0811 3.31866 10.1094 3.25305C10.1377 3.18741 10.1846 3.12805 10.25 3.07803C10.3184 3.02805 10.4121 3.00305 10.5371 3.00305C10.6621 3.00305 10.7715 3.04056 10.8623 3.11868C10.9531 3.19681 11 3.28741 11 3.39053C11 3.48428 10.959 3.62805 10.8809 3.82181L10.0283 6.27493C9.95312 6.46243 9.89648 6.5968 9.85645 6.68118C9.81543 6.76553 9.75293 6.83743 9.66211 6.90616C9.57129 6.97491 9.45312 7.00616 9.2998 7.00616C9.14355 7.00616 9.01855 6.96866 8.92773 6.89993C8.83691 6.82803 8.77148 6.74054 8.72754 6.64053C8.68457 6.54056 8.6377 6.40616 8.58691 6.24368L7.99023 4.20618L7.41211 6.24368C7.33691 6.49368 7.25586 6.6843 7.16504 6.81241C7.07812 6.94055 6.92188 7.00305 6.69629 7.00305C6.58398 7.00305 6.4873 6.98117 6.40625 6.94366C6.3252 6.90616 6.25879 6.84991 6.20605 6.77493C6.15332 6.69992 6.10645 6.61243 6.06543 6.51242L6.01855 6.39807Z" />
</svg>
