<!--
* SPDX-FileCopyrightText: © 2020 Liferay, Inc. <https://liferay.com>
* SPDX-FileCopyrightText: © 2020 Contributors to the project Clay <https://github.com/liferay/clay/graphs/contributors>
*
* SPDX-License-Identifier: BSD-3-Clause
-->
<svg  viewBox="0 0 16 16" xmlns="http://www.w3.org/2000/svg">
<path class="lexicon-icon-outline" fill-rule="evenodd" clip-rule="evenodd" d="M2 0.00305176H13L16 3.00305C16 3.00305 16 12.9093 16 14.0031C16 15.0968 15.0938 16.0031 14 16.0031C12.9062 16.0031 3.09375 16.0031 2 16.0031C0.90625 16.0031 0 15.0968 0 14.0031V2.00305C0 0.909302 0.90625 0.00305176 2 0.00305176ZM2 2.00305V14.0031H14V6.00305H11H10V5.00305V2.00305H9H2ZM4 10.0031C3.44727 10.0031 3 9.55615 3 9.00305C3 8.44995 3.44727 8.00305 4 8.00305H12C12.5527 8.00305 13 8.44995 13 9.00305C13 9.55615 12.5527 10.0031 12 10.0031H4ZM9 11.0031H4C3.68359 11.0031 3.40234 11.1494 3.21875 11.3782C3.08203 11.5492 3 11.7664 3 12.0031C3 12.5562 3.44727 13.0031 4 13.0031H9C9.29102 13.0031 9.55469 12.8787 9.73633 12.6798C9.90039 12.5018 10 12.2643 10 12.0031C10 11.45 9.55273 11.0031 9 11.0031ZM12 4.00305V2.00305L14 4.00305H12ZM4.06641 6.51245L3.96875 6.27185L3.12891 3.81555C3.04492 3.6062 3.00391 3.4624 3.00391 3.38428C3.00391 3.2843 3.05078 3.19373 3.13867 3.1156C3.22656 3.03748 3.33594 2.99683 3.4668 2.99683C3.63867 2.99683 3.75391 3.04053 3.81641 3.12805C3.875 3.21558 3.94141 3.3656 4.00977 3.57495L4.69141 5.87805L5.31055 3.7218C5.375 3.52185 5.42578 3.38123 5.45703 3.30933C5.48828 3.23743 5.54688 3.16553 5.63477 3.09998C5.72266 3.0343 5.8418 3 5.99414 3C6.15039 3 6.27344 3.0343 6.35938 3.09998C6.44727 3.1687 6.50977 3.2406 6.54492 3.31873L6.57422 3.3866C6.60742 3.46655 6.64844 3.57886 6.69531 3.72498L7.3125 5.88123L8 3.57812C8.04492 3.4281 8.08203 3.31873 8.10938 3.25305C8.13867 3.1875 8.18555 3.12805 8.25 3.07812C8.28516 3.05273 8.32617 3.03369 8.375 3.02124C8.42383 3.00916 8.47852 3.00305 8.53906 3.00305C8.66406 3.00305 8.77344 3.04053 8.86328 3.11865C8.91602 3.1637 8.95312 3.21289 8.97656 3.26624C8.99219 3.30542 9 3.34692 9 3.39062C9 3.48438 8.96094 3.62805 8.88281 3.82178L8.0293 6.2749C7.95312 6.4624 7.89844 6.5968 7.85742 6.68115C7.81641 6.76562 7.75391 6.8374 7.66406 6.90625C7.61133 6.9458 7.54883 6.97302 7.47656 6.98889C7.42383 7.00061 7.36523 7.00623 7.30078 7.00623C7.14453 7.00623 7.01953 6.96875 6.92969 6.8999C6.83789 6.82812 6.77344 6.7406 6.72852 6.64062C6.68555 6.54053 6.63867 6.40625 6.58789 6.24365L5.99219 4.20618L5.41406 6.24365C5.33789 6.49365 5.25781 6.68433 5.16602 6.8125C5.07812 6.94055 4.92188 7.00305 4.69727 7.00305C4.58594 7.00305 4.48828 6.9812 4.40625 6.94373C4.32617 6.90625 4.25977 6.84998 4.20703 6.7749C4.1543 6.69995 4.10742 6.61243 4.06641 6.51245Z" />
</svg>
