<!--
* SPDX-FileCopyrightText: © 2020 Liferay, Inc. <https://liferay.com>
* SPDX-FileCopyrightText: © 2020 Contributors to the project Clay <https://github.com/liferay/clay/graphs/contributors>
*
* SPDX-License-Identifier: BSD-3-Clause
-->
<svg viewBox="0 0 16 16" xmlns="http://www.w3.org/2000/svg"><path fill-rule="evenodd" clip-rule="evenodd" d="M2 .003h11l3 3v11c0 1.094-.906 2-2 2H2c-1.094 0-2-.906-2-2v-12c0-1.094.906-2 2-2Zm0 2v12h12v-8h-4v-4H2Zm2 8a1 1 0 1 1 0-2h8a1 1 0 1 1 0 2H4Zm5 1H4a.998.998 0 0 0-1 1 1 1 0 0 0 1 1h5a.996.996 0 0 0 1-1 1 1 0 0 0-1-1Zm3-7v-2l2 2h-2Zm-7.934 2.51-.097-.241-.84-2.457c-.084-.209-.125-.353-.125-.43 0-.1.047-.191.135-.27a.477.477 0 0 1 .328-.118c.172 0 .287.043.35.13.058.088.124.238.193.448l.681 2.303.62-2.156c.064-.2.115-.34.146-.413a.537.537 0 0 1 .178-.21.587.587 0 0 1 .36-.1c.155 0 .278.035.364.1.088.07.15.141.186.22l.03.067c.032.08.073.193.12.339l.617 2.156L8 3.578c.045-.15.082-.26.11-.325a.458.458 0 0 1 .14-.175.363.363 0 0 1 .125-.057.684.684 0 0 1 .164-.018.478.478 0 0 1 .438.263c.015.04.023.08.023.124 0 .094-.04.238-.117.432l-.854 2.453c-.076.187-.13.322-.172.406a.629.629 0 0 1-.193.225.479.479 0 0 1-.187.083.812.812 0 0 1-.176.017.6.6 0 0 1-.371-.106.67.67 0 0 1-.201-.26c-.043-.1-.09-.234-.141-.396l-.596-2.038-.578 2.038c-.076.25-.156.44-.248.568-.088.128-.244.19-.469.19a.697.697 0 0 1-.29-.058.499.499 0 0 1-.2-.17 1.336 1.336 0 0 1-.14-.262Z"/></svg>
