<!--
* SPDX-FileCopyrightText: © 2020 Liferay, Inc. <https://liferay.com>
* SPDX-FileCopyrightText: © 2020 Contributors to the project Clay <https://github.com/liferay/clay/graphs/contributors>
*
* SPDX-License-Identifier: BSD-3-Clause
-->
<svg  viewBox="0 0 16 16" xmlns="http://www.w3.org/2000/svg">
<path class="lexicon-icon-outline" fill-rule="evenodd" clip-rule="evenodd" d="M14 0.00305176H2C0.896484 0.00305176 0 0.899902 0 2.00305V14.0031C0 15.1062 0.896484 16.0031 2 16.0031H14C15.1035 16.0031 16 15.1062 16 14.0031V2.00305C16 0.899902 15.1035 0.00305176 14 0.00305176ZM14 2.00305V14.0031H2V2.00305H14ZM11 6.50305V8.0531C12.1406 8.2843 13 9.2937 13 10.5031C13 11.8843 11.8809 13.0031 10.5 13.0031C9.29102 13.0031 8.28125 12.1437 8.05078 11.0031H6H5V10.0031V8.00305H3V3.00305H8V8.00305H6V10.0031H8.05078C8.25 9.0249 9.02148 8.25305 10 8.0531V6.50305H9L10.5 3.50305L12 6.50305H11Z" />
</svg>
