<!--
* SPDX-FileCopyrightText: © 2020 Liferay, Inc. <https://liferay.com>
* SPDX-FileCopyrightText: © 2020 Contributors to the project Clay <https://github.com/liferay/clay/graphs/contributors>
*
* SPDX-License-Identifier: BSD-3-Clause
-->
<svg viewBox="0 0 16 16" xmlns="http://www.w3.org/2000/svg"><path fill-rule="evenodd" clip-rule="evenodd" d="M14 .003H2c-1.104 0-2 .897-2 2v12c0 1.103.896 2 2 2h12c1.104 0 2-.897 2-2v-12c0-1.103-.896-2-2-2Zm0 2v12H2v-12h12Zm-3 4.5v1.55a2.501 2.501 0 1 1-2.95 2.95H5v-3H3v-5h5v5H6v2h2.05c.2-.978.971-1.75 1.95-1.95v-1.55H9l1.5-3 1.5 3h-1Z"/></svg>
